G04*
G04 #@! TF.GenerationSoftware,Altium Limited,Altium Designer,25.7.1 (20)*
G04*
G04 Layer_Color=8388736*
%FSLAX44Y44*%
%MOMM*%
G71*
G04*
G04 #@! TF.SameCoordinates,66F0D8C6-04CA-480C-B019-D4CA667347D7*
G04*
G04*
G04 #@! TF.FilePolarity,Negative*
G04*
G01*
G75*
%ADD44R,0.5032X1.1032*%
G04:AMPARAMS|DCode=45|XSize=0.7532mm|YSize=0.8532mm|CornerRadius=0.1566mm|HoleSize=0mm|Usage=FLASHONLY|Rotation=315.000|XOffset=0mm|YOffset=0mm|HoleType=Round|Shape=RoundedRectangle|*
%AMROUNDEDRECTD45*
21,1,0.7532,0.5400,0,0,315.0*
21,1,0.4400,0.8532,0,0,315.0*
1,1,0.3132,-0.0354,-0.3465*
1,1,0.3132,-0.3465,-0.0354*
1,1,0.3132,0.0354,0.3465*
1,1,0.3132,0.3465,0.0354*
%
%ADD45ROUNDEDRECTD45*%
G04:AMPARAMS|DCode=46|XSize=0.7532mm|YSize=0.8532mm|CornerRadius=0.1566mm|HoleSize=0mm|Usage=FLASHONLY|Rotation=270.000|XOffset=0mm|YOffset=0mm|HoleType=Round|Shape=RoundedRectangle|*
%AMROUNDEDRECTD46*
21,1,0.7532,0.5400,0,0,270.0*
21,1,0.4400,0.8532,0,0,270.0*
1,1,0.3132,-0.2700,-0.2200*
1,1,0.3132,-0.2700,0.2200*
1,1,0.3132,0.2700,0.2200*
1,1,0.3132,0.2700,-0.2200*
%
%ADD46ROUNDEDRECTD46*%
G04:AMPARAMS|DCode=47|XSize=0.7532mm|YSize=0.8532mm|CornerRadius=0.1566mm|HoleSize=0mm|Usage=FLASHONLY|Rotation=180.000|XOffset=0mm|YOffset=0mm|HoleType=Round|Shape=RoundedRectangle|*
%AMROUNDEDRECTD47*
21,1,0.7532,0.5400,0,0,180.0*
21,1,0.4400,0.8532,0,0,180.0*
1,1,0.3132,-0.2200,0.2700*
1,1,0.3132,0.2200,0.2700*
1,1,0.3132,0.2200,-0.2700*
1,1,0.3132,-0.2200,-0.2700*
%
%ADD47ROUNDEDRECTD47*%
G04:AMPARAMS|DCode=48|XSize=1.1032mm|YSize=1.6032mm|CornerRadius=0.1916mm|HoleSize=0mm|Usage=FLASHONLY|Rotation=90.000|XOffset=0mm|YOffset=0mm|HoleType=Round|Shape=RoundedRectangle|*
%AMROUNDEDRECTD48*
21,1,1.1032,1.2200,0,0,90.0*
21,1,0.7200,1.6032,0,0,90.0*
1,1,0.3832,0.6100,0.3600*
1,1,0.3832,0.6100,-0.3600*
1,1,0.3832,-0.6100,-0.3600*
1,1,0.3832,-0.6100,0.3600*
%
%ADD48ROUNDEDRECTD48*%
G04:AMPARAMS|DCode=49|XSize=1.1032mm|YSize=1.6032mm|CornerRadius=0.1916mm|HoleSize=0mm|Usage=FLASHONLY|Rotation=0.000|XOffset=0mm|YOffset=0mm|HoleType=Round|Shape=RoundedRectangle|*
%AMROUNDEDRECTD49*
21,1,1.1032,1.2200,0,0,0.0*
21,1,0.7200,1.6032,0,0,0.0*
1,1,0.3832,0.3600,-0.6100*
1,1,0.3832,-0.3600,-0.6100*
1,1,0.3832,-0.3600,0.6100*
1,1,0.3832,0.3600,0.6100*
%
%ADD49ROUNDEDRECTD49*%
%ADD50R,3.6032X6.3532*%
%ADD51R,3.4032X1.8032*%
%ADD52R,1.8032X3.4032*%
%ADD53R,1.6782X0.6532*%
%ADD54R,1.0032X1.1032*%
%ADD55R,0.5032X0.7032*%
%ADD56R,1.3032X1.2532*%
G04:AMPARAMS|DCode=57|XSize=0.9032mm|YSize=1.2032mm|CornerRadius=0.1716mm|HoleSize=0mm|Usage=FLASHONLY|Rotation=90.000|XOffset=0mm|YOffset=0mm|HoleType=Round|Shape=RoundedRectangle|*
%AMROUNDEDRECTD57*
21,1,0.9032,0.8600,0,0,90.0*
21,1,0.5600,1.2032,0,0,90.0*
1,1,0.3432,0.4300,0.2800*
1,1,0.3432,0.4300,-0.2800*
1,1,0.3432,-0.4300,-0.2800*
1,1,0.3432,-0.4300,0.2800*
%
%ADD57ROUNDEDRECTD57*%
G04:AMPARAMS|DCode=58|XSize=0.7532mm|YSize=0.8532mm|CornerRadius=0.1566mm|HoleSize=0mm|Usage=FLASHONLY|Rotation=225.000|XOffset=0mm|YOffset=0mm|HoleType=Round|Shape=RoundedRectangle|*
%AMROUNDEDRECTD58*
21,1,0.7532,0.5400,0,0,225.0*
21,1,0.4400,0.8532,0,0,225.0*
1,1,0.3132,-0.3465,0.0354*
1,1,0.3132,-0.0354,0.3465*
1,1,0.3132,0.3465,-0.0354*
1,1,0.3132,0.0354,-0.3465*
%
%ADD58ROUNDEDRECTD58*%
%ADD59R,1.0032X0.5032*%
%ADD60R,1.0032X0.6032*%
%ADD61R,0.7032X0.5032*%
%ADD62R,0.6232X0.7032*%
%ADD63R,0.7032X0.6232*%
%ADD64R,1.0532X0.5032*%
%ADD65R,0.5032X1.0532*%
%ADD66R,5.4532X3.4532*%
%ADD67C,0.8032*%
%ADD68C,0.2032*%
%ADD69O,1.0032X1.6032*%
%ADD70R,1.8532X1.8532*%
%ADD71C,1.8532*%
G36*
X806555Y-115125D02*
X805842Y-115891D01*
X805607Y-115975D01*
X805362Y-116024D01*
X805236Y-116108D01*
X805093Y-116159D01*
X756495Y-145318D01*
X719779Y-145328D01*
X719717Y-109276D01*
X720435Y-108557D01*
X806555D01*
Y-115125D01*
D02*
G37*
G36*
X1005063Y-73475D02*
X1005390Y-73586D01*
X1005390Y-74286D01*
X1005390Y-85287D01*
X1004933Y-85622D01*
X1004377Y-85821D01*
X1001548Y-84999D01*
X1001279Y-84975D01*
X1001015Y-84918D01*
X998069Y-84865D01*
X997803Y-84913D01*
X997534Y-84926D01*
X994676Y-85646D01*
X994432Y-85762D01*
X994176Y-85846D01*
X991607Y-87289D01*
X991402Y-87464D01*
X991176Y-87612D01*
X989074Y-89677D01*
X988922Y-89901D01*
X988743Y-90102D01*
X987255Y-92646D01*
X987167Y-92901D01*
X987047Y-93143D01*
X986277Y-95987D01*
X986258Y-96256D01*
X986206Y-96521D01*
X986207Y-99468D01*
X986260Y-99733D01*
X986279Y-100002D01*
X987052Y-102845D01*
X987172Y-103087D01*
X987260Y-103342D01*
X988751Y-105884D01*
X988930Y-106086D01*
X989082Y-106309D01*
X991186Y-108372D01*
X991412Y-108520D01*
X991617Y-108695D01*
X994188Y-110136D01*
X994444Y-110219D01*
X994688Y-110335D01*
X997546Y-111052D01*
X997816Y-111065D01*
X998082Y-111113D01*
X1001028Y-111057D01*
X1001292Y-110999D01*
X1001560Y-110976D01*
X1004389Y-110150D01*
X1004985Y-110389D01*
X1005382Y-110706D01*
X1005388Y-120907D01*
X1005262Y-121045D01*
X1003856Y-122217D01*
X1002939Y-122792D01*
X1000356Y-123147D01*
X995594Y-122894D01*
X990965Y-121747D01*
X986635Y-119749D01*
X982760Y-116970D01*
X979478Y-113510D01*
X976907Y-109494D01*
X975140Y-105064D01*
X974239Y-100382D01*
X974238Y-95613D01*
X975135Y-90929D01*
X976899Y-86499D01*
X979467Y-82481D01*
X982746Y-79019D01*
X986620Y-76237D01*
X990948Y-74235D01*
X995576Y-73086D01*
X1000338Y-72829D01*
X1005063Y-73475D01*
D02*
G37*
G36*
X1002969Y122787D02*
X1003856Y122231D01*
X1005265Y121058D01*
X1005351Y120963D01*
X1005382Y111764D01*
X1005034Y111538D01*
X1004368Y111253D01*
X1004326Y111262D01*
X1004155Y111341D01*
X1001104Y112080D01*
X1000841Y112091D01*
X1000582Y112137D01*
X997444Y112072D01*
X997187Y112015D01*
X996924Y111994D01*
X993907Y111129D01*
X993673Y111008D01*
X993425Y110920D01*
X990728Y109313D01*
X990533Y109137D01*
X990315Y108988D01*
X988119Y106746D01*
X987975Y106525D01*
X987803Y106326D01*
X986253Y103597D01*
X986170Y103347D01*
X986054Y103111D01*
X985253Y100076D01*
X985237Y99813D01*
X985185Y99555D01*
X985186Y96416D01*
X985237Y96158D01*
X985254Y95895D01*
X986056Y92860D01*
X986172Y92624D01*
X986255Y92374D01*
X987806Y89645D01*
X987978Y89446D01*
X988122Y89226D01*
X990319Y86984D01*
X990536Y86835D01*
X990732Y86659D01*
X993429Y85053D01*
X993677Y84965D01*
X993911Y84844D01*
X996929Y83981D01*
X997191Y83959D01*
X997448Y83902D01*
X1000586Y83838D01*
X1000845Y83884D01*
X1001109Y83895D01*
X1004159Y84635D01*
X1004339Y84718D01*
X1004369Y84726D01*
X1005345Y84244D01*
X1005385Y84218D01*
X1005385Y73581D01*
X1005080Y73478D01*
X1000356Y72829D01*
X995594Y73082D01*
X990965Y74228D01*
X986635Y76227D01*
X982760Y79006D01*
X979478Y82466D01*
X976907Y86482D01*
X975140Y90911D01*
X974239Y95594D01*
X974238Y100363D01*
X975135Y105046D01*
X976899Y109476D01*
X979467Y113495D01*
X982746Y116957D01*
X986620Y119739D01*
X990948Y121740D01*
X995576Y122890D01*
X1000338Y123147D01*
X1002969Y122787D01*
D02*
G37*
G36*
X805094Y116158D02*
X805236Y116107D01*
X805362Y116023D01*
X805607Y115974D01*
X805843Y115890D01*
X806483Y115090D01*
Y108480D01*
X719715D01*
Y145264D01*
X756461Y145327D01*
X805094Y116158D01*
D02*
G37*
D44*
X881547Y-29799D02*
D03*
X886547D02*
D03*
X891547D02*
D03*
X901547D02*
D03*
X906547D02*
D03*
X911547D02*
D03*
X916547D02*
D03*
X921547D02*
D03*
X926547D02*
D03*
X896547D02*
D03*
X876547D02*
D03*
X931547D02*
D03*
D45*
X155300Y36964D02*
D03*
X162374Y29890D02*
D03*
X411886Y1865D02*
D03*
X404812Y8940D02*
D03*
X417669Y7357D02*
D03*
X410595Y14432D02*
D03*
X423451Y12850D02*
D03*
X416378Y19925D02*
D03*
X435017Y23836D02*
D03*
X427943Y30911D02*
D03*
X440799Y29328D02*
D03*
X433726Y36404D02*
D03*
X429234Y18343D02*
D03*
X422161Y25418D02*
D03*
X442554Y5517D02*
D03*
X435481Y12592D02*
D03*
X429481Y6926D02*
D03*
X436554Y-149D02*
D03*
X450481Y3592D02*
D03*
X457555Y-3483D02*
D03*
X423481Y1259D02*
D03*
X430555Y-5816D02*
D03*
X444481Y-2408D02*
D03*
X451555Y-9483D02*
D03*
X174361Y41946D02*
D03*
X167288Y49021D02*
D03*
X168367Y35918D02*
D03*
X161294Y42993D02*
D03*
X148954Y31062D02*
D03*
X156028Y23987D02*
D03*
X99446Y-45516D02*
D03*
X106519Y-52591D02*
D03*
X116535Y-28384D02*
D03*
X123608Y-35459D02*
D03*
X112215Y-46880D02*
D03*
X105143Y-39805D02*
D03*
X110839Y-34095D02*
D03*
X117912Y-41170D02*
D03*
D46*
X602052Y85974D02*
D03*
X602051Y75970D02*
D03*
X666835Y-4434D02*
D03*
X657835Y-4434D02*
D03*
X763050Y61024D02*
D03*
X763051Y71029D02*
D03*
X621717Y46028D02*
D03*
X621718Y56032D02*
D03*
X608949Y14972D02*
D03*
X608950Y24977D02*
D03*
X642652Y76022D02*
D03*
X642653Y86026D02*
D03*
X634050Y75970D02*
D03*
X634052Y85974D02*
D03*
X626050Y75970D02*
D03*
X626052Y85974D02*
D03*
X618152Y76022D02*
D03*
X618153Y86026D02*
D03*
X610152Y76022D02*
D03*
X610153Y86026D02*
D03*
X566757Y98710D02*
D03*
X566756Y88706D02*
D03*
X657836Y5570D02*
D03*
X584052Y7029D02*
D03*
X584050Y-2976D02*
D03*
X576051Y7029D02*
D03*
X576050Y-2976D02*
D03*
X132004Y61000D02*
D03*
X132003Y50996D02*
D03*
X124003D02*
D03*
X124004Y61000D02*
D03*
X116104Y51048D02*
D03*
X116105Y61052D02*
D03*
X108004Y61000D02*
D03*
X108003Y50996D02*
D03*
X100004Y61000D02*
D03*
X100003Y50996D02*
D03*
X129127Y14827D02*
D03*
X129128Y24831D02*
D03*
X137127Y14827D02*
D03*
X137128Y24831D02*
D03*
X121027Y24780D02*
D03*
X121025Y14775D02*
D03*
X113026D02*
D03*
X113027Y24780D02*
D03*
X105127Y14827D02*
D03*
X105128Y24831D02*
D03*
X90053Y24831D02*
D03*
X90052Y14827D02*
D03*
X33104Y59048D02*
D03*
X33105Y69052D02*
D03*
X41104Y59048D02*
D03*
X41105Y69052D02*
D03*
X57105D02*
D03*
X57104Y59048D02*
D03*
X49004Y69000D02*
D03*
X49003Y58996D02*
D03*
X65104Y59048D02*
D03*
X65105Y69052D02*
D03*
X14949Y-95028D02*
D03*
X14950Y-85023D02*
D03*
X23050Y-94976D02*
D03*
X23052Y-84971D02*
D03*
X666836Y5570D02*
D03*
D47*
X563706Y-34818D02*
D03*
X553701Y-34817D02*
D03*
X563682Y-27268D02*
D03*
X553677Y-27267D02*
D03*
X563977Y-18949D02*
D03*
X553972Y-18948D02*
D03*
X554024Y-11050D02*
D03*
X564028Y-11051D02*
D03*
X563976Y5051D02*
D03*
X553972Y5052D02*
D03*
X564029Y12949D02*
D03*
X554024Y12951D02*
D03*
X553972Y-2948D02*
D03*
X563977Y-2949D02*
D03*
X787047Y71561D02*
D03*
X777043Y71562D02*
D03*
X777095Y53970D02*
D03*
X787100Y53969D02*
D03*
X777095Y36480D02*
D03*
X787100Y36479D02*
D03*
X777092Y22878D02*
D03*
X787096Y22877D02*
D03*
X630003Y55535D02*
D03*
X640007Y55534D02*
D03*
X630003Y46535D02*
D03*
X640007Y46534D02*
D03*
X664112Y63840D02*
D03*
X654108Y63841D02*
D03*
X664164Y55738D02*
D03*
X654160Y55739D02*
D03*
X664164Y47738D02*
D03*
X654160Y47739D02*
D03*
X664136Y71790D02*
D03*
X654132Y71791D02*
D03*
X503706Y-31818D02*
D03*
X493702Y-31816D02*
D03*
X503706Y-39818D02*
D03*
X493702D02*
D03*
X503734Y-47818D02*
D03*
X493730D02*
D03*
X493678Y-55767D02*
D03*
X503682Y-55768D02*
D03*
X493678Y-63767D02*
D03*
X503682Y-63768D02*
D03*
X255997Y-21663D02*
D03*
X245993Y-21661D02*
D03*
X250346Y-29493D02*
D03*
X240341Y-29492D02*
D03*
X244694Y-37868D02*
D03*
X234690Y-37867D02*
D03*
X232144Y-45426D02*
D03*
X222140Y-45425D02*
D03*
X232030Y-53926D02*
D03*
X222026Y-53924D02*
D03*
X231977Y-84949D02*
D03*
X221972Y-84948D02*
D03*
X201972Y30052D02*
D03*
X211976Y30051D02*
D03*
X201972Y22052D02*
D03*
X211976Y22051D02*
D03*
X201972Y14052D02*
D03*
X211976Y14051D02*
D03*
D48*
X309416Y-160458D02*
D03*
Y-142458D02*
D03*
X292906Y-160458D02*
D03*
Y-142458D02*
D03*
X411411Y-148798D02*
D03*
Y-166798D02*
D03*
X394528Y-148812D02*
D03*
Y-166812D02*
D03*
X348927Y-148812D02*
D03*
Y-166812D02*
D03*
X292100Y160130D02*
D03*
Y142130D02*
D03*
X454660Y148480D02*
D03*
Y166480D02*
D03*
X410210Y148480D02*
D03*
Y166480D02*
D03*
X393700Y148480D02*
D03*
Y166480D02*
D03*
X346710Y148480D02*
D03*
Y166480D02*
D03*
X309880Y160130D02*
D03*
Y142130D02*
D03*
X64770Y141080D02*
D03*
Y123080D02*
D03*
X48260Y141080D02*
D03*
Y123080D02*
D03*
X46990Y-141080D02*
D03*
Y-123080D02*
D03*
X64770Y-141080D02*
D03*
Y-123080D02*
D03*
X455219Y-166812D02*
D03*
Y-148812D02*
D03*
D49*
X45610Y-87630D02*
D03*
X63610D02*
D03*
X43070Y96520D02*
D03*
X61070D02*
D03*
X797270Y71479D02*
D03*
X815270D02*
D03*
X815304Y35524D02*
D03*
X797304D02*
D03*
X797297Y18701D02*
D03*
X815297D02*
D03*
X667136Y34790D02*
D03*
X649136D02*
D03*
X667136Y17789D02*
D03*
X649136D02*
D03*
X797304Y53524D02*
D03*
X815304D02*
D03*
D50*
X695500Y-50249D02*
D03*
X762500D02*
D03*
D51*
X153706Y-117328D02*
D03*
X153706Y117322D02*
D03*
X203706D02*
D03*
X203706Y-117328D02*
D03*
D52*
X611500Y-80500D02*
D03*
Y-30499D02*
D03*
D53*
X690924Y18774D02*
D03*
X749684Y70774D02*
D03*
Y51274D02*
D03*
Y44774D02*
D03*
Y38274D02*
D03*
Y31774D02*
D03*
Y25274D02*
D03*
Y18774D02*
D03*
Y12274D02*
D03*
X690924D02*
D03*
Y25274D02*
D03*
Y31774D02*
D03*
Y38274D02*
D03*
Y44774D02*
D03*
Y51274D02*
D03*
Y64274D02*
D03*
Y70774D02*
D03*
Y57774D02*
D03*
X749684D02*
D03*
Y64274D02*
D03*
D54*
X620750Y35251D02*
D03*
X635250Y16751D02*
D03*
X620750D02*
D03*
X635250Y35251D02*
D03*
D55*
X473706Y74682D02*
D03*
X490705D02*
D03*
X481706D02*
D03*
X465706D02*
D03*
X456706D02*
D03*
X460705Y66682D02*
D03*
X469706D02*
D03*
X477706D02*
D03*
X486706D02*
D03*
D56*
X610000Y1001D02*
D03*
X624000D02*
D03*
D57*
X594000Y9000D02*
D03*
Y-5000D02*
D03*
D58*
X475462Y4593D02*
D03*
X468387Y-2480D02*
D03*
X481567Y-1332D02*
D03*
X474492Y-8405D02*
D03*
X469356Y10519D02*
D03*
X462281Y3445D02*
D03*
X463251Y16445D02*
D03*
X456176Y9371D02*
D03*
X457037Y22405D02*
D03*
X449962Y15332D02*
D03*
X451149Y28261D02*
D03*
X444074Y21187D02*
D03*
X205646Y68543D02*
D03*
X198571Y61470D02*
D03*
X204571Y55803D02*
D03*
X211645Y62876D02*
D03*
X210571Y50136D02*
D03*
X217645Y57210D02*
D03*
X31608Y-17605D02*
D03*
X24533Y-24678D02*
D03*
X37635Y-23614D02*
D03*
X30560Y-30687D02*
D03*
X43661Y-29623D02*
D03*
X36587Y-36696D02*
D03*
X49689Y-35632D02*
D03*
X42614Y-42705D02*
D03*
X55716Y-41641D02*
D03*
X48641Y-48713D02*
D03*
D59*
X297047Y37402D02*
D03*
Y-117598D02*
D03*
Y-112598D02*
D03*
Y-122598D02*
D03*
Y-107598D02*
D03*
Y-102598D02*
D03*
Y-97598D02*
D03*
Y-92598D02*
D03*
Y-87598D02*
D03*
Y-82598D02*
D03*
Y-77598D02*
D03*
Y-72598D02*
D03*
Y-67598D02*
D03*
Y-62598D02*
D03*
Y-57598D02*
D03*
Y-52598D02*
D03*
Y-47598D02*
D03*
Y-42598D02*
D03*
Y-37598D02*
D03*
Y-32598D02*
D03*
Y-27598D02*
D03*
Y-22598D02*
D03*
Y-17598D02*
D03*
Y-12598D02*
D03*
Y-7598D02*
D03*
Y-2598D02*
D03*
Y2402D02*
D03*
Y7402D02*
D03*
Y12402D02*
D03*
Y17402D02*
D03*
Y22402D02*
D03*
Y27402D02*
D03*
Y32402D02*
D03*
Y42402D02*
D03*
Y47402D02*
D03*
Y52402D02*
D03*
Y62402D02*
D03*
Y67402D02*
D03*
Y72402D02*
D03*
Y77402D02*
D03*
Y82402D02*
D03*
Y87402D02*
D03*
Y92402D02*
D03*
Y97402D02*
D03*
Y102402D02*
D03*
Y107402D02*
D03*
Y112402D02*
D03*
Y117402D02*
D03*
Y122402D02*
D03*
Y57402D02*
D03*
D60*
X322047Y-132598D02*
D03*
Y132402D02*
D03*
D61*
X273054Y59025D02*
D03*
X281054Y72024D02*
D03*
Y63025D02*
D03*
Y55024D02*
D03*
Y46024D02*
D03*
X273054Y42024D02*
D03*
Y51024D02*
D03*
Y67024D02*
D03*
Y76024D02*
D03*
Y36024D02*
D03*
Y27024D02*
D03*
Y11024D02*
D03*
Y2024D02*
D03*
X281054Y6024D02*
D03*
Y15024D02*
D03*
Y23024D02*
D03*
X273054Y19024D02*
D03*
X281054Y32024D02*
D03*
X273054Y-3976D02*
D03*
Y-12976D02*
D03*
Y-28976D02*
D03*
Y-37976D02*
D03*
X281054Y-33976D02*
D03*
Y-24976D02*
D03*
Y-16976D02*
D03*
Y-7976D02*
D03*
X273054Y-20976D02*
D03*
Y-43976D02*
D03*
Y-52976D02*
D03*
Y-68976D02*
D03*
Y-77976D02*
D03*
X281054Y-73976D02*
D03*
Y-64976D02*
D03*
Y-56976D02*
D03*
Y-47976D02*
D03*
X273054Y-60976D02*
D03*
D62*
X284706Y-100568D02*
D03*
Y-90068D02*
D03*
D63*
X221750Y-93999D02*
D03*
X232250D02*
D03*
D64*
X596251Y64500D02*
D03*
Y59500D02*
D03*
Y54500D02*
D03*
Y49501D02*
D03*
X527251Y34500D02*
D03*
Y39501D02*
D03*
Y44500D02*
D03*
Y49501D02*
D03*
Y54500D02*
D03*
Y59500D02*
D03*
Y64500D02*
D03*
X596251Y44500D02*
D03*
Y39501D02*
D03*
Y34500D02*
D03*
D65*
X569250Y25000D02*
D03*
X564251D02*
D03*
X559250D02*
D03*
X554251D02*
D03*
X549250D02*
D03*
X544251D02*
D03*
X539250D02*
D03*
X534251D02*
D03*
Y74000D02*
D03*
X539250D02*
D03*
X544251D02*
D03*
X549250D02*
D03*
X554251D02*
D03*
X569250D02*
D03*
X579250D02*
D03*
X584251D02*
D03*
X579250Y25000D02*
D03*
X574251D02*
D03*
X589250D02*
D03*
X584251D02*
D03*
X559250Y74000D02*
D03*
X564251D02*
D03*
X574251D02*
D03*
X589250D02*
D03*
D66*
X561750Y49501D02*
D03*
D67*
X928047Y-48899D02*
D03*
X920047D02*
D03*
X916047Y-41899D02*
D03*
X908047D02*
D03*
X900047D02*
D03*
X896047Y-48899D02*
D03*
X892047Y-41899D02*
D03*
X888047Y-48899D02*
D03*
X880047D02*
D03*
X912047D02*
D03*
X932047Y-41899D02*
D03*
X876047D02*
D03*
D68*
X868047Y-35399D02*
D03*
X940047D02*
D03*
X250996Y-127328D02*
D03*
X521206Y-127318D02*
D03*
Y127322D02*
D03*
X250996D02*
D03*
D69*
X862747Y-47799D02*
D03*
X945347D02*
D03*
X948947Y-91799D02*
D03*
X859147D02*
D03*
D70*
X844546Y7172D02*
D03*
D71*
X944546D02*
D03*
X919546D02*
D03*
X894546D02*
D03*
X869546D02*
D03*
M02*
