G04*
G04 #@! TF.GenerationSoftware,Altium Limited,Altium Designer,25.7.1 (20)*
G04*
G04 Layer_Color=16711935*
%FSLAX44Y44*%
%MOMM*%
G71*
G04*
G04 #@! TF.SameCoordinates,66F0D8C6-04CA-480C-B019-D4CA667347D7*
G04*
G04*
G04 #@! TF.FilePolarity,Negative*
G04*
G01*
G75*
G04:AMPARAMS|DCode=46|XSize=0.7532mm|YSize=0.8532mm|CornerRadius=0.1566mm|HoleSize=0mm|Usage=FLASHONLY|Rotation=270.000|XOffset=0mm|YOffset=0mm|HoleType=Round|Shape=RoundedRectangle|*
%AMROUNDEDRECTD46*
21,1,0.7532,0.5400,0,0,270.0*
21,1,0.4400,0.8532,0,0,270.0*
1,1,0.3132,-0.2700,-0.2200*
1,1,0.3132,-0.2700,0.2200*
1,1,0.3132,0.2700,0.2200*
1,1,0.3132,0.2700,-0.2200*
%
%ADD46ROUNDEDRECTD46*%
G04:AMPARAMS|DCode=47|XSize=0.7532mm|YSize=0.8532mm|CornerRadius=0.1566mm|HoleSize=0mm|Usage=FLASHONLY|Rotation=180.000|XOffset=0mm|YOffset=0mm|HoleType=Round|Shape=RoundedRectangle|*
%AMROUNDEDRECTD47*
21,1,0.7532,0.5400,0,0,180.0*
21,1,0.4400,0.8532,0,0,180.0*
1,1,0.3132,-0.2200,0.2700*
1,1,0.3132,0.2200,0.2700*
1,1,0.3132,0.2200,-0.2700*
1,1,0.3132,-0.2200,-0.2700*
%
%ADD47ROUNDEDRECTD47*%
G04:AMPARAMS|DCode=48|XSize=1.1032mm|YSize=1.6032mm|CornerRadius=0.1916mm|HoleSize=0mm|Usage=FLASHONLY|Rotation=90.000|XOffset=0mm|YOffset=0mm|HoleType=Round|Shape=RoundedRectangle|*
%AMROUNDEDRECTD48*
21,1,1.1032,1.2200,0,0,90.0*
21,1,0.7200,1.6032,0,0,90.0*
1,1,0.3832,0.6100,0.3600*
1,1,0.3832,0.6100,-0.3600*
1,1,0.3832,-0.6100,-0.3600*
1,1,0.3832,-0.6100,0.3600*
%
%ADD48ROUNDEDRECTD48*%
G04:AMPARAMS|DCode=57|XSize=0.9032mm|YSize=1.2032mm|CornerRadius=0.1716mm|HoleSize=0mm|Usage=FLASHONLY|Rotation=90.000|XOffset=0mm|YOffset=0mm|HoleType=Round|Shape=RoundedRectangle|*
%AMROUNDEDRECTD57*
21,1,0.9032,0.8600,0,0,90.0*
21,1,0.5600,1.2032,0,0,90.0*
1,1,0.3432,0.4300,0.2800*
1,1,0.3432,0.4300,-0.2800*
1,1,0.3432,-0.4300,-0.2800*
1,1,0.3432,-0.4300,0.2800*
%
%ADD57ROUNDEDRECTD57*%
%ADD62R,0.6232X0.7032*%
%ADD67C,0.8032*%
%ADD68C,0.2032*%
%ADD69O,1.0032X1.6032*%
%ADD70R,1.8532X1.8532*%
%ADD71C,1.8532*%
%ADD120R,2.8532X2.4032*%
%ADD121R,0.6032X0.5032*%
%ADD122R,0.6032X0.6032*%
%ADD123R,1.6982X3.1532*%
%ADD124R,1.6982X0.9032*%
G04:AMPARAMS|DCode=125|XSize=0.9032mm|YSize=1.2032mm|CornerRadius=0.1716mm|HoleSize=0mm|Usage=FLASHONLY|Rotation=315.000|XOffset=0mm|YOffset=0mm|HoleType=Round|Shape=RoundedRectangle|*
%AMROUNDEDRECTD125*
21,1,0.9032,0.8600,0,0,315.0*
21,1,0.5600,1.2032,0,0,315.0*
1,1,0.3432,-0.1061,-0.5021*
1,1,0.3432,-0.5021,-0.1061*
1,1,0.3432,0.1061,0.5021*
1,1,0.3432,0.5021,0.1061*
%
%ADD125ROUNDEDRECTD125*%
G04:AMPARAMS|DCode=126|XSize=1.1032mm|YSize=0.5032mm|CornerRadius=0mm|HoleSize=0mm|Usage=FLASHONLY|Rotation=315.000|XOffset=0mm|YOffset=0mm|HoleType=Round|Shape=Rectangle|*
%AMROTATEDRECTD126*
4,1,4,-0.5679,0.2121,-0.2121,0.5679,0.5679,-0.2121,0.2121,-0.5679,-0.5679,0.2121,0.0*
%
%ADD126ROTATEDRECTD126*%

%ADD127R,2.4932X1.2172*%
%ADD128R,0.6032X0.6032*%
%ADD129R,2.4032X2.8532*%
%ADD130R,0.5032X0.6032*%
%ADD131R,2.6532X2.5532*%
%ADD132R,0.9652X1.2172*%
%ADD133R,0.7032X0.4532*%
%ADD134R,0.4032X0.9532*%
%ADD135R,0.9532X0.4032*%
%ADD136R,3.1032X3.1032*%
%ADD137R,0.5032X0.9032*%
%ADD138R,0.9032X0.5032*%
%ADD139R,1.7032X1.7032*%
%ADD140R,0.6032X0.6282*%
%ADD141R,1.1532X1.3532*%
%ADD142R,0.6832X1.0032*%
%ADD143R,1.2172X0.9652*%
%ADD144R,1.2172X2.4932*%
G04:AMPARAMS|DCode=145|XSize=0.9032mm|YSize=1.2032mm|CornerRadius=0.1716mm|HoleSize=0mm|Usage=FLASHONLY|Rotation=180.000|XOffset=0mm|YOffset=0mm|HoleType=Round|Shape=RoundedRectangle|*
%AMROUNDEDRECTD145*
21,1,0.9032,0.8600,0,0,180.0*
21,1,0.5600,1.2032,0,0,180.0*
1,1,0.3432,-0.2800,0.4300*
1,1,0.3432,0.2800,0.4300*
1,1,0.3432,0.2800,-0.4300*
1,1,0.3432,-0.2800,-0.4300*
%
%ADD145ROUNDEDRECTD145*%
%ADD146R,1.2032X1.7032*%
%ADD147R,1.2032X2.0032*%
%ADD148R,2.4032X3.9032*%
G04:AMPARAMS|DCode=149|XSize=1.1032mm|YSize=0.5032mm|CornerRadius=0mm|HoleSize=0mm|Usage=FLASHONLY|Rotation=225.000|XOffset=0mm|YOffset=0mm|HoleType=Round|Shape=Rectangle|*
%AMROTATEDRECTD149*
4,1,4,0.2121,0.5679,0.5679,0.2121,-0.2121,-0.5679,-0.5679,-0.2121,0.2121,0.5679,0.0*
%
%ADD149ROTATEDRECTD149*%

%ADD150P,6.7928X4X270.0*%
%ADD151R,0.4532X0.7032*%
%ADD152R,0.7782X0.5532*%
%ADD153R,2.4382X1.9282*%
%ADD154R,0.6082X1.0132*%
%ADD155R,0.6082X1.1932*%
%ADD156R,1.1832X3.6032*%
G36*
X475401Y174064D02*
Y141035D01*
X440401D01*
Y174780D01*
X474683Y174782D01*
X475401Y174064D01*
D02*
G37*
G36*
X420401Y174061D02*
Y141035D01*
X385401D01*
Y174778D01*
X419683Y174779D01*
X420401Y174061D01*
D02*
G37*
G36*
X365401Y174058D02*
Y141035D01*
X330401D01*
Y174775D01*
X364683Y174777D01*
X365401Y174058D01*
D02*
G37*
G36*
X215401Y174051D02*
Y121035D01*
X180401D01*
Y157088D01*
X198081Y174768D01*
X214683Y174769D01*
X215401Y174051D01*
D02*
G37*
G36*
X160401Y121035D02*
X125401D01*
Y155148D01*
X160401D01*
Y121035D01*
D02*
G37*
G36*
X105401D02*
X70401D01*
Y155148D01*
X105401Y155148D01*
Y121035D01*
D02*
G37*
G36*
X1002656Y122983D02*
X1002969Y122787D01*
D01*
X1003856Y122231D01*
X1005265Y121058D01*
X1005351Y120963D01*
X1005382Y111764D01*
X1005034Y111538D01*
X1004368Y111253D01*
X1004326Y111262D01*
X1004155Y111341D01*
X1001104Y112080D01*
X1000841Y112091D01*
X1000582Y112137D01*
X997444Y112072D01*
X997187Y112015D01*
X996924Y111994D01*
X993907Y111129D01*
X993673Y111008D01*
X993425Y110920D01*
X990728Y109313D01*
X990533Y109137D01*
X990315Y108988D01*
X988119Y106746D01*
X987975Y106525D01*
X987803Y106326D01*
X986253Y103597D01*
X986170Y103347D01*
X986054Y103111D01*
X985253Y100076D01*
X985237Y99813D01*
X985185Y99555D01*
X985186Y96416D01*
X985237Y96158D01*
X985254Y95895D01*
X986056Y92860D01*
X986172Y92624D01*
X986255Y92374D01*
X987806Y89645D01*
X987978Y89446D01*
X988122Y89226D01*
X990319Y86984D01*
X990536Y86835D01*
X990732Y86659D01*
X993429Y85053D01*
X993677Y84965D01*
X993911Y84844D01*
X996929Y83981D01*
X997191Y83959D01*
X997448Y83902D01*
X1000586Y83838D01*
X1000845Y83884D01*
X1001109Y83895D01*
X1004159Y84635D01*
X1004339Y84718D01*
X1004369Y84726D01*
X1005345Y84244D01*
X1005385Y84218D01*
X1005385Y73858D01*
D01*
Y73581D01*
X1005080Y73478D01*
X1000356Y72829D01*
X995594Y73082D01*
X990965Y74228D01*
X986635Y76227D01*
X982760Y79006D01*
X982750Y79016D01*
X982501Y79195D01*
X979220Y82654D01*
X976649Y86671D01*
X974881Y91100D01*
X973980Y95783D01*
X973979Y100552D01*
X974876Y105235D01*
X976640Y109665D01*
X979208Y113684D01*
X982488Y117146D01*
X986361Y119928D01*
X990689Y121929D01*
X995317Y123079D01*
X1000079Y123336D01*
X1002656Y122983D01*
D02*
G37*
G36*
X1004804Y-73286D02*
X1005390Y-73484D01*
X1005390Y-74286D01*
X1005390Y-85287D01*
X1004933Y-85622D01*
X1004377Y-85821D01*
X1001548Y-84999D01*
X1001279Y-84975D01*
X1001015Y-84918D01*
X998069Y-84865D01*
X997803Y-84913D01*
X997534Y-84926D01*
X994676Y-85646D01*
X994432Y-85762D01*
X994176Y-85846D01*
X991607Y-87289D01*
X991402Y-87464D01*
X991176Y-87612D01*
X989074Y-89677D01*
X988922Y-89901D01*
X988743Y-90102D01*
X987255Y-92646D01*
X987167Y-92901D01*
X987047Y-93143D01*
X986277Y-95987D01*
X986258Y-96256D01*
X986206Y-96521D01*
X986207Y-99468D01*
X986260Y-99733D01*
X986279Y-100002D01*
X987052Y-102845D01*
X987172Y-103087D01*
X987260Y-103342D01*
X988751Y-105884D01*
X988930Y-106086D01*
X989082Y-106309D01*
X991186Y-108372D01*
X991412Y-108520D01*
X991617Y-108695D01*
X994188Y-110136D01*
X994444Y-110219D01*
X994688Y-110335D01*
X997546Y-111052D01*
X997816Y-111065D01*
X998082Y-111113D01*
X1001028Y-111057D01*
X1001292Y-110999D01*
X1001560Y-110976D01*
X1004389Y-110150D01*
X1004985Y-110389D01*
X1005382Y-110706D01*
X1005388Y-120907D01*
X1005262Y-121045D01*
X1003856Y-122217D01*
X1002939Y-122792D01*
X1000356Y-123147D01*
X995594Y-122894D01*
X990965Y-121747D01*
X986635Y-119749D01*
X982760Y-116970D01*
X982750Y-116959D01*
X982501Y-116781D01*
X979220Y-113321D01*
X976649Y-109305D01*
X974881Y-104876D01*
X973980Y-100193D01*
X973979Y-95424D01*
X974876Y-90740D01*
X976640Y-86310D01*
X979208Y-82292D01*
X982488Y-78830D01*
X986361Y-76048D01*
X990689Y-74047D01*
X995317Y-72897D01*
X1000079Y-72640D01*
X1004804Y-73286D01*
D02*
G37*
G36*
X160401Y-155148D02*
X125401D01*
Y-122425D01*
X160401D01*
Y-155148D01*
D02*
G37*
G36*
X105401D02*
X70401Y-155149D01*
Y-122425D01*
X105401D01*
Y-155148D01*
D02*
G37*
G36*
X475401Y-174775D02*
X441119Y-174776D01*
X440401Y-174058D01*
Y-142425D01*
X475401D01*
Y-174775D01*
D02*
G37*
G36*
X420401Y-174777D02*
X386119Y-174779D01*
X385401Y-174061D01*
Y-142425D01*
X420401D01*
Y-174777D01*
D02*
G37*
G36*
X365401Y-174780D02*
X331119Y-174782D01*
X330401Y-174063D01*
Y-142425D01*
X365401D01*
Y-174780D01*
D02*
G37*
G36*
X215401Y-174788D02*
X198127Y-174788D01*
X180401Y-157087D01*
Y-122425D01*
X215401D01*
Y-174788D01*
D02*
G37*
D46*
X707400Y-19638D02*
D03*
X707398Y-9634D02*
D03*
X715400Y-29638D02*
D03*
X715398Y-19634D02*
D03*
X707398Y-29634D02*
D03*
X707400Y-39638D02*
D03*
X779297Y24418D02*
D03*
X779298Y14413D02*
D03*
X757298D02*
D03*
X757297Y24418D02*
D03*
X740742Y-74899D02*
D03*
X740741Y-64894D02*
D03*
X782712D02*
D03*
X782713Y-74899D02*
D03*
X791107Y-64894D02*
D03*
X791108Y-74899D02*
D03*
X769530Y14362D02*
D03*
X769529Y24366D02*
D03*
X774318Y-64894D02*
D03*
X774319Y-74899D02*
D03*
X833655Y-95290D02*
D03*
X833656Y-105294D02*
D03*
X778398Y-87634D02*
D03*
X778399Y-97638D02*
D03*
X770399Y-87634D02*
D03*
X770400Y-97638D02*
D03*
X786297Y-104582D02*
D03*
X786298Y-114587D02*
D03*
X778297Y-104582D02*
D03*
X778298Y-114587D02*
D03*
X762298Y-97586D02*
D03*
X762297Y-87582D02*
D03*
X799501Y-64894D02*
D03*
X799502Y-74899D02*
D03*
X765924Y-64894D02*
D03*
X765925Y-74899D02*
D03*
X757531D02*
D03*
X757530Y-64894D02*
D03*
X749135D02*
D03*
X749136Y-74899D02*
D03*
X827757Y48654D02*
D03*
X827756Y58658D02*
D03*
X835757Y48654D02*
D03*
X835756Y58658D02*
D03*
X848298Y-18587D02*
D03*
X848297Y-8582D02*
D03*
X864297D02*
D03*
X864298Y-18587D02*
D03*
X856298Y-18586D02*
D03*
X856297Y-8582D02*
D03*
X832297D02*
D03*
X832298Y-18586D02*
D03*
X840399Y-18638D02*
D03*
X840398Y-8634D02*
D03*
D47*
X772227Y33062D02*
D03*
X782231Y33063D02*
D03*
X752320Y32961D02*
D03*
X762325Y32961D02*
D03*
X808325Y-65661D02*
D03*
X818329Y-65660D02*
D03*
X808325Y-57661D02*
D03*
X818329Y-57660D02*
D03*
X808325Y-49661D02*
D03*
X818329Y-49660D02*
D03*
X808325Y-41661D02*
D03*
X818329Y-41660D02*
D03*
X818381Y-25558D02*
D03*
X808377Y-25559D02*
D03*
X808348Y-17610D02*
D03*
X818353Y-17609D02*
D03*
X818381Y-33558D02*
D03*
X808377Y-33559D02*
D03*
X841372Y-49610D02*
D03*
X851376D02*
D03*
X843372Y-64560D02*
D03*
X853376Y-64559D02*
D03*
X843372Y-72560D02*
D03*
X853376Y-72559D02*
D03*
X835376Y-41559D02*
D03*
X825372Y-41560D02*
D03*
X835376Y-49559D02*
D03*
X825372Y-49560D02*
D03*
X732325Y-20661D02*
D03*
X722320Y-20662D02*
D03*
Y-28662D02*
D03*
X732325Y-28661D02*
D03*
X732377Y-36559D02*
D03*
X722372Y-36560D02*
D03*
X722320Y-44662D02*
D03*
X732325Y-44661D02*
D03*
X722320Y-52661D02*
D03*
X732325Y-52660D02*
D03*
X732376Y-60559D02*
D03*
X722372Y-60560D02*
D03*
X732376Y-68559D02*
D03*
X722372Y-68560D02*
D03*
X8972Y-100051D02*
D03*
X18977Y-100050D02*
D03*
X23976Y-52049D02*
D03*
X13972Y-52050D02*
D03*
X8972Y-109051D02*
D03*
X18976Y-109050D02*
D03*
X851376Y-41610D02*
D03*
X841372D02*
D03*
D48*
X636287Y-61799D02*
D03*
X652797D02*
D03*
Y-43799D02*
D03*
X636287D02*
D03*
X544112Y40701D02*
D03*
Y22701D02*
D03*
X562171Y40701D02*
D03*
Y22701D02*
D03*
X580230Y40701D02*
D03*
Y22701D02*
D03*
X598289Y40701D02*
D03*
Y22701D02*
D03*
X616348Y40701D02*
D03*
Y22701D02*
D03*
X526053Y40701D02*
D03*
Y22701D02*
D03*
X913297Y62201D02*
D03*
X897047D02*
D03*
X913297Y44201D02*
D03*
X897047D02*
D03*
D57*
X844706Y-95318D02*
D03*
Y-109318D02*
D03*
X871348Y-64610D02*
D03*
Y-78610D02*
D03*
X882846Y46201D02*
D03*
Y60201D02*
D03*
X883348Y-78610D02*
D03*
Y-64610D02*
D03*
D62*
X932047Y-17049D02*
D03*
Y-6549D02*
D03*
D67*
X928047Y-48899D02*
D03*
X920047D02*
D03*
X916047Y-41899D02*
D03*
X908047D02*
D03*
X900047D02*
D03*
X896047Y-48899D02*
D03*
X892047Y-41899D02*
D03*
X888047Y-48899D02*
D03*
X880047D02*
D03*
X912047D02*
D03*
X932047Y-41899D02*
D03*
X876047D02*
D03*
D68*
X868047Y-35399D02*
D03*
X940047D02*
D03*
X250996Y-127328D02*
D03*
X521206Y-127318D02*
D03*
Y127322D02*
D03*
X250996D02*
D03*
D69*
X862747Y-47799D02*
D03*
X945347D02*
D03*
X948947Y-91799D02*
D03*
X859147D02*
D03*
D70*
X844546Y7172D02*
D03*
D71*
X944546D02*
D03*
X919546D02*
D03*
X894546D02*
D03*
X869546D02*
D03*
D120*
X403586Y-116188D02*
D03*
X438495Y-109188D02*
D03*
X438610Y116172D02*
D03*
X403677Y109172D02*
D03*
X473541D02*
D03*
X222496Y94322D02*
D03*
X222494Y-94276D02*
D03*
X187596Y101322D02*
D03*
X473406Y-116188D02*
D03*
X187594Y-101328D02*
D03*
X117795Y94322D02*
D03*
X368676Y-109188D02*
D03*
X117794Y-94328D02*
D03*
X368745Y116172D02*
D03*
X152696Y101322D02*
D03*
X152694Y-101328D02*
D03*
X333814Y109172D02*
D03*
X82896Y94322D02*
D03*
X298856Y-109188D02*
D03*
X82894Y-94328D02*
D03*
X298881Y116172D02*
D03*
X333766Y-116188D02*
D03*
D121*
X393836Y-128688D02*
D03*
X400336D02*
D03*
X406836D02*
D03*
X413336D02*
D03*
X448246Y-96688D02*
D03*
X441745D02*
D03*
X435246D02*
D03*
X428745D02*
D03*
X448359Y128672D02*
D03*
X441860D02*
D03*
X435359D02*
D03*
X428859D02*
D03*
X393927Y96672D02*
D03*
X400428D02*
D03*
X406927D02*
D03*
X413428D02*
D03*
X483292D02*
D03*
X476791D02*
D03*
X470291D02*
D03*
X463792D02*
D03*
X212746Y81822D02*
D03*
X219246D02*
D03*
X225746D02*
D03*
X232246D02*
D03*
X232244Y-81776D02*
D03*
X225744D02*
D03*
X219244D02*
D03*
X212744D02*
D03*
X197346Y113822D02*
D03*
X190846D02*
D03*
X184346D02*
D03*
X177846D02*
D03*
X483156Y-128688D02*
D03*
X476656D02*
D03*
X470156D02*
D03*
X463656D02*
D03*
X177844Y-113828D02*
D03*
X184344D02*
D03*
X190844D02*
D03*
X197344D02*
D03*
X108046Y81822D02*
D03*
X114545D02*
D03*
X121046D02*
D03*
X127545D02*
D03*
X358926Y-96688D02*
D03*
X365426D02*
D03*
X371926D02*
D03*
X378426D02*
D03*
X127544Y-81828D02*
D03*
X121044D02*
D03*
X114544D02*
D03*
X108044D02*
D03*
X358996Y128672D02*
D03*
X365495D02*
D03*
X371996D02*
D03*
X378495D02*
D03*
X162446Y113822D02*
D03*
X155946D02*
D03*
X149445D02*
D03*
X142945D02*
D03*
X142944Y-113828D02*
D03*
X149444D02*
D03*
X155944D02*
D03*
X162444D02*
D03*
X343563Y96672D02*
D03*
X337063D02*
D03*
X330564D02*
D03*
X324063D02*
D03*
X73146Y81822D02*
D03*
X79646D02*
D03*
X86146D02*
D03*
X92646D02*
D03*
X289106Y-96688D02*
D03*
X295606D02*
D03*
X302106D02*
D03*
X308606D02*
D03*
X92644Y-81828D02*
D03*
X86144D02*
D03*
X79644D02*
D03*
X73144D02*
D03*
X289132Y128672D02*
D03*
X295632D02*
D03*
X302132D02*
D03*
X308631D02*
D03*
X343516Y-128688D02*
D03*
X337016D02*
D03*
X330516D02*
D03*
X324016D02*
D03*
D122*
X413336Y-97188D02*
D03*
X393836D02*
D03*
X400336D02*
D03*
X406836D02*
D03*
X428745Y-128188D02*
D03*
X435246D02*
D03*
X441745D02*
D03*
X448246D02*
D03*
X428859Y97172D02*
D03*
X448359D02*
D03*
X441860D02*
D03*
X435359D02*
D03*
X413428Y128172D02*
D03*
X406927D02*
D03*
X400428D02*
D03*
X393927D02*
D03*
X337016Y-97188D02*
D03*
X330516D02*
D03*
X324016D02*
D03*
X295632Y97172D02*
D03*
X302132D02*
D03*
X308631D02*
D03*
X142944Y-82328D02*
D03*
X149444D02*
D03*
X155944D02*
D03*
X162446Y82322D02*
D03*
X155946D02*
D03*
X149445D02*
D03*
X365495Y97172D02*
D03*
X371996D02*
D03*
X378495D02*
D03*
X177844Y-82328D02*
D03*
X184344D02*
D03*
X190844D02*
D03*
X476656Y-97188D02*
D03*
X470156D02*
D03*
X463656D02*
D03*
X197346Y82322D02*
D03*
X190846D02*
D03*
X184346D02*
D03*
X463792Y128172D02*
D03*
X470291D02*
D03*
X476791D02*
D03*
X483292D02*
D03*
X232246Y113322D02*
D03*
X225746D02*
D03*
X219246D02*
D03*
X212746D02*
D03*
X212744Y-113276D02*
D03*
X219244D02*
D03*
X225744D02*
D03*
X232244D02*
D03*
X177846Y82322D02*
D03*
X483156Y-97188D02*
D03*
X197344Y-82328D02*
D03*
X127545Y113322D02*
D03*
X121046D02*
D03*
X114545D02*
D03*
X108046D02*
D03*
X378426Y-128188D02*
D03*
X371926D02*
D03*
X365426D02*
D03*
X358926D02*
D03*
X108044Y-113328D02*
D03*
X114544D02*
D03*
X121044D02*
D03*
X127544D02*
D03*
X358996Y97172D02*
D03*
X142945Y82322D02*
D03*
X162444Y-82328D02*
D03*
X324063Y128172D02*
D03*
X330564D02*
D03*
X337063D02*
D03*
X343563D02*
D03*
X92646Y113322D02*
D03*
X86146D02*
D03*
X79646D02*
D03*
X73146D02*
D03*
X308606Y-128188D02*
D03*
X302106D02*
D03*
X295606D02*
D03*
X289106D02*
D03*
X73144Y-113328D02*
D03*
X79644D02*
D03*
X86144D02*
D03*
X92644D02*
D03*
X289132Y97172D02*
D03*
X343516Y-97188D02*
D03*
D123*
X464106Y-75976D02*
D03*
X443046D02*
D03*
X59024Y90724D02*
D03*
X37964D02*
D03*
X128114Y63024D02*
D03*
X107055D02*
D03*
X249524Y83024D02*
D03*
X270584D02*
D03*
X328496Y76024D02*
D03*
X307435D02*
D03*
X398496Y76024D02*
D03*
X377436D02*
D03*
X467883Y76024D02*
D03*
X446823D02*
D03*
X373107Y-75976D02*
D03*
X394168D02*
D03*
X303496Y-75976D02*
D03*
X324556D02*
D03*
X249524Y-82976D02*
D03*
X270584D02*
D03*
X114598Y-62867D02*
D03*
X135658D02*
D03*
X59026Y-90678D02*
D03*
X37966D02*
D03*
D124*
X464106Y-52726D02*
D03*
X443046D02*
D03*
X59024Y67474D02*
D03*
X37964D02*
D03*
X107055Y39774D02*
D03*
X128114D02*
D03*
X249524Y59774D02*
D03*
X270584D02*
D03*
X307435Y52774D02*
D03*
X328496D02*
D03*
X377436Y52774D02*
D03*
X398496D02*
D03*
X467883Y52774D02*
D03*
X446823D02*
D03*
X394168Y-52726D02*
D03*
X373107D02*
D03*
X324556Y-52726D02*
D03*
X303496D02*
D03*
X270584Y-59726D02*
D03*
X249524D02*
D03*
X135658Y-39617D02*
D03*
X114598D02*
D03*
X37966Y-67428D02*
D03*
X59026D02*
D03*
D125*
X27104Y30974D02*
D03*
X246004Y-30926D02*
D03*
X491004Y-29926D02*
D03*
X279104Y29974D02*
D03*
X289004Y20074D02*
D03*
X281004Y12075D02*
D03*
X271104Y21974D02*
D03*
X489104Y-12026D02*
D03*
X499004Y-21926D02*
D03*
X481104Y-20026D02*
D03*
X254004Y-22926D02*
D03*
X244104Y-13026D02*
D03*
X236104Y-21026D02*
D03*
X37004Y21074D02*
D03*
X28884Y13074D02*
D03*
X18984Y22974D02*
D03*
D126*
X304891Y15580D02*
D03*
X308426Y19116D02*
D03*
X223659Y-15532D02*
D03*
X220123Y-19068D02*
D03*
X464217Y-15532D02*
D03*
X460681Y-19068D02*
D03*
X49333Y15580D02*
D03*
X52868Y19116D02*
D03*
X56404Y22651D02*
D03*
X59939Y26186D02*
D03*
X63475Y29722D02*
D03*
X67011Y33258D02*
D03*
X70546Y36793D02*
D03*
X112265Y-4926D02*
D03*
X108730Y-8462D02*
D03*
X105195Y-11997D02*
D03*
X98124Y-19068D02*
D03*
X94588Y-22604D02*
D03*
X91052Y-26139D02*
D03*
X87517Y-29675D02*
D03*
X83981Y-33210D02*
D03*
X80446Y-36746D02*
D03*
X101659Y-15533D02*
D03*
X45797Y12045D02*
D03*
X38726Y4973D02*
D03*
X42262Y8509D02*
D03*
X457146Y-22603D02*
D03*
X453610Y-26139D02*
D03*
X450075Y-29674D02*
D03*
X446539Y-33210D02*
D03*
X443004Y-36745D02*
D03*
X401284Y4974D02*
D03*
X404820Y8510D02*
D03*
X408355Y12045D02*
D03*
X415427Y19116D02*
D03*
X418962Y22652D02*
D03*
X422497Y26187D02*
D03*
X426033Y29723D02*
D03*
X429568Y33258D02*
D03*
X433104Y36794D02*
D03*
X411891Y15581D02*
D03*
X467753Y-11997D02*
D03*
X474823Y-4926D02*
D03*
X471288Y-8461D02*
D03*
X234266Y-4926D02*
D03*
X230730Y-8461D02*
D03*
X227194Y-11997D02*
D03*
X216588Y-22603D02*
D03*
X213052Y-26139D02*
D03*
X209516Y-29674D02*
D03*
X205981Y-33210D02*
D03*
X202446Y-36746D02*
D03*
X160726Y4974D02*
D03*
X164262Y8510D02*
D03*
X167797Y12045D02*
D03*
X174868Y19116D02*
D03*
X178404Y22652D02*
D03*
X181939Y26187D02*
D03*
X185475Y29722D02*
D03*
X189010Y33258D02*
D03*
X192546Y36794D02*
D03*
X171333Y15581D02*
D03*
X311962Y22652D02*
D03*
X315498Y26187D02*
D03*
X319034Y29722D02*
D03*
X322569Y33258D02*
D03*
X326104Y36793D02*
D03*
X367824Y-4926D02*
D03*
X364288Y-8461D02*
D03*
X360752Y-11997D02*
D03*
X353682Y-19068D02*
D03*
X350146Y-22603D02*
D03*
X346611Y-26139D02*
D03*
X343075Y-29675D02*
D03*
X339539Y-33210D02*
D03*
X336004Y-36746D02*
D03*
X357217Y-15533D02*
D03*
X301356Y12045D02*
D03*
X294284Y4974D02*
D03*
X297820Y8510D02*
D03*
D127*
X677628Y-68490D02*
D03*
Y-50730D02*
D03*
D128*
X27496Y116724D02*
D03*
Y123224D02*
D03*
Y129724D02*
D03*
Y-136178D02*
D03*
Y-129678D02*
D03*
Y-123178D02*
D03*
Y-116678D02*
D03*
Y136224D02*
D03*
D129*
X46496Y-126428D02*
D03*
Y126474D02*
D03*
D130*
X58996Y-136178D02*
D03*
Y-129678D02*
D03*
Y-123178D02*
D03*
Y-116678D02*
D03*
Y116724D02*
D03*
Y123224D02*
D03*
Y129724D02*
D03*
Y136224D02*
D03*
D131*
X692242Y25450D02*
D03*
Y87450D02*
D03*
X646348Y25390D02*
D03*
Y87390D02*
D03*
X944297Y100951D02*
D03*
Y38951D02*
D03*
D132*
X696699Y-50730D02*
D03*
Y-68490D02*
D03*
D133*
X723000Y-10250D02*
D03*
Y-3749D02*
D03*
D134*
X782348Y-3610D02*
D03*
X778348D02*
D03*
X774348D02*
D03*
X770348D02*
D03*
X766348D02*
D03*
X758348D02*
D03*
X754348D02*
D03*
Y-43610D02*
D03*
X758348D02*
D03*
X762348D02*
D03*
X766348D02*
D03*
X770348D02*
D03*
X774348D02*
D03*
X778348D02*
D03*
X782348D02*
D03*
X762348Y-3610D02*
D03*
D135*
X748348Y-9610D02*
D03*
Y-13610D02*
D03*
Y-17610D02*
D03*
Y-21610D02*
D03*
Y-25610D02*
D03*
Y-29610D02*
D03*
Y-33610D02*
D03*
Y-37610D02*
D03*
X788348D02*
D03*
Y-33610D02*
D03*
Y-29610D02*
D03*
Y-25610D02*
D03*
Y-21610D02*
D03*
Y-17610D02*
D03*
Y-13610D02*
D03*
Y-9610D02*
D03*
D136*
X768348Y-23610D02*
D03*
D137*
X817348Y-105288D02*
D03*
X812348D02*
D03*
X817348Y-79289D02*
D03*
X807348Y-105288D02*
D03*
Y-79289D02*
D03*
X812348D02*
D03*
D138*
X799348Y-94789D02*
D03*
Y-89789D02*
D03*
Y-84789D02*
D03*
X825348D02*
D03*
Y-89789D02*
D03*
Y-94789D02*
D03*
Y-99789D02*
D03*
X799348D02*
D03*
D139*
X812348Y-92289D02*
D03*
D140*
X720848Y42270D02*
D03*
X727348D02*
D03*
X733848D02*
D03*
Y23510D02*
D03*
X727348D02*
D03*
X720848D02*
D03*
X739649Y52409D02*
D03*
X733150D02*
D03*
X726649D02*
D03*
X733150Y71170D02*
D03*
X739649D02*
D03*
X726649D02*
D03*
X796852Y71170D02*
D03*
X803352D02*
D03*
X809852D02*
D03*
X803352Y52410D02*
D03*
X796852D02*
D03*
X809852D02*
D03*
X815848Y23510D02*
D03*
X809349D02*
D03*
X802848D02*
D03*
Y42270D02*
D03*
X809349D02*
D03*
X815848D02*
D03*
D141*
X724099Y32890D02*
D03*
X736399Y61790D02*
D03*
X800102Y61789D02*
D03*
X812598Y32890D02*
D03*
D142*
X734348D02*
D03*
X726149Y61790D02*
D03*
X810352Y61789D02*
D03*
X802348Y32890D02*
D03*
D143*
X869927Y61051D02*
D03*
X852167D02*
D03*
D144*
X869927Y41981D02*
D03*
X852167D02*
D03*
D145*
X958680Y-49324D02*
D03*
X972680D02*
D03*
X24000Y-39999D02*
D03*
X10000D02*
D03*
X826348Y2390D02*
D03*
X972680Y-38323D02*
D03*
X812348Y13390D02*
D03*
X826348D02*
D03*
X812348Y2390D02*
D03*
X958680Y-38323D02*
D03*
D146*
X898349Y-66611D02*
D03*
X928349D02*
D03*
D147*
X913348Y-68110D02*
D03*
D148*
Y-95610D02*
D03*
D149*
X80445Y36793D02*
D03*
X83981Y33258D02*
D03*
X87517Y29722D02*
D03*
X91052Y26186D02*
D03*
X94588Y22651D02*
D03*
X98123Y19116D02*
D03*
X101659Y15580D02*
D03*
X105194Y12045D02*
D03*
X108730Y8509D02*
D03*
X112265Y4973D02*
D03*
X70546Y-36746D02*
D03*
X59940Y-26139D02*
D03*
X56404Y-22603D02*
D03*
X52869Y-19068D02*
D03*
X49333Y-15533D02*
D03*
X45798Y-11997D02*
D03*
X42262Y-8461D02*
D03*
X63475Y-29674D02*
D03*
X67011Y-33210D02*
D03*
X38726Y-4926D02*
D03*
X433104Y-36745D02*
D03*
X429569Y-33210D02*
D03*
X426034Y-29674D02*
D03*
X422498Y-26139D02*
D03*
X418962Y-22603D02*
D03*
X415427Y-19068D02*
D03*
X411891Y-15532D02*
D03*
X408356Y-11997D02*
D03*
X404821Y-8461D02*
D03*
X401285Y-4926D02*
D03*
X443004Y36793D02*
D03*
X453610Y26187D02*
D03*
X457146Y22651D02*
D03*
X460681Y19116D02*
D03*
X464217Y15580D02*
D03*
X467753Y12045D02*
D03*
X471288Y8510D02*
D03*
X450075Y29722D02*
D03*
X446539Y33258D02*
D03*
X474823Y4974D02*
D03*
X192546Y-36745D02*
D03*
X189010Y-33210D02*
D03*
X185475Y-29674D02*
D03*
X181940Y-26139D02*
D03*
X178404Y-22603D02*
D03*
X174869Y-19068D02*
D03*
X171333Y-15532D02*
D03*
X167797Y-11997D02*
D03*
X164262Y-8461D02*
D03*
X160727Y-4926D02*
D03*
X202446Y36793D02*
D03*
X213052Y26187D02*
D03*
X216588Y22651D02*
D03*
X220123Y19116D02*
D03*
X227194Y12045D02*
D03*
X230730Y8510D02*
D03*
X209516Y29722D02*
D03*
X205981Y33258D02*
D03*
X234265Y4974D02*
D03*
X223659Y15580D02*
D03*
X336004Y36793D02*
D03*
X339539Y33258D02*
D03*
X343075Y29722D02*
D03*
X346610Y26187D02*
D03*
X350145Y22652D02*
D03*
X353681Y19116D02*
D03*
X357217Y15580D02*
D03*
X360752Y12045D02*
D03*
X364288Y8510D02*
D03*
X367823Y4974D02*
D03*
X326104Y-36745D02*
D03*
X315498Y-26139D02*
D03*
X311962Y-22603D02*
D03*
X308426Y-19067D02*
D03*
X304891Y-15532D02*
D03*
X301356Y-11997D02*
D03*
X297820Y-8461D02*
D03*
X319034Y-29674D02*
D03*
X322569Y-33210D02*
D03*
X294284Y-4926D02*
D03*
D150*
X75496Y23D02*
D03*
X438054Y24D02*
D03*
X197496Y24D02*
D03*
X331054Y24D02*
D03*
D151*
X166706Y54682D02*
D03*
X160206D02*
D03*
X381250Y36001D02*
D03*
X387750D02*
D03*
X351250Y-56999D02*
D03*
X344751D02*
D03*
X81750Y-61999D02*
D03*
X88250D02*
D03*
D152*
X9115Y-84678D02*
D03*
X23875Y-66678D02*
D03*
Y-84678D02*
D03*
X9115Y-90678D02*
D03*
Y-78678D02*
D03*
X23875Y-60678D02*
D03*
Y-90678D02*
D03*
X9115Y-72678D02*
D03*
Y-66678D02*
D03*
Y-60678D02*
D03*
X23875Y-72678D02*
D03*
Y-78678D02*
D03*
D153*
X678048Y-22540D02*
D03*
D154*
X681348Y-32214D02*
D03*
X687948D02*
D03*
X674748D02*
D03*
X668148D02*
D03*
D155*
X687948Y-2610D02*
D03*
X681348D02*
D03*
X674748D02*
D03*
X668148D02*
D03*
D156*
X780198Y66390D02*
D03*
X756499D02*
D03*
M02*
