G04*
G04 #@! TF.GenerationSoftware,Altium Limited,Altium Designer,25.7.1 (20)*
G04*
G04 Layer_Physical_Order=4*
G04 Layer_Color=6736896*
%FSLAX44Y44*%
%MOMM*%
G71*
G04*
G04 #@! TF.SameCoordinates,66F0D8C6-04CA-480C-B019-D4CA667347D7*
G04*
G04*
G04 #@! TF.FilePolarity,Positive*
G04*
G01*
G75*
%ADD72C,0.3000*%
%ADD77C,0.6000*%
%ADD78O,0.8000X1.4000*%
%ADD79R,1.6500X1.6500*%
%ADD80C,1.6500*%
%ADD81C,0.4500*%
G36*
X618130Y145925D02*
X618454Y145709D01*
X618791Y145483D01*
X618792Y145483D01*
X618792Y145483D01*
X619169Y145408D01*
X619572Y145328D01*
X656788D01*
X656852Y108084D01*
X656930Y107696D01*
X657007Y107307D01*
X657008Y107305D01*
X657009Y107303D01*
X657229Y106975D01*
X657449Y106645D01*
X657451Y106644D01*
X657452Y106643D01*
X657785Y106421D01*
X658111Y106203D01*
X658112Y106203D01*
X658114Y106202D01*
X658506Y106124D01*
X658891Y106048D01*
X717676D01*
X718457Y106203D01*
X719118Y106645D01*
X719560Y107307D01*
X719715Y108087D01*
Y145264D01*
X756461Y145327D01*
X805094Y116158D01*
X805236Y116107D01*
X805362Y116023D01*
X805607Y115974D01*
X805843Y115890D01*
X805994Y115898D01*
X806142Y115868D01*
X973049D01*
X973075Y115873D01*
X973102Y115869D01*
X973465Y115951D01*
X973830Y116023D01*
X973852Y116038D01*
X973878Y116044D01*
X992650Y124387D01*
X993408Y124580D01*
X995231Y124794D01*
X997064Y124761D01*
X998875Y124481D01*
X1000632Y123959D01*
X1002303Y123204D01*
X1003856Y122231D01*
X1005265Y121058D01*
X1005351Y120963D01*
X1005382Y111764D01*
X1005034Y111538D01*
X1004368Y111253D01*
X1004326Y111262D01*
X1004155Y111341D01*
X1001104Y112080D01*
X1000841Y112091D01*
X1000582Y112137D01*
X997444Y112072D01*
X997187Y112015D01*
X996924Y111994D01*
X993907Y111129D01*
X993673Y111008D01*
X993425Y110920D01*
X990728Y109313D01*
X990533Y109137D01*
X990315Y108988D01*
X988119Y106746D01*
X987975Y106525D01*
X987803Y106326D01*
X986253Y103597D01*
X986170Y103347D01*
X986054Y103111D01*
X985253Y100076D01*
X985237Y99813D01*
X985185Y99555D01*
X985186Y96416D01*
X985237Y96158D01*
X985254Y95895D01*
X986056Y92860D01*
X986172Y92624D01*
X986255Y92374D01*
X987806Y89645D01*
X987978Y89446D01*
X988122Y89226D01*
X990319Y86984D01*
X990536Y86835D01*
X990732Y86659D01*
X993429Y85053D01*
X993677Y84965D01*
X993911Y84844D01*
X996929Y83981D01*
X997191Y83959D01*
X997448Y83902D01*
X1000586Y83838D01*
X1000845Y83884D01*
X1001109Y83895D01*
X1004159Y84635D01*
X1004339Y84718D01*
X1004369Y84726D01*
X1005345Y84244D01*
X1005385Y84218D01*
X1005390Y-74286D01*
X1005390Y-85287D01*
X1004933Y-85622D01*
X1004377Y-85821D01*
X1001548Y-84999D01*
X1001279Y-84975D01*
X1001015Y-84918D01*
X998069Y-84865D01*
X997803Y-84913D01*
X997534Y-84926D01*
X994676Y-85646D01*
X994432Y-85762D01*
X994176Y-85846D01*
X991607Y-87289D01*
X991402Y-87464D01*
X991176Y-87612D01*
X989074Y-89677D01*
X988922Y-89901D01*
X988743Y-90102D01*
X987255Y-92646D01*
X987167Y-92901D01*
X987047Y-93143D01*
X986277Y-95987D01*
X986258Y-96256D01*
X986206Y-96521D01*
X986207Y-99468D01*
X986260Y-99733D01*
X986279Y-100002D01*
X987052Y-102845D01*
X987172Y-103087D01*
X987260Y-103342D01*
X988751Y-105884D01*
X988930Y-106086D01*
X989082Y-106309D01*
X991186Y-108372D01*
X991412Y-108520D01*
X991617Y-108695D01*
X994188Y-110136D01*
X994444Y-110219D01*
X994688Y-110335D01*
X997546Y-111052D01*
X997816Y-111065D01*
X998082Y-111113D01*
X1001028Y-111057D01*
X1001292Y-110999D01*
X1001560Y-110976D01*
X1004389Y-110150D01*
X1004985Y-110389D01*
X1005382Y-110706D01*
X1005388Y-120907D01*
X1005262Y-121045D01*
X1003856Y-122217D01*
X1002303Y-123190D01*
X1000634Y-123944D01*
X998879Y-124467D01*
X997069Y-124748D01*
X995238Y-124782D01*
X993418Y-124570D01*
X992695Y-124384D01*
X973876Y-116043D01*
X973851Y-116038D01*
X973830Y-116024D01*
X973463Y-115951D01*
X973099Y-115869D01*
X973074Y-115873D01*
X973049Y-115869D01*
X836342D01*
X835921Y-114853D01*
X836463Y-114311D01*
X836996Y-113024D01*
Y-111632D01*
X836463Y-110345D01*
X835478Y-109361D01*
X834192Y-108828D01*
X832800D01*
X831513Y-109361D01*
X830529Y-110345D01*
X829996Y-111632D01*
Y-113024D01*
X830529Y-114311D01*
X831070Y-114853D01*
X830649Y-115869D01*
X806142D01*
X805994Y-115898D01*
X805842Y-115891D01*
X805607Y-115975D01*
X805362Y-116024D01*
X805236Y-116108D01*
X805093Y-116159D01*
X756495Y-145318D01*
X719779Y-145328D01*
X719715Y-108084D01*
X719638Y-107696D01*
X719560Y-107307D01*
X719559Y-107306D01*
X719559Y-107304D01*
X719339Y-106975D01*
X719118Y-106646D01*
X719117Y-106645D01*
X719116Y-106643D01*
X718783Y-106422D01*
X718457Y-106204D01*
X718455Y-106203D01*
X718453Y-106202D01*
X718061Y-106125D01*
X717676Y-106049D01*
X658891D01*
X658111Y-106204D01*
X657449Y-106646D01*
X657007Y-107307D01*
X656852Y-108088D01*
Y-145265D01*
X619568Y-145329D01*
X619182Y-145406D01*
X618791Y-145484D01*
X618790Y-145485D01*
X618788Y-145485D01*
X618454Y-145709D01*
X618130Y-145926D01*
X618127Y-145928D01*
X618127Y-145928D01*
X618127Y-145928D01*
X589287Y-174769D01*
X198127Y-174788D01*
X179058Y-155746D01*
X179058Y-155746D01*
X179058Y-155746D01*
X179057Y-155745D01*
X178736Y-155531D01*
X178396Y-155304D01*
X178395Y-155304D01*
X178395Y-155303D01*
X178002Y-155225D01*
X177616Y-155148D01*
X12029Y-155149D01*
X12024Y-155149D01*
X12019Y-155149D01*
X10986Y-155154D01*
X9043Y-154790D01*
X7222Y-154051D01*
X5585Y-152963D01*
X4197Y-151571D01*
X3115Y-149930D01*
X2382Y-148107D01*
X2027Y-146173D01*
X2046Y-145191D01*
X2042Y-145171D01*
X2046Y-145152D01*
X2043Y-75496D01*
X3059Y-75075D01*
X3351Y-75367D01*
X4637Y-75900D01*
X6030D01*
X7316Y-75367D01*
X8301Y-74382D01*
X8834Y-73096D01*
Y-71704D01*
X8301Y-70417D01*
X7316Y-69433D01*
X7658Y-68678D01*
X7669Y-68667D01*
X8202Y-67381D01*
Y-65988D01*
X7669Y-64702D01*
X6684Y-63717D01*
X5398Y-63184D01*
X4006D01*
X3058Y-63577D01*
X2042Y-63067D01*
X2033Y145200D01*
X2030Y145213D01*
X2032Y145226D01*
X2030Y145394D01*
Y146342D01*
X2405Y148228D01*
X3141Y150004D01*
X4209Y151602D01*
X5568Y152962D01*
X7167Y154030D01*
X8943Y154765D01*
X10828Y155140D01*
X11789D01*
X11824Y155147D01*
X11859Y155141D01*
X12050Y155148D01*
X177616Y155148D01*
X177616Y155148D01*
X178396Y155303D01*
X179058Y155745D01*
X198081Y174768D01*
X589240Y174788D01*
X618130Y145925D01*
D02*
G37*
%LPC*%
G36*
X586692Y173672D02*
X585299D01*
X584013Y173139D01*
X583029Y172155D01*
X582496Y170868D01*
Y169476D01*
X583029Y168189D01*
X584013Y167205D01*
X585299Y166672D01*
X586692D01*
X587978Y167205D01*
X588963Y168189D01*
X589496Y169476D01*
Y170868D01*
X588963Y172155D01*
X587978Y173139D01*
X586692Y173672D01*
D02*
G37*
G36*
X571692D02*
X570299D01*
X569013Y173139D01*
X568029Y172155D01*
X567496Y170868D01*
Y169476D01*
X568029Y168189D01*
X569013Y167205D01*
X570299Y166672D01*
X571692D01*
X572978Y167205D01*
X573963Y168189D01*
X574496Y169476D01*
Y170868D01*
X573963Y172155D01*
X572978Y173139D01*
X571692Y173672D01*
D02*
G37*
G36*
X556692D02*
X555299D01*
X554013Y173139D01*
X553029Y172155D01*
X552496Y170868D01*
Y169476D01*
X553029Y168189D01*
X554013Y167205D01*
X555299Y166672D01*
X556692D01*
X557978Y167205D01*
X558963Y168189D01*
X559496Y169476D01*
Y170868D01*
X558963Y172155D01*
X557978Y173139D01*
X556692Y173672D01*
D02*
G37*
G36*
X541692D02*
X540299D01*
X539013Y173139D01*
X538029Y172155D01*
X537496Y170868D01*
Y169476D01*
X538029Y168189D01*
X539013Y167205D01*
X540299Y166672D01*
X541692D01*
X542978Y167205D01*
X543963Y168189D01*
X544496Y169476D01*
Y170868D01*
X543963Y172155D01*
X542978Y173139D01*
X541692Y173672D01*
D02*
G37*
G36*
X526692D02*
X525299D01*
X524013Y173139D01*
X523029Y172155D01*
X522496Y170868D01*
Y169476D01*
X523029Y168189D01*
X524013Y167205D01*
X525299Y166672D01*
X526692D01*
X527978Y167205D01*
X528963Y168189D01*
X529496Y169476D01*
Y170868D01*
X528963Y172155D01*
X527978Y173139D01*
X526692Y173672D01*
D02*
G37*
G36*
X511692D02*
X510299D01*
X509013Y173139D01*
X508028Y172155D01*
X507496Y170868D01*
Y169476D01*
X508028Y168189D01*
X509013Y167205D01*
X510299Y166672D01*
X511692D01*
X512978Y167205D01*
X513963Y168189D01*
X514496Y169476D01*
Y170868D01*
X513963Y172155D01*
X512978Y173139D01*
X511692Y173672D01*
D02*
G37*
G36*
X496692D02*
X495299D01*
X494013Y173139D01*
X493029Y172155D01*
X492496Y170868D01*
Y169476D01*
X493029Y168189D01*
X494013Y167205D01*
X495299Y166672D01*
X496692D01*
X497978Y167205D01*
X498963Y168189D01*
X499496Y169476D01*
Y170868D01*
X498963Y172155D01*
X497978Y173139D01*
X496692Y173672D01*
D02*
G37*
G36*
X326692D02*
X325299D01*
X324013Y173139D01*
X323029Y172155D01*
X322496Y170868D01*
Y169476D01*
X323029Y168189D01*
X324013Y167205D01*
X325299Y166672D01*
X326692D01*
X327978Y167205D01*
X328963Y168189D01*
X329496Y169476D01*
Y170868D01*
X328963Y172155D01*
X327978Y173139D01*
X326692Y173672D01*
D02*
G37*
G36*
X281692D02*
X280299D01*
X279013Y173139D01*
X278029Y172155D01*
X277496Y170868D01*
Y169476D01*
X278029Y168189D01*
X279013Y167205D01*
X280299Y166672D01*
X281692D01*
X282978Y167205D01*
X283963Y168189D01*
X284496Y169476D01*
Y170868D01*
X283963Y172155D01*
X282978Y173139D01*
X281692Y173672D01*
D02*
G37*
G36*
X266692D02*
X265299D01*
X264013Y173139D01*
X263029Y172155D01*
X262496Y170868D01*
Y169476D01*
X263029Y168189D01*
X264013Y167205D01*
X265299Y166672D01*
X266692D01*
X267978Y167205D01*
X268963Y168189D01*
X269496Y169476D01*
Y170868D01*
X268963Y172155D01*
X267978Y173139D01*
X266692Y173672D01*
D02*
G37*
G36*
X251692D02*
X250299D01*
X249013Y173139D01*
X248029Y172155D01*
X247496Y170868D01*
Y169476D01*
X248029Y168189D01*
X249013Y167205D01*
X250299Y166672D01*
X251692D01*
X252978Y167205D01*
X253963Y168189D01*
X254496Y169476D01*
Y170868D01*
X253963Y172155D01*
X252978Y173139D01*
X251692Y173672D01*
D02*
G37*
G36*
X236692D02*
X235299D01*
X234013Y173139D01*
X233029Y172155D01*
X232496Y170868D01*
Y169476D01*
X233029Y168189D01*
X234013Y167205D01*
X235299Y166672D01*
X236692D01*
X237978Y167205D01*
X238963Y168189D01*
X239496Y169476D01*
Y170868D01*
X238963Y172155D01*
X237978Y173139D01*
X236692Y173672D01*
D02*
G37*
G36*
X221692D02*
X220299D01*
X219013Y173139D01*
X218029Y172155D01*
X217496Y170868D01*
Y169476D01*
X218029Y168189D01*
X219013Y167205D01*
X220299Y166672D01*
X221692D01*
X222978Y167205D01*
X223963Y168189D01*
X224496Y169476D01*
Y170868D01*
X223963Y172155D01*
X222978Y173139D01*
X221692Y173672D01*
D02*
G37*
G36*
X482136Y173615D02*
X480743D01*
X479457Y173082D01*
X478472Y172098D01*
X477940Y170811D01*
Y169419D01*
X478472Y168132D01*
X479457Y167148D01*
X480743Y166615D01*
X482136D01*
X483422Y167148D01*
X484407Y168132D01*
X484940Y169419D01*
Y170811D01*
X484407Y172098D01*
X483422Y173082D01*
X482136Y173615D01*
D02*
G37*
G36*
X310576Y163630D02*
X309184D01*
X307897Y163097D01*
X306913Y162113D01*
X306380Y160826D01*
Y159434D01*
X306913Y158147D01*
X307897Y157163D01*
X309184Y156630D01*
X310576D01*
X311863Y157163D01*
X312847Y158147D01*
X313380Y159434D01*
Y160826D01*
X312847Y162113D01*
X311863Y163097D01*
X310576Y163630D01*
D02*
G37*
G36*
X292796D02*
X291404D01*
X290117Y163097D01*
X289133Y162113D01*
X288600Y160826D01*
Y159434D01*
X289133Y158147D01*
X290117Y157163D01*
X291404Y156630D01*
X292796D01*
X294083Y157163D01*
X295067Y158147D01*
X295600Y159434D01*
Y160826D01*
X295067Y162113D01*
X294083Y163097D01*
X292796Y163630D01*
D02*
G37*
G36*
X301686Y163520D02*
X300294D01*
X299007Y162987D01*
X298023Y162003D01*
X297490Y160716D01*
Y159324D01*
X298023Y158037D01*
X299007Y157053D01*
X300294Y156520D01*
X301686D01*
X302973Y157053D01*
X303957Y158037D01*
X304490Y159324D01*
Y160716D01*
X303957Y162003D01*
X302973Y162987D01*
X301686Y163520D01*
D02*
G37*
G36*
X597209Y160705D02*
X595817D01*
X594530Y160172D01*
X593546Y159187D01*
X593013Y157901D01*
Y156509D01*
X593546Y155222D01*
X594530Y154238D01*
X595817Y153705D01*
X597209D01*
X598496Y154238D01*
X599480Y155222D01*
X600013Y156509D01*
Y157901D01*
X599480Y159187D01*
X598496Y160172D01*
X597209Y160705D01*
D02*
G37*
G36*
X319466Y163520D02*
X318074D01*
X316787Y162987D01*
X315803Y162003D01*
X315270Y160716D01*
Y159324D01*
X315803Y158037D01*
X316787Y157053D01*
X318074Y156520D01*
X319466D01*
X319475Y156524D01*
X320379Y155799D01*
X320824Y154726D01*
X321808Y153741D01*
X323095Y153208D01*
X324487D01*
X325773Y153741D01*
X326758Y154726D01*
X327291Y156012D01*
Y157404D01*
X326758Y158691D01*
X325773Y159675D01*
X324487Y160208D01*
X323095D01*
X323086Y160205D01*
X322182Y160930D01*
X321737Y162003D01*
X320753Y162987D01*
X319466Y163520D01*
D02*
G37*
G36*
X437957Y154550D02*
X436564D01*
X435278Y154017D01*
X434463Y153202D01*
X433749Y153917D01*
X432462Y154450D01*
X431070D01*
X429784Y153917D01*
X428799Y152933D01*
X428266Y151646D01*
Y150254D01*
X428799Y148967D01*
X429380Y148386D01*
X428799Y147804D01*
X428266Y146518D01*
Y145126D01*
X428799Y143839D01*
X429784Y142854D01*
X431070Y142322D01*
X432462D01*
X433749Y142854D01*
X434447Y143553D01*
X435078Y142921D01*
X436365Y142388D01*
X437757D01*
X439044Y142921D01*
X440028Y143906D01*
X440561Y145192D01*
Y146584D01*
X440028Y147871D01*
X439530Y148369D01*
X440228Y149067D01*
X440761Y150354D01*
Y151746D01*
X440228Y153033D01*
X439243Y154017D01*
X437957Y154550D01*
D02*
G37*
G36*
X382529Y154512D02*
X381137D01*
X379851Y153979D01*
X379036Y153164D01*
X378321Y153879D01*
X377035Y154412D01*
X375643D01*
X374356Y153879D01*
X373372Y152895D01*
X372839Y151608D01*
Y150216D01*
X373372Y148929D01*
X373953Y148348D01*
X373372Y147766D01*
X372839Y146480D01*
Y145087D01*
X373372Y143801D01*
X374356Y142816D01*
X375643Y142284D01*
X377035D01*
X378321Y142816D01*
X379019Y143515D01*
X379651Y142883D01*
X380937Y142350D01*
X382330D01*
X383616Y142883D01*
X384601Y143868D01*
X385134Y145154D01*
Y146546D01*
X384601Y147833D01*
X384102Y148331D01*
X384800Y149029D01*
X385333Y150316D01*
Y151708D01*
X384800Y152994D01*
X383816Y153979D01*
X382529Y154512D01*
D02*
G37*
G36*
X481874Y158686D02*
X480482D01*
X479196Y158154D01*
X478211Y157169D01*
X477678Y155883D01*
Y154490D01*
X478211Y153204D01*
X479196Y152219D01*
X480482Y151686D01*
X481874D01*
X483161Y152219D01*
X484145Y153204D01*
X484678Y154490D01*
Y155883D01*
X484145Y157169D01*
X483161Y158154D01*
X481874Y158686D01*
D02*
G37*
G36*
X21692Y153672D02*
X20299D01*
X19013Y153139D01*
X18029Y152155D01*
X17496Y150868D01*
Y149476D01*
X18029Y148189D01*
X19013Y147205D01*
X20299Y146672D01*
X21692D01*
X22978Y147205D01*
X23963Y148189D01*
X24496Y149476D01*
Y150868D01*
X23963Y152155D01*
X22978Y153139D01*
X21692Y153672D01*
D02*
G37*
G36*
X60060Y147322D02*
X58667D01*
X57381Y146789D01*
X56958Y146367D01*
X56393Y145807D01*
X55631Y146367D01*
X55307Y146691D01*
X54021Y147224D01*
X52628D01*
X51342Y146691D01*
X50357Y145706D01*
X49824Y144420D01*
Y143027D01*
X50357Y141741D01*
X51342Y140757D01*
X52628Y140224D01*
X54021D01*
X55307Y140757D01*
X55729Y141179D01*
X56294Y141739D01*
X57057Y141179D01*
X57381Y140855D01*
X58667Y140322D01*
X60060D01*
X61346Y140855D01*
X62331Y141840D01*
X62863Y143126D01*
Y144518D01*
X62331Y145805D01*
X61346Y146789D01*
X60060Y147322D01*
D02*
G37*
G36*
X607209Y150705D02*
X605817D01*
X604530Y150172D01*
X603546Y149187D01*
X603013Y147901D01*
Y146509D01*
X603546Y145222D01*
X604530Y144238D01*
X605817Y143705D01*
X607209D01*
X608496Y144238D01*
X609480Y145222D01*
X610013Y146509D01*
Y147901D01*
X609480Y149187D01*
X608496Y150172D01*
X607209Y150705D01*
D02*
G37*
G36*
X525244Y150140D02*
X523851D01*
X522565Y149607D01*
X521580Y148623D01*
X521048Y147336D01*
Y145944D01*
X521580Y144657D01*
X522565Y143673D01*
X523851Y143140D01*
X525244D01*
X526530Y143673D01*
X527515Y144657D01*
X528047Y145944D01*
Y147336D01*
X527515Y148623D01*
X526530Y149607D01*
X525244Y150140D01*
D02*
G37*
G36*
X171692Y148672D02*
X170299D01*
X169013Y148139D01*
X168029Y147155D01*
X167496Y145868D01*
Y144476D01*
X168029Y143189D01*
X169013Y142205D01*
X170299Y141672D01*
X171692D01*
X172978Y142205D01*
X173963Y143189D01*
X174496Y144476D01*
Y145868D01*
X173963Y147155D01*
X172978Y148139D01*
X171692Y148672D01*
D02*
G37*
G36*
X116692D02*
X115300D01*
X114013Y148139D01*
X113029Y147155D01*
X112496Y145868D01*
Y144476D01*
X113029Y143189D01*
X114013Y142205D01*
X115300Y141672D01*
X116692D01*
X117978Y142205D01*
X118963Y143189D01*
X119496Y144476D01*
Y145868D01*
X118963Y147155D01*
X117978Y148139D01*
X116692Y148672D01*
D02*
G37*
G36*
X9192D02*
X7800D01*
X6513Y148139D01*
X5529Y147155D01*
X4996Y145868D01*
Y144476D01*
X5529Y143189D01*
X6513Y142205D01*
X7800Y141672D01*
X9192D01*
X10478Y142205D01*
X11463Y143189D01*
X11996Y144476D01*
Y145868D01*
X11463Y147155D01*
X10478Y148139D01*
X9192Y148672D01*
D02*
G37*
G36*
X43602Y147542D02*
X42210D01*
X40923Y147009D01*
X39939Y146025D01*
X39406Y144738D01*
Y143346D01*
X39939Y142059D01*
X40923Y141075D01*
X42210Y140542D01*
X43602D01*
X44889Y141075D01*
X45873Y142059D01*
X46406Y143346D01*
Y144738D01*
X45873Y146025D01*
X44889Y147009D01*
X43602Y147542D01*
D02*
G37*
G36*
X68107Y147402D02*
X66714D01*
X65428Y146869D01*
X64443Y145885D01*
X63910Y144598D01*
Y143206D01*
X64443Y141919D01*
X65428Y140935D01*
X66714Y140402D01*
X68107D01*
X69393Y140935D01*
X70378Y141919D01*
X70911Y143206D01*
Y144598D01*
X70378Y145885D01*
X69393Y146869D01*
X68107Y147402D01*
D02*
G37*
G36*
X501692Y145812D02*
X500299D01*
X499013Y145279D01*
X498029Y144295D01*
X497496Y143008D01*
Y141616D01*
X498029Y140329D01*
X499013Y139345D01*
X500299Y138812D01*
X501692D01*
X502978Y139345D01*
X503963Y140329D01*
X504496Y141616D01*
Y143008D01*
X503963Y144295D01*
X502978Y145279D01*
X501692Y145812D01*
D02*
G37*
G36*
X484905Y145346D02*
X483512D01*
X482226Y144813D01*
X481241Y143829D01*
X480708Y142542D01*
Y141150D01*
X481241Y139863D01*
X482226Y138879D01*
X483512Y138346D01*
X484905D01*
X486191Y138879D01*
X487175Y139863D01*
X487708Y141150D01*
Y142542D01*
X487175Y143829D01*
X486191Y144813D01*
X484905Y145346D01*
D02*
G37*
G36*
X649192Y143672D02*
X647800D01*
X646513Y143139D01*
X645529Y142155D01*
X644996Y140868D01*
Y139476D01*
X645529Y138189D01*
X646513Y137205D01*
X647800Y136672D01*
X649192D01*
X650478Y137205D01*
X651463Y138189D01*
X651996Y139476D01*
Y140868D01*
X651463Y142155D01*
X650478Y143139D01*
X649192Y143672D01*
D02*
G37*
G36*
X634192D02*
X632799D01*
X631513Y143139D01*
X630529Y142155D01*
X629996Y140868D01*
Y139476D01*
X630529Y138189D01*
X631513Y137205D01*
X632799Y136672D01*
X634192D01*
X635478Y137205D01*
X636463Y138189D01*
X636996Y139476D01*
Y140868D01*
X636463Y142155D01*
X635478Y143139D01*
X634192Y143672D01*
D02*
G37*
G36*
X619192D02*
X617799D01*
X616513Y143139D01*
X615529Y142155D01*
X614996Y140868D01*
Y139476D01*
X615529Y138189D01*
X616513Y137205D01*
X617799Y136672D01*
X619192D01*
X620478Y137205D01*
X621463Y138189D01*
X621996Y139476D01*
Y140868D01*
X621463Y142155D01*
X620478Y143139D01*
X619192Y143672D01*
D02*
G37*
G36*
X229192D02*
X227799D01*
X226513Y143139D01*
X225529Y142155D01*
X224996Y140868D01*
Y139476D01*
X225529Y138189D01*
X226513Y137205D01*
X227799Y136672D01*
X229192D01*
X230478Y137205D01*
X231463Y138189D01*
X231996Y139476D01*
Y140868D01*
X231463Y142155D01*
X230478Y143139D01*
X229192Y143672D01*
D02*
G37*
G36*
X252041Y148869D02*
X250648D01*
X249362Y148336D01*
X248377Y147352D01*
X247844Y146065D01*
Y144673D01*
X248377Y143386D01*
X248801Y142963D01*
X248380Y141947D01*
X243496D01*
X239711Y141449D01*
X236183Y139988D01*
X233154Y137663D01*
X230830Y134635D01*
X229369Y131107D01*
X228871Y127322D01*
X229369Y123537D01*
X230830Y120009D01*
X233154Y116980D01*
X236183Y114656D01*
X239711Y113195D01*
X243496Y112697D01*
X258496D01*
X262281Y113195D01*
X265808Y114656D01*
X268837Y116980D01*
X271161Y120009D01*
X272623Y123537D01*
X273121Y127322D01*
X272623Y131107D01*
X271271Y134370D01*
X271811Y135057D01*
X271989Y135173D01*
X272796Y134838D01*
X274188D01*
X275475Y135371D01*
X276459Y136356D01*
X276992Y137642D01*
Y139035D01*
X276459Y140321D01*
X275475Y141306D01*
X274188Y141839D01*
X272796D01*
X271509Y141306D01*
X270525Y140321D01*
X269992Y139035D01*
Y137827D01*
X269436Y137488D01*
X269053Y137382D01*
X268837Y137663D01*
X265808Y139988D01*
X262281Y141449D01*
X258496Y141947D01*
X254309D01*
X253888Y142963D01*
X254311Y143386D01*
X254844Y144673D01*
Y146065D01*
X254311Y147352D01*
X253327Y148336D01*
X252041Y148869D01*
D02*
G37*
G36*
X545458Y141534D02*
X544066D01*
X542779Y141001D01*
X541795Y140017D01*
X541262Y138730D01*
Y137338D01*
X541795Y136052D01*
X542779Y135067D01*
X544066Y134534D01*
X545458D01*
X546744Y135067D01*
X547729Y136052D01*
X548262Y137338D01*
Y138730D01*
X547729Y140017D01*
X546744Y141001D01*
X545458Y141534D01*
D02*
G37*
G36*
X459192Y138672D02*
X457799D01*
X456513Y138139D01*
X455529Y137155D01*
X454996Y135868D01*
Y134476D01*
X455529Y133189D01*
X456513Y132205D01*
X457799Y131672D01*
X459192D01*
X460478Y132205D01*
X461463Y133189D01*
X461996Y134476D01*
Y135868D01*
X461463Y137155D01*
X460478Y138139D01*
X459192Y138672D01*
D02*
G37*
G36*
X121692D02*
X120300D01*
X119013Y138139D01*
X118029Y137155D01*
X117496Y135868D01*
Y134476D01*
X118029Y133189D01*
X119013Y132205D01*
X120300Y131672D01*
X121692D01*
X122978Y132205D01*
X123963Y133189D01*
X124496Y134476D01*
Y135868D01*
X123963Y137155D01*
X122978Y138139D01*
X121692Y138672D01*
D02*
G37*
G36*
X171692Y136172D02*
X170299D01*
X169013Y135639D01*
X168029Y134655D01*
X167496Y133368D01*
Y131976D01*
X168029Y130689D01*
X169013Y129705D01*
X170299Y129172D01*
X171692D01*
X172978Y129705D01*
X173963Y130689D01*
X174496Y131976D01*
Y133368D01*
X173963Y134655D01*
X172978Y135639D01*
X171692Y136172D01*
D02*
G37*
G36*
X9192Y133672D02*
X7800D01*
X6513Y133139D01*
X5529Y132155D01*
X4996Y130868D01*
Y129476D01*
X5529Y128189D01*
X6513Y127205D01*
X7800Y126672D01*
X9192D01*
X10478Y127205D01*
X11463Y128189D01*
X11996Y129476D01*
Y130868D01*
X11463Y132155D01*
X10478Y133139D01*
X9192Y133672D01*
D02*
G37*
G36*
X651692Y128672D02*
X650300D01*
X649013Y128139D01*
X648028Y127155D01*
X647496Y125868D01*
Y124476D01*
X648028Y123189D01*
X649013Y122205D01*
X650300Y121672D01*
X651692D01*
X652978Y122205D01*
X653963Y123189D01*
X654496Y124476D01*
Y125868D01*
X653963Y127155D01*
X652978Y128139D01*
X651692Y128672D01*
D02*
G37*
G36*
X495597Y125285D02*
X494204D01*
X492918Y124753D01*
X491933Y123768D01*
X491400Y122482D01*
Y121089D01*
X491933Y119803D01*
X492918Y118818D01*
X494204Y118285D01*
X495597D01*
X496883Y118818D01*
X497868Y119803D01*
X498400Y121089D01*
Y122482D01*
X497868Y123768D01*
X496883Y124753D01*
X495597Y125285D01*
D02*
G37*
G36*
X546812Y122227D02*
X545420D01*
X544133Y121694D01*
X543149Y120709D01*
X542616Y119423D01*
Y118031D01*
X543149Y116744D01*
X544133Y115760D01*
X545420Y115227D01*
X546812D01*
X548098Y115760D01*
X549083Y116744D01*
X549616Y118031D01*
Y119423D01*
X549083Y120709D01*
X548098Y121694D01*
X546812Y122227D01*
D02*
G37*
G36*
X528706Y141947D02*
X513706D01*
X509921Y141449D01*
X506393Y139988D01*
X503364Y137663D01*
X501040Y134635D01*
X499579Y131107D01*
X499081Y127322D01*
X499579Y123537D01*
X501040Y120009D01*
X503364Y116980D01*
X506393Y114656D01*
X509921Y113195D01*
X513706Y112697D01*
X528706D01*
X532491Y113195D01*
X536018Y114656D01*
X539047Y116980D01*
X541371Y120009D01*
X542832Y123537D01*
X543331Y127322D01*
X542832Y131107D01*
X541371Y134635D01*
X539047Y137663D01*
X536018Y139988D01*
X532491Y141449D01*
X528706Y141947D01*
D02*
G37*
G36*
X644192Y118672D02*
X642800D01*
X641513Y118139D01*
X640529Y117155D01*
X639996Y115868D01*
Y114476D01*
X640529Y113189D01*
X641513Y112205D01*
X642800Y111672D01*
X644192D01*
X645478Y112205D01*
X646463Y113189D01*
X646996Y114476D01*
Y115868D01*
X646463Y117155D01*
X645478Y118139D01*
X644192Y118672D01*
D02*
G37*
G36*
X9192D02*
X7800D01*
X6513Y118139D01*
X5529Y117155D01*
X4996Y115868D01*
Y114476D01*
X5529Y113189D01*
X6513Y112205D01*
X7800Y111672D01*
X9192D01*
X10478Y112205D01*
X11463Y113189D01*
X11996Y114476D01*
Y115868D01*
X11463Y117155D01*
X10478Y118139D01*
X9192Y118672D01*
D02*
G37*
G36*
X273494Y117126D02*
X272102D01*
X270816Y116593D01*
X269831Y115609D01*
X269298Y114322D01*
Y112930D01*
X269831Y111643D01*
X270816Y110659D01*
X272102Y110126D01*
X273494D01*
X274781Y110659D01*
X275765Y111643D01*
X276298Y112930D01*
Y114322D01*
X275765Y115609D01*
X274781Y116593D01*
X273494Y117126D01*
D02*
G37*
G36*
X849192Y108672D02*
X847800D01*
X846513Y108139D01*
X845529Y107155D01*
X845296Y106592D01*
X844196D01*
X843963Y107155D01*
X842978Y108139D01*
X841692Y108672D01*
X840300D01*
X839013Y108139D01*
X838028Y107155D01*
X837796Y106592D01*
X836696D01*
X836463Y107155D01*
X835478Y108139D01*
X834192Y108672D01*
X832800D01*
X831513Y108139D01*
X830529Y107155D01*
X830296Y106592D01*
X829196D01*
X828963Y107155D01*
X827978Y108139D01*
X826692Y108672D01*
X825300D01*
X824013Y108139D01*
X823029Y107155D01*
X822796Y106592D01*
X821696D01*
X821463Y107155D01*
X820478Y108139D01*
X819192Y108672D01*
X817800D01*
X816513Y108139D01*
X815528Y107155D01*
X815296Y106592D01*
X814196D01*
X813963Y107155D01*
X812978Y108139D01*
X811692Y108672D01*
X810300D01*
X809013Y108139D01*
X808029Y107155D01*
X807796Y106592D01*
X806696D01*
X806463Y107155D01*
X805478Y108139D01*
X804192Y108672D01*
X802800D01*
X801513Y108139D01*
X800529Y107155D01*
X800296Y106592D01*
X799196D01*
X798963Y107155D01*
X797978Y108139D01*
X796692Y108672D01*
X795300D01*
X794013Y108139D01*
X793029Y107155D01*
X792796Y106592D01*
X791696D01*
X791463Y107155D01*
X790478Y108139D01*
X789192Y108672D01*
X787800D01*
X786513Y108139D01*
X785529Y107155D01*
X785296Y106592D01*
X784196D01*
X783963Y107155D01*
X782978Y108139D01*
X781692Y108672D01*
X780300D01*
X779013Y108139D01*
X778029Y107155D01*
X777796Y106592D01*
X776696D01*
X776463Y107155D01*
X775478Y108139D01*
X774192Y108672D01*
X772800D01*
X771513Y108139D01*
X770529Y107155D01*
X770296Y106592D01*
X769196D01*
X768963Y107155D01*
X767978Y108139D01*
X766692Y108672D01*
X765300D01*
X764013Y108139D01*
X763029Y107155D01*
X762796Y106592D01*
X761696D01*
X761463Y107155D01*
X760478Y108139D01*
X759192Y108672D01*
X757800D01*
X756513Y108139D01*
X755529Y107155D01*
X755296Y106592D01*
X754196D01*
X753963Y107155D01*
X752978Y108139D01*
X751692Y108672D01*
X750300D01*
X749013Y108139D01*
X748029Y107155D01*
X747796Y106592D01*
X746696D01*
X746463Y107155D01*
X745478Y108139D01*
X744192Y108672D01*
X742800D01*
X741513Y108139D01*
X740529Y107155D01*
X740296Y106592D01*
X739196D01*
X738963Y107155D01*
X737978Y108139D01*
X736692Y108672D01*
X735300D01*
X734013Y108139D01*
X733029Y107155D01*
X732796Y106592D01*
X731696D01*
X731463Y107155D01*
X730478Y108139D01*
X729192Y108672D01*
X727800D01*
X726513Y108139D01*
X725528Y107155D01*
X724996Y105868D01*
Y104476D01*
X725528Y103189D01*
X726513Y102205D01*
X727076Y101972D01*
Y100872D01*
X726513Y100639D01*
X725528Y99655D01*
X725296Y99092D01*
X724196D01*
X723963Y99655D01*
X722978Y100639D01*
X721692Y101172D01*
X720300D01*
X719013Y100639D01*
X718029Y99655D01*
X717796Y99092D01*
X716696D01*
X716463Y99655D01*
X715478Y100639D01*
X714192Y101172D01*
X712800D01*
X711513Y100639D01*
X710529Y99655D01*
X710296Y99092D01*
X709196D01*
X708963Y99655D01*
X707978Y100639D01*
X706692Y101172D01*
X705300D01*
X704013Y100639D01*
X703028Y99655D01*
X702796Y99092D01*
X701696D01*
X701463Y99655D01*
X700478Y100639D01*
X699192Y101172D01*
X697800D01*
X696513Y100639D01*
X695529Y99655D01*
X695296Y99092D01*
X694196D01*
X693963Y99655D01*
X692978Y100639D01*
X691692Y101172D01*
X690300D01*
X689013Y100639D01*
X688029Y99655D01*
X687796Y99092D01*
X686696D01*
X686463Y99655D01*
X685478Y100639D01*
X684192Y101172D01*
X682800D01*
X681513Y100639D01*
X680529Y99655D01*
X680296Y99092D01*
X679196D01*
X678963Y99655D01*
X677978Y100639D01*
X676692Y101172D01*
X675300D01*
X674013Y100639D01*
X673029Y99655D01*
X672796Y99092D01*
X671696D01*
X671463Y99655D01*
X670478Y100639D01*
X669192Y101172D01*
X667800D01*
X666513Y100639D01*
X665529Y99655D01*
X665296Y99092D01*
X664196D01*
X663963Y99655D01*
X662978Y100639D01*
X661692Y101172D01*
X660300D01*
X659013Y100639D01*
X658029Y99655D01*
X657796Y99092D01*
X656696D01*
X656463Y99655D01*
X655478Y100639D01*
X654192Y101172D01*
X652800D01*
X651513Y100639D01*
X650528Y99655D01*
X650296Y99092D01*
X649196D01*
X648963Y99655D01*
X647978Y100639D01*
X646692Y101172D01*
X645300D01*
X644013Y100639D01*
X643029Y99655D01*
X642496Y98368D01*
Y96976D01*
X643029Y95689D01*
X644013Y94705D01*
X645300Y94172D01*
X646692D01*
X647978Y94705D01*
X648963Y95689D01*
X649196Y96252D01*
X650296D01*
X650528Y95689D01*
X651513Y94705D01*
X652076Y94472D01*
Y93372D01*
X651513Y93139D01*
X650528Y92155D01*
X649996Y90868D01*
Y89476D01*
X650528Y88189D01*
X651513Y87205D01*
X652800Y86672D01*
X654192D01*
X655478Y87205D01*
X656463Y88189D01*
X656696Y88752D01*
X657796D01*
X658029Y88189D01*
X659013Y87205D01*
X660300Y86672D01*
X661692D01*
X662978Y87205D01*
X663963Y88189D01*
X664196Y88752D01*
X665296D01*
X665529Y88189D01*
X666513Y87205D01*
X667800Y86672D01*
X669192D01*
X670478Y87205D01*
X671463Y88189D01*
X671696Y88752D01*
X672796D01*
X673029Y88189D01*
X674013Y87205D01*
X675300Y86672D01*
X676692D01*
X677978Y87205D01*
X678963Y88189D01*
X679196Y88752D01*
X680296D01*
X680529Y88189D01*
X681513Y87205D01*
X682076Y86972D01*
Y85872D01*
X681513Y85639D01*
X680529Y84655D01*
X679996Y83368D01*
Y81976D01*
X680529Y80689D01*
X681513Y79705D01*
X682800Y79172D01*
X684192D01*
X685478Y79705D01*
X686463Y80689D01*
X686696Y81252D01*
X687796D01*
X688029Y80689D01*
X689013Y79705D01*
X690300Y79172D01*
X691692D01*
X692978Y79705D01*
X693963Y80689D01*
X694196Y81252D01*
X695296D01*
X695529Y80689D01*
X696513Y79705D01*
X697800Y79172D01*
X699192D01*
X700478Y79705D01*
X701463Y80689D01*
X701696Y81252D01*
X702796D01*
X703028Y80689D01*
X704013Y79705D01*
X705300Y79172D01*
X706692D01*
X707978Y79705D01*
X708963Y80689D01*
X709196Y81252D01*
X710296D01*
X710529Y80689D01*
X711513Y79705D01*
X712800Y79172D01*
X714192D01*
X715478Y79705D01*
X716463Y80689D01*
X716996Y81976D01*
Y83368D01*
X716463Y84655D01*
X715478Y85639D01*
X714916Y85872D01*
Y86972D01*
X715478Y87205D01*
X716463Y88189D01*
X716696Y88752D01*
X717796D01*
X718029Y88189D01*
X719013Y87205D01*
X720300Y86672D01*
X721692D01*
X722978Y87205D01*
X723963Y88189D01*
X724196Y88752D01*
X725296D01*
X725528Y88189D01*
X726513Y87205D01*
X727800Y86672D01*
X729192D01*
X730478Y87205D01*
X731463Y88189D01*
X731696Y88752D01*
X732796D01*
X733029Y88189D01*
X734013Y87205D01*
X735300Y86672D01*
X736692D01*
X737978Y87205D01*
X738963Y88189D01*
X739196Y88752D01*
X740296D01*
X740529Y88189D01*
X741513Y87205D01*
X742800Y86672D01*
X744192D01*
X745478Y87205D01*
X746463Y88189D01*
X746696Y88752D01*
X747796D01*
X748029Y88189D01*
X749013Y87205D01*
X750300Y86672D01*
X751692D01*
X752978Y87205D01*
X753963Y88189D01*
X754196Y88752D01*
X755296D01*
X755529Y88189D01*
X756513Y87205D01*
X757800Y86672D01*
X759192D01*
X760478Y87205D01*
X761463Y88189D01*
X761696Y88752D01*
X762796D01*
X763029Y88189D01*
X764013Y87205D01*
X765300Y86672D01*
X766692D01*
X767978Y87205D01*
X768963Y88189D01*
X769196Y88752D01*
X770296D01*
X770529Y88189D01*
X771513Y87205D01*
X772800Y86672D01*
X774192D01*
X775478Y87205D01*
X776463Y88189D01*
X776696Y88752D01*
X777796D01*
X778029Y88189D01*
X779013Y87205D01*
X780300Y86672D01*
X781692D01*
X782978Y87205D01*
X783963Y88189D01*
X784196Y88752D01*
X785296D01*
X785529Y88189D01*
X786513Y87205D01*
X787800Y86672D01*
X789192D01*
X790478Y87205D01*
X791463Y88189D01*
X791696Y88752D01*
X792796D01*
X793029Y88189D01*
X794013Y87205D01*
X795300Y86672D01*
X796692D01*
X797978Y87205D01*
X798963Y88189D01*
X799196Y88752D01*
X800296D01*
X800529Y88189D01*
X800908Y87810D01*
X800783Y86658D01*
X799798Y85674D01*
X799265Y84387D01*
Y82995D01*
X799798Y81709D01*
X800783Y80724D01*
X802069Y80191D01*
X803462D01*
X804748Y80724D01*
X805732Y81709D01*
X806265Y82995D01*
Y84387D01*
X805732Y85674D01*
X805353Y86053D01*
X805478Y87205D01*
X806463Y88189D01*
X806696Y88752D01*
X807796D01*
X808029Y88189D01*
X809013Y87205D01*
X810300Y86672D01*
X811692D01*
X812978Y87205D01*
X813963Y88189D01*
X814196Y88752D01*
X815296D01*
X815528Y88189D01*
X816513Y87205D01*
X817800Y86672D01*
X819192D01*
X820478Y87205D01*
X821463Y88189D01*
X821696Y88752D01*
X822796D01*
X823029Y88189D01*
X824013Y87205D01*
X825300Y86672D01*
X826692D01*
X827978Y87205D01*
X828963Y88189D01*
X829196Y88752D01*
X830296D01*
X830529Y88189D01*
X831513Y87205D01*
X832800Y86672D01*
X834192D01*
X835478Y87205D01*
X836463Y88189D01*
X836696Y88752D01*
X837796D01*
X838028Y88189D01*
X839013Y87205D01*
X840300Y86672D01*
X841692D01*
X842978Y87205D01*
X843963Y88189D01*
X844196Y88752D01*
X845296D01*
X845529Y88189D01*
X846513Y87205D01*
X847800Y86672D01*
X849192D01*
X850478Y87205D01*
X851463Y88189D01*
X851996Y89476D01*
Y90868D01*
X851463Y92155D01*
X850478Y93139D01*
X849916Y93372D01*
Y94472D01*
X850478Y94705D01*
X851463Y95689D01*
X851996Y96976D01*
Y98368D01*
X851463Y99655D01*
X850478Y100639D01*
X849916Y100872D01*
Y101972D01*
X850478Y102205D01*
X851463Y103189D01*
X851996Y104476D01*
Y105868D01*
X851463Y107155D01*
X850478Y108139D01*
X849192Y108672D01*
D02*
G37*
G36*
X535608Y112191D02*
X534215D01*
X532929Y111658D01*
X531944Y110674D01*
X531412Y109387D01*
Y107995D01*
X531944Y106708D01*
X532929Y105724D01*
X534215Y105191D01*
X535608D01*
X536894Y105724D01*
X537879Y106708D01*
X538411Y107995D01*
Y109387D01*
X537879Y110674D01*
X536894Y111658D01*
X535608Y112191D01*
D02*
G37*
G36*
X510820Y111906D02*
X509428D01*
X508142Y111373D01*
X507157Y110388D01*
X506624Y109102D01*
Y107709D01*
X507157Y106423D01*
X508142Y105438D01*
X509428Y104906D01*
X510820D01*
X512107Y105438D01*
X513091Y106423D01*
X513624Y107709D01*
Y109102D01*
X513091Y110388D01*
X512107Y111373D01*
X510820Y111906D01*
D02*
G37*
G36*
X952638Y111381D02*
X951246D01*
X949959Y110848D01*
X948975Y109863D01*
X948442Y108577D01*
Y107184D01*
X948975Y105898D01*
X949959Y104914D01*
X951246Y104381D01*
X952638D01*
X953924Y104914D01*
X954909Y105898D01*
X955442Y107184D01*
Y108577D01*
X954909Y109863D01*
X953924Y110848D01*
X952638Y111381D01*
D02*
G37*
G36*
X937492Y111122D02*
X936099D01*
X934813Y110589D01*
X933829Y109605D01*
X933296Y108318D01*
Y106926D01*
X933829Y105639D01*
X934813Y104655D01*
X936099Y104122D01*
X937492D01*
X938778Y104655D01*
X939763Y105639D01*
X940296Y106926D01*
Y108318D01*
X939763Y109605D01*
X938778Y110589D01*
X937492Y111122D01*
D02*
G37*
G36*
X42750Y105524D02*
X41358D01*
X40071Y104991D01*
X39087Y104007D01*
X38756Y103207D01*
X37656D01*
X37325Y104007D01*
X36340Y104991D01*
X35054Y105524D01*
X33662D01*
X32375Y104991D01*
X31391Y104007D01*
X30858Y102720D01*
Y101328D01*
X31391Y100042D01*
X32375Y99057D01*
X33662Y98524D01*
X35054D01*
X36340Y99057D01*
X37325Y100042D01*
X37656Y100841D01*
X38756D01*
X39087Y100042D01*
X40071Y99057D01*
X41358Y98524D01*
X42750D01*
X44037Y99057D01*
X45021Y100042D01*
X45554Y101328D01*
Y102720D01*
X45021Y104007D01*
X44037Y104991D01*
X42750Y105524D01*
D02*
G37*
G36*
X243722Y109409D02*
X242330D01*
X241044Y108876D01*
X240059Y107891D01*
X239526Y106605D01*
Y105212D01*
X240059Y103926D01*
X241044Y102942D01*
X242330Y102409D01*
X243722D01*
X245009Y102942D01*
X245846Y103779D01*
X246534Y103835D01*
X247022Y103754D01*
X247894Y102882D01*
X249180Y102349D01*
X250572D01*
X251859Y102882D01*
X252843Y103867D01*
X253376Y105153D01*
Y106545D01*
X252843Y107832D01*
X251859Y108816D01*
X250572Y109349D01*
X249180D01*
X247894Y108816D01*
X247057Y107979D01*
X246368Y107922D01*
X245881Y108004D01*
X245009Y108876D01*
X243722Y109409D01*
D02*
G37*
G36*
X258692Y109172D02*
X257299D01*
X256013Y108639D01*
X255029Y107654D01*
X254496Y106368D01*
Y104976D01*
X255029Y103689D01*
X256013Y102705D01*
X257299Y102172D01*
X258692D01*
X259978Y102705D01*
X260963Y103689D01*
X261496Y104976D01*
Y106368D01*
X260963Y107654D01*
X259978Y108639D01*
X258692Y109172D01*
D02*
G37*
G36*
X945501Y103943D02*
X944109D01*
X942823Y103410D01*
X941838Y102425D01*
X941305Y101139D01*
Y99747D01*
X941838Y98460D01*
X942823Y97476D01*
X944109Y96943D01*
X945501D01*
X946788Y97476D01*
X947772Y98460D01*
X948305Y99747D01*
Y101139D01*
X947772Y102425D01*
X946788Y103410D01*
X945501Y103943D01*
D02*
G37*
G36*
X9192Y103672D02*
X7800D01*
X6513Y103139D01*
X5529Y102155D01*
X4996Y100868D01*
Y99476D01*
X5529Y98189D01*
X6513Y97205D01*
X7800Y96672D01*
X9192D01*
X10478Y97205D01*
X11463Y98189D01*
X11996Y99476D01*
Y100868D01*
X11463Y102155D01*
X10478Y103139D01*
X9192Y103672D01*
D02*
G37*
G36*
X42750Y94524D02*
X41358D01*
X40071Y93991D01*
X39087Y93007D01*
X38756Y92207D01*
X37656D01*
X37325Y93007D01*
X36340Y93991D01*
X35054Y94524D01*
X33662D01*
X32375Y93991D01*
X31391Y93007D01*
X30858Y91720D01*
Y90328D01*
X31391Y89042D01*
X32375Y88057D01*
X33662Y87524D01*
X35054D01*
X36340Y88057D01*
X37325Y89042D01*
X37656Y89841D01*
X38756D01*
X39087Y89042D01*
X40071Y88057D01*
X41358Y87524D01*
X42750D01*
X44037Y88057D01*
X45021Y89042D01*
X45554Y90328D01*
Y91720D01*
X45021Y93007D01*
X44037Y93991D01*
X42750Y94524D01*
D02*
G37*
G36*
X937492Y97152D02*
X936099D01*
X934813Y96619D01*
X933829Y95634D01*
X933296Y94348D01*
Y92956D01*
X933829Y91669D01*
X934813Y90685D01*
X936099Y90152D01*
X937492D01*
X938778Y90685D01*
X939763Y91669D01*
X940296Y92956D01*
Y94348D01*
X939763Y95634D01*
X938778Y96619D01*
X937492Y97152D01*
D02*
G37*
G36*
X951524Y96567D02*
X950132D01*
X948846Y96034D01*
X947861Y95049D01*
X947328Y93763D01*
Y92371D01*
X947861Y91084D01*
X948846Y90100D01*
X950132Y89567D01*
X951524D01*
X952811Y90100D01*
X953795Y91084D01*
X954328Y92371D01*
Y93763D01*
X953795Y95049D01*
X952811Y96034D01*
X951524Y96567D01*
D02*
G37*
G36*
X275697Y91501D02*
X274304D01*
X273018Y90968D01*
X272033Y89983D01*
X271500Y88697D01*
X270500D01*
X269967Y89983D01*
X268983Y90968D01*
X267696Y91501D01*
X266304D01*
X265018Y90968D01*
X264033Y89983D01*
X263500Y88697D01*
Y87304D01*
X264033Y86018D01*
X265018Y85033D01*
X264402Y84322D01*
X264087Y84007D01*
X263554Y82720D01*
Y81328D01*
X264087Y80042D01*
X264415Y79714D01*
X263656Y78955D01*
X263123Y77668D01*
Y76276D01*
X263656Y74990D01*
X264127Y74518D01*
X264018Y73968D01*
X263033Y72983D01*
X262500Y71697D01*
Y70304D01*
X263033Y69018D01*
X264018Y68033D01*
X265304Y67501D01*
X266696D01*
X267983Y68033D01*
X268967Y69018D01*
X269500Y70304D01*
Y71697D01*
X268967Y72983D01*
X268496Y73455D01*
X268605Y74005D01*
X269590Y74990D01*
X270123Y76276D01*
Y77668D01*
X269590Y78955D01*
X269262Y79282D01*
X270021Y80042D01*
X270554Y81328D01*
X271554D01*
X272087Y80042D01*
X273071Y79057D01*
X274358Y78524D01*
X275750D01*
X277037Y79057D01*
X278021Y80042D01*
X278554Y81328D01*
Y82720D01*
X278021Y84007D01*
X277037Y84991D01*
X277652Y85703D01*
X277967Y86018D01*
X278500Y87304D01*
Y88697D01*
X277967Y89983D01*
X276983Y90968D01*
X275697Y91501D01*
D02*
G37*
G36*
X549703Y103235D02*
X548311D01*
X547024Y102702D01*
X546040Y101718D01*
X545507Y100431D01*
Y99039D01*
X546040Y97753D01*
X547024Y96768D01*
X548311Y96235D01*
X549703D01*
X550454Y95446D01*
X550342Y95176D01*
Y93784D01*
X550875Y92497D01*
X551859Y91513D01*
X553146Y90980D01*
X554538D01*
X554967Y90694D01*
Y90105D01*
X555499Y88819D01*
X556484Y87834D01*
X557770Y87301D01*
X559163D01*
X560449Y87834D01*
X561434Y88819D01*
X561967Y90105D01*
Y91497D01*
X561434Y92784D01*
X560449Y93768D01*
X559163Y94301D01*
X557770D01*
X557342Y94587D01*
Y95176D01*
X556809Y96462D01*
X555824Y97447D01*
X554538Y97980D01*
X553146D01*
X552395Y98769D01*
X552507Y99039D01*
Y100431D01*
X551974Y101718D01*
X550990Y102702D01*
X549703Y103235D01*
D02*
G37*
G36*
X599443Y93134D02*
X598051D01*
X596764Y92601D01*
X595780Y91617D01*
X595247Y90331D01*
Y88938D01*
X595780Y87652D01*
X596764Y86667D01*
X598051Y86134D01*
X599443D01*
X600729Y86667D01*
X601714Y87652D01*
X602247Y88938D01*
Y90331D01*
X601714Y91617D01*
X600729Y92601D01*
X599443Y93134D01*
D02*
G37*
G36*
X630402Y92182D02*
X629010D01*
X627723Y91649D01*
X626739Y90665D01*
X626206Y89378D01*
Y87986D01*
X626739Y86699D01*
X627723Y85715D01*
X629010Y85182D01*
X630402D01*
X631688Y85715D01*
X632673Y86699D01*
X633206Y87986D01*
Y89378D01*
X632673Y90665D01*
X631688Y91649D01*
X630402Y92182D01*
D02*
G37*
G36*
X578607Y89939D02*
X577215D01*
X575929Y89406D01*
X574944Y88422D01*
X574411Y87135D01*
Y85743D01*
X574944Y84457D01*
X575929Y83472D01*
X577215Y82939D01*
X578607D01*
X579894Y83472D01*
X580878Y84457D01*
X581411Y85743D01*
Y87135D01*
X580878Y88422D01*
X579894Y89406D01*
X578607Y89939D01*
D02*
G37*
G36*
X9192Y88672D02*
X7800D01*
X6513Y88139D01*
X5529Y87155D01*
X4996Y85868D01*
Y84476D01*
X5529Y83189D01*
X6513Y82205D01*
X7800Y81672D01*
X9192D01*
X10478Y82205D01*
X11463Y83189D01*
X11996Y84476D01*
Y85868D01*
X11463Y87155D01*
X10478Y88139D01*
X9192Y88672D01*
D02*
G37*
G36*
X42750Y83524D02*
X41358D01*
X40071Y82991D01*
X39087Y82007D01*
X38756Y81207D01*
X37656D01*
X37325Y82007D01*
X36340Y82991D01*
X35054Y83524D01*
X33662D01*
X32375Y82991D01*
X31391Y82007D01*
X30858Y80720D01*
Y79328D01*
X31391Y78042D01*
X32375Y77057D01*
X33662Y76524D01*
X35054D01*
X36340Y77057D01*
X37325Y78042D01*
X37656Y78841D01*
X38756D01*
X39087Y78042D01*
X40071Y77057D01*
X41358Y76524D01*
X42750D01*
X44037Y77057D01*
X45021Y78042D01*
X45554Y79328D01*
Y80720D01*
X45021Y82007D01*
X44037Y82991D01*
X42750Y83524D01*
D02*
G37*
G36*
X442275Y90133D02*
X440882D01*
X439596Y89600D01*
X438611Y88616D01*
X438078Y87329D01*
Y85937D01*
X438611Y84651D01*
X439596Y83666D01*
X440882Y83133D01*
X442275D01*
X442564Y83253D01*
X443409Y82689D01*
Y82292D01*
X443790Y81371D01*
X443036Y80583D01*
X442784Y80688D01*
X441392D01*
X440105Y80155D01*
X439121Y79170D01*
X438588Y77884D01*
Y76492D01*
X439121Y75205D01*
X440105Y74221D01*
X440641Y73999D01*
Y72899D01*
X440013Y72639D01*
X439029Y71655D01*
X438496Y70368D01*
Y68976D01*
X439029Y67689D01*
X440013Y66705D01*
X441300Y66172D01*
X442692D01*
X443978Y66705D01*
X444963Y67689D01*
X445496Y68976D01*
Y70368D01*
X444963Y71655D01*
X443978Y72639D01*
X443443Y72861D01*
Y73961D01*
X444071Y74221D01*
X445055Y75205D01*
X445480Y76230D01*
X446496Y76028D01*
Y75976D01*
X447029Y74689D01*
X447871Y73847D01*
X447969Y73323D01*
X447891Y72656D01*
X447077Y71842D01*
X446544Y70555D01*
Y69163D01*
X447077Y67876D01*
X448061Y66892D01*
X449348Y66359D01*
X450740D01*
X452027Y66892D01*
X453011Y67876D01*
X453544Y69163D01*
Y70555D01*
X453011Y71842D01*
X452169Y72684D01*
X452071Y73208D01*
X452149Y73875D01*
X452963Y74689D01*
X453496Y75976D01*
Y77368D01*
X452963Y78654D01*
X451978Y79639D01*
X450692Y80172D01*
X450479D01*
X450225Y80523D01*
X449951Y81188D01*
X450409Y82292D01*
Y83685D01*
X449876Y84971D01*
X448891Y85955D01*
X447605Y86488D01*
X446212D01*
X445923Y86369D01*
X445079Y86933D01*
Y87329D01*
X444546Y88616D01*
X443561Y89600D01*
X442275Y90133D01*
D02*
G37*
G36*
X307091Y86652D02*
X305699D01*
X304412Y86119D01*
X303428Y85134D01*
X302895Y83848D01*
Y82456D01*
X303428Y81169D01*
X304412Y80185D01*
X305699Y79652D01*
X307091D01*
X308377Y80185D01*
X308769Y80576D01*
X309781Y80766D01*
X310039Y80518D01*
X310774Y79783D01*
X312060Y79251D01*
X313452D01*
X314739Y79783D01*
X315723Y80768D01*
X316256Y82054D01*
Y83447D01*
X315723Y84733D01*
X314739Y85718D01*
X313452Y86251D01*
X312060D01*
X310774Y85718D01*
X310382Y85326D01*
X309370Y85136D01*
X309112Y85384D01*
X308377Y86119D01*
X307091Y86652D01*
D02*
G37*
G36*
X114036Y78524D02*
X112644D01*
X111357Y77991D01*
X110525Y77159D01*
X109692Y77991D01*
X108406Y78524D01*
X107013D01*
X105727Y77991D01*
X104894Y77159D01*
X104062Y77991D01*
X102775Y78524D01*
X101383D01*
X100097Y77991D01*
X99112Y77007D01*
X98579Y75720D01*
Y74328D01*
X99112Y73042D01*
X99717Y72436D01*
X99983Y71775D01*
X99717Y71114D01*
X99112Y70509D01*
X98579Y69222D01*
Y67830D01*
X99112Y66544D01*
X100097Y65559D01*
X101383Y65026D01*
X102775D01*
X104062Y65559D01*
X104864Y66362D01*
X105667Y65559D01*
X106953Y65026D01*
X108345D01*
X109632Y65559D01*
X110434Y66362D01*
X111237Y65559D01*
X112523Y65026D01*
X113915D01*
X115202Y65559D01*
X116186Y66544D01*
X116719Y67830D01*
Y69222D01*
X116186Y70509D01*
X115616Y71079D01*
X115383Y71856D01*
X115644Y72379D01*
X116307Y73042D01*
X116840Y74328D01*
Y75720D01*
X116307Y77007D01*
X115323Y77991D01*
X114036Y78524D01*
D02*
G37*
G36*
X585605Y83987D02*
X584213D01*
X582926Y83454D01*
X581942Y82470D01*
X581409Y81183D01*
Y79791D01*
X581942Y78504D01*
X582926Y77520D01*
X584213Y76987D01*
X585605D01*
X586891Y77520D01*
X587876Y78504D01*
X588409Y79791D01*
Y81183D01*
X587876Y82470D01*
X586891Y83454D01*
X585605Y83987D01*
D02*
G37*
G36*
X539696Y83500D02*
X538304D01*
X537018Y82968D01*
X536033Y81983D01*
X535500Y80697D01*
Y79304D01*
X536033Y78018D01*
X537018Y77033D01*
X538304Y76501D01*
X539696D01*
X540983Y77033D01*
X541967Y78018D01*
X542500Y79304D01*
Y80697D01*
X541967Y81983D01*
X540983Y82968D01*
X539696Y83500D01*
D02*
G37*
G36*
X93750Y120524D02*
X92358D01*
X91071Y119991D01*
X90087Y119006D01*
X89554Y117720D01*
Y116328D01*
X90087Y115041D01*
X90505Y114623D01*
Y81080D01*
X83020Y73595D01*
X82004Y74016D01*
Y74907D01*
X81471Y76193D01*
X80487Y77178D01*
X79200Y77711D01*
X77808D01*
X76522Y77178D01*
X75537Y76193D01*
X75004Y74907D01*
Y73515D01*
X75537Y72228D01*
X76522Y71244D01*
X77808Y70711D01*
X78699D01*
X79120Y69695D01*
X61570Y52145D01*
X60554Y52565D01*
Y52720D01*
X60021Y54007D01*
X59037Y54991D01*
X57750Y55524D01*
X56358D01*
X55071Y54991D01*
X54087Y54007D01*
X53554Y52720D01*
Y52687D01*
X53111Y52472D01*
X52538Y52375D01*
X51675Y53238D01*
X50389Y53771D01*
X48996D01*
X47710Y53238D01*
X46725Y52254D01*
X46192Y50967D01*
Y49575D01*
X46725Y48289D01*
X47710Y47304D01*
X48996Y46771D01*
X50389D01*
X51675Y47304D01*
X52660Y48289D01*
X53192Y49575D01*
Y49608D01*
X53636Y49823D01*
X54208Y49920D01*
X55071Y49057D01*
X55594Y48841D01*
X55638Y48761D01*
X55755Y47674D01*
X55087Y47007D01*
X54554Y45720D01*
Y44328D01*
X55087Y43041D01*
X56072Y42057D01*
X57358Y41524D01*
X58750D01*
X60037Y42057D01*
X61021Y43041D01*
X61554Y44328D01*
Y44919D01*
X94856Y78221D01*
X95409Y79048D01*
X95603Y80024D01*
Y114623D01*
X96021Y115041D01*
X96554Y116328D01*
Y117720D01*
X96021Y119006D01*
X95036Y119991D01*
X93750Y120524D01*
D02*
G37*
G36*
X531696Y78900D02*
X530304D01*
X529018Y78367D01*
X528033Y77383D01*
X527500Y76096D01*
Y74704D01*
X528033Y73418D01*
X529018Y72433D01*
X530304Y71900D01*
X531696D01*
X532983Y72433D01*
X533967Y73418D01*
X534500Y74704D01*
Y76096D01*
X533967Y77383D01*
X532983Y78367D01*
X531696Y78900D01*
D02*
G37*
G36*
X70375Y77241D02*
X68982D01*
X67696Y76708D01*
X66711Y75724D01*
X66178Y74437D01*
Y73045D01*
X66711Y71759D01*
X67696Y70774D01*
X68982Y70241D01*
X70375D01*
X71661Y70774D01*
X72646Y71759D01*
X73179Y73045D01*
Y74437D01*
X72646Y75724D01*
X71661Y76708D01*
X70375Y77241D01*
D02*
G37*
G36*
X496402Y76716D02*
X495009D01*
X493723Y76183D01*
X492738Y75199D01*
X492205Y73913D01*
Y72520D01*
X492738Y71234D01*
X493723Y70249D01*
X495009Y69716D01*
X496402D01*
X497688Y70249D01*
X498673Y71234D01*
X499205Y72520D01*
Y73913D01*
X498673Y75199D01*
X497688Y76183D01*
X496402Y76716D01*
D02*
G37*
G36*
X823987Y74754D02*
X822594D01*
X821308Y74221D01*
X820323Y73237D01*
X819790Y71950D01*
Y70558D01*
X820323Y69271D01*
X821308Y68287D01*
X822594Y67754D01*
X823987D01*
X825273Y68287D01*
X826258Y69271D01*
X826790Y70558D01*
Y71950D01*
X826258Y73237D01*
X825273Y74221D01*
X823987Y74754D01*
D02*
G37*
G36*
X421711Y74721D02*
X420319D01*
X419033Y74188D01*
X418048Y73204D01*
X417515Y71917D01*
Y70525D01*
X418048Y69239D01*
X419033Y68254D01*
X420319Y67721D01*
X421711D01*
X422998Y68254D01*
X423982Y69239D01*
X424515Y70525D01*
Y71917D01*
X423982Y73204D01*
X422998Y74188D01*
X421711Y74721D01*
D02*
G37*
G36*
X713910Y74297D02*
X712517D01*
X711231Y73764D01*
X710246Y72779D01*
X709714Y71493D01*
Y70101D01*
X710246Y68814D01*
X711231Y67830D01*
X712517Y67297D01*
X713910D01*
X715196Y67830D01*
X716181Y68814D01*
X716713Y70101D01*
Y71493D01*
X716181Y72779D01*
X715196Y73764D01*
X713910Y74297D01*
D02*
G37*
G36*
X9192Y73672D02*
X7800D01*
X6513Y73139D01*
X5529Y72154D01*
X4996Y70868D01*
Y69476D01*
X5529Y68189D01*
X6513Y67205D01*
X7800Y66672D01*
X9192D01*
X10478Y67205D01*
X11463Y68189D01*
X11996Y69476D01*
Y70868D01*
X11463Y72154D01*
X10478Y73139D01*
X9192Y73672D01*
D02*
G37*
G36*
X643402Y68182D02*
X642010D01*
X640723Y67649D01*
X639739Y66665D01*
X639714Y66605D01*
X638698D01*
X638673Y66665D01*
X637688Y67649D01*
X636402Y68182D01*
X635010D01*
X633723Y67649D01*
X632739Y66665D01*
X632206Y65378D01*
X631206D01*
X630673Y66665D01*
X629688Y67649D01*
X628402Y68182D01*
X627010D01*
X625723Y67649D01*
X624739Y66665D01*
X624206Y65378D01*
Y63986D01*
X624739Y62699D01*
X625723Y61715D01*
X627010Y61182D01*
X628402D01*
X629688Y61715D01*
X630673Y62699D01*
X631206Y63986D01*
X632206D01*
X632739Y62699D01*
X633723Y61715D01*
X635010Y61182D01*
X636402D01*
X637688Y61715D01*
X638673Y62699D01*
X638698Y62759D01*
X639714D01*
X639739Y62699D01*
X640723Y61715D01*
X642010Y61182D01*
X643402D01*
X644688Y61715D01*
X645673Y62699D01*
X646206Y63986D01*
Y65378D01*
X645673Y66665D01*
X644688Y67649D01*
X643402Y68182D01*
D02*
G37*
G36*
X426402Y102182D02*
X425010D01*
X423723Y101649D01*
X422739Y100665D01*
X422206Y99378D01*
Y98787D01*
X388969Y65550D01*
X385826D01*
X385194Y66566D01*
X385500Y67304D01*
Y68697D01*
X384967Y69983D01*
X383983Y70968D01*
Y72033D01*
X384967Y73018D01*
X385500Y74304D01*
Y75697D01*
X384967Y76983D01*
X383983Y77968D01*
X383923Y77993D01*
Y79009D01*
X383983Y79033D01*
X384967Y80018D01*
X385500Y81304D01*
Y82697D01*
X384967Y83983D01*
X383983Y84968D01*
X382696Y85500D01*
X381304D01*
X380018Y84968D01*
X379033Y83983D01*
X378500Y82697D01*
X377500D01*
X376967Y83983D01*
X375983Y84968D01*
X374696Y85500D01*
X373304D01*
X372018Y84968D01*
X371033Y83983D01*
X370500Y82697D01*
Y81304D01*
X371033Y80018D01*
X372018Y79033D01*
X372078Y79009D01*
Y77993D01*
X372018Y77968D01*
X371033Y76983D01*
X370500Y75697D01*
Y74304D01*
X371033Y73018D01*
X372018Y72033D01*
Y70968D01*
X371033Y69983D01*
X370500Y68697D01*
Y67304D01*
X371033Y66018D01*
X372018Y65033D01*
X373304Y64501D01*
X374696D01*
X375983Y65033D01*
X376967Y66018D01*
X377500Y67304D01*
X378500D01*
X379033Y66018D01*
X379434Y65617D01*
X379353Y64803D01*
X357903Y43353D01*
X357351Y42526D01*
X357157Y41550D01*
Y27794D01*
X357329Y26926D01*
Y25568D01*
X357862Y24281D01*
X358847Y23297D01*
X359310Y23105D01*
X359390Y22703D01*
X358857Y21417D01*
Y20025D01*
X359390Y18738D01*
X360375Y17754D01*
X361661Y17221D01*
X363053D01*
X364340Y17754D01*
X365324Y18738D01*
X365857Y20025D01*
Y21417D01*
X365324Y22703D01*
X364340Y23688D01*
X363876Y23880D01*
X363797Y24281D01*
X364329Y25568D01*
Y26960D01*
X363797Y28247D01*
X362812Y29231D01*
X362255Y29462D01*
Y40495D01*
X367318Y45558D01*
X368179Y44982D01*
X367750Y43947D01*
Y42554D01*
X368283Y41268D01*
X369268Y40283D01*
X370554Y39751D01*
X371946D01*
X373233Y40283D01*
X374217Y41268D01*
X374750Y42554D01*
Y43947D01*
X374621Y44258D01*
X374697Y45274D01*
X375140Y45458D01*
X375983Y45807D01*
X376967Y46791D01*
X377500Y48078D01*
Y49470D01*
X376967Y50757D01*
X375983Y51741D01*
X375244Y52047D01*
X374973Y53213D01*
X382212Y60452D01*
X390024D01*
X391000Y60646D01*
X391827Y61198D01*
X425811Y95182D01*
X426402D01*
X427688Y95715D01*
X428673Y96699D01*
X429206Y97986D01*
Y99378D01*
X428673Y100665D01*
X427688Y101649D01*
X426402Y102182D01*
D02*
G37*
G36*
X28750Y72524D02*
X27358D01*
X26071Y71991D01*
X25087Y71007D01*
X24554Y69720D01*
Y68328D01*
X25087Y67042D01*
X26071Y66057D01*
X27358Y65524D01*
X28750D01*
X30037Y66057D01*
X31021Y67042D01*
X31554Y68328D01*
Y69720D01*
X31021Y71007D01*
X30037Y71991D01*
X28750Y72524D01*
D02*
G37*
G36*
X513281Y72312D02*
X511889D01*
X510602Y71779D01*
X509618Y70795D01*
X509085Y69508D01*
Y68116D01*
X509618Y66829D01*
X510602Y65845D01*
X511889Y65312D01*
X513281D01*
X514568Y65845D01*
X515552Y66829D01*
X516085Y68116D01*
Y69508D01*
X515552Y70795D01*
X514568Y71779D01*
X513281Y72312D01*
D02*
G37*
G36*
X342696Y82500D02*
X341304D01*
X340018Y81968D01*
X339033Y80983D01*
X338500Y79697D01*
Y78304D01*
X339033Y77018D01*
X340018Y76033D01*
X340078Y76009D01*
Y74993D01*
X340018Y74968D01*
X339033Y73983D01*
X338500Y72697D01*
Y71304D01*
X339033Y70018D01*
X339473Y69578D01*
X339497Y68493D01*
X339366Y68357D01*
X338512Y67504D01*
X337980Y66217D01*
Y64825D01*
X338512Y63538D01*
X339497Y62554D01*
X340784Y62021D01*
X342176D01*
X343462Y62554D01*
X344447Y63538D01*
X344980Y64825D01*
Y66217D01*
X344447Y67504D01*
X344007Y67944D01*
X343983Y69029D01*
X344114Y69164D01*
X344967Y70018D01*
X345500Y71304D01*
Y72697D01*
X344967Y73983D01*
X343983Y74968D01*
X343923Y74993D01*
Y76009D01*
X343983Y76033D01*
X344967Y77018D01*
X345500Y78304D01*
Y79697D01*
X344967Y80983D01*
X343983Y81968D01*
X342696Y82500D01*
D02*
G37*
G36*
X492900Y68001D02*
X491507D01*
X490221Y67468D01*
X489236Y66483D01*
X488703Y65197D01*
Y63804D01*
X489236Y62518D01*
X490221Y61534D01*
X491507Y61001D01*
X492900D01*
X494186Y61534D01*
X495171Y62518D01*
X495704Y63804D01*
Y65197D01*
X495171Y66483D01*
X494186Y67468D01*
X492900Y68001D01*
D02*
G37*
G36*
X706352Y67942D02*
X704959D01*
X703673Y67409D01*
X702689Y66424D01*
X702156Y65138D01*
Y63746D01*
X702689Y62459D01*
X703673Y61475D01*
X704959Y60942D01*
X706352D01*
X707638Y61475D01*
X708623Y62459D01*
X709156Y63746D01*
Y65138D01*
X708623Y66424D01*
X707638Y67409D01*
X706352Y67942D01*
D02*
G37*
G36*
X657795Y67863D02*
X656403D01*
X655116Y67330D01*
X654132Y66345D01*
X653599Y65059D01*
Y63666D01*
X654132Y62380D01*
X655116Y61396D01*
X656403Y60863D01*
X657795D01*
X659082Y61396D01*
X660066Y62380D01*
X660599Y63666D01*
Y65059D01*
X660066Y66345D01*
X659082Y67330D01*
X657795Y67863D01*
D02*
G37*
G36*
X914501Y66209D02*
X913109D01*
X911822Y65676D01*
X910838Y64692D01*
X910305Y63405D01*
Y62013D01*
X910838Y60726D01*
X911822Y59742D01*
X913109Y59209D01*
X914501D01*
X915788Y59742D01*
X916772Y60726D01*
X917305Y62013D01*
Y63405D01*
X916772Y64692D01*
X915788Y65676D01*
X914501Y66209D01*
D02*
G37*
G36*
X897743Y65701D02*
X896351D01*
X895064Y65168D01*
X894080Y64184D01*
X893547Y62897D01*
Y61505D01*
X894080Y60218D01*
X895064Y59234D01*
X896351Y58701D01*
X897743D01*
X899030Y59234D01*
X900014Y60218D01*
X900547Y61505D01*
Y62897D01*
X900014Y64184D01*
X899030Y65168D01*
X897743Y65701D01*
D02*
G37*
G36*
X615402Y64182D02*
X614010D01*
X612723Y63649D01*
X611739Y62664D01*
X611206Y61378D01*
Y59986D01*
X611739Y58699D01*
X612723Y57715D01*
X614010Y57182D01*
X615402D01*
X616688Y57715D01*
X617673Y58699D01*
X618206Y59986D01*
Y61378D01*
X617673Y62664D01*
X616688Y63649D01*
X615402Y64182D01*
D02*
G37*
G36*
X547704Y63925D02*
X546312D01*
X545025Y63392D01*
X544041Y62408D01*
X543508Y61121D01*
Y59729D01*
X544041Y58443D01*
X545025Y57458D01*
X546312Y56925D01*
X547704D01*
X548991Y57458D01*
X549975Y58443D01*
X550508Y59729D01*
Y61121D01*
X549975Y62408D01*
X548991Y63392D01*
X547704Y63925D01*
D02*
G37*
G36*
X884050Y63701D02*
X882657D01*
X881371Y63168D01*
X880386Y62184D01*
X879854Y60897D01*
Y59505D01*
X880386Y58218D01*
X881371Y57234D01*
X882657Y56701D01*
X884050D01*
X885336Y57234D01*
X886321Y58218D01*
X886853Y59505D01*
Y60897D01*
X886321Y62184D01*
X885336Y63168D01*
X884050Y63701D01*
D02*
G37*
G36*
X239750Y63524D02*
X238358D01*
X237071Y62991D01*
X236087Y62007D01*
X235554Y60720D01*
Y59328D01*
X236087Y58042D01*
X237071Y57057D01*
X238358Y56524D01*
X239750D01*
X241037Y57057D01*
X242021Y58042D01*
X242554Y59328D01*
Y60720D01*
X242021Y62007D01*
X241037Y62991D01*
X239750Y63524D01*
D02*
G37*
G36*
X511282Y58242D02*
X509890D01*
X508604Y57709D01*
X507619Y56725D01*
X506343Y56301D01*
X505794Y56528D01*
X504401D01*
X503115Y55995D01*
X502130Y55011D01*
X501598Y53724D01*
Y52332D01*
X502130Y51046D01*
X503115Y50061D01*
X504401Y49528D01*
X505794D01*
X507080Y50061D01*
X508065Y51046D01*
X509340Y51470D01*
X509890Y51242D01*
X511282D01*
X512569Y51775D01*
X513377Y51146D01*
X514174Y50349D01*
X515460Y49816D01*
X516853D01*
X517812Y49113D01*
Y48370D01*
X518344Y47083D01*
X519329Y46099D01*
X520615Y45566D01*
X522008D01*
X523294Y46099D01*
X524279Y47083D01*
X524811Y48370D01*
Y49762D01*
X524279Y51048D01*
X523294Y52033D01*
X522008Y52566D01*
X520615D01*
X519656Y53268D01*
Y54012D01*
X519124Y55298D01*
X518139Y56283D01*
X516853Y56816D01*
X515460D01*
X514174Y56283D01*
X513366Y56912D01*
X512569Y57709D01*
X511282Y58242D01*
D02*
G37*
G36*
X169152Y62682D02*
X167760D01*
X166473Y62149D01*
X165489Y61164D01*
X164956Y59878D01*
Y58486D01*
X165489Y57199D01*
X166473Y56215D01*
X167760Y55682D01*
X169152D01*
X170438Y56215D01*
X171423Y57199D01*
X171956Y58486D01*
Y59878D01*
X171423Y61164D01*
X170438Y62149D01*
X169152Y62682D01*
D02*
G37*
G36*
X265071Y62083D02*
X263678D01*
X262392Y61550D01*
X261407Y60565D01*
X260875Y59279D01*
Y57886D01*
X261407Y56600D01*
X262392Y55615D01*
X263678Y55083D01*
X265071D01*
X266357Y55615D01*
X267342Y56600D01*
X267875Y57886D01*
Y59279D01*
X267342Y60565D01*
X266357Y61550D01*
X265071Y62083D01*
D02*
G37*
G36*
X861694Y67222D02*
X860302D01*
X859015Y66690D01*
X858031Y65705D01*
X857498Y64419D01*
Y63026D01*
X858031Y61740D01*
X858971Y60800D01*
X858031Y59860D01*
X857498Y58574D01*
Y57182D01*
X858031Y55895D01*
X859015Y54911D01*
X860302Y54378D01*
X861694D01*
X862981Y54911D01*
X863965Y55895D01*
X864498Y57182D01*
Y58574D01*
X863965Y59860D01*
X863025Y60800D01*
X863965Y61740D01*
X864498Y63026D01*
Y64419D01*
X863965Y65705D01*
X862981Y66690D01*
X861694Y67222D01*
D02*
G37*
G36*
X711692Y61172D02*
X710300D01*
X709013Y60639D01*
X708029Y59654D01*
X707496Y58368D01*
Y56976D01*
X708029Y55689D01*
X709013Y54705D01*
X710300Y54172D01*
X711692D01*
X712978Y54705D01*
X713963Y55689D01*
X714496Y56976D01*
Y58368D01*
X713963Y59654D01*
X712978Y60639D01*
X711692Y61172D01*
D02*
G37*
G36*
X284490Y66274D02*
X283098D01*
X281811Y65742D01*
X280827Y64757D01*
X280294Y63471D01*
Y62078D01*
X280583Y61379D01*
X280347Y60181D01*
X279362Y59197D01*
X278829Y57910D01*
Y56518D01*
X279362Y55231D01*
X280347Y54247D01*
X281633Y53714D01*
X283026D01*
X284312Y54247D01*
X285297Y55231D01*
X285829Y56518D01*
Y57910D01*
X285540Y58610D01*
X285776Y59807D01*
X286761Y60792D01*
X287294Y62078D01*
Y63471D01*
X286761Y64757D01*
X285776Y65742D01*
X284490Y66274D01*
D02*
G37*
G36*
X45750Y60524D02*
X44358D01*
X43071Y59991D01*
X42087Y59007D01*
X41554Y57720D01*
Y56328D01*
X42087Y55041D01*
X43071Y54057D01*
X44358Y53524D01*
X45750D01*
X47037Y54057D01*
X48021Y55041D01*
X48554Y56328D01*
Y57720D01*
X48021Y59007D01*
X47037Y59991D01*
X45750Y60524D01*
D02*
G37*
G36*
X324697Y60500D02*
X323304D01*
X322018Y59968D01*
X321033Y58983D01*
X320500Y57697D01*
Y56304D01*
X321033Y55018D01*
X322018Y54033D01*
X323304Y53501D01*
X324697D01*
X325983Y54033D01*
X326967Y55018D01*
X327500Y56304D01*
Y57697D01*
X326967Y58983D01*
X325983Y59968D01*
X324697Y60500D01*
D02*
G37*
G36*
X305936Y71652D02*
X304543D01*
X303257Y71119D01*
X302272Y70135D01*
X301740Y68848D01*
Y67456D01*
X302272Y66170D01*
X302996Y65446D01*
X302033Y64483D01*
X301500Y63197D01*
Y61804D01*
X302033Y60518D01*
X303018Y59533D01*
X304304Y59001D01*
X305696D01*
X306983Y59533D01*
X307351Y59902D01*
X308225Y59830D01*
X308187Y59248D01*
X307202Y58263D01*
X306670Y56977D01*
Y55585D01*
X307202Y54298D01*
X308187Y53314D01*
X309473Y52781D01*
X310866D01*
X312152Y53314D01*
X313137Y54298D01*
X313669Y55585D01*
Y56977D01*
X313137Y58263D01*
X313502Y59334D01*
X313983Y59533D01*
X314967Y60518D01*
X315500Y61804D01*
Y63197D01*
X314967Y64483D01*
X314200Y65251D01*
X314967Y66018D01*
X315500Y67304D01*
Y68697D01*
X314967Y69983D01*
X313983Y70968D01*
X312696Y71501D01*
X311304D01*
X310018Y70968D01*
X309271Y70221D01*
X308471Y70156D01*
X308058Y70283D01*
X307222Y71119D01*
X305936Y71652D01*
D02*
G37*
G36*
X585402Y64182D02*
X584010D01*
X582723Y63649D01*
X581739Y62664D01*
X581206Y61378D01*
Y59986D01*
X581739Y58699D01*
X582723Y57715D01*
X584010Y57182D01*
Y56182D01*
X582723Y55649D01*
X581739Y54665D01*
X581206Y53378D01*
Y52568D01*
X580190Y52148D01*
X579688Y52649D01*
X578402Y53182D01*
X577010D01*
X575723Y52649D01*
X575369Y52295D01*
X574706Y51694D01*
X574042Y52295D01*
X573688Y52649D01*
X572402Y53182D01*
X571010D01*
X569723Y52649D01*
X569370Y52295D01*
X568706Y51694D01*
X568042Y52295D01*
X567688Y52649D01*
X566402Y53182D01*
X565010D01*
X563723Y52649D01*
X563369Y52295D01*
X562706Y51694D01*
X562042Y52295D01*
X561688Y52649D01*
X560402Y53182D01*
X559010D01*
X557723Y52649D01*
X557369Y52295D01*
X556706Y51694D01*
X556042Y52295D01*
X555688Y52649D01*
X554402Y53182D01*
X553010D01*
X551723Y52649D01*
X550739Y51665D01*
X550206Y50378D01*
Y48986D01*
X550739Y47699D01*
X551723Y46715D01*
X553010Y46182D01*
X554402D01*
X555688Y46715D01*
X556042Y47069D01*
X556706Y47670D01*
X557369Y47069D01*
X557723Y46715D01*
X559010Y46182D01*
X560402D01*
X561688Y46715D01*
X562042Y47068D01*
X562706Y47670D01*
X563369Y47068D01*
X563723Y46715D01*
X565010Y46182D01*
X566402D01*
X567688Y46715D01*
X568042Y47069D01*
X568706Y47670D01*
X569370Y47069D01*
X569723Y46715D01*
X571010Y46182D01*
X572402D01*
X573688Y46715D01*
X574042Y47068D01*
X574706Y47670D01*
X575369Y47068D01*
X575723Y46715D01*
X577010Y46182D01*
X578402D01*
X579688Y46715D01*
X580673Y47699D01*
X581206Y48986D01*
Y49795D01*
X582222Y50216D01*
X582723Y49715D01*
X584010Y49182D01*
X585402D01*
X586688Y49715D01*
X587673Y50699D01*
X588206Y51986D01*
Y53378D01*
X587673Y54665D01*
X586688Y55649D01*
X585402Y56182D01*
Y57182D01*
X586688Y57715D01*
X587673Y58699D01*
X588206Y59986D01*
Y61378D01*
X587673Y62664D01*
X586688Y63649D01*
X585402Y64182D01*
D02*
G37*
G36*
X9192Y58672D02*
X7800D01*
X6513Y58139D01*
X5529Y57154D01*
X4996Y55868D01*
Y54476D01*
X5529Y53189D01*
X6513Y52205D01*
X7800Y51672D01*
X9192D01*
X10478Y52205D01*
X11463Y53189D01*
X11996Y54476D01*
Y55868D01*
X11463Y57154D01*
X10478Y58139D01*
X9192Y58672D01*
D02*
G37*
G36*
X109022Y56896D02*
X107629D01*
X106343Y56363D01*
X105358Y55378D01*
X104825Y54092D01*
Y52699D01*
X105358Y51413D01*
X106343Y50429D01*
X107629Y49896D01*
X109022D01*
X110308Y50429D01*
X111293Y51413D01*
X111825Y52699D01*
Y54092D01*
X111293Y55378D01*
X110308Y56363D01*
X109022Y56896D01*
D02*
G37*
G36*
X345750Y56524D02*
X344358D01*
X343071Y55991D01*
X342087Y55007D01*
X341554Y53720D01*
Y52328D01*
X342087Y51041D01*
X343071Y50057D01*
X344358Y49524D01*
X345750D01*
X347036Y50057D01*
X348021Y51041D01*
X348554Y52328D01*
Y53720D01*
X348021Y55007D01*
X347036Y55991D01*
X345750Y56524D01*
D02*
G37*
G36*
X415696Y55570D02*
X414304D01*
X413018Y55037D01*
X412033Y54053D01*
X411500Y52766D01*
Y51374D01*
X412033Y50087D01*
X413018Y49103D01*
X414304Y48570D01*
X415696D01*
X416983Y49103D01*
X417967Y50087D01*
X418500Y51374D01*
Y52766D01*
X417967Y54053D01*
X416983Y55037D01*
X415696Y55570D01*
D02*
G37*
G36*
X721402Y61182D02*
X720010D01*
X718723Y60649D01*
X717739Y59665D01*
X717206Y58378D01*
Y56986D01*
X717739Y55699D01*
X718723Y54715D01*
X720010Y54182D01*
X721015D01*
X721312Y53812D01*
X721593Y53254D01*
X721596Y53243D01*
X721121Y52098D01*
Y50705D01*
X721654Y49419D01*
X722639Y48435D01*
X723925Y47902D01*
X725318D01*
X726604Y48435D01*
X727589Y49419D01*
X728121Y50705D01*
Y52098D01*
X727589Y53384D01*
X726604Y54369D01*
X725318Y54902D01*
X724312D01*
X724016Y55272D01*
X723734Y55829D01*
X723731Y55840D01*
X724206Y56986D01*
Y58378D01*
X723673Y59665D01*
X722688Y60649D01*
X721402Y61182D01*
D02*
G37*
G36*
X702675Y54786D02*
X701283D01*
X699997Y54253D01*
X699012Y53269D01*
X698479Y51982D01*
Y50590D01*
X699012Y49303D01*
X699997Y48319D01*
X701283Y47786D01*
X702675D01*
X703962Y48319D01*
X704946Y49303D01*
X705479Y50590D01*
Y51982D01*
X704946Y53269D01*
X703962Y54253D01*
X702675Y54786D01*
D02*
G37*
G36*
X393196Y54501D02*
X391804D01*
X390518Y53968D01*
X389533Y52983D01*
X389000Y51697D01*
Y50304D01*
X389533Y49018D01*
X390518Y48033D01*
X391804Y47501D01*
X393196D01*
X394483Y48033D01*
X395467Y49018D01*
X396000Y50304D01*
Y51697D01*
X395467Y52983D01*
X394483Y53968D01*
X393196Y54501D01*
D02*
G37*
G36*
X616308Y54129D02*
X614916D01*
X613629Y53597D01*
X612645Y52612D01*
X612112Y51326D01*
Y49933D01*
X612645Y48647D01*
X613629Y47662D01*
X614916Y47129D01*
X616308D01*
X617595Y47662D01*
X618579Y48647D01*
X619112Y49933D01*
Y51326D01*
X618579Y52612D01*
X617595Y53597D01*
X616308Y54129D01*
D02*
G37*
G36*
X219507Y53931D02*
X218115D01*
X216828Y53398D01*
X215844Y52414D01*
X215311Y51127D01*
Y49735D01*
X215844Y48448D01*
X216828Y47464D01*
X218115Y46931D01*
X219507D01*
X220793Y47464D01*
X221778Y48448D01*
X222311Y49735D01*
Y51127D01*
X221778Y52414D01*
X220793Y53398D01*
X219507Y53931D01*
D02*
G37*
G36*
X716702Y53506D02*
X715309D01*
X714023Y52973D01*
X713038Y51988D01*
X712505Y50702D01*
Y49310D01*
X713038Y48023D01*
X714023Y47039D01*
X715309Y46506D01*
X716702D01*
X717988Y47039D01*
X718973Y48023D01*
X719505Y49310D01*
Y50702D01*
X718973Y51988D01*
X717988Y52973D01*
X716702Y53506D01*
D02*
G37*
G36*
X269672Y53374D02*
X268280D01*
X266993Y52841D01*
X266009Y51856D01*
X265476Y50570D01*
Y49178D01*
X266009Y47891D01*
X266993Y46907D01*
X268280Y46374D01*
X269672D01*
X270958Y46907D01*
X271943Y47891D01*
X272476Y49178D01*
Y50570D01*
X271943Y51856D01*
X270958Y52841D01*
X269672Y53374D01*
D02*
G37*
G36*
X539402Y53182D02*
X538010D01*
X536723Y52649D01*
X535739Y51665D01*
X535206Y50378D01*
Y48986D01*
X535739Y47699D01*
X536723Y46715D01*
X538010Y46182D01*
X539402D01*
X540688Y46715D01*
X541673Y47699D01*
X542206Y48986D01*
Y50378D01*
X541673Y51665D01*
X540688Y52649D01*
X539402Y53182D01*
D02*
G37*
G36*
X159856Y53153D02*
X158463D01*
X157177Y52620D01*
X156192Y51636D01*
X155659Y50349D01*
Y48957D01*
X156192Y47670D01*
X157177Y46686D01*
X158463Y46153D01*
X159856D01*
X161142Y46686D01*
X162127Y47670D01*
X162659Y48957D01*
Y50349D01*
X162127Y51636D01*
X161142Y52620D01*
X159856Y53153D01*
D02*
G37*
G36*
X189189Y52607D02*
X187797D01*
X186511Y52074D01*
X185526Y51090D01*
X184993Y49803D01*
Y48411D01*
X185526Y47125D01*
X186511Y46140D01*
X187797Y45607D01*
X189189D01*
X190476Y46140D01*
X191460Y47125D01*
X191993Y48411D01*
Y49803D01*
X191460Y51090D01*
X190476Y52074D01*
X189189Y52607D01*
D02*
G37*
G36*
X843862Y52336D02*
X842470D01*
X841184Y51803D01*
X840199Y50819D01*
X839666Y49532D01*
Y48140D01*
X840199Y46853D01*
X841184Y45869D01*
X842470Y45336D01*
X843862D01*
X845149Y45869D01*
X846133Y46853D01*
X846666Y48140D01*
Y49532D01*
X846133Y50819D01*
X845149Y51803D01*
X843862Y52336D01*
D02*
G37*
G36*
X18781Y52217D02*
X17389D01*
X16103Y51685D01*
X15118Y50700D01*
X14585Y49414D01*
Y48021D01*
X15118Y46735D01*
X16103Y45750D01*
X17389Y45218D01*
X18781D01*
X20068Y45750D01*
X21052Y46735D01*
X21585Y48021D01*
Y49414D01*
X21052Y50700D01*
X20068Y51685D01*
X18781Y52217D01*
D02*
G37*
G36*
X208185Y51372D02*
X206793D01*
X205506Y50839D01*
X204522Y49854D01*
X203989Y48568D01*
Y47176D01*
X204522Y45889D01*
X205506Y44905D01*
X206793Y44372D01*
X208185D01*
X209472Y44905D01*
X210456Y45889D01*
X210989Y47176D01*
Y48568D01*
X210456Y49854D01*
X209472Y50839D01*
X208185Y51372D01*
D02*
G37*
G36*
X647402Y59182D02*
X646010D01*
X644723Y58649D01*
X643739Y57664D01*
X643206Y56378D01*
Y54986D01*
X643739Y53699D01*
X644723Y52715D01*
X646010Y52182D01*
Y51182D01*
X644723Y50649D01*
X643739Y49665D01*
X643206Y48378D01*
Y46986D01*
X643739Y45699D01*
X644723Y44715D01*
X646010Y44182D01*
X647402D01*
X648688Y44715D01*
X649673Y45699D01*
X650206Y46986D01*
Y48378D01*
X649673Y49665D01*
X648688Y50649D01*
X647402Y51182D01*
Y52182D01*
X648688Y52715D01*
X649673Y53699D01*
X650206Y54986D01*
Y56378D01*
X649673Y57664D01*
X648688Y58649D01*
X647402Y59182D01*
D02*
G37*
G36*
X456977Y44821D02*
X455584D01*
X454298Y44288D01*
X453313Y43304D01*
X452902Y43222D01*
X452222Y43902D01*
X450936Y44435D01*
X449543D01*
X448257Y43902D01*
X447272Y42917D01*
X446739Y41631D01*
Y40238D01*
X447272Y38952D01*
X448257Y37968D01*
X449543Y37435D01*
X450936D01*
X452222Y37968D01*
X453206Y38952D01*
X453618Y39034D01*
X454298Y38354D01*
X455584Y37821D01*
X456977D01*
X458263Y38354D01*
X459248Y39339D01*
X459780Y40625D01*
Y42017D01*
X459248Y43304D01*
X458263Y44288D01*
X456977Y44821D01*
D02*
G37*
G36*
X130640Y47891D02*
X129247D01*
X127961Y47358D01*
X126976Y46374D01*
X126443Y45087D01*
Y43695D01*
X126976Y42408D01*
X127961Y41424D01*
X129247Y40891D01*
X130640D01*
X131926Y41424D01*
X132911Y42408D01*
X133443Y43695D01*
Y45087D01*
X132911Y46374D01*
X131926Y47358D01*
X130640Y47891D01*
D02*
G37*
G36*
X104750Y46524D02*
X103358D01*
X102071Y45991D01*
X101087Y45007D01*
X100554Y43720D01*
Y42328D01*
X101087Y41041D01*
X102071Y40057D01*
X103358Y39524D01*
X104750D01*
X106037Y40057D01*
X107021Y41041D01*
X107554Y42328D01*
Y43720D01*
X107021Y45007D01*
X106037Y45991D01*
X104750Y46524D01*
D02*
G37*
G36*
X701935Y46480D02*
X700542D01*
X699256Y45947D01*
X698271Y44963D01*
X697738Y43677D01*
Y42284D01*
X698271Y40998D01*
X699256Y40013D01*
X700542Y39480D01*
X701935D01*
X703221Y40013D01*
X704206Y40998D01*
X704738Y42284D01*
Y43677D01*
X704206Y44963D01*
X703221Y45947D01*
X701935Y46480D01*
D02*
G37*
G36*
X474552Y46251D02*
X473159D01*
X471873Y45718D01*
X470888Y44733D01*
X470356Y43447D01*
Y42054D01*
X470888Y40768D01*
X471873Y39783D01*
X473159Y39251D01*
X474552D01*
X475838Y39783D01*
X476823Y40768D01*
X477356Y42054D01*
Y43447D01*
X476823Y44733D01*
X475838Y45718D01*
X474552Y46251D01*
D02*
G37*
G36*
X340009Y45026D02*
X338617D01*
X337330Y44493D01*
X336346Y43509D01*
X335813Y42222D01*
Y40830D01*
X336346Y39543D01*
X337330Y38559D01*
X338617Y38026D01*
X340009D01*
X341296Y38559D01*
X342280Y39543D01*
X342813Y40830D01*
Y42222D01*
X342280Y43509D01*
X341296Y44493D01*
X340009Y45026D01*
D02*
G37*
G36*
X439341Y44524D02*
X437949D01*
X436662Y43992D01*
X435678Y43007D01*
X435145Y41721D01*
Y40328D01*
X435678Y39042D01*
X436662Y38057D01*
X437949Y37524D01*
X439341D01*
X440628Y38057D01*
X441612Y39042D01*
X442145Y40328D01*
Y41721D01*
X441612Y43007D01*
X440628Y43992D01*
X439341Y44524D01*
D02*
G37*
G36*
X9192Y43672D02*
X7800D01*
X6513Y43139D01*
X5529Y42154D01*
X4996Y40868D01*
Y39476D01*
X5529Y38189D01*
X6513Y37205D01*
X7800Y36672D01*
X9192D01*
X10478Y37205D01*
X11463Y38189D01*
X11996Y39476D01*
Y40868D01*
X11463Y42154D01*
X10478Y43139D01*
X9192Y43672D01*
D02*
G37*
G36*
X196476Y43641D02*
X195083D01*
X193797Y43108D01*
X192812Y42123D01*
X192279Y40837D01*
Y39445D01*
X192812Y38158D01*
X193797Y37174D01*
X195083Y36641D01*
X196476D01*
X197762Y37174D01*
X198746Y38158D01*
X199279Y39445D01*
Y40837D01*
X198746Y42123D01*
X197762Y43108D01*
X196476Y43641D01*
D02*
G37*
G36*
X348750Y43524D02*
X347358D01*
X346072Y42991D01*
X345087Y42007D01*
X344554Y40720D01*
Y39328D01*
X345087Y38042D01*
X346072Y37057D01*
X347358Y36524D01*
X348750D01*
X350037Y37057D01*
X351021Y38042D01*
X351554Y39328D01*
Y40720D01*
X351021Y42007D01*
X350037Y42991D01*
X348750Y43524D01*
D02*
G37*
G36*
X389978Y43219D02*
X388586D01*
X387300Y42686D01*
X386315Y41702D01*
X385782Y40415D01*
Y39023D01*
X386315Y37736D01*
X387300Y36752D01*
X388586Y36219D01*
X389978D01*
X391265Y36752D01*
X392249Y37736D01*
X392782Y39023D01*
Y40415D01*
X392249Y41702D01*
X391265Y42686D01*
X389978Y43219D01*
D02*
G37*
G36*
X328243Y42443D02*
X326851D01*
X325564Y41910D01*
X324580Y40926D01*
X324047Y39639D01*
Y38247D01*
X324580Y36961D01*
X325564Y35976D01*
X326851Y35443D01*
X328243D01*
X329530Y35976D01*
X330514Y36961D01*
X331047Y38247D01*
Y39639D01*
X330514Y40926D01*
X329530Y41910D01*
X328243Y42443D01*
D02*
G37*
G36*
X560351Y41910D02*
X558959D01*
X557672Y41377D01*
X556688Y40393D01*
X556155Y39106D01*
Y37714D01*
X556688Y36428D01*
X557672Y35443D01*
X558959Y34910D01*
X560351D01*
X561637Y35443D01*
X562622Y36428D01*
X563155Y37714D01*
Y39106D01*
X562622Y40393D01*
X561637Y41377D01*
X560351Y41910D01*
D02*
G37*
G36*
X580449Y41830D02*
X579057D01*
X577771Y41297D01*
X576786Y40313D01*
X576253Y39026D01*
Y37634D01*
X576786Y36348D01*
X577771Y35363D01*
X579057Y34830D01*
X580449D01*
X581736Y35363D01*
X582720Y36348D01*
X583253Y37634D01*
Y39026D01*
X582720Y40313D01*
X581736Y41297D01*
X580449Y41830D01*
D02*
G37*
G36*
X544818Y44201D02*
X543426D01*
X542140Y43668D01*
X541155Y42684D01*
X540622Y41397D01*
Y40005D01*
X541155Y38718D01*
X542140Y37734D01*
X543426Y37201D01*
X544818D01*
X546105Y37734D01*
X546384Y38013D01*
X547400Y37599D01*
X547933Y36313D01*
X548917Y35329D01*
X550204Y34796D01*
X551596D01*
X552883Y35329D01*
X553867Y36313D01*
X554400Y37599D01*
Y38992D01*
X553867Y40278D01*
X552883Y41263D01*
X551596Y41796D01*
X550204D01*
X548917Y41263D01*
X548638Y40984D01*
X547622Y41397D01*
X547090Y42684D01*
X546105Y43668D01*
X544818Y44201D01*
D02*
G37*
G36*
X569192Y41272D02*
X567799D01*
X566513Y40739D01*
X565529Y39755D01*
X564996Y38468D01*
Y37076D01*
X565529Y35789D01*
X566513Y34805D01*
X567799Y34272D01*
X569192D01*
X570478Y34805D01*
X571463Y35789D01*
X571996Y37076D01*
Y38468D01*
X571463Y39755D01*
X570478Y40739D01*
X569192Y41272D01*
D02*
G37*
G36*
X319471Y40552D02*
X318078D01*
X316792Y40020D01*
X315807Y39035D01*
X315275Y37749D01*
Y36356D01*
X315807Y35070D01*
X316792Y34085D01*
X318078Y33552D01*
X319471D01*
X320757Y34085D01*
X321742Y35070D01*
X322275Y36356D01*
Y37749D01*
X321742Y39035D01*
X320757Y40020D01*
X319471Y40552D01*
D02*
G37*
G36*
X214118Y40301D02*
X212726D01*
X211439Y39768D01*
X210455Y38783D01*
X209922Y37497D01*
Y36105D01*
X210455Y34818D01*
X211439Y33834D01*
X212726Y33301D01*
X214118D01*
X215404Y33834D01*
X216389Y34818D01*
X216922Y36105D01*
Y37497D01*
X216389Y38783D01*
X215404Y39768D01*
X214118Y40301D01*
D02*
G37*
G36*
X18409Y39004D02*
X17017D01*
X15730Y38471D01*
X14746Y37487D01*
X14213Y36200D01*
Y34808D01*
X14746Y33522D01*
X15730Y32537D01*
X17017Y32004D01*
X18409D01*
X19696Y32537D01*
X20680Y33522D01*
X21213Y34808D01*
Y36200D01*
X20680Y37487D01*
X19696Y38471D01*
X18409Y39004D01*
D02*
G37*
G36*
X81141Y40293D02*
X79749D01*
X78463Y39760D01*
X77478Y38776D01*
X76945Y37490D01*
Y36097D01*
X77478Y34811D01*
X78463Y33826D01*
X79749Y33293D01*
X81141D01*
X82428Y33826D01*
X82829Y33746D01*
X83021Y33282D01*
X84006Y32298D01*
X85292Y31765D01*
X86685D01*
X87971Y32298D01*
X88955Y33282D01*
X89488Y34569D01*
Y35961D01*
X88955Y37247D01*
X87971Y38232D01*
X86685Y38765D01*
X85292D01*
X84006Y38232D01*
X83605Y38312D01*
X83412Y38776D01*
X82428Y39760D01*
X81141Y40293D01*
D02*
G37*
G36*
X371142Y38524D02*
X369749D01*
X368463Y37991D01*
X367478Y37007D01*
X366945Y35720D01*
Y34328D01*
X367478Y33042D01*
X368463Y32057D01*
X369749Y31524D01*
X371142D01*
X372428Y32057D01*
X373413Y33042D01*
X373946Y34328D01*
Y35720D01*
X373413Y37007D01*
X372428Y37991D01*
X371142Y38524D01*
D02*
G37*
G36*
X336692Y28172D02*
X335299D01*
X334013Y27639D01*
X333029Y26655D01*
X331963D01*
X330978Y27639D01*
X329692Y28172D01*
X328299D01*
X327013Y27639D01*
X326029Y26655D01*
X325496Y25368D01*
Y23976D01*
X326029Y22689D01*
X327013Y21705D01*
Y20639D01*
X326029Y19655D01*
X326004Y19595D01*
X324988D01*
X324963Y19655D01*
X323978Y20639D01*
X322692Y21172D01*
X321300D01*
X320013Y20639D01*
X319029Y19655D01*
X318496Y18368D01*
Y16976D01*
X319029Y15689D01*
X320013Y14705D01*
X320073Y14680D01*
Y13664D01*
X320013Y13639D01*
X319029Y12655D01*
X317963D01*
X316978Y13639D01*
X315692Y14172D01*
X314300D01*
X313013Y13639D01*
X312029Y12655D01*
X311496Y11368D01*
Y9976D01*
X312029Y8689D01*
X313013Y7705D01*
X314300Y7172D01*
X315692D01*
X316978Y7705D01*
X317963Y8689D01*
X319029D01*
X320013Y7705D01*
X321300Y7172D01*
X322692D01*
X323978Y7705D01*
X324963Y8689D01*
X324988Y8749D01*
X326004D01*
X326029Y8689D01*
X327013Y7705D01*
X328299Y7172D01*
X329692D01*
X330978Y7705D01*
X331963Y8689D01*
X333029D01*
X334013Y7705D01*
X335299Y7172D01*
X336692D01*
X337978Y7705D01*
X338963Y8689D01*
X338988Y8749D01*
X340004D01*
X340029Y8689D01*
X341013Y7705D01*
X342299Y7172D01*
X343692D01*
X344978Y7705D01*
X345963Y8689D01*
X346496Y9976D01*
Y11368D01*
X345963Y12655D01*
X344978Y13639D01*
X344918Y13664D01*
Y14680D01*
X344978Y14705D01*
X345963Y15689D01*
X346496Y16976D01*
Y18368D01*
X345963Y19655D01*
X344978Y20639D01*
X343692Y21172D01*
X342299D01*
X341013Y20639D01*
X340029Y19655D01*
X340004Y19595D01*
X338988D01*
X338963Y19655D01*
X337978Y20639D01*
Y21705D01*
X338963Y22689D01*
X339496Y23976D01*
Y25368D01*
X338963Y26655D01*
X337978Y27639D01*
X336692Y28172D01*
D02*
G37*
G36*
X76402Y33182D02*
X75010D01*
X73723Y32649D01*
X72739Y31665D01*
X72206Y30378D01*
Y28986D01*
X72739Y27699D01*
X73723Y26715D01*
X75010Y26182D01*
X76402D01*
X77688Y26715D01*
X78673Y27699D01*
X79206Y28986D01*
Y30378D01*
X78673Y31665D01*
X77688Y32649D01*
X76402Y33182D01*
D02*
G37*
G36*
X289402Y103182D02*
X288010D01*
X286723Y102649D01*
X285739Y101664D01*
X285206Y100378D01*
Y98986D01*
X285739Y97699D01*
X286723Y96715D01*
X288010Y96182D01*
X288601D01*
X293447Y91336D01*
Y38392D01*
X293641Y37417D01*
X294193Y36590D01*
X303206Y27577D01*
Y26986D01*
X303739Y25699D01*
X304723Y24715D01*
X306010Y24182D01*
X307402D01*
X308688Y24715D01*
X309673Y25699D01*
X310206Y26986D01*
Y28378D01*
X309673Y29664D01*
X308688Y30649D01*
X307402Y31182D01*
X306810D01*
X298545Y39448D01*
Y92392D01*
X298351Y93367D01*
X297798Y94194D01*
X292206Y99787D01*
Y100378D01*
X291673Y101664D01*
X290688Y102649D01*
X289402Y103182D01*
D02*
G37*
G36*
X9192Y28672D02*
X7800D01*
X6513Y28139D01*
X5529Y27155D01*
X4996Y25868D01*
Y24476D01*
X5529Y23189D01*
X6513Y22205D01*
X7800Y21672D01*
X9192D01*
X10478Y22205D01*
X11463Y23189D01*
X11996Y24476D01*
Y25868D01*
X11463Y27155D01*
X10478Y28139D01*
X9192Y28672D01*
D02*
G37*
G36*
X186070Y44330D02*
X184678D01*
X183391Y43798D01*
X182407Y42813D01*
X181874Y41527D01*
Y40134D01*
X181847Y40094D01*
X180789D01*
X179503Y39561D01*
X178518Y38577D01*
X177985Y37290D01*
Y35898D01*
X177950Y35846D01*
X176915D01*
X175628Y35313D01*
X174644Y34328D01*
X174111Y33042D01*
Y32454D01*
X173815Y32256D01*
X172423D01*
X171136Y31723D01*
X170152Y30739D01*
X169619Y29453D01*
Y28060D01*
X169606Y28041D01*
X168512D01*
X167225Y27508D01*
X166241Y26523D01*
X165708Y25237D01*
Y24465D01*
X165537Y23787D01*
X164769Y23526D01*
X164080D01*
X162793Y22994D01*
X161809Y22009D01*
X161646Y21616D01*
X160337Y21058D01*
X160264Y21088D01*
X158872D01*
X157586Y20556D01*
X156601Y19571D01*
X156068Y18285D01*
X155706Y17418D01*
X154446D01*
X154037Y18348D01*
X153582Y19446D01*
X152597Y20430D01*
X151311Y20963D01*
X149919D01*
X148632Y20430D01*
X147648Y19446D01*
X147115Y18160D01*
Y16767D01*
X146231Y16246D01*
X145198Y15819D01*
X144214Y14834D01*
X143681Y13548D01*
Y12155D01*
X144214Y10869D01*
X145198Y9884D01*
X146485Y9351D01*
X147877D01*
X148286Y8421D01*
X148741Y7324D01*
X149725Y6339D01*
X151012Y5806D01*
X152404D01*
X153691Y6339D01*
X154675Y7324D01*
X155208Y8610D01*
Y10002D01*
X156092Y10523D01*
X157125Y10951D01*
X158109Y11936D01*
X158642Y13222D01*
Y13222D01*
X158645Y13267D01*
X158872Y14088D01*
X160264D01*
X161551Y14621D01*
X162535Y15606D01*
X162698Y15999D01*
X164007Y16557D01*
X164080Y16526D01*
X165472D01*
X166758Y17059D01*
X167743Y18044D01*
X168276Y19330D01*
Y20102D01*
X168446Y20780D01*
X169214Y21041D01*
X169904D01*
X171191Y21574D01*
X172175Y22558D01*
X172708Y23845D01*
Y25237D01*
X172721Y25256D01*
X173815D01*
X175101Y25789D01*
X176086Y26774D01*
X176619Y28060D01*
Y28648D01*
X176915Y28846D01*
X178307D01*
X179594Y29379D01*
X180578Y30363D01*
X181111Y31650D01*
Y33042D01*
X181146Y33094D01*
X182182D01*
X183468Y33627D01*
X184453Y34612D01*
X184985Y35898D01*
Y37290D01*
X185012Y37331D01*
X186070D01*
X187356Y37863D01*
X188341Y38848D01*
X188874Y40134D01*
Y41527D01*
X188341Y42813D01*
X187356Y43798D01*
X186070Y44330D01*
D02*
G37*
G36*
X381418Y22182D02*
X380026D01*
X378740Y21649D01*
X377837Y20747D01*
X376955Y21629D01*
X375668Y22162D01*
X374276D01*
X372990Y21629D01*
X372005Y20645D01*
X371472Y19358D01*
Y17966D01*
X372005Y16680D01*
X372990Y15695D01*
X374276Y15162D01*
X375668D01*
X376955Y15695D01*
X377857Y16597D01*
X378740Y15715D01*
X380026Y15182D01*
X381418D01*
X382705Y15715D01*
X383689Y16699D01*
X384222Y17986D01*
Y19378D01*
X383689Y20665D01*
X382705Y21649D01*
X381418Y22182D01*
D02*
G37*
G36*
X446985Y25901D02*
X445593D01*
X444306Y25368D01*
X443322Y24384D01*
X442789Y23097D01*
Y21705D01*
X443322Y20418D01*
X444306Y19434D01*
X445593Y18901D01*
X446985D01*
X448271Y19434D01*
X449256Y20418D01*
X449789Y21705D01*
Y23097D01*
X449256Y24384D01*
X448271Y25368D01*
X446985Y25901D01*
D02*
G37*
G36*
X426406Y44524D02*
X425014D01*
X423727Y43992D01*
X422743Y43007D01*
X422210Y41721D01*
Y40328D01*
X422054Y40095D01*
X421348D01*
X420061Y39562D01*
X419077Y38577D01*
X418544Y37291D01*
Y35899D01*
X418416Y35708D01*
X417580D01*
X416294Y35175D01*
X415309Y34190D01*
X414776Y32904D01*
Y32526D01*
X414373Y32257D01*
X412981D01*
X411694Y31724D01*
X410710Y30739D01*
X410177Y29453D01*
Y28061D01*
X410162Y28039D01*
X409067D01*
X407781Y27506D01*
X406796Y26521D01*
X406264Y25235D01*
Y24465D01*
X406095Y23786D01*
X405325Y23527D01*
X404638D01*
X403352Y22994D01*
X402367Y22009D01*
X401834Y20723D01*
Y19331D01*
X402367Y18044D01*
X403352Y17060D01*
X404638Y16527D01*
X406030D01*
X407317Y17060D01*
X408301Y18044D01*
X408834Y19331D01*
Y20100D01*
X409003Y20780D01*
X409773Y21039D01*
X410460D01*
X411746Y21571D01*
X412731Y22556D01*
X413264Y23842D01*
Y25235D01*
X413278Y25257D01*
X414373D01*
X415660Y25790D01*
X416644Y26774D01*
X417177Y28061D01*
Y28438D01*
X417580Y28708D01*
X418973D01*
X420259Y29241D01*
X421244Y30225D01*
X421776Y31511D01*
Y32904D01*
X421904Y33095D01*
X422740D01*
X424026Y33628D01*
X425011Y34612D01*
X425544Y35899D01*
Y37291D01*
X425700Y37524D01*
X426406D01*
X427693Y38057D01*
X428677Y39042D01*
X429210Y40328D01*
Y41721D01*
X428677Y43007D01*
X427693Y43992D01*
X426406Y44524D01*
D02*
G37*
G36*
X260402Y21182D02*
X259010D01*
X257723Y20649D01*
X256739Y19664D01*
X256206Y18378D01*
Y16986D01*
X255398Y16281D01*
X255284Y16328D01*
X253891D01*
X252605Y15795D01*
X251620Y14811D01*
X251087Y13524D01*
Y12132D01*
X251620Y10846D01*
X252605Y9861D01*
X253891Y9328D01*
X255284D01*
X256570Y9861D01*
X257554Y10846D01*
X258087Y12132D01*
Y13524D01*
X258895Y14229D01*
X259010Y14182D01*
X260402D01*
X261688Y14715D01*
X262673Y15699D01*
X263206Y16986D01*
Y18378D01*
X262673Y19664D01*
X261688Y20649D01*
X260402Y21182D01*
D02*
G37*
G36*
X120434Y15524D02*
X119042D01*
X117755Y14991D01*
X116771Y14007D01*
X116568Y13516D01*
X115468D01*
X115265Y14007D01*
X114280Y14991D01*
X112994Y15524D01*
X111601D01*
X110315Y14991D01*
X109330Y14007D01*
X108798Y12720D01*
Y11328D01*
X109330Y10042D01*
X110315Y9057D01*
X111601Y8524D01*
X112994D01*
X114280Y9057D01*
X115265Y10042D01*
X115468Y10532D01*
X116568D01*
X116771Y10042D01*
X117755Y9057D01*
X119042Y8524D01*
X120434D01*
X121720Y9057D01*
X122705Y10042D01*
X123238Y11328D01*
Y12720D01*
X122705Y14007D01*
X121720Y14991D01*
X120434Y15524D01*
D02*
G37*
G36*
X66001Y20108D02*
X64609D01*
X63322Y19575D01*
X62338Y18590D01*
X61805Y17304D01*
Y15911D01*
X62338Y14625D01*
X63162Y13800D01*
X63154Y13032D01*
X63049Y12654D01*
X63013Y12639D01*
X62345Y11971D01*
X61259Y12088D01*
X61179Y12133D01*
X60963Y12655D01*
X59978Y13639D01*
X58692Y14172D01*
X57299D01*
X56013Y13639D01*
X55029Y12655D01*
X54496Y11368D01*
Y9976D01*
X54791Y9263D01*
X54075Y8714D01*
X53944Y8653D01*
X52692Y9172D01*
X51300D01*
X50013Y8639D01*
X49029Y7655D01*
X48496Y6368D01*
Y4976D01*
X49029Y3689D01*
X50013Y2705D01*
X51300Y2172D01*
X52692D01*
X53978Y2705D01*
X54963Y3689D01*
X55496Y4976D01*
Y6368D01*
X55201Y7080D01*
X55916Y7630D01*
X56048Y7690D01*
X57299Y7172D01*
X58692D01*
X59978Y7705D01*
X60646Y8372D01*
X61733Y8256D01*
X61812Y8211D01*
X62029Y7689D01*
X63013Y6705D01*
X64300Y6172D01*
X65692D01*
X66978Y6705D01*
X67963Y7689D01*
X68496Y8976D01*
Y10368D01*
X67963Y11654D01*
X67138Y12479D01*
X67147Y13247D01*
X67252Y13626D01*
X67287Y13640D01*
X68272Y14625D01*
X68805Y15911D01*
Y17304D01*
X68272Y18590D01*
X67287Y19575D01*
X66001Y20108D01*
D02*
G37*
G36*
X498402Y18182D02*
X497010D01*
X495723Y17649D01*
X494739Y16665D01*
X494206Y15378D01*
Y13986D01*
X494739Y12699D01*
X495723Y11715D01*
X497010Y11182D01*
X498402D01*
X499688Y11715D01*
X500673Y12699D01*
X501206Y13986D01*
Y15378D01*
X500673Y16665D01*
X499688Y17649D01*
X498402Y18182D01*
D02*
G37*
G36*
X584484Y18068D02*
X583092D01*
X581806Y17535D01*
X580821Y16551D01*
X580288Y15264D01*
Y13872D01*
X580821Y12585D01*
X581806Y11601D01*
X583092Y11068D01*
X584484D01*
X585771Y11601D01*
X586755Y12585D01*
X587288Y13872D01*
Y15264D01*
X586755Y16551D01*
X585771Y17535D01*
X584484Y18068D01*
D02*
G37*
G36*
X571536Y17514D02*
X570144D01*
X568858Y16981D01*
X567873Y15997D01*
X567340Y14711D01*
Y13318D01*
X567873Y12032D01*
X568858Y11047D01*
X570144Y10514D01*
X571536D01*
X572823Y11047D01*
X573807Y12032D01*
X574340Y13318D01*
Y14711D01*
X573807Y15997D01*
X572823Y16981D01*
X571536Y17514D01*
D02*
G37*
G36*
X527399Y11128D02*
X526007D01*
X524720Y10595D01*
X524367Y10241D01*
X523703Y9640D01*
X523039Y10241D01*
X522686Y10595D01*
X521399Y11128D01*
X520007D01*
X518720Y10595D01*
X517736Y9610D01*
X517203Y8324D01*
Y6932D01*
X517736Y5645D01*
X518253Y5128D01*
X517736Y4610D01*
X517203Y3324D01*
Y1932D01*
X517736Y645D01*
X518253Y128D01*
X517736Y-390D01*
X517203Y-1676D01*
Y-3068D01*
X517736Y-4355D01*
X518720Y-5339D01*
X520007Y-5872D01*
X521399D01*
X522686Y-5339D01*
X523039Y-4986D01*
X523703Y-4385D01*
X524367Y-4986D01*
X524720Y-5339D01*
X526007Y-5872D01*
X527399D01*
X528685Y-5339D01*
X529670Y-4355D01*
X530203Y-3068D01*
Y-1676D01*
X529670Y-390D01*
X529153Y128D01*
X529670Y645D01*
X530203Y1932D01*
Y3324D01*
X529670Y4610D01*
X529153Y5128D01*
X529670Y5645D01*
X530203Y6932D01*
Y8324D01*
X529670Y9610D01*
X528685Y10595D01*
X527399Y11128D01*
D02*
G37*
G36*
X459472Y35616D02*
X458079D01*
X456793Y35083D01*
X455809Y34098D01*
X455276Y32812D01*
Y31419D01*
X455809Y30133D01*
X456793Y29149D01*
X458079Y28616D01*
X459351D01*
Y27363D01*
X459884Y26076D01*
X460868Y25092D01*
X462155Y24559D01*
X463547D01*
X463610Y24517D01*
Y23499D01*
X464142Y22212D01*
X465127Y21228D01*
X466413Y20695D01*
X467806D01*
X467936Y20608D01*
Y19712D01*
X468468Y18425D01*
X469453Y17441D01*
X470739Y16908D01*
X471646D01*
X471729Y16783D01*
Y15391D01*
X472262Y14104D01*
X473247Y13120D01*
X474533Y12587D01*
X475842D01*
Y11372D01*
X476375Y10085D01*
X477360Y9101D01*
X478646Y8568D01*
X480038D01*
X481325Y9101D01*
X482309Y10085D01*
X482842Y11372D01*
Y12764D01*
X482309Y14051D01*
X481325Y15035D01*
X480038Y15568D01*
X478729D01*
Y16783D01*
X478196Y18069D01*
X477212Y19054D01*
X475925Y19587D01*
X475019D01*
X474936Y19712D01*
Y21104D01*
X474403Y22390D01*
X473418Y23375D01*
X472132Y23908D01*
X470739D01*
X470609Y23995D01*
Y24891D01*
X470077Y26178D01*
X469092Y27162D01*
X467806Y27695D01*
X466413D01*
X466351Y27737D01*
Y28755D01*
X465818Y30041D01*
X464833Y31026D01*
X463547Y31559D01*
X462276D01*
Y32812D01*
X461743Y34098D01*
X460758Y35083D01*
X459472Y35616D01*
D02*
G37*
G36*
X222696Y37501D02*
X221304D01*
X220017Y36968D01*
X219033Y35983D01*
X218500Y34697D01*
Y33304D01*
X219033Y32018D01*
X220017Y31033D01*
X220067Y30783D01*
X219325Y30041D01*
X218792Y28754D01*
Y27362D01*
X219325Y26076D01*
X220310Y25091D01*
X221596Y24558D01*
X222988D01*
X223051Y24517D01*
Y23498D01*
X223584Y22212D01*
X224568Y21227D01*
X225854Y20694D01*
X227247D01*
X227377Y20607D01*
Y19711D01*
X227910Y18425D01*
X228895Y17440D01*
X230181Y16907D01*
X231088D01*
X231171Y16782D01*
Y15390D01*
X231704Y14104D01*
X232688Y13119D01*
X233975Y12586D01*
X235284D01*
Y11371D01*
X235817Y10085D01*
X236801Y9100D01*
X238088Y8568D01*
X239480D01*
X240766Y9100D01*
X241751Y10085D01*
X242284Y11371D01*
Y12764D01*
X241751Y14050D01*
X240766Y15035D01*
X239480Y15568D01*
X238171D01*
Y16782D01*
X237638Y18069D01*
X236654Y19053D01*
X235367Y19586D01*
X234461D01*
X234377Y19711D01*
Y21103D01*
X233844Y22390D01*
X232860Y23375D01*
X231574Y23907D01*
X230181D01*
X230051Y23995D01*
Y24891D01*
X229518Y26177D01*
X228533Y27162D01*
X227247Y27694D01*
X225854D01*
X225792Y27736D01*
Y28754D01*
X225259Y30041D01*
X224275Y31025D01*
X224225Y31276D01*
X224967Y32018D01*
X225500Y33304D01*
Y34697D01*
X224967Y35983D01*
X223982Y36968D01*
X222696Y37501D01*
D02*
G37*
G36*
X184578Y17984D02*
X183186D01*
X181900Y17451D01*
X180915Y16467D01*
X180382Y15180D01*
Y13872D01*
X180362Y13765D01*
X179636Y12933D01*
X178813D01*
X177526Y12400D01*
X176542Y11416D01*
X176009Y10129D01*
Y8737D01*
X176542Y7451D01*
X177526Y6466D01*
X178813Y5933D01*
X180205D01*
X181492Y6466D01*
X182476Y7451D01*
X183009Y8737D01*
Y10045D01*
X183029Y10153D01*
X183755Y10984D01*
X184578D01*
X185305Y11285D01*
X186082Y10507D01*
X185926Y10129D01*
Y8737D01*
X186459Y7451D01*
X187443Y6466D01*
X188730Y5933D01*
X190122D01*
X191408Y6466D01*
X192393Y7451D01*
X192926Y8737D01*
Y10129D01*
X192393Y11416D01*
X191408Y12400D01*
X190122Y12933D01*
X188730D01*
X188003Y12632D01*
X187226Y13410D01*
X187382Y13788D01*
Y15180D01*
X186849Y16467D01*
X185865Y17451D01*
X184578Y17984D01*
D02*
G37*
G36*
X86201Y12676D02*
X84808D01*
X83522Y12143D01*
X82537Y11159D01*
X82004Y9872D01*
Y8480D01*
X82537Y7193D01*
X83522Y6209D01*
X84808Y5676D01*
X86201D01*
X87487Y6209D01*
X88471Y7193D01*
X89004Y8480D01*
Y9872D01*
X88471Y11159D01*
X87487Y12143D01*
X86201Y12676D01*
D02*
G37*
G36*
X446537Y12131D02*
X445145D01*
X443859Y11598D01*
X442874Y10613D01*
X442341Y9327D01*
Y7934D01*
X442874Y6648D01*
X443859Y5663D01*
X445145Y5131D01*
X446537D01*
X447824Y5663D01*
X448808Y6648D01*
X449341Y7934D01*
Y9327D01*
X448808Y10613D01*
X447824Y11598D01*
X446537Y12131D01*
D02*
G37*
G36*
X804262Y11201D02*
X802870D01*
X801583Y10668D01*
X800599Y9684D01*
X800066Y8397D01*
Y7005D01*
X800599Y5719D01*
X801583Y4734D01*
X802870Y4201D01*
X804262D01*
X805549Y4734D01*
X806533Y5719D01*
X807066Y7005D01*
Y8397D01*
X806533Y9684D01*
X805549Y10668D01*
X804262Y11201D01*
D02*
G37*
G36*
X895763Y16422D02*
X893328D01*
X890975Y15791D01*
X888866Y14574D01*
X887144Y12852D01*
X885926Y10742D01*
X885296Y8390D01*
Y5954D01*
X885641Y4666D01*
X884730Y4140D01*
X884633Y4237D01*
X883346Y4770D01*
X881954D01*
X880667Y4237D01*
X879683Y3253D01*
X879150Y1966D01*
Y574D01*
X879683Y-713D01*
X880667Y-1697D01*
X881954Y-2230D01*
X883346D01*
X884633Y-1697D01*
X885617Y-713D01*
X886150Y574D01*
Y1182D01*
X887063Y1467D01*
X887166Y1470D01*
X888866Y-230D01*
X890975Y-1448D01*
X893328Y-2078D01*
X895763D01*
X898116Y-1448D01*
X900225Y-230D01*
X901948Y1492D01*
X903165Y3602D01*
X903796Y5954D01*
Y8390D01*
X903165Y10742D01*
X901948Y12852D01*
X900225Y14574D01*
X898116Y15791D01*
X895763Y16422D01*
D02*
G37*
G36*
X768457Y15755D02*
X767064D01*
X765778Y15222D01*
X764793Y14238D01*
X764261Y12951D01*
Y11559D01*
X764793Y10273D01*
X765778Y9288D01*
X767064Y8755D01*
X767767D01*
X768446Y7739D01*
X768348Y7504D01*
Y6112D01*
X768881Y4825D01*
X769866Y3841D01*
X771152Y3308D01*
X772545D01*
X773831Y3841D01*
X774816Y4825D01*
X775348Y6112D01*
Y7504D01*
X774816Y8791D01*
X773831Y9775D01*
X772545Y10308D01*
X771842D01*
X771163Y11324D01*
X771261Y11559D01*
Y12951D01*
X770728Y14238D01*
X769743Y15222D01*
X768457Y15755D01*
D02*
G37*
G36*
X613880Y9958D02*
X612487D01*
X611201Y9426D01*
X610216Y8441D01*
X609683Y7154D01*
Y5762D01*
X610216Y4476D01*
X611201Y3491D01*
X612487Y2958D01*
X613880D01*
X615166Y3491D01*
X616151Y4476D01*
X616684Y5762D01*
Y7154D01*
X616151Y8441D01*
X615166Y9426D01*
X613880Y9958D01*
D02*
G37*
G36*
X381696Y5501D02*
X380304D01*
X379018Y4968D01*
X378033Y3983D01*
X377500Y2697D01*
X377281Y2551D01*
X376604Y2831D01*
X375211D01*
X373925Y2299D01*
X372940Y1314D01*
X372407Y28D01*
Y-1365D01*
X372940Y-2651D01*
X373925Y-3636D01*
X375211Y-4169D01*
X376604D01*
X377595Y-3758D01*
X378419Y-4150D01*
X378611Y-4337D01*
X379144Y-5624D01*
X380128Y-6608D01*
X380879Y-6919D01*
X381587Y-7865D01*
Y-9257D01*
X382120Y-10544D01*
X383104Y-11528D01*
X384391Y-12061D01*
X385783D01*
X387070Y-11528D01*
X388054Y-10544D01*
X388587Y-9257D01*
Y-7865D01*
X388054Y-6579D01*
X387070Y-5594D01*
X386319Y-5283D01*
X385611Y-4337D01*
Y-2945D01*
X385078Y-1658D01*
X384094Y-674D01*
X384130Y411D01*
X384500Y1304D01*
Y2697D01*
X383967Y3983D01*
X382983Y4968D01*
X381696Y5501D01*
D02*
G37*
G36*
X561402Y9182D02*
X560010D01*
X558723Y8649D01*
X557739Y7664D01*
X557206Y6378D01*
Y4986D01*
X557739Y3699D01*
X558723Y2715D01*
X560010Y2182D01*
X561402D01*
X562688Y2715D01*
X563673Y3699D01*
X564206Y4986D01*
Y6378D01*
X563673Y7664D01*
X562688Y8649D01*
X561402Y9182D01*
D02*
G37*
G36*
X758086Y9066D02*
X756694D01*
X755408Y8533D01*
X754423Y7548D01*
X753890Y6262D01*
Y4869D01*
X754423Y3583D01*
X755408Y2598D01*
X756694Y2066D01*
X758086D01*
X759373Y2598D01*
X760358Y3583D01*
X760890Y4869D01*
Y6262D01*
X760358Y7548D01*
X759373Y8533D01*
X758086Y9066D01*
D02*
G37*
G36*
X782044Y8890D02*
X780652D01*
X779365Y8357D01*
X778381Y7372D01*
X777848Y6086D01*
Y4694D01*
X778381Y3407D01*
X779365Y2423D01*
X780652Y1890D01*
X782044D01*
X783331Y2423D01*
X784315Y3407D01*
X784848Y4694D01*
Y6086D01*
X784315Y7372D01*
X783331Y8357D01*
X782044Y8890D01*
D02*
G37*
G36*
X9192Y13672D02*
X7800D01*
X6513Y13139D01*
X5529Y12155D01*
X4996Y10868D01*
Y9476D01*
X5529Y8189D01*
X6513Y7205D01*
X7076Y6972D01*
Y5872D01*
X6513Y5639D01*
X5529Y4654D01*
X4996Y3368D01*
Y1976D01*
X5529Y689D01*
X6513Y-295D01*
X7800Y-828D01*
X9192D01*
X10478Y-295D01*
X11463Y689D01*
X11996Y1976D01*
Y3368D01*
X11463Y4654D01*
X10478Y5639D01*
X9916Y5872D01*
Y6972D01*
X10478Y7205D01*
X11463Y8189D01*
X11996Y9476D01*
Y10868D01*
X11463Y12155D01*
X10478Y13139D01*
X9192Y13672D01*
D02*
G37*
G36*
X410882Y6061D02*
X409490D01*
X408203Y5529D01*
X407219Y4544D01*
X406686Y3258D01*
Y1865D01*
X407219Y579D01*
X408203Y-406D01*
X409490Y-939D01*
X410882D01*
X412168Y-406D01*
X413153Y579D01*
X413686Y1865D01*
Y3258D01*
X413153Y4544D01*
X412168Y5529D01*
X410882Y6061D01*
D02*
G37*
G36*
X945763Y16422D02*
X943328D01*
X940975Y15791D01*
X938866Y14574D01*
X937144Y12852D01*
X935926Y10742D01*
X935296Y8390D01*
Y5954D01*
X935926Y3602D01*
X937144Y1492D01*
X938866Y-230D01*
X940975Y-1448D01*
X943328Y-2078D01*
X945763D01*
X948116Y-1448D01*
X950225Y-230D01*
X951947Y1492D01*
X953165Y3602D01*
X953796Y5954D01*
Y8390D01*
X953165Y10742D01*
X951947Y12852D01*
X950225Y14574D01*
X948116Y15791D01*
X945763Y16422D01*
D02*
G37*
G36*
X920764D02*
X918328D01*
X915976Y15791D01*
X913866Y14574D01*
X912144Y12852D01*
X910926Y10742D01*
X910296Y8390D01*
Y5954D01*
X910926Y3602D01*
X912144Y1492D01*
X913866Y-230D01*
X915976Y-1448D01*
X918328Y-2078D01*
X920764D01*
X923116Y-1448D01*
X925226Y-230D01*
X926948Y1492D01*
X928166Y3602D01*
X928796Y5954D01*
Y8390D01*
X928166Y10742D01*
X926948Y12852D01*
X925226Y14574D01*
X923116Y15791D01*
X920764Y16422D01*
D02*
G37*
G36*
X870763D02*
X868328D01*
X865975Y15791D01*
X863866Y14574D01*
X862144Y12852D01*
X860926Y10742D01*
X860295Y8390D01*
Y5954D01*
X860926Y3602D01*
X862144Y1492D01*
X863866Y-230D01*
X865975Y-1448D01*
X868328Y-2078D01*
X870763D01*
X873116Y-1448D01*
X875225Y-230D01*
X876947Y1492D01*
X878165Y3602D01*
X878795Y5954D01*
Y8390D01*
X878165Y10742D01*
X876947Y12852D01*
X875225Y14574D01*
X873116Y15791D01*
X870763Y16422D01*
D02*
G37*
G36*
X853796D02*
X835296D01*
Y-2078D01*
X853796D01*
Y16422D01*
D02*
G37*
G36*
X46692Y3172D02*
X45300D01*
X44013Y2639D01*
X43029Y1655D01*
X42496Y368D01*
Y-1024D01*
X43029Y-2311D01*
X44013Y-3295D01*
X45300Y-3828D01*
X46692D01*
X47978Y-3295D01*
X48963Y-2311D01*
X49496Y-1024D01*
Y368D01*
X48963Y1655D01*
X47978Y2639D01*
X46692Y3172D01*
D02*
G37*
G36*
X716690Y1812D02*
X715297D01*
X714011Y1279D01*
X713026Y294D01*
X712493Y-992D01*
Y-2384D01*
X713026Y-3671D01*
X714011Y-4655D01*
X715297Y-5188D01*
X716690D01*
X717976Y-4655D01*
X718960Y-3671D01*
X719493Y-2384D01*
Y-992D01*
X718960Y294D01*
X717976Y1279D01*
X716690Y1812D01*
D02*
G37*
G36*
X630402Y182D02*
X629010D01*
X627723Y-351D01*
X626739Y-1336D01*
X626206Y-2622D01*
Y-4014D01*
X626739Y-5301D01*
X627723Y-6285D01*
X629010Y-6818D01*
X630402D01*
X631688Y-6285D01*
X632673Y-5301D01*
X633206Y-4014D01*
Y-2622D01*
X632673Y-1336D01*
X631688Y-351D01*
X630402Y182D01*
D02*
G37*
G36*
X748938Y-3731D02*
X747546D01*
X746259Y-4263D01*
X745275Y-5248D01*
X744742Y-6534D01*
Y-7927D01*
X745275Y-9213D01*
X746259Y-10198D01*
X747546Y-10731D01*
X748938D01*
X750224Y-10198D01*
X751209Y-9213D01*
X751742Y-7927D01*
Y-6534D01*
X751209Y-5248D01*
X750224Y-4263D01*
X748938Y-3731D01*
D02*
G37*
G36*
X705123Y-3985D02*
X703730D01*
X702444Y-4517D01*
X701460Y-5502D01*
X700927Y-6788D01*
Y-8181D01*
X701460Y-9467D01*
X702444Y-10452D01*
X703730Y-10985D01*
X705123D01*
X706409Y-10452D01*
X707394Y-9467D01*
X707927Y-8181D01*
Y-6788D01*
X707394Y-5502D01*
X706409Y-4517D01*
X705123Y-3985D01*
D02*
G37*
G36*
X696488Y-4331D02*
X695096D01*
X693810Y-4864D01*
X692825Y-5849D01*
X692292Y-7135D01*
Y-8528D01*
X692825Y-9814D01*
X693810Y-10799D01*
X695096Y-11331D01*
X696488D01*
X697775Y-10799D01*
X698759Y-9814D01*
X699292Y-8528D01*
Y-7135D01*
X698759Y-5849D01*
X697775Y-4864D01*
X696488Y-4331D01*
D02*
G37*
G36*
X865222Y-4410D02*
X863829D01*
X862543Y-4942D01*
X861558Y-5927D01*
X861025Y-7213D01*
Y-8606D01*
X861558Y-9892D01*
X862543Y-10877D01*
X863829Y-11410D01*
X865222D01*
X866508Y-10877D01*
X867493Y-9892D01*
X868026Y-8606D01*
Y-7213D01*
X867493Y-5927D01*
X866508Y-4942D01*
X865222Y-4410D01*
D02*
G37*
G36*
X848767Y-4500D02*
X847375D01*
X846088Y-5032D01*
X845104Y-6017D01*
X844571Y-7303D01*
Y-8696D01*
X845104Y-9982D01*
X846088Y-10967D01*
X847375Y-11499D01*
X848767D01*
X850053Y-10967D01*
X851038Y-9982D01*
X851571Y-8696D01*
Y-7303D01*
X851038Y-6017D01*
X850053Y-5032D01*
X848767Y-4500D01*
D02*
G37*
G36*
X599402Y-4818D02*
X598010D01*
X596723Y-5351D01*
X595739Y-6335D01*
X595206Y-7622D01*
Y-9014D01*
X595739Y-10301D01*
X596723Y-11285D01*
X598010Y-11818D01*
X599402D01*
X600688Y-11285D01*
X601673Y-10301D01*
X602206Y-9014D01*
Y-7622D01*
X601673Y-6335D01*
X600688Y-5351D01*
X599402Y-4818D01*
D02*
G37*
G36*
X611601Y-5512D02*
X610208D01*
X608922Y-6045D01*
X607937Y-7030D01*
X607404Y-8316D01*
Y-9709D01*
X607937Y-10995D01*
X608922Y-11980D01*
X610208Y-12512D01*
X611601D01*
X612887Y-11980D01*
X613872Y-10995D01*
X614404Y-9709D01*
Y-8316D01*
X613872Y-7030D01*
X612887Y-6045D01*
X611601Y-5512D01*
D02*
G37*
G36*
X728402Y-6303D02*
X727010D01*
X725723Y-6836D01*
X724739Y-7820D01*
X724206Y-9107D01*
Y-10499D01*
X724739Y-11785D01*
X725723Y-12770D01*
X727010Y-13303D01*
X728402D01*
X729688Y-12770D01*
X730673Y-11785D01*
X731206Y-10499D01*
Y-9107D01*
X730673Y-7820D01*
X729688Y-6836D01*
X728402Y-6303D01*
D02*
G37*
G36*
X506098Y-8318D02*
X504706D01*
X503419Y-8851D01*
X502435Y-9836D01*
X501902Y-11122D01*
Y-12514D01*
X502435Y-13801D01*
X503419Y-14785D01*
X504706Y-15318D01*
X506098D01*
X507384Y-14785D01*
X508369Y-13801D01*
X508902Y-12514D01*
Y-11122D01*
X508369Y-9836D01*
X507384Y-8851D01*
X506098Y-8318D01*
D02*
G37*
G36*
X756692Y-8828D02*
X755300D01*
X754013Y-9361D01*
X753029Y-10345D01*
X752496Y-11632D01*
Y-13024D01*
X753029Y-14311D01*
X754013Y-15295D01*
X755300Y-15828D01*
X756692D01*
X757978Y-15295D01*
X758963Y-14311D01*
X759496Y-13024D01*
Y-11632D01*
X758963Y-10345D01*
X757978Y-9361D01*
X756692Y-8828D01*
D02*
G37*
G36*
X9192D02*
X7800D01*
X6513Y-9361D01*
X5529Y-10345D01*
X4996Y-11632D01*
Y-13024D01*
X5529Y-14311D01*
X6513Y-15295D01*
X7800Y-15828D01*
X9192D01*
X10478Y-15295D01*
X11463Y-14311D01*
X11996Y-13024D01*
Y-11632D01*
X11463Y-10345D01*
X10478Y-9361D01*
X9192Y-8828D01*
D02*
G37*
G36*
X769910Y-9203D02*
X768518D01*
X767232Y-9736D01*
X766247Y-10721D01*
X765714Y-12007D01*
Y-13399D01*
X766247Y-14686D01*
X767232Y-15670D01*
X768518Y-16203D01*
X769910D01*
X771197Y-15670D01*
X772181Y-14686D01*
X772714Y-13399D01*
Y-12007D01*
X772181Y-10721D01*
X771197Y-9736D01*
X769910Y-9203D01*
D02*
G37*
G36*
X442225Y-8300D02*
X440832D01*
X439546Y-8833D01*
X438562Y-9817D01*
X438029Y-11104D01*
Y-12496D01*
X438562Y-13782D01*
X439546Y-14767D01*
X440832Y-15300D01*
X442225D01*
X442945Y-15001D01*
X444008Y-15141D01*
X444992Y-16125D01*
X446279Y-16658D01*
X447671D01*
X448957Y-16125D01*
X449942Y-15141D01*
X450475Y-13855D01*
Y-12462D01*
X449942Y-11176D01*
X448957Y-10191D01*
X447671Y-9658D01*
X446279D01*
X445559Y-9956D01*
X444496Y-9817D01*
X443511Y-8833D01*
X442225Y-8300D01*
D02*
G37*
G36*
X548652Y-12631D02*
X547259D01*
X545973Y-13164D01*
X544989Y-14149D01*
X544456Y-15435D01*
Y-16828D01*
X544989Y-18114D01*
X545973Y-19099D01*
X547259Y-19631D01*
X548652D01*
X549938Y-19099D01*
X550923Y-18114D01*
X551456Y-16828D01*
Y-15435D01*
X550923Y-14149D01*
X549938Y-13164D01*
X548652Y-12631D01*
D02*
G37*
G36*
X584755Y-12855D02*
X583362D01*
X582076Y-13388D01*
X581091Y-14372D01*
X580558Y-15659D01*
Y-17051D01*
X581091Y-18337D01*
X582076Y-19322D01*
X583362Y-19855D01*
X584755D01*
X586041Y-19322D01*
X587025Y-18337D01*
X587558Y-17051D01*
Y-15659D01*
X587025Y-14372D01*
X586041Y-13388D01*
X584755Y-12855D01*
D02*
G37*
G36*
X114354Y-18321D02*
X112961D01*
X111675Y-18854D01*
X110690Y-19839D01*
X110546Y-20187D01*
X110070Y-20282D01*
X108784Y-19749D01*
X107391D01*
X106105Y-20282D01*
X105120Y-21267D01*
X104588Y-22553D01*
Y-23815D01*
X103326D01*
X102039Y-24348D01*
X101055Y-25333D01*
X100522Y-26619D01*
Y-27881D01*
X99260D01*
X97973Y-28414D01*
X96989Y-29398D01*
X96456Y-30684D01*
Y-31755D01*
X96424Y-31777D01*
X95031D01*
X93745Y-32310D01*
X92760Y-33294D01*
X92227Y-34581D01*
Y-35857D01*
X90979D01*
X89693Y-36390D01*
X88708Y-37374D01*
X88297Y-38369D01*
X87712Y-39226D01*
X86320D01*
X85034Y-39759D01*
X84049Y-40744D01*
X83516Y-42030D01*
Y-43423D01*
X84049Y-44709D01*
X85034Y-45694D01*
X86320Y-46226D01*
X87712D01*
X88999Y-45694D01*
X89983Y-44709D01*
X90395Y-43715D01*
X90979Y-42857D01*
X92372D01*
X93658Y-42324D01*
X94643Y-41339D01*
X95176Y-40053D01*
Y-38777D01*
X96424D01*
X97710Y-38244D01*
X98695Y-37260D01*
X99227Y-35973D01*
Y-34902D01*
X99260Y-34881D01*
X100652D01*
X101939Y-34348D01*
X102923Y-33363D01*
X103456Y-32077D01*
Y-30815D01*
X104718D01*
X106005Y-30282D01*
X106989Y-29298D01*
X107522Y-28011D01*
Y-26749D01*
X108784D01*
X110070Y-26216D01*
X111055Y-25232D01*
X112241Y-25023D01*
X112961Y-25321D01*
X114354D01*
X115640Y-24788D01*
X116128Y-24300D01*
X116951Y-24007D01*
X117442Y-24314D01*
X118071Y-24943D01*
X119358Y-25476D01*
X120750D01*
X122037Y-24943D01*
X123021Y-23959D01*
X123554Y-22672D01*
Y-21280D01*
X123021Y-19993D01*
X122037Y-19009D01*
X120750Y-18476D01*
X119358D01*
X118071Y-19009D01*
X117583Y-19497D01*
X116761Y-19790D01*
X116269Y-19483D01*
X115640Y-18854D01*
X114354Y-18321D01*
D02*
G37*
G36*
X807629Y-13359D02*
X806237D01*
X804950Y-13892D01*
X803966Y-14877D01*
X803433Y-16163D01*
Y-17556D01*
X803966Y-18842D01*
X804950Y-19827D01*
X806237Y-20359D01*
X807629D01*
X808916Y-19827D01*
X809900Y-18842D01*
X810433Y-17556D01*
Y-16163D01*
X809900Y-14877D01*
X808916Y-13892D01*
X807629Y-13359D01*
D02*
G37*
G36*
X819395Y-13856D02*
X818003D01*
X816717Y-14389D01*
X815732Y-15373D01*
X815199Y-16659D01*
Y-18052D01*
X815732Y-19338D01*
X816717Y-20323D01*
X818003Y-20856D01*
X819395D01*
X820682Y-20323D01*
X821666Y-19338D01*
X822199Y-18052D01*
Y-16659D01*
X821666Y-15373D01*
X820682Y-14389D01*
X819395Y-13856D01*
D02*
G37*
G36*
X37446Y-983D02*
X36054D01*
X34768Y-1516D01*
X33783Y-2500D01*
X33250Y-3787D01*
Y-5179D01*
X33783Y-6466D01*
X34768Y-7450D01*
X36054Y-7983D01*
X37446D01*
X37746Y-7859D01*
X38762Y-8538D01*
Y-9158D01*
X39295Y-10444D01*
X40279Y-11428D01*
X40468Y-12377D01*
X40264Y-12581D01*
X39731Y-13867D01*
Y-15260D01*
X40264Y-16546D01*
X41248Y-17530D01*
X42535Y-18063D01*
X43927D01*
X44589Y-17789D01*
X45807Y-18075D01*
X46791Y-19059D01*
X48078Y-19592D01*
X49470D01*
X50133Y-19318D01*
X51350Y-19602D01*
X52335Y-20586D01*
X53621Y-21119D01*
X55014D01*
X56300Y-20586D01*
X57285Y-19602D01*
X57818Y-18315D01*
Y-16923D01*
X57285Y-15636D01*
X56300Y-14652D01*
X55014Y-14119D01*
X53621D01*
X52958Y-14394D01*
X51741Y-14110D01*
X50757Y-13125D01*
X49470Y-12592D01*
X48078D01*
X47416Y-12866D01*
X46198Y-12581D01*
X45214Y-11596D01*
X45025Y-10648D01*
X45229Y-10444D01*
X45762Y-9158D01*
Y-7765D01*
X45229Y-6479D01*
X44244Y-5494D01*
X42958Y-4961D01*
X41566D01*
X41266Y-5085D01*
X40250Y-4406D01*
Y-3787D01*
X39718Y-2500D01*
X38733Y-1516D01*
X37446Y-983D01*
D02*
G37*
G36*
X131696Y-16976D02*
X130304D01*
X129018Y-17509D01*
X128033Y-18493D01*
X127500Y-19780D01*
Y-21172D01*
X128033Y-22458D01*
X129018Y-23443D01*
X130304Y-23976D01*
X131696D01*
X132983Y-23443D01*
X133967Y-22458D01*
X134500Y-21172D01*
Y-19780D01*
X133967Y-18493D01*
X132983Y-17509D01*
X131696Y-16976D01*
D02*
G37*
G36*
X886696Y-16500D02*
X885304D01*
X884018Y-17032D01*
X883033Y-18017D01*
X882500Y-19303D01*
Y-20696D01*
X883033Y-21982D01*
X884018Y-22967D01*
X885304Y-23499D01*
X886696D01*
X887983Y-22967D01*
X888348Y-22601D01*
X888550Y-22642D01*
X889535Y-23626D01*
X890821Y-24159D01*
X892214D01*
X893500Y-23626D01*
X894485Y-22642D01*
X895017Y-21355D01*
Y-19963D01*
X894485Y-18677D01*
X893500Y-17692D01*
X892214Y-17159D01*
X890821D01*
X889535Y-17692D01*
X889170Y-18057D01*
X888967Y-18017D01*
X887983Y-17032D01*
X886696Y-16500D01*
D02*
G37*
G36*
X276569Y-17226D02*
X275177D01*
X273890Y-17759D01*
X272906Y-18743D01*
X272373Y-20030D01*
Y-21422D01*
X272906Y-22708D01*
X273890Y-23693D01*
X275177Y-24226D01*
X276569D01*
X277856Y-23693D01*
X278840Y-22708D01*
X279373Y-21422D01*
Y-20030D01*
X278840Y-18743D01*
X277856Y-17759D01*
X276569Y-17226D01*
D02*
G37*
G36*
X917199Y-11768D02*
X915807D01*
X914520Y-12301D01*
X913536Y-13285D01*
X913003Y-14572D01*
Y-15964D01*
X913536Y-17251D01*
X914267Y-17982D01*
X913461Y-18788D01*
X912928Y-20075D01*
Y-21467D01*
X913461Y-22753D01*
X914446Y-23738D01*
X915732Y-24271D01*
X917124D01*
X918411Y-23738D01*
X919396Y-22753D01*
X919928Y-21467D01*
Y-20075D01*
X919396Y-18788D01*
X918664Y-18056D01*
X919470Y-17251D01*
X920003Y-15964D01*
Y-14572D01*
X919470Y-13285D01*
X918485Y-12301D01*
X917199Y-11768D01*
D02*
G37*
G36*
X373890Y-7369D02*
X372498D01*
X371212Y-7902D01*
X370227Y-8886D01*
X369694Y-10173D01*
Y-11565D01*
X370227Y-12852D01*
X371212Y-13836D01*
X372498Y-14369D01*
X373890D01*
X374562Y-14091D01*
X374589Y-14097D01*
X375500Y-14802D01*
Y-15696D01*
X376033Y-16982D01*
X377018Y-17967D01*
X377070Y-17988D01*
X377257Y-19165D01*
X376679Y-19743D01*
X376146Y-21030D01*
Y-22422D01*
X376679Y-23709D01*
X377663Y-24693D01*
X378950Y-25226D01*
X380342D01*
X381629Y-24693D01*
X382521Y-23801D01*
X383414Y-24693D01*
X384700Y-25226D01*
X386092D01*
X387379Y-24693D01*
X388363Y-23709D01*
X388896Y-22422D01*
Y-21030D01*
X388932Y-20976D01*
X389965D01*
X391252Y-20443D01*
X392236Y-19459D01*
X392769Y-18172D01*
Y-16780D01*
X392236Y-15493D01*
X391252Y-14509D01*
X389965Y-13976D01*
X388573D01*
X387286Y-14509D01*
X386302Y-15493D01*
X385769Y-16780D01*
Y-18172D01*
X385733Y-18226D01*
X384700D01*
X383414Y-18759D01*
X382521Y-19651D01*
X381629Y-18759D01*
X381576Y-18737D01*
X381390Y-17560D01*
X381967Y-16982D01*
X382500Y-15696D01*
Y-14303D01*
X381967Y-13017D01*
X380983Y-12032D01*
X379696Y-11499D01*
X378304D01*
X377633Y-11777D01*
X377605Y-11771D01*
X376694Y-11066D01*
Y-10173D01*
X376161Y-8886D01*
X375177Y-7902D01*
X373890Y-7369D01*
D02*
G37*
G36*
X245187Y-19086D02*
X243795D01*
X242508Y-19619D01*
X241524Y-20604D01*
X240991Y-21890D01*
Y-23282D01*
X241524Y-24569D01*
X242508Y-25553D01*
X243795Y-26086D01*
X245187D01*
X246473Y-25553D01*
X247458Y-24569D01*
X247991Y-23282D01*
Y-21890D01*
X247458Y-20604D01*
X246473Y-19619D01*
X245187Y-19086D01*
D02*
G37*
G36*
X147473Y-18276D02*
X146081D01*
X144795Y-18809D01*
X143810Y-19794D01*
X143580Y-20349D01*
X142350Y-20887D01*
X140958D01*
X139671Y-21419D01*
X138687Y-22404D01*
X138154Y-23690D01*
Y-24989D01*
X138100Y-25025D01*
X136707D01*
X135421Y-25558D01*
X134437Y-26542D01*
X133458Y-26249D01*
X132253Y-25750D01*
X130860D01*
X129574Y-26282D01*
X128589Y-27267D01*
X128057Y-28553D01*
Y-29946D01*
X128589Y-31232D01*
X129574Y-32217D01*
X130860Y-32750D01*
X132253D01*
X133539Y-32217D01*
X134524Y-31232D01*
X135502Y-31526D01*
X136707Y-32025D01*
X138100D01*
X139386Y-31492D01*
X140371Y-30508D01*
X140904Y-29221D01*
Y-27922D01*
X140958Y-27887D01*
X142350D01*
X143636Y-27354D01*
X144621Y-26369D01*
X144851Y-25814D01*
X146081Y-25276D01*
X147473D01*
X148760Y-24744D01*
X149744Y-23759D01*
X150277Y-22473D01*
Y-21080D01*
X149744Y-19794D01*
X148760Y-18809D01*
X147473Y-18276D01*
D02*
G37*
G36*
X85402Y-14818D02*
X84010D01*
X82723Y-15351D01*
X81739Y-16336D01*
X81206Y-17622D01*
Y-19014D01*
X81450Y-19603D01*
X81299Y-19828D01*
X80013Y-20361D01*
X79029Y-21346D01*
X78496Y-22632D01*
Y-24024D01*
X79029Y-25311D01*
X80013Y-26295D01*
X81299Y-26828D01*
X82692D01*
X83978Y-26295D01*
X84963Y-25311D01*
X85496Y-24024D01*
Y-22632D01*
X85252Y-22043D01*
X85402Y-21818D01*
X86688Y-21285D01*
X87673Y-20301D01*
X88206Y-19014D01*
Y-17622D01*
X87673Y-16336D01*
X86688Y-15351D01*
X85402Y-14818D01*
D02*
G37*
G36*
X571507Y-17353D02*
X570115D01*
X568828Y-17886D01*
X567844Y-18871D01*
X567311Y-20157D01*
Y-21549D01*
X567844Y-22836D01*
X568828Y-23820D01*
X570115Y-24353D01*
X571507D01*
X572632Y-23887D01*
X573233Y-24072D01*
X573707Y-24343D01*
X574181Y-25486D01*
X575165Y-26470D01*
X576452Y-27003D01*
X577844D01*
X579130Y-26470D01*
X580115Y-25486D01*
X580648Y-24199D01*
Y-22807D01*
X580115Y-21521D01*
X579130Y-20536D01*
X577844Y-20003D01*
X576452D01*
X575327Y-20469D01*
X574725Y-20284D01*
X574251Y-20013D01*
X573778Y-18871D01*
X572793Y-17886D01*
X571507Y-17353D01*
D02*
G37*
G36*
X902385Y-20813D02*
X900993D01*
X899706Y-21346D01*
X898722Y-22331D01*
X898189Y-23617D01*
Y-25009D01*
X898722Y-26296D01*
X899706Y-27280D01*
X900993Y-27813D01*
X902385D01*
X903672Y-27280D01*
X904656Y-26296D01*
X905189Y-25009D01*
Y-23617D01*
X904656Y-22331D01*
X903672Y-21346D01*
X902385Y-20813D01*
D02*
G37*
G36*
X268089Y-26226D02*
X266697D01*
X265411Y-26758D01*
X264426Y-27743D01*
X264133Y-28449D01*
X263895Y-28497D01*
X262609Y-27964D01*
X261216D01*
X259930Y-28497D01*
X258945Y-29481D01*
X258412Y-30768D01*
Y-32160D01*
X258945Y-33447D01*
X259525Y-34027D01*
X259820Y-34682D01*
X259525Y-35354D01*
X258953Y-35927D01*
X258420Y-37213D01*
Y-38606D01*
X258953Y-39892D01*
X259937Y-40877D01*
X261025Y-41327D01*
X261308Y-42022D01*
X261363Y-42426D01*
X261172Y-42617D01*
X260639Y-43903D01*
Y-45267D01*
X259290D01*
X258004Y-45800D01*
X257019Y-46784D01*
X256486Y-48071D01*
Y-49463D01*
X257019Y-50749D01*
X257945Y-51675D01*
X257086Y-52534D01*
X256553Y-53820D01*
Y-55213D01*
X257086Y-56499D01*
X257521Y-56934D01*
X257495Y-57043D01*
X257022Y-57872D01*
X255908D01*
X254622Y-58405D01*
X253638Y-59390D01*
X253105Y-60676D01*
Y-62069D01*
X253638Y-63355D01*
X254622Y-64339D01*
X255908Y-64872D01*
X257301D01*
X258587Y-64339D01*
X259022Y-63904D01*
X259686Y-63436D01*
X260350Y-63904D01*
X260785Y-64339D01*
X262071Y-64872D01*
X263464D01*
X264750Y-64339D01*
X265735Y-63355D01*
X266268Y-62069D01*
Y-60676D01*
X265735Y-59390D01*
X264750Y-58405D01*
X263464Y-57872D01*
X263084D01*
X262663Y-56856D01*
X263020Y-56499D01*
X263553Y-55213D01*
Y-53820D01*
X263020Y-52534D01*
X262095Y-51608D01*
X262954Y-50749D01*
X263486Y-49463D01*
Y-48100D01*
X264835D01*
X265009Y-48951D01*
X265020Y-49020D01*
Y-49020D01*
X265553Y-50307D01*
X266537Y-51291D01*
X267824Y-51824D01*
X269216D01*
X270502Y-51291D01*
X271487Y-50307D01*
X272020Y-49020D01*
Y-47628D01*
X271487Y-46342D01*
X270502Y-45357D01*
X269216Y-44824D01*
X268352D01*
X267831Y-43858D01*
X268038Y-43324D01*
X269324Y-42791D01*
X270309Y-41807D01*
X270842Y-40520D01*
Y-39128D01*
X270309Y-37842D01*
X269324Y-36857D01*
X268038Y-36324D01*
X266645D01*
X266203Y-36507D01*
X264909Y-35980D01*
X264887Y-35927D01*
X264307Y-35347D01*
X264012Y-34692D01*
X264307Y-34019D01*
X264879Y-33447D01*
X265172Y-32740D01*
X265411Y-32693D01*
X266697Y-33226D01*
X268089D01*
X269376Y-32693D01*
X270360Y-31708D01*
X270893Y-30422D01*
Y-29030D01*
X270360Y-27743D01*
X269376Y-26758D01*
X268089Y-26226D01*
D02*
G37*
G36*
X801838Y-22268D02*
X800445D01*
X799159Y-22801D01*
X798174Y-23785D01*
X797641Y-25072D01*
Y-26464D01*
X798174Y-27750D01*
X799159Y-28735D01*
X800445Y-29268D01*
X801838D01*
X803124Y-28735D01*
X804109Y-27750D01*
X804641Y-26464D01*
Y-25072D01*
X804109Y-23785D01*
X803124Y-22801D01*
X801838Y-22268D01*
D02*
G37*
G36*
X811516Y-22990D02*
X810124D01*
X808837Y-23523D01*
X807853Y-24508D01*
X807320Y-25794D01*
Y-27187D01*
X807853Y-28473D01*
X808837Y-29458D01*
X810124Y-29990D01*
X811516D01*
X812803Y-29458D01*
X813787Y-28473D01*
X814320Y-27187D01*
Y-25794D01*
X813787Y-24508D01*
X812803Y-23523D01*
X811516Y-22990D01*
D02*
G37*
G36*
X572196Y-25710D02*
X570804D01*
X569517Y-26243D01*
X568533Y-27227D01*
X568000Y-28514D01*
Y-29906D01*
X568533Y-31193D01*
X569517Y-32177D01*
X570804Y-32710D01*
X572196D01*
X573483Y-32177D01*
X574467Y-31193D01*
X575000Y-29906D01*
Y-28514D01*
X574467Y-27227D01*
X573483Y-26243D01*
X572196Y-25710D01*
D02*
G37*
G36*
X197883Y-25872D02*
X196491D01*
X195204Y-26405D01*
X194220Y-27389D01*
X193687Y-28676D01*
Y-30068D01*
X194220Y-31355D01*
X195204Y-32339D01*
X196491Y-32872D01*
X197883D01*
X199170Y-32339D01*
X200154Y-31355D01*
X200687Y-30068D01*
Y-28676D01*
X200154Y-27389D01*
X199170Y-26405D01*
X197883Y-25872D01*
D02*
G37*
G36*
X828272Y-26038D02*
X826880D01*
X825593Y-26571D01*
X824609Y-27555D01*
X824076Y-28842D01*
Y-30234D01*
X824609Y-31521D01*
X825593Y-32505D01*
X826880Y-33038D01*
X828272D01*
X829558Y-32505D01*
X830543Y-31521D01*
X831076Y-30234D01*
Y-28842D01*
X830543Y-27555D01*
X829558Y-26571D01*
X828272Y-26038D01*
D02*
G37*
G36*
X53896Y-22308D02*
X52504D01*
X51217Y-22841D01*
X50233Y-23826D01*
X49700Y-25112D01*
Y-26504D01*
X50233Y-27791D01*
X51217Y-28775D01*
X52504Y-29308D01*
X52545Y-29371D01*
X52156Y-30311D01*
Y-31704D01*
X52689Y-32990D01*
X53674Y-33974D01*
X54960Y-34507D01*
X56352D01*
X57639Y-33974D01*
X58623Y-32990D01*
X59156Y-31704D01*
Y-30311D01*
X58623Y-29025D01*
X57639Y-28040D01*
X56352Y-27507D01*
X56310Y-27445D01*
X56700Y-26504D01*
Y-25112D01*
X56167Y-23826D01*
X55182Y-22841D01*
X53896Y-22308D01*
D02*
G37*
G36*
X557599Y-23641D02*
X556207D01*
X554921Y-24174D01*
X553936Y-25158D01*
X553403Y-26444D01*
Y-27837D01*
X553936Y-29123D01*
X554921Y-30108D01*
X555425Y-30317D01*
X555473Y-31396D01*
X554489Y-32381D01*
X553956Y-33667D01*
Y-35060D01*
X554489Y-36346D01*
X555473Y-37331D01*
X556760Y-37864D01*
X558152D01*
X559438Y-37331D01*
X560423Y-36346D01*
X560956Y-35060D01*
Y-33667D01*
X560423Y-32381D01*
X559438Y-31396D01*
X558934Y-31188D01*
X558886Y-30108D01*
X559870Y-29123D01*
X560403Y-27837D01*
Y-26444D01*
X559870Y-25158D01*
X558886Y-24174D01*
X557599Y-23641D01*
D02*
G37*
G36*
X617901Y-12903D02*
X616508D01*
X615222Y-13436D01*
X614238Y-14421D01*
X613705Y-15707D01*
Y-17099D01*
X614238Y-18386D01*
X614591Y-18739D01*
X615192Y-19403D01*
X614591Y-20067D01*
X614238Y-20421D01*
X613705Y-21707D01*
Y-23099D01*
X614238Y-24386D01*
X614591Y-24739D01*
X615192Y-25403D01*
X614591Y-26067D01*
X614238Y-26421D01*
X613705Y-27707D01*
Y-29099D01*
X614238Y-30386D01*
X614591Y-30739D01*
X615192Y-31403D01*
X614591Y-32067D01*
X614238Y-32421D01*
X613705Y-33707D01*
Y-35099D01*
X614238Y-36386D01*
X615222Y-37370D01*
X616508Y-37903D01*
X617901D01*
X619187Y-37370D01*
X620172Y-36386D01*
X620705Y-35099D01*
Y-33707D01*
X620172Y-32421D01*
X619818Y-32067D01*
X619217Y-31403D01*
X619818Y-30739D01*
X620172Y-30386D01*
X620705Y-29099D01*
Y-27707D01*
X620172Y-26421D01*
X619818Y-26067D01*
X619217Y-25403D01*
X619818Y-24739D01*
X620172Y-24386D01*
X620705Y-23099D01*
Y-21707D01*
X620172Y-20421D01*
X619818Y-20067D01*
X619217Y-19403D01*
X619818Y-18739D01*
X620172Y-18386D01*
X620705Y-17099D01*
Y-15707D01*
X620172Y-14421D01*
X619187Y-13436D01*
X617901Y-12903D01*
D02*
G37*
G36*
X607132Y-13079D02*
X605739D01*
X604453Y-13612D01*
X603468Y-14597D01*
X602935Y-15883D01*
Y-17276D01*
X603468Y-18562D01*
X603822Y-18915D01*
X604423Y-19579D01*
X603822Y-20243D01*
X603468Y-20597D01*
X602935Y-21883D01*
Y-23275D01*
X603468Y-24562D01*
X603822Y-24915D01*
X604423Y-25579D01*
X603822Y-26243D01*
X603468Y-26597D01*
X602935Y-27883D01*
Y-29276D01*
X603468Y-30562D01*
X604242Y-31335D01*
X604222Y-31436D01*
X603237Y-32421D01*
X602705Y-33707D01*
Y-35099D01*
X603237Y-36386D01*
X604222Y-37370D01*
X605508Y-37903D01*
X606901D01*
X608187Y-37370D01*
X609172Y-36386D01*
X609705Y-35099D01*
Y-33707D01*
X609172Y-32421D01*
X608398Y-31647D01*
X608418Y-31546D01*
X609403Y-30562D01*
X609935Y-29276D01*
Y-27883D01*
X609403Y-26597D01*
X609049Y-26243D01*
X608448Y-25579D01*
X609049Y-24915D01*
X609403Y-24562D01*
X609935Y-23275D01*
Y-21883D01*
X609403Y-20597D01*
X609049Y-20243D01*
X608448Y-19579D01*
X609049Y-18915D01*
X609403Y-18562D01*
X609935Y-17276D01*
Y-15883D01*
X609403Y-14597D01*
X608418Y-13612D01*
X607132Y-13079D01*
D02*
G37*
G36*
X312713Y-32130D02*
X311321D01*
X310035Y-32662D01*
X309050Y-33647D01*
X308517Y-34933D01*
Y-36326D01*
X309050Y-37612D01*
X310035Y-38597D01*
X311321Y-39130D01*
X312713D01*
X314000Y-38597D01*
X314984Y-37612D01*
X315517Y-36326D01*
Y-34933D01*
X314984Y-33647D01*
X314000Y-32662D01*
X312713Y-32130D01*
D02*
G37*
G36*
X360038Y-20993D02*
X358646D01*
X357359Y-21526D01*
X356375Y-22510D01*
X355842Y-23797D01*
Y-25189D01*
X356375Y-26475D01*
X357359Y-27460D01*
X358646Y-27993D01*
X359510D01*
X360220Y-28933D01*
X360054Y-29334D01*
Y-30726D01*
X360587Y-32012D01*
X361571Y-32997D01*
X362858Y-33530D01*
X364250D01*
X364459Y-33669D01*
Y-34422D01*
X364991Y-35708D01*
X365976Y-36693D01*
X367262Y-37226D01*
X368655D01*
X369941Y-36693D01*
X370708Y-35926D01*
X371715Y-36232D01*
X371724Y-36238D01*
Y-36422D01*
X372257Y-37708D01*
X373241Y-38693D01*
X374528Y-39226D01*
X375920D01*
X377206Y-38693D01*
X378191Y-37708D01*
X378724Y-36422D01*
Y-35030D01*
X378191Y-33743D01*
X377206Y-32759D01*
X375920Y-32226D01*
X374528D01*
X373241Y-32759D01*
X372475Y-33525D01*
X371468Y-33220D01*
X371459Y-33214D01*
Y-33030D01*
X370926Y-31743D01*
X369941Y-30759D01*
X368655Y-30226D01*
X367262D01*
X367054Y-30087D01*
Y-29334D01*
X366521Y-28047D01*
X365537Y-27063D01*
X364250Y-26530D01*
X363386D01*
X362676Y-25589D01*
X362842Y-25189D01*
Y-23797D01*
X362309Y-22510D01*
X361324Y-21526D01*
X360038Y-20993D01*
D02*
G37*
G36*
X838027Y-34143D02*
X836635D01*
X835348Y-34676D01*
X834364Y-35661D01*
X833831Y-36947D01*
Y-38339D01*
X834364Y-39626D01*
X835348Y-40610D01*
X836635Y-41143D01*
X838027D01*
X839314Y-40610D01*
X840298Y-39626D01*
X840831Y-38339D01*
Y-36947D01*
X840298Y-35661D01*
X839314Y-34676D01*
X838027Y-34143D01*
D02*
G37*
G36*
X511666Y-37358D02*
X510273D01*
X508987Y-37891D01*
X508002Y-38875D01*
X507469Y-40162D01*
Y-40965D01*
X506453Y-41386D01*
X505801Y-40734D01*
X504515Y-40201D01*
X503123D01*
X501836Y-40734D01*
X500852Y-41719D01*
X500319Y-43005D01*
Y-44397D01*
X500852Y-45684D01*
X501836Y-46668D01*
X503123Y-47201D01*
X504515D01*
X505801Y-46668D01*
X506786Y-45684D01*
X507319Y-44397D01*
Y-43594D01*
X508335Y-43173D01*
X508987Y-43825D01*
X510273Y-44358D01*
X511666D01*
X512952Y-43825D01*
X513937Y-42841D01*
X514469Y-41554D01*
Y-40162D01*
X513937Y-38875D01*
X512952Y-37891D01*
X511666Y-37358D01*
D02*
G37*
G36*
X973376Y-34823D02*
X971984D01*
X970697Y-35356D01*
X969713Y-36341D01*
X969180Y-37627D01*
Y-39019D01*
X969713Y-40306D01*
X970697Y-41290D01*
X971984Y-41823D01*
X973376D01*
X974663Y-41290D01*
X975647Y-40306D01*
X976180Y-39019D01*
Y-37627D01*
X975647Y-36341D01*
X974663Y-35356D01*
X973376Y-34823D01*
D02*
G37*
G36*
X335750Y-36476D02*
X334358D01*
X333071Y-37009D01*
X332087Y-37993D01*
X331554Y-39280D01*
Y-40672D01*
X332087Y-41958D01*
X333071Y-42943D01*
X334358Y-43476D01*
X335750D01*
X337037Y-42943D01*
X338021Y-41958D01*
X338554Y-40672D01*
Y-39280D01*
X338021Y-37993D01*
X337037Y-37009D01*
X335750Y-36476D01*
D02*
G37*
G36*
X66446Y-37345D02*
X65054D01*
X63768Y-37878D01*
X62783Y-38863D01*
X62250Y-40149D01*
Y-41541D01*
X62783Y-42828D01*
X63768Y-43812D01*
X65054Y-44345D01*
X66446D01*
X67733Y-43812D01*
X68717Y-42828D01*
X69250Y-41541D01*
Y-40149D01*
X68717Y-38863D01*
X67733Y-37878D01*
X66446Y-37345D01*
D02*
G37*
G36*
X77750Y-37476D02*
X76358D01*
X75071Y-38009D01*
X74087Y-38993D01*
X73554Y-40280D01*
Y-41672D01*
X74087Y-42958D01*
X75071Y-43943D01*
X76358Y-44476D01*
X77750D01*
X79036Y-43943D01*
X80021Y-42958D01*
X80554Y-41672D01*
Y-40280D01*
X80021Y-38993D01*
X79036Y-38009D01*
X77750Y-37476D01*
D02*
G37*
G36*
X322445Y-38668D02*
X321053D01*
X319767Y-39201D01*
X318782Y-40185D01*
X318249Y-41472D01*
Y-42864D01*
X318782Y-44151D01*
X319767Y-45135D01*
X321053Y-45668D01*
X322445D01*
X323732Y-45135D01*
X324716Y-44151D01*
X325249Y-42864D01*
Y-41472D01*
X324716Y-40185D01*
X323732Y-39201D01*
X322445Y-38668D01*
D02*
G37*
G36*
X9192Y-23828D02*
X7800D01*
X6513Y-24361D01*
X5529Y-25345D01*
X4996Y-26632D01*
Y-28024D01*
X5529Y-29311D01*
X6513Y-30295D01*
X7076Y-30528D01*
Y-31628D01*
X6513Y-31861D01*
X5529Y-32845D01*
X4996Y-34132D01*
Y-35524D01*
X5529Y-36811D01*
X6513Y-37795D01*
X7076Y-38028D01*
Y-39128D01*
X6513Y-39361D01*
X5529Y-40346D01*
X4996Y-41632D01*
Y-43024D01*
X5529Y-44311D01*
X6513Y-45295D01*
X7800Y-45828D01*
X9192D01*
X10478Y-45295D01*
X11463Y-44311D01*
X11996Y-43024D01*
Y-41632D01*
X11463Y-40346D01*
X10478Y-39361D01*
X9916Y-39128D01*
Y-38028D01*
X10478Y-37795D01*
X11463Y-36811D01*
X11996Y-35524D01*
Y-34132D01*
X11463Y-32845D01*
X10478Y-31861D01*
X9916Y-31628D01*
Y-30528D01*
X10478Y-30295D01*
X11463Y-29311D01*
X11996Y-28024D01*
Y-26632D01*
X11463Y-25345D01*
X10478Y-24361D01*
X9192Y-23828D01*
D02*
G37*
G36*
X722633Y-39810D02*
X721241D01*
X719954Y-40343D01*
X718970Y-41328D01*
X718437Y-42614D01*
Y-44006D01*
X718970Y-45293D01*
X719954Y-46277D01*
X721241Y-46810D01*
X722633D01*
X723920Y-46277D01*
X724904Y-45293D01*
X725437Y-44006D01*
Y-42614D01*
X724904Y-41328D01*
X723920Y-40343D01*
X722633Y-39810D01*
D02*
G37*
G36*
X941547Y-30046D02*
X938547D01*
X936498Y-30454D01*
X934762Y-31614D01*
X933601Y-33351D01*
X933194Y-35399D01*
X933529Y-37084D01*
X933097Y-37597D01*
X932825Y-37852D01*
X932734Y-37899D01*
X931251D01*
X929781Y-38508D01*
X928656Y-39634D01*
X928047Y-41104D01*
Y-42695D01*
X928539Y-43883D01*
X928167Y-44675D01*
X927953Y-44899D01*
X927251D01*
X925781Y-45508D01*
X924656Y-46633D01*
X924555Y-46877D01*
X923539D01*
X923438Y-46633D01*
X922313Y-45508D01*
X920843Y-44899D01*
X920141D01*
X919926Y-44675D01*
X919555Y-43883D01*
X920047Y-42695D01*
Y-41104D01*
X919438Y-39634D01*
X918313Y-38508D01*
X916842Y-37899D01*
X915251D01*
X913781Y-38508D01*
X912656Y-39634D01*
X912555Y-39877D01*
X911539D01*
X911438Y-39634D01*
X910313Y-38508D01*
X908842Y-37899D01*
X907251D01*
X905781Y-38508D01*
X904656Y-39634D01*
X904555Y-39877D01*
X903539D01*
X903438Y-39634D01*
X902313Y-38508D01*
X900843Y-37899D01*
X899251D01*
X897781Y-38508D01*
X896656Y-39634D01*
X896555Y-39877D01*
X895539D01*
X895438Y-39634D01*
X894313Y-38508D01*
X892842Y-37899D01*
X891251D01*
X889781Y-38508D01*
X888656Y-39634D01*
X888047Y-41104D01*
Y-42695D01*
X888539Y-43883D01*
X888167Y-44675D01*
X887953Y-44899D01*
X887251D01*
X885781Y-45508D01*
X884656Y-46633D01*
X884555Y-46877D01*
X883539D01*
X883438Y-46633D01*
X882313Y-45508D01*
X880843Y-44899D01*
X880141D01*
X879926Y-44675D01*
X879555Y-43883D01*
X880047Y-42695D01*
Y-41104D01*
X879438Y-39634D01*
X878313Y-38508D01*
X876843Y-37899D01*
X875251D01*
X873781Y-38508D01*
X873366Y-38924D01*
X873229Y-39061D01*
X872498Y-38373D01*
X872574Y-38188D01*
X873297Y-36443D01*
Y-34355D01*
X872498Y-32425D01*
X871021Y-30948D01*
X869091Y-30149D01*
X867003D01*
X865073Y-30948D01*
X863596Y-32425D01*
X862797Y-34355D01*
Y-36443D01*
X863596Y-38373D01*
X864172Y-38949D01*
X863672Y-39885D01*
X862747Y-39701D01*
X860796Y-40089D01*
X859142Y-41195D01*
X858037Y-42848D01*
X857649Y-44799D01*
Y-50799D01*
X858037Y-52750D01*
X859142Y-54404D01*
X860796Y-55509D01*
X862747Y-55897D01*
X864698Y-55509D01*
X866352Y-54404D01*
X867457Y-52750D01*
X867845Y-50799D01*
Y-44799D01*
X867457Y-42848D01*
X866615Y-41588D01*
X866790Y-41162D01*
X867209Y-40649D01*
X869091D01*
X871021Y-39850D01*
X871788Y-39083D01*
X871925Y-38946D01*
X872656Y-39634D01*
X872579Y-39818D01*
X872047Y-41104D01*
Y-42695D01*
X872656Y-44165D01*
X873781Y-45290D01*
X875251Y-45899D01*
X875953D01*
X876167Y-46123D01*
X876539Y-46915D01*
X876047Y-48103D01*
Y-49695D01*
X876656Y-51165D01*
X877781Y-52290D01*
X879251Y-52899D01*
X880843D01*
X882313Y-52290D01*
X883438Y-51165D01*
X883539Y-50921D01*
X884555D01*
X884656Y-51165D01*
X885781Y-52290D01*
X887251Y-52899D01*
X888842D01*
X890313Y-52290D01*
X891438Y-51165D01*
X891539Y-50921D01*
X892555D01*
X892656Y-51165D01*
X893781Y-52290D01*
X895251Y-52899D01*
X896842D01*
X898313Y-52290D01*
X899438Y-51165D01*
X900047Y-49695D01*
Y-48103D01*
X899555Y-46915D01*
X899926Y-46123D01*
X900141Y-45899D01*
X900843D01*
X902313Y-45290D01*
X903438Y-44165D01*
X903539Y-43921D01*
X904555D01*
X904656Y-44165D01*
X905781Y-45290D01*
X907251Y-45899D01*
X907953D01*
X908167Y-46123D01*
X908539Y-46915D01*
X908047Y-48103D01*
Y-49695D01*
X908656Y-51165D01*
X909781Y-52290D01*
X911251Y-52899D01*
X912842D01*
X914313Y-52290D01*
X915438Y-51165D01*
X915539Y-50921D01*
X916555D01*
X916656Y-51165D01*
X917781Y-52290D01*
X919251Y-52899D01*
X920843D01*
X922313Y-52290D01*
X923438Y-51165D01*
X923539Y-50921D01*
X924555D01*
X924656Y-51165D01*
X925781Y-52290D01*
X927251Y-52899D01*
X928842D01*
X930313Y-52290D01*
X931438Y-51165D01*
X932047Y-49695D01*
Y-48103D01*
X931555Y-46915D01*
X931926Y-46123D01*
X932141Y-45899D01*
X932842D01*
X934313Y-45290D01*
X935438Y-44165D01*
X936047Y-42695D01*
Y-41212D01*
X936094Y-41122D01*
X936348Y-40850D01*
X936862Y-40417D01*
X938547Y-40752D01*
X940816D01*
X941359Y-41768D01*
X940637Y-42848D01*
X940249Y-44799D01*
Y-50799D01*
X940637Y-52750D01*
X941742Y-54404D01*
X943396Y-55509D01*
X945347Y-55897D01*
X947298Y-55509D01*
X948951Y-54404D01*
X950057Y-52750D01*
X950445Y-50799D01*
Y-44799D01*
X950057Y-42848D01*
X948951Y-41195D01*
X947298Y-40089D01*
X946041Y-39839D01*
X945639Y-38724D01*
X946492Y-37447D01*
X946900Y-35399D01*
X946492Y-33351D01*
X945332Y-31614D01*
X943595Y-30454D01*
X941547Y-30046D01*
D02*
G37*
G36*
X183778Y-37514D02*
X182385D01*
X181099Y-38047D01*
X180114Y-39031D01*
X179581Y-40318D01*
Y-41710D01*
X180114Y-42996D01*
X181099Y-43981D01*
X182385Y-44514D01*
X183778D01*
X183983Y-44429D01*
X185068Y-45079D01*
X185454Y-46010D01*
X186439Y-46995D01*
X187725Y-47527D01*
X189118D01*
X190404Y-46995D01*
X191388Y-46010D01*
X191921Y-44724D01*
Y-43331D01*
X191388Y-42045D01*
X190404Y-41060D01*
X189118Y-40527D01*
X187725D01*
X187520Y-40612D01*
X186434Y-39962D01*
X186049Y-39031D01*
X185064Y-38047D01*
X183778Y-37514D01*
D02*
G37*
G36*
X210750Y-41702D02*
X209358D01*
X208071Y-42235D01*
X207087Y-43219D01*
X206554Y-44506D01*
Y-45898D01*
X207087Y-47185D01*
X208071Y-48169D01*
X209358Y-48702D01*
X210750D01*
X212037Y-48169D01*
X213021Y-47185D01*
X213554Y-45898D01*
Y-44506D01*
X213021Y-43219D01*
X212037Y-42235D01*
X210750Y-41702D01*
D02*
G37*
G36*
X201763Y-42032D02*
X200371D01*
X199085Y-42565D01*
X198100Y-43549D01*
X197567Y-44836D01*
Y-46228D01*
X198100Y-47515D01*
X199085Y-48499D01*
X200371Y-49032D01*
X201763D01*
X203050Y-48499D01*
X204035Y-47515D01*
X204567Y-46228D01*
Y-44836D01*
X204035Y-43549D01*
X203050Y-42565D01*
X201763Y-42032D01*
D02*
G37*
G36*
X35967Y-43095D02*
X34575D01*
X33289Y-43627D01*
X32304Y-44612D01*
X31771Y-45898D01*
Y-47291D01*
X32304Y-48577D01*
X33289Y-49562D01*
X34575Y-50094D01*
X35967D01*
X37254Y-49562D01*
X38238Y-48577D01*
X38771Y-47291D01*
Y-45898D01*
X38238Y-44612D01*
X37254Y-43627D01*
X35967Y-43095D01*
D02*
G37*
G36*
X246102Y-48543D02*
X244710D01*
X243424Y-49076D01*
X242439Y-50060D01*
X242302Y-50390D01*
X241077Y-50694D01*
X240135Y-50303D01*
X238742D01*
X237456Y-50836D01*
X236471Y-51821D01*
X235938Y-53107D01*
Y-54499D01*
X236401Y-55616D01*
X236388Y-56303D01*
X236298Y-56759D01*
X235313Y-57743D01*
X234780Y-59030D01*
Y-60422D01*
X235313Y-61708D01*
X236298Y-62693D01*
X237584Y-63226D01*
X238977D01*
X240263Y-62693D01*
X241248Y-61708D01*
X241780Y-60422D01*
Y-59030D01*
X241318Y-57913D01*
X241331Y-57226D01*
X241421Y-56770D01*
X242406Y-55786D01*
X242542Y-55456D01*
X243768Y-55153D01*
X244710Y-55543D01*
X246102D01*
X247389Y-55010D01*
X247932Y-54467D01*
X249119Y-54677D01*
X249132Y-54708D01*
X250117Y-55693D01*
X251403Y-56226D01*
X252796D01*
X254082Y-55693D01*
X255067Y-54708D01*
X255599Y-53422D01*
Y-52029D01*
X255067Y-50743D01*
X254082Y-49758D01*
X252796Y-49226D01*
X251403D01*
X250117Y-49758D01*
X249573Y-50302D01*
X248386Y-50091D01*
X248373Y-50060D01*
X247389Y-49076D01*
X246102Y-48543D01*
D02*
G37*
G36*
X317750Y-49476D02*
X316358D01*
X315071Y-50009D01*
X314718Y-50362D01*
X314054Y-50964D01*
X313390Y-50362D01*
X313037Y-50009D01*
X311750Y-49476D01*
X310358D01*
X309071Y-50009D01*
X308087Y-50993D01*
X307554Y-52280D01*
Y-53672D01*
X308087Y-54959D01*
X309071Y-55943D01*
X310358Y-56476D01*
X311750D01*
X313037Y-55943D01*
X313390Y-55589D01*
X314054Y-54988D01*
X314718Y-55589D01*
X315071Y-55943D01*
X316358Y-56476D01*
X317750D01*
X319037Y-55943D01*
X320021Y-54959D01*
X320554Y-53672D01*
Y-52280D01*
X320021Y-50993D01*
X319037Y-50009D01*
X317750Y-49476D01*
D02*
G37*
G36*
X812776Y-44601D02*
X811383D01*
X810097Y-45133D01*
X809112Y-46118D01*
X808579Y-47404D01*
Y-48797D01*
X809112Y-50083D01*
X810097Y-51068D01*
X811383Y-51601D01*
X812776D01*
X814062Y-51068D01*
X815046Y-50083D01*
X815579Y-48797D01*
Y-47404D01*
X815046Y-46118D01*
X814062Y-45133D01*
X812776Y-44601D01*
D02*
G37*
G36*
X344431Y-45038D02*
X343038D01*
X341752Y-45571D01*
X340768Y-46556D01*
X340235Y-47842D01*
Y-49235D01*
X340768Y-50521D01*
X341752Y-51506D01*
X343038Y-52038D01*
X344431D01*
X345717Y-51506D01*
X346702Y-50521D01*
X347235Y-49235D01*
Y-47842D01*
X346702Y-46556D01*
X345717Y-45571D01*
X344431Y-45038D01*
D02*
G37*
G36*
X381692Y-45750D02*
X380299D01*
X379013Y-46282D01*
X378029Y-47267D01*
X377496Y-48553D01*
Y-49946D01*
X378029Y-51232D01*
X379013Y-52217D01*
X380299Y-52749D01*
X381692D01*
X382978Y-52217D01*
X383963Y-51232D01*
X384496Y-49946D01*
Y-48553D01*
X383963Y-47267D01*
X382978Y-46282D01*
X381692Y-45750D01*
D02*
G37*
G36*
X972868Y-46332D02*
X971476D01*
X970190Y-46864D01*
X969205Y-47849D01*
X968672Y-49135D01*
Y-50528D01*
X969205Y-51814D01*
X970190Y-52799D01*
X971476Y-53331D01*
X972868D01*
X974155Y-52799D01*
X975139Y-51814D01*
X975672Y-50528D01*
Y-49135D01*
X975139Y-47849D01*
X974155Y-46864D01*
X972868Y-46332D01*
D02*
G37*
G36*
X42506Y-48586D02*
X41114D01*
X39827Y-49119D01*
X38843Y-50104D01*
X38310Y-51390D01*
Y-52782D01*
X38843Y-54069D01*
X39827Y-55053D01*
X41114Y-55586D01*
X42506D01*
X43792Y-55053D01*
X44777Y-54069D01*
X45310Y-52782D01*
Y-51390D01*
X44777Y-50104D01*
X43792Y-49119D01*
X42506Y-48586D01*
D02*
G37*
G36*
X411210Y-31936D02*
X409818D01*
X408531Y-32469D01*
X407547Y-33453D01*
X407014Y-34740D01*
Y-36132D01*
X407547Y-37418D01*
X407965Y-37837D01*
Y-69436D01*
X408159Y-70411D01*
X408712Y-71238D01*
X410393Y-72920D01*
Y-91808D01*
X409975Y-92226D01*
X409442Y-93513D01*
Y-94905D01*
X409975Y-96191D01*
X410960Y-97176D01*
X412246Y-97709D01*
X413280D01*
X413744Y-98681D01*
X410034Y-102391D01*
X409443D01*
X408157Y-102924D01*
X407172Y-103908D01*
X406639Y-105195D01*
Y-106587D01*
X407172Y-107873D01*
X408157Y-108858D01*
X408895Y-109164D01*
X409167Y-110329D01*
X397069Y-122427D01*
X361455D01*
X361036Y-122008D01*
X359750Y-121476D01*
X358358D01*
X357071Y-122008D01*
X356087Y-122993D01*
X355781Y-123732D01*
X354615Y-124003D01*
X348795Y-118182D01*
Y-99589D01*
X349213Y-99171D01*
X349746Y-97884D01*
Y-96492D01*
X349213Y-95205D01*
X348228Y-94221D01*
X346942Y-93688D01*
X345549D01*
X344263Y-94221D01*
X343278Y-95205D01*
X342746Y-96492D01*
Y-97884D01*
X343278Y-99171D01*
X343697Y-99589D01*
Y-119238D01*
X343891Y-120214D01*
X344443Y-121041D01*
X354814Y-131411D01*
X354393Y-132427D01*
X299110D01*
X291554Y-124871D01*
Y-124279D01*
X291021Y-122993D01*
X290037Y-122008D01*
X288750Y-121476D01*
X287358D01*
X286072Y-122008D01*
X285087Y-122993D01*
X284554Y-124279D01*
Y-125672D01*
X285087Y-126958D01*
X286072Y-127943D01*
X287358Y-128476D01*
X287949D01*
X296252Y-136778D01*
X297079Y-137331D01*
X298054Y-137525D01*
X329635D01*
X330056Y-138541D01*
X329771Y-138826D01*
X329238Y-140112D01*
Y-141505D01*
X329771Y-142791D01*
X330756Y-143776D01*
X332042Y-144309D01*
X333434D01*
X334721Y-143776D01*
X335139Y-143357D01*
X373992D01*
X374423Y-144363D01*
X373890Y-145649D01*
Y-147042D01*
X374423Y-148328D01*
X375005Y-148910D01*
X374423Y-149491D01*
X373890Y-150778D01*
Y-152170D01*
X374423Y-153457D01*
X375407Y-154441D01*
X376694Y-154974D01*
X378086D01*
X379373Y-154441D01*
X380071Y-153743D01*
X380702Y-154375D01*
X381989Y-154907D01*
X383381D01*
X384668Y-154375D01*
X385652Y-153390D01*
X386185Y-152104D01*
Y-150711D01*
X385652Y-149425D01*
X385154Y-148926D01*
X385852Y-148228D01*
X386385Y-146942D01*
Y-145549D01*
X385852Y-144263D01*
X384867Y-143279D01*
X383581Y-142746D01*
X382188D01*
X380902Y-143279D01*
X380087Y-144093D01*
X379373Y-143378D01*
X378185Y-142887D01*
X377970Y-142427D01*
X377805Y-141830D01*
X379110Y-140525D01*
X405368D01*
X406343Y-140331D01*
X407170Y-139778D01*
X440856Y-106092D01*
X441409Y-105265D01*
X441603Y-104290D01*
Y-78032D01*
X455767Y-63868D01*
X455995Y-63773D01*
X456089Y-63545D01*
X466538Y-53097D01*
X467554Y-53518D01*
Y-54058D01*
X468087Y-55344D01*
X469071Y-56329D01*
X470358Y-56862D01*
X471750D01*
X473036Y-56329D01*
X474021Y-55344D01*
X474554Y-54058D01*
Y-52666D01*
X474021Y-51379D01*
X473036Y-50395D01*
X471750Y-49862D01*
X470358D01*
X469599Y-50176D01*
X469435Y-50143D01*
X468603Y-49535D01*
Y-47728D01*
X471105Y-45226D01*
X471696D01*
X472983Y-44693D01*
X473967Y-43708D01*
X474500Y-42422D01*
Y-41030D01*
X473967Y-39743D01*
X472983Y-38758D01*
X472856Y-38123D01*
X473021Y-37959D01*
X473554Y-36672D01*
Y-35280D01*
X473021Y-33993D01*
X472036Y-33009D01*
X470750Y-32476D01*
X469358D01*
X468071Y-33009D01*
X467653Y-33427D01*
X459888D01*
X458913Y-33621D01*
X458086Y-34174D01*
X455903Y-36356D01*
X455229Y-36077D01*
X452935D01*
X452135Y-35746D01*
X450743D01*
X449942Y-36077D01*
X424781D01*
X424701Y-35885D01*
X423717Y-34901D01*
X422430Y-34368D01*
X421038D01*
X420034Y-34784D01*
X419021Y-34993D01*
X418036Y-34009D01*
X416750Y-33476D01*
X415358D01*
X414618Y-33782D01*
X413481Y-33453D01*
X412497Y-32469D01*
X411210Y-31936D01*
D02*
G37*
G36*
X837045Y-50110D02*
X835652D01*
X834366Y-50643D01*
X833381Y-51628D01*
X832848Y-52914D01*
Y-54307D01*
X833381Y-55593D01*
X834366Y-56578D01*
X835652Y-57110D01*
X837045D01*
X838331Y-56578D01*
X839315Y-55593D01*
X839848Y-54307D01*
Y-52914D01*
X839315Y-51628D01*
X838331Y-50643D01*
X837045Y-50110D01*
D02*
G37*
G36*
X397741Y-50476D02*
X396349D01*
X395062Y-51009D01*
X394078Y-51993D01*
X393545Y-53280D01*
Y-54672D01*
X394078Y-55958D01*
X395062Y-56943D01*
X396349Y-57476D01*
X397741D01*
X399027Y-56943D01*
X400012Y-55958D01*
X400545Y-54672D01*
Y-53280D01*
X400012Y-51993D01*
X399027Y-51009D01*
X397741Y-50476D01*
D02*
G37*
G36*
X510733Y-50920D02*
X509341D01*
X508054Y-51453D01*
X507070Y-52437D01*
X506537Y-53724D01*
Y-55116D01*
X507070Y-56403D01*
X508054Y-57387D01*
X509341Y-57920D01*
X510733D01*
X512020Y-57387D01*
X513004Y-56403D01*
X513537Y-55116D01*
Y-53724D01*
X513004Y-52437D01*
X512020Y-51453D01*
X510733Y-50920D01*
D02*
G37*
G36*
X353696Y-53499D02*
X352304D01*
X351018Y-54032D01*
X350033Y-55017D01*
X349500Y-56303D01*
Y-57696D01*
X350033Y-58982D01*
X351018Y-59967D01*
X352304Y-60499D01*
X353696D01*
X354983Y-59967D01*
X355967Y-58982D01*
X356500Y-57696D01*
Y-56303D01*
X355967Y-55017D01*
X354983Y-54032D01*
X353696Y-53499D01*
D02*
G37*
G36*
X288692Y-53828D02*
X287299D01*
X286013Y-54361D01*
X285029Y-55346D01*
X284496Y-56632D01*
Y-58024D01*
X285029Y-59311D01*
X286013Y-60295D01*
X287299Y-60828D01*
X288692D01*
X289978Y-60295D01*
X290963Y-59311D01*
X291496Y-58024D01*
Y-56632D01*
X290963Y-55346D01*
X289978Y-54361D01*
X288692Y-53828D01*
D02*
G37*
G36*
X9648Y-54500D02*
X8256D01*
X6969Y-55032D01*
X5985Y-56017D01*
X5452Y-57303D01*
Y-58696D01*
X5985Y-59982D01*
X6969Y-60967D01*
X8256Y-61499D01*
X9648D01*
X10934Y-60967D01*
X11919Y-59982D01*
X12452Y-58696D01*
Y-57303D01*
X11919Y-56017D01*
X10934Y-55032D01*
X9648Y-54500D01*
D02*
G37*
G36*
X215606Y-58399D02*
X214213D01*
X212927Y-58932D01*
X211942Y-59917D01*
X211409Y-61203D01*
Y-62595D01*
X211942Y-63882D01*
X212927Y-64866D01*
X214213Y-65399D01*
X215606D01*
X216892Y-64866D01*
X217877Y-63882D01*
X218410Y-62595D01*
Y-61203D01*
X217877Y-59917D01*
X216892Y-58932D01*
X215606Y-58399D01*
D02*
G37*
G36*
X131750Y-52476D02*
X130358D01*
X129071Y-53009D01*
X128087Y-53993D01*
X127554Y-55280D01*
Y-56672D01*
X128087Y-57958D01*
X128441Y-58312D01*
X129042Y-58976D01*
X128441Y-59640D01*
X128087Y-59993D01*
X127554Y-61280D01*
Y-62672D01*
X128087Y-63959D01*
X129071Y-64943D01*
X130358Y-65476D01*
X131750D01*
X133037Y-64943D01*
X133385Y-64595D01*
X134054Y-63989D01*
X134712Y-64595D01*
X135066Y-64948D01*
X136353Y-65481D01*
X137745D01*
X139031Y-64948D01*
X140016Y-63964D01*
X140549Y-62677D01*
Y-61285D01*
X140016Y-59998D01*
X139031Y-59014D01*
X137745Y-58481D01*
X136353D01*
X135066Y-59014D01*
X134718Y-59362D01*
X134049Y-59968D01*
X133547Y-59507D01*
X133066Y-58976D01*
X133667Y-58312D01*
X134021Y-57958D01*
X134554Y-56672D01*
Y-55280D01*
X134021Y-53993D01*
X133037Y-53009D01*
X131750Y-52476D01*
D02*
G37*
G36*
X534192Y-58828D02*
X532799D01*
X531513Y-59361D01*
X530529Y-60346D01*
X529996Y-61632D01*
Y-63024D01*
X530529Y-64311D01*
X531513Y-65295D01*
X532799Y-65828D01*
X534192D01*
X535478Y-65295D01*
X536463Y-64311D01*
X536996Y-63024D01*
Y-61632D01*
X536463Y-60346D01*
X535478Y-59361D01*
X534192Y-58828D01*
D02*
G37*
G36*
X936402Y-60818D02*
X935010D01*
X933723Y-61351D01*
X932739Y-62336D01*
X932206Y-63622D01*
Y-65014D01*
X932739Y-66301D01*
X933723Y-67285D01*
X935010Y-67818D01*
X936402D01*
X937688Y-67285D01*
X938673Y-66301D01*
X939206Y-65014D01*
Y-63622D01*
X938673Y-62336D01*
X937688Y-61351D01*
X936402Y-60818D01*
D02*
G37*
G36*
X801669Y-60999D02*
X800277D01*
X798990Y-61532D01*
X798006Y-62516D01*
X797473Y-63803D01*
Y-65195D01*
X798006Y-66482D01*
X798990Y-67466D01*
X800277Y-67999D01*
X801669D01*
X802956Y-67466D01*
X803940Y-66482D01*
X804473Y-65195D01*
Y-63803D01*
X803940Y-62516D01*
X802956Y-61532D01*
X801669Y-60999D01*
D02*
G37*
G36*
X741551Y-61119D02*
X740159D01*
X738872Y-61652D01*
X737888Y-62636D01*
X737355Y-63923D01*
Y-65315D01*
X737888Y-66602D01*
X738872Y-67586D01*
X740159Y-68119D01*
X741551D01*
X742838Y-67586D01*
X743822Y-66602D01*
X744355Y-65315D01*
Y-63923D01*
X743822Y-62636D01*
X742838Y-61652D01*
X741551Y-61119D01*
D02*
G37*
G36*
X51750Y-65010D02*
X50358D01*
X49071Y-65543D01*
X48087Y-66528D01*
X47554Y-67814D01*
Y-68089D01*
X46538Y-68510D01*
X46037Y-68009D01*
X44750Y-67476D01*
X43358D01*
X42071Y-68009D01*
X41087Y-68993D01*
X40554Y-70280D01*
Y-71672D01*
X41087Y-72958D01*
X41518Y-73390D01*
X41280Y-74588D01*
X41168Y-74635D01*
X40184Y-75619D01*
X39651Y-76906D01*
Y-78298D01*
X40184Y-79584D01*
X40704Y-80105D01*
X41061Y-80769D01*
X40704Y-81433D01*
X40184Y-81953D01*
X39651Y-83240D01*
Y-84632D01*
X40184Y-85919D01*
X40704Y-86439D01*
X41061Y-87103D01*
X40704Y-87767D01*
X40184Y-88287D01*
X39651Y-89574D01*
Y-90966D01*
X40184Y-92253D01*
X40704Y-92773D01*
X41061Y-93437D01*
X40704Y-94101D01*
X40184Y-94621D01*
X39651Y-95908D01*
Y-97300D01*
X40184Y-98587D01*
X40704Y-99107D01*
X41061Y-99771D01*
X40704Y-100435D01*
X40184Y-100955D01*
X39651Y-102242D01*
Y-103634D01*
X40184Y-104921D01*
X41168Y-105905D01*
X42455Y-106438D01*
X43847D01*
X45133Y-105905D01*
X46118Y-104921D01*
X46651Y-103634D01*
Y-102242D01*
X46118Y-100955D01*
X45597Y-100435D01*
X45241Y-99771D01*
X45597Y-99107D01*
X46118Y-98587D01*
X46651Y-97300D01*
Y-95908D01*
X46118Y-94621D01*
X45597Y-94101D01*
X45241Y-93437D01*
X45597Y-92773D01*
X46118Y-92253D01*
X46651Y-90966D01*
Y-89574D01*
X46118Y-88287D01*
X45597Y-87767D01*
X45241Y-87103D01*
X45597Y-86439D01*
X46118Y-85919D01*
X46651Y-84632D01*
Y-83240D01*
X46118Y-81953D01*
X45597Y-81433D01*
X45241Y-80769D01*
X45597Y-80105D01*
X46118Y-79584D01*
X46651Y-78298D01*
Y-76906D01*
X46118Y-75619D01*
X45686Y-75188D01*
X45925Y-73989D01*
X46037Y-73943D01*
X47021Y-72958D01*
X47554Y-71672D01*
Y-71397D01*
X48570Y-70976D01*
X49071Y-71477D01*
X50358Y-72010D01*
X51750D01*
X53037Y-71477D01*
X54021Y-70493D01*
X54554Y-69206D01*
Y-67814D01*
X54021Y-66528D01*
X53037Y-65543D01*
X51750Y-65010D01*
D02*
G37*
G36*
X791934Y-61572D02*
X790542D01*
X789256Y-62105D01*
X788271Y-63089D01*
X787738Y-64375D01*
Y-65768D01*
X788271Y-67054D01*
X789256Y-68039D01*
X790542Y-68572D01*
X791934D01*
X793221Y-68039D01*
X794205Y-67054D01*
X794738Y-65768D01*
Y-64375D01*
X794205Y-63089D01*
X793221Y-62105D01*
X791934Y-61572D01*
D02*
G37*
G36*
X79363Y-62164D02*
X77970D01*
X76684Y-62697D01*
X75699Y-63682D01*
X75166Y-64968D01*
Y-66360D01*
X75699Y-67647D01*
X76684Y-68631D01*
X77970Y-69164D01*
X79363D01*
X80649Y-68631D01*
X81634Y-67647D01*
X82166Y-66360D01*
Y-64968D01*
X81634Y-63682D01*
X80649Y-62697D01*
X79363Y-62164D01*
D02*
G37*
G36*
X783746Y-63232D02*
X782354D01*
X781067Y-63765D01*
X780083Y-64750D01*
X779550Y-66036D01*
Y-67428D01*
X780083Y-68715D01*
X781067Y-69699D01*
X782354Y-70232D01*
X783746D01*
X785033Y-69699D01*
X786017Y-68715D01*
X786550Y-67428D01*
Y-66036D01*
X786017Y-64750D01*
X785033Y-63765D01*
X783746Y-63232D01*
D02*
G37*
G36*
X87391Y-63302D02*
X85999D01*
X84712Y-63835D01*
X83728Y-64819D01*
X83195Y-66106D01*
Y-67498D01*
X83728Y-68785D01*
X84712Y-69769D01*
X85999Y-70302D01*
X87391D01*
X88677Y-69769D01*
X89662Y-68785D01*
X90195Y-67498D01*
Y-66106D01*
X89662Y-64819D01*
X88677Y-63835D01*
X87391Y-63302D01*
D02*
G37*
G36*
X21246Y-63935D02*
X19854D01*
X18567Y-64468D01*
X17583Y-65452D01*
X17050Y-66739D01*
Y-68131D01*
X17583Y-69418D01*
X18567Y-70402D01*
X19854Y-70935D01*
X21246D01*
X22532Y-70402D01*
X23517Y-69418D01*
X24050Y-68131D01*
Y-66739D01*
X23517Y-65452D01*
X22532Y-64468D01*
X21246Y-63935D01*
D02*
G37*
G36*
X913537Y-64102D02*
X912144D01*
X910858Y-64635D01*
X909873Y-65620D01*
X909340Y-66906D01*
Y-68299D01*
X909873Y-69585D01*
X910858Y-70570D01*
X912144Y-71102D01*
X913537D01*
X914823Y-70570D01*
X915807Y-69585D01*
X916340Y-68299D01*
Y-66906D01*
X915807Y-65620D01*
X914823Y-64635D01*
X913537Y-64102D01*
D02*
G37*
G36*
X100750Y-64476D02*
X99358D01*
X98071Y-65009D01*
X97087Y-65993D01*
X96554Y-67280D01*
Y-68672D01*
X97087Y-69959D01*
X98071Y-70943D01*
X99358Y-71476D01*
X100750D01*
X102037Y-70943D01*
X103021Y-69959D01*
X103554Y-68672D01*
Y-67280D01*
X103021Y-65993D01*
X102037Y-65009D01*
X100750Y-64476D01*
D02*
G37*
G36*
X141571Y-71637D02*
X140178D01*
X138892Y-72170D01*
X138169Y-72893D01*
X137447Y-72170D01*
X136160Y-71637D01*
X134768D01*
X133482Y-72170D01*
X132759Y-72893D01*
X132037Y-72170D01*
X130750Y-71637D01*
X129358D01*
X128071Y-72170D01*
X127087Y-73155D01*
X126554Y-74441D01*
Y-75833D01*
X127087Y-77120D01*
X128071Y-78104D01*
X129358Y-78637D01*
X130750D01*
X132037Y-78104D01*
X132759Y-77382D01*
X133482Y-78104D01*
X134768Y-78637D01*
X136160D01*
X137447Y-78104D01*
X138169Y-77382D01*
X138892Y-78104D01*
X140178Y-78637D01*
X141571D01*
X142857Y-78104D01*
X143841Y-77120D01*
X144374Y-75833D01*
Y-74441D01*
X143841Y-73155D01*
X142857Y-72170D01*
X141571Y-71637D01*
D02*
G37*
G36*
X857402Y-68818D02*
X856010D01*
X854723Y-69351D01*
X853739Y-70335D01*
X853206Y-71622D01*
Y-73014D01*
X853739Y-74301D01*
X854723Y-75285D01*
X856010Y-75818D01*
X857402D01*
X858688Y-75285D01*
X859673Y-74301D01*
X860206Y-73014D01*
Y-71622D01*
X859673Y-70335D01*
X858688Y-69351D01*
X857402Y-68818D01*
D02*
G37*
G36*
X218750Y-68476D02*
X217358D01*
X216071Y-69009D01*
X215087Y-69993D01*
X214554Y-71280D01*
Y-72672D01*
X215087Y-73959D01*
X216071Y-74943D01*
X217358Y-75476D01*
X218750D01*
X220036Y-74943D01*
X220048Y-74932D01*
X221444Y-74972D01*
X221808Y-75336D01*
X223095Y-75869D01*
X224487D01*
X225773Y-75336D01*
X226758Y-74352D01*
X227291Y-73065D01*
Y-71673D01*
X226758Y-70387D01*
X225773Y-69402D01*
X224487Y-68869D01*
X223095D01*
X221808Y-69402D01*
X221797Y-69413D01*
X220400Y-69373D01*
X220036Y-69009D01*
X218750Y-68476D01*
D02*
G37*
G36*
X800198Y-71399D02*
X798806D01*
X797520Y-71932D01*
X796535Y-72916D01*
X796002Y-74202D01*
Y-75595D01*
X796535Y-76881D01*
X797520Y-77866D01*
X798806Y-78399D01*
X800198D01*
X801485Y-77866D01*
X802469Y-76881D01*
X803002Y-75595D01*
Y-74202D01*
X802469Y-72916D01*
X801485Y-71932D01*
X800198Y-71399D01*
D02*
G37*
G36*
X526692Y-73828D02*
X525299D01*
X524013Y-74361D01*
X523029Y-75346D01*
X522496Y-76632D01*
Y-78024D01*
X523029Y-79311D01*
X524013Y-80295D01*
X525299Y-80828D01*
X526692D01*
X527978Y-80295D01*
X528963Y-79311D01*
X529496Y-78024D01*
Y-76632D01*
X528963Y-75346D01*
X527978Y-74361D01*
X526692Y-73828D01*
D02*
G37*
G36*
X200755Y-57895D02*
X199362D01*
X198076Y-58428D01*
X197091Y-59413D01*
X196559Y-60699D01*
Y-61696D01*
X196252Y-62003D01*
X195699Y-62830D01*
X195505Y-63806D01*
Y-78575D01*
X195087Y-78993D01*
X194554Y-80280D01*
Y-81672D01*
X195087Y-82958D01*
X196071Y-83943D01*
X197358Y-84476D01*
X198750D01*
X200037Y-83943D01*
X201021Y-82958D01*
X201554Y-81672D01*
Y-80280D01*
X201021Y-78993D01*
X200603Y-78575D01*
Y-64895D01*
X200755D01*
X202041Y-64362D01*
X203026Y-63378D01*
X203559Y-62091D01*
Y-60699D01*
X203026Y-59413D01*
X202041Y-58428D01*
X200755Y-57895D01*
D02*
G37*
G36*
X17053Y-78608D02*
X15660D01*
X14374Y-79141D01*
X13389Y-80125D01*
X12856Y-81412D01*
Y-82804D01*
X13389Y-84090D01*
X14374Y-85075D01*
X15660Y-85608D01*
X17053D01*
X18339Y-85075D01*
X19324Y-84090D01*
X19856Y-82804D01*
Y-81412D01*
X19324Y-80125D01*
X18339Y-79141D01*
X17053Y-78608D01*
D02*
G37*
G36*
X26696Y-74499D02*
X25304D01*
X24018Y-75032D01*
X23033Y-76017D01*
X22500Y-77303D01*
Y-78696D01*
X23033Y-79982D01*
X24018Y-80967D01*
X25304Y-81499D01*
X26439D01*
X26891Y-82260D01*
X26937Y-82438D01*
X26835Y-82540D01*
X26302Y-83827D01*
Y-85219D01*
X26835Y-86505D01*
X27819Y-87490D01*
X29106Y-88023D01*
X30498D01*
X31784Y-87490D01*
X32769Y-86505D01*
X33302Y-85219D01*
Y-83827D01*
X32769Y-82540D01*
X31784Y-81556D01*
X30498Y-81023D01*
X29364D01*
X28911Y-80262D01*
X28865Y-80084D01*
X28967Y-79982D01*
X29500Y-78696D01*
Y-77303D01*
X28967Y-76017D01*
X27983Y-75032D01*
X26696Y-74499D01*
D02*
G37*
G36*
X779095Y-82125D02*
X777702D01*
X776416Y-82658D01*
X775431Y-83643D01*
X774898Y-84929D01*
Y-86322D01*
X775431Y-87608D01*
X776416Y-88593D01*
X777702Y-89125D01*
X779095D01*
X780381Y-88593D01*
X781366Y-87608D01*
X781898Y-86322D01*
Y-84929D01*
X781366Y-83643D01*
X780381Y-82658D01*
X779095Y-82125D01*
D02*
G37*
G36*
X329750Y-71476D02*
X328358D01*
X327071Y-72009D01*
X326087Y-72993D01*
X325554Y-74280D01*
Y-75672D01*
X326087Y-76958D01*
X326441Y-77312D01*
X327042Y-77976D01*
X326441Y-78640D01*
X326087Y-78993D01*
X325554Y-80280D01*
Y-81672D01*
X326087Y-82958D01*
X326441Y-83312D01*
X327042Y-83976D01*
X326441Y-84640D01*
X326087Y-84993D01*
X325554Y-86280D01*
Y-87672D01*
X326087Y-88959D01*
X327071Y-89943D01*
X328358Y-90476D01*
X329750D01*
X331037Y-89943D01*
X332021Y-88959D01*
X332554Y-87672D01*
Y-86280D01*
X332021Y-84993D01*
X331668Y-84640D01*
X331066Y-83976D01*
X331668Y-83312D01*
X332021Y-82958D01*
X332554Y-81672D01*
Y-80280D01*
X332021Y-78993D01*
X331668Y-78640D01*
X331066Y-77976D01*
X331668Y-77312D01*
X332021Y-76958D01*
X332554Y-75672D01*
Y-74280D01*
X332021Y-72993D01*
X331037Y-72009D01*
X329750Y-71476D01*
D02*
G37*
G36*
X320750D02*
X319358D01*
X318071Y-72009D01*
X317087Y-72993D01*
X316554Y-74280D01*
Y-75672D01*
X317087Y-76958D01*
X317440Y-77312D01*
X318042Y-77976D01*
X317440Y-78640D01*
X317087Y-78993D01*
X316554Y-80280D01*
Y-81672D01*
X317087Y-82958D01*
X317440Y-83312D01*
X318042Y-83976D01*
X317440Y-84640D01*
X317087Y-84993D01*
X316554Y-86280D01*
Y-87672D01*
X317087Y-88959D01*
X318071Y-89943D01*
X319358Y-90476D01*
X320750D01*
X322037Y-89943D01*
X323021Y-88959D01*
X323554Y-87672D01*
Y-86280D01*
X323021Y-84993D01*
X322668Y-84640D01*
X322066Y-83976D01*
X322668Y-83312D01*
X323021Y-82958D01*
X323554Y-81672D01*
Y-80280D01*
X323021Y-78993D01*
X322668Y-78640D01*
X322066Y-77976D01*
X322668Y-77312D01*
X323021Y-76958D01*
X323554Y-75672D01*
Y-74280D01*
X323021Y-72993D01*
X322037Y-72009D01*
X320750Y-71476D01*
D02*
G37*
G36*
X913858Y-83682D02*
X912465D01*
X911179Y-84215D01*
X910194Y-85199D01*
X909661Y-86486D01*
Y-87878D01*
X910194Y-89164D01*
X911179Y-90149D01*
X912465Y-90682D01*
X913858D01*
X915144Y-90149D01*
X916129Y-89164D01*
X916662Y-87878D01*
Y-86486D01*
X916129Y-85199D01*
X915144Y-84215D01*
X913858Y-83682D01*
D02*
G37*
G36*
X469750Y-72476D02*
X468358D01*
X467071Y-73009D01*
X466087Y-73993D01*
X465554Y-75280D01*
Y-76672D01*
X466087Y-77958D01*
X466441Y-78312D01*
X467042Y-78976D01*
X466441Y-79640D01*
X466087Y-79993D01*
X465554Y-81280D01*
Y-82672D01*
X466087Y-83959D01*
X466441Y-84312D01*
X467042Y-84976D01*
X466441Y-85640D01*
X466087Y-85993D01*
X465554Y-87280D01*
Y-88672D01*
X466087Y-89958D01*
X467071Y-90943D01*
X468358Y-91476D01*
X469750D01*
X471037Y-90943D01*
X472021Y-89958D01*
X472554Y-88672D01*
Y-87280D01*
X472021Y-85993D01*
X471668Y-85640D01*
X471066Y-84976D01*
X471668Y-84312D01*
X472021Y-83959D01*
X472554Y-82672D01*
Y-81280D01*
X472021Y-79993D01*
X471668Y-79640D01*
X471066Y-78976D01*
X471668Y-78312D01*
X472021Y-77958D01*
X472554Y-76672D01*
Y-75280D01*
X472021Y-73993D01*
X471037Y-73009D01*
X469750Y-72476D01*
D02*
G37*
G36*
X460750D02*
X459358D01*
X458071Y-73009D01*
X457087Y-73993D01*
X456554Y-75280D01*
Y-76672D01*
X457087Y-77958D01*
X457440Y-78312D01*
X458042Y-78976D01*
X457440Y-79640D01*
X457087Y-79993D01*
X456554Y-81280D01*
Y-82672D01*
X457087Y-83959D01*
X457440Y-84312D01*
X458042Y-84976D01*
X457440Y-85640D01*
X457087Y-85993D01*
X456554Y-87280D01*
Y-88672D01*
X457087Y-89958D01*
X458071Y-90943D01*
X459358Y-91476D01*
X460750D01*
X462037Y-90943D01*
X463021Y-89958D01*
X463554Y-88672D01*
Y-87280D01*
X463021Y-85993D01*
X462668Y-85640D01*
X462066Y-84976D01*
X462668Y-84312D01*
X463021Y-83959D01*
X463554Y-82672D01*
Y-81280D01*
X463021Y-79993D01*
X462668Y-79640D01*
X462066Y-78976D01*
X462668Y-78312D01*
X463021Y-77958D01*
X463554Y-76672D01*
Y-75280D01*
X463021Y-73993D01*
X462037Y-73009D01*
X460750Y-72476D01*
D02*
G37*
G36*
X391696Y-70999D02*
X390304D01*
X389018Y-71532D01*
X388033Y-72517D01*
X387500Y-73803D01*
Y-75195D01*
X388033Y-76482D01*
X388347Y-76796D01*
X388109Y-77994D01*
X388018Y-78032D01*
X387033Y-79017D01*
X386500Y-80303D01*
Y-81696D01*
X387033Y-82982D01*
X388018Y-83967D01*
Y-85032D01*
X387033Y-86017D01*
X386500Y-87303D01*
Y-88696D01*
X387033Y-89982D01*
X388018Y-90967D01*
X389304Y-91499D01*
X390696D01*
X391983Y-90967D01*
X392967Y-89982D01*
X393500Y-88696D01*
X394500D01*
X395033Y-89982D01*
X396018Y-90967D01*
X397304Y-91499D01*
X398696D01*
X399983Y-90967D01*
X400967Y-89982D01*
X401500Y-88696D01*
Y-87303D01*
X400967Y-86017D01*
X400614Y-85663D01*
X400013Y-84999D01*
X400614Y-84336D01*
X400967Y-83982D01*
X401500Y-82696D01*
Y-81303D01*
X400967Y-80017D01*
X399983Y-79032D01*
X399461Y-78816D01*
X399416Y-78736D01*
X399300Y-77650D01*
X399967Y-76982D01*
X400500Y-75696D01*
Y-74303D01*
X399967Y-73017D01*
X398983Y-72032D01*
X397696Y-71500D01*
X396304D01*
X395018Y-72032D01*
X394439Y-72611D01*
X393967Y-72517D01*
X392983Y-71532D01*
X391696Y-70999D01*
D02*
G37*
G36*
X771696Y-87499D02*
X770304D01*
X769018Y-88032D01*
X768033Y-89017D01*
X767500Y-90303D01*
Y-91696D01*
X768033Y-92982D01*
X769018Y-93967D01*
X770304Y-94499D01*
X771696D01*
X772983Y-93967D01*
X773967Y-92982D01*
X774500Y-91696D01*
Y-90303D01*
X773967Y-89017D01*
X772983Y-88032D01*
X771696Y-87499D01*
D02*
G37*
G36*
X813045Y-88788D02*
X811652D01*
X810366Y-89321D01*
X809381Y-90306D01*
X808848Y-91592D01*
Y-92985D01*
X809381Y-94271D01*
X810366Y-95256D01*
X811652Y-95788D01*
X813045D01*
X814331Y-95256D01*
X815315Y-94271D01*
X815848Y-92985D01*
Y-91592D01*
X815315Y-90306D01*
X814331Y-89321D01*
X813045Y-88788D01*
D02*
G37*
G36*
X275750Y-79476D02*
X274358D01*
X273071Y-80009D01*
X272087Y-80993D01*
X271554Y-82280D01*
Y-83672D01*
X272087Y-84958D01*
X272440Y-85312D01*
X273042Y-85976D01*
X272440Y-86640D01*
X272087Y-86993D01*
X271554Y-88280D01*
Y-89672D01*
X272087Y-90958D01*
X272440Y-91312D01*
X273042Y-91976D01*
X272440Y-92640D01*
X272087Y-92993D01*
X271554Y-94280D01*
Y-95672D01*
X272087Y-96959D01*
X273071Y-97943D01*
X274358Y-98476D01*
X275750D01*
X277037Y-97943D01*
X278021Y-96959D01*
X278554Y-95672D01*
Y-94280D01*
X278021Y-92993D01*
X277668Y-92640D01*
X277066Y-91976D01*
X277668Y-91312D01*
X278021Y-90958D01*
X278554Y-89672D01*
Y-88280D01*
X278021Y-86993D01*
X277668Y-86640D01*
X277066Y-85976D01*
X277668Y-85312D01*
X278021Y-84958D01*
X278554Y-83672D01*
Y-82280D01*
X278021Y-80993D01*
X277037Y-80009D01*
X275750Y-79476D01*
D02*
G37*
G36*
X266750D02*
X265358D01*
X264071Y-80009D01*
X263087Y-80993D01*
X262554Y-82280D01*
Y-83672D01*
X263087Y-84958D01*
X263440Y-85312D01*
X264042Y-85976D01*
X263440Y-86640D01*
X263087Y-86993D01*
X262554Y-88280D01*
Y-89672D01*
X263087Y-90958D01*
X263440Y-91312D01*
X264042Y-91976D01*
X263440Y-92640D01*
X263087Y-92993D01*
X262554Y-94280D01*
Y-95672D01*
X263087Y-96959D01*
X264071Y-97943D01*
X265358Y-98476D01*
X266750D01*
X268037Y-97943D01*
X269021Y-96959D01*
X269554Y-95672D01*
Y-94280D01*
X269021Y-92993D01*
X268668Y-92640D01*
X268066Y-91976D01*
X268668Y-91312D01*
X269021Y-90958D01*
X269554Y-89672D01*
Y-88280D01*
X269021Y-86993D01*
X268668Y-86640D01*
X268066Y-85976D01*
X268668Y-85312D01*
X269021Y-84958D01*
X269554Y-83672D01*
Y-82280D01*
X269021Y-80993D01*
X268037Y-80009D01*
X266750Y-79476D01*
D02*
G37*
G36*
X914044Y-92618D02*
X912652D01*
X911366Y-93151D01*
X910381Y-94136D01*
X909848Y-95422D01*
Y-96815D01*
X910381Y-98101D01*
X911366Y-99086D01*
X912652Y-99618D01*
X914044D01*
X915331Y-99086D01*
X916316Y-98101D01*
X916848Y-96815D01*
Y-95422D01*
X916316Y-94136D01*
X915331Y-93151D01*
X914044Y-92618D01*
D02*
G37*
G36*
X948947Y-83701D02*
X946996Y-84089D01*
X945342Y-85194D01*
X944237Y-86848D01*
X943849Y-88799D01*
Y-94799D01*
X944237Y-96750D01*
X945342Y-98404D01*
X946996Y-99509D01*
X948947Y-99897D01*
X950898Y-99509D01*
X952552Y-98404D01*
X953657Y-96750D01*
X954045Y-94799D01*
Y-88799D01*
X953657Y-86848D01*
X952552Y-85194D01*
X950898Y-84089D01*
X948947Y-83701D01*
D02*
G37*
G36*
X859147D02*
X857196Y-84089D01*
X855542Y-85194D01*
X854437Y-86848D01*
X854049Y-88799D01*
Y-94799D01*
X854437Y-96750D01*
X855542Y-98404D01*
X857196Y-99509D01*
X859147Y-99897D01*
X861098Y-99509D01*
X862752Y-98404D01*
X863857Y-96750D01*
X864245Y-94799D01*
Y-88799D01*
X863857Y-86848D01*
X862752Y-85194D01*
X861098Y-84089D01*
X859147Y-83701D01*
D02*
G37*
G36*
X504192Y-93828D02*
X502799D01*
X501513Y-94361D01*
X500529Y-95345D01*
X499996Y-96632D01*
Y-98024D01*
X500529Y-99311D01*
X501513Y-100295D01*
X502799Y-100828D01*
X504192D01*
X505478Y-100295D01*
X506463Y-99311D01*
X506996Y-98024D01*
Y-96632D01*
X506463Y-95345D01*
X505478Y-94361D01*
X504192Y-93828D01*
D02*
G37*
G36*
X762994Y-94087D02*
X761602D01*
X760316Y-94619D01*
X759331Y-95604D01*
X758798Y-96890D01*
Y-98283D01*
X759331Y-99569D01*
X760316Y-100554D01*
X761602Y-101087D01*
X762994D01*
X764281Y-100554D01*
X765265Y-99569D01*
X765798Y-98283D01*
Y-96890D01*
X765265Y-95604D01*
X764281Y-94619D01*
X762994Y-94087D01*
D02*
G37*
G36*
X788045Y-94832D02*
X786652D01*
X785366Y-95365D01*
X784381Y-96350D01*
X783848Y-97636D01*
Y-99028D01*
X784381Y-100315D01*
X785366Y-101299D01*
X786652Y-101832D01*
X788045D01*
X789331Y-101299D01*
X790315Y-100315D01*
X790848Y-99028D01*
Y-97636D01*
X790315Y-96350D01*
X789331Y-95365D01*
X788045Y-94832D01*
D02*
G37*
G36*
X282551Y-101318D02*
X281159D01*
X279873Y-101851D01*
X279465Y-102258D01*
X278801Y-102769D01*
X278138Y-102258D01*
X277730Y-101851D01*
X276444Y-101318D01*
X275051D01*
X273765Y-101851D01*
X273357Y-102258D01*
X272694Y-102769D01*
X272030Y-102258D01*
X271622Y-101851D01*
X270336Y-101318D01*
X268944D01*
X267657Y-101851D01*
X266672Y-102836D01*
X266140Y-104122D01*
Y-105514D01*
X266672Y-106801D01*
X267657Y-107785D01*
X268944Y-108318D01*
X270336D01*
X271622Y-107785D01*
X272030Y-107378D01*
X272694Y-106867D01*
X273357Y-107378D01*
X273765Y-107785D01*
X275051Y-108318D01*
X276444D01*
X277730Y-107785D01*
X278138Y-107378D01*
X278801Y-106867D01*
X279465Y-107378D01*
X279873Y-107785D01*
X281159Y-108318D01*
X282551D01*
X283838Y-107785D01*
X284822Y-106801D01*
X285355Y-105514D01*
Y-104122D01*
X284822Y-102836D01*
X283838Y-101851D01*
X282551Y-101318D01*
D02*
G37*
G36*
X826692Y-96328D02*
X825300D01*
X824013Y-96861D01*
X823029Y-97845D01*
X822496Y-99132D01*
Y-100524D01*
X823029Y-101811D01*
X824013Y-102795D01*
X825300Y-103328D01*
X826692D01*
X827978Y-102795D01*
X828963Y-101811D01*
X829496Y-100524D01*
Y-99132D01*
X828963Y-97845D01*
X827978Y-96861D01*
X826692Y-96328D01*
D02*
G37*
G36*
X35749Y-99478D02*
X34357D01*
X33070Y-100011D01*
X32086Y-100995D01*
X31553Y-102282D01*
Y-103674D01*
X32086Y-104960D01*
X33070Y-105945D01*
X34357Y-106478D01*
X35749D01*
X37036Y-105945D01*
X38020Y-104960D01*
X38553Y-103674D01*
Y-102282D01*
X38020Y-100995D01*
X37036Y-100011D01*
X35749Y-99478D01*
D02*
G37*
G36*
X813045Y-100416D02*
X811652D01*
X810366Y-100949D01*
X809381Y-101933D01*
X808848Y-103220D01*
Y-104612D01*
X809381Y-105899D01*
X810366Y-106883D01*
X811652Y-107416D01*
X813045D01*
X814331Y-106883D01*
X815315Y-105899D01*
X815848Y-104612D01*
Y-103220D01*
X815315Y-101933D01*
X814331Y-100949D01*
X813045Y-100416D01*
D02*
G37*
G36*
X516198Y-104356D02*
X514805D01*
X513519Y-104889D01*
X512534Y-105874D01*
X512001Y-107160D01*
Y-108552D01*
X512534Y-109839D01*
X513519Y-110823D01*
X514805Y-111356D01*
X516198D01*
X517484Y-110823D01*
X518469Y-109839D01*
X519002Y-108552D01*
Y-107160D01*
X518469Y-105874D01*
X517484Y-104889D01*
X516198Y-104356D01*
D02*
G37*
G36*
X914090Y-104553D02*
X912697D01*
X911411Y-105086D01*
X910426Y-106071D01*
X909893Y-107357D01*
Y-108750D01*
X910426Y-110036D01*
X911411Y-111020D01*
X912697Y-111553D01*
X914090D01*
X915376Y-111020D01*
X916360Y-110036D01*
X916893Y-108750D01*
Y-107357D01*
X916360Y-106071D01*
X915376Y-105086D01*
X914090Y-104553D01*
D02*
G37*
G36*
X55595Y-105442D02*
X54203D01*
X52917Y-105975D01*
X51932Y-106960D01*
X51399Y-108246D01*
Y-109638D01*
X51932Y-110925D01*
X52917Y-111909D01*
X54203Y-112442D01*
X55595D01*
X56882Y-111909D01*
X57866Y-110925D01*
X58399Y-109638D01*
Y-108246D01*
X57866Y-106960D01*
X56882Y-105975D01*
X55595Y-105442D01*
D02*
G37*
G36*
X19673Y-105550D02*
X18280D01*
X16994Y-106082D01*
X16009Y-107067D01*
X15476Y-108353D01*
Y-109746D01*
X16009Y-111032D01*
X16994Y-112017D01*
X18280Y-112550D01*
X19673D01*
X20959Y-112017D01*
X21944Y-111032D01*
X22476Y-109746D01*
Y-108353D01*
X21944Y-107067D01*
X20959Y-106082D01*
X19673Y-105550D01*
D02*
G37*
G36*
X540204Y-107465D02*
X538812D01*
X537526Y-107997D01*
X536541Y-108982D01*
X536008Y-110268D01*
Y-111661D01*
X536541Y-112947D01*
X537526Y-113932D01*
X538812Y-114465D01*
X540204D01*
X541491Y-113932D01*
X542475Y-112947D01*
X543008Y-111661D01*
Y-110268D01*
X542475Y-108982D01*
X541491Y-107997D01*
X540204Y-107465D01*
D02*
G37*
G36*
X205039Y-108935D02*
X203646D01*
X202360Y-109468D01*
X201375Y-110453D01*
X200842Y-111739D01*
Y-113131D01*
X201375Y-114418D01*
X202360Y-115402D01*
X203646Y-115935D01*
X205039D01*
X206325Y-115402D01*
X207310Y-114418D01*
X207843Y-113131D01*
Y-111739D01*
X207310Y-110453D01*
X206325Y-109468D01*
X205039Y-108935D01*
D02*
G37*
G36*
X31140Y-112465D02*
X29748D01*
X28461Y-112998D01*
X27477Y-113983D01*
X26944Y-115269D01*
Y-116662D01*
X27477Y-117948D01*
X28461Y-118932D01*
X29748Y-119465D01*
X31140D01*
X32426Y-118932D01*
X33411Y-117948D01*
X33944Y-116662D01*
Y-115269D01*
X33411Y-113983D01*
X32426Y-112998D01*
X31140Y-112465D01*
D02*
G37*
G36*
X166750Y-41449D02*
X165358D01*
X164071Y-41982D01*
X163087Y-42967D01*
X162554Y-44253D01*
Y-44844D01*
X159252Y-48147D01*
X158699Y-48974D01*
X158505Y-49949D01*
Y-73575D01*
X158087Y-73993D01*
X157554Y-75280D01*
Y-76672D01*
X158087Y-77959D01*
X159072Y-78943D01*
X160358Y-79476D01*
X161750D01*
X162489Y-79170D01*
X163505Y-79802D01*
Y-92575D01*
X163087Y-92993D01*
X162554Y-94279D01*
Y-95672D01*
X163087Y-96958D01*
X164071Y-97943D01*
X165358Y-98476D01*
X166750D01*
X168036Y-97943D01*
X168141Y-97839D01*
X169157Y-98259D01*
Y-100268D01*
X165158Y-104267D01*
X115568D01*
X114593Y-104461D01*
X113766Y-105013D01*
X105602Y-113177D01*
X105010D01*
X103724Y-113710D01*
X102739Y-114695D01*
X102207Y-115981D01*
Y-117374D01*
X102739Y-118660D01*
X103724Y-119645D01*
X105010Y-120177D01*
X106403D01*
X107689Y-119645D01*
X108674Y-118660D01*
X109207Y-117374D01*
Y-116782D01*
X116624Y-109365D01*
X166214D01*
X167189Y-109171D01*
X168016Y-108618D01*
X173508Y-103126D01*
X174061Y-102299D01*
X174255Y-101324D01*
Y-62906D01*
X179468Y-57692D01*
X180060D01*
X181346Y-57160D01*
X182331Y-56175D01*
X182863Y-54889D01*
Y-53496D01*
X182331Y-52210D01*
X181346Y-51225D01*
X180060Y-50692D01*
X178667D01*
X177381Y-51225D01*
X176396Y-52210D01*
X175863Y-53496D01*
Y-54088D01*
X169903Y-60048D01*
X169619Y-60473D01*
X168603Y-60165D01*
Y-57001D01*
X172105Y-53499D01*
X172696D01*
X173983Y-52967D01*
X174967Y-51982D01*
X175500Y-50696D01*
Y-49303D01*
X174967Y-48017D01*
X173983Y-47032D01*
X172696Y-46499D01*
X171304D01*
X170092Y-47002D01*
X169841Y-46874D01*
X169261Y-46352D01*
X169554Y-45645D01*
Y-44253D01*
X169021Y-42967D01*
X168037Y-41982D01*
X166750Y-41449D01*
D02*
G37*
G36*
X275764Y-109656D02*
X274371D01*
X273085Y-110189D01*
X272100Y-111174D01*
X271567Y-112460D01*
Y-113853D01*
X272100Y-115139D01*
X273085Y-116124D01*
X274371Y-116656D01*
X275763D01*
X276159Y-117592D01*
X276628Y-118725D01*
X277613Y-119709D01*
X278899Y-120242D01*
X280292D01*
X281578Y-119709D01*
X282563Y-118725D01*
X283095Y-117438D01*
Y-116046D01*
X282563Y-114759D01*
X281578Y-113775D01*
X280292Y-113242D01*
X278899D01*
X278503Y-112306D01*
X278034Y-111174D01*
X277050Y-110189D01*
X275764Y-109656D01*
D02*
G37*
G36*
X9192Y-113828D02*
X7800D01*
X6513Y-114361D01*
X5529Y-115345D01*
X4996Y-116632D01*
Y-118024D01*
X5529Y-119311D01*
X6513Y-120295D01*
X7800Y-120828D01*
X9192D01*
X10478Y-120295D01*
X11463Y-119311D01*
X11996Y-118024D01*
Y-116632D01*
X11463Y-115345D01*
X10478Y-114361D01*
X9192Y-113828D01*
D02*
G37*
G36*
X497019Y-114871D02*
X495626D01*
X494340Y-115404D01*
X493356Y-116389D01*
X492823Y-117675D01*
Y-119068D01*
X493356Y-120354D01*
X494340Y-121339D01*
X495626Y-121871D01*
X497019D01*
X498305Y-121339D01*
X499290Y-120354D01*
X499823Y-119068D01*
Y-117675D01*
X499290Y-116389D01*
X498305Y-115404D01*
X497019Y-114871D01*
D02*
G37*
G36*
X86750Y-117476D02*
X85358D01*
X84072Y-118008D01*
X83087Y-118993D01*
X82554Y-120280D01*
Y-121672D01*
X83087Y-122958D01*
X84072Y-123943D01*
X85358Y-124476D01*
X86750D01*
X88037Y-123943D01*
X89021Y-122958D01*
X89554Y-121672D01*
Y-120280D01*
X89021Y-118993D01*
X88037Y-118008D01*
X86750Y-117476D01*
D02*
G37*
G36*
X548871Y-125926D02*
X547479D01*
X546192Y-126459D01*
X545208Y-127443D01*
X544675Y-128730D01*
Y-130122D01*
X545208Y-131409D01*
X546192Y-132393D01*
X547479Y-132926D01*
X548871D01*
X550158Y-132393D01*
X551142Y-131409D01*
X551675Y-130122D01*
Y-128730D01*
X551142Y-127443D01*
X550158Y-126459D01*
X548871Y-125926D01*
D02*
G37*
G36*
X9192Y-128828D02*
X7800D01*
X6513Y-129361D01*
X5529Y-130345D01*
X4996Y-131632D01*
Y-133024D01*
X5529Y-134311D01*
X6513Y-135295D01*
X7800Y-135828D01*
X9192D01*
X10478Y-135295D01*
X11463Y-134311D01*
X11996Y-133024D01*
Y-131632D01*
X11463Y-130345D01*
X10478Y-129361D01*
X9192Y-128828D01*
D02*
G37*
G36*
X171692Y-131328D02*
X170299D01*
X169013Y-131861D01*
X168029Y-132845D01*
X167496Y-134132D01*
Y-135524D01*
X168029Y-136811D01*
X169013Y-137795D01*
X170299Y-138328D01*
X171692D01*
X172978Y-137795D01*
X173963Y-136811D01*
X174496Y-135524D01*
Y-134132D01*
X173963Y-132845D01*
X172978Y-131861D01*
X171692Y-131328D01*
D02*
G37*
G36*
X116692D02*
X115300D01*
X114013Y-131861D01*
X113029Y-132845D01*
X112496Y-134132D01*
Y-135524D01*
X113029Y-136811D01*
X114013Y-137795D01*
X115300Y-138328D01*
X116692D01*
X117978Y-137795D01*
X118963Y-136811D01*
X119496Y-135524D01*
Y-134132D01*
X118963Y-132845D01*
X117978Y-131861D01*
X116692Y-131328D01*
D02*
G37*
G36*
X209750Y-70476D02*
X208358D01*
X207071Y-71009D01*
X206087Y-71993D01*
X205554Y-73280D01*
Y-74672D01*
X206087Y-75959D01*
X207071Y-76943D01*
X208358Y-77476D01*
X208949D01*
X214734Y-83260D01*
Y-126140D01*
X214029Y-126846D01*
X213496Y-128132D01*
Y-129524D01*
X214029Y-130811D01*
X215013Y-131795D01*
X216299Y-132328D01*
X217517D01*
X217858Y-132811D01*
X218015Y-133267D01*
X217434Y-133848D01*
X216901Y-135135D01*
Y-136527D01*
X217434Y-137814D01*
X218418Y-138798D01*
X219705Y-139331D01*
X221097D01*
X222383Y-138798D01*
X223368Y-137814D01*
X223901Y-136527D01*
Y-135135D01*
X223368Y-133848D01*
X222383Y-132864D01*
X221097Y-132331D01*
X219880D01*
X219538Y-131848D01*
X219381Y-131392D01*
X219963Y-130811D01*
X220496Y-129524D01*
Y-128132D01*
X219963Y-126846D01*
X219832Y-126714D01*
Y-82205D01*
X219638Y-81229D01*
X219085Y-80402D01*
X212554Y-73871D01*
Y-73280D01*
X212021Y-71993D01*
X211037Y-71009D01*
X209750Y-70476D01*
D02*
G37*
G36*
X528706Y-112693D02*
X513706D01*
X509921Y-113191D01*
X506393Y-114652D01*
X503364Y-116977D01*
X501040Y-120006D01*
X499579Y-123533D01*
X499081Y-127318D01*
X499579Y-131103D01*
X501040Y-134631D01*
X503364Y-137660D01*
X506393Y-139984D01*
X509921Y-141445D01*
X513706Y-141943D01*
X528706D01*
X532491Y-141445D01*
X536018Y-139984D01*
X539047Y-137660D01*
X541371Y-134631D01*
X542832Y-131103D01*
X543331Y-127318D01*
X542832Y-123533D01*
X541371Y-120006D01*
X539047Y-116977D01*
X536018Y-114652D01*
X532491Y-113191D01*
X528706Y-112693D01*
D02*
G37*
G36*
X499102Y-136199D02*
X497709D01*
X496423Y-136732D01*
X495438Y-137717D01*
X494906Y-139003D01*
Y-140396D01*
X495438Y-141682D01*
X496423Y-142667D01*
X497709Y-143199D01*
X499102D01*
X500388Y-142667D01*
X501373Y-141682D01*
X501906Y-140396D01*
Y-139003D01*
X501373Y-137717D01*
X500388Y-136732D01*
X499102Y-136199D01*
D02*
G37*
G36*
X438330Y-142759D02*
X436937D01*
X435651Y-143292D01*
X434836Y-144107D01*
X434121Y-143392D01*
X432835Y-142859D01*
X431443D01*
X430156Y-143392D01*
X429172Y-144377D01*
X428639Y-145663D01*
Y-147055D01*
X429172Y-148342D01*
X429753Y-148923D01*
X429172Y-149505D01*
X428639Y-150791D01*
Y-152184D01*
X429172Y-153470D01*
X430156Y-154455D01*
X431443Y-154987D01*
X432835D01*
X434121Y-154455D01*
X434819Y-153757D01*
X435451Y-154388D01*
X436737Y-154921D01*
X438130D01*
X439416Y-154388D01*
X440401Y-153404D01*
X440934Y-152117D01*
Y-150725D01*
X440401Y-149438D01*
X439902Y-148940D01*
X440601Y-148242D01*
X441133Y-146955D01*
Y-145563D01*
X440601Y-144277D01*
X439616Y-143292D01*
X438330Y-142759D01*
D02*
G37*
G36*
X542386Y-138746D02*
X540994D01*
X539707Y-139278D01*
X538723Y-140263D01*
X538190Y-141549D01*
Y-142942D01*
X538723Y-144228D01*
X539707Y-145213D01*
X540994Y-145746D01*
X542386D01*
X543673Y-145213D01*
X544657Y-144228D01*
X545190Y-142942D01*
Y-141549D01*
X544657Y-140263D01*
X543673Y-139278D01*
X542386Y-138746D01*
D02*
G37*
G36*
X43462Y-139857D02*
X42070D01*
X40784Y-140389D01*
X39799Y-141374D01*
X39266Y-142661D01*
Y-144053D01*
X39799Y-145339D01*
X40784Y-146324D01*
X42070Y-146857D01*
X43462D01*
X44749Y-146324D01*
X45733Y-145339D01*
X46266Y-144053D01*
Y-142661D01*
X45733Y-141374D01*
X44749Y-140389D01*
X43462Y-139857D01*
D02*
G37*
G36*
X53127Y-139808D02*
X51734D01*
X50448Y-140341D01*
X49463Y-141325D01*
X48931Y-142612D01*
Y-144004D01*
X49463Y-145290D01*
X50448Y-146275D01*
X51734Y-146808D01*
X53127D01*
X54413Y-146275D01*
X54802Y-145886D01*
X55649Y-145496D01*
X56129Y-145886D01*
X56695Y-146452D01*
X57982Y-146985D01*
X59374D01*
X60660Y-146452D01*
X61645Y-145468D01*
X62178Y-144181D01*
X63128Y-144095D01*
X63661Y-145381D01*
X64645Y-146366D01*
X65932Y-146899D01*
X67324D01*
X68610Y-146366D01*
X69595Y-145381D01*
X70128Y-144095D01*
Y-142703D01*
X69595Y-141416D01*
X68610Y-140432D01*
X67324Y-139899D01*
X65932D01*
X64645Y-140432D01*
X63661Y-141416D01*
X63128Y-142703D01*
X62178Y-142789D01*
X61645Y-141502D01*
X60660Y-140518D01*
X59374Y-139985D01*
X57982D01*
X56695Y-140518D01*
X56306Y-140906D01*
X55459Y-141297D01*
X54979Y-140906D01*
X54413Y-140341D01*
X53127Y-139808D01*
D02*
G37*
G36*
X246119Y-99566D02*
X244726D01*
X243440Y-100099D01*
X242455Y-101084D01*
X241922Y-102370D01*
Y-103763D01*
X242357Y-104812D01*
X242028Y-105555D01*
X241798Y-105828D01*
X241299D01*
X240013Y-106361D01*
X239029Y-107346D01*
X238496Y-108632D01*
Y-110024D01*
X239029Y-111311D01*
X239873Y-112155D01*
X239782Y-112859D01*
X239628Y-113236D01*
X236183Y-114662D01*
X233154Y-116987D01*
X230830Y-120016D01*
X229369Y-123543D01*
X228871Y-127328D01*
X229369Y-131113D01*
X230830Y-134641D01*
X233154Y-137670D01*
X236183Y-139994D01*
X239711Y-141455D01*
X243496Y-141953D01*
X258496D01*
X262281Y-141455D01*
X264042Y-140725D01*
X264618Y-141587D01*
X264394Y-141810D01*
X263862Y-143097D01*
Y-144489D01*
X264394Y-145775D01*
X265379Y-146760D01*
X266665Y-147293D01*
X268058D01*
X269344Y-146760D01*
X270329Y-145775D01*
X270862Y-144489D01*
Y-143097D01*
X270329Y-141810D01*
X269344Y-140826D01*
X268058Y-140293D01*
X267088D01*
X266743Y-139277D01*
X268837Y-137670D01*
X271161Y-134641D01*
X272623Y-131113D01*
X273121Y-127328D01*
X272623Y-123543D01*
X271161Y-120016D01*
X268837Y-116987D01*
X265808Y-114662D01*
X262281Y-113201D01*
X259711Y-112863D01*
X259347Y-111790D01*
X259583Y-111554D01*
X260116Y-110268D01*
Y-108875D01*
X259583Y-107589D01*
X258599Y-106604D01*
X257312Y-106072D01*
X255920D01*
X254634Y-106604D01*
X253649Y-107589D01*
X253406Y-108175D01*
X252306D01*
X251963Y-107346D01*
X250978Y-106361D01*
X249692Y-105828D01*
X249047D01*
X248817Y-105555D01*
X248488Y-104812D01*
X248923Y-103763D01*
Y-102370D01*
X248390Y-101084D01*
X247405Y-100099D01*
X246119Y-99566D01*
D02*
G37*
G36*
X171692Y-141328D02*
X170299D01*
X169013Y-141861D01*
X168029Y-142845D01*
X167496Y-144132D01*
Y-145524D01*
X168029Y-146811D01*
X169013Y-147795D01*
X170299Y-148328D01*
X171692D01*
X172978Y-147795D01*
X173963Y-146811D01*
X174496Y-145524D01*
Y-144132D01*
X173963Y-142845D01*
X172978Y-141861D01*
X171692Y-141328D01*
D02*
G37*
G36*
X116692D02*
X115300D01*
X114013Y-141861D01*
X113029Y-142845D01*
X112496Y-144132D01*
Y-145524D01*
X113029Y-146811D01*
X114013Y-147795D01*
X115300Y-148328D01*
X116692D01*
X117978Y-147795D01*
X118963Y-146811D01*
X119496Y-145524D01*
Y-144132D01*
X118963Y-142845D01*
X117978Y-141861D01*
X116692Y-141328D01*
D02*
G37*
G36*
X239922Y-143329D02*
X238529D01*
X237243Y-143862D01*
X236259Y-144846D01*
X235726Y-146133D01*
Y-147525D01*
X236259Y-148812D01*
X237243Y-149796D01*
X238529Y-150329D01*
X239922D01*
X241208Y-149796D01*
X242193Y-148812D01*
X242726Y-147525D01*
Y-146133D01*
X242193Y-144846D01*
X241208Y-143862D01*
X239922Y-143329D01*
D02*
G37*
G36*
X519306Y-143606D02*
X517914D01*
X516627Y-144139D01*
X515643Y-145124D01*
X515110Y-146410D01*
Y-147802D01*
X515643Y-149089D01*
X516627Y-150073D01*
X517914Y-150606D01*
X519306D01*
X520592Y-150073D01*
X521577Y-149089D01*
X522110Y-147802D01*
Y-146410D01*
X521577Y-145124D01*
X520592Y-144139D01*
X519306Y-143606D01*
D02*
G37*
G36*
X11692Y-143828D02*
X10300D01*
X9013Y-144361D01*
X8029Y-145345D01*
X7496Y-146632D01*
Y-148024D01*
X8029Y-149311D01*
X9013Y-150295D01*
X10300Y-150828D01*
X11692D01*
X12978Y-150295D01*
X13963Y-149311D01*
X14496Y-148024D01*
Y-146632D01*
X13963Y-145345D01*
X12978Y-144361D01*
X11692Y-143828D01*
D02*
G37*
G36*
X26692Y-146328D02*
X25299D01*
X24013Y-146861D01*
X23029Y-147845D01*
X22496Y-149132D01*
Y-150524D01*
X23029Y-151811D01*
X24013Y-152795D01*
X25299Y-153328D01*
X26692D01*
X27978Y-152795D01*
X28963Y-151811D01*
X29496Y-150524D01*
Y-149132D01*
X28963Y-147845D01*
X27978Y-146861D01*
X26692Y-146328D01*
D02*
G37*
G36*
X601692Y-151328D02*
X600299D01*
X599013Y-151861D01*
X598029Y-152845D01*
X597496Y-154132D01*
Y-155524D01*
X598029Y-156811D01*
X599013Y-157795D01*
X600299Y-158328D01*
X601692D01*
X602978Y-157795D01*
X603963Y-156811D01*
X604496Y-155524D01*
Y-154132D01*
X603963Y-152845D01*
X602978Y-151861D01*
X601692Y-151328D01*
D02*
G37*
G36*
X325015Y-156049D02*
X323622D01*
X322336Y-156582D01*
X321351Y-157566D01*
X320819Y-158853D01*
Y-160245D01*
X321351Y-161532D01*
X322336Y-162516D01*
X323622Y-163049D01*
X325015D01*
X326301Y-162516D01*
X327286Y-161532D01*
X327819Y-160245D01*
Y-158853D01*
X327286Y-157566D01*
X326301Y-156582D01*
X325015Y-156049D01*
D02*
G37*
G36*
X316856D02*
X315463D01*
X314177Y-156582D01*
X313192Y-157566D01*
X312659Y-158853D01*
Y-160245D01*
X313192Y-161532D01*
X314177Y-162516D01*
X315463Y-163049D01*
X316856D01*
X318142Y-162516D01*
X319127Y-161532D01*
X319660Y-160245D01*
Y-158853D01*
X319127Y-157566D01*
X318142Y-156582D01*
X316856Y-156049D01*
D02*
G37*
G36*
X308697D02*
X307304D01*
X306018Y-156582D01*
X305033Y-157566D01*
X304500Y-158853D01*
Y-160245D01*
X305033Y-161532D01*
X306018Y-162516D01*
X307304Y-163049D01*
X308697D01*
X309983Y-162516D01*
X310968Y-161532D01*
X311500Y-160245D01*
Y-158853D01*
X310968Y-157566D01*
X309983Y-156582D01*
X308697Y-156049D01*
D02*
G37*
G36*
X300537D02*
X299145D01*
X297859Y-156582D01*
X296874Y-157566D01*
X296341Y-158853D01*
Y-160245D01*
X296874Y-161532D01*
X297859Y-162516D01*
X299145Y-163049D01*
X300537D01*
X301824Y-162516D01*
X302808Y-161532D01*
X303341Y-160245D01*
Y-158853D01*
X302808Y-157566D01*
X301824Y-156582D01*
X300537Y-156049D01*
D02*
G37*
G36*
X292378D02*
X290986D01*
X289700Y-156582D01*
X288715Y-157566D01*
X288182Y-158853D01*
Y-160245D01*
X288715Y-161532D01*
X289700Y-162516D01*
X290986Y-163049D01*
X292378D01*
X293665Y-162516D01*
X294649Y-161532D01*
X295182Y-160245D01*
Y-158853D01*
X294649Y-157566D01*
X293665Y-156582D01*
X292378Y-156049D01*
D02*
G37*
G36*
X591692Y-161328D02*
X590299D01*
X589013Y-161861D01*
X588029Y-162845D01*
X587496Y-164132D01*
Y-165524D01*
X588029Y-166811D01*
X589013Y-167795D01*
X590299Y-168328D01*
X591692D01*
X592978Y-167795D01*
X593963Y-166811D01*
X594496Y-165524D01*
Y-164132D01*
X593963Y-162845D01*
X592978Y-161861D01*
X591692Y-161328D01*
D02*
G37*
G36*
X579192Y-166328D02*
X577799D01*
X576513Y-166861D01*
X575529Y-167845D01*
X574996Y-169132D01*
Y-170524D01*
X575529Y-171811D01*
X576513Y-172795D01*
X577799Y-173328D01*
X579192D01*
X580478Y-172795D01*
X581463Y-171811D01*
X581996Y-170524D01*
Y-169132D01*
X581463Y-167845D01*
X580478Y-166861D01*
X579192Y-166328D01*
D02*
G37*
G36*
X564192D02*
X562799D01*
X561513Y-166861D01*
X560529Y-167845D01*
X559996Y-169132D01*
Y-170524D01*
X560529Y-171811D01*
X561513Y-172795D01*
X562799Y-173328D01*
X564192D01*
X565478Y-172795D01*
X566463Y-171811D01*
X566996Y-170524D01*
Y-169132D01*
X566463Y-167845D01*
X565478Y-166861D01*
X564192Y-166328D01*
D02*
G37*
G36*
X549192D02*
X547799D01*
X546513Y-166861D01*
X545529Y-167845D01*
X544996Y-169132D01*
Y-170524D01*
X545529Y-171811D01*
X546513Y-172795D01*
X547799Y-173328D01*
X549192D01*
X550478Y-172795D01*
X551463Y-171811D01*
X551996Y-170524D01*
Y-169132D01*
X551463Y-167845D01*
X550478Y-166861D01*
X549192Y-166328D01*
D02*
G37*
G36*
X534192D02*
X532799D01*
X531513Y-166861D01*
X530529Y-167845D01*
X529996Y-169132D01*
Y-170524D01*
X530529Y-171811D01*
X531513Y-172795D01*
X532799Y-173328D01*
X534192D01*
X535478Y-172795D01*
X536463Y-171811D01*
X536996Y-170524D01*
Y-169132D01*
X536463Y-167845D01*
X535478Y-166861D01*
X534192Y-166328D01*
D02*
G37*
G36*
X519192D02*
X517799D01*
X516513Y-166861D01*
X515529Y-167845D01*
X514996Y-169132D01*
Y-170524D01*
X515529Y-171811D01*
X516513Y-172795D01*
X517799Y-173328D01*
X519192D01*
X520478Y-172795D01*
X521463Y-171811D01*
X521996Y-170524D01*
Y-169132D01*
X521463Y-167845D01*
X520478Y-166861D01*
X519192Y-166328D01*
D02*
G37*
G36*
X504192D02*
X502799D01*
X501513Y-166861D01*
X500529Y-167845D01*
X499996Y-169132D01*
Y-170524D01*
X500529Y-171811D01*
X501513Y-172795D01*
X502799Y-173328D01*
X504192D01*
X505478Y-172795D01*
X506463Y-171811D01*
X506996Y-170524D01*
Y-169132D01*
X506463Y-167845D01*
X505478Y-166861D01*
X504192Y-166328D01*
D02*
G37*
G36*
X489192D02*
X487799D01*
X486513Y-166861D01*
X485529Y-167845D01*
X484996Y-169132D01*
Y-170524D01*
X485529Y-171811D01*
X486513Y-172795D01*
X487799Y-173328D01*
X489192D01*
X490478Y-172795D01*
X491463Y-171811D01*
X491996Y-170524D01*
Y-169132D01*
X491463Y-167845D01*
X490478Y-166861D01*
X489192Y-166328D01*
D02*
G37*
G36*
X274192D02*
X272799D01*
X271513Y-166861D01*
X270529Y-167845D01*
X269996Y-169132D01*
Y-170524D01*
X270529Y-171811D01*
X271513Y-172795D01*
X272799Y-173328D01*
X274192D01*
X275478Y-172795D01*
X276463Y-171811D01*
X276996Y-170524D01*
Y-169132D01*
X276463Y-167845D01*
X275478Y-166861D01*
X274192Y-166328D01*
D02*
G37*
G36*
X259192D02*
X257799D01*
X256513Y-166861D01*
X255529Y-167845D01*
X254996Y-169132D01*
Y-170524D01*
X255529Y-171811D01*
X256513Y-172795D01*
X257799Y-173328D01*
X259192D01*
X260478Y-172795D01*
X261463Y-171811D01*
X261996Y-170524D01*
Y-169132D01*
X261463Y-167845D01*
X260478Y-166861D01*
X259192Y-166328D01*
D02*
G37*
G36*
X244192D02*
X242799D01*
X241513Y-166861D01*
X240529Y-167845D01*
X239996Y-169132D01*
Y-170524D01*
X240529Y-171811D01*
X241513Y-172795D01*
X242799Y-173328D01*
X244192D01*
X245478Y-172795D01*
X246463Y-171811D01*
X246996Y-170524D01*
Y-169132D01*
X246463Y-167845D01*
X245478Y-166861D01*
X244192Y-166328D01*
D02*
G37*
G36*
X229192D02*
X227799D01*
X226513Y-166861D01*
X225529Y-167845D01*
X224996Y-169132D01*
Y-170524D01*
X225529Y-171811D01*
X226513Y-172795D01*
X227799Y-173328D01*
X229192D01*
X230478Y-172795D01*
X231463Y-171811D01*
X231996Y-170524D01*
Y-169132D01*
X231463Y-167845D01*
X230478Y-166861D01*
X229192Y-166328D01*
D02*
G37*
%LPD*%
D72*
X398125Y-124976D02*
X425061Y-98041D01*
X421734Y-53002D02*
X425061Y-56328D01*
Y-98041D02*
Y-56328D01*
X295996Y38392D02*
Y92392D01*
Y38392D02*
X306706Y27682D01*
X375221Y-140809D02*
X378054Y-137976D01*
X332738Y-140809D02*
X375221D01*
X209054Y-73976D02*
X217283Y-82205D01*
Y-128541D02*
Y-82205D01*
X93054Y80024D02*
Y117024D01*
X58054Y45024D02*
X93054Y80024D01*
X288706Y99682D02*
X295996Y92392D01*
X216996Y-128828D02*
X217283Y-128541D01*
X359706Y27794D02*
Y41550D01*
Y27794D02*
X360829Y26670D01*
Y26264D02*
Y26670D01*
X390024Y63001D02*
X425706Y98682D01*
X381156Y63001D02*
X390024D01*
X359706Y41550D02*
X381156Y63001D01*
X410514Y-69436D02*
Y-35436D01*
X412942Y-94209D02*
Y-71864D01*
X410514Y-69436D02*
X412942Y-71864D01*
X410139Y-105891D02*
X418692Y-97338D01*
X416054Y-65132D02*
X418692Y-67769D01*
Y-97338D02*
Y-67769D01*
X416054Y-65132D02*
Y-36976D01*
X359054Y-124976D02*
X398125D01*
X421734Y-53002D02*
Y-37868D01*
X447139Y-48726D02*
X451619Y-44246D01*
X456439Y-41317D02*
Y-39425D01*
X453510Y-44246D02*
X456439Y-41317D01*
X451619Y-44246D02*
X453510D01*
X456439Y-39425D02*
X459888Y-35976D01*
X444202Y-51655D02*
X447131Y-48726D01*
X431054Y-64810D02*
X444202Y-51662D01*
X346246Y-119238D02*
Y-97188D01*
X444202Y-51662D02*
Y-51655D01*
X346246Y-119238D02*
X356983Y-129976D01*
X447131Y-48726D02*
X447139D01*
X459888Y-35976D02*
X470054D01*
X402054Y-129976D02*
X431054Y-100976D01*
Y-64810D01*
X356983Y-129976D02*
X402054D01*
X298054Y-134976D02*
X375054D01*
X435054Y-74976D02*
X461436Y-48594D01*
X375054Y-134976D02*
X376054Y-133976D01*
X403711D02*
X435054Y-102633D01*
X461436Y-48594D02*
Y-41726D01*
X288054Y-124976D02*
X298054Y-134976D01*
X376054Y-133976D02*
X403711D01*
X435054Y-102633D02*
Y-74976D01*
X466054Y-46672D02*
X471000Y-41726D01*
X466054Y-49976D02*
Y-46672D01*
X405368Y-137976D02*
X439054Y-104290D01*
Y-76976D02*
X466054Y-49976D01*
X378054Y-137976D02*
X405368D01*
X439054Y-104290D02*
Y-76976D01*
X198054Y-63806D02*
X200059Y-61801D01*
X198054Y-80976D02*
Y-63806D01*
X200059Y-61801D02*
Y-61395D01*
X161054Y-75976D02*
Y-49949D01*
X166054Y-44949D01*
X166054Y-94976D02*
Y-55946D01*
X172000Y-49999D01*
X166054Y-94976D02*
X166054Y-94976D01*
X171706Y-101324D02*
Y-61850D01*
X115568Y-106816D02*
X166214D01*
X105707Y-116678D02*
X115568Y-106816D01*
X166214D02*
X171706Y-101324D01*
Y-61850D02*
X179363Y-54192D01*
D77*
X928047Y-48899D02*
D03*
X920047D02*
D03*
X916047Y-41899D02*
D03*
X908047D02*
D03*
X900047D02*
D03*
X896047Y-48899D02*
D03*
X892047Y-41899D02*
D03*
X888047Y-48899D02*
D03*
X880047D02*
D03*
X912047D02*
D03*
X932047Y-41899D02*
D03*
X876047D02*
D03*
D78*
X862747Y-47799D02*
D03*
X945347D02*
D03*
X948947Y-91799D02*
D03*
X859147D02*
D03*
D79*
X844546Y7172D02*
D03*
D80*
X944546D02*
D03*
X919546D02*
D03*
X894546D02*
D03*
X869546D02*
D03*
D81*
X214909Y-61899D02*
D03*
X510586Y54742D02*
D03*
X505098Y53028D02*
D03*
X800973Y-64499D02*
D03*
X791238Y-65072D02*
D03*
X783050Y-66732D02*
D03*
X701238Y42980D02*
D03*
X701979Y51286D02*
D03*
X724621Y51402D02*
D03*
X505402Y-11818D02*
D03*
X370446Y35024D02*
D03*
X305164Y45739D02*
D03*
X843166Y48836D02*
D03*
X882650Y1270D02*
D03*
X695792Y-7832D02*
D03*
X583788Y14568D02*
D03*
X570811Y-20853D02*
D03*
X577148Y-23503D02*
D03*
X265250Y-20646D02*
D03*
X275873Y-20726D02*
D03*
X188421Y-44027D02*
D03*
X191770Y-55880D02*
D03*
X58875Y-48068D02*
D03*
X380920Y160100D02*
D03*
X375996Y-164828D02*
D03*
X66628Y-143399D02*
D03*
X67297Y150618D02*
D03*
X67410Y143902D02*
D03*
X59363Y143822D02*
D03*
X58678Y-143485D02*
D03*
X50800Y149860D02*
D03*
X35560D02*
D03*
X42906Y144042D02*
D03*
X53324Y143724D02*
D03*
X55880Y-149860D02*
D03*
X40640D02*
D03*
X430530Y165100D02*
D03*
X425530Y170100D02*
D03*
X435530D02*
D03*
Y160100D02*
D03*
X425530D02*
D03*
X375920Y165100D02*
D03*
X370920Y170100D02*
D03*
X380920D02*
D03*
X370920Y160100D02*
D03*
X308000Y-159549D02*
D03*
X324319D02*
D03*
X316159D02*
D03*
X299841D02*
D03*
X432139Y-151488D02*
D03*
X437633Y-146259D02*
D03*
X437434Y-151421D02*
D03*
X432139Y-146359D02*
D03*
X377390Y-151474D02*
D03*
X382885Y-146246D02*
D03*
X382685Y-151407D02*
D03*
X377390Y-146346D02*
D03*
X332738Y-140809D02*
D03*
X310114Y170219D02*
D03*
X295910Y170180D02*
D03*
X376339Y145784D02*
D03*
X381833Y151012D02*
D03*
X381633Y145850D02*
D03*
X376339Y150912D02*
D03*
X431766Y150950D02*
D03*
X437061Y145888D02*
D03*
X437261Y151050D02*
D03*
X431766Y145822D02*
D03*
X292100Y160130D02*
D03*
X309880D02*
D03*
X323791Y156708D02*
D03*
X651206Y-139818D02*
D03*
X643706D02*
D03*
X636206D02*
D03*
Y-132318D02*
D03*
X643706D02*
D03*
X651206D02*
D03*
Y-124818D02*
D03*
X643706D02*
D03*
X636206D02*
D03*
X613706D02*
D03*
X621206D02*
D03*
X628706D02*
D03*
Y-132318D02*
D03*
X621206D02*
D03*
X613706D02*
D03*
Y-139818D02*
D03*
X621206D02*
D03*
X628706D02*
D03*
X598706Y-124818D02*
D03*
X606206D02*
D03*
Y-132318D02*
D03*
X605996Y-94828D02*
D03*
Y-87328D02*
D03*
X613496Y-79828D02*
D03*
X620996D02*
D03*
X628496D02*
D03*
Y-87328D02*
D03*
X620996D02*
D03*
X613496D02*
D03*
Y-94828D02*
D03*
X620996D02*
D03*
X628496D02*
D03*
X635996Y-64828D02*
D03*
X643496D02*
D03*
X628496D02*
D03*
X620996Y-72328D02*
D03*
X628496D02*
D03*
X583496Y-29828D02*
D03*
X590996D02*
D03*
Y-37328D02*
D03*
X583496D02*
D03*
X575996D02*
D03*
X598706Y-102318D02*
D03*
X606206D02*
D03*
Y-109818D02*
D03*
X598706D02*
D03*
X598496Y-94828D02*
D03*
X598706Y-117318D02*
D03*
X606206D02*
D03*
X613706Y-102318D02*
D03*
X621206D02*
D03*
X628706D02*
D03*
Y-109818D02*
D03*
X621206D02*
D03*
X613706D02*
D03*
Y-117318D02*
D03*
X621206D02*
D03*
X628706D02*
D03*
X636206Y-102318D02*
D03*
X643706D02*
D03*
X651206D02*
D03*
Y-109818D02*
D03*
X643706D02*
D03*
X636206D02*
D03*
Y-117318D02*
D03*
X643706D02*
D03*
X651206D02*
D03*
X636206Y-79818D02*
D03*
X643706D02*
D03*
X651206D02*
D03*
Y-87318D02*
D03*
X643706D02*
D03*
X636206D02*
D03*
Y-94818D02*
D03*
X643706D02*
D03*
X651206D02*
D03*
X658706Y-87318D02*
D03*
X666206D02*
D03*
X673706D02*
D03*
Y-94818D02*
D03*
X666206D02*
D03*
X658706D02*
D03*
Y-102318D02*
D03*
X666206D02*
D03*
X673706D02*
D03*
X681206Y-87318D02*
D03*
X688706D02*
D03*
X696206D02*
D03*
Y-94818D02*
D03*
X688706D02*
D03*
X681206D02*
D03*
Y-102318D02*
D03*
X688706D02*
D03*
X696206D02*
D03*
X636206Y-72318D02*
D03*
X643706D02*
D03*
X651206D02*
D03*
X628706Y-14818D02*
D03*
X636206D02*
D03*
X643706D02*
D03*
Y-22318D02*
D03*
X636206D02*
D03*
X628706D02*
D03*
Y-29818D02*
D03*
X636206D02*
D03*
X643706D02*
D03*
X666206Y-72318D02*
D03*
X658706D02*
D03*
Y-79818D02*
D03*
X666206D02*
D03*
X673706D02*
D03*
X320658Y-97015D02*
D03*
X433706Y88682D02*
D03*
X425706Y89682D02*
D03*
X420706Y84682D02*
D03*
X427706Y82682D02*
D03*
X434706Y81682D02*
D03*
X364706Y82682D02*
D03*
Y76682D02*
D03*
Y70682D02*
D03*
Y34682D02*
D03*
X365477Y101526D02*
D03*
X372105Y101672D02*
D03*
X378421Y101638D02*
D03*
X365382Y93046D02*
D03*
X393605Y-101492D02*
D03*
X400225Y-101662D02*
D03*
X406280Y-101606D02*
D03*
X389389Y-94532D02*
D03*
X407100Y-89666D02*
D03*
X403253Y-94051D02*
D03*
X475555Y-101215D02*
D03*
X470000Y-101650D02*
D03*
X463722Y-101564D02*
D03*
X459366Y-94341D02*
D03*
X477108Y-90643D02*
D03*
X472739Y-94029D02*
D03*
X337359Y-101688D02*
D03*
X330583Y-101528D02*
D03*
X324066Y-101463D02*
D03*
X339327Y-89945D02*
D03*
X334068Y-94043D02*
D03*
X190901Y-86672D02*
D03*
X184255Y-86628D02*
D03*
X177743Y-86606D02*
D03*
X177743Y-77908D02*
D03*
X184299Y-77975D02*
D03*
X190968Y-78153D02*
D03*
X155998Y-86561D02*
D03*
X149531Y-86583D02*
D03*
X142929Y-86561D02*
D03*
X149375Y-78086D02*
D03*
X155262Y-77952D02*
D03*
X137287Y-82435D02*
D03*
X23071Y-136271D02*
D03*
X23003Y-129667D02*
D03*
X31914Y-129803D02*
D03*
X31181Y-123774D02*
D03*
X22574Y-123109D02*
D03*
X23221Y116365D02*
D03*
Y123007D02*
D03*
X22883Y129198D02*
D03*
X31740Y118720D02*
D03*
X31996Y124189D02*
D03*
X31973Y129930D02*
D03*
X162360Y78285D02*
D03*
X155832Y78242D02*
D03*
X149389D02*
D03*
X149432Y86617D02*
D03*
X156004D02*
D03*
X162618Y86660D02*
D03*
X183457Y77873D02*
D03*
X189529Y77515D02*
D03*
X190909Y86822D02*
D03*
X184253Y86768D02*
D03*
X196741Y86561D02*
D03*
X247068Y12467D02*
D03*
X283996Y85672D02*
D03*
X284297Y91894D02*
D03*
X266871Y107256D02*
D03*
X251459Y18543D02*
D03*
X410996Y70172D02*
D03*
X348496Y-79828D02*
D03*
X488496Y170172D02*
D03*
X503496D02*
D03*
X518496D02*
D03*
X533496D02*
D03*
X548496D02*
D03*
X563496D02*
D03*
X578496D02*
D03*
X590996Y162672D02*
D03*
X600996Y152672D02*
D03*
X318496Y170172D02*
D03*
X303496D02*
D03*
X288496D02*
D03*
X273496D02*
D03*
X258496D02*
D03*
X243496D02*
D03*
X228496D02*
D03*
X175996Y150172D02*
D03*
X165996D02*
D03*
X120996D02*
D03*
X110996D02*
D03*
X58496D02*
D03*
X43496D02*
D03*
X28496D02*
D03*
X13496D02*
D03*
X8496Y137672D02*
D03*
Y122672D02*
D03*
Y107672D02*
D03*
Y92672D02*
D03*
Y77672D02*
D03*
Y62672D02*
D03*
Y47672D02*
D03*
Y32672D02*
D03*
Y17672D02*
D03*
Y-4828D02*
D03*
Y-19828D02*
D03*
Y-124828D02*
D03*
Y-139828D02*
D03*
X18496Y-149828D02*
D03*
X33496D02*
D03*
X48496D02*
D03*
X63496D02*
D03*
X110996D02*
D03*
X120996D02*
D03*
X165996D02*
D03*
X175996D02*
D03*
X220996Y-169828D02*
D03*
X235996D02*
D03*
X250996D02*
D03*
X265996D02*
D03*
X280996D02*
D03*
X295996D02*
D03*
X310996D02*
D03*
X325996D02*
D03*
X370996D02*
D03*
X380996D02*
D03*
X480996D02*
D03*
X495996D02*
D03*
X510996D02*
D03*
X525996D02*
D03*
X540996D02*
D03*
X555996D02*
D03*
X570996D02*
D03*
X585996D02*
D03*
X595996Y-159828D02*
D03*
X605996Y-149828D02*
D03*
X703496Y-87328D02*
D03*
X710996D02*
D03*
X700996Y-14828D02*
D03*
X693496D02*
D03*
X650996Y-29828D02*
D03*
Y-22328D02*
D03*
Y-14828D02*
D03*
X658496D02*
D03*
Y-22328D02*
D03*
Y-29828D02*
D03*
X360841Y-53964D02*
D03*
X337022Y-56761D02*
D03*
X405996Y-74828D02*
D03*
X225996Y70172D02*
D03*
X75996Y-47328D02*
D03*
X226676Y-138732D02*
D03*
X277213Y-132592D02*
D03*
X285996Y-82328D02*
D03*
X610996Y140172D02*
D03*
X625996D02*
D03*
X640996D02*
D03*
X650996Y132672D02*
D03*
Y117672D02*
D03*
X360996Y-79828D02*
D03*
X469654Y-27732D02*
D03*
X433496Y67672D02*
D03*
X474928Y-31557D02*
D03*
X480600Y-29528D02*
D03*
X477971Y-38059D02*
D03*
X484104Y-36860D02*
D03*
X380996Y-159828D02*
D03*
X370996D02*
D03*
X435996Y-169828D02*
D03*
X425996D02*
D03*
Y-157328D02*
D03*
X435996D02*
D03*
X425996Y-137328D02*
D03*
X175996Y-139828D02*
D03*
X165996D02*
D03*
X110996D02*
D03*
X120996D02*
D03*
X48425Y-108703D02*
D03*
X39916Y-109583D02*
D03*
X26378Y-107654D02*
D03*
X31733Y-136135D02*
D03*
X65698Y-48029D02*
D03*
X73547Y67613D02*
D03*
X149660Y63618D02*
D03*
X110996Y140172D02*
D03*
X121072Y141167D02*
D03*
X110996Y127672D02*
D03*
X100996Y115172D02*
D03*
X26001Y84660D02*
D03*
X25996Y97672D02*
D03*
X51270Y43316D02*
D03*
X518496Y-87328D02*
D03*
X489461Y-85516D02*
D03*
X498496Y22672D02*
D03*
X500996Y27672D02*
D03*
X25996Y42672D02*
D03*
X38496Y32672D02*
D03*
X231804Y-143455D02*
D03*
X249481Y-147976D02*
D03*
X259535Y-147166D02*
D03*
X273893Y-138790D02*
D03*
X165996Y140172D02*
D03*
X175996D02*
D03*
X165038Y128553D02*
D03*
X174950Y126821D02*
D03*
X220996Y162672D02*
D03*
Y155172D02*
D03*
Y147672D02*
D03*
Y140172D02*
D03*
X235563Y144373D02*
D03*
X243228Y145188D02*
D03*
X260608Y145158D02*
D03*
X268363Y142442D02*
D03*
X276902Y130885D02*
D03*
X276419Y122859D02*
D03*
X503795Y-144130D02*
D03*
X509984Y-147036D02*
D03*
X527703Y-147139D02*
D03*
X534911Y-145949D02*
D03*
X546140Y-135987D02*
D03*
X494901Y-132855D02*
D03*
X493974Y-125018D02*
D03*
X500996Y-112328D02*
D03*
X507467Y-108855D02*
D03*
X524471Y-107689D02*
D03*
X532083Y-108364D02*
D03*
X544762Y-116606D02*
D03*
X547490Y-122750D02*
D03*
X548175Y125214D02*
D03*
X547490Y131890D02*
D03*
X539775Y143574D02*
D03*
X531949Y146151D02*
D03*
X515782Y146807D02*
D03*
X507534Y145542D02*
D03*
X496323Y136269D02*
D03*
X493974Y129622D02*
D03*
X497985Y115720D02*
D03*
X541690Y112394D02*
D03*
X527703Y107501D02*
D03*
X518610Y107534D02*
D03*
X504213Y110274D02*
D03*
X533496Y-37328D02*
D03*
X396701Y18436D02*
D03*
X480996Y162672D02*
D03*
Y147672D02*
D03*
X489656Y136438D02*
D03*
X680996Y-79828D02*
D03*
X688496D02*
D03*
X695996D02*
D03*
X703496D02*
D03*
X710996D02*
D03*
X673496Y-72328D02*
D03*
X680996D02*
D03*
X688496D02*
D03*
Y-64828D02*
D03*
X680996D02*
D03*
X673496D02*
D03*
X665996D02*
D03*
X695996Y-59828D02*
D03*
X688496D02*
D03*
X680996D02*
D03*
X673496D02*
D03*
X665996D02*
D03*
X695996Y-27328D02*
D03*
X693496Y-22328D02*
D03*
X698496D02*
D03*
X650996Y-64828D02*
D03*
X658496D02*
D03*
X703496Y-94828D02*
D03*
X710869Y-94773D02*
D03*
X703496Y-102328D02*
D03*
X710996D02*
D03*
X86054Y-120976D02*
D03*
X827576Y-29538D02*
D03*
X972680Y-38323D02*
D03*
X972172Y-49832D02*
D03*
X912840Y-67602D02*
D03*
X913161Y-87182D02*
D03*
X913393Y-108053D02*
D03*
X913348Y-96118D02*
D03*
X951942Y107881D02*
D03*
X950828Y93067D02*
D03*
X936796Y93652D02*
D03*
Y107622D02*
D03*
X944805Y100443D02*
D03*
X883354Y60201D02*
D03*
X897047Y62201D02*
D03*
X913805Y62709D02*
D03*
X705656Y64442D02*
D03*
X713214Y70797D02*
D03*
X559655Y38410D02*
D03*
X579753Y38330D02*
D03*
X568496Y37772D02*
D03*
X281855Y-104818D02*
D03*
X275748D02*
D03*
X269640D02*
D03*
X113340Y75024D02*
D03*
X113219Y68526D02*
D03*
X102079D02*
D03*
Y75024D02*
D03*
X305240Y68152D02*
D03*
X312756Y82751D02*
D03*
X306395Y83152D02*
D03*
X266623Y76972D02*
D03*
X799502Y-74899D02*
D03*
X762298Y-97586D02*
D03*
X104054Y43024D02*
D03*
X129943Y44391D02*
D03*
X159159Y49653D02*
D03*
X107649Y68526D02*
D03*
X108325Y53396D02*
D03*
X653496Y90172D02*
D03*
X473856Y42751D02*
D03*
X18976Y-109050D02*
D03*
X8496Y-27328D02*
D03*
Y-34828D02*
D03*
Y-42328D02*
D03*
X45996Y-328D02*
D03*
X51996Y5672D02*
D03*
X64996Y9672D02*
D03*
X57996Y10672D02*
D03*
X81996Y-23328D02*
D03*
X335996Y24672D02*
D03*
X328996D02*
D03*
X321996Y17672D02*
D03*
X328996D02*
D03*
X335996D02*
D03*
X342996D02*
D03*
Y10672D02*
D03*
X335996D02*
D03*
X328996D02*
D03*
X321996D02*
D03*
X314996D02*
D03*
X86695Y-66802D02*
D03*
X343735Y-48538D02*
D03*
X380996Y-49250D02*
D03*
X810820Y-26490D02*
D03*
X806933Y-16859D02*
D03*
X495705Y73216D02*
D03*
X492203Y64501D02*
D03*
X516156Y53316D02*
D03*
X521311Y49066D02*
D03*
X710996Y57672D02*
D03*
X53200Y-25808D02*
D03*
X55656Y-31007D02*
D03*
X65750Y-40845D02*
D03*
X54318Y-17619D02*
D03*
X48774Y-16092D02*
D03*
X43231Y-14563D02*
D03*
X42262Y-8461D02*
D03*
X119738Y12024D02*
D03*
X112298D02*
D03*
X85988Y35265D02*
D03*
X80445Y36793D02*
D03*
X58054Y45024D02*
D03*
X721937Y-43310D02*
D03*
X825996Y-99828D02*
D03*
X617205Y-34403D02*
D03*
X606436Y-16579D02*
D03*
Y-22579D02*
D03*
Y-28579D02*
D03*
X606205Y-34403D02*
D03*
X617205Y-16403D02*
D03*
Y-22403D02*
D03*
Y-28403D02*
D03*
X812348Y-103916D02*
D03*
X818699Y-17356D02*
D03*
X864526Y-7910D02*
D03*
X848071Y-8000D02*
D03*
X767761Y12255D02*
D03*
X748242Y-7231D02*
D03*
X727706Y-9803D02*
D03*
X740855Y-64619D02*
D03*
X484208Y141846D02*
D03*
X481178Y155186D02*
D03*
X510124Y108406D02*
D03*
X534911Y108691D02*
D03*
X546116Y118727D02*
D03*
X494901Y121785D02*
D03*
X500996Y142312D02*
D03*
X524548Y146640D02*
D03*
X544762Y138034D02*
D03*
X548175Y-129426D02*
D03*
X539508Y-110964D02*
D03*
X515502Y-107856D02*
D03*
X496323Y-118371D02*
D03*
X498406Y-139699D02*
D03*
X541690Y-142246D02*
D03*
X518610Y-147106D02*
D03*
X272798Y113626D02*
D03*
X273492Y138338D02*
D03*
X251344Y145369D02*
D03*
X228496Y140172D02*
D03*
X220996Y170172D02*
D03*
X170996Y132672D02*
D03*
X267362Y-143793D02*
D03*
X220401Y-135831D02*
D03*
X239226Y-146829D02*
D03*
X17713Y35504D02*
D03*
X18085Y48718D02*
D03*
X421015Y71221D02*
D03*
X512585Y68812D02*
D03*
X550900Y38296D02*
D03*
X544122Y40701D02*
D03*
X533496Y-62328D02*
D03*
X503496Y-97328D02*
D03*
X525996Y-77328D02*
D03*
X49692Y50271D02*
D03*
X120996Y135172D02*
D03*
X78504Y74211D02*
D03*
X36750Y-4483D02*
D03*
X254587Y12828D02*
D03*
X54899Y-108942D02*
D03*
X115996Y-134828D02*
D03*
X170996D02*
D03*
X430996Y-164828D02*
D03*
X610904Y-9012D02*
D03*
X547956Y-16131D02*
D03*
X441529Y-11800D02*
D03*
X643496Y115172D02*
D03*
X650996Y125172D02*
D03*
X648496Y140172D02*
D03*
X633496D02*
D03*
X618496D02*
D03*
X600996Y-154828D02*
D03*
X590996Y-164828D02*
D03*
X578496Y-169828D02*
D03*
X563496D02*
D03*
X548496D02*
D03*
X533496D02*
D03*
X518496D02*
D03*
X503496D02*
D03*
X488496D02*
D03*
X291682Y-159549D02*
D03*
X273496Y-169828D02*
D03*
X258496D02*
D03*
X243496D02*
D03*
X228496D02*
D03*
X170996Y-144828D02*
D03*
X115996D02*
D03*
X52431Y-143308D02*
D03*
X42766Y-143357D02*
D03*
X25996Y-149828D02*
D03*
X10996Y-147328D02*
D03*
X8496Y-132328D02*
D03*
Y-117328D02*
D03*
Y-12328D02*
D03*
Y2672D02*
D03*
Y10172D02*
D03*
Y25172D02*
D03*
Y40172D02*
D03*
Y55172D02*
D03*
Y70172D02*
D03*
Y85172D02*
D03*
Y100172D02*
D03*
Y115172D02*
D03*
Y130172D02*
D03*
Y145172D02*
D03*
X20996Y150172D02*
D03*
X115996Y145172D02*
D03*
X170996D02*
D03*
X235996Y170172D02*
D03*
X250996D02*
D03*
X265996D02*
D03*
X280996D02*
D03*
X300990Y160020D02*
D03*
X318770D02*
D03*
X325996Y170172D02*
D03*
X606513Y147205D02*
D03*
X596513Y157205D02*
D03*
X585996Y170172D02*
D03*
X570996D02*
D03*
X555996D02*
D03*
X540996D02*
D03*
X525996D02*
D03*
X510996D02*
D03*
X495996D02*
D03*
X481440Y170115D02*
D03*
X458496Y135172D02*
D03*
X653496Y97672D02*
D03*
X645996D02*
D03*
X833496Y-112328D02*
D03*
X812348Y-92289D02*
D03*
X769214Y-12703D02*
D03*
X755996Y-12328D02*
D03*
X704427Y-7485D02*
D03*
X615612Y50629D02*
D03*
X570840Y14014D02*
D03*
X584058Y-16355D02*
D03*
X571500Y-29210D02*
D03*
X848496Y90172D02*
D03*
X840996D02*
D03*
X833496D02*
D03*
Y97672D02*
D03*
X840996D02*
D03*
X848496D02*
D03*
Y105172D02*
D03*
X840996D02*
D03*
X833496D02*
D03*
X660996Y90172D02*
D03*
X668496D02*
D03*
Y97672D02*
D03*
X660996D02*
D03*
X690996Y82672D02*
D03*
X683496D02*
D03*
X675996Y90172D02*
D03*
X683496D02*
D03*
X690996D02*
D03*
Y97672D02*
D03*
X683496D02*
D03*
X675996D02*
D03*
X713496Y82672D02*
D03*
X705996D02*
D03*
X698496D02*
D03*
Y90172D02*
D03*
X705996D02*
D03*
X713496D02*
D03*
Y97672D02*
D03*
X705996D02*
D03*
X698496D02*
D03*
X825996Y90172D02*
D03*
X818496D02*
D03*
X810996D02*
D03*
Y97672D02*
D03*
X818496D02*
D03*
X825996D02*
D03*
Y105172D02*
D03*
X818496D02*
D03*
X810996D02*
D03*
X803496Y90172D02*
D03*
X795996D02*
D03*
X788496D02*
D03*
Y97672D02*
D03*
X795996D02*
D03*
X803496D02*
D03*
Y105172D02*
D03*
X795996D02*
D03*
X788496D02*
D03*
X780996Y90172D02*
D03*
X773496D02*
D03*
X765996D02*
D03*
Y97672D02*
D03*
X773496D02*
D03*
X780996D02*
D03*
Y105172D02*
D03*
X773496D02*
D03*
X765996D02*
D03*
X758496Y90172D02*
D03*
X750996D02*
D03*
X743496D02*
D03*
Y97672D02*
D03*
X750996D02*
D03*
X758496D02*
D03*
Y105172D02*
D03*
X750996D02*
D03*
X743496D02*
D03*
X735996Y90172D02*
D03*
X728496D02*
D03*
X720996D02*
D03*
Y97672D02*
D03*
X728496D02*
D03*
X735996D02*
D03*
Y105172D02*
D03*
X728496D02*
D03*
X287996Y-57328D02*
D03*
X275067Y-113156D02*
D03*
X279595Y-116742D02*
D03*
X503819Y-43701D02*
D03*
X446909Y82988D02*
D03*
X441578Y86633D02*
D03*
X442088Y77188D02*
D03*
X449996Y76672D02*
D03*
X450044Y69859D02*
D03*
X441996Y69672D02*
D03*
X243026Y105909D02*
D03*
X249876Y105849D02*
D03*
X257996Y105672D02*
D03*
X216996Y-128828D02*
D03*
X256616Y-109572D02*
D03*
X245422Y-103066D02*
D03*
X248996Y-109328D02*
D03*
X241996D02*
D03*
X204342Y-112435D02*
D03*
X164776Y20026D02*
D03*
X155142Y13918D02*
D03*
X159568Y17588D02*
D03*
X150615Y17463D02*
D03*
X147181Y12851D02*
D03*
X151708Y9306D02*
D03*
X261912Y-31464D02*
D03*
X267393Y-29726D02*
D03*
X261920Y-37910D02*
D03*
X267341Y-39824D02*
D03*
X264139Y-44600D02*
D03*
X268520Y-48324D02*
D03*
X218811Y50431D02*
D03*
X259706Y17682D02*
D03*
X410186Y2562D02*
D03*
X446289Y22401D02*
D03*
X445841Y8630D02*
D03*
X446975Y-13158D02*
D03*
X197187Y-29372D02*
D03*
X183081Y-41014D02*
D03*
X201067Y-45532D02*
D03*
X210054Y-45202D02*
D03*
X183882Y14484D02*
D03*
X179509Y9433D02*
D03*
X189426D02*
D03*
X65305Y16608D02*
D03*
X75706Y29682D02*
D03*
X85504Y9176D02*
D03*
X84706Y-18318D02*
D03*
X20550Y-67435D02*
D03*
X16356Y-82108D02*
D03*
X29802Y-84523D02*
D03*
X78666Y-65664D02*
D03*
X35053Y-102978D02*
D03*
X43151Y-77602D02*
D03*
Y-83936D02*
D03*
Y-90270D02*
D03*
Y-96604D02*
D03*
Y-102938D02*
D03*
X268976Y49874D02*
D03*
X425706Y98682D02*
D03*
X360829Y26264D02*
D03*
X288706Y99682D02*
D03*
X306706Y27682D02*
D03*
X105707Y-116678D02*
D03*
X35271Y-46595D02*
D03*
X41810Y-52086D02*
D03*
X629706Y88682D02*
D03*
X598747Y89634D02*
D03*
X553706Y49682D02*
D03*
X538706D02*
D03*
X559706D02*
D03*
X565706D02*
D03*
X571706D02*
D03*
X577706D02*
D03*
X614706Y60682D02*
D03*
X646706Y55682D02*
D03*
Y47682D02*
D03*
X657099Y64363D02*
D03*
X627706Y64682D02*
D03*
X635706D02*
D03*
X642706D02*
D03*
X584706Y60682D02*
D03*
X547008Y60425D02*
D03*
X584706Y52682D02*
D03*
X629706Y-3318D02*
D03*
X560706Y5682D02*
D03*
X598706Y-8318D02*
D03*
X720706Y57682D02*
D03*
X802765Y83691D02*
D03*
X520703Y-2372D02*
D03*
X526703D02*
D03*
Y2628D02*
D03*
Y7628D02*
D03*
X520703Y2628D02*
D03*
Y7628D02*
D03*
X557456Y-34364D02*
D03*
X556903Y-27141D02*
D03*
X510037Y-54420D02*
D03*
X510969Y-40858D02*
D03*
X428916Y-43812D02*
D03*
X416054Y-36976D02*
D03*
X161054Y-75976D02*
D03*
X715993Y-1688D02*
D03*
X812079Y-48101D02*
D03*
X856706Y-72318D02*
D03*
X778398Y-85625D02*
D03*
X613184Y6458D02*
D03*
X497706Y14682D02*
D03*
X456280Y41321D02*
D03*
X374972Y18662D02*
D03*
X380722Y18682D02*
D03*
X438645Y41024D02*
D03*
X312017Y-35630D02*
D03*
X244491Y-22586D02*
D03*
X213422Y36801D02*
D03*
X207489Y47872D02*
D03*
X168456Y59182D02*
D03*
X188493Y49107D02*
D03*
X185374Y40830D02*
D03*
X901689Y-24313D02*
D03*
X935706Y-64318D02*
D03*
X886000Y-20000D02*
D03*
X716005Y50006D02*
D03*
X771000Y-90999D02*
D03*
X392500Y51001D02*
D03*
X558466Y90801D02*
D03*
X577911Y86439D02*
D03*
X553842Y94480D02*
D03*
X549007Y99735D02*
D03*
X801141Y-25768D02*
D03*
X341480Y65521D02*
D03*
X342000Y72001D02*
D03*
Y79001D02*
D03*
X264375Y58583D02*
D03*
X266000Y71001D02*
D03*
X312000Y68000D02*
D03*
Y62501D02*
D03*
X305000D02*
D03*
X26000Y-77999D02*
D03*
X8952Y-58000D02*
D03*
X4702Y-66684D02*
D03*
X5333Y-72400D02*
D03*
X200059Y-61395D02*
D03*
X179363Y-54192D02*
D03*
X415000Y52070D02*
D03*
X230877Y20407D02*
D03*
X226551Y24195D02*
D03*
X222000Y34000D02*
D03*
X531000Y75400D02*
D03*
X471000Y-41726D02*
D03*
X539000Y80001D02*
D03*
X172000Y-49999D02*
D03*
X99956Y-31381D02*
D03*
X104022Y-27315D02*
D03*
X95727Y-35277D02*
D03*
X113657Y-21821D02*
D03*
X397000Y-74999D02*
D03*
X391000Y-74499D02*
D03*
X390000Y-80999D02*
D03*
X398000Y-87999D02*
D03*
X390000D02*
D03*
X398000Y-81999D02*
D03*
X397045Y-53976D02*
D03*
X374000Y48774D02*
D03*
X324000Y57000D02*
D03*
X584909Y80487D02*
D03*
X282329Y57214D02*
D03*
X283794Y62774D02*
D03*
X353000Y-56999D02*
D03*
X389282Y39719D02*
D03*
X131557Y-29249D02*
D03*
X137404Y-28525D02*
D03*
X141654Y-24387D02*
D03*
X146777Y-21776D02*
D03*
X131000Y-20476D02*
D03*
X275000Y88001D02*
D03*
X267000D02*
D03*
X374000Y82001D02*
D03*
X382000D02*
D03*
Y75001D02*
D03*
X374000D02*
D03*
Y68000D02*
D03*
X382000D02*
D03*
X418276Y32208D02*
D03*
X389269Y-17476D02*
D03*
X385396Y-21726D02*
D03*
X379646D02*
D03*
X385087Y-8561D02*
D03*
X382111Y-3641D02*
D03*
X379000Y-14999D02*
D03*
X373194Y-10869D02*
D03*
X375907Y-669D02*
D03*
X375224Y-35726D02*
D03*
X367959Y-33726D02*
D03*
X363554Y-30030D02*
D03*
X409763Y24539D02*
D03*
X381000Y2001D02*
D03*
X410514Y-35436D02*
D03*
X107710Y75024D02*
D03*
X267054Y82024D02*
D03*
X275054D02*
D03*
X469054Y-75976D02*
D03*
X460054D02*
D03*
Y-81976D02*
D03*
X469054D02*
D03*
Y-87976D02*
D03*
X460054D02*
D03*
X320054Y-86976D02*
D03*
X329054D02*
D03*
Y-80976D02*
D03*
X320054D02*
D03*
Y-74976D02*
D03*
X329054D02*
D03*
X275054Y-82976D02*
D03*
X266054D02*
D03*
Y-88976D02*
D03*
X275054D02*
D03*
Y-94976D02*
D03*
X266054D02*
D03*
X42054Y80024D02*
D03*
Y102024D02*
D03*
Y91024D02*
D03*
X34358D02*
D03*
Y102024D02*
D03*
Y80024D02*
D03*
X140874Y-75137D02*
D03*
X135464D02*
D03*
X130054D02*
D03*
X131054Y-61976D02*
D03*
X137049Y-61981D02*
D03*
X131054Y-55976D02*
D03*
X421734Y-37868D02*
D03*
X435304Y-40018D02*
D03*
X449202Y-53726D02*
D03*
X461436Y-41726D02*
D03*
X470054Y-35976D02*
D03*
X443474Y-41200D02*
D03*
X823290Y71254D02*
D03*
X803566Y7701D02*
D03*
X757390Y5566D02*
D03*
X771848Y6808D02*
D03*
X781348Y5390D02*
D03*
X371250Y43251D02*
D03*
X787348Y-98332D02*
D03*
X836348Y-53610D02*
D03*
X837331Y-37643D02*
D03*
X891517Y-20659D02*
D03*
X860998Y57878D02*
D03*
Y63723D02*
D03*
X916428Y-20771D02*
D03*
X916503Y-15268D02*
D03*
X259986Y-48767D02*
D03*
X260053Y-54516D02*
D03*
X245406Y-52043D02*
D03*
X239438Y-53803D02*
D03*
X238280Y-59726D02*
D03*
X252099Y-52726D02*
D03*
X256605Y-61372D02*
D03*
X262768D02*
D03*
X311054Y-52976D02*
D03*
X317054D02*
D03*
X362357Y20721D02*
D03*
X471054Y-53362D02*
D03*
X451439Y-39246D02*
D03*
X239054Y60024D02*
D03*
X51054Y-68510D02*
D03*
X44054Y-70976D02*
D03*
X450239Y40935D02*
D03*
X339313Y41526D02*
D03*
X425710Y41024D02*
D03*
X413677Y28757D02*
D03*
X412942Y-94209D02*
D03*
X410139Y-105891D02*
D03*
X69679Y73741D02*
D03*
X45054Y57024D02*
D03*
X57054Y52024D02*
D03*
X28054Y69024D02*
D03*
X166054Y-44949D02*
D03*
X120054Y-21976D02*
D03*
X198054Y-80976D02*
D03*
X405334Y20027D02*
D03*
X108088Y-23249D02*
D03*
X195779Y40141D02*
D03*
X238784Y12068D02*
D03*
X335054Y-39976D02*
D03*
X223791Y-72369D02*
D03*
X218054Y-71976D02*
D03*
X359342Y-24493D02*
D03*
X321749Y-42168D02*
D03*
X422044Y36595D02*
D03*
X475229Y16087D02*
D03*
X471436Y20408D02*
D03*
X467109Y24195D02*
D03*
X462851Y28059D02*
D03*
X458776Y32116D02*
D03*
X479342Y12068D02*
D03*
X222292Y28058D02*
D03*
X234671Y16086D02*
D03*
X181485Y36594D02*
D03*
X177611Y32346D02*
D03*
X173119Y28756D02*
D03*
X169208Y24541D02*
D03*
X77054Y-40976D02*
D03*
X87016Y-42726D02*
D03*
X91676Y-39357D02*
D03*
X346246Y-97188D02*
D03*
X288054Y-124976D02*
D03*
X359054D02*
D03*
X310170Y56281D02*
D03*
X345054Y53024D02*
D03*
X348054Y40024D02*
D03*
X327547Y38943D02*
D03*
X318775Y37053D02*
D03*
X93054Y117024D02*
D03*
X30444Y-115965D02*
D03*
X100054Y-67976D02*
D03*
X209054Y-73976D02*
D03*
X166054Y-94976D02*
D03*
M02*
