G04*
G04 #@! TF.GenerationSoftware,Altium Limited,Altium Designer,25.7.1 (20)*
G04*
G04 Layer_Color=32896*
%FSLAX44Y44*%
%MOMM*%
G71*
G04*
G04 #@! TF.SameCoordinates,66F0D8C6-04CA-480C-B019-D4CA667347D7*
G04*
G04*
G04 #@! TF.FilePolarity,Positive*
G04*
G01*
G75*
%ADD10C,0.1000*%
%ADD11C,0.2000*%
%ADD12C,0.2500*%
%ADD14C,0.1270*%
%ADD20C,0.1500*%
%ADD72C,0.3000*%
%ADD157C,0.1200*%
D10*
X236642Y-139469D02*
G03*
X237296Y-114078I21854J12141D01*
G01*
X535560Y-115177D02*
G03*
X534906Y-140568I-21854J-12141D01*
G01*
X535560Y139463D02*
G03*
X534906Y114072I-21854J-12141D01*
G01*
X236642Y115181D02*
G03*
X237296Y140572I21854J12141D01*
G01*
X696698Y-78610D02*
G03*
X696698Y-77610I0J500D01*
G01*
D02*
G03*
X696698Y-78610I0J-500D01*
G01*
X835848Y-49610D02*
G03*
X836848Y-49610I500J0D01*
G01*
D02*
G03*
X835848Y-49610I-500J0D01*
G01*
X879047Y61051D02*
G03*
X880047Y61051I500J0D01*
G01*
D02*
G03*
X879047Y61051I-500J0D01*
G01*
X888348Y-55111D02*
G03*
X888348Y-56111I0J-500D01*
G01*
D02*
G03*
X888348Y-55111I0J500D01*
G01*
X3996Y-92678D02*
G03*
X2996Y-92678I-500J0D01*
G01*
D02*
G03*
X3996Y-92678I500J0D01*
G01*
X835848Y-41610D02*
G03*
X836848Y-41610I500J0D01*
G01*
D02*
G03*
X835848Y-41610I-500J0D01*
G01*
X452576Y-50976D02*
X454576D01*
X452576Y-89026D02*
X454576D01*
X597706Y6022D02*
X598976Y8562D01*
X710736Y-2868D02*
X713276Y-328D01*
X708196D02*
X710736Y-2868D01*
X708196Y-328D02*
X710736Y-2868D01*
Y8562D01*
X598976D02*
X710736D01*
X842816Y-34618D02*
X845200Y-32705D01*
X840472D02*
X842816Y-34618D01*
X840472Y-32705D02*
X842816Y-34618D01*
Y-29538D01*
X845460D01*
X972356D02*
X973626Y-26998D01*
X845460Y-29538D02*
X972356D01*
X712619Y-80024D02*
X715816Y-75258D01*
X708841Y-75007D02*
X715816Y-75258D01*
X708841Y-75007D02*
X715816Y-75258D01*
X637076Y-99388D02*
X715816Y-75258D01*
X834431Y-113145D02*
X835196Y-110818D01*
X832481Y-111208D02*
X835196Y-110818D01*
X832481Y-111208D02*
X835196Y-110818D01*
X830116Y-114628D02*
X835196Y-110818D01*
X826306Y-114628D02*
X830116D01*
X802176D02*
X826306D01*
X775506Y-131138D02*
X802176Y-114628D01*
X775506Y-133678D02*
Y-126058D01*
X772966Y-133678D02*
X775506D01*
X750106D02*
X772966D01*
X750106D02*
Y-126058D01*
X890848Y-93610D02*
X898349D01*
X890848D02*
Y-68611D01*
X928349Y-93610D02*
X935849D01*
Y-68611D01*
X47494Y103774D02*
X49494D01*
X47494Y65724D02*
X49494D01*
X116584Y38024D02*
X118584D01*
X116584Y76074D02*
X118584D01*
X259054Y58024D02*
X261054D01*
X259054Y96074D02*
X261054D01*
X316966Y51024D02*
X318966D01*
X316966Y89074D02*
X318966D01*
X386966Y51024D02*
X388966D01*
X386966Y89074D02*
X388966D01*
X456353Y89074D02*
X458353D01*
X456353Y51024D02*
X458353D01*
X382637Y-50976D02*
X384637D01*
X382637Y-89026D02*
X384637D01*
X313026Y-50976D02*
X315026D01*
X313026Y-89026D02*
X315026D01*
X259054Y-57976D02*
X261054D01*
X259054Y-96026D02*
X261054D01*
X124128Y-37867D02*
X126128D01*
X124128Y-75917D02*
X126128D01*
X47496Y-103728D02*
X49496D01*
X47496Y-65678D02*
X49496D01*
X693318Y-33410D02*
Y-3160D01*
X662818Y-33710D02*
Y-2910D01*
X748348Y86390D02*
X788348D01*
X748348Y46390D02*
Y86390D01*
Y46390D02*
X788348D01*
Y86390D01*
D11*
X723000Y3001D02*
G03*
X723000Y2001I0J-500D01*
G01*
D02*
G03*
X723000Y3001I0J500D01*
G01*
X793098Y-3610D02*
G03*
X793098Y-3610I-1000J0D01*
G01*
X720848Y50890D02*
G03*
X720848Y48890I0J-1000D01*
G01*
D02*
G03*
X720848Y50890I0J1000D01*
G01*
X739649Y43790D02*
G03*
X739649Y45790I0J1000D01*
G01*
D02*
G03*
X739649Y43790I0J-1000D01*
G01*
X796852Y79790D02*
G03*
X796852Y77790I0J-1000D01*
G01*
D02*
G03*
X796852Y79790I0J1000D01*
G01*
X815848Y14890D02*
G03*
X815848Y16890I0J1000D01*
G01*
D02*
G03*
X815848Y14890I0J-1000D01*
G01*
X153456Y54682D02*
G03*
X154456Y54682I500J0D01*
G01*
D02*
G03*
X153456Y54682I-500J0D01*
G01*
X394500Y36001D02*
G03*
X393500Y36001I-500J0D01*
G01*
D02*
G03*
X394500Y36001I500J0D01*
G01*
X357000Y-56999D02*
G03*
X358000Y-56999I500J0D01*
G01*
D02*
G03*
X357000Y-56999I-500J0D01*
G01*
X95000Y-61999D02*
G03*
X94000Y-61999I-500J0D01*
G01*
D02*
G03*
X95000Y-61999I500J0D01*
G01*
X670742Y19950D02*
Y92950D01*
X713742Y13700D02*
Y92950D01*
X624848Y19890D02*
Y92890D01*
X667849Y13640D02*
Y92890D01*
X935047Y-19549D02*
Y-7799D01*
X929047Y-15799D02*
Y-7799D01*
X647297Y-52799D02*
X658297D01*
X630787D02*
X641787D01*
X538613Y31701D02*
X549612D01*
X556672D02*
X567671D01*
X574731D02*
X585731D01*
X592789D02*
X603789D01*
X610848D02*
X621848D01*
X520554D02*
X531553D01*
X819348Y9580D02*
Y17200D01*
X965797Y27201D02*
Y106451D01*
X922797Y33451D02*
Y106451D01*
X907797Y53201D02*
X918797D01*
X891547D02*
X902547D01*
D12*
X826098Y-108788D02*
G03*
X826098Y-108788I-1250J0D01*
G01*
X31491Y2852D02*
G03*
X31491Y2852I-1250J0D01*
G01*
X484559Y-2804D02*
G03*
X484559Y-2804I-1250J0D01*
G01*
X244001Y-2804D02*
G03*
X244001Y-2804I-1250J0D01*
G01*
X287049Y2853D02*
G03*
X287049Y2853I-1250J0D01*
G01*
D14*
X705349Y-14611D02*
X709349D01*
X713348Y-24611D02*
X717348D01*
X705349Y-34611D02*
X709349D01*
X777348Y19390D02*
X781348D01*
X755348D02*
X759348D01*
X777203Y31012D02*
Y35012D01*
X757348Y31012D02*
Y35012D01*
X738691Y-69871D02*
X742691D01*
X780662D02*
X784662D01*
X789056D02*
X793056D01*
X813353Y-67610D02*
Y-63609D01*
Y-59609D02*
Y-55609D01*
Y-51610D02*
Y-47610D01*
Y-43609D02*
Y-39609D01*
Y-27610D02*
Y-23609D01*
X813325Y-19661D02*
Y-15661D01*
X813353Y-35610D02*
Y-31609D01*
X767479Y19390D02*
X771479D01*
X846348Y-51610D02*
Y-47610D01*
X848349Y-66610D02*
Y-62610D01*
Y-74610D02*
Y-70610D01*
X830349Y-43610D02*
Y-39610D01*
Y-51610D02*
Y-47610D01*
X772369Y-69922D02*
X776369D01*
X831706Y-100318D02*
X835706D01*
X776348Y-92610D02*
X780348D01*
X768348D02*
X772348D01*
X784348Y-109610D02*
X788348D01*
X776348D02*
X780349D01*
X760349Y-92610D02*
X764349D01*
X797451Y-69871D02*
X801451D01*
X763874D02*
X767874D01*
X755581Y-69922D02*
X759581D01*
X747187D02*
X751187D01*
X727348Y-22610D02*
Y-18610D01*
Y-30610D02*
Y-26610D01*
X727348Y-38610D02*
Y-34611D01*
Y-46610D02*
Y-42611D01*
X727348Y-54610D02*
Y-50610D01*
Y-62610D02*
Y-58610D01*
Y-70610D02*
Y-66610D01*
X825706Y53682D02*
X829706D01*
X833706Y53682D02*
X837706D01*
X846348Y-13610D02*
X850348D01*
X862348D02*
X866348D01*
X854349Y-13611D02*
X858348D01*
X830349D02*
X834349D01*
X838348Y-13610D02*
X842348D01*
X14000Y-101999D02*
Y-97999D01*
X19000Y-53999D02*
Y-49999D01*
X14000Y-111000D02*
Y-107000D01*
X846349Y-43610D02*
Y-39610D01*
D20*
X727827Y-11054D02*
X736824D01*
Y-6556D01*
X735325Y-5056D01*
X732326D01*
X730826Y-6556D01*
Y-11054D01*
Y-8055D02*
X727827Y-5056D01*
X736824Y-2057D02*
Y3941D01*
Y942D01*
X727827D01*
X736824Y12938D02*
Y6940D01*
X732326D01*
X733825Y9939D01*
Y11438D01*
X732326Y12938D01*
X729327D01*
X727827Y11438D01*
Y8439D01*
X729327Y6940D01*
X393492Y22173D02*
Y31170D01*
X388994D01*
X387494Y29671D01*
Y26672D01*
X388994Y25172D01*
X393492D01*
X390493D02*
X387494Y22173D01*
X384495Y31170D02*
X378497D01*
X381496D01*
Y22173D01*
X375498D02*
X372499D01*
X373999D01*
Y31170D01*
X375498Y29671D01*
X174992Y41173D02*
Y50170D01*
X170493D01*
X168994Y48671D01*
Y45672D01*
X170493Y44172D01*
X174992D01*
X171993D02*
X168994Y41173D01*
X165995Y50170D02*
X159997D01*
X162996D01*
Y41173D01*
X151000D02*
X156998D01*
X151000Y47171D01*
Y48671D01*
X152499Y50170D01*
X155498D01*
X156998Y48671D01*
X842392Y-81563D02*
X840272Y-79442D01*
X841332Y-80502D01*
X834970Y-86864D01*
X836030Y-87924D01*
X833910Y-85804D01*
X831789Y-73080D02*
X833910D01*
X836030Y-75201D01*
Y-77321D01*
X831789Y-81563D01*
X829668D01*
X827548Y-79442D01*
Y-77321D01*
X826487Y-65658D02*
X827548Y-68839D01*
Y-73080D01*
X825427Y-75201D01*
X823306D01*
X821186Y-73080D01*
Y-70960D01*
X822246Y-69899D01*
X824367D01*
X827548Y-73080D01*
X306992Y-35827D02*
Y-26830D01*
X302493D01*
X300994Y-28329D01*
Y-31328D01*
X302493Y-32828D01*
X306992D01*
X303993D02*
X300994Y-35827D01*
X297995Y-26830D02*
X291997D01*
Y-28329D01*
X297995Y-34327D01*
Y-35827D01*
X283000Y-26830D02*
X285999Y-28329D01*
X288998Y-31328D01*
Y-34327D01*
X287498Y-35827D01*
X284499D01*
X283000Y-34327D01*
Y-32828D01*
X284499Y-31328D01*
X288998D01*
X263992Y44173D02*
Y53170D01*
X259493D01*
X257994Y51671D01*
Y48672D01*
X259493Y47172D01*
X263992D01*
X260993D02*
X257994Y44173D01*
X254995Y45673D02*
X253495Y44173D01*
X250496D01*
X248997Y45673D01*
Y51671D01*
X250496Y53170D01*
X253495D01*
X254995Y51671D01*
Y50171D01*
X253495Y48672D01*
X248997D01*
X245998Y51671D02*
X244498Y53170D01*
X241499D01*
X240000Y51671D01*
Y50171D01*
X241499Y48672D01*
X242999D01*
X241499D01*
X240000Y47172D01*
Y45673D01*
X241499Y44173D01*
X244498D01*
X245998Y45673D01*
X313342Y35131D02*
Y44128D01*
X308844D01*
X307344Y42628D01*
Y39629D01*
X308844Y38130D01*
X313342D01*
X310343D02*
X307344Y35131D01*
X304345D02*
X301346D01*
X302845D01*
Y44128D01*
X304345Y42628D01*
X296847D02*
X295348Y44128D01*
X292349D01*
X290849Y42628D01*
Y36630D01*
X292349Y35131D01*
X295348D01*
X296847Y36630D01*
Y42628D01*
X281852Y35131D02*
X287850D01*
X281852Y41129D01*
Y42628D01*
X283352Y44128D01*
X286351D01*
X287850Y42628D01*
X274008Y5900D02*
X276129D01*
X278250Y3780D01*
Y1659D01*
X274008Y-2582D01*
X271888D01*
X269767Y-461D01*
Y1659D01*
X266586Y2720D02*
X264466Y4840D01*
X265526Y3780D01*
X271888Y10142D01*
Y8021D01*
X266586Y13323D02*
Y15443D01*
X264466Y17564D01*
X262345D01*
X258104Y13323D01*
Y11202D01*
X260224Y9081D01*
X262345D01*
X266586Y13323D01*
X261285Y20745D02*
X257043Y24986D01*
X255983Y23926D01*
Y15443D01*
X254923Y14383D01*
X266008Y-2100D02*
X268129D01*
X270250Y-4220D01*
Y-6341D01*
X266008Y-10582D01*
X263888D01*
X261767Y-8461D01*
Y-6341D01*
X258586Y-5281D02*
X256465Y-3160D01*
X257526Y-4220D01*
X263888Y2142D01*
Y21D01*
X258586Y5323D02*
Y7443D01*
X256465Y9564D01*
X254345D01*
X250104Y5323D01*
Y3202D01*
X252224Y1081D01*
X254345D01*
X258586Y5323D01*
X249043Y16986D02*
X250104Y13805D01*
Y9564D01*
X247983Y7443D01*
X245862D01*
X243742Y9564D01*
Y11685D01*
X244802Y12745D01*
X246923D01*
X250104Y9564D01*
X51358Y45551D02*
X53478D01*
X55599Y43431D01*
Y41310D01*
X51358Y37069D01*
X49237D01*
X47116Y39189D01*
Y41310D01*
X44996Y43431D02*
X42875D01*
X40754Y45551D01*
Y47672D01*
X44996Y51913D01*
X47116D01*
X49237Y49792D01*
Y47672D01*
X48177Y46612D01*
X46056D01*
X42875Y49792D01*
X34393Y51913D02*
X40754Y58275D01*
Y51913D01*
X36513Y56154D01*
X43358Y37551D02*
X45478D01*
X47599Y35431D01*
Y33310D01*
X43358Y29069D01*
X41237D01*
X39116Y31189D01*
Y33310D01*
X36996Y35431D02*
X34875D01*
X32754Y37551D01*
Y39672D01*
X36996Y43913D01*
X39116D01*
X41237Y41792D01*
Y39672D01*
X40177Y38612D01*
X38056D01*
X34875Y41792D01*
Y46034D02*
Y48154D01*
X32754Y50275D01*
X30634D01*
X29574Y49215D01*
Y47094D01*
X30634Y46034D01*
X29574Y47094D01*
X27453D01*
X26393Y46034D01*
Y43913D01*
X28513Y41792D01*
X30634D01*
X507358Y-9449D02*
X509478D01*
X511599Y-11569D01*
Y-13690D01*
X507358Y-17931D01*
X505237D01*
X503116Y-15811D01*
Y-13690D01*
X500996Y-11569D02*
X498875D01*
X496754Y-9449D01*
Y-7328D01*
X500996Y-3087D01*
X503116D01*
X505237Y-5207D01*
Y-7328D01*
X504177Y-8388D01*
X502056D01*
X498875Y-5207D01*
Y-966D02*
Y1154D01*
X496754Y3275D01*
X494634D01*
X490393Y-966D01*
Y-3087D01*
X492513Y-5207D01*
X494634D01*
X498875Y-966D01*
X515358Y-1449D02*
X517478D01*
X519599Y-3569D01*
Y-5690D01*
X515358Y-9931D01*
X513237D01*
X511116Y-7811D01*
Y-5690D01*
X513237Y672D02*
Y2792D01*
X511116Y4913D01*
X508996D01*
X507935Y3853D01*
Y1732D01*
X505815D01*
X504754Y672D01*
Y-1449D01*
X506875Y-3569D01*
X508996D01*
X510056Y-2509D01*
Y-388D01*
X512177D01*
X513237Y672D01*
X510056Y-388D02*
X507935Y1732D01*
X502634Y2792D02*
X500513D01*
X498393Y4913D01*
Y7034D01*
X502634Y11275D01*
X504754D01*
X506875Y9154D01*
Y7034D01*
X505815Y5973D01*
X503694D01*
X500513Y9154D01*
X231358Y-44449D02*
X233478D01*
X235599Y-46569D01*
Y-48690D01*
X231358Y-52931D01*
X229237D01*
X227116Y-50811D01*
Y-48690D01*
X229237Y-42328D02*
Y-40208D01*
X227116Y-38087D01*
X224996D01*
X223935Y-39147D01*
Y-41268D01*
X221815D01*
X220755Y-42328D01*
Y-44449D01*
X222875Y-46569D01*
X224996D01*
X226056Y-45509D01*
Y-43388D01*
X228177D01*
X229237Y-42328D01*
X226056Y-43388D02*
X223935Y-41268D01*
X219694Y-30665D02*
X220755Y-33846D01*
Y-38087D01*
X218634Y-40208D01*
X216513D01*
X214393Y-38087D01*
Y-35966D01*
X215453Y-34906D01*
X217574D01*
X220755Y-38087D01*
X239358Y-36449D02*
X241478D01*
X243599Y-38569D01*
Y-40690D01*
X239358Y-44931D01*
X237237D01*
X235116Y-42811D01*
Y-40690D01*
X237237Y-34328D02*
Y-32208D01*
X235116Y-30087D01*
X232996D01*
X231935Y-31147D01*
Y-33268D01*
X229815D01*
X228755Y-34328D01*
Y-36449D01*
X230875Y-38569D01*
X232996D01*
X234056Y-37509D01*
Y-35388D01*
X236177D01*
X237237Y-34328D01*
X234056Y-35388D02*
X231935Y-33268D01*
X227694Y-22665D02*
X231935Y-26906D01*
X228755Y-30087D01*
X227694Y-26906D01*
X226634Y-25846D01*
X224513D01*
X222393Y-27966D01*
Y-30087D01*
X224513Y-32208D01*
X226634D01*
X157129Y19900D02*
X155008Y22021D01*
X156069Y20961D01*
X149707Y14599D01*
X150767Y13539D01*
X148646Y15659D01*
X146526Y28383D02*
X148646D01*
X150767Y26262D01*
Y24142D01*
X146526Y19900D01*
X144405D01*
X142285Y22021D01*
Y24142D01*
X145466Y31564D02*
X141224Y35805D01*
X140164Y34745D01*
Y26262D01*
X139104Y25202D01*
X487129Y19900D02*
X485008Y22021D01*
X486069Y20961D01*
X479707Y14599D01*
X480767Y13539D01*
X478647Y15659D01*
X476526Y28383D02*
X478647D01*
X480767Y26262D01*
Y24142D01*
X476526Y19900D01*
X474405D01*
X472285Y22021D01*
Y24142D01*
X474405Y30504D02*
Y32624D01*
X472285Y34745D01*
X470164D01*
X469104Y33684D01*
Y31564D01*
X466983D01*
X465923Y30504D01*
Y28383D01*
X468043Y26262D01*
X470164D01*
X471224Y27323D01*
Y29443D01*
X473345D01*
X474405Y30504D01*
X471224Y29443D02*
X469104Y31564D01*
X140129Y1901D02*
X138008Y4021D01*
X139069Y2961D01*
X132707Y-3401D01*
X133767Y-4462D01*
X131646Y-2341D01*
X129526Y10383D02*
X131646D01*
X133767Y8262D01*
Y6142D01*
X129526Y1901D01*
X127405D01*
X125285Y4021D01*
Y6142D01*
X123164Y8262D02*
X121043D01*
X118923Y10383D01*
Y12504D01*
X123164Y16745D01*
X125285D01*
X127405Y14624D01*
Y12504D01*
X126345Y11443D01*
X124224D01*
X121043Y14624D01*
X401780Y-21750D02*
X399659Y-19630D01*
X400719Y-20690D01*
X394358Y-27052D01*
X395418Y-28112D01*
X393297Y-25992D01*
X391177Y-13268D02*
X393297D01*
X395418Y-15388D01*
Y-17509D01*
X391177Y-21750D01*
X389056D01*
X386935Y-19630D01*
Y-17509D01*
X383755Y-16449D02*
X381634Y-14328D01*
X382694Y-15388D01*
X389056Y-9026D01*
Y-11147D01*
X383755Y-5846D02*
Y-3725D01*
X381634Y-1604D01*
X379513D01*
X375272Y-5846D01*
Y-7966D01*
X377393Y-10087D01*
X379513D01*
X383755Y-5846D01*
X61992Y-60827D02*
Y-51830D01*
X57493D01*
X55994Y-53329D01*
Y-56328D01*
X57493Y-57828D01*
X61992D01*
X58993D02*
X55994Y-60827D01*
X46997Y-51830D02*
X49996Y-53329D01*
X52995Y-56328D01*
Y-59327D01*
X51495Y-60827D01*
X48496D01*
X46997Y-59327D01*
Y-57828D01*
X48496Y-56328D01*
X52995D01*
X39499Y-60827D02*
Y-51830D01*
X43998Y-56328D01*
X38000D01*
X376741Y37173D02*
Y46170D01*
X372242D01*
X370743Y44671D01*
Y41672D01*
X372242Y40172D01*
X376741D01*
X373742D02*
X370743Y37173D01*
X367743D02*
X364744D01*
X366244D01*
Y46170D01*
X367743Y44671D01*
X360246D02*
X358746Y46170D01*
X355747D01*
X354248Y44671D01*
Y38673D01*
X355747Y37173D01*
X358746D01*
X360246Y38673D01*
Y44671D01*
X351249D02*
X349749Y46170D01*
X346750D01*
X345251Y44671D01*
Y43171D01*
X346750Y41672D01*
X348250D01*
X346750D01*
X345251Y40172D01*
Y38673D01*
X346750Y37173D01*
X349749D01*
X351249Y38673D01*
X383992Y-35827D02*
Y-26830D01*
X379493D01*
X377994Y-28329D01*
Y-31328D01*
X379493Y-32828D01*
X383992D01*
X380993D02*
X377994Y-35827D01*
X374995Y-26830D02*
X368997D01*
Y-28329D01*
X374995Y-34327D01*
Y-35827D01*
X365998Y-26830D02*
X360000D01*
Y-28329D01*
X365998Y-34327D01*
Y-35827D01*
X139992Y-21827D02*
Y-12830D01*
X135493D01*
X133994Y-14329D01*
Y-17328D01*
X135493Y-18828D01*
X139992D01*
X136993D02*
X133994Y-21827D01*
X124997Y-12830D02*
X127996Y-14329D01*
X130995Y-17328D01*
Y-20327D01*
X129495Y-21827D01*
X126496D01*
X124997Y-20327D01*
Y-18828D01*
X126496Y-17328D01*
X130995D01*
X116000Y-12830D02*
X121998D01*
Y-17328D01*
X118999Y-15829D01*
X117499D01*
X116000Y-17328D01*
Y-20327D01*
X117499Y-21827D01*
X120498D01*
X121998Y-20327D01*
X432992Y-60827D02*
Y-51830D01*
X428493D01*
X426994Y-53329D01*
Y-56328D01*
X428493Y-57828D01*
X432992D01*
X429993D02*
X426994Y-60827D01*
X423995Y-51830D02*
X417997D01*
Y-53329D01*
X423995Y-59327D01*
Y-60827D01*
X414998Y-53329D02*
X413498Y-51830D01*
X410499D01*
X409000Y-53329D01*
Y-54829D01*
X410499Y-56328D01*
X409000Y-57828D01*
Y-59327D01*
X410499Y-60827D01*
X413498D01*
X414998Y-59327D01*
Y-57828D01*
X413498Y-56328D01*
X414998Y-54829D01*
Y-53329D01*
X413498Y-56328D02*
X410499D01*
X17497Y70676D02*
X26494D01*
Y75174D01*
X24995Y76674D01*
X21996D01*
X20496Y75174D01*
Y70676D01*
Y73675D02*
X17497Y76674D01*
X24995Y79673D02*
X26494Y81172D01*
Y84171D01*
X24995Y85671D01*
X23495D01*
X21996Y84171D01*
X20496Y85671D01*
X18997D01*
X17497Y84171D01*
Y81172D01*
X18997Y79673D01*
X20496D01*
X21996Y81172D01*
X23495Y79673D01*
X24995D01*
X21996Y81172D02*
Y84171D01*
X26494Y88670D02*
Y94668D01*
X24995D01*
X18997Y88670D01*
X17497D01*
X271992Y-52827D02*
Y-43830D01*
X267493D01*
X265994Y-45329D01*
Y-48328D01*
X267493Y-49828D01*
X271992D01*
X268993D02*
X265994Y-52827D01*
X256997Y-43830D02*
X259996Y-45329D01*
X262995Y-48328D01*
Y-51327D01*
X261495Y-52827D01*
X258496D01*
X256997Y-51327D01*
Y-49828D01*
X258496Y-48328D01*
X262995D01*
X248000Y-43830D02*
X250999Y-45329D01*
X253998Y-48328D01*
Y-51327D01*
X252498Y-52827D01*
X249499D01*
X248000Y-51327D01*
Y-49828D01*
X249499Y-48328D01*
X253998D01*
X511741Y67173D02*
Y76170D01*
X507242D01*
X505742Y74671D01*
Y71672D01*
X507242Y70172D01*
X511741D01*
X508742D02*
X505742Y67173D01*
X502743D02*
X499744D01*
X501244D01*
Y76170D01*
X502743Y74671D01*
X495246D02*
X493746Y76170D01*
X490747D01*
X489248Y74671D01*
Y68673D01*
X490747Y67173D01*
X493746D01*
X495246Y68673D01*
Y74671D01*
X481750Y67173D02*
Y76170D01*
X486249Y71672D01*
X480251D01*
X91992Y43173D02*
Y52170D01*
X87493D01*
X85994Y50671D01*
Y47672D01*
X87493Y46172D01*
X91992D01*
X88993D02*
X85994Y43173D01*
X82995Y44673D02*
X81495Y43173D01*
X78496D01*
X76997Y44673D01*
Y50671D01*
X78496Y52170D01*
X81495D01*
X82995Y50671D01*
Y49171D01*
X81495Y47672D01*
X76997D01*
X73998Y50671D02*
X72498Y52170D01*
X69499D01*
X68000Y50671D01*
Y44673D01*
X69499Y43173D01*
X72498D01*
X73998Y44673D01*
Y50671D01*
X352244Y-86327D02*
Y-80329D01*
X353744Y-78830D01*
X356743D01*
X358242Y-80329D01*
Y-86327D01*
X356743Y-87827D01*
X353744D01*
X355243Y-84828D02*
X352244Y-87827D01*
X353744D02*
X352244Y-86327D01*
X349245Y-87827D02*
X346246D01*
X347746D01*
Y-78830D01*
X349245Y-80329D01*
X335749Y-87827D02*
X341747D01*
X335749Y-81829D01*
Y-80329D01*
X337249Y-78830D01*
X340248D01*
X341747Y-80329D01*
X17244Y128673D02*
Y134671D01*
X18743Y136170D01*
X21743D01*
X23242Y134671D01*
Y128673D01*
X21743Y127173D01*
X18743D01*
X20243Y130172D02*
X17244Y127173D01*
X18743D02*
X17244Y128673D01*
X14245Y127173D02*
X11246D01*
X12745D01*
Y136170D01*
X14245Y134671D01*
X6747D02*
X5248Y136170D01*
X2249D01*
X749Y134671D01*
Y133171D01*
X2249Y131672D01*
X749Y130172D01*
Y128673D01*
X2249Y127173D01*
X5248D01*
X6747Y128673D01*
Y130172D01*
X5248Y131672D01*
X6747Y133171D01*
Y134671D01*
X5248Y131672D02*
X2249D01*
X291994Y47673D02*
Y53671D01*
X293493Y55170D01*
X296492D01*
X297992Y53671D01*
Y47673D01*
X296492Y46173D01*
X293493D01*
X294993Y49172D02*
X291994Y46173D01*
X293493D02*
X291994Y47673D01*
X282997Y46173D02*
X288995D01*
X282997Y52171D01*
Y53671D01*
X284496Y55170D01*
X287495D01*
X288995Y53671D01*
X275499Y46173D02*
Y55170D01*
X279998Y50672D01*
X274000D01*
X86495Y-76327D02*
Y-70329D01*
X87995Y-68830D01*
X90994D01*
X92493Y-70329D01*
Y-76327D01*
X90994Y-77827D01*
X87995D01*
X89494Y-74828D02*
X86495Y-77827D01*
X87995D02*
X86495Y-76327D01*
X83496Y-68830D02*
X77498D01*
Y-70329D01*
X83496Y-76327D01*
Y-77827D01*
X301244Y-45327D02*
Y-39329D01*
X302743Y-37830D01*
X305743D01*
X307242Y-39329D01*
Y-45327D01*
X305743Y-46827D01*
X302743D01*
X304243Y-43828D02*
X301244Y-46827D01*
X302743D02*
X301244Y-45327D01*
X298245Y-46827D02*
X295246D01*
X296745D01*
Y-37830D01*
X298245Y-39329D01*
X290747D02*
X289248Y-37830D01*
X286249D01*
X284749Y-39329D01*
Y-40829D01*
X286249Y-42328D01*
X287748D01*
X286249D01*
X284749Y-43828D01*
Y-45327D01*
X286249Y-46827D01*
X289248D01*
X290747Y-45327D01*
X85244Y58673D02*
Y64671D01*
X86743Y66170D01*
X89743D01*
X91242Y64671D01*
Y58673D01*
X89743Y57173D01*
X86743D01*
X88243Y60172D02*
X85244Y57173D01*
X86743D02*
X85244Y58673D01*
X82245Y57173D02*
X79246D01*
X80745D01*
Y66170D01*
X82245Y64671D01*
X74747Y58673D02*
X73248Y57173D01*
X70249D01*
X68749Y58673D01*
Y64671D01*
X70249Y66170D01*
X73248D01*
X74747Y64671D01*
Y63171D01*
X73248Y61672D01*
X68749D01*
X355994Y66673D02*
Y72671D01*
X357493Y74170D01*
X360492D01*
X361992Y72671D01*
Y66673D01*
X360492Y65173D01*
X357493D01*
X358993Y68172D02*
X355994Y65173D01*
X357493D02*
X355994Y66673D01*
X346997Y65173D02*
X352995D01*
X346997Y71171D01*
Y72671D01*
X348496Y74170D01*
X351495D01*
X352995Y72671D01*
X338000Y74170D02*
X343998D01*
Y69672D01*
X340999Y71171D01*
X339499D01*
X338000Y69672D01*
Y66673D01*
X339499Y65173D01*
X342498D01*
X343998Y66673D01*
X156495Y-67327D02*
Y-61329D01*
X157995Y-59830D01*
X160994D01*
X162493Y-61329D01*
Y-67327D01*
X160994Y-68827D01*
X157995D01*
X159494Y-65828D02*
X156495Y-68827D01*
X157995D02*
X156495Y-67327D01*
X153496Y-61329D02*
X151997Y-59830D01*
X148998D01*
X147498Y-61329D01*
Y-62829D01*
X148998Y-64328D01*
X147498Y-65828D01*
Y-67327D01*
X148998Y-68827D01*
X151997D01*
X153496Y-67327D01*
Y-65828D01*
X151997Y-64328D01*
X153496Y-62829D01*
Y-61329D01*
X151997Y-64328D02*
X148998D01*
X420244Y-84327D02*
Y-78329D01*
X421744Y-76830D01*
X424743D01*
X426242Y-78329D01*
Y-84327D01*
X424743Y-85827D01*
X421744D01*
X423243Y-82828D02*
X420244Y-85827D01*
X421744D02*
X420244Y-84327D01*
X417245Y-85827D02*
X414246D01*
X415746D01*
Y-76830D01*
X417245Y-78329D01*
X405249Y-85827D02*
Y-76830D01*
X409747Y-81328D01*
X403749D01*
X163994Y61673D02*
Y67671D01*
X165493Y69170D01*
X168492D01*
X169992Y67671D01*
Y61673D01*
X168492Y60173D01*
X165493D01*
X166993Y63172D02*
X163994Y60173D01*
X165493D02*
X163994Y61673D01*
X154997Y60173D02*
X160995D01*
X154997Y66171D01*
Y67671D01*
X156496Y69170D01*
X159495D01*
X160995Y67671D01*
X151998D02*
X150498Y69170D01*
X147499D01*
X146000Y67671D01*
Y61673D01*
X147499Y60173D01*
X150498D01*
X151998Y61673D01*
Y67671D01*
X361994Y80673D02*
Y86671D01*
X363493Y88170D01*
X366492D01*
X367992Y86671D01*
Y80673D01*
X366492Y79173D01*
X363493D01*
X364993Y82172D02*
X361994Y79173D01*
X363493D02*
X361994Y80673D01*
X352997Y79173D02*
X358995D01*
X352997Y85171D01*
Y86671D01*
X354496Y88170D01*
X357495D01*
X358995Y86671D01*
X344000Y88170D02*
X346999Y86671D01*
X349998Y83672D01*
Y80673D01*
X348498Y79173D01*
X345499D01*
X344000Y80673D01*
Y82172D01*
X345499Y83672D01*
X349998D01*
X133495Y-32327D02*
Y-26329D01*
X134995Y-24830D01*
X137994D01*
X139493Y-26329D01*
Y-32327D01*
X137994Y-33827D01*
X134995D01*
X136494Y-30828D02*
X133495Y-33827D01*
X134995D02*
X133495Y-32327D01*
X130496D02*
X128997Y-33827D01*
X125998D01*
X124498Y-32327D01*
Y-26329D01*
X125998Y-24830D01*
X128997D01*
X130496Y-26329D01*
Y-27829D01*
X128997Y-29328D01*
X124498D01*
X378244Y-45327D02*
Y-39329D01*
X379743Y-37830D01*
X382743D01*
X384242Y-39329D01*
Y-45327D01*
X382743Y-46827D01*
X379743D01*
X381243Y-43828D02*
X378244Y-46827D01*
X379743D02*
X378244Y-45327D01*
X375245Y-46827D02*
X372246D01*
X373745D01*
Y-37830D01*
X375245Y-39329D01*
X361749Y-37830D02*
X367747D01*
Y-42328D01*
X364748Y-40829D01*
X363249D01*
X361749Y-42328D01*
Y-45327D01*
X363249Y-46827D01*
X366248D01*
X367747Y-45327D01*
X91494Y69673D02*
Y75671D01*
X92994Y77170D01*
X95993D01*
X97492Y75671D01*
Y69673D01*
X95993Y68173D01*
X92994D01*
X94493Y71172D02*
X91494Y68173D01*
X92994D02*
X91494Y69673D01*
X82497Y68173D02*
X88495D01*
X82497Y74171D01*
Y75671D01*
X83997Y77170D01*
X86996D01*
X88495Y75671D01*
X79498Y68173D02*
X76499D01*
X77999D01*
Y77170D01*
X79498Y75671D01*
X425994Y66673D02*
Y72671D01*
X427493Y74170D01*
X430492D01*
X431992Y72671D01*
Y66673D01*
X430492Y65173D01*
X427493D01*
X428993Y68172D02*
X425994Y65173D01*
X427493D02*
X425994Y66673D01*
X416997Y65173D02*
X422995D01*
X416997Y71171D01*
Y72671D01*
X418496Y74170D01*
X421495D01*
X422995Y72671D01*
X413998Y74170D02*
X408000D01*
Y72671D01*
X413998Y66673D01*
Y65173D01*
X192244Y-67327D02*
Y-61329D01*
X193743Y-59830D01*
X196743D01*
X198242Y-61329D01*
Y-67327D01*
X196743Y-68827D01*
X193743D01*
X195243Y-65828D02*
X192244Y-68827D01*
X193743D02*
X192244Y-67327D01*
X189245Y-68827D02*
X186246D01*
X187745D01*
Y-59830D01*
X189245Y-61329D01*
X181747D02*
X180248Y-59830D01*
X177249D01*
X175749Y-61329D01*
Y-67327D01*
X177249Y-68827D01*
X180248D01*
X181747Y-67327D01*
Y-61329D01*
X491244Y-88327D02*
Y-82329D01*
X492743Y-80830D01*
X495743D01*
X497242Y-82329D01*
Y-88327D01*
X495743Y-89827D01*
X492743D01*
X494243Y-86828D02*
X491244Y-89827D01*
X492743D02*
X491244Y-88327D01*
X488245Y-89827D02*
X485246D01*
X486745D01*
Y-80830D01*
X488245Y-82329D01*
X474749Y-80830D02*
X477748Y-82329D01*
X480747Y-85328D01*
Y-88327D01*
X479248Y-89827D01*
X476249D01*
X474749Y-88327D01*
Y-86828D01*
X476249Y-85328D01*
X480747D01*
X194994Y61673D02*
Y67671D01*
X196493Y69170D01*
X199492D01*
X200992Y67671D01*
Y61673D01*
X199492Y60173D01*
X196493D01*
X197993Y63172D02*
X194994Y60173D01*
X196493D02*
X194994Y61673D01*
X185997Y60173D02*
X191995D01*
X185997Y66171D01*
Y67671D01*
X187496Y69170D01*
X190495D01*
X191995Y67671D01*
X177000Y60173D02*
X182998D01*
X177000Y66171D01*
Y67671D01*
X178499Y69170D01*
X181498D01*
X182998Y67671D01*
X430994Y80673D02*
Y86671D01*
X432493Y88170D01*
X435492D01*
X436992Y86671D01*
Y80673D01*
X435492Y79173D01*
X432493D01*
X433993Y82172D02*
X430994Y79173D01*
X432493D02*
X430994Y80673D01*
X421997Y79173D02*
X427995D01*
X421997Y85171D01*
Y86671D01*
X423496Y88170D01*
X426495D01*
X427995Y86671D01*
X418998D02*
X417498Y88170D01*
X414499D01*
X413000Y86671D01*
Y85171D01*
X414499Y83672D01*
X413000Y82172D01*
Y80673D01*
X414499Y79173D01*
X417498D01*
X418998Y80673D01*
Y82172D01*
X417498Y83672D01*
X418998Y85171D01*
Y86671D01*
X417498Y83672D02*
X414499D01*
X224744Y-67327D02*
Y-61329D01*
X226244Y-59830D01*
X229243D01*
X230743Y-61329D01*
Y-67327D01*
X229243Y-68827D01*
X226244D01*
X227743Y-65828D02*
X224744Y-68827D01*
X226244D02*
X224744Y-67327D01*
X221745Y-68827D02*
X218746D01*
X220246D01*
Y-59830D01*
X221745Y-61329D01*
X214248Y-68827D02*
X211249D01*
X212748D01*
Y-59830D01*
X214248Y-61329D01*
X427244Y-71327D02*
Y-65329D01*
X428744Y-63830D01*
X431743D01*
X433242Y-65329D01*
Y-71327D01*
X431743Y-72827D01*
X428744D01*
X430243Y-69828D02*
X427244Y-72827D01*
X428744D02*
X427244Y-71327D01*
X424245Y-72827D02*
X421246D01*
X422746D01*
Y-63830D01*
X424245Y-65329D01*
X416747Y-63830D02*
X410749D01*
Y-65329D01*
X416747Y-71327D01*
Y-72827D01*
X226994Y61673D02*
Y67671D01*
X228493Y69170D01*
X231492D01*
X232992Y67671D01*
Y61673D01*
X231492Y60173D01*
X228493D01*
X229993Y63172D02*
X226994Y60173D01*
X228493D02*
X226994Y61673D01*
X217997Y60173D02*
X223995D01*
X217997Y66171D01*
Y67671D01*
X219496Y69170D01*
X222495D01*
X223995Y67671D01*
X214998D02*
X213498Y69170D01*
X210499D01*
X209000Y67671D01*
Y66171D01*
X210499Y64672D01*
X211999D01*
X210499D01*
X209000Y63172D01*
Y61673D01*
X210499Y60173D01*
X213498D01*
X214998Y61673D01*
X505994Y80673D02*
Y86671D01*
X507493Y88170D01*
X510492D01*
X511992Y86671D01*
Y80673D01*
X510492Y79173D01*
X507493D01*
X508993Y82172D02*
X505994Y79173D01*
X507493D02*
X505994Y80673D01*
X496997Y79173D02*
X502995D01*
X496997Y85171D01*
Y86671D01*
X498496Y88170D01*
X501495D01*
X502995Y86671D01*
X493998Y80673D02*
X492498Y79173D01*
X489499D01*
X488000Y80673D01*
Y86671D01*
X489499Y88170D01*
X492498D01*
X493998Y86671D01*
Y85171D01*
X492498Y83672D01*
X488000D01*
X47495Y-150327D02*
Y-144329D01*
X48995Y-142830D01*
X51994D01*
X53493Y-144329D01*
Y-150327D01*
X51994Y-151827D01*
X48995D01*
X50494Y-148828D02*
X47495Y-151827D01*
X48995D02*
X47495Y-150327D01*
X38498Y-142830D02*
X41497Y-144329D01*
X44496Y-147328D01*
Y-150327D01*
X42997Y-151827D01*
X39998D01*
X38498Y-150327D01*
Y-148828D01*
X39998Y-147328D01*
X44496D01*
X1004611Y-13717D02*
Y-4720D01*
X1000112D01*
X998613Y-6219D01*
Y-9218D01*
X1000112Y-10718D01*
X1004611D01*
X1001612D02*
X998613Y-13717D01*
X989615Y-4720D02*
X995613D01*
Y-9218D01*
X992615Y-7719D01*
X991115D01*
X989615Y-9218D01*
Y-12217D01*
X991115Y-13717D01*
X994114D01*
X995613Y-12217D01*
X986616Y-6219D02*
X985117Y-4720D01*
X982118D01*
X980618Y-6219D01*
Y-12217D01*
X982118Y-13717D01*
X985117D01*
X986616Y-12217D01*
Y-6219D01*
X1004611Y-25147D02*
Y-16150D01*
X1000112D01*
X998613Y-17649D01*
Y-20648D01*
X1000112Y-22148D01*
X1004611D01*
X1001612D02*
X998613Y-25147D01*
X991115D02*
Y-16150D01*
X995613Y-20648D01*
X989615D01*
X986616Y-23647D02*
X985117Y-25147D01*
X982118D01*
X980618Y-23647D01*
Y-17649D01*
X982118Y-16150D01*
X985117D01*
X986616Y-17649D01*
Y-19149D01*
X985117Y-20648D01*
X980618D01*
X873995Y-105326D02*
X875494Y-106826D01*
Y-109825D01*
X873995Y-111324D01*
X867997D01*
X866497Y-109825D01*
Y-106826D01*
X867997Y-105326D01*
X873995Y-102327D02*
X875494Y-100828D01*
Y-97829D01*
X873995Y-96329D01*
X872495D01*
X870996Y-97829D01*
X869496Y-96329D01*
X867997D01*
X866497Y-97829D01*
Y-100828D01*
X867997Y-102327D01*
X869496D01*
X870996Y-100828D01*
X872495Y-102327D01*
X873995D01*
X870996Y-100828D02*
Y-97829D01*
X873995Y-93330D02*
X875494Y-91831D01*
Y-88832D01*
X873995Y-87332D01*
X867997D01*
X866497Y-88832D01*
Y-91831D01*
X867997Y-93330D01*
X873995D01*
X972627Y-71853D02*
X974126Y-70354D01*
X977125D01*
X978625Y-71853D01*
Y-77851D01*
X977125Y-79351D01*
X974126D01*
X972627Y-77851D01*
X969628Y-70354D02*
X963630D01*
Y-71853D01*
X969628Y-77851D01*
Y-79351D01*
X960631Y-77851D02*
X959131Y-79351D01*
X956132D01*
X954632Y-77851D01*
Y-71853D01*
X956132Y-70354D01*
X959131D01*
X960631Y-71853D01*
Y-73353D01*
X959131Y-74852D01*
X954632D01*
X27756Y-20902D02*
X24757D01*
X26257D01*
Y-29899D01*
X27756D01*
X24757D01*
X14261Y-22401D02*
X15760Y-20902D01*
X18759D01*
X20259Y-22401D01*
Y-28399D01*
X18759Y-29899D01*
X15760D01*
X14261Y-28399D01*
X5264Y-29899D02*
X11262D01*
X5264Y-23900D01*
Y-22401D01*
X6763Y-20902D01*
X9762D01*
X11262Y-22401D01*
X21758Y-10971D02*
X23258Y-9471D01*
X26257D01*
X27756Y-10971D01*
Y-16969D01*
X26257Y-18469D01*
X23258D01*
X21758Y-16969D01*
X18759Y-18469D02*
X15760D01*
X17260D01*
Y-9471D01*
X18759Y-10971D01*
X6763Y-18469D02*
Y-9471D01*
X11262Y-13970D01*
X5264D01*
X21758Y459D02*
X23258Y1958D01*
X26257D01*
X27756Y459D01*
Y-5539D01*
X26257Y-7038D01*
X23258D01*
X21758Y-5539D01*
X18759Y-7038D02*
X15760D01*
X17260D01*
Y1958D01*
X18759Y459D01*
X11262D02*
X9762Y1958D01*
X6763D01*
X5264Y459D01*
Y-1041D01*
X6763Y-2540D01*
X8263D01*
X6763D01*
X5264Y-4040D01*
Y-5539D01*
X6763Y-7038D01*
X9762D01*
X11262Y-5539D01*
X21758Y-145591D02*
X23258Y-144092D01*
X26257D01*
X27756Y-145591D01*
Y-151589D01*
X26257Y-153089D01*
X23258D01*
X21758Y-151589D01*
X18759Y-153089D02*
X15760D01*
X17260D01*
Y-144092D01*
X18759Y-145591D01*
X5264Y-153089D02*
X11262D01*
X5264Y-147091D01*
Y-145591D01*
X6763Y-144092D01*
X9762D01*
X11262Y-145591D01*
X11995Y-131077D02*
X13494Y-132576D01*
Y-135575D01*
X11995Y-137075D01*
X5997D01*
X4497Y-135575D01*
Y-132576D01*
X5997Y-131077D01*
X4497Y-128078D02*
Y-125079D01*
Y-126578D01*
X13494D01*
X11995Y-128078D01*
X4497Y-120580D02*
Y-117581D01*
Y-119081D01*
X13494D01*
X11995Y-120580D01*
X652545Y-5867D02*
Y131D01*
X654045Y1630D01*
X657044D01*
X658543Y131D01*
Y-5867D01*
X657044Y-7367D01*
X654045D01*
X655544Y-4368D02*
X652545Y-7367D01*
X654045D02*
X652545Y-5867D01*
X643548Y-7367D02*
X649546D01*
X643548Y-1369D01*
Y131D01*
X645048Y1630D01*
X648047D01*
X649546Y131D01*
X741227Y-106514D02*
X750224D01*
Y-102016D01*
X748725Y-100516D01*
X745726D01*
X744226Y-102016D01*
Y-106514D01*
Y-103515D02*
X741227Y-100516D01*
X750224Y-91519D02*
Y-97517D01*
X745726D01*
X747225Y-94518D01*
Y-93019D01*
X745726Y-91519D01*
X742727D01*
X741227Y-93019D01*
Y-96018D01*
X742727Y-97517D01*
X748725Y-88520D02*
X750224Y-87021D01*
Y-84022D01*
X748725Y-82522D01*
X747225D01*
X745726Y-84022D01*
Y-85521D01*
Y-84022D01*
X744226Y-82522D01*
X742727D01*
X741227Y-84022D01*
Y-87021D01*
X742727Y-88520D01*
X730227Y-106514D02*
X739224D01*
Y-102016D01*
X737725Y-100516D01*
X734726D01*
X733226Y-102016D01*
Y-106514D01*
Y-103515D02*
X730227Y-100516D01*
X739224Y-91519D02*
Y-97517D01*
X734726D01*
X736225Y-94518D01*
Y-93019D01*
X734726Y-91519D01*
X731727D01*
X730227Y-93019D01*
Y-96018D01*
X731727Y-97517D01*
X730227Y-82522D02*
Y-88520D01*
X736225Y-82522D01*
X737725D01*
X739224Y-84022D01*
Y-87021D01*
X737725Y-88520D01*
X718937Y-106514D02*
X727934D01*
Y-102016D01*
X726435Y-100516D01*
X723436D01*
X721936Y-102016D01*
Y-106514D01*
Y-103515D02*
X718937Y-100516D01*
X727934Y-91519D02*
Y-97517D01*
X723436D01*
X724935Y-94518D01*
Y-93019D01*
X723436Y-91519D01*
X720437D01*
X718937Y-93019D01*
Y-96018D01*
X720437Y-97517D01*
X718937Y-88520D02*
Y-85521D01*
Y-87021D01*
X727934D01*
X726435Y-88520D01*
X590667Y-140824D02*
X599664D01*
Y-136325D01*
X598165Y-134826D01*
X595166D01*
X593666Y-136325D01*
Y-140824D01*
Y-137825D02*
X590667Y-134826D01*
X598165Y-131827D02*
X599664Y-130327D01*
Y-127328D01*
X598165Y-125829D01*
X596665D01*
X595166Y-127328D01*
Y-128828D01*
Y-127328D01*
X593666Y-125829D01*
X592167D01*
X590667Y-127328D01*
Y-130327D01*
X592167Y-131827D01*
Y-122830D02*
X590667Y-121330D01*
Y-118331D01*
X592167Y-116832D01*
X598165D01*
X599664Y-118331D01*
Y-121330D01*
X598165Y-122830D01*
X596665D01*
X595166Y-121330D01*
Y-116832D01*
X579237Y-140824D02*
X588234D01*
Y-136325D01*
X586735Y-134826D01*
X583736D01*
X582236Y-136325D01*
Y-140824D01*
Y-137825D02*
X579237Y-134826D01*
X586735Y-131827D02*
X588234Y-130327D01*
Y-127328D01*
X586735Y-125829D01*
X585235D01*
X583736Y-127328D01*
Y-128828D01*
Y-127328D01*
X582236Y-125829D01*
X580737D01*
X579237Y-127328D01*
Y-130327D01*
X580737Y-131827D01*
X586735Y-122830D02*
X588234Y-121330D01*
Y-118331D01*
X586735Y-116832D01*
X585235D01*
X583736Y-118331D01*
X582236Y-116832D01*
X580737D01*
X579237Y-118331D01*
Y-121330D01*
X580737Y-122830D01*
X582236D01*
X583736Y-121330D01*
X585235Y-122830D01*
X586735D01*
X583736Y-121330D02*
Y-118331D01*
X602097Y-140824D02*
X611094D01*
Y-136325D01*
X609595Y-134826D01*
X606596D01*
X605096Y-136325D01*
Y-140824D01*
Y-137825D02*
X602097Y-134826D01*
X609595Y-131827D02*
X611094Y-130327D01*
Y-127328D01*
X609595Y-125829D01*
X608095D01*
X606596Y-127328D01*
Y-128828D01*
Y-127328D01*
X605096Y-125829D01*
X603597D01*
X602097Y-127328D01*
Y-130327D01*
X603597Y-131827D01*
X611094Y-122830D02*
Y-116832D01*
X609595D01*
X603597Y-122830D01*
X602097D01*
X613527Y-140824D02*
X622524D01*
Y-136325D01*
X621025Y-134826D01*
X618026D01*
X616526Y-136325D01*
Y-140824D01*
Y-137825D02*
X613527Y-134826D01*
X621025Y-131827D02*
X622524Y-130327D01*
Y-127328D01*
X621025Y-125829D01*
X619525D01*
X618026Y-127328D01*
Y-128828D01*
Y-127328D01*
X616526Y-125829D01*
X615027D01*
X613527Y-127328D01*
Y-130327D01*
X615027Y-131827D01*
X622524Y-116832D02*
X621025Y-119831D01*
X618026Y-122830D01*
X615027D01*
X613527Y-121330D01*
Y-118331D01*
X615027Y-116832D01*
X616526D01*
X618026Y-118331D01*
Y-122830D01*
X624957Y-140824D02*
X633954D01*
Y-136325D01*
X632455Y-134826D01*
X629456D01*
X627956Y-136325D01*
Y-140824D01*
Y-137825D02*
X624957Y-134826D01*
X632455Y-131827D02*
X633954Y-130327D01*
Y-127328D01*
X632455Y-125829D01*
X630955D01*
X629456Y-127328D01*
Y-128828D01*
Y-127328D01*
X627956Y-125829D01*
X626457D01*
X624957Y-127328D01*
Y-130327D01*
X626457Y-131827D01*
X633954Y-116832D02*
Y-122830D01*
X629456D01*
X630955Y-119831D01*
Y-118331D01*
X629456Y-116832D01*
X626457D01*
X624957Y-118331D01*
Y-121330D01*
X626457Y-122830D01*
X567992Y-99827D02*
Y-90830D01*
X563493D01*
X561994Y-92329D01*
Y-95328D01*
X563493Y-96828D01*
X567992D01*
X564993D02*
X561994Y-99827D01*
X558995Y-92329D02*
X557495Y-90830D01*
X554496D01*
X552997Y-92329D01*
Y-93829D01*
X554496Y-95328D01*
X555996D01*
X554496D01*
X552997Y-96828D01*
Y-98327D01*
X554496Y-99827D01*
X557495D01*
X558995Y-98327D01*
X545499Y-99827D02*
Y-90830D01*
X549998Y-95328D01*
X544000D01*
X567807Y-140824D02*
X576804D01*
Y-136325D01*
X575305Y-134826D01*
X572306D01*
X570806Y-136325D01*
Y-140824D01*
Y-137825D02*
X567807Y-134826D01*
X575305Y-131827D02*
X576804Y-130327D01*
Y-127328D01*
X575305Y-125829D01*
X573805D01*
X572306Y-127328D01*
Y-128828D01*
Y-127328D01*
X570806Y-125829D01*
X569307D01*
X567807Y-127328D01*
Y-130327D01*
X569307Y-131827D01*
X575305Y-122830D02*
X576804Y-121330D01*
Y-118331D01*
X575305Y-116832D01*
X573805D01*
X572306Y-118331D01*
Y-119831D01*
Y-118331D01*
X570806Y-116832D01*
X569307D01*
X567807Y-118331D01*
Y-121330D01*
X569307Y-122830D01*
X567992Y-66827D02*
Y-57830D01*
X563493D01*
X561994Y-59329D01*
Y-62328D01*
X563493Y-63828D01*
X567992D01*
X564993D02*
X561994Y-66827D01*
X558995Y-59329D02*
X557495Y-57830D01*
X554496D01*
X552997Y-59329D01*
Y-60829D01*
X554496Y-62328D01*
X555996D01*
X554496D01*
X552997Y-63828D01*
Y-65327D01*
X554496Y-66827D01*
X557495D01*
X558995Y-65327D01*
X544000Y-66827D02*
X549998D01*
X544000Y-60829D01*
Y-59329D01*
X545499Y-57830D01*
X548498D01*
X549998Y-59329D01*
X623992Y-77827D02*
Y-68830D01*
X619493D01*
X617994Y-70329D01*
Y-73328D01*
X619493Y-74828D01*
X623992D01*
X620993D02*
X617994Y-77827D01*
X614995Y-70329D02*
X613495Y-68830D01*
X610496D01*
X608997Y-70329D01*
Y-71829D01*
X610496Y-73328D01*
X611996D01*
X610496D01*
X608997Y-74828D01*
Y-76327D01*
X610496Y-77827D01*
X613495D01*
X614995Y-76327D01*
X605998Y-77827D02*
X602999D01*
X604498D01*
Y-68830D01*
X605998Y-70329D01*
X567992Y-77827D02*
Y-68830D01*
X563493D01*
X561994Y-70329D01*
Y-73328D01*
X563493Y-74828D01*
X567992D01*
X564993D02*
X561994Y-77827D01*
X558995Y-70329D02*
X557495Y-68830D01*
X554496D01*
X552997Y-70329D01*
Y-71829D01*
X554496Y-73328D01*
X555996D01*
X554496D01*
X552997Y-74828D01*
Y-76327D01*
X554496Y-77827D01*
X557495D01*
X558995Y-76327D01*
X549998Y-70329D02*
X548498Y-68830D01*
X545499D01*
X544000Y-70329D01*
Y-76327D01*
X545499Y-77827D01*
X548498D01*
X549998Y-76327D01*
Y-70329D01*
X623992Y-99827D02*
Y-90830D01*
X619493D01*
X617994Y-92329D01*
Y-95328D01*
X619493Y-96828D01*
X623992D01*
X620993D02*
X617994Y-99827D01*
X608997D02*
X614995D01*
X608997Y-93829D01*
Y-92329D01*
X610496Y-90830D01*
X613495D01*
X614995Y-92329D01*
X605998Y-98327D02*
X604498Y-99827D01*
X601499D01*
X600000Y-98327D01*
Y-92329D01*
X601499Y-90830D01*
X604498D01*
X605998Y-92329D01*
Y-93829D01*
X604498Y-95328D01*
X600000D01*
X623992Y-65827D02*
Y-56830D01*
X619493D01*
X617994Y-58329D01*
Y-61328D01*
X619493Y-62828D01*
X623992D01*
X620993D02*
X617994Y-65827D01*
X608997D02*
X614995D01*
X608997Y-59829D01*
Y-58329D01*
X610496Y-56830D01*
X613495D01*
X614995Y-58329D01*
X605998D02*
X604498Y-56830D01*
X601499D01*
X600000Y-58329D01*
Y-59829D01*
X601499Y-61328D01*
X600000Y-62828D01*
Y-64327D01*
X601499Y-65827D01*
X604498D01*
X605998Y-64327D01*
Y-62828D01*
X604498Y-61328D01*
X605998Y-59829D01*
Y-58329D01*
X604498Y-61328D02*
X601499D01*
X623992Y-43827D02*
Y-34829D01*
X619493D01*
X617994Y-36329D01*
Y-39328D01*
X619493Y-40828D01*
X623992D01*
X620993D02*
X617994Y-43827D01*
X608997D02*
X614995D01*
X608997Y-37829D01*
Y-36329D01*
X610496Y-34829D01*
X613495D01*
X614995Y-36329D01*
X605998Y-34829D02*
X600000D01*
Y-36329D01*
X605998Y-42327D01*
Y-43827D01*
X567992Y-55827D02*
Y-46830D01*
X563493D01*
X561994Y-48329D01*
Y-51328D01*
X563493Y-52828D01*
X567992D01*
X564993D02*
X561994Y-55827D01*
X552997D02*
X558995D01*
X552997Y-49829D01*
Y-48329D01*
X554496Y-46830D01*
X557495D01*
X558995Y-48329D01*
X544000Y-46830D02*
X546999Y-48329D01*
X549998Y-51328D01*
Y-54327D01*
X548498Y-55827D01*
X545499D01*
X544000Y-54327D01*
Y-52828D01*
X545499Y-51328D01*
X549998D01*
X567992Y-44827D02*
Y-35830D01*
X563493D01*
X561994Y-37329D01*
Y-40328D01*
X563493Y-41828D01*
X567992D01*
X564993D02*
X561994Y-44827D01*
X552997D02*
X558995D01*
X552997Y-38829D01*
Y-37329D01*
X554496Y-35830D01*
X557495D01*
X558995Y-37329D01*
X544000Y-35830D02*
X549998D01*
Y-40328D01*
X546999Y-38829D01*
X545499D01*
X544000Y-40328D01*
Y-43327D01*
X545499Y-44827D01*
X548498D01*
X549998Y-43327D01*
X623992Y-54827D02*
Y-45830D01*
X619493D01*
X617994Y-47329D01*
Y-50328D01*
X619493Y-51828D01*
X623992D01*
X620993D02*
X617994Y-54827D01*
X608997D02*
X614995D01*
X608997Y-48829D01*
Y-47329D01*
X610496Y-45830D01*
X613495D01*
X614995Y-47329D01*
X601499Y-54827D02*
Y-45830D01*
X605998Y-50328D01*
X600000D01*
X844617Y33626D02*
Y42623D01*
X840119D01*
X838619Y41124D01*
Y38125D01*
X840119Y36625D01*
X844617D01*
X841618D02*
X838619Y33626D01*
X829622D02*
X835620D01*
X829622Y39624D01*
Y41124D01*
X831122Y42623D01*
X834121D01*
X835620Y41124D01*
X826623D02*
X825124Y42623D01*
X822124D01*
X820625Y41124D01*
Y39624D01*
X822124Y38125D01*
X823624D01*
X822124D01*
X820625Y36625D01*
Y35126D01*
X822124Y33626D01*
X825124D01*
X826623Y35126D01*
X749882Y88334D02*
X758878D01*
Y92832D01*
X757379Y94332D01*
X754380D01*
X752880Y92832D01*
Y88334D01*
Y91333D02*
X749882Y94332D01*
Y103329D02*
Y97331D01*
X755880Y103329D01*
X757379D01*
X758878Y101830D01*
Y98830D01*
X757379Y97331D01*
X749882Y112326D02*
Y106328D01*
X755880Y112326D01*
X757379D01*
X758878Y110827D01*
Y107828D01*
X757379Y106328D01*
X779091Y88563D02*
X788089D01*
Y93062D01*
X786589Y94562D01*
X783590D01*
X782091Y93062D01*
Y88563D01*
Y91562D02*
X779091Y94562D01*
Y103559D02*
Y97561D01*
X785089Y103559D01*
X786589D01*
X788089Y102059D01*
Y99060D01*
X786589Y97561D01*
X779091Y106558D02*
Y109557D01*
Y108057D01*
X788089D01*
X786589Y106558D01*
X913594Y-27848D02*
X922591D01*
Y-23350D01*
X921092Y-21850D01*
X918093D01*
X916593Y-23350D01*
Y-27848D01*
Y-24849D02*
X913594Y-21850D01*
Y-12853D02*
Y-18851D01*
X919592Y-12853D01*
X921092D01*
X922591Y-14353D01*
Y-17352D01*
X921092Y-18851D01*
Y-9854D02*
X922591Y-8355D01*
Y-5355D01*
X921092Y-3856D01*
X915094D01*
X913594Y-5355D01*
Y-8355D01*
X915094Y-9854D01*
X921092D01*
X891594Y-27848D02*
X900591D01*
Y-23350D01*
X899092Y-21850D01*
X896093D01*
X894593Y-23350D01*
Y-27848D01*
Y-24849D02*
X891594Y-21850D01*
Y-18851D02*
Y-15852D01*
Y-17352D01*
X900591D01*
X899092Y-18851D01*
X893094Y-11354D02*
X891594Y-9854D01*
Y-6855D01*
X893094Y-5355D01*
X899092D01*
X900591Y-6855D01*
Y-9854D01*
X899092Y-11354D01*
X897592D01*
X896093Y-9854D01*
Y-5355D01*
X702427Y-69995D02*
X711424D01*
Y-65496D01*
X709925Y-63996D01*
X706926D01*
X705426Y-65496D01*
Y-69995D01*
Y-66996D02*
X702427Y-63996D01*
Y-60997D02*
Y-57998D01*
Y-59498D01*
X711424D01*
X709925Y-60997D01*
Y-53500D02*
X711424Y-52000D01*
Y-49001D01*
X709925Y-47502D01*
X708425D01*
X706926Y-49001D01*
X705426Y-47502D01*
X703927D01*
X702427Y-49001D01*
Y-52000D01*
X703927Y-53500D01*
X705426D01*
X706926Y-52000D01*
X708425Y-53500D01*
X709925D01*
X706926Y-52000D02*
Y-49001D01*
X857831Y71824D02*
X866829D01*
Y76322D01*
X865329Y77822D01*
X862330D01*
X860831Y76322D01*
Y71824D01*
Y74823D02*
X857831Y77822D01*
Y80821D02*
Y83820D01*
Y82320D01*
X866829D01*
X865329Y80821D01*
X866829Y88319D02*
Y94317D01*
X865329D01*
X859331Y88319D01*
X857831D01*
X809495Y90673D02*
Y96671D01*
X810995Y98170D01*
X813994D01*
X815493Y96671D01*
Y90673D01*
X813994Y89173D01*
X810995D01*
X812494Y92172D02*
X809495Y89173D01*
X810995D02*
X809495Y90673D01*
X801998Y89173D02*
Y98170D01*
X806496Y93672D01*
X800498D01*
X734495Y90673D02*
Y96671D01*
X735995Y98170D01*
X738994D01*
X740493Y96671D01*
Y90673D01*
X738994Y89173D01*
X735995D01*
X737494Y92172D02*
X734495Y89173D01*
X735995D02*
X734495Y90673D01*
X731496Y96671D02*
X729997Y98170D01*
X726998D01*
X725498Y96671D01*
Y95171D01*
X726998Y93672D01*
X728497D01*
X726998D01*
X725498Y92172D01*
Y90673D01*
X726998Y89173D01*
X729997D01*
X731496Y90673D01*
X734495Y79673D02*
Y85671D01*
X735995Y87170D01*
X738994D01*
X740493Y85671D01*
Y79673D01*
X738994Y78173D01*
X735995D01*
X737494Y81172D02*
X734495Y78173D01*
X735995D02*
X734495Y79673D01*
X725498Y87170D02*
X731496D01*
Y82672D01*
X728497Y84171D01*
X726998D01*
X725498Y82672D01*
Y79673D01*
X726998Y78173D01*
X729997D01*
X731496Y79673D01*
X808996D02*
Y85671D01*
X810495Y87170D01*
X813494D01*
X814994Y85671D01*
Y79673D01*
X813494Y78173D01*
X810495D01*
X811995Y81172D02*
X808996Y78173D01*
X810495D02*
X808996Y79673D01*
X805997Y78173D02*
X802998D01*
X804497D01*
Y87170D01*
X805997Y85671D01*
X764188Y139118D02*
Y130121D01*
X758190D01*
X755191D02*
X752192D01*
X753691D01*
Y139118D01*
X755191Y137619D01*
X359992Y-71827D02*
Y-62830D01*
X355493D01*
X353994Y-64329D01*
Y-67328D01*
X355493Y-68828D01*
X359992D01*
X356993D02*
X353994Y-71827D01*
X350995Y-62830D02*
X344997D01*
X347996D01*
Y-71827D01*
X341998Y-64329D02*
X340498Y-62830D01*
X337499D01*
X336000Y-64329D01*
Y-65829D01*
X337499Y-67328D01*
X338999D01*
X337499D01*
X336000Y-68828D01*
Y-70327D01*
X337499Y-71827D01*
X340498D01*
X341998Y-70327D01*
X96005Y-57543D02*
Y-48545D01*
X91506D01*
X90007Y-50045D01*
Y-53044D01*
X91506Y-54544D01*
X96005D01*
X93006D02*
X90007Y-57543D01*
X87008Y-48545D02*
X81009D01*
X84009D01*
Y-57543D01*
X73512D02*
Y-48545D01*
X78010Y-53044D01*
X72012D01*
X954242Y-103830D02*
X951243D01*
X952742D01*
Y-112827D01*
X954242D01*
X951243D01*
X940746Y-105329D02*
X942246Y-103830D01*
X945245D01*
X946745Y-105329D01*
Y-111327D01*
X945245Y-112827D01*
X942246D01*
X940746Y-111327D01*
X931749Y-103830D02*
X937747D01*
Y-108328D01*
X934748Y-106829D01*
X933249D01*
X931749Y-108328D01*
Y-111327D01*
X933249Y-112827D01*
X936248D01*
X937747Y-111327D01*
X780242Y-49830D02*
X777243D01*
X778743D01*
Y-58827D01*
X780242D01*
X777243D01*
X766746Y-51329D02*
X768246Y-49830D01*
X771245D01*
X772745Y-51329D01*
Y-57327D01*
X771245Y-58827D01*
X768246D01*
X766746Y-57327D01*
X763747Y-51329D02*
X762248Y-49830D01*
X759249D01*
X757749Y-51329D01*
Y-52829D01*
X759249Y-54328D01*
X760748D01*
X759249D01*
X757749Y-55828D01*
Y-57327D01*
X759249Y-58827D01*
X762248D01*
X763747Y-57327D01*
X949123Y-25647D02*
X940126D01*
Y-21148D01*
X941626Y-19649D01*
X947624D01*
X949123Y-21148D01*
Y-25647D01*
X940126Y-16650D02*
Y-13651D01*
Y-15150D01*
X949123D01*
X947624Y-16650D01*
X940126Y-3154D02*
Y-9152D01*
X946124Y-3154D01*
X947624D01*
X949123Y-4654D01*
Y-7653D01*
X947624Y-9152D01*
X1004611Y6710D02*
Y-2287D01*
X1000112D01*
X998613Y-787D01*
Y5211D01*
X1000112Y6710D01*
X1004611D01*
X995613Y-2287D02*
X992615D01*
X994114D01*
Y6710D01*
X995613Y5211D01*
X988116Y-2287D02*
X985117D01*
X986616D01*
Y6710D01*
X988116Y5211D01*
X1004611Y18140D02*
Y9143D01*
X1000112D01*
X998613Y10643D01*
Y16641D01*
X1000112Y18140D01*
X1004611D01*
X995613Y9143D02*
X992615D01*
X994114D01*
Y18140D01*
X995613Y16641D01*
X988116D02*
X986616Y18140D01*
X983617D01*
X982118Y16641D01*
Y10643D01*
X983617Y9143D01*
X986616D01*
X988116Y10643D01*
Y16641D01*
X973221Y1228D02*
X974720Y2728D01*
X977719D01*
X979219Y1228D01*
Y-4770D01*
X977719Y-6269D01*
X974720D01*
X973221Y-4770D01*
X970222Y1228D02*
X968722Y2728D01*
X965723D01*
X964224Y1228D01*
Y-271D01*
X965723Y-1771D01*
X964224Y-3270D01*
Y-4770D01*
X965723Y-6269D01*
X968722D01*
X970222Y-4770D01*
Y-3270D01*
X968722Y-1771D01*
X970222Y-271D01*
Y1228D01*
X968722Y-1771D02*
X965723D01*
X961225Y1228D02*
X959725Y2728D01*
X956726D01*
X955227Y1228D01*
Y-271D01*
X956726Y-1771D01*
X958226D01*
X956726D01*
X955227Y-3270D01*
Y-4770D01*
X956726Y-6269D01*
X959725D01*
X961225Y-4770D01*
X973221Y12658D02*
X974720Y14158D01*
X977719D01*
X979219Y12658D01*
Y6660D01*
X977719Y5161D01*
X974720D01*
X973221Y6660D01*
X970222Y12658D02*
X968722Y14158D01*
X965723D01*
X964224Y12658D01*
Y11159D01*
X965723Y9659D01*
X964224Y8160D01*
Y6660D01*
X965723Y5161D01*
X968722D01*
X970222Y6660D01*
Y8160D01*
X968722Y9659D01*
X970222Y11159D01*
Y12658D01*
X968722Y9659D02*
X965723D01*
X955227Y5161D02*
X961225D01*
X955227Y11159D01*
Y12658D01*
X956726Y14158D01*
X959725D01*
X961225Y12658D01*
X885649Y-106098D02*
X887149Y-107598D01*
Y-110597D01*
X885649Y-112097D01*
X879651D01*
X878151Y-110597D01*
Y-107598D01*
X879651Y-106098D01*
X885649Y-103099D02*
X887149Y-101600D01*
Y-98601D01*
X885649Y-97101D01*
X884149D01*
X882650Y-98601D01*
X881151Y-97101D01*
X879651D01*
X878151Y-98601D01*
Y-101600D01*
X879651Y-103099D01*
X881151D01*
X882650Y-101600D01*
X884149Y-103099D01*
X885649D01*
X882650Y-101600D02*
Y-98601D01*
X878151Y-94102D02*
Y-91103D01*
Y-92603D01*
X887149D01*
X885649Y-94102D01*
X972627Y-60853D02*
X974126Y-59354D01*
X977125D01*
X978625Y-60853D01*
Y-66851D01*
X977125Y-68351D01*
X974126D01*
X972627Y-66851D01*
X969628Y-59354D02*
X963630D01*
Y-60853D01*
X969628Y-66851D01*
Y-68351D01*
X960631Y-60853D02*
X959131Y-59354D01*
X956132D01*
X954632Y-60853D01*
Y-62353D01*
X956132Y-63852D01*
X954632Y-65352D01*
Y-66851D01*
X956132Y-68351D01*
X959131D01*
X960631Y-66851D01*
Y-65352D01*
X959131Y-63852D01*
X960631Y-62353D01*
Y-60853D01*
X959131Y-63852D02*
X956132D01*
X743725Y-128516D02*
X745224Y-130016D01*
Y-133015D01*
X743725Y-134514D01*
X737727D01*
X736227Y-133015D01*
Y-130016D01*
X737727Y-128516D01*
X745224Y-125517D02*
Y-119519D01*
X743725D01*
X737727Y-125517D01*
X736227D01*
X745224Y-116520D02*
Y-110522D01*
X743725D01*
X737727Y-116520D01*
X736227D01*
X732725Y-128516D02*
X734224Y-130016D01*
Y-133015D01*
X732725Y-134514D01*
X726727D01*
X725227Y-133015D01*
Y-130016D01*
X726727Y-128516D01*
X734224Y-125517D02*
Y-119519D01*
X732725D01*
X726727Y-125517D01*
X725227D01*
X734224Y-110522D02*
X732725Y-113521D01*
X729726Y-116520D01*
X726727D01*
X725227Y-115021D01*
Y-112022D01*
X726727Y-110522D01*
X728226D01*
X729726Y-112022D01*
Y-116520D01*
X759455Y-125706D02*
X760954Y-127206D01*
Y-130205D01*
X759455Y-131704D01*
X753457D01*
X751957Y-130205D01*
Y-127206D01*
X753457Y-125706D01*
X760954Y-122707D02*
Y-116709D01*
X759455D01*
X753457Y-122707D01*
X751957D01*
X760954Y-107712D02*
Y-113710D01*
X756456D01*
X757955Y-110711D01*
Y-109212D01*
X756456Y-107712D01*
X753457D01*
X751957Y-109212D01*
Y-112211D01*
X753457Y-113710D01*
X772155Y-125706D02*
X773654Y-127206D01*
Y-130205D01*
X772155Y-131704D01*
X766157D01*
X764657Y-130205D01*
Y-127206D01*
X766157Y-125706D01*
X773654Y-122707D02*
Y-116709D01*
X772155D01*
X766157Y-122707D01*
X764657D01*
Y-109212D02*
X773654D01*
X769156Y-113710D01*
Y-107712D01*
X561994Y-81329D02*
X563493Y-79830D01*
X566492D01*
X567992Y-81329D01*
Y-87327D01*
X566492Y-88827D01*
X563493D01*
X561994Y-87327D01*
X554496Y-88827D02*
Y-79830D01*
X558995Y-84328D01*
X552997D01*
X549998Y-79830D02*
X544000D01*
Y-81329D01*
X549998Y-87327D01*
Y-88827D01*
X552445Y-134826D02*
X553944Y-136325D01*
Y-139324D01*
X552445Y-140824D01*
X546447D01*
X544947Y-139324D01*
Y-136325D01*
X546447Y-134826D01*
X544947Y-127328D02*
X553944D01*
X549446Y-131827D01*
Y-125829D01*
X553944Y-116832D02*
X552445Y-119831D01*
X549446Y-122830D01*
X546447D01*
X544947Y-121330D01*
Y-118331D01*
X546447Y-116832D01*
X547946D01*
X549446Y-118331D01*
Y-122830D01*
X561994Y-103329D02*
X563493Y-101830D01*
X566492D01*
X567992Y-103329D01*
Y-109327D01*
X566492Y-110827D01*
X563493D01*
X561994Y-109327D01*
X554496Y-110827D02*
Y-101830D01*
X558995Y-106328D01*
X552997D01*
X544000Y-101830D02*
X549998D01*
Y-106328D01*
X546999Y-104829D01*
X545499D01*
X544000Y-106328D01*
Y-109327D01*
X545499Y-110827D01*
X548498D01*
X549998Y-109327D01*
X563875Y-134826D02*
X565374Y-136325D01*
Y-139324D01*
X563875Y-140824D01*
X557877D01*
X556377Y-139324D01*
Y-136325D01*
X557877Y-134826D01*
X556377Y-127328D02*
X565374D01*
X560876Y-131827D01*
Y-125829D01*
X556377Y-118331D02*
X565374D01*
X560876Y-122830D01*
Y-116832D01*
X617994Y-81329D02*
X619493Y-79830D01*
X622492D01*
X623992Y-81329D01*
Y-87327D01*
X622492Y-88827D01*
X619493D01*
X617994Y-87327D01*
X610496Y-88827D02*
Y-79830D01*
X614995Y-84328D01*
X608997D01*
X605998Y-81329D02*
X604498Y-79830D01*
X601499D01*
X600000Y-81329D01*
Y-82829D01*
X601499Y-84328D01*
X602999D01*
X601499D01*
X600000Y-85828D01*
Y-87327D01*
X601499Y-88827D01*
X604498D01*
X605998Y-87327D01*
X617994Y-103329D02*
X619493Y-101830D01*
X622492D01*
X623992Y-103329D01*
Y-109327D01*
X622492Y-110827D01*
X619493D01*
X617994Y-109327D01*
X610496Y-110827D02*
Y-101830D01*
X614995Y-106328D01*
X608997D01*
X600000Y-110827D02*
X605998D01*
X600000Y-104829D01*
Y-103329D01*
X601499Y-101830D01*
X604498D01*
X605998Y-103329D01*
X838608Y29297D02*
X840108Y30796D01*
X843107D01*
X844607Y29297D01*
Y23299D01*
X843107Y21799D01*
X840108D01*
X838608Y23299D01*
X831111Y21799D02*
Y30796D01*
X835610Y26298D01*
X829611D01*
X826612Y21799D02*
X823613D01*
X825113D01*
Y30796D01*
X826612Y29297D01*
X589275Y-29186D02*
X590774Y-30686D01*
Y-33685D01*
X589275Y-35184D01*
X583277D01*
X581777Y-33685D01*
Y-30686D01*
X583277Y-29186D01*
X581777Y-21689D02*
X590774D01*
X586276Y-26187D01*
Y-20189D01*
X589275Y-17190D02*
X590774Y-15691D01*
Y-12692D01*
X589275Y-11192D01*
X583277D01*
X581777Y-12692D01*
Y-15691D01*
X583277Y-17190D01*
X589275D01*
X600705Y-16486D02*
X602204Y-17986D01*
Y-20985D01*
X600705Y-22484D01*
X594707D01*
X593207Y-20985D01*
Y-17986D01*
X594707Y-16486D01*
X600705Y-13487D02*
X602204Y-11988D01*
Y-8989D01*
X600705Y-7489D01*
X599205D01*
X597706Y-8989D01*
Y-10488D01*
Y-8989D01*
X596206Y-7489D01*
X594707D01*
X593207Y-8989D01*
Y-11988D01*
X594707Y-13487D01*
Y-4490D02*
X593207Y-2991D01*
Y9D01*
X594707Y1508D01*
X600705D01*
X602204Y9D01*
Y-2991D01*
X600705Y-4490D01*
X599205D01*
X597706Y-2991D01*
Y1508D01*
X589275Y-2516D02*
X590774Y-4016D01*
Y-7015D01*
X589275Y-8514D01*
X583277D01*
X581777Y-7015D01*
Y-4016D01*
X583277Y-2516D01*
X589275Y483D02*
X590774Y1982D01*
Y4981D01*
X589275Y6481D01*
X587775D01*
X586276Y4981D01*
Y3482D01*
Y4981D01*
X584776Y6481D01*
X583277D01*
X581777Y4981D01*
Y1982D01*
X583277Y483D01*
X589275Y9480D02*
X590774Y10979D01*
Y13979D01*
X589275Y15478D01*
X587775D01*
X586276Y13979D01*
X584776Y15478D01*
X583277D01*
X581777Y13979D01*
Y10979D01*
X583277Y9480D01*
X584776D01*
X586276Y10979D01*
X587775Y9480D01*
X589275D01*
X586276Y10979D02*
Y13979D01*
X910092Y-21850D02*
X911591Y-23350D01*
Y-26349D01*
X910092Y-27848D01*
X904094D01*
X902594Y-26349D01*
Y-23350D01*
X904094Y-21850D01*
X910092Y-18851D02*
X911591Y-17352D01*
Y-14353D01*
X910092Y-12853D01*
X908592D01*
X907093Y-14353D01*
Y-15852D01*
Y-14353D01*
X905593Y-12853D01*
X904094D01*
X902594Y-14353D01*
Y-17352D01*
X904094Y-18851D01*
X911591Y-9854D02*
Y-3856D01*
X910092D01*
X904094Y-9854D01*
X902594D01*
X877092Y-21850D02*
X878591Y-23350D01*
Y-26349D01*
X877092Y-27848D01*
X871094D01*
X869594Y-26349D01*
Y-23350D01*
X871094Y-21850D01*
X877092Y-18851D02*
X878591Y-17352D01*
Y-14353D01*
X877092Y-12853D01*
X875592D01*
X874093Y-14353D01*
Y-15852D01*
Y-14353D01*
X872593Y-12853D01*
X871094D01*
X869594Y-14353D01*
Y-17352D01*
X871094Y-18851D01*
X878591Y-3856D02*
X877092Y-6855D01*
X874093Y-9854D01*
X871094D01*
X869594Y-8355D01*
Y-5355D01*
X871094Y-3856D01*
X872593D01*
X874093Y-5355D01*
Y-9854D01*
X888092Y-21850D02*
X889591Y-23350D01*
Y-26349D01*
X888092Y-27848D01*
X882094D01*
X880594Y-26349D01*
Y-23350D01*
X882094Y-21850D01*
X888092Y-18851D02*
X889591Y-17352D01*
Y-14353D01*
X888092Y-12853D01*
X886592D01*
X885093Y-14353D01*
Y-15852D01*
Y-14353D01*
X883593Y-12853D01*
X882094D01*
X880594Y-14353D01*
Y-17352D01*
X882094Y-18851D01*
X889591Y-3856D02*
Y-9854D01*
X885093D01*
X886592Y-6855D01*
Y-5356D01*
X885093Y-3856D01*
X882094D01*
X880594Y-5356D01*
Y-8355D01*
X882094Y-9854D01*
X772619Y94332D02*
X774118Y92832D01*
Y89833D01*
X772619Y88334D01*
X766621D01*
X765122Y89833D01*
Y92832D01*
X766621Y94332D01*
X772619Y97331D02*
X774118Y98830D01*
Y101830D01*
X772619Y103329D01*
X771120D01*
X769620Y101830D01*
Y100330D01*
Y101830D01*
X768120Y103329D01*
X766621D01*
X765122Y101830D01*
Y98830D01*
X766621Y97331D01*
X765122Y110827D02*
X774118D01*
X769620Y106328D01*
Y112326D01*
X754028Y123649D02*
X755528Y125148D01*
X758527D01*
X760026Y123649D01*
Y117651D01*
X758527Y116152D01*
X755528D01*
X754028Y117651D01*
X751029Y123649D02*
X749529Y125148D01*
X746531D01*
X745031Y123649D01*
Y122149D01*
X746531Y120650D01*
X748030D01*
X746531D01*
X745031Y119150D01*
Y117651D01*
X746531Y116152D01*
X749529D01*
X751029Y117651D01*
X736034Y116152D02*
X742032D01*
X736034Y122149D01*
Y123649D01*
X737533Y125148D01*
X740532D01*
X742032Y123649D01*
X780469D02*
X781968Y125148D01*
X784967D01*
X786467Y123649D01*
Y117651D01*
X784967Y116152D01*
X781968D01*
X780469Y117651D01*
X777469Y123649D02*
X775970Y125148D01*
X772971D01*
X771471Y123649D01*
Y122149D01*
X772971Y120650D01*
X774471D01*
X772971D01*
X771471Y119150D01*
Y117651D01*
X772971Y116152D01*
X775970D01*
X777469Y117651D01*
X768472Y116152D02*
X765473D01*
X766973D01*
Y125148D01*
X768472Y123649D01*
X831039Y77822D02*
X832539Y76322D01*
Y73323D01*
X831039Y71824D01*
X825041D01*
X823541Y73323D01*
Y76322D01*
X825041Y77822D01*
X831039Y80821D02*
X832539Y82320D01*
Y85319D01*
X831039Y86819D01*
X829539D01*
X828040Y85319D01*
Y83820D01*
Y85319D01*
X826541Y86819D01*
X825041D01*
X823541Y85319D01*
Y82320D01*
X825041Y80821D01*
X831039Y89818D02*
X832539Y91318D01*
Y94317D01*
X831039Y95816D01*
X825041D01*
X823541Y94317D01*
Y91318D01*
X825041Y89818D01*
X831039D01*
X842469Y77822D02*
X843969Y76322D01*
Y73323D01*
X842469Y71824D01*
X836471D01*
X834971Y73323D01*
Y76322D01*
X836471Y77822D01*
X834971Y86819D02*
Y80821D01*
X840969Y86819D01*
X842469D01*
X843969Y85319D01*
Y82320D01*
X842469Y80821D01*
X836471Y89818D02*
X834971Y91318D01*
Y94317D01*
X836471Y95816D01*
X842469D01*
X843969Y94317D01*
Y91318D01*
X842469Y89818D01*
X840969D01*
X839470Y91318D01*
Y95816D01*
X655995Y-29326D02*
X657494Y-30826D01*
Y-33825D01*
X655995Y-35324D01*
X649997D01*
X648497Y-33825D01*
Y-30826D01*
X649997Y-29326D01*
X648497Y-20329D02*
Y-26327D01*
X654495Y-20329D01*
X655995D01*
X657494Y-21829D01*
Y-24828D01*
X655995Y-26327D01*
Y-17330D02*
X657494Y-15831D01*
Y-12831D01*
X655995Y-11332D01*
X654495D01*
X652996Y-12831D01*
X651496Y-11332D01*
X649997D01*
X648497Y-12831D01*
Y-15831D01*
X649997Y-17330D01*
X651496D01*
X652996Y-15831D01*
X654495Y-17330D01*
X655995D01*
X652996Y-15831D02*
Y-12831D01*
X638995Y-29326D02*
X640494Y-30826D01*
Y-33825D01*
X638995Y-35324D01*
X632997D01*
X631497Y-33825D01*
Y-30826D01*
X632997Y-29326D01*
X631497Y-20329D02*
Y-26327D01*
X637495Y-20329D01*
X638995D01*
X640494Y-21829D01*
Y-24828D01*
X638995Y-26327D01*
X640494Y-17330D02*
Y-11332D01*
X638995D01*
X632997Y-17330D01*
X631497D01*
X547247Y55711D02*
X548746Y54211D01*
Y51212D01*
X547247Y49713D01*
X541249D01*
X539749Y51212D01*
Y54211D01*
X541249Y55711D01*
X539749Y64708D02*
Y58710D01*
X545747Y64708D01*
X547247D01*
X548746Y63208D01*
Y60209D01*
X547247Y58710D01*
X548746Y73705D02*
X547247Y70706D01*
X544248Y67707D01*
X541249D01*
X539749Y69207D01*
Y72206D01*
X541249Y73705D01*
X542748D01*
X544248Y72206D01*
Y67707D01*
X601247Y55711D02*
X602746Y54212D01*
Y51212D01*
X601247Y49713D01*
X595249D01*
X593749Y51212D01*
Y54212D01*
X595249Y55711D01*
X593749Y64708D02*
Y58710D01*
X599747Y64708D01*
X601247D01*
X602746Y63209D01*
Y60209D01*
X601247Y58710D01*
X602746Y73705D02*
Y67707D01*
X598248D01*
X599747Y70706D01*
Y72206D01*
X598248Y73705D01*
X595249D01*
X593749Y72206D01*
Y69207D01*
X595249Y67707D01*
X529247Y55711D02*
X530746Y54211D01*
Y51212D01*
X529247Y49713D01*
X523249D01*
X521749Y51212D01*
Y54211D01*
X523249Y55711D01*
X521749Y64708D02*
Y58710D01*
X527747Y64708D01*
X529247D01*
X530746Y63208D01*
Y60209D01*
X529247Y58710D01*
X521749Y72206D02*
X530746D01*
X526248Y67707D01*
Y73705D01*
X619247Y55711D02*
X620746Y54211D01*
Y51212D01*
X619247Y49713D01*
X613249D01*
X611749Y51212D01*
Y54211D01*
X613249Y55711D01*
X611749Y64708D02*
Y58710D01*
X617747Y64708D01*
X619247D01*
X620746Y63208D01*
Y60209D01*
X619247Y58710D01*
Y67707D02*
X620746Y69207D01*
Y72206D01*
X619247Y73705D01*
X617747D01*
X616248Y72206D01*
Y70706D01*
Y72206D01*
X614748Y73705D01*
X613249D01*
X611749Y72206D01*
Y69207D01*
X613249Y67707D01*
X583247Y55711D02*
X584746Y54212D01*
Y51212D01*
X583247Y49713D01*
X577249D01*
X575749Y51212D01*
Y54212D01*
X577249Y55711D01*
X575749Y64708D02*
Y58710D01*
X581747Y64708D01*
X583247D01*
X584746Y63209D01*
Y60209D01*
X583247Y58710D01*
X575749Y73705D02*
Y67707D01*
X581747Y73705D01*
X583247D01*
X584746Y72206D01*
Y69207D01*
X583247Y67707D01*
X565247Y55711D02*
X566746Y54212D01*
Y51212D01*
X565247Y49713D01*
X559249D01*
X557749Y51212D01*
Y54212D01*
X559249Y55711D01*
X557749Y64708D02*
Y58710D01*
X563747Y64708D01*
X565247D01*
X566746Y63209D01*
Y60209D01*
X565247Y58710D01*
X557749Y67707D02*
Y70706D01*
Y69207D01*
X566746D01*
X565247Y67707D01*
X641345Y113054D02*
X642844Y111554D01*
Y108555D01*
X641345Y107056D01*
X635347D01*
X633847Y108555D01*
Y111554D01*
X635347Y113054D01*
X633847Y122051D02*
Y116053D01*
X639845Y122051D01*
X641345D01*
X642844Y120551D01*
Y117552D01*
X641345Y116053D01*
Y125050D02*
X642844Y126549D01*
Y129549D01*
X641345Y131048D01*
X635347D01*
X633847Y129549D01*
Y126549D01*
X635347Y125050D01*
X641345D01*
X627375Y113804D02*
X628874Y112304D01*
Y109305D01*
X627375Y107806D01*
X621377D01*
X619877Y109305D01*
Y112304D01*
X621377Y113804D01*
X619877Y116803D02*
Y119802D01*
Y118302D01*
X628874D01*
X627375Y116803D01*
X621377Y124300D02*
X619877Y125800D01*
Y128799D01*
X621377Y130298D01*
X627375D01*
X628874Y128799D01*
Y125800D01*
X627375Y124300D01*
X625875D01*
X624376Y125800D01*
Y130298D01*
X900679Y77822D02*
X902178Y76322D01*
Y73323D01*
X900679Y71824D01*
X894681D01*
X893181Y73323D01*
Y76322D01*
X894681Y77822D01*
X893181Y80821D02*
Y83820D01*
Y82320D01*
X902178D01*
X900679Y80821D01*
Y88319D02*
X902178Y89818D01*
Y92817D01*
X900679Y94317D01*
X899179D01*
X897680Y92817D01*
X896180Y94317D01*
X894681D01*
X893181Y92817D01*
Y89818D01*
X894681Y88319D01*
X896180D01*
X897680Y89818D01*
X899179Y88319D01*
X900679D01*
X897680Y89818D02*
Y92817D01*
X916679Y77822D02*
X918178Y76322D01*
Y73323D01*
X916679Y71824D01*
X910681D01*
X909181Y73323D01*
Y76322D01*
X910681Y77822D01*
X909181Y80821D02*
Y83820D01*
Y82320D01*
X918178D01*
X916679Y80821D01*
X918178Y88319D02*
Y94317D01*
X916679D01*
X910681Y88319D01*
X909181D01*
X985244Y68671D02*
X986743Y70170D01*
X989743D01*
X991242Y68671D01*
Y62673D01*
X989743Y61173D01*
X986743D01*
X985244Y62673D01*
X982245Y61173D02*
X979246D01*
X980745D01*
Y70170D01*
X982245Y68671D01*
X968749Y70170D02*
X971748Y68671D01*
X974747Y65672D01*
Y62673D01*
X973248Y61173D01*
X970249D01*
X968749Y62673D01*
Y64172D01*
X970249Y65672D01*
X974747D01*
X886679Y77822D02*
X888178Y76322D01*
Y73323D01*
X886679Y71824D01*
X880681D01*
X879181Y73323D01*
Y76322D01*
X880681Y77822D01*
X879181Y80821D02*
Y83820D01*
Y82320D01*
X888178D01*
X886679Y80821D01*
X888178Y94317D02*
Y88319D01*
X883680D01*
X885179Y91318D01*
Y92817D01*
X883680Y94317D01*
X880681D01*
X879181Y92817D01*
Y89818D01*
X880681Y88319D01*
D72*
X797348Y66390D02*
G03*
X798348Y66390I500J0D01*
G01*
D02*
G03*
X797348Y66390I-500J0D01*
G01*
D157*
X388086Y-102188D02*
Y-96948D01*
X453996Y-128428D02*
Y-123188D01*
X454109Y96932D02*
Y102172D01*
X388177Y123172D02*
Y128412D01*
X27256Y-141928D02*
X32496D01*
X458041Y123172D02*
Y128412D01*
X206996Y108322D02*
Y113562D01*
X237994Y-113516D02*
Y-108276D01*
X203096Y82082D02*
Y87322D01*
X457906Y-102188D02*
Y-96948D01*
X172094Y-87328D02*
Y-82088D01*
X102296Y108322D02*
Y113562D01*
X384176Y-128428D02*
Y-123188D01*
X133294Y-113568D02*
Y-108328D01*
X384245Y96932D02*
Y102172D01*
X168195Y82082D02*
Y87322D01*
X137194Y-87328D02*
Y-82088D01*
X318314Y123172D02*
Y128412D01*
X67396Y108322D02*
Y113562D01*
X314356Y-128428D02*
Y-123188D01*
X98394Y-113568D02*
Y-108328D01*
X314382Y96932D02*
Y102172D01*
X27256Y110974D02*
X32496D01*
X318266Y-102188D02*
Y-96948D01*
M02*
