G04*
G04 #@! TF.GenerationSoftware,Altium Limited,Altium Designer,25.7.1 (20)*
G04*
G04 Layer_Color=8421504*
%FSLAX44Y44*%
%MOMM*%
G71*
G04*
G04 #@! TF.SameCoordinates,D28F278F-FCFB-45CF-84EA-4666D5A2068F*
G04*
G04*
G04 #@! TF.FilePolarity,Positive*
G04*
G01*
G75*
%ADD11R,0.7000X1.2000*%
G04:AMPARAMS|DCode=12|XSize=3mm|YSize=1.2mm|CornerRadius=0.3mm|HoleSize=0mm|Usage=FLASHONLY|Rotation=270.000|XOffset=0mm|YOffset=0mm|HoleType=Round|Shape=RoundedRectangle|*
%AMROUNDEDRECTD12*
21,1,3.0000,0.6000,0,0,270.0*
21,1,2.4000,1.2000,0,0,270.0*
1,1,0.6000,-0.3000,-1.2000*
1,1,0.6000,-0.3000,1.2000*
1,1,0.6000,0.3000,1.2000*
1,1,0.6000,0.3000,-1.2000*
%
%ADD12ROUNDEDRECTD12*%
G04:AMPARAMS|DCode=13|XSize=6.096mm|YSize=1.2mm|CornerRadius=0.3mm|HoleSize=0mm|Usage=FLASHONLY|Rotation=180.000|XOffset=0mm|YOffset=0mm|HoleType=Round|Shape=RoundedRectangle|*
%AMROUNDEDRECTD13*
21,1,6.0960,0.6000,0,0,180.0*
21,1,5.4960,1.2000,0,0,180.0*
1,1,0.6000,-2.7480,0.3000*
1,1,0.6000,2.7480,0.3000*
1,1,0.6000,2.7480,-0.3000*
1,1,0.6000,-2.7480,-0.3000*
%
%ADD13ROUNDEDRECTD13*%
G36*
X210325Y124584D02*
X210850Y124411D01*
X211332Y124140D01*
X211752Y123779D01*
X212093Y123344D01*
X212343Y122850D01*
X212418Y122583D01*
X212418Y122583D01*
Y92555D01*
X200421Y99999D01*
X200421Y122191D01*
X200457Y122458D01*
X200633Y122969D01*
X200906Y123435D01*
X201264Y123839D01*
X201694Y124165D01*
X202179Y124401D01*
X202701Y124538D01*
X203240Y124571D01*
X203507Y124534D01*
X203507Y124534D01*
X208957Y124534D01*
X209224Y124608D01*
X209775Y124650D01*
X210325Y124584D01*
D02*
G37*
G36*
X254453Y124608D02*
X254720Y124534D01*
X260170Y124534D01*
X260170Y124534D01*
X260437Y124571D01*
X260976Y124538D01*
X261498Y124401D01*
X261983Y124165D01*
X262413Y123839D01*
X262771Y123435D01*
X263044Y122969D01*
X263220Y122458D01*
X263256Y122191D01*
X263256Y99999D01*
X251259Y92555D01*
Y122583D01*
X251259Y122583D01*
X251334Y122850D01*
X251584Y123344D01*
X251925Y123779D01*
X252345Y124140D01*
X252827Y124411D01*
X253352Y124584D01*
X253902Y124650D01*
X254453Y124608D01*
D02*
G37*
D11*
X231790Y96190D02*
D03*
X242500D02*
D03*
X221070D02*
D03*
D12*
X206417Y133884D02*
D03*
X257260D02*
D03*
D13*
X231822Y144884D02*
D03*
M02*
