G04*
G04 #@! TF.GenerationSoftware,Altium Limited,Altium Designer,25.7.1 (20)*
G04*
G04 Layer_Color=8388736*
%FSLAX44Y44*%
%MOMM*%
G71*
G04*
G04 #@! TF.SameCoordinates,D28F278F-FCFB-45CF-84EA-4666D5A2068F*
G04*
G04*
G04 #@! TF.FilePolarity,Negative*
G04*
G01*
G75*
%ADD14R,0.8500X1.3500*%
G04:AMPARAMS|DCode=15|XSize=3.15mm|YSize=1.35mm|CornerRadius=0.375mm|HoleSize=0mm|Usage=FLASHONLY|Rotation=270.000|XOffset=0mm|YOffset=0mm|HoleType=Round|Shape=RoundedRectangle|*
%AMROUNDEDRECTD15*
21,1,3.1500,0.6000,0,0,270.0*
21,1,2.4000,1.3500,0,0,270.0*
1,1,0.7500,-0.3000,-1.2000*
1,1,0.7500,-0.3000,1.2000*
1,1,0.7500,0.3000,1.2000*
1,1,0.7500,0.3000,-1.2000*
%
%ADD15ROUNDEDRECTD15*%
G04:AMPARAMS|DCode=16|XSize=6.246mm|YSize=1.35mm|CornerRadius=0.375mm|HoleSize=0mm|Usage=FLASHONLY|Rotation=180.000|XOffset=0mm|YOffset=0mm|HoleType=Round|Shape=RoundedRectangle|*
%AMROUNDEDRECTD16*
21,1,6.2460,0.6000,0,0,180.0*
21,1,5.4960,1.3500,0,0,180.0*
1,1,0.7500,-2.7480,0.3000*
1,1,0.7500,2.7480,0.3000*
1,1,0.7500,2.7480,-0.3000*
1,1,0.7500,-2.7480,-0.3000*
%
%ADD16ROUNDEDRECTD16*%
G36*
X209792Y125400D02*
X209837Y125400D01*
X209851Y125398D01*
X209866Y125397D01*
X210415Y125331D01*
X210430Y125328D01*
X210445Y125326D01*
X210487Y125316D01*
X210531Y125307D01*
X210545Y125302D01*
X210559Y125299D01*
X211085Y125126D01*
X211098Y125120D01*
X211113Y125116D01*
X211153Y125098D01*
X211194Y125081D01*
X211206Y125073D01*
X211220Y125067D01*
X211702Y124795D01*
X211714Y124787D01*
X211727Y124780D01*
X211763Y124754D01*
X211800Y124729D01*
X211811Y124719D01*
X211823Y124710D01*
X212242Y124350D01*
X212253Y124339D01*
X212264Y124330D01*
X212294Y124298D01*
X212326Y124266D01*
X212334Y124254D01*
X212344Y124243D01*
X212686Y123808D01*
X212694Y123795D01*
X212703Y123784D01*
X212726Y123746D01*
X212751Y123709D01*
X212757Y123696D01*
X212765Y123683D01*
X213015Y123189D01*
X213020Y123176D01*
X213027Y123163D01*
X213043Y123121D01*
X213059Y123080D01*
X213063Y123066D01*
X213068Y123052D01*
X213142Y122786D01*
X213151Y122743D01*
X213161Y122701D01*
X213161Y122698D01*
X213162Y122695D01*
X213162Y122683D01*
X213165Y122670D01*
X213167Y122626D01*
X213170Y122583D01*
Y122578D01*
X213170Y122578D01*
X213170Y122577D01*
Y92555D01*
X213167Y92523D01*
X213167Y92491D01*
X213163Y92464D01*
X213161Y92437D01*
X213153Y92406D01*
X213148Y92375D01*
X213139Y92349D01*
X213133Y92322D01*
X213121Y92293D01*
X213111Y92263D01*
X213098Y92239D01*
X213088Y92213D01*
X213071Y92186D01*
X213057Y92158D01*
X213041Y92136D01*
X213026Y92112D01*
X213005Y92088D01*
X212987Y92063D01*
X212967Y92044D01*
X212950Y92023D01*
X212925Y92002D01*
X212903Y91980D01*
X212881Y91964D01*
X212860Y91946D01*
X212833Y91929D01*
X212807Y91911D01*
X212782Y91899D01*
X212759Y91884D01*
X212730Y91872D01*
X212701Y91858D01*
X212675Y91849D01*
X212650Y91839D01*
X212619Y91832D01*
X212589Y91822D01*
X212562Y91818D01*
X212535Y91812D01*
X212504Y91809D01*
X212472Y91804D01*
X212445Y91804D01*
X212418Y91802D01*
X212386Y91805D01*
X212354Y91805D01*
X212327Y91809D01*
X212300Y91812D01*
X212269Y91819D01*
X212238Y91824D01*
X212212Y91833D01*
X212185Y91839D01*
X212156Y91851D01*
X212126Y91861D01*
X212101Y91874D01*
X212076Y91884D01*
X212049Y91901D01*
X212021Y91915D01*
X200024Y99360D01*
X200002Y99376D01*
X199978Y99390D01*
X199954Y99411D01*
X199929Y99430D01*
X199910Y99449D01*
X199889Y99467D01*
X199868Y99491D01*
X199846Y99514D01*
X199830Y99536D01*
X199812Y99557D01*
X199795Y99584D01*
X199777Y99609D01*
X199765Y99634D01*
X199750Y99657D01*
X199738Y99687D01*
X199724Y99715D01*
X199716Y99741D01*
X199705Y99767D01*
X199698Y99797D01*
X199688Y99827D01*
X199684Y99855D01*
X199678Y99881D01*
X199675Y99913D01*
X199670Y99944D01*
X199670Y99972D01*
X199668Y99999D01*
X199668Y122191D01*
X199672Y122242D01*
X199675Y122293D01*
X199712Y122560D01*
X199715Y122575D01*
X199716Y122589D01*
X199728Y122632D01*
X199737Y122676D01*
X199742Y122689D01*
X199746Y122704D01*
X199922Y123214D01*
X199928Y123228D01*
X199932Y123242D01*
X199952Y123282D01*
X199969Y123322D01*
X199977Y123335D01*
X199984Y123348D01*
X200256Y123814D01*
X200264Y123826D01*
X200271Y123839D01*
X200298Y123875D01*
X200323Y123911D01*
X200334Y123922D01*
X200343Y123934D01*
X200700Y124338D01*
X200711Y124348D01*
X200721Y124359D01*
X200754Y124389D01*
X200786Y124419D01*
X200798Y124428D01*
X200809Y124438D01*
X201239Y124764D01*
X201251Y124772D01*
X201263Y124782D01*
X201301Y124804D01*
X201338Y124828D01*
X201352Y124834D01*
X201364Y124841D01*
X201850Y125078D01*
X201864Y125083D01*
X201877Y125090D01*
X201918Y125105D01*
X201960Y125121D01*
X201974Y125124D01*
X201988Y125129D01*
X202510Y125266D01*
X202525Y125268D01*
X202539Y125273D01*
X202583Y125279D01*
X202626Y125287D01*
X202641Y125287D01*
X202656Y125289D01*
X203195Y125322D01*
X203210Y125321D01*
X203224Y125323D01*
X203268Y125320D01*
X203313Y125319D01*
X203327Y125317D01*
X203342Y125316D01*
X203557Y125286D01*
X208854Y125287D01*
X209021Y125333D01*
X209036Y125336D01*
X209050Y125340D01*
X209094Y125347D01*
X209137Y125356D01*
X209152Y125356D01*
X209167Y125359D01*
X209718Y125400D01*
X209733Y125400D01*
X209748Y125402D01*
X209792Y125400D01*
D02*
G37*
G36*
X253944Y125400D02*
X253959Y125400D01*
X254510Y125359D01*
X254525Y125356D01*
X254540Y125356D01*
X254583Y125347D01*
X254627Y125340D01*
X254641Y125336D01*
X254655Y125333D01*
X254823Y125287D01*
X260120Y125286D01*
X260335Y125316D01*
X260350Y125317D01*
X260364Y125319D01*
X260409Y125320D01*
X260453Y125323D01*
X260467Y125321D01*
X260482Y125322D01*
X261021Y125289D01*
X261036Y125287D01*
X261051Y125287D01*
X261094Y125279D01*
X261138Y125273D01*
X261152Y125268D01*
X261167Y125266D01*
X261689Y125129D01*
X261703Y125124D01*
X261717Y125121D01*
X261759Y125105D01*
X261800Y125090D01*
X261813Y125083D01*
X261827Y125078D01*
X262313Y124841D01*
X262325Y124834D01*
X262339Y124828D01*
X262376Y124804D01*
X262414Y124782D01*
X262426Y124772D01*
X262438Y124764D01*
X262868Y124438D01*
X262879Y124428D01*
X262892Y124419D01*
X262923Y124389D01*
X262956Y124359D01*
X262966Y124348D01*
X262976Y124338D01*
X263334Y123934D01*
X263343Y123922D01*
X263354Y123911D01*
X263379Y123875D01*
X263405Y123839D01*
X263412Y123826D01*
X263421Y123814D01*
X263693Y123348D01*
X263700Y123335D01*
X263708Y123322D01*
X263725Y123282D01*
X263745Y123242D01*
X263749Y123228D01*
X263755Y123214D01*
X263931Y122704D01*
X263935Y122689D01*
X263940Y122676D01*
X263949Y122632D01*
X263961Y122589D01*
X263962Y122575D01*
X263965Y122560D01*
X264002Y122293D01*
X264005Y122242D01*
X264009Y122191D01*
X264009Y99999D01*
X264007Y99972D01*
X264007Y99944D01*
X264002Y99913D01*
X263999Y99881D01*
X263993Y99855D01*
X263989Y99827D01*
X263979Y99797D01*
X263972Y99767D01*
X263961Y99741D01*
X263953Y99715D01*
X263939Y99687D01*
X263927Y99657D01*
X263912Y99634D01*
X263900Y99609D01*
X263882Y99584D01*
X263865Y99557D01*
X263847Y99536D01*
X263831Y99514D01*
X263809Y99491D01*
X263788Y99467D01*
X263767Y99449D01*
X263748Y99430D01*
X263723Y99411D01*
X263699Y99390D01*
X263675Y99376D01*
X263653Y99360D01*
X251656Y91915D01*
X251628Y91901D01*
X251601Y91884D01*
X251576Y91874D01*
X251551Y91861D01*
X251521Y91851D01*
X251492Y91839D01*
X251465Y91833D01*
X251439Y91824D01*
X251408Y91819D01*
X251377Y91812D01*
X251350Y91809D01*
X251323Y91805D01*
X251291Y91805D01*
X251259Y91802D01*
X251232Y91804D01*
X251205Y91804D01*
X251173Y91809D01*
X251142Y91812D01*
X251115Y91818D01*
X251088Y91822D01*
X251058Y91832D01*
X251027Y91839D01*
X251002Y91849D01*
X250975Y91858D01*
X250947Y91872D01*
X250918Y91884D01*
X250895Y91899D01*
X250870Y91911D01*
X250844Y91929D01*
X250817Y91946D01*
X250796Y91964D01*
X250774Y91980D01*
X250752Y92002D01*
X250728Y92023D01*
X250709Y92044D01*
X250690Y92063D01*
X250672Y92088D01*
X250651Y92112D01*
X250636Y92136D01*
X250620Y92158D01*
X250606Y92186D01*
X250589Y92213D01*
X250579Y92239D01*
X250566Y92263D01*
X250556Y92293D01*
X250544Y92322D01*
X250537Y92349D01*
X250529Y92375D01*
X250524Y92406D01*
X250516Y92437D01*
X250514Y92464D01*
X250510Y92491D01*
X250510Y92523D01*
X250507Y92555D01*
Y122577D01*
X250507Y122578D01*
X250507Y122578D01*
Y122583D01*
X250511Y122626D01*
X250512Y122670D01*
X250515Y122683D01*
X250515Y122695D01*
X250516Y122698D01*
X250516Y122701D01*
X250526Y122743D01*
X250535Y122786D01*
X250609Y123052D01*
X250614Y123066D01*
X250618Y123080D01*
X250634Y123121D01*
X250650Y123163D01*
X250657Y123176D01*
X250662Y123189D01*
X250912Y123683D01*
X250920Y123696D01*
X250926Y123709D01*
X250951Y123746D01*
X250974Y123784D01*
X250983Y123795D01*
X250991Y123808D01*
X251333Y124243D01*
X251343Y124254D01*
X251351Y124266D01*
X251383Y124298D01*
X251413Y124330D01*
X251424Y124339D01*
X251435Y124350D01*
X251854Y124710D01*
X251866Y124719D01*
X251877Y124729D01*
X251914Y124754D01*
X251950Y124780D01*
X251963Y124787D01*
X251975Y124795D01*
X252457Y125067D01*
X252471Y125073D01*
X252483Y125081D01*
X252524Y125098D01*
X252564Y125116D01*
X252579Y125120D01*
X252592Y125126D01*
X253118Y125299D01*
X253132Y125302D01*
X253146Y125307D01*
X253190Y125316D01*
X253232Y125326D01*
X253247Y125328D01*
X253262Y125331D01*
X253811Y125397D01*
X253826Y125398D01*
X253841Y125400D01*
X253885Y125400D01*
X253929Y125402D01*
X253944Y125400D01*
D02*
G37*
D14*
X231790Y96190D02*
D03*
X242500D02*
D03*
X221070D02*
D03*
D15*
X206417Y133884D02*
D03*
X257260D02*
D03*
D16*
X231822Y144884D02*
D03*
M02*
