G04*
G04 #@! TF.GenerationSoftware,Altium Limited,Altium Designer,25.7.1 (20)*
G04*
G04 Layer_Physical_Order=2*
G04 Layer_Color=16711680*
%FSLAX44Y44*%
%MOMM*%
G71*
G04*
G04 #@! TF.SameCoordinates,D28F278F-FCFB-45CF-84EA-4666D5A2068F*
G04*
G04*
G04 #@! TF.FilePolarity,Positive*
G04*
G01*
G75*
%ADD10C,0.1000*%
%ADD11R,0.7000X1.2000*%
%ADD17C,0.4500*%
%ADD18C,0.5000*%
%ADD19R,0.3500X0.5750*%
%ADD20R,0.5400X0.6000*%
%ADD21R,0.9000X0.8000*%
%ADD22R,0.8000X0.5000*%
%ADD23C,0.3000*%
%ADD24C,0.3500*%
G36*
X235329Y144787D02*
X239299D01*
Y143517D01*
X235329D01*
Y140255D01*
X232045D01*
Y132729D01*
X231861Y132545D01*
X231545Y133310D01*
Y140255D01*
X228179D01*
Y143587D01*
X224209D01*
Y144857D01*
X228179D01*
Y147951D01*
X235329D01*
Y144787D01*
D02*
G37*
G36*
X243991Y136380D02*
X244045Y136108D01*
Y132505D01*
X246758D01*
Y127111D01*
X246725Y127061D01*
X246531Y126086D01*
Y125495D01*
X244045D01*
Y120916D01*
X243815D01*
Y120985D01*
X240795D01*
X237775D01*
Y120916D01*
X237635D01*
Y127005D01*
X238194Y127564D01*
X238803Y129035D01*
Y130626D01*
X238194Y132096D01*
X238055Y132235D01*
X240160D01*
Y136380D01*
X240795D01*
Y137015D01*
X243815D01*
Y137194D01*
X243991D01*
Y136380D01*
D02*
G37*
G36*
X265931Y146475D02*
Y104000D01*
X247065Y92209D01*
X247004D01*
Y103190D01*
X241484D01*
X241044Y104252D01*
X238566Y106730D01*
X239845D01*
Y111000D01*
X240480D01*
Y111635D01*
X244450D01*
Y112044D01*
X245313D01*
X245380Y112072D01*
Y107000D01*
X252780D01*
Y115000D01*
X251629D01*
Y116935D01*
Y125030D01*
X256599Y130000D01*
X264500D01*
Y140000D01*
X259138D01*
X251599Y147540D01*
Y148152D01*
X251076D01*
Y152961D01*
X259445D01*
X265931Y146475D01*
D02*
G37*
G36*
X211909Y140222D02*
X213991D01*
Y136380D01*
X214045Y136109D01*
Y132505D01*
X219545D01*
Y136110D01*
X219598Y136380D01*
Y137069D01*
X219775D01*
Y137015D01*
X222795D01*
Y136380D01*
X223430D01*
Y132235D01*
X223993D01*
X223992Y132231D01*
Y130640D01*
X224601Y129170D01*
X225211Y128559D01*
X211912D01*
X210764Y128084D01*
X210181Y127500D01*
X202500D01*
Y120500D01*
X212500D01*
Y120513D01*
X214045D01*
Y117745D01*
X215581D01*
X215742Y117355D01*
X216021Y116683D01*
X216021D01*
Y116683D01*
X220936Y111768D01*
X220674Y111135D01*
Y103190D01*
X217975D01*
X202049Y119115D01*
Y143944D01*
X206056Y147951D01*
X211909D01*
Y140222D01*
D02*
G37*
G36*
X197698Y116257D02*
X216570Y97385D01*
Y92209D01*
X216485D01*
X197619Y104000D01*
Y116375D01*
X197698Y116257D01*
D02*
G37*
%LPC*%
G36*
X243815Y135745D02*
X241430D01*
Y132235D01*
X243815D01*
Y135745D01*
D02*
G37*
G36*
Y125765D02*
X241430D01*
Y122255D01*
X243815D01*
Y125765D01*
D02*
G37*
G36*
X240160D02*
X237775D01*
Y122255D01*
X240160D01*
Y125765D01*
D02*
G37*
G36*
X264770Y126270D02*
X259635D01*
Y121635D01*
X264770D01*
Y126270D01*
D02*
G37*
G36*
X258365D02*
X253230D01*
Y121635D01*
X258365D01*
Y126270D01*
D02*
G37*
G36*
X264770Y120365D02*
X259635D01*
Y115730D01*
X264770D01*
Y120365D01*
D02*
G37*
G36*
X258365D02*
X253230D01*
Y115730D01*
X258365D01*
Y120365D01*
D02*
G37*
G36*
X244450Y110365D02*
X241115D01*
Y106730D01*
X244450D01*
Y110365D01*
D02*
G37*
G36*
X212769Y138904D02*
X208134D01*
Y135769D01*
X212769D01*
Y138904D01*
D02*
G37*
G36*
X206864D02*
X202229D01*
Y135769D01*
X206864D01*
Y138904D01*
D02*
G37*
G36*
X222160Y135745D02*
X219775D01*
Y132235D01*
X222160D01*
Y135745D01*
D02*
G37*
G36*
X212769Y134499D02*
X208134D01*
Y131364D01*
X212769D01*
Y134499D01*
D02*
G37*
G36*
X206864D02*
X202229D01*
Y131364D01*
X206864D01*
Y134499D01*
D02*
G37*
%LPD*%
D10*
X207500Y124000D02*
X208851Y125351D01*
X211912Y126936D02*
X229876D01*
X208851Y125351D02*
X210328D01*
X211912Y126936D01*
X229876D02*
X232771Y129830D01*
X231787Y96190D02*
Y103213D01*
X217169Y117831D02*
Y121245D01*
Y117831D02*
X231787Y103213D01*
X232771Y129830D02*
X234803D01*
X227992Y131435D02*
X228769D01*
X228795Y131461D01*
X234795Y119207D02*
Y121620D01*
Y119207D02*
X237067Y116935D01*
X249080D01*
X234795Y129839D02*
X234803Y129830D01*
X234795Y129839D02*
Y136380D01*
X230045Y117607D02*
X231628Y116023D01*
Y114806D02*
X231807D01*
X231628D02*
Y116023D01*
X228795Y131461D02*
Y136380D01*
Y121620D02*
X230045Y120370D01*
Y117607D02*
Y120370D01*
X222795Y117455D02*
X230500Y109750D01*
X233250D01*
X222795Y117455D02*
Y121620D01*
X233250Y109750D02*
X239896Y103104D01*
Y98798D02*
Y103104D01*
Y98798D02*
X242504Y96190D01*
X216795Y121620D02*
X217169Y121245D01*
D11*
X231787Y96190D02*
D03*
X242504D02*
D03*
X221070D02*
D03*
D17*
X254296Y149734D02*
D03*
X207222Y142456D02*
D03*
X250750Y98750D02*
D03*
X211750Y98000D02*
D03*
X200500Y108000D02*
D03*
X216500Y109000D02*
D03*
X258500Y111750D02*
D03*
X243000Y129000D02*
D03*
X231750Y144250D02*
D03*
X227992Y131435D02*
D03*
X234803Y129830D02*
D03*
D18*
X231807Y114806D02*
D03*
D19*
X246795Y121620D02*
D03*
X240795D02*
D03*
X234795D02*
D03*
X228795D02*
D03*
X222795D02*
D03*
X216795D02*
D03*
Y136380D02*
D03*
X222795D02*
D03*
X228795D02*
D03*
X234795D02*
D03*
X240795D02*
D03*
X246795D02*
D03*
D20*
X239299Y144152D02*
D03*
X247899D02*
D03*
X224209Y144222D02*
D03*
X215609D02*
D03*
X240480Y111000D02*
D03*
X249080D02*
D03*
D21*
X259000Y121000D02*
D03*
Y135000D02*
D03*
D22*
X207500Y124000D02*
D03*
X207499Y135134D02*
D03*
D23*
X257994Y135000D02*
X259000D01*
X249080Y126086D02*
X257994Y135000D01*
X249080Y116935D02*
Y126086D01*
X205000Y150500D02*
X245034D01*
X259000Y136533D01*
X199500Y118060D02*
X221070Y96490D01*
X199500Y118060D02*
Y145000D01*
X249080Y111000D02*
Y116935D01*
X199500Y145000D02*
X205000Y150500D01*
X259000Y135000D02*
Y136533D01*
D24*
X216795Y136380D02*
Y148826D01*
X246794Y143047D02*
X247899Y144152D01*
X239299D02*
X240795Y142656D01*
Y136380D02*
Y142656D01*
X246794Y136380D02*
Y143047D01*
X222795Y143442D02*
X224209Y144857D01*
X222795Y136380D02*
Y143442D01*
M02*
