M48
;Layer_Color=9474304
;FILE_FORMAT=4:4
METRIC,LZ
;TYPE=PLATED
T01F00S00C0.3000
T02F00S00C0.4000
T04F00S00C1.1000
;TYPE=NON_PLATED
T05F00S00C0.6500
%
T01
X00010996Y-00147328
X00008496Y-00139828
Y-00132328
Y-00124828
Y-00117328
X00018976Y-0010905
X00026378Y-00107654
X00030444Y-00115965
X00031181Y-00123774
X00031914Y-00129803
X00031733Y-00136135
X00023071Y-00136271
X00023003Y-00129667
X00022574Y-00123109
X00025996Y-00149828
X00018496
X00033496
X00029802Y-00084523
X00043151Y-00083936
Y-0009027
Y-00096604
Y-00102938
X00035053Y-00102978
X00039916Y-00109583
X00048425Y-00108703
X00054899Y-00108942
X00052431Y-00143308
X00058678Y-00143485
X00066628Y-00143399
X00063496Y-00149828
X0005588Y-0014986
X00048496Y-00149828
X0004064Y-0014986
X00042766Y-00143357
X00086054Y-00120976
X00105707Y-00116678
X00110996Y-00139828
X00115996Y-00134828
Y-00144828
X00110996Y-00149828
X00120996
Y-00139828
X00165996
Y-00149828
X00175996
Y-00139828
X00170996Y-00134828
Y-00144828
X00166054Y-00094976
X00155998Y-00086561
X00149531Y-00086583
X00142929Y-00086561
X00137287Y-00082435
X00177743Y-00086606
X00184255Y-00086628
X00190901Y-00086672
X00204342Y-00112435
X00216996Y-00128828
X00220401Y-00135831
X00226676Y-00138732
X00231804Y-00143455
X00239226Y-00146829
X00249481Y-00147976
X00259535Y-00147166
X00267362Y-00143793
X00273893Y-0013879
X00277213Y-00132592
X00279595Y-00116742
X00275067Y-00113156
X00275748Y-00104818
X00281855
X0026964
X00266054Y-00094976
Y-00088976
Y-00082976
X00275054
Y-00088976
Y-00094976
X00256616Y-00109572
X00248996Y-00109328
X00241996
X00245422Y-00103066
X00288054Y-00124976
X00291682Y-00159549
X00299841
X00308
X00316159
X00324319
X00325996Y-00169828
X00310996
X00295996
X00280996
X00273496
X00265996
X00258496
X00250996
X00243496
X00235996
X00228496
X00220996
X00332738Y-00140809
X00330583Y-00101528
X00324066Y-00101463
X00320658Y-00097015
X00320054Y-00086976
X00329054
X00334068Y-00094043
X00339327Y-00089945
X00337359Y-00101688
X00346246Y-00097188
X00359054Y-00124976
X0037739Y-00146346
Y-00151474
X00382685Y-00151407
X00382885Y-00146246
X00380996Y-00159828
X00375996Y-00164828
X00380996Y-00169828
X00370996
Y-00159828
X00425996Y-00157328
Y-00169828
Y-00137328
X00410139Y-00105891
X0040628Y-00101606
X00400225Y-00101662
X00393605Y-00101492
X00389389Y-00094532
X0039Y-00087999
X00398
X004071Y-00089666
X00403253Y-00094051
X00412942Y-00094209
X00459366Y-00094341
X00460054Y-00087976
X00469054
X00472739Y-00094029
X00477108Y-00090643
X00475555Y-00101215
X0047Y-0010165
X00463722Y-00101564
X00489461Y-00085516
X00503496Y-00097328
X00507467Y-00108855
X00515502Y-00107856
X00524471Y-00107689
X00532083Y-00108364
X00539508Y-00110964
X00544762Y-00116606
X0054749Y-0012275
X00548175Y-00129426
X0054614Y-00135987
X0054169Y-00142246
X00534911Y-00145949
X00527703Y-00147139
X0051861Y-00147106
X00509984Y-00147036
X00503795Y-0014413
X00498406Y-00139699
X00494901Y-00132855
X00493974Y-00125018
X00496323Y-00118371
X00500996Y-00112328
X00518496Y-00087328
Y-00169828
X00510996
X00503496
X00495996
X00488496
X00480996
X00435996
X00430996Y-00164828
X00435996Y-00157328
X00437434Y-00151421
X00432139Y-00151488
Y-00146359
X00437633Y-00146259
X00525996Y-00169828
X00533496
X00540996
X00548496
X00555996
X00563496
X00570996
X00578496
X00585996
X00590996Y-00164828
X00595996Y-00159828
X00600996Y-00154828
X00605996Y-00149828
X00613706Y-00139818
X00621206
Y-00132318
Y-00124818
X00613706
Y-00132318
X00606206
Y-00124818
X00598706
Y-00117318
Y-00109818
Y-00102318
X00606206
Y-00109818
Y-00117318
X00613706
X00621206
Y-00109818
Y-00102318
X00613706
Y-00109818
X00628706
Y-00102318
X00636206
X00643706
Y-00109818
X00636206
Y-00117318
X00643706
Y-00124818
Y-00132318
X00636206
Y-00124818
X00628706
Y-00132318
Y-00139818
X00636206
X00643706
X00651206
Y-00132318
Y-00124818
Y-00117318
Y-00109818
Y-00102318
Y-00094818
Y-00087318
X00643706
X00636206
Y-00094818
X00643706
X00658706
Y-00087318
X00666206
Y-00094818
X00673706
Y-00087318
X00681206
X00688706
Y-00094818
X00681206
Y-00102318
X00673706
X00666206
X00658706
X00688706
X00696206
X00703496Y-00102328
X00710996
X00710869Y-00094773
X00703496Y-00094828
X00696206Y-00094818
Y-00087318
X00703496Y-00087328
X00710996
X00762298Y-00097586
X00771Y-00090999
X00778398Y-00085625
X00787348Y-00098332
X00812348Y-00103916
Y-00092289
X00825996Y-00099828
X00628496Y-00094828
Y-00087328
X00620996
X00613496
Y-00094828
X00620996
X00605996
Y-00087328
X00598496Y-00094828
X00628706Y-00117318
X00833496Y-00112328
X00913393Y-00108053
X00913348Y-00096118
X00913161Y-00087182
X0091284Y-00067602
X00935706Y-00064318
X00972172Y-00049832
X0097268Y-00038323
X00916428Y-00020771
X00916503Y-00015268
X00901689Y-00024313
X00891517Y-00020659
X00886Y-0002
X0088265Y0000127
X00864526Y-0000791
X00848071Y-00008
X00837331Y-00037643
X00836348Y-0005361
X00856706Y-00072318
X00860998Y00057878
Y00063723
X00883354Y00060201
X00897047Y00062201
X00913805Y00062709
X00936796Y00093652
Y00107622
X00944805Y00100443
X00950828Y00093067
X00951942Y00107881
X00848496Y00105172
Y00097672
Y00090172
X00840996
X00833496
Y00097672
X00840996
Y00105172
X00833496
X00843166Y00048836
X0082329Y00071254
X00825996Y00090172
X00818496
X00810996
X00803496
X00802765Y00083691
X00795996Y00090172
X00788496
Y00097672
X00795996
Y00105172
X00788496
X00780996
Y00097672
Y00090172
X00773496
X00765996
Y00097672
X00773496
Y00105172
X00765996
X00758496
Y00097672
Y00090172
X00750996
X00743496
Y00097672
X00750996
Y00105172
X00743496
X00735996
Y00097672
Y00090172
X00728496
X00720996
Y00097672
X00728496
Y00105172
X00713496Y00097672
Y00090172
Y00082672
X00705996
X00698496
X00690996
X00683496
Y00090172
X00675996
Y00097672
X00683496
X00690996
Y00090172
X00698496
X00705996
Y00097672
X00698496
X00668496
Y00090172
X00660996
Y00097672
X00653496
Y00090172
X00645996Y00097672
X00643496Y00115172
X00650996Y00117672
Y00125172
Y00132672
X00648496Y00140172
X00640996
X00633496
X00625996
X00618496
X00610996
X00606513Y00147205
X00600996Y00152672
X00596513Y00157205
X00590996Y00162672
X00585996Y00170172
X00578496
X00570996
X00563496
X00555996
X00548496
X00540996
X00533496
X00525996
X00518496
X00510996
X00503496
X00495996
X00488496
X0048144Y00170115
X00480996Y00162672
X00481178Y00155186
X00480996Y00147672
X00484208Y00141846
X00489656Y00136438
X00496323Y00136269
X00493974Y00129622
X00494901Y00121785
X00497985Y0011572
X00504213Y00110274
X00510124Y00108406
X0051861Y00107534
X00527703Y00107501
X00534911Y00108691
X0054169Y00112394
X00546116Y00118727
X00548175Y00125214
X0054749Y0013189
X00544762Y00138034
X00539775Y00143574
X00531949Y00146151
X00524548Y0014664
X00515782Y00146807
X00507534Y00145542
X00500996Y00142312
X00458496Y00135172
X00437061Y00145888
X00431766Y00145822
Y0015095
X00437261Y0015105
X0043553Y001601
Y001701
X00433706Y00088682
X00434706Y00081682
X00441578Y00086633
X00446909Y00082988
X00449996Y00076672
X00450044Y00069859
X00441996Y00069672
X00442088Y00077188
X00433496Y00067672
X00438645Y00041024
X00450239Y00040935
X0045628Y00041321
X00458776Y00032116
X00462851Y00028059
X00467109Y00024195
X00471436Y00020408
X00475229Y00016087
X00479342Y00012068
X00497706Y00014682
X00498496Y00022672
X00500996Y00027672
X00505098Y00053028
X00510586Y00054742
X00516156Y00053316
X00521311Y00049066
X00538706Y00049682
X00544122Y00040701
X005509Y00038296
X00559655Y0003841
X00568496Y00037772
X00579753Y0003833
X00577706Y00049682
X00571706
X00565706
X00559706
X00553706
X00547008Y00060425
X00539Y00080001
X00531Y000754
X00512585Y00068812
X00495705Y00073216
X00492203Y00064501
X00473856Y00042751
X00446289Y00022401
X00445841Y0000863
X00446975Y-00013158
X00441529Y-000118
X00443474Y-000412
X00435304Y-00040018
X00451439Y-00039246
X00461436Y-00041726
X00471
X00470054Y-00035976
X00469654Y-00027732
X00474928Y-00031557
X004806Y-00029528
X00484104Y-0003686
X00477971Y-00038059
X00471054Y-00053362
X00449202Y-00053726
X00460054Y-00075976
Y-00081976
X00469054
Y-00075976
X00525996Y-00077328
X00533496Y-00062328
Y-00037328
X00510969Y-00040858
X00503819Y-00043701
X00510037Y-0005442
X00505402Y-00011818
X00520703Y-00002372
Y00002628
Y00007628
X00526703
Y00002628
Y-00002372
X00547956Y-00016131
X00556903Y-00027141
X00557456Y-00034364
X005715Y-0002921
X00570811Y-00020853
X00577148Y-00023503
X00583496Y-00029828
Y-00037328
X00575996
X00590996
Y-00029828
X00606436Y-00028579
Y-00022579
Y-00016579
X00617205Y-00016403
Y-00022403
Y-00028403
Y-00034403
X00606205
X00628706Y-00029818
X00636206
Y-00022318
Y-00014818
X00628706
Y-00022318
X00643706
X00650996Y-00022328
Y-00029828
X00643706Y-00029818
X00658496Y-00029828
Y-00022328
Y-00014828
X00650996
X00643706Y-00014818
X00629706Y-00003318
X00610904Y-00009012
X00598706Y-00008318
X00584058Y-00016355
X00583788Y00014568
X0057084Y00014014
X00560706Y00005682
X00613184Y00006458
X00615612Y00050629
X00614706Y00060682
X00627706Y00064682
X00635706
X00642706
X00646706Y00055682
Y00047682
X00657099Y00064363
X00705656Y00064442
X00710996Y00057672
X00720706Y00057682
X00724621Y00051402
X00716005Y00050006
X00701979Y00051286
X00701238Y0004298
X00713214Y00070797
X00715993Y-00001688
X00704427Y-00007485
X00695792Y-00007832
X00693496Y-00014828
X00700996
X00698496Y-00022328
X00693496
X00695996Y-00027328
Y-00059828
X00688496
Y-00064828
X00680996
Y-00059828
X00673496
Y-00064828
X00665996
Y-00059828
X00658496Y-00064828
X00650996
X00643496
X00635996
X00628496
Y-00072328
Y-00079828
X00620996
X00613496
X00620996Y-00072328
X00636206Y-00072318
Y-00079818
X00643706
Y-00072318
X00651206
Y-00079818
X00658706
X00666206
Y-00072318
X00673496Y-00072328
X00680996
Y-00079828
X00673706Y-00079818
X00688496Y-00079828
Y-00072328
X00695996Y-00079828
X00703496
X00710996
X00740855Y-00064619
X00721937Y-0004331
X00727706Y-00009803
X00748242Y-00007231
X00755996Y-00012328
X00769214Y-00012703
X00771848Y00006808
X00767761Y00012255
X0075739Y00005566
X00781348Y0000539
X00803566Y00007701
X00806933Y-00016859
X00818699Y-00017356
X0081082Y-0002649
X00801141Y-00025768
X00827576Y-00029538
X00812079Y-00048101
X00800973Y-00064499
X00791238Y-00065072
X0078305Y-00066732
X00799502Y-00074899
X00658706Y-00072318
X00629706Y00088682
X00598747Y00089634
X00584909Y00080487
X00577911Y00086439
X00558466Y00090801
X00553842Y0009448
X00549007Y00099735
X00584706Y00060682
Y00052682
X00803496Y00097672
X00810996
X00818496
Y00105172
X00810996
X00803496
X00825996
Y00097672
X00425706Y00098682
Y00089682
X00427706Y00082682
X00420706Y00084682
X00421015Y00071221
X00410996Y00070172
X00415Y0005207
X0042571Y00041024
X00422044Y00036595
X00418276Y00032208
X00413677Y00028757
X00409763Y00024539
X00405334Y00020027
X00396701Y00018436
X00380722Y00018682
X00374972Y00018662
X00362357Y00020721
X00360829Y00026264
X00364706Y00034682
X00370446Y00035024
X0037125Y00043251
X00374Y00048774
Y00068
Y00075001
Y00082001
X00382
Y00075001
Y00068
X00364706Y00070682
Y00076682
Y00082682
X00365382Y00093046
X00365477Y00101526
X00372105Y00101672
X00378421Y00101638
X00376339Y00145784
Y00150912
X00381833Y00151012
X00381633Y0014585
X0038092Y001601
X0037592Y001651
X0038092Y001701
X0037092
Y001601
X00323791Y00156708
X0031877Y0016002
X0030988Y0016013
X0030099Y0016002
X002921Y0016013
X00288496Y00170172
X0029591Y0017018
X00303496Y00170172
X00310114Y00170219
X00318496Y00170172
X00325996
X00280996
X00273496
X00265996
X00258496
X00250996
X00243496
X00235996
X00228496
X00220996
Y00162672
Y00155172
Y00147672
Y00140172
X00228496
X00235563Y00144373
X00243228Y00145188
X00251344Y00145369
X00260608Y00145158
X00268363Y00142442
X00273492Y00138338
X00276902Y00130885
X00276419Y00122859
X00272798Y00113626
X00266871Y00107256
X00257996Y00105672
X00249876Y00105849
X00243026Y00105909
X00267Y00088001
X00267054Y00082024
X00266623Y00076972
X00266Y00071001
X00264375Y00058583
X00268976Y00049874
X00282329Y00057214
X00283794Y00062774
X00305Y00062501
X0030524Y00068152
X00312Y00068
Y00062501
X0031017Y00056281
X00324Y00057
X00327547Y00038943
X00318775Y00037053
X00306706Y00027682
X00305164Y00045739
X00339313Y00041526
X00348054Y00040024
X00345054Y00053024
X0034148Y00065521
X00342Y00072001
Y00079001
X00312756Y00082751
X00306395Y00083152
X00283996Y00085672
X00284297Y00091894
X00288706Y00099682
X00275Y00088001
X00275054Y00082024
X00239054Y00060024
X00225996Y00070172
X00218811Y00050431
X00207489Y00047872
X00213422Y00036801
X00222Y00034
X00222292Y00028058
X00226551Y00024195
X00230877Y00020407
X00234671Y00016086
X00238784Y00012068
X00247068Y00012467
X00254587Y00012828
X00251459Y00018543
X00259706Y00017682
X0026525Y-00020646
X00275873Y-00020726
X00267393Y-00029726
X00261912Y-00031464
X0026192Y-0003791
X00267341Y-00039824
X00264139Y-000446
X0026852Y-00048324
X00259986Y-00048767
X00260053Y-00054516
X00262768Y-00061372
X00256605
X00252099Y-00052726
X00245406Y-00052043
X00239438Y-00053803
X0023828Y-00059726
X00214909Y-00061899
X00218054Y-00071976
X00223791Y-00072369
X00209054Y-00073976
X00198054Y-00080976
X00190968Y-00078153
X00184299Y-00077975
X00177743Y-00077908
X00161054Y-00075976
X00155262Y-00077952
X00149375Y-00078086
X00140874Y-00075137
X00135464
X00130054
X00131054Y-00061976
X00137049Y-00061981
X00131054Y-00055976
X00131557Y-00029249
X00137404Y-00028525
X00141654Y-00024387
X00146777Y-00021776
X00131Y-00020476
X00120054Y-00021976
X00113657Y-00021821
X00108088Y-00023249
X00104022Y-00027315
X00099956Y-00031381
X00095727Y-00035277
X00091676Y-00039357
X00087016Y-00042726
X00077054Y-00040976
X00075996Y-00047328
X00065698Y-00048029
X00058875Y-00048068
X0006575Y-00040845
X00055656Y-00031007
X000532Y-00025808
X00054318Y-00017619
X00048774Y-00016092
X00043231Y-00014563
X00042262Y-00008461
X0003675Y-00004483
X00045996Y-00000328
X00051996Y00005672
X00057996Y00010672
X00064996Y00009672
X00065305Y00016608
X00075706Y00029682
X00080445Y00036793
X00085988Y00035265
X00104054Y00043024
X00108325Y00053396
X00107649Y00068526
X00113219
X0011334Y00075024
X0010771
X00102079
Y00068526
X00078504Y00074211
X00069679Y00073741
X00073547Y00067613
X00057054Y00052024
X00058054Y00045024
X0005127Y00043316
X00049692Y00050271
X00045054Y00057024
X00042054Y00080024
X00034358
Y00091024
X00042054
Y00102024
X00034358
X0003556Y0014986
X00043496Y00150172
X00042906Y00144042
X00053324Y00143724
X00059363Y00143822
X00058496Y00150172
X000508Y0014986
X00067297Y00150618
X0006741Y00143902
X00110996Y00140172
X00115996Y00145172
X00121072Y00141167
X00120996Y00135172
Y00150172
X00110996
Y00127672
X00100996Y00115172
X00093054Y00117024
X00165038Y00128553
X00170996Y00132672
X0017495Y00126821
X00175996Y00140172
X00170996Y00145172
X00175996Y00150172
X00165996
Y00140172
X00162618Y0008666
X00156004Y00086617
X00149432
X00149389Y00078242
X00155832
X0016236Y00078285
X00183457Y00077873
X00189529Y00077515
X00190909Y00086822
X00196741Y00086561
X00184253Y00086768
X00188493Y00049107
X00185374Y0004083
X00181485Y00036594
X00177611Y00032346
X00173119Y00028756
X00169208Y00024541
X00164776Y00020026
X00159568Y00017588
X00155142Y00013918
X00151708Y00009306
X00147181Y00012851
X00150615Y00017463
X00183882Y00014484
X00179509Y00009433
X00189426
X00195779Y00040141
X00159159Y00049653
X00168456Y00059182
X0014966Y00063618
X00129943Y00044391
X00119738Y00012024
X00112298
X00085504Y00009176
X00084706Y-00018318
X00081996Y-00023328
X00078666Y-00065664
X00086695Y-00066802
X00100054Y-00067976
X00051054Y-0006851
X00044054Y-00070976
X00043151Y-00077602
X0004181Y-00052086
X00035271Y-00046595
X00038496Y00032672
X00166054Y-00044949
X00172Y-00049999
X00179363Y-00054192
X0019177Y-0005588
X00200059Y-00061395
X00201067Y-00045532
X00210054Y-00045202
X00188421Y-00044027
X00183081Y-00041014
X00197187Y-00029372
X00244491Y-00022586
X00287996Y-00057328
X00285996Y-00082328
X00320054Y-00080976
Y-00074976
X00329054
Y-00080976
X00348496Y-00079828
X00360996
X00360841Y-00053964
X00353Y-00056999
X00337022Y-00056761
X00343735Y-00048538
X00335054Y-00039976
X00321749Y-00042168
X00317054Y-00052976
X00311054
X00312017Y-0003563
X00314996Y00010672
X00321996
Y00017672
X00328996
Y00010672
X00335996
Y00017672
X00342996
Y00010672
X00335996Y00024672
X00328996
X00375907Y-00000669
X00381Y00002001
X00382111Y-00003641
X00385087Y-00008561
X00379Y-00014999
X00379646Y-00021726
X00385396
X00389269Y-00017476
X00373194Y-00010869
X00375224Y-00035726
X00367959Y-00033726
X00363554Y-0003003
X00359342Y-00024493
X00380996Y-0004925
X00397045Y-00053976
X00397Y-00074999
X00391Y-00074499
X0039Y-00080999
X00398Y-00081999
X00405996Y-00074828
X00410514Y-00035436
X00416054Y-00036976
X00421734Y-00037868
X00428916Y-00043812
X00410186Y00002562
X00389282Y00039719
X003925Y00051001
X0042553Y001601
Y001701
X0043053Y001651
X00028496Y00150172
X00020996
X00013496
X00008496Y00145172
Y00137672
Y00130172
Y00122672
Y00115172
Y00107672
Y00100172
Y00092672
Y00085172
Y00077672
Y00070172
Y00062672
Y00055172
Y00047672
Y00040172
Y00032672
Y00025172
Y00017672
Y00010172
Y00002672
Y-00004828
Y-00012328
Y-00019828
Y-00027328
Y-00034828
Y-00042328
X00008952Y-00058
X00004702Y-00066684
X00005333Y-000724
X0002055Y-00067435
X00026Y-00077999
X00016356Y-00082108
X00017713Y00035504
X00018085Y00048718
X00025996Y00042672
X00028054Y00069024
X00026001Y0008466
X00025996Y00097672
X00023221Y00116365
Y00123007
X00022883Y00129198
X00031973Y0012993
X00031996Y00124189
X0003174Y0011872
T02
X00880047Y-00048899
X00888047
X00896047
X00900047Y-00041899
X00908047
X00916047
X00920047Y-00048899
X00928047
X00932047Y-00041899
X00912047Y-00048899
X00892047Y-00041899
X00876047
T04
X00844546Y00007172
X00869546
X00894546
X00919546
X00944546
T05
X00868047Y-00035399
M30
