M48
;Layer_Color=9474304
;FILE_FORMAT=4:4
METRIC,LZ
;TYPE=PLATED
T01F00S00C0.3000
T02F00S00C0.4540
T03F00S00C1.2000
;TYPE=NON_PLATED
%
T01
X00845Y-001425
X0087Y-0013
X00877992Y-00113483
X0087324Y-00104278
X00858979Y-0009861
X008505Y-00101
X00833017Y-00093409
X00838992Y-00081831
X00846894Y-0007348
X00839549Y-00058349
X00853Y-00043
Y-00038
Y-00033
Y-00028
Y-00023
X00852904Y-00017783
X00856628Y-00013925
X00860352Y-00010066
X00864076Y-00006208
X008678Y-00002349
X00871523Y00001509
X00875247Y00005368
X00878971Y00009226
X00882695Y00013085
X00886419Y00016943
X0089Y00021
X00895
X009
X00905
X0091
X00915
X0092
X00925
X0093
X00935
X0094
X00945
X0095
X00955
X009575Y0002875
X0095725Y0003775
X00958Y00045
X00953526Y00049311
X00949519Y00060071
X0094275Y0006225
X0093725Y000595
X00938006Y00080698
X00943451Y00077723
X00947737Y00072681
X00955Y0007
X00954957Y00064285
X00920604Y00065243
X00908361Y00060223
X00908418Y00053061
X00899Y00063
X00888Y00062
Y00067
Y00072
Y00077
Y00057
Y00052
Y00047
X00895Y00005
X00887473Y-00005841
X0088Y-000175
X00875Y-00029
X008825Y-0004
X00895
X00867846Y-00046602
X00863Y-00045
X00858Y-00043
X00900726Y-0007759
X00938604Y-0007975
X00944052
X009495
Y-0007375
X00944052
X00938604
X00957883Y-00078702
X00944298Y-00110808
X00913836Y-00111139
X0088741Y-00119727
X00975Y-0011
X00945Y-0004
X00953978Y-00024818
X00915Y-000175
X00925Y00005
X0093575Y000285
X0093525Y0003775
X00921648Y00082015
X0091022Y00085786
X009085Y0009325
X00888909Y00117637
X0087223Y00111868
X00868331Y00120756
X00861Y0010425
X0085043Y00111156
X00849Y00082
X00854
X00859
X00864
X00869
X00844
X00839
X00834
X00829
X00824Y00084
X0082Y00087
X00819Y00092
X00814Y00093
X00809
X00804
X00799
X00794
X00789
X00784
X00779
X00774
X00769
X00764
X00759Y00091
X00756Y00087
X00753Y00083
Y00078
Y00073
Y00059
Y00054
X00751Y00049
Y00044
Y00039
Y00034
Y00029
Y00024
Y00019
Y00014
Y00009
X00755Y00006
X0076
X00765
X0077
X00775Y00004
Y-00001
Y-00006
Y-00011
Y-00016
Y-00021
X0077475Y-000345
X00775Y-00042
X0079275Y-00056
X0081Y-00058
Y-00053
X00808Y-00048
Y-00043
Y-00038
Y-00033
Y-00028
Y-00023
Y-00018
Y-00013
Y-00008
Y-00003
Y00002
X00803
Y-00003
Y00007
X00808
Y00012
Y00017
Y00022
X0079225Y00034
Y00041083
Y00048167
Y0005525
X00783625
Y00048167
Y00041083
Y00034
X00775
Y00041083
Y00048167
Y0005525
X00766
Y00048167
Y00041083
Y00034
X00759Y0006
X00737073Y00059927
X0072075Y00051
X007075Y000525
Y00035
X0072025Y0003225
X007175Y000225
X0073Y000175
X00745Y0
X0076Y-0001
X007625Y-000225
X00758242Y-00079199
X00750879Y-0007874
X00739478Y-00083411
X00735Y-0006
X00724
X00717Y-00064
X00703Y-00068
X00693Y-00063
X006725Y-0006425
X00656472Y-00064083
X00661057Y-00072327
X00661Y-00081
X00653
X00643104Y-0008395
X00620811Y-00082156
X00612481Y-00078192
X00614013Y-00062506
X0061425Y-0004975
X00594Y-00052
X00590859Y-00064801
X0058514Y-00070926
X00576821Y-00075409
X00576686Y-00064391
X00554Y-0004775
X0055561Y-00037301
X00557542Y-00027812
X0055Y-00015
X00557034Y-00007567
X00556975Y00001962
X00557Y0001225
X00547596Y00020377
X00545Y000275
X00557951Y00034599
X00557192Y00041165
X00557205Y00050636
X0055425Y0005675
X00551564Y00046034
X005425Y000625
X005355Y0007375
X00537134Y00104342
X00537447Y00112772
X00542192Y00116774
X00550824Y000977
X00557065Y0008625
X00579479Y00087258
X00583791Y00083454
X00589743Y00080876
X00587955Y00071306
X00594352Y00057409
X00603715Y0004819
X00601Y000405
X00615Y000325
X0061575Y0005075
X00634781Y00047752
X0063475Y000325
X00642539Y00060055
X00659217Y00061013
X00666Y00079
X0067Y001025
X00679523Y00099222
X006735Y0012375
X00694505Y00124505
X00695Y00145
X0068425Y0014275
X00674738Y00150324
X00652971Y00094345
X00643727Y00089403
X006375Y000775
X00613971Y00074134
X00626267Y00102135
X00597346Y00098425
X00575143Y00093778
X00579Y00120518
X00575372Y00034107
X005795Y0002825
X00588435Y00010594
X0060052Y0000856
X00600326Y-00003957
X00597176Y-00011324
X0058856Y-00012716
X00576078Y-0001468
X00574089Y-00022346
X00582589Y-00024967
X00574691Y00003235
X00615Y000075
X00622526Y-0000057
X00629657Y-00005068
X006515Y-0000325
X006605
X00680977Y00001504
X0068Y0001
X0069Y-0002
X00695Y-000375
X00666954Y-00039536
X00676446Y-00107008
X006925Y-001075
X00690683Y-0012425
X00691Y-001375
X00682101Y-00143781
X00678Y-001275
X00660971Y-00137088
X0065Y-001425
X00641202Y-00150539
X00634Y-00111
X00603156Y-00093409
X00595
X005785Y-0010975
X00573144Y-00112426
X00573144Y-00117426
X0056Y-0011775
X0056Y-0011275
X00551949Y-00106921
X00544655Y-00106334
X00538349Y-0011029
X0053107Y-00110432
X00541202Y-00098405
X00557561Y-000887
X0053575Y-00072295
X00529536Y-00069154
X00528573Y-00045322
X0052425Y-0004075
X00510068Y-00045036
X0050489Y-00038732
X0052Y-00025
X00483476Y-00022018
X00466353Y-00015545
X0046Y000025
X00470715Y0000954
X00507514Y00015048
X00509527Y00025782
X00525Y0005
X00505Y000975
X00500058Y00107169
X00493876Y00113277
X00488513Y0012065
X00467068Y00120323
X00466817Y00128801
X00475323Y00131376
X0046972Y00144039
X00487968Y00149653
X0044Y001375
X00457869Y00119326
X00465176Y00110442
X0044675Y001075
X00439355Y00099988
X00468445Y00090194
X00475Y000775
X004575Y0006
X00462192Y-00048801
X004775Y-00055
X0043Y-00045
X00435Y-00095
X00452117Y-00095916
X004475Y-001075
X00457356Y-00118573
X00475Y-001275
X00473819Y-00143235
X00465243Y-00140111
X00514036Y-00142145
X0051Y-00148012
X00525Y-0015
X005165Y-0008925
X00543008Y-00053338
X00547265Y-00041293
X0067525Y0004575
X00715Y0007
X0073Y0008
X007425Y0009
X00742648Y00112317
X00821202Y00110513
X0082Y001425
X00818326Y-00076881
X00811068Y-00077067
X007825Y-0008
X0082Y-0013
Y-001425
X0075
X007275Y-00115
X006825Y-001675
X00427226Y-00132676
X00417Y-0013
X004142Y-00119965
X0041375Y-0010675
X004225Y-000825
X00428875Y-00067875
X004189Y-00053628
X00410689Y-00057078
X00403552Y-00062018
X00423064Y-00046092
X003775Y-00025
X00369Y-00028
X003875Y-000125
X00387742Y-00083443
X00371008Y-00081508
X003625Y-00075
X003825Y-001
X00402135Y-00132737
X003925Y-001425
X00404334Y-00150316
X003625Y-001475
X003225Y-0015
X00269869Y-00150041
X00281735Y-00107585
X00241408Y-00112924
X00237052Y-00104873
X00238391Y-0009371
X00232292Y-00082899
X002225Y-000825
X00201034Y-00077442
X00184291Y-00082325
X00193717Y-00106173
X00203Y-00118
X00216Y-001215
X00222249Y-00131017
X00180754Y-00151321
X00163352Y-00134965
X001725Y-001075
X00162951Y-00066
X00151463
X00139975
X00138731Y-00075413
X00135Y-0009
X001275
X0012
X00110183Y-00089073
X000975Y-0009
X00099983Y-00056416
X00093556
Y-00049972
X00099983
X0010641
Y-00056416
Y-00043528
X00099983
X00093556
X00094Y-00026
X00083Y-00034
X00078Y-00038
X00072Y-00039
X00066
X0006
X00054
X00043Y-00042
X00045Y-00033
Y-00026
X00038249Y-00020111
X00053Y-0002
X00062
X00071
X0008
X00076Y00001
X00077Y00008
X0008475Y0000975
X00089569Y00003464
X0007Y00021
X0006Y0003
X00056Y00039
X00060572Y00048091
X00064177Y0005606
X00064841Y00065073
X00057169Y00069478
X00062375Y000805
X00076997Y00073431
X00094458Y00071101
X00100511Y00065842
X00099726Y0008241
X00092Y00083
X00105Y000525
X0012Y000425
X00119Y00019
X00125Y-00001
X00134844Y-00005346
X00136201Y-0001301
X00145Y-00013
X00159
X00153Y-00034
X00147
X00141
X00135
X0012Y-0003
X0010927Y-00020246
X00124988Y-00053088
X00131Y-00053
X00137
X00143
X00149
X00155
X00163479Y-00054752
X0019Y-00052
Y-00043
Y-00034
X002
Y-00043
Y-00052
X0021
Y-00043
Y-00034
X0021084Y-000145
X002Y-00015025
X00204674Y-00003284
X00224Y00012
X00239Y00027
X00256999Y00017602
X00258657Y00005864
X00258444Y-00002387
X00258711Y-00011224
X00258941Y-00020059
X00259588Y-00028397
X00260148Y-0003667
X00257Y-0007
X00311122Y-00076054
X0032318Y0001151
X00302876Y00019254
X002975Y000575
X0025675Y0006675
X00245Y000575
X0024075Y0007275
X00206Y00073
X00182799Y00065465
X00183783Y00057689
X001775Y000475
X00172867Y00043478
X0016456Y00043273
X00149821Y00044945
X00139546Y00052137
X00148279Y00023471
X00135Y00006
X00128488Y-00066
X00117
X00083Y-00063
X00038Y-00065
Y-00058
Y-00051
X00043Y-00079
X000425Y-0009
X00035
X00042414Y00045007
X00034Y00054
Y00067
X00157Y00096
X00167269Y00092579
X00175Y00096
X00176984Y0008613
X00184Y001125
X00203121Y00121887
X00209973Y0012902
X00216Y00137
X002275Y0011475
X00228444Y0010071
X002775Y000975
X0028Y001155
X0029Y001175
X00293408Y0010417
X00270376Y00143421
X00185Y0015
X00165Y0013
X00162022Y0011908
X00202Y0003
X00344689Y00054101
X00351383Y0005517
X00351037Y00063365
X00359692Y00064136
X00367776Y00062954
X00357291Y00074005
X00338481Y00073405
X00386106Y00084907
X00401857Y00096227
X00400513Y00109424
X00404319Y00115428
X00420545Y00117318
X0042883Y00122691
X003825Y0014
X004275Y0003
X00005Y000275
Y0002
Y000125
Y00005
Y-000025
Y-0001
Y-000175
Y-00025
Y-000325
X00011Y-0002
X00021
X0003
X0003045Y00000289
X00015296Y-00004511
X00005Y00035
Y000425
Y0005
Y000575
Y00065
Y000725
X00004471Y00087845
X00024033Y00090868
X00021Y00067
Y00054
X00005Y-00055
Y-000625
Y-000825
Y-0009
X000125
X00013086Y-00084182
X0002Y-0009
X000275
T02
X00736778Y-00135528
Y-00122828
X0073675Y00123
Y001357
T03
X00851774Y-00128817
X00880912Y-00087204
X0088091Y0008734
X00851772Y00128953
X00709582Y00123842
X00658782
X00655225Y-00125631
X00706025
X00241296Y-00135553
X00212158Y-0009394
Y00093786
X00241296Y00135399
M30
