G04*
G04 #@! TF.GenerationSoftware,Altium Limited,Altium Designer,25.7.1 (20)*
G04*
G04 Layer_Physical_Order=2*
G04 Layer_Color=36540*
%FSLAX44Y44*%
%MOMM*%
G71*
G04*
G04 #@! TF.SameCoordinates,0BC58763-356E-4A0F-A031-124E3283D0B1*
G04*
G04*
G04 #@! TF.FilePolarity,Positive*
G04*
G01*
G75*
%ADD15C,0.1500*%
%ADD106C,1.8000*%
%ADD107C,1.0220*%
%ADD108C,0.4500*%
G36*
X715418Y145858D02*
X716080Y145416D01*
X716860Y145261D01*
X754101D01*
Y108020D01*
X754256Y107240D01*
X754698Y106578D01*
X754740Y106550D01*
X754432Y105534D01*
X709989D01*
X695457Y120066D01*
X695734Y121226D01*
X696488Y121538D01*
X697472Y122523D01*
X698005Y123809D01*
Y125201D01*
X697472Y126488D01*
X696488Y127472D01*
X695201Y128005D01*
X693809D01*
X692523Y127472D01*
X691538Y126488D01*
X691226Y125734D01*
X690067Y125457D01*
X676101Y139423D01*
Y147100D01*
X676720Y147357D01*
X677705Y148342D01*
X678238Y149628D01*
Y151020D01*
X677705Y152307D01*
X676720Y153291D01*
X675434Y153824D01*
X674042D01*
X672755Y153291D01*
X671771Y152307D01*
X671238Y151020D01*
Y149628D01*
X671771Y148342D01*
X672532Y147580D01*
Y138683D01*
X672668Y138001D01*
X673055Y137422D01*
X707988Y102488D01*
X708567Y102101D01*
X709250Y101966D01*
X833523D01*
X834206Y102101D01*
X834785Y102488D01*
X848188Y115891D01*
X865250D01*
X865933Y116027D01*
X866512Y116413D01*
X867437Y117338D01*
X867635Y117256D01*
X869027D01*
X870314Y117789D01*
X870368Y117843D01*
X870710Y117775D01*
X874120D01*
X880448Y111448D01*
X881027Y111061D01*
X881709Y110925D01*
X969552D01*
X979917Y100560D01*
Y-92810D01*
X970173Y-102553D01*
X903263D01*
X902581Y-102689D01*
X902002Y-103076D01*
X888633Y-116445D01*
X888106Y-116227D01*
X886713D01*
X885427Y-116760D01*
X884443Y-117744D01*
X883910Y-119031D01*
Y-120423D01*
X884443Y-121709D01*
X885427Y-122694D01*
X886713Y-123227D01*
X888106D01*
X889392Y-122694D01*
X890377Y-121709D01*
X890910Y-120423D01*
Y-119215D01*
X904003Y-106122D01*
X970912D01*
X971595Y-105986D01*
X972174Y-105599D01*
X982963Y-94811D01*
X983350Y-94232D01*
X983485Y-93549D01*
Y101299D01*
X983350Y101982D01*
X982963Y102561D01*
X971552Y113971D01*
X970974Y114358D01*
X970291Y114494D01*
X892152D01*
X891731Y115510D01*
X891876Y115654D01*
X892409Y116940D01*
Y118333D01*
X891876Y119619D01*
X890891Y120604D01*
X889605Y121137D01*
X888212D01*
X886926Y120604D01*
X885941Y119619D01*
X885409Y118333D01*
Y116940D01*
X885941Y115654D01*
X886086Y115510D01*
X885665Y114494D01*
X882448D01*
X876121Y120821D01*
X875542Y121208D01*
X874859Y121344D01*
X871831D01*
Y121452D01*
X871298Y122739D01*
X870314Y123723D01*
X869027Y124256D01*
X867635D01*
X866348Y123723D01*
X865364Y122739D01*
X864831Y121452D01*
Y120060D01*
X863988Y119459D01*
X857447D01*
X857159Y120374D01*
X851647Y128246D01*
X843859Y122792D01*
X844324Y122128D01*
X846344Y120433D01*
X846580Y120323D01*
X846659Y119900D01*
X846582Y119201D01*
X846187Y118937D01*
X832784Y105534D01*
X816768D01*
X816460Y106550D01*
X816502Y106578D01*
X816944Y107240D01*
X817099Y108020D01*
Y145261D01*
X853775D01*
X902391Y116092D01*
X902534Y116040D01*
X902660Y115956D01*
X902905Y115907D01*
X903140Y115823D01*
X903291Y115830D01*
X903440Y115801D01*
X984871D01*
Y-115801D01*
X903440D01*
X903291Y-115830D01*
X903140Y-115823D01*
X902905Y-115907D01*
X902660Y-115956D01*
X902534Y-116040D01*
X902391Y-116091D01*
X853775Y-145261D01*
X817099D01*
Y-108020D01*
X816944Y-107240D01*
X816502Y-106578D01*
X815840Y-106136D01*
X815060Y-105981D01*
X756140D01*
X755360Y-106136D01*
X754698Y-106578D01*
X754256Y-107240D01*
X754101Y-108020D01*
Y-145261D01*
X716860D01*
X716860Y-145261D01*
X716080Y-145416D01*
X715418Y-145858D01*
X715418Y-145858D01*
X686555Y-174721D01*
X295445D01*
X276402Y-155678D01*
X275740Y-155236D01*
X274960Y-155081D01*
X167665D01*
X138760Y-94877D01*
X138554Y-94603D01*
X138364Y-94318D01*
X138317Y-94286D01*
X138283Y-94241D01*
X137987Y-94066D01*
X137702Y-93876D01*
X137647Y-93864D01*
X137598Y-93836D01*
X137258Y-93787D01*
X136922Y-93720D01*
X2039D01*
Y83999D01*
X3055Y84643D01*
X3774Y84345D01*
X5167D01*
X6453Y84878D01*
X7438Y85862D01*
X7970Y87149D01*
Y88541D01*
X7438Y89827D01*
X6453Y90812D01*
X5167Y91345D01*
X3774D01*
X3055Y91047D01*
X2039Y91691D01*
Y93720D01*
X136922D01*
X137258Y93787D01*
X137598Y93836D01*
X137647Y93865D01*
X137702Y93876D01*
X137987Y94066D01*
X138283Y94241D01*
X138317Y94286D01*
X138364Y94318D01*
X138554Y94603D01*
X138760Y94877D01*
X167665Y155081D01*
X274960D01*
X275740Y155236D01*
X276402Y155678D01*
X276402Y155678D01*
X295445Y174721D01*
X686555D01*
X715418Y145858D01*
D02*
G37*
%LPC*%
G36*
X488664Y153153D02*
X487272D01*
X485985Y152620D01*
X485001Y151636D01*
X484468Y150350D01*
Y148957D01*
X485001Y147671D01*
X485985Y146686D01*
X487272Y146153D01*
X488664D01*
X489950Y146686D01*
X490935Y147671D01*
X491468Y148957D01*
Y150350D01*
X490935Y151636D01*
X489950Y152620D01*
X488664Y153153D01*
D02*
G37*
G36*
X695696Y148500D02*
X694304D01*
X693017Y147967D01*
X692033Y146983D01*
X691500Y145696D01*
Y144304D01*
X692033Y143017D01*
X693017Y142033D01*
X694304Y141500D01*
X695696D01*
X696983Y142033D01*
X697967Y143017D01*
X698500Y144304D01*
Y145696D01*
X697967Y146983D01*
X696983Y147967D01*
X695696Y148500D01*
D02*
G37*
G36*
X470417Y147539D02*
X469024D01*
X467738Y147006D01*
X466753Y146021D01*
X466221Y144735D01*
Y143343D01*
X466753Y142056D01*
X467738Y141072D01*
X469024Y140539D01*
X470417D01*
X471703Y141072D01*
X472688Y142056D01*
X473220Y143343D01*
Y144735D01*
X472688Y146021D01*
X471703Y147006D01*
X470417Y147539D01*
D02*
G37*
G36*
X684946Y146250D02*
X683554D01*
X682267Y145717D01*
X681283Y144733D01*
X680750Y143446D01*
Y142054D01*
X681283Y140767D01*
X682267Y139783D01*
X683554Y139250D01*
X684946D01*
X686233Y139783D01*
X687217Y140767D01*
X687750Y142054D01*
Y143446D01*
X687217Y144733D01*
X686233Y145717D01*
X684946Y146250D01*
D02*
G37*
G36*
X240855Y145492D02*
X238258Y145034D01*
X235868Y143919D01*
X233847Y142224D01*
X233382Y141560D01*
X241171Y136106D01*
X246624Y143895D01*
X245960Y144360D01*
X243482Y145262D01*
X240855Y145492D01*
D02*
G37*
G36*
X216696Y140500D02*
X215304D01*
X214017Y139967D01*
X213033Y138983D01*
X212500Y137696D01*
Y136304D01*
X213033Y135017D01*
X214017Y134033D01*
X215304Y133500D01*
X216696D01*
X217983Y134033D01*
X218967Y135017D01*
X219500Y136304D01*
Y137696D01*
X218967Y138983D01*
X217983Y139967D01*
X216696Y140500D01*
D02*
G37*
G36*
X247457Y143312D02*
X242003Y135524D01*
X249792Y130070D01*
X250257Y130734D01*
X251159Y133212D01*
X251388Y135840D01*
X250931Y138437D01*
X249816Y140827D01*
X248121Y142847D01*
X247457Y143312D01*
D02*
G37*
G36*
X852213Y139046D02*
X849585Y138816D01*
X847107Y137914D01*
X846443Y137449D01*
X851897Y129661D01*
X859685Y135114D01*
X859220Y135778D01*
X857200Y137473D01*
X854810Y138588D01*
X852213Y139046D01*
D02*
G37*
G36*
X476019Y134876D02*
X474627D01*
X473341Y134343D01*
X472356Y133358D01*
X471823Y132072D01*
Y130680D01*
X472356Y129393D01*
X473341Y128409D01*
X474627Y127876D01*
X476019D01*
X477306Y128409D01*
X478290Y129393D01*
X478823Y130680D01*
Y132072D01*
X478290Y133358D01*
X477306Y134343D01*
X476019Y134876D01*
D02*
G37*
G36*
X232800Y140728D02*
X232335Y140064D01*
X231433Y137585D01*
X231203Y134958D01*
X231661Y132361D01*
X232775Y129971D01*
X234471Y127950D01*
X235135Y127486D01*
X240588Y135274D01*
X232800Y140728D01*
D02*
G37*
G36*
X210669Y132520D02*
X209277D01*
X207991Y131987D01*
X207006Y131002D01*
X206473Y129716D01*
Y128323D01*
X207006Y127037D01*
X207991Y126053D01*
X209277Y125520D01*
X210669D01*
X211956Y126053D01*
X212940Y127037D01*
X213473Y128323D01*
Y129716D01*
X212940Y131002D01*
X211956Y131987D01*
X210669Y132520D01*
D02*
G37*
G36*
X241420Y134691D02*
X235967Y126903D01*
X236631Y126438D01*
X239109Y125536D01*
X241736Y125306D01*
X244333Y125764D01*
X246724Y126878D01*
X248744Y128574D01*
X249209Y129238D01*
X241420Y134691D01*
D02*
G37*
G36*
X467513Y132301D02*
X466120D01*
X464834Y131769D01*
X463849Y130784D01*
X463317Y129498D01*
Y128105D01*
X463849Y126819D01*
X464834Y125834D01*
X466120Y125301D01*
X467513D01*
X468799Y125834D01*
X469784Y126819D01*
X470317Y128105D01*
Y129498D01*
X469784Y130784D01*
X468799Y131769D01*
X467513Y132301D01*
D02*
G37*
G36*
X710901Y133858D02*
X710090D01*
Y124350D01*
X719598D01*
Y125161D01*
X718915Y127708D01*
X717597Y129992D01*
X715732Y131857D01*
X713448Y133176D01*
X710901Y133858D01*
D02*
G37*
G36*
X709074D02*
X708263D01*
X705716Y133176D01*
X703432Y131857D01*
X701567Y129992D01*
X700249Y127708D01*
X699566Y125161D01*
Y124350D01*
X709074D01*
Y133858D01*
D02*
G37*
G36*
X660101D02*
X659290D01*
Y124350D01*
X668798D01*
Y125161D01*
X668115Y127708D01*
X666797Y129992D01*
X664932Y131857D01*
X662648Y133176D01*
X660101Y133858D01*
D02*
G37*
G36*
X658274D02*
X657463D01*
X654916Y133176D01*
X652632Y131857D01*
X650767Y129992D01*
X649449Y127708D01*
X648766Y125161D01*
Y124350D01*
X658274D01*
Y133858D01*
D02*
G37*
G36*
X845611Y136866D02*
X844947Y136402D01*
X843252Y134381D01*
X842137Y131991D01*
X841679Y129394D01*
X841909Y126767D01*
X842811Y124288D01*
X843276Y123624D01*
X851065Y129078D01*
X845611Y136866D01*
D02*
G37*
G36*
X860268Y134282D02*
X852479Y128828D01*
X857933Y121040D01*
X858597Y121505D01*
X860292Y123525D01*
X861407Y125915D01*
X861865Y128512D01*
X861635Y131140D01*
X860733Y133618D01*
X860268Y134282D01*
D02*
G37*
G36*
X429526Y126191D02*
X428134D01*
X426847Y125658D01*
X425863Y124674D01*
X425330Y123387D01*
Y121995D01*
X425863Y120708D01*
X426847Y119724D01*
X428134Y119191D01*
X429526D01*
X430813Y119724D01*
X431797Y120708D01*
X432330Y121995D01*
Y123387D01*
X431797Y124674D01*
X430813Y125658D01*
X429526Y126191D01*
D02*
G37*
G36*
X203817Y125387D02*
X202425D01*
X201138Y124855D01*
X200154Y123870D01*
X199621Y122584D01*
Y121191D01*
X200154Y119905D01*
X201138Y118920D01*
X202425Y118387D01*
X203817D01*
X205103Y118920D01*
X206088Y119905D01*
X206621Y121191D01*
Y122584D01*
X206088Y123870D01*
X205103Y124855D01*
X203817Y125387D01*
D02*
G37*
G36*
X489210Y124150D02*
X487817D01*
X486531Y123617D01*
X485546Y122633D01*
X485013Y121346D01*
Y119954D01*
X485546Y118667D01*
X486531Y117683D01*
X487817Y117150D01*
X489210D01*
X490496Y117683D01*
X491480Y118667D01*
X492013Y119954D01*
Y121346D01*
X491480Y122633D01*
X490496Y123617D01*
X489210Y124150D01*
D02*
G37*
G36*
X579697Y124018D02*
X578304D01*
X577018Y123485D01*
X576033Y122501D01*
X575500Y121215D01*
Y119822D01*
X576033Y118536D01*
X577018Y117551D01*
X578304Y117018D01*
X579697D01*
X580983Y117551D01*
X581967Y118536D01*
X582500Y119822D01*
Y121215D01*
X581967Y122501D01*
X580983Y123485D01*
X579697Y124018D01*
D02*
G37*
G36*
X737965Y141810D02*
X735535D01*
X733289Y140880D01*
X731570Y139161D01*
X730640Y136915D01*
Y134485D01*
X731570Y132239D01*
X733289Y130520D01*
X734787Y129900D01*
Y128800D01*
X733289Y128180D01*
X731570Y126461D01*
X730640Y124215D01*
Y121785D01*
X731570Y119539D01*
X733289Y117820D01*
X735535Y116890D01*
X737965D01*
X740211Y117820D01*
X741930Y119539D01*
X742860Y121785D01*
Y124215D01*
X741930Y126461D01*
X740211Y128180D01*
X738714Y128800D01*
Y129900D01*
X740211Y130520D01*
X741930Y132239D01*
X742860Y134485D01*
Y136915D01*
X741930Y139161D01*
X740211Y140880D01*
X737965Y141810D01*
D02*
G37*
G36*
X467765Y123823D02*
X466372D01*
X465086Y123290D01*
X464101Y122305D01*
X463568Y121019D01*
Y119627D01*
X464101Y118340D01*
X465086Y117355D01*
X466372Y116823D01*
X467765D01*
X469051Y117355D01*
X470036Y118340D01*
X470569Y119627D01*
Y121019D01*
X470036Y122305D01*
X469051Y123290D01*
X467765Y123823D01*
D02*
G37*
G36*
X458566Y122826D02*
X457173D01*
X455887Y122293D01*
X454902Y121309D01*
X454369Y120022D01*
Y118630D01*
X454902Y117344D01*
X455887Y116359D01*
X457173Y115826D01*
X458566D01*
X459852Y116359D01*
X460837Y117344D01*
X461369Y118630D01*
Y120022D01*
X460837Y121309D01*
X459852Y122293D01*
X458566Y122826D01*
D02*
G37*
G36*
X162718Y122580D02*
X161326D01*
X160039Y122047D01*
X159055Y121063D01*
X158522Y119776D01*
Y118384D01*
X159055Y117097D01*
X160039Y116113D01*
X161326Y115580D01*
X162718D01*
X164004Y116113D01*
X164989Y117097D01*
X165522Y118384D01*
Y119776D01*
X164989Y121063D01*
X164004Y122047D01*
X162718Y122580D01*
D02*
G37*
G36*
X719598Y123334D02*
X710090D01*
Y113826D01*
X710901D01*
X713448Y114509D01*
X715732Y115827D01*
X717597Y117692D01*
X718915Y119976D01*
X719598Y122524D01*
Y123334D01*
D02*
G37*
G36*
X709074D02*
X699566D01*
Y122524D01*
X700249Y119976D01*
X701567Y117692D01*
X703432Y115827D01*
X705716Y114509D01*
X708263Y113826D01*
X709074D01*
Y123334D01*
D02*
G37*
G36*
X668798D02*
X659290D01*
Y113826D01*
X660101D01*
X662648Y114509D01*
X664932Y115827D01*
X666797Y117692D01*
X668115Y119976D01*
X668798Y122524D01*
Y123334D01*
D02*
G37*
G36*
X658274D02*
X648766D01*
Y122524D01*
X649449Y119976D01*
X650767Y117692D01*
X652632Y115827D01*
X654916Y114509D01*
X657463Y113826D01*
X658274D01*
Y123334D01*
D02*
G37*
G36*
X421241Y120818D02*
X419848D01*
X418562Y120286D01*
X417577Y119301D01*
X417045Y118015D01*
Y116622D01*
X417577Y115336D01*
X418562Y114351D01*
X419848Y113818D01*
X421241D01*
X422527Y114351D01*
X423512Y115336D01*
X424045Y116622D01*
Y118015D01*
X423512Y119301D01*
X422527Y120286D01*
X421241Y120818D01*
D02*
G37*
G36*
X626022Y141947D02*
X611022D01*
X607237Y141449D01*
X603709Y139988D01*
X600681Y137664D01*
X598356Y134635D01*
X596895Y131108D01*
X596397Y127322D01*
X596895Y123537D01*
X598356Y120010D01*
X600681Y116981D01*
X603709Y114656D01*
X607237Y113195D01*
X611022Y112697D01*
X626022D01*
X629807Y113195D01*
X633335Y114656D01*
X636363Y116981D01*
X638688Y120010D01*
X640149Y123537D01*
X640647Y127322D01*
X640149Y131108D01*
X638688Y134635D01*
X636363Y137664D01*
X633335Y139988D01*
X629807Y141449D01*
X626022Y141947D01*
D02*
G37*
G36*
X355812D02*
X340812D01*
X337027Y141449D01*
X333499Y139988D01*
X330471Y137664D01*
X328146Y134635D01*
X326685Y131108D01*
X326187Y127322D01*
X326685Y123537D01*
X328146Y120010D01*
X330471Y116981D01*
X333499Y114656D01*
X337027Y113195D01*
X340812Y112697D01*
X355812D01*
X359597Y113195D01*
X363125Y114656D01*
X366153Y116981D01*
X368478Y120010D01*
X369939Y123537D01*
X370437Y127322D01*
X369939Y131108D01*
X368478Y134635D01*
X366153Y137664D01*
X363125Y139988D01*
X359597Y141449D01*
X355812Y141947D01*
D02*
G37*
G36*
X280696Y119000D02*
X279304D01*
X278017Y118467D01*
X277033Y117483D01*
X276500Y116196D01*
Y114804D01*
X277033Y113517D01*
X278017Y112533D01*
X279304Y112000D01*
X280696D01*
X281983Y112533D01*
X282967Y113517D01*
X283500Y114804D01*
Y116196D01*
X282967Y117483D01*
X281983Y118467D01*
X280696Y119000D01*
D02*
G37*
G36*
X228196Y118250D02*
X226804D01*
X225517Y117717D01*
X224533Y116733D01*
X224000Y115446D01*
Y114054D01*
X224533Y112767D01*
X225517Y111783D01*
X226804Y111250D01*
X228196D01*
X229483Y111783D01*
X230467Y112767D01*
X231000Y114054D01*
Y115446D01*
X230467Y116733D01*
X229483Y117717D01*
X228196Y118250D01*
D02*
G37*
G36*
X494572Y116777D02*
X493180D01*
X491893Y116244D01*
X490909Y115259D01*
X490376Y113973D01*
Y112580D01*
X490909Y111294D01*
X491893Y110309D01*
X493180Y109777D01*
X494572D01*
X495858Y110309D01*
X496843Y111294D01*
X497376Y112580D01*
Y113973D01*
X496843Y115259D01*
X495858Y116244D01*
X494572Y116777D01*
D02*
G37*
G36*
X542888Y120274D02*
X541496D01*
X540209Y119741D01*
X539225Y118756D01*
X538692Y117470D01*
Y117144D01*
X538143Y116272D01*
X537753Y116272D01*
X536751D01*
X535464Y115739D01*
X534480Y114755D01*
X533947Y113468D01*
Y112076D01*
X534480Y110789D01*
X535464Y109805D01*
X536751Y109272D01*
X538143D01*
X539430Y109805D01*
X540414Y110789D01*
X540947Y112076D01*
Y112401D01*
X541496Y113273D01*
X541886Y113273D01*
X542888D01*
X544175Y113806D01*
X545159Y114791D01*
X545692Y116077D01*
Y117470D01*
X545159Y118756D01*
X544175Y119741D01*
X542888Y120274D01*
D02*
G37*
G36*
X184696Y116000D02*
X183304D01*
X182017Y115467D01*
X181033Y114483D01*
X180500Y113196D01*
Y111804D01*
X181033Y110517D01*
X182017Y109533D01*
X183304Y109000D01*
X184696D01*
X185983Y109533D01*
X186967Y110517D01*
X187500Y111804D01*
Y113196D01*
X186967Y114483D01*
X185983Y115467D01*
X184696Y116000D01*
D02*
G37*
G36*
X743345Y115817D02*
X741952D01*
X740666Y115284D01*
X739681Y114300D01*
X739148Y113013D01*
Y111621D01*
X739681Y110335D01*
X740666Y109350D01*
X741952Y108817D01*
X743345D01*
X744631Y109350D01*
X745616Y110335D01*
X746148Y111621D01*
Y113013D01*
X745616Y114300D01*
X744631Y115284D01*
X743345Y115817D01*
D02*
G37*
G36*
X465872Y113942D02*
X464479D01*
X463193Y113409D01*
X462208Y112424D01*
X461676Y111138D01*
Y109746D01*
X462208Y108459D01*
X463193Y107475D01*
X464479Y106942D01*
X465872D01*
X467158Y107475D01*
X468143Y108459D01*
X468675Y109746D01*
Y111138D01*
X468143Y112424D01*
X467158Y113409D01*
X465872Y113942D01*
D02*
G37*
G36*
X401209Y112924D02*
X399817D01*
X398531Y112391D01*
X397546Y111407D01*
X397013Y110120D01*
Y108728D01*
X397546Y107442D01*
X398531Y106457D01*
X399817Y105924D01*
X401209D01*
X402496Y106457D01*
X403480Y107442D01*
X404013Y108728D01*
Y110120D01*
X403480Y111407D01*
X402496Y112391D01*
X401209Y112924D01*
D02*
G37*
G36*
X447446Y111000D02*
X446054D01*
X444767Y110467D01*
X443783Y109483D01*
X443250Y108196D01*
Y106804D01*
X443783Y105517D01*
X444767Y104533D01*
X446054Y104000D01*
X447446D01*
X448733Y104533D01*
X449717Y105517D01*
X450250Y106804D01*
Y108196D01*
X449717Y109483D01*
X448733Y110467D01*
X447446Y111000D01*
D02*
G37*
G36*
X500754Y110669D02*
X499361D01*
X498075Y110136D01*
X497090Y109152D01*
X496558Y107865D01*
Y106473D01*
X497090Y105187D01*
X498075Y104202D01*
X499361Y103669D01*
X500754D01*
X502040Y104202D01*
X503025Y105187D01*
X503558Y106473D01*
Y107865D01*
X503025Y109152D01*
X502040Y110136D01*
X500754Y110669D01*
D02*
G37*
G36*
X537830Y107842D02*
X536438D01*
X535152Y107309D01*
X534167Y106324D01*
X533634Y105038D01*
Y103645D01*
X534167Y102359D01*
X535152Y101375D01*
X536438Y100842D01*
X537830D01*
X539117Y101375D01*
X540101Y102359D01*
X540634Y103645D01*
Y105038D01*
X540101Y106324D01*
X539117Y107309D01*
X537830Y107842D01*
D02*
G37*
G36*
X294104Y107670D02*
X292712D01*
X291425Y107137D01*
X290441Y106153D01*
X289908Y104867D01*
Y103474D01*
X290441Y102188D01*
X291425Y101203D01*
X292712Y100670D01*
X294104D01*
X295390Y101203D01*
X296375Y102188D01*
X296908Y103474D01*
Y104867D01*
X296375Y106153D01*
X295390Y107137D01*
X294104Y107670D01*
D02*
G37*
G36*
X229140Y104210D02*
X227747D01*
X226461Y103678D01*
X225476Y102693D01*
X224944Y101407D01*
Y100014D01*
X225476Y98728D01*
X226461Y97743D01*
X227747Y97210D01*
X229140D01*
X230426Y97743D01*
X231411Y98728D01*
X231943Y100014D01*
Y101407D01*
X231411Y102693D01*
X230426Y103678D01*
X229140Y104210D01*
D02*
G37*
G36*
X680220Y102722D02*
X678827D01*
X677541Y102189D01*
X676556Y101205D01*
X676023Y99918D01*
Y98526D01*
X676556Y97240D01*
X677541Y96255D01*
X678827Y95722D01*
X680220D01*
X681506Y96255D01*
X682491Y97240D01*
X683023Y98526D01*
Y99918D01*
X682491Y101205D01*
X681506Y102189D01*
X680220Y102722D01*
D02*
G37*
G36*
X211717Y103879D02*
X209120Y103421D01*
X206730Y102306D01*
X204710Y100611D01*
X204245Y99947D01*
X212033Y94493D01*
X217487Y102282D01*
X216823Y102747D01*
X214345Y103649D01*
X211717Y103879D01*
D02*
G37*
G36*
X402554Y99727D02*
X401161D01*
X399875Y99194D01*
X398890Y98210D01*
X398358Y96923D01*
Y95531D01*
X398890Y94245D01*
X399875Y93260D01*
X401161Y92727D01*
X402554D01*
X403840Y93260D01*
X404825Y94245D01*
X405358Y95531D01*
Y96923D01*
X404825Y98210D01*
X403840Y99194D01*
X402554Y99727D01*
D02*
G37*
G36*
X653667Y97845D02*
X652274D01*
X650988Y97312D01*
X650003Y96327D01*
X649471Y95041D01*
Y93649D01*
X650003Y92362D01*
X650988Y91378D01*
X652274Y90845D01*
X653667D01*
X654953Y91378D01*
X655938Y92362D01*
X656470Y93649D01*
Y95041D01*
X655938Y96327D01*
X654953Y97312D01*
X653667Y97845D01*
D02*
G37*
G36*
X167965Y96079D02*
X166573D01*
X165286Y95546D01*
X164302Y94562D01*
X163769Y93275D01*
Y91883D01*
X164302Y90596D01*
X165286Y89612D01*
X166573Y89079D01*
X167965D01*
X169252Y89612D01*
X170236Y90596D01*
X170769Y91883D01*
Y93275D01*
X170236Y94562D01*
X169252Y95546D01*
X167965Y96079D01*
D02*
G37*
G36*
X218319Y101699D02*
X212865Y93911D01*
X220654Y88457D01*
X221119Y89121D01*
X222021Y91599D01*
X222251Y94227D01*
X221793Y96824D01*
X220678Y99214D01*
X218983Y101234D01*
X218319Y101699D01*
D02*
G37*
G36*
X469142Y93694D02*
X467749D01*
X466463Y93161D01*
X465478Y92176D01*
X464945Y90890D01*
Y89497D01*
X465478Y88211D01*
X466463Y87227D01*
X467749Y86694D01*
X469142D01*
X470428Y87227D01*
X471413Y88211D01*
X471945Y89497D01*
Y90890D01*
X471413Y92176D01*
X470428Y93161D01*
X469142Y93694D01*
D02*
G37*
G36*
X203662Y99115D02*
X203197Y98451D01*
X202295Y95972D01*
X202065Y93345D01*
X202523Y90748D01*
X203638Y88358D01*
X205333Y86338D01*
X205997Y85873D01*
X211450Y93661D01*
X203662Y99115D01*
D02*
G37*
G36*
X212283Y93078D02*
X206829Y85290D01*
X207493Y84825D01*
X209971Y83923D01*
X212599Y83693D01*
X215196Y84151D01*
X217586Y85266D01*
X219606Y86961D01*
X220071Y87625D01*
X212283Y93078D01*
D02*
G37*
G36*
X557761Y89750D02*
X556368D01*
X555082Y89217D01*
X554097Y88232D01*
X553564Y86946D01*
Y85554D01*
X554097Y84267D01*
X555082Y83283D01*
X556368Y82750D01*
X557761D01*
X559047Y83283D01*
X560032Y84267D01*
X560564Y85554D01*
Y86946D01*
X560032Y88232D01*
X559047Y89217D01*
X557761Y89750D01*
D02*
G37*
G36*
X386802Y88407D02*
X385410D01*
X384123Y87874D01*
X383139Y86889D01*
X382606Y85603D01*
Y84210D01*
X383139Y82924D01*
X384123Y81939D01*
X385410Y81407D01*
X386802D01*
X388088Y81939D01*
X389073Y82924D01*
X389606Y84210D01*
Y85603D01*
X389073Y86889D01*
X388088Y87874D01*
X386802Y88407D01*
D02*
G37*
G36*
X889406Y92669D02*
X881617Y87216D01*
X887071Y79427D01*
X887735Y79892D01*
X889430Y81912D01*
X890545Y84302D01*
X891003Y86900D01*
X890773Y89527D01*
X889871Y92005D01*
X889406Y92669D01*
D02*
G37*
G36*
X922345Y85515D02*
X920952D01*
X919666Y84982D01*
X918681Y83998D01*
X918148Y82711D01*
Y81319D01*
X918681Y80032D01*
X919666Y79048D01*
X920952Y78515D01*
X922345D01*
X923631Y79048D01*
X924616Y80032D01*
X925148Y81319D01*
Y82711D01*
X924616Y83998D01*
X923631Y84982D01*
X922345Y85515D01*
D02*
G37*
G36*
X575839Y97278D02*
X574447D01*
X573160Y96745D01*
X572176Y95760D01*
X571643Y94474D01*
Y93082D01*
X572176Y91795D01*
X573160Y90811D01*
X574447Y90278D01*
X575839D01*
X576306Y90471D01*
X576882Y89610D01*
X576512Y89241D01*
X575979Y87954D01*
Y86562D01*
X576512Y85275D01*
X577497Y84291D01*
X578783Y83758D01*
X580176D01*
X580291Y83681D01*
Y82758D01*
X580824Y81472D01*
X581809Y80487D01*
X583095Y79954D01*
X584488D01*
X585227Y80260D01*
X586027Y80197D01*
X586425Y79741D01*
X586776Y78893D01*
X587761Y77909D01*
X589047Y77376D01*
X590439D01*
X591726Y77909D01*
X592710Y78893D01*
X593243Y80180D01*
Y81572D01*
X592710Y82859D01*
X591726Y83843D01*
X590439Y84376D01*
X589047D01*
X588307Y84070D01*
X587508Y84133D01*
X587109Y84590D01*
X586759Y85437D01*
X585774Y86421D01*
X584488Y86954D01*
X583095D01*
X582980Y87031D01*
Y87954D01*
X582447Y89241D01*
X581462Y90225D01*
X580176Y90758D01*
X578783D01*
X578316Y90565D01*
X577741Y91426D01*
X578110Y91795D01*
X578643Y93082D01*
Y94474D01*
X578110Y95760D01*
X577126Y96745D01*
X575839Y97278D01*
D02*
G37*
G36*
X880785Y86633D02*
X872996Y81179D01*
X873461Y80515D01*
X875482Y78820D01*
X877872Y77705D01*
X880469Y77247D01*
X883096Y77477D01*
X885574Y78379D01*
X886238Y78844D01*
X880785Y86633D01*
D02*
G37*
G36*
X63071Y84000D02*
X61678D01*
X60392Y83467D01*
X59407Y82483D01*
X58875Y81196D01*
Y79804D01*
X59407Y78517D01*
X60392Y77533D01*
X61678Y77000D01*
X63071D01*
X64357Y77533D01*
X65342Y78517D01*
X65875Y79804D01*
Y81196D01*
X65342Y82483D01*
X64357Y83467D01*
X63071Y84000D01*
D02*
G37*
G36*
X666696Y82500D02*
X665304D01*
X664017Y81967D01*
X663033Y80983D01*
X662500Y79696D01*
Y78304D01*
X663033Y77017D01*
X664017Y76033D01*
X665304Y75500D01*
X666696D01*
X667983Y76033D01*
X668967Y77017D01*
X669500Y78304D01*
Y79696D01*
X668967Y80983D01*
X667983Y81967D01*
X666696Y82500D01*
D02*
G37*
G36*
X357987Y77505D02*
X356595D01*
X355308Y76972D01*
X354324Y75988D01*
X353791Y74701D01*
Y73309D01*
X354324Y72022D01*
X355308Y71038D01*
X356595Y70505D01*
X357987D01*
X359273Y71038D01*
X360258Y72022D01*
X360791Y73309D01*
Y74701D01*
X360258Y75988D01*
X359273Y76972D01*
X357987Y77505D01*
D02*
G37*
G36*
X536196Y77250D02*
X534804D01*
X533517Y76717D01*
X532533Y75733D01*
X532000Y74446D01*
Y73054D01*
X532533Y71767D01*
X533517Y70783D01*
X534804Y70250D01*
X536196D01*
X537483Y70783D01*
X538467Y71767D01*
X539000Y73054D01*
Y74446D01*
X538467Y75733D01*
X537483Y76717D01*
X536196Y77250D01*
D02*
G37*
G36*
X77693Y76931D02*
X76301D01*
X75014Y76398D01*
X74030Y75414D01*
X73497Y74127D01*
Y72735D01*
X74030Y71448D01*
X75014Y70464D01*
X76301Y69931D01*
X77693D01*
X78979Y70464D01*
X79964Y71448D01*
X80497Y72735D01*
Y74127D01*
X79964Y75414D01*
X78979Y76398D01*
X77693Y76931D01*
D02*
G37*
G36*
X339177Y76905D02*
X337785D01*
X336498Y76372D01*
X335514Y75388D01*
X334981Y74101D01*
Y72709D01*
X335514Y71422D01*
X336498Y70438D01*
X337785Y69905D01*
X339177D01*
X340463Y70438D01*
X341448Y71422D01*
X341981Y72709D01*
Y74101D01*
X341448Y75388D01*
X340463Y76372D01*
X339177Y76905D01*
D02*
G37*
G36*
X241446Y76250D02*
X240054D01*
X238767Y75717D01*
X237783Y74733D01*
X237250Y73446D01*
Y72054D01*
X237783Y70767D01*
X238767Y69783D01*
X240054Y69250D01*
X241446D01*
X242733Y69783D01*
X243717Y70767D01*
X244250Y72054D01*
Y73446D01*
X243717Y74733D01*
X242733Y75717D01*
X241446Y76250D01*
D02*
G37*
G36*
X588651Y74806D02*
X587258D01*
X585972Y74273D01*
X584987Y73288D01*
X584455Y72002D01*
Y70610D01*
X584987Y69323D01*
X585972Y68339D01*
X587258Y67806D01*
X588651D01*
X589937Y68339D01*
X590922Y69323D01*
X591455Y70610D01*
Y72002D01*
X590922Y73288D01*
X589937Y74273D01*
X588651Y74806D01*
D02*
G37*
G36*
X257446Y70250D02*
X256054D01*
X254767Y69717D01*
X253783Y68733D01*
X253250Y67446D01*
Y66054D01*
X253783Y64767D01*
X254767Y63783D01*
X256054Y63250D01*
X257446D01*
X258733Y63783D01*
X259717Y64767D01*
X260250Y66054D01*
Y67446D01*
X259717Y68733D01*
X258733Y69717D01*
X257446Y70250D01*
D02*
G37*
G36*
X101207Y69342D02*
X99815D01*
X98528Y68809D01*
X97543Y67825D01*
X97011Y66538D01*
Y65146D01*
X97543Y63860D01*
X98528Y62875D01*
X99815Y62342D01*
X101207D01*
X102493Y62875D01*
X103478Y63860D01*
X104011Y65146D01*
Y66538D01*
X103478Y67825D01*
X102493Y68809D01*
X101207Y69342D01*
D02*
G37*
G36*
X65538Y68573D02*
X64145D01*
X62859Y68040D01*
X61874Y67056D01*
X61341Y65770D01*
Y64377D01*
X61874Y63091D01*
X62859Y62106D01*
X64145Y61573D01*
X65538D01*
X66824Y62106D01*
X67808Y63091D01*
X68341Y64377D01*
Y65770D01*
X67808Y67056D01*
X66824Y68040D01*
X65538Y68573D01*
D02*
G37*
G36*
X360389Y67636D02*
X358996D01*
X357710Y67104D01*
X356725Y66119D01*
X356193Y64833D01*
Y63440D01*
X356725Y62154D01*
X357710Y61169D01*
X358996Y60636D01*
X360389D01*
X361675Y61169D01*
X362660Y62154D01*
X363192Y63440D01*
Y64833D01*
X362660Y66119D01*
X361675Y67104D01*
X360389Y67636D01*
D02*
G37*
G36*
X351734Y66865D02*
X350341D01*
X349055Y66332D01*
X348070Y65347D01*
X347537Y64061D01*
Y62669D01*
X348070Y61382D01*
X349055Y60398D01*
X350341Y59865D01*
X351734D01*
X353020Y60398D01*
X354005Y61382D01*
X354537Y62669D01*
Y64061D01*
X354005Y65347D01*
X353020Y66332D01*
X351734Y66865D01*
D02*
G37*
G36*
X899696Y66500D02*
X898304D01*
X897017Y65967D01*
X896033Y64983D01*
X895500Y63696D01*
Y62304D01*
X896033Y61017D01*
X897017Y60033D01*
X898304Y59500D01*
X899696D01*
X900983Y60033D01*
X901967Y61017D01*
X902500Y62304D01*
Y63696D01*
X901967Y64983D01*
X900983Y65967D01*
X899696Y66500D01*
D02*
G37*
G36*
X368472Y66454D02*
X367079D01*
X365793Y65921D01*
X364808Y64936D01*
X364276Y63650D01*
Y62258D01*
X364808Y60971D01*
X365793Y59987D01*
X367079Y59454D01*
X368472D01*
X369758Y59987D01*
X370743Y60971D01*
X371276Y62258D01*
Y63650D01*
X370743Y64936D01*
X369758Y65921D01*
X368472Y66454D01*
D02*
G37*
G36*
X352079Y58670D02*
X350687D01*
X349401Y58137D01*
X348416Y57152D01*
X348301Y56875D01*
X347103Y56637D01*
X346671Y57068D01*
X345385Y57601D01*
X343993D01*
X342706Y57068D01*
X341722Y56084D01*
X341189Y54798D01*
Y53405D01*
X341722Y52119D01*
X342706Y51134D01*
X343993Y50601D01*
X345385D01*
X346671Y51134D01*
X347656Y52119D01*
X347771Y52396D01*
X348969Y52634D01*
X349401Y52203D01*
X350687Y51670D01*
X352079D01*
X353366Y52203D01*
X354350Y53187D01*
X354883Y54474D01*
Y55866D01*
X354350Y57152D01*
X353366Y58137D01*
X352079Y58670D01*
D02*
G37*
G36*
X643235Y63555D02*
X641842D01*
X640556Y63023D01*
X639571Y62038D01*
X639039Y60752D01*
Y59359D01*
X639571Y58073D01*
X640556Y57088D01*
X641842Y56555D01*
X643235D01*
X644521Y57088D01*
X645506Y58073D01*
X646039Y59359D01*
Y60752D01*
X645506Y62038D01*
X644521Y63023D01*
X643235Y63555D01*
D02*
G37*
G36*
X737769Y63427D02*
X736377D01*
X735091Y62894D01*
X734106Y61909D01*
X733573Y60623D01*
Y59230D01*
X734106Y57944D01*
X735091Y56960D01*
X736377Y56427D01*
X737769D01*
X739056Y56960D01*
X740041Y57944D01*
X740573Y59230D01*
Y60623D01*
X740041Y61909D01*
X739056Y62894D01*
X737769Y63427D01*
D02*
G37*
G36*
X184479Y61189D02*
X183087D01*
X181801Y60656D01*
X180816Y59672D01*
X180283Y58385D01*
Y56993D01*
X180816Y55706D01*
X181801Y54722D01*
X183087Y54189D01*
X184479D01*
X185766Y54722D01*
X186750Y55706D01*
X187283Y56993D01*
Y58385D01*
X186750Y59672D01*
X185766Y60656D01*
X184479Y61189D01*
D02*
G37*
G36*
X595048Y60909D02*
X593655D01*
X592369Y60376D01*
X591384Y59391D01*
X590852Y58105D01*
Y56713D01*
X591384Y55426D01*
X592369Y54442D01*
X593655Y53909D01*
X595048D01*
X596334Y54442D01*
X597319Y55426D01*
X597852Y56713D01*
Y58105D01*
X597319Y59391D01*
X596334Y60376D01*
X595048Y60909D01*
D02*
G37*
G36*
X64873Y59560D02*
X63481D01*
X62195Y59027D01*
X61210Y58043D01*
X60677Y56756D01*
Y55364D01*
X61210Y54078D01*
X62195Y53093D01*
X63481Y52560D01*
X64873D01*
X66160Y53093D01*
X67144Y54078D01*
X67677Y55364D01*
Y56756D01*
X67144Y58043D01*
X66160Y59027D01*
X64873Y59560D01*
D02*
G37*
G36*
X554946Y60250D02*
X553554D01*
X552267Y59717D01*
X551283Y58733D01*
X550750Y57446D01*
Y56054D01*
X551283Y54767D01*
X552267Y53783D01*
X553494Y53275D01*
X553581Y53198D01*
X554078Y52234D01*
X553705Y51332D01*
Y50035D01*
X553388Y49686D01*
X552879Y49277D01*
X552260Y49534D01*
X550868D01*
X549581Y49001D01*
X548597Y48016D01*
X548064Y46730D01*
Y45338D01*
X548597Y44051D01*
X549581Y43067D01*
X550868Y42534D01*
X552260D01*
X552997Y42839D01*
X553775Y42062D01*
X553692Y41861D01*
Y40469D01*
X554225Y39182D01*
X555209Y38198D01*
X555415Y37013D01*
X554984Y36581D01*
X554451Y35295D01*
Y33903D01*
X554984Y32616D01*
X555969Y31632D01*
X557255Y31099D01*
X558647D01*
X559934Y31632D01*
X560918Y32616D01*
X561451Y33903D01*
Y35295D01*
X560918Y36581D01*
X559934Y37566D01*
X559728Y38751D01*
X560159Y39182D01*
X560692Y40469D01*
Y41861D01*
X560159Y43148D01*
X559174Y44132D01*
X557888Y44665D01*
X556496D01*
X555758Y44360D01*
X554981Y45137D01*
X555064Y45338D01*
Y46634D01*
X555381Y46984D01*
X555889Y47392D01*
X556509Y47136D01*
X557901D01*
X559187Y47669D01*
X560172Y48653D01*
X560705Y49940D01*
Y51332D01*
X560172Y52618D01*
X559187Y53603D01*
X557961Y54111D01*
X557874Y54187D01*
X557376Y55152D01*
X557750Y56054D01*
Y57446D01*
X557217Y58733D01*
X556233Y59717D01*
X554946Y60250D01*
D02*
G37*
G36*
X61268Y51590D02*
X59876D01*
X58589Y51058D01*
X57605Y50073D01*
X57072Y48787D01*
Y47394D01*
X57605Y46108D01*
X58589Y45123D01*
X59876Y44591D01*
X61268D01*
X62554Y45123D01*
X63539Y46108D01*
X64072Y47394D01*
Y48787D01*
X63539Y50073D01*
X62554Y51058D01*
X61268Y51590D01*
D02*
G37*
G36*
X659913Y64513D02*
X658521D01*
X657235Y63980D01*
X656250Y62995D01*
X655717Y61709D01*
Y60317D01*
X656250Y59030D01*
X657235Y58046D01*
X658521Y57513D01*
X659913D01*
X660656Y57821D01*
X671832Y46645D01*
X671750Y46446D01*
Y45054D01*
X672283Y43767D01*
X673267Y42783D01*
X674554Y42250D01*
X675946D01*
X677233Y42783D01*
X678217Y43767D01*
X678750Y45054D01*
Y46446D01*
X678217Y47733D01*
X677233Y48717D01*
X675946Y49250D01*
X674554D01*
X674355Y49168D01*
X662717Y60806D01*
Y61709D01*
X662184Y62995D01*
X661200Y63980D01*
X659913Y64513D01*
D02*
G37*
G36*
X173563Y46978D02*
X172171D01*
X170885Y46445D01*
X169900Y45460D01*
X169367Y44174D01*
Y42781D01*
X169900Y41495D01*
X170885Y40510D01*
X172171Y39978D01*
X173563D01*
X174850Y40510D01*
X175834Y41495D01*
X176367Y42781D01*
Y44174D01*
X175834Y45460D01*
X174850Y46445D01*
X173563Y46978D01*
D02*
G37*
G36*
X165256Y46773D02*
X163864D01*
X162577Y46240D01*
X161593Y45255D01*
X161060Y43969D01*
Y42576D01*
X161593Y41290D01*
X162577Y40306D01*
X163864Y39773D01*
X165256D01*
X166542Y40306D01*
X167527Y41290D01*
X168060Y42576D01*
Y43969D01*
X167527Y45255D01*
X166542Y46240D01*
X165256Y46773D01*
D02*
G37*
G36*
X601696Y44000D02*
X600304D01*
X599017Y43467D01*
X598033Y42483D01*
X597500Y41196D01*
Y39804D01*
X598033Y38517D01*
X599017Y37533D01*
X600304Y37000D01*
X601696D01*
X602983Y37533D01*
X603967Y38517D01*
X604500Y39804D01*
Y41196D01*
X603967Y42483D01*
X602983Y43467D01*
X601696Y44000D01*
D02*
G37*
G36*
X197948Y83664D02*
X197302D01*
X196521Y83509D01*
X196521Y83509D01*
X195924Y83262D01*
X195263Y82819D01*
X194805Y82362D01*
X194363Y81701D01*
X194116Y81103D01*
X193961Y80323D01*
Y53095D01*
X176905Y36039D01*
X137177D01*
X136396Y35884D01*
X136396Y35884D01*
X135799Y35637D01*
X135138Y35194D01*
X134680Y34737D01*
X134238Y34076D01*
X133991Y33479D01*
X133836Y32698D01*
Y32052D01*
X133991Y31272D01*
X134238Y30674D01*
X134680Y30013D01*
X135138Y29555D01*
X135799Y29113D01*
X136397Y28866D01*
X137177Y28711D01*
X137500D01*
X167754Y28709D01*
X178925Y28708D01*
X178926Y28708D01*
X178926Y28708D01*
X178997D01*
X178997Y28707D01*
X179777Y28863D01*
X180439Y29305D01*
X180439Y29305D01*
X200692Y49558D01*
X201134Y50220D01*
X201289Y51000D01*
Y80000D01*
X201289Y80000D01*
Y80323D01*
X201134Y81104D01*
X201134Y81104D01*
X200887Y81701D01*
X200445Y82362D01*
X199987Y82819D01*
X199326Y83262D01*
X198729Y83509D01*
X197948Y83664D01*
D02*
G37*
G36*
X576068Y37607D02*
X574676D01*
X573389Y37075D01*
X572405Y36090D01*
X571872Y34804D01*
Y33411D01*
X572405Y32125D01*
X573389Y31140D01*
X574676Y30607D01*
X575588D01*
X576287Y29718D01*
X576299Y29669D01*
X576000Y28946D01*
Y27554D01*
X576533Y26267D01*
X577517Y25283D01*
X578804Y24750D01*
X580196D01*
X581483Y25283D01*
X582467Y26267D01*
X583000Y27554D01*
Y28946D01*
X582467Y30233D01*
X581483Y31217D01*
X580196Y31750D01*
X579284D01*
X578585Y32639D01*
X578573Y32689D01*
X578872Y33411D01*
Y34804D01*
X578339Y36090D01*
X577355Y37075D01*
X576068Y37607D01*
D02*
G37*
G36*
X148975Y26971D02*
X147583D01*
X146296Y26438D01*
X145312Y25454D01*
X144779Y24167D01*
Y22775D01*
X145312Y21488D01*
X146296Y20504D01*
X147583Y19971D01*
X148975D01*
X150261Y20504D01*
X151246Y21488D01*
X151779Y22775D01*
Y24167D01*
X151246Y25454D01*
X150261Y26438D01*
X148975Y26971D01*
D02*
G37*
G36*
X548292Y23877D02*
X546899D01*
X545613Y23344D01*
X544628Y22360D01*
X544096Y21073D01*
Y19681D01*
X544628Y18394D01*
X545613Y17410D01*
X546899Y16877D01*
X548292D01*
X549578Y17410D01*
X550563Y18394D01*
X551096Y19681D01*
Y21073D01*
X550563Y22360D01*
X549578Y23344D01*
X548292Y23877D01*
D02*
G37*
G36*
X303573Y22754D02*
X302180D01*
X300894Y22221D01*
X299909Y21237D01*
X299376Y19950D01*
Y18558D01*
X299909Y17271D01*
X300894Y16287D01*
X302180Y15754D01*
X303573D01*
X304859Y16287D01*
X305844Y17271D01*
X306376Y18558D01*
Y19950D01*
X305844Y21237D01*
X304859Y22221D01*
X303573Y22754D01*
D02*
G37*
G36*
X557696Y15750D02*
X556304D01*
X555017Y15217D01*
X554033Y14233D01*
X553500Y12946D01*
Y11554D01*
X554033Y10267D01*
X555017Y9283D01*
X556304Y8750D01*
X557696D01*
X558983Y9283D01*
X559967Y10267D01*
X560500Y11554D01*
Y12946D01*
X559967Y14233D01*
X558983Y15217D01*
X557696Y15750D01*
D02*
G37*
G36*
X323876Y15010D02*
X322484D01*
X321197Y14477D01*
X320213Y13493D01*
X319680Y12206D01*
Y10814D01*
X320213Y9528D01*
X321197Y8543D01*
X322484Y8010D01*
X323876D01*
X325163Y8543D01*
X326147Y9528D01*
X326680Y10814D01*
Y12206D01*
X326147Y13493D01*
X325163Y14477D01*
X323876Y15010D01*
D02*
G37*
G36*
X589132Y14094D02*
X587739D01*
X586453Y13561D01*
X585468Y12576D01*
X584935Y11290D01*
Y9897D01*
X585468Y8611D01*
X586453Y7627D01*
X587739Y7094D01*
X589132D01*
X590418Y7627D01*
X591403Y8611D01*
X591935Y9897D01*
Y11290D01*
X591403Y12576D01*
X590418Y13561D01*
X589132Y14094D01*
D02*
G37*
G36*
X85446Y13250D02*
X84054D01*
X82767Y12717D01*
X81783Y11733D01*
X81250Y10446D01*
Y9054D01*
X81783Y7767D01*
X82767Y6783D01*
X84054Y6250D01*
X85446D01*
X86733Y6783D01*
X87717Y7767D01*
X88250Y9054D01*
Y10446D01*
X87717Y11733D01*
X86733Y12717D01*
X85446Y13250D01*
D02*
G37*
G36*
X601216Y12060D02*
X599823D01*
X598537Y11528D01*
X597552Y10543D01*
X597020Y9257D01*
Y7864D01*
X597552Y6578D01*
X598537Y5593D01*
X599823Y5060D01*
X601216D01*
X602502Y5593D01*
X603487Y6578D01*
X604020Y7864D01*
Y9257D01*
X603487Y10543D01*
X602502Y11528D01*
X601216Y12060D01*
D02*
G37*
G36*
X259354Y9364D02*
X257961D01*
X256675Y8831D01*
X255690Y7847D01*
X255158Y6561D01*
Y5168D01*
X255690Y3882D01*
X256675Y2897D01*
X257961Y2364D01*
X259354D01*
X260640Y2897D01*
X261625Y3882D01*
X262157Y5168D01*
Y6561D01*
X261625Y7847D01*
X260640Y8831D01*
X259354Y9364D01*
D02*
G37*
G36*
X925696Y8500D02*
X924304D01*
X923017Y7967D01*
X922033Y6983D01*
X921500Y5696D01*
Y4304D01*
X922033Y3017D01*
X923017Y2033D01*
X924304Y1500D01*
X925696D01*
X926983Y2033D01*
X927967Y3017D01*
X928500Y4304D01*
Y5696D01*
X927967Y6983D01*
X926983Y7967D01*
X925696Y8500D01*
D02*
G37*
G36*
X575387Y6735D02*
X573994D01*
X572708Y6202D01*
X571723Y5217D01*
X571190Y3931D01*
Y2539D01*
X571723Y1252D01*
X572708Y268D01*
X573994Y-265D01*
X575387D01*
X576673Y268D01*
X577658Y1252D01*
X578190Y2539D01*
Y3931D01*
X577658Y5217D01*
X576673Y6202D01*
X575387Y6735D01*
D02*
G37*
G36*
X557671Y5462D02*
X556278D01*
X554992Y4929D01*
X554008Y3945D01*
X553475Y2658D01*
Y1266D01*
X554008Y-21D01*
X554992Y-1005D01*
X556278Y-1538D01*
X557671D01*
X558957Y-1005D01*
X559942Y-21D01*
X560475Y1266D01*
Y2658D01*
X559942Y3945D01*
X558957Y4929D01*
X557671Y5462D01*
D02*
G37*
G36*
X681673Y5004D02*
X680281D01*
X678995Y4471D01*
X678010Y3487D01*
X677477Y2201D01*
Y808D01*
X678010Y-478D01*
X678995Y-1463D01*
X680281Y-1996D01*
X681673D01*
X682960Y-1463D01*
X683944Y-478D01*
X684477Y808D01*
Y2201D01*
X683944Y3487D01*
X682960Y4471D01*
X681673Y5004D01*
D02*
G37*
G36*
X76696Y4500D02*
X75304D01*
X74017Y3967D01*
X73033Y2983D01*
X72500Y1696D01*
Y304D01*
X73033Y-983D01*
X74017Y-1967D01*
X75304Y-2500D01*
X76696D01*
X77983Y-1967D01*
X78967Y-983D01*
X79500Y304D01*
Y1696D01*
X78967Y2983D01*
X77983Y3967D01*
X76696Y4500D01*
D02*
G37*
G36*
X31146Y3789D02*
X29754D01*
X28467Y3256D01*
X27483Y2271D01*
X26950Y985D01*
Y-408D01*
X27483Y-1694D01*
X28467Y-2679D01*
X29754Y-3211D01*
X31146D01*
X32432Y-2679D01*
X33417Y-1694D01*
X33950Y-408D01*
Y985D01*
X33417Y2271D01*
X32432Y3256D01*
X31146Y3789D01*
D02*
G37*
G36*
X623222Y2930D02*
X621830D01*
X620543Y2397D01*
X619559Y1412D01*
X619026Y126D01*
Y-1267D01*
X619559Y-2553D01*
X620543Y-3537D01*
X621830Y-4070D01*
X623222D01*
X624508Y-3537D01*
X625493Y-2553D01*
X626026Y-1267D01*
Y126D01*
X625493Y1412D01*
X624508Y2397D01*
X623222Y2930D01*
D02*
G37*
G36*
X259141Y1113D02*
X257748D01*
X256462Y580D01*
X255477Y-404D01*
X254944Y-1691D01*
Y-3083D01*
X255477Y-4369D01*
X256462Y-5354D01*
X257748Y-5887D01*
X259141D01*
X260427Y-5354D01*
X261412Y-4369D01*
X261945Y-3083D01*
Y-1691D01*
X261412Y-404D01*
X260427Y580D01*
X259141Y1113D01*
D02*
G37*
G36*
X205370Y216D02*
X203978D01*
X202691Y-317D01*
X201707Y-1302D01*
X201174Y-2588D01*
Y-3980D01*
X201707Y-5267D01*
X202691Y-6251D01*
X203978Y-6784D01*
X205370D01*
X206656Y-6251D01*
X207641Y-5267D01*
X208174Y-3980D01*
Y-2588D01*
X207641Y-1302D01*
X206656Y-317D01*
X205370Y216D01*
D02*
G37*
G36*
X601022Y-457D02*
X599630D01*
X598343Y-990D01*
X597359Y-1975D01*
X596826Y-3261D01*
Y-4654D01*
X597359Y-5940D01*
X598343Y-6924D01*
X597945Y-7854D01*
X597873Y-7824D01*
X596480D01*
X595194Y-8357D01*
X594209Y-9341D01*
X593676Y-10627D01*
Y-12020D01*
X594209Y-13306D01*
X595194Y-14291D01*
X596480Y-14824D01*
X597873D01*
X599159Y-14291D01*
X600143Y-13306D01*
X600676Y-12020D01*
Y-10627D01*
X600143Y-9341D01*
X599159Y-8357D01*
X599557Y-7427D01*
X599630Y-7457D01*
X601022D01*
X602308Y-6924D01*
X603293Y-5940D01*
X603826Y-4654D01*
Y-3261D01*
X603293Y-1975D01*
X602308Y-990D01*
X601022Y-457D01*
D02*
G37*
G36*
X557730Y-4067D02*
X556338D01*
X555052Y-4600D01*
X554067Y-5585D01*
X553534Y-6871D01*
Y-8264D01*
X554067Y-9550D01*
X555052Y-10535D01*
X556338Y-11068D01*
X557730D01*
X559017Y-10535D01*
X560001Y-9550D01*
X560534Y-8264D01*
Y-6871D01*
X560001Y-5585D01*
X559017Y-4600D01*
X557730Y-4067D01*
D02*
G37*
G36*
X259407Y-7724D02*
X258015D01*
X256728Y-8257D01*
X255744Y-9241D01*
X255211Y-10528D01*
Y-11920D01*
X255744Y-13206D01*
X256728Y-14191D01*
X258015Y-14724D01*
X259407D01*
X260693Y-14191D01*
X261678Y-13206D01*
X262211Y-11920D01*
Y-10528D01*
X261678Y-9241D01*
X260693Y-8257D01*
X259407Y-7724D01*
D02*
G37*
G36*
X589256Y-9216D02*
X587864D01*
X586578Y-9748D01*
X585593Y-10733D01*
X585060Y-12019D01*
Y-13412D01*
X585593Y-14698D01*
X586578Y-15683D01*
X587864Y-16216D01*
X589256D01*
X590543Y-15683D01*
X591527Y-14698D01*
X592060Y-13412D01*
Y-12019D01*
X591527Y-10733D01*
X590543Y-9748D01*
X589256Y-9216D01*
D02*
G37*
G36*
X135540Y-1846D02*
X134148D01*
X132861Y-2379D01*
X131876Y-3363D01*
X131344Y-4650D01*
Y-6042D01*
X131876Y-7329D01*
X132861Y-8313D01*
X134148Y-8846D01*
X134454D01*
X134656Y-9862D01*
X134218Y-10043D01*
X133234Y-11028D01*
X132701Y-12314D01*
Y-13707D01*
X133234Y-14993D01*
X134218Y-15978D01*
X135505Y-16510D01*
X136897D01*
X138183Y-15978D01*
X139168Y-14993D01*
X139701Y-13707D01*
Y-12314D01*
X139168Y-11028D01*
X138183Y-10043D01*
X136897Y-9510D01*
X136591D01*
X136389Y-8494D01*
X136826Y-8313D01*
X137811Y-7329D01*
X138344Y-6042D01*
Y-4650D01*
X137811Y-3363D01*
X136826Y-2379D01*
X135540Y-1846D01*
D02*
G37*
G36*
X467049Y-12045D02*
X465657D01*
X464370Y-12578D01*
X463386Y-13563D01*
X462853Y-14849D01*
Y-16241D01*
X463386Y-17528D01*
X464370Y-18512D01*
X465657Y-19045D01*
X467049D01*
X468335Y-18512D01*
X469320Y-17528D01*
X469853Y-16241D01*
Y-14849D01*
X469320Y-13563D01*
X468335Y-12578D01*
X467049Y-12045D01*
D02*
G37*
G36*
X259637Y-16559D02*
X258244D01*
X256958Y-17092D01*
X255973Y-18076D01*
X255441Y-19363D01*
Y-20755D01*
X255973Y-22042D01*
X256958Y-23026D01*
X258244Y-23559D01*
X259637D01*
X260923Y-23026D01*
X261908Y-22042D01*
X262441Y-20755D01*
Y-19363D01*
X261908Y-18076D01*
X260923Y-17092D01*
X259637Y-16559D01*
D02*
G37*
G36*
X484172Y-18519D02*
X482779D01*
X481493Y-19051D01*
X480508Y-20036D01*
X479976Y-21322D01*
Y-22715D01*
X480508Y-24001D01*
X481493Y-24986D01*
X482779Y-25518D01*
X484172D01*
X485458Y-24986D01*
X486443Y-24001D01*
X486976Y-22715D01*
Y-21322D01*
X486443Y-20036D01*
X485458Y-19051D01*
X484172Y-18519D01*
D02*
G37*
G36*
X576774Y-11180D02*
X575382D01*
X574096Y-11713D01*
X573111Y-12698D01*
X572578Y-13984D01*
Y-15376D01*
X573111Y-16663D01*
X574096Y-17647D01*
X574538Y-17830D01*
X574336Y-18846D01*
X573393D01*
X572107Y-19379D01*
X571122Y-20364D01*
X570589Y-21650D01*
Y-23043D01*
X571122Y-24329D01*
X572107Y-25314D01*
X573393Y-25847D01*
X574785D01*
X576072Y-25314D01*
X577056Y-24329D01*
X577589Y-23043D01*
Y-21650D01*
X577056Y-20364D01*
X576072Y-19379D01*
X575630Y-19196D01*
X575832Y-18180D01*
X576774D01*
X578061Y-17647D01*
X579045Y-16663D01*
X579578Y-15376D01*
Y-13984D01*
X579045Y-12698D01*
X578061Y-11713D01*
X576774Y-11180D01*
D02*
G37*
G36*
X583285Y-21467D02*
X581893D01*
X580607Y-22000D01*
X579622Y-22985D01*
X579089Y-24271D01*
Y-25663D01*
X579622Y-26950D01*
X580607Y-27934D01*
X581893Y-28467D01*
X583285D01*
X584572Y-27934D01*
X585556Y-26950D01*
X586089Y-25663D01*
Y-24271D01*
X585556Y-22985D01*
X584572Y-22000D01*
X583285Y-21467D01*
D02*
G37*
G36*
X558238Y-24312D02*
X556846D01*
X555560Y-24845D01*
X554575Y-25830D01*
X554042Y-27116D01*
Y-28508D01*
X554575Y-29795D01*
X555560Y-30779D01*
X556846Y-31312D01*
X558238D01*
X559525Y-30779D01*
X560509Y-29795D01*
X561042Y-28508D01*
Y-27116D01*
X560509Y-25830D01*
X559525Y-24845D01*
X558238Y-24312D01*
D02*
G37*
G36*
X369696Y-24500D02*
X368304D01*
X367017Y-25033D01*
X366033Y-26017D01*
X365500Y-27304D01*
Y-28696D01*
X366033Y-29983D01*
X367017Y-30967D01*
X368304Y-31500D01*
X369696D01*
X370983Y-30967D01*
X371967Y-29983D01*
X372500Y-28696D01*
Y-27304D01*
X371967Y-26017D01*
X370983Y-25033D01*
X369696Y-24500D01*
D02*
G37*
G36*
X260284Y-24897D02*
X258892D01*
X257605Y-25430D01*
X256621Y-26414D01*
X256088Y-27701D01*
Y-29093D01*
X256621Y-30380D01*
X257605Y-31364D01*
X258892Y-31897D01*
X260284D01*
X261570Y-31364D01*
X262555Y-30380D01*
X263088Y-29093D01*
Y-27701D01*
X262555Y-26414D01*
X261570Y-25430D01*
X260284Y-24897D01*
D02*
G37*
G36*
X260844Y-33170D02*
X259452D01*
X258165Y-33703D01*
X257181Y-34687D01*
X256648Y-35974D01*
Y-37366D01*
X257181Y-38652D01*
X258165Y-39637D01*
X259452Y-40170D01*
X260844D01*
X262131Y-39637D01*
X263115Y-38652D01*
X263648Y-37366D01*
Y-35974D01*
X263115Y-34687D01*
X262131Y-33703D01*
X260844Y-33170D01*
D02*
G37*
G36*
X505586Y-35232D02*
X504194D01*
X502907Y-35765D01*
X501923Y-36750D01*
X501390Y-38036D01*
Y-39429D01*
X501923Y-40715D01*
X502907Y-41700D01*
X504194Y-42232D01*
X505586D01*
X506873Y-41700D01*
X507857Y-40715D01*
X508390Y-39429D01*
Y-38036D01*
X507857Y-36750D01*
X506873Y-35765D01*
X505586Y-35232D01*
D02*
G37*
G36*
X667650Y-36036D02*
X666258D01*
X664971Y-36569D01*
X663987Y-37554D01*
X663454Y-38840D01*
Y-40232D01*
X663987Y-41519D01*
X664971Y-42503D01*
X666258Y-43036D01*
X667650D01*
X668937Y-42503D01*
X669921Y-41519D01*
X670454Y-40232D01*
Y-38840D01*
X669921Y-37554D01*
X668937Y-36569D01*
X667650Y-36036D01*
D02*
G37*
G36*
X945696Y-36500D02*
X944304D01*
X943017Y-37033D01*
X942033Y-38017D01*
X941500Y-39304D01*
Y-40696D01*
X941582Y-40894D01*
X923599Y-58877D01*
X859601D01*
X858918Y-59013D01*
X858339Y-59400D01*
X851273Y-66466D01*
X710929D01*
X699702Y-55238D01*
X699123Y-54851D01*
X698440Y-54716D01*
X597561D01*
X597084Y-53700D01*
X597500Y-52696D01*
Y-51304D01*
X596967Y-50017D01*
X595983Y-49033D01*
X594696Y-48500D01*
X593304D01*
X592017Y-49033D01*
X591033Y-50017D01*
X590500Y-51304D01*
Y-52696D01*
X590916Y-53700D01*
X590438Y-54716D01*
X566250D01*
X565567Y-54851D01*
X564988Y-55238D01*
X532761Y-87466D01*
X519549D01*
X519467Y-87267D01*
X518483Y-86283D01*
X517196Y-85750D01*
X515804D01*
X514517Y-86283D01*
X513533Y-87267D01*
X513000Y-88554D01*
Y-89946D01*
X513533Y-91233D01*
X514517Y-92217D01*
X515804Y-92750D01*
X517196D01*
X518483Y-92217D01*
X519467Y-91233D01*
X519549Y-91034D01*
X533500D01*
X534183Y-90899D01*
X534762Y-90512D01*
X566989Y-58284D01*
X612405D01*
X612607Y-59300D01*
X612030Y-59539D01*
X611046Y-60524D01*
X610513Y-61810D01*
Y-63203D01*
X611046Y-64489D01*
X612030Y-65474D01*
X613317Y-66006D01*
X614709D01*
X615995Y-65474D01*
X616980Y-64489D01*
X617513Y-63203D01*
Y-61810D01*
X616980Y-60524D01*
X615995Y-59539D01*
X615418Y-59300D01*
X615620Y-58284D01*
X697701D01*
X708928Y-69512D01*
X709507Y-69899D01*
X710190Y-70034D01*
X842783D01*
X843326Y-71050D01*
X843294Y-71098D01*
X829994D01*
X829312Y-71234D01*
X828733Y-71621D01*
X813888Y-86466D01*
X742810D01*
X742389Y-85450D01*
X742445Y-85394D01*
X742978Y-84107D01*
Y-82715D01*
X742445Y-81429D01*
X741461Y-80444D01*
X740174Y-79911D01*
X738782D01*
X737495Y-80444D01*
X736511Y-81429D01*
X735978Y-82715D01*
Y-84107D01*
X736511Y-85394D01*
X736567Y-85450D01*
X736146Y-86466D01*
X646866D01*
X646272Y-85450D01*
X646605Y-84646D01*
Y-83254D01*
X646072Y-81967D01*
X645087Y-80983D01*
X643801Y-80450D01*
X642408D01*
X641122Y-80983D01*
X640137Y-81967D01*
X639604Y-83254D01*
Y-84646D01*
X639937Y-85450D01*
X639343Y-86466D01*
X622207D01*
X622005Y-85450D01*
X622794Y-85123D01*
X623778Y-84138D01*
X624311Y-82852D01*
Y-81460D01*
X623778Y-80173D01*
X622794Y-79189D01*
X621507Y-78656D01*
X620115D01*
X618829Y-79189D01*
X617844Y-80173D01*
X617311Y-81460D01*
Y-82852D01*
X617844Y-84138D01*
X618829Y-85123D01*
X619617Y-85450D01*
X619415Y-86466D01*
X614989D01*
X598188Y-69665D01*
X597609Y-69278D01*
X596926Y-69142D01*
X588190D01*
X588107Y-68944D01*
X587123Y-67959D01*
X585837Y-67426D01*
X584444D01*
X583158Y-67959D01*
X582173Y-68944D01*
X581640Y-70230D01*
Y-71622D01*
X582173Y-72909D01*
X583158Y-73893D01*
X584444Y-74426D01*
X585837D01*
X587123Y-73893D01*
X588107Y-72909D01*
X588190Y-72710D01*
X596187D01*
X612988Y-89512D01*
X613567Y-89898D01*
X614250Y-90034D01*
X814627D01*
X815310Y-89898D01*
X815888Y-89512D01*
X830733Y-74667D01*
X843597D01*
X843927Y-75462D01*
X844911Y-76447D01*
X846198Y-76980D01*
X847590D01*
X848877Y-76447D01*
X849861Y-75462D01*
X850394Y-74176D01*
Y-72783D01*
X849861Y-71497D01*
X849415Y-71050D01*
X849835Y-70034D01*
X852012D01*
X852695Y-69899D01*
X853274Y-69512D01*
X860340Y-62446D01*
X924338D01*
X925021Y-62310D01*
X925600Y-61923D01*
X944106Y-43418D01*
X944304Y-43500D01*
X945696D01*
X946983Y-42967D01*
X947967Y-41983D01*
X948500Y-40696D01*
Y-39304D01*
X947967Y-38017D01*
X946983Y-37033D01*
X945696Y-36500D01*
D02*
G37*
G36*
X547961Y-37793D02*
X546568D01*
X545282Y-38326D01*
X544297Y-39310D01*
X543765Y-40597D01*
Y-41989D01*
X544297Y-43275D01*
X545282Y-44260D01*
X546568Y-44793D01*
X547961D01*
X549247Y-44260D01*
X550232Y-43275D01*
X550765Y-41989D01*
Y-40597D01*
X550232Y-39310D01*
X549247Y-38326D01*
X547961Y-37793D01*
D02*
G37*
G36*
X510764Y-41536D02*
X509372D01*
X508086Y-42069D01*
X507101Y-43053D01*
X506568Y-44340D01*
Y-45732D01*
X507101Y-47019D01*
X508086Y-48003D01*
X509372Y-48536D01*
X510764D01*
X512051Y-48003D01*
X513035Y-47019D01*
X513568Y-45732D01*
Y-44340D01*
X513035Y-43053D01*
X512051Y-42069D01*
X510764Y-41536D01*
D02*
G37*
G36*
X524946Y-37250D02*
X523554D01*
X522267Y-37783D01*
X521283Y-38767D01*
X520750Y-40054D01*
Y-41446D01*
X521283Y-42733D01*
X522267Y-43717D01*
X523554Y-44250D01*
X524134D01*
X524992Y-44594D01*
X525073Y-45189D01*
Y-46019D01*
X525605Y-47305D01*
X526590Y-48290D01*
X527876Y-48822D01*
X529269D01*
X530555Y-48290D01*
X531540Y-47305D01*
X532072Y-46019D01*
Y-44626D01*
X531540Y-43340D01*
X530555Y-42355D01*
X529269Y-41823D01*
X528689D01*
X527830Y-41478D01*
X527750Y-40884D01*
Y-40054D01*
X527217Y-38767D01*
X526233Y-37783D01*
X524946Y-37250D01*
D02*
G37*
G36*
X423760Y-42592D02*
X422368D01*
X421082Y-43125D01*
X420097Y-44109D01*
X419564Y-45396D01*
Y-46788D01*
X420097Y-48074D01*
X421082Y-49059D01*
X422368Y-49592D01*
X423760D01*
X425047Y-49059D01*
X426031Y-48074D01*
X426564Y-46788D01*
Y-45396D01*
X426031Y-44109D01*
X425047Y-43125D01*
X423760Y-42592D01*
D02*
G37*
G36*
X554696Y-44250D02*
X553304D01*
X552017Y-44783D01*
X551033Y-45767D01*
X550500Y-47054D01*
Y-48446D01*
X551033Y-49733D01*
X552017Y-50717D01*
X553304Y-51250D01*
X554696D01*
X555983Y-50717D01*
X556967Y-49733D01*
X557500Y-48446D01*
Y-47054D01*
X556967Y-45767D01*
X555983Y-44783D01*
X554696Y-44250D01*
D02*
G37*
G36*
X614946Y-46250D02*
X613554D01*
X612267Y-46783D01*
X611283Y-47767D01*
X610750Y-49054D01*
Y-50446D01*
X611283Y-51733D01*
X612267Y-52717D01*
X613554Y-53250D01*
X614946D01*
X616233Y-52717D01*
X617217Y-51733D01*
X617750Y-50446D01*
Y-49054D01*
X617217Y-47767D01*
X616233Y-46783D01*
X614946Y-46250D01*
D02*
G37*
G36*
X543704Y-49838D02*
X542312D01*
X541025Y-50371D01*
X540041Y-51355D01*
X539508Y-52642D01*
Y-54034D01*
X540041Y-55320D01*
X541025Y-56305D01*
X542312Y-56838D01*
X543704D01*
X544991Y-56305D01*
X545975Y-55320D01*
X546508Y-54034D01*
Y-52642D01*
X545975Y-51355D01*
X544991Y-50371D01*
X543704Y-49838D01*
D02*
G37*
G36*
X419596Y-50128D02*
X418203D01*
X416917Y-50661D01*
X415932Y-51645D01*
X415400Y-52931D01*
Y-54324D01*
X415932Y-55610D01*
X416917Y-56595D01*
X418203Y-57128D01*
X419596D01*
X420882Y-56595D01*
X421867Y-55610D01*
X422400Y-54324D01*
Y-52931D01*
X421867Y-51645D01*
X420882Y-50661D01*
X419596Y-50128D01*
D02*
G37*
G36*
X164175Y-51252D02*
X162783D01*
X161496Y-51785D01*
X160512Y-52770D01*
X159979Y-54056D01*
Y-55448D01*
X160512Y-56735D01*
X161496Y-57719D01*
X162783Y-58252D01*
X164175D01*
X165461Y-57719D01*
X166446Y-56735D01*
X166979Y-55448D01*
Y-54056D01*
X166446Y-52770D01*
X165461Y-51785D01*
X164175Y-51252D01*
D02*
G37*
G36*
X411385Y-53578D02*
X409993D01*
X408707Y-54111D01*
X407722Y-55096D01*
X407189Y-56382D01*
Y-57775D01*
X407722Y-59061D01*
X408707Y-60046D01*
X409993Y-60578D01*
X411385D01*
X412672Y-60046D01*
X413656Y-59061D01*
X414189Y-57775D01*
Y-56382D01*
X413656Y-55096D01*
X412672Y-54111D01*
X411385Y-53578D01*
D02*
G37*
G36*
X840245Y-54849D02*
X838853D01*
X837567Y-55382D01*
X836582Y-56367D01*
X836049Y-57653D01*
Y-59045D01*
X836582Y-60332D01*
X837567Y-61316D01*
X838853Y-61849D01*
X840245D01*
X841532Y-61316D01*
X842516Y-60332D01*
X843049Y-59045D01*
Y-57653D01*
X842516Y-56367D01*
X841532Y-55382D01*
X840245Y-54849D01*
D02*
G37*
G36*
X404248Y-58518D02*
X402856D01*
X401569Y-59051D01*
X400585Y-60035D01*
X400052Y-61322D01*
Y-62714D01*
X400585Y-64001D01*
X401569Y-64985D01*
X402856Y-65518D01*
X404248D01*
X405535Y-64985D01*
X406519Y-64001D01*
X407052Y-62714D01*
Y-61322D01*
X406519Y-60035D01*
X405535Y-59051D01*
X404248Y-58518D01*
D02*
G37*
G36*
X657168Y-60583D02*
X655776D01*
X654489Y-61115D01*
X653505Y-62100D01*
X652972Y-63386D01*
Y-64779D01*
X653505Y-66065D01*
X654489Y-67050D01*
X655776Y-67583D01*
X657168D01*
X658455Y-67050D01*
X659439Y-66065D01*
X659972Y-64779D01*
Y-63386D01*
X659439Y-62100D01*
X658455Y-61115D01*
X657168Y-60583D01*
D02*
G37*
G36*
X673196Y-60750D02*
X671804D01*
X670517Y-61283D01*
X669533Y-62267D01*
X669000Y-63554D01*
Y-64946D01*
X669533Y-66233D01*
X670517Y-67217D01*
X671804Y-67750D01*
X673196D01*
X674483Y-67217D01*
X675467Y-66233D01*
X676000Y-64946D01*
Y-63554D01*
X675467Y-62267D01*
X674483Y-61283D01*
X673196Y-60750D01*
D02*
G37*
G36*
X577382Y-60891D02*
X575990D01*
X574703Y-61424D01*
X573719Y-62408D01*
X573186Y-63695D01*
Y-65087D01*
X573719Y-66373D01*
X574703Y-67358D01*
X575990Y-67891D01*
X577382D01*
X578669Y-67358D01*
X579653Y-66373D01*
X580186Y-65087D01*
Y-63695D01*
X579653Y-62408D01*
X578669Y-61424D01*
X577382Y-60891D01*
D02*
G37*
G36*
X429571Y-64375D02*
X428179D01*
X426892Y-64908D01*
X425908Y-65893D01*
X425375Y-67179D01*
Y-68571D01*
X425908Y-69858D01*
X426892Y-70842D01*
X428179Y-71375D01*
X429571D01*
X430858Y-70842D01*
X431842Y-69858D01*
X432375Y-68571D01*
Y-67179D01*
X431842Y-65893D01*
X430858Y-64908D01*
X429571Y-64375D01*
D02*
G37*
G36*
X950196Y-70250D02*
X948804D01*
X947517Y-70783D01*
X946776Y-71524D01*
X946035Y-70783D01*
X944748Y-70250D01*
X943356D01*
X942070Y-70783D01*
X941328Y-71524D01*
X940587Y-70783D01*
X939301Y-70250D01*
X937908D01*
X936622Y-70783D01*
X935637Y-71767D01*
X935104Y-73054D01*
Y-74446D01*
X935637Y-75733D01*
X935991Y-76086D01*
X936592Y-76750D01*
X935991Y-77414D01*
X935637Y-77767D01*
X935104Y-79054D01*
Y-80446D01*
X935637Y-81733D01*
X935760Y-81855D01*
X935339Y-82871D01*
X899292D01*
X890158Y-73737D01*
X889579Y-73350D01*
X888896Y-73214D01*
X867105D01*
X866422Y-73350D01*
X865843Y-73737D01*
X838799Y-100781D01*
X548424D01*
X547741Y-100917D01*
X547162Y-101304D01*
X545550Y-102916D01*
X545351Y-102834D01*
X543959D01*
X542673Y-103366D01*
X541688Y-104351D01*
X541155Y-105637D01*
Y-106710D01*
X540679Y-107065D01*
X540325Y-107247D01*
X540217Y-107276D01*
X539046Y-106791D01*
X537653D01*
X536367Y-107323D01*
X535382Y-108308D01*
X535230Y-108675D01*
X534130D01*
X534037Y-108449D01*
X533052Y-107465D01*
X531766Y-106932D01*
X530374D01*
X529087Y-107465D01*
X528103Y-108449D01*
X527570Y-109736D01*
Y-111128D01*
X528103Y-112415D01*
X529087Y-113399D01*
X530374Y-113932D01*
X531766D01*
X533052Y-113399D01*
X534037Y-112415D01*
X534189Y-112047D01*
X535289D01*
X535382Y-112273D01*
X536367Y-113258D01*
X537653Y-113791D01*
X539046D01*
X540332Y-113258D01*
X541316Y-112273D01*
X541849Y-110987D01*
Y-109914D01*
X542326Y-109559D01*
X542680Y-109377D01*
X542788Y-109348D01*
X543959Y-109834D01*
X545351D01*
X546638Y-109301D01*
X547622Y-108316D01*
X548155Y-107030D01*
Y-105637D01*
X548073Y-105439D01*
X549163Y-104350D01*
X672827D01*
X673338Y-105366D01*
X672946Y-106312D01*
Y-107704D01*
X673479Y-108991D01*
X674463Y-109975D01*
X675750Y-110508D01*
X677142D01*
X678428Y-109975D01*
X679413Y-108991D01*
X679946Y-107704D01*
Y-106312D01*
X679554Y-105366D01*
X680065Y-104350D01*
X839538D01*
X840221Y-104214D01*
X840799Y-103827D01*
X867844Y-76783D01*
X877157D01*
X877382Y-77799D01*
X875484Y-78684D01*
X873464Y-80379D01*
X872999Y-81043D01*
X880787Y-86497D01*
X886241Y-78708D01*
X885577Y-78243D01*
X884356Y-77799D01*
X884535Y-76783D01*
X888157D01*
X897291Y-85917D01*
X897870Y-86304D01*
X898553Y-86440D01*
X954875D01*
X955558Y-86304D01*
X956137Y-85917D01*
X958571Y-83483D01*
X958958Y-82904D01*
X959093Y-82221D01*
Y-81989D01*
X959866Y-81670D01*
X960850Y-80685D01*
X961383Y-79398D01*
Y-78006D01*
X960850Y-76720D01*
X959866Y-75735D01*
X958579Y-75202D01*
X957187D01*
X955900Y-75735D01*
X954916Y-76720D01*
X954383Y-78006D01*
Y-79398D01*
X954916Y-80685D01*
X955525Y-81294D01*
Y-81482D01*
X954136Y-82871D01*
X952766D01*
X952345Y-81855D01*
X952467Y-81733D01*
X953000Y-80446D01*
Y-79054D01*
X952467Y-77767D01*
X952113Y-77414D01*
X951512Y-76750D01*
X952113Y-76086D01*
X952467Y-75733D01*
X953000Y-74446D01*
Y-73054D01*
X952467Y-71767D01*
X951483Y-70783D01*
X950196Y-70250D01*
D02*
G37*
G36*
X536446Y-68795D02*
X535054D01*
X533767Y-69327D01*
X532783Y-70312D01*
X532250Y-71598D01*
Y-72991D01*
X532783Y-74277D01*
X533767Y-75262D01*
X535054Y-75795D01*
X536446D01*
X537733Y-75262D01*
X538717Y-74277D01*
X539250Y-72991D01*
Y-71598D01*
X538717Y-70312D01*
X537733Y-69327D01*
X536446Y-68795D01*
D02*
G37*
G36*
X661754Y-68827D02*
X660361D01*
X659075Y-69360D01*
X658090Y-70345D01*
X657557Y-71631D01*
Y-73024D01*
X658090Y-74310D01*
X659075Y-75294D01*
X660361Y-75827D01*
X661754D01*
X663040Y-75294D01*
X664025Y-74310D01*
X664557Y-73024D01*
Y-71631D01*
X664025Y-70345D01*
X663040Y-69360D01*
X661754Y-68827D01*
D02*
G37*
G36*
X201730Y-73942D02*
X200338D01*
X199052Y-74475D01*
X198067Y-75459D01*
X197534Y-76746D01*
Y-78138D01*
X198067Y-79425D01*
X199052Y-80409D01*
X200338Y-80942D01*
X201730D01*
X203017Y-80409D01*
X204001Y-79425D01*
X204534Y-78138D01*
Y-76746D01*
X204001Y-75459D01*
X203017Y-74475D01*
X201730Y-73942D01*
D02*
G37*
G36*
X892365Y-67444D02*
X864408D01*
X863725Y-67580D01*
X863147Y-67967D01*
X837533Y-93581D01*
X836517Y-93160D01*
Y-92713D01*
X835984Y-91427D01*
X834999Y-90442D01*
X834246Y-90130D01*
X833969Y-88971D01*
X837810Y-85130D01*
X838296Y-85331D01*
X839688D01*
X840975Y-84798D01*
X841959Y-83814D01*
X842492Y-82527D01*
Y-81135D01*
X841959Y-79848D01*
X840975Y-78864D01*
X839688Y-78331D01*
X838296D01*
X837010Y-78864D01*
X836025Y-79848D01*
X835492Y-81135D01*
Y-82400D01*
X826785Y-91108D01*
X612631D01*
X602012Y-80488D01*
X601433Y-80101D01*
X600750Y-79966D01*
X583901D01*
X580239Y-76304D01*
X580321Y-76105D01*
Y-74713D01*
X579788Y-73426D01*
X578804Y-72442D01*
X577517Y-71909D01*
X576125D01*
X574839Y-72442D01*
X573854Y-73426D01*
X573321Y-74713D01*
Y-76105D01*
X573854Y-77392D01*
X574839Y-78376D01*
X576125Y-78909D01*
X577517D01*
X577716Y-78827D01*
X581901Y-83012D01*
X582480Y-83399D01*
X583162Y-83534D01*
X600011D01*
X610631Y-94154D01*
X611209Y-94541D01*
X611892Y-94677D01*
X827524D01*
X828206Y-94541D01*
X829221Y-94917D01*
X829004Y-95446D01*
X828516Y-95875D01*
X598811D01*
X598188Y-94859D01*
X598500Y-94106D01*
Y-92713D01*
X597967Y-91427D01*
X596983Y-90442D01*
X595696Y-89909D01*
X594304D01*
X593017Y-90442D01*
X592033Y-91427D01*
X591500Y-92713D01*
Y-94106D01*
X591812Y-94859D01*
X591189Y-95875D01*
X543621D01*
X543185Y-95438D01*
X541898Y-94905D01*
X540506D01*
X539219Y-95438D01*
X538235Y-96423D01*
X537702Y-97709D01*
Y-99101D01*
X538235Y-100388D01*
X539219Y-101372D01*
X540506Y-101905D01*
X541898D01*
X543185Y-101372D01*
X544169Y-100388D01*
X544560Y-99444D01*
X835977D01*
X836660Y-99308D01*
X837239Y-98921D01*
X865147Y-71013D01*
X891626D01*
X897309Y-76696D01*
X897226Y-76894D01*
Y-78286D01*
X897759Y-79573D01*
X898744Y-80557D01*
X900030Y-81090D01*
X901423D01*
X902709Y-80557D01*
X903694Y-79573D01*
X904227Y-78286D01*
Y-76894D01*
X903694Y-75608D01*
X902709Y-74623D01*
X901423Y-74090D01*
X900030D01*
X899832Y-74172D01*
X893627Y-67967D01*
X893048Y-67580D01*
X892365Y-67444D01*
D02*
G37*
G36*
X751575Y-75240D02*
X750182D01*
X748896Y-75772D01*
X747912Y-76757D01*
X747379Y-78043D01*
Y-79436D01*
X747912Y-80722D01*
X748896Y-81707D01*
X750182Y-82240D01*
X751575D01*
X752861Y-81707D01*
X753846Y-80722D01*
X753915Y-80554D01*
X755015D01*
X755275Y-81181D01*
X756259Y-82166D01*
X757546Y-82699D01*
X758938D01*
X760225Y-82166D01*
X761209Y-81181D01*
X761742Y-79895D01*
Y-78502D01*
X761209Y-77216D01*
X760225Y-76231D01*
X758938Y-75699D01*
X757546D01*
X756259Y-76231D01*
X755275Y-77216D01*
X755205Y-77384D01*
X754106D01*
X753846Y-76757D01*
X752861Y-75772D01*
X751575Y-75240D01*
D02*
G37*
G36*
X371704Y-78008D02*
X370312D01*
X369025Y-78541D01*
X368041Y-79525D01*
X367508Y-80812D01*
Y-82204D01*
X368041Y-83491D01*
X369025Y-84475D01*
X370312Y-85008D01*
X371704D01*
X372991Y-84475D01*
X373975Y-83491D01*
X374508Y-82204D01*
Y-80812D01*
X373975Y-79525D01*
X372991Y-78541D01*
X371704Y-78008D01*
D02*
G37*
G36*
X184988Y-78825D02*
X183595D01*
X182309Y-79358D01*
X181324Y-80343D01*
X180791Y-81629D01*
Y-83021D01*
X181324Y-84308D01*
X182309Y-85292D01*
X183595Y-85825D01*
X184988D01*
X186274Y-85292D01*
X187258Y-84308D01*
X187791Y-83021D01*
Y-81629D01*
X187258Y-80343D01*
X186274Y-79358D01*
X184988Y-78825D01*
D02*
G37*
G36*
X232988Y-79399D02*
X231595D01*
X230309Y-79932D01*
X229324Y-80917D01*
X228792Y-82203D01*
Y-83595D01*
X229324Y-84882D01*
X230309Y-85866D01*
X231595Y-86399D01*
X232988D01*
X234274Y-85866D01*
X235259Y-84882D01*
X235792Y-83595D01*
Y-82203D01*
X235259Y-80917D01*
X234274Y-79932D01*
X232988Y-79399D01*
D02*
G37*
G36*
X13782Y-80682D02*
X12389D01*
X11103Y-81215D01*
X10118Y-82199D01*
X9585Y-83486D01*
Y-84878D01*
X10118Y-86165D01*
X11103Y-87149D01*
X12389Y-87682D01*
X13782D01*
X15068Y-87149D01*
X16053Y-86165D01*
X16586Y-84878D01*
Y-83486D01*
X16053Y-82199D01*
X15068Y-81215D01*
X13782Y-80682D01*
D02*
G37*
G36*
X558257Y-85200D02*
X556864D01*
X555578Y-85733D01*
X554594Y-86718D01*
X554061Y-88004D01*
Y-89396D01*
X554594Y-90683D01*
X555578Y-91667D01*
X556864Y-92200D01*
X558257D01*
X559543Y-91667D01*
X560528Y-90683D01*
X561061Y-89396D01*
Y-88004D01*
X560528Y-86718D01*
X559543Y-85733D01*
X558257Y-85200D01*
D02*
G37*
G36*
X887073Y-79291D02*
X881619Y-87079D01*
X889408Y-92533D01*
X889873Y-91869D01*
X890775Y-89391D01*
X891005Y-86763D01*
X890547Y-84166D01*
X889432Y-81776D01*
X887737Y-79756D01*
X887073Y-79291D01*
D02*
G37*
G36*
X110880Y-85573D02*
X109487D01*
X108201Y-86105D01*
X107216Y-87090D01*
X106684Y-88376D01*
Y-89769D01*
X107216Y-91055D01*
X108201Y-92040D01*
X109487Y-92573D01*
X110880D01*
X112166Y-92040D01*
X113151Y-91055D01*
X113684Y-89769D01*
Y-88376D01*
X113151Y-87090D01*
X112166Y-86105D01*
X110880Y-85573D01*
D02*
G37*
G36*
X212599Y-83847D02*
X209971Y-84077D01*
X207493Y-84979D01*
X206829Y-85444D01*
X212283Y-93233D01*
X220071Y-87779D01*
X219606Y-87115D01*
X217586Y-85420D01*
X215196Y-84305D01*
X212599Y-83847D01*
D02*
G37*
G36*
X861696Y107750D02*
X860304D01*
X859017Y107217D01*
X858033Y106233D01*
X857500Y104946D01*
Y103554D01*
X858033Y102267D01*
X859017Y101283D01*
X860304Y100750D01*
X861696D01*
X862339Y101016D01*
X866315Y97040D01*
X866894Y96654D01*
X867577Y96518D01*
X874783D01*
X875103Y95502D01*
X874085Y94789D01*
X872389Y92768D01*
X871275Y90378D01*
X870817Y87781D01*
X871047Y85154D01*
X871949Y82676D01*
X872414Y82011D01*
X880618Y87756D01*
X888823Y93501D01*
X888358Y94165D01*
X886765Y95502D01*
X887135Y96518D01*
X905381D01*
X905802Y95502D01*
X905533Y95233D01*
X905000Y93946D01*
Y92554D01*
X905533Y91267D01*
X906517Y90283D01*
X907804Y89750D01*
X909196D01*
X910483Y90283D01*
X911467Y91267D01*
X912000Y92554D01*
Y93946D01*
X911467Y95233D01*
X911198Y95502D01*
X911619Y96518D01*
X951709D01*
X962716Y85511D01*
Y-82511D01*
X957556Y-87670D01*
X896818D01*
X896135Y-87806D01*
X895556Y-88193D01*
X889322Y-94427D01*
X888541Y-93771D01*
X888576Y-93721D01*
X888825Y-93365D01*
X880621Y-87620D01*
X872416Y-81875D01*
X871951Y-82539D01*
X871049Y-85017D01*
X870819Y-87645D01*
X871277Y-90242D01*
X872392Y-92632D01*
X874087Y-94652D01*
X874803Y-95154D01*
X874483Y-96170D01*
X868703D01*
X868020Y-96306D01*
X867441Y-96692D01*
X860444Y-103689D01*
X856232D01*
X854000Y-101458D01*
Y-100304D01*
X853467Y-99017D01*
X852483Y-98033D01*
X851196Y-97500D01*
X849804D01*
X848517Y-98033D01*
X847533Y-99017D01*
X847000Y-100304D01*
Y-101696D01*
X847533Y-102983D01*
X848517Y-103967D01*
X849804Y-104500D01*
X851196D01*
X851761Y-104266D01*
X854231Y-106735D01*
X854810Y-107122D01*
X855493Y-107258D01*
X861183D01*
X861866Y-107122D01*
X862445Y-106735D01*
X869442Y-99738D01*
X876459D01*
X876459Y-99738D01*
X888318D01*
X889001Y-99602D01*
X889580Y-99216D01*
X897557Y-91239D01*
X958296D01*
X958978Y-91103D01*
X959557Y-90716D01*
X965762Y-84512D01*
X966149Y-83933D01*
X966284Y-83250D01*
Y86250D01*
X966149Y86933D01*
X965762Y87512D01*
X953710Y99564D01*
X953131Y99951D01*
X952448Y100086D01*
X868316D01*
X864500Y103902D01*
Y104946D01*
X863967Y106233D01*
X862983Y107217D01*
X861696Y107750D01*
D02*
G37*
G36*
X205997Y-86027D02*
X205333Y-86492D01*
X203638Y-88512D01*
X202523Y-90902D01*
X202065Y-93499D01*
X202295Y-96127D01*
X203197Y-98605D01*
X203662Y-99269D01*
X211450Y-93815D01*
X205997Y-86027D01*
D02*
G37*
G36*
X220654Y-88611D02*
X212865Y-94065D01*
X218319Y-101853D01*
X218983Y-101388D01*
X220678Y-99368D01*
X221793Y-96978D01*
X222251Y-94381D01*
X222021Y-91754D01*
X221119Y-89275D01*
X220654Y-88611D01*
D02*
G37*
G36*
X859676Y-95110D02*
X858283D01*
X856997Y-95643D01*
X856012Y-96627D01*
X855479Y-97914D01*
Y-99306D01*
X856012Y-100592D01*
X856997Y-101577D01*
X858283Y-102110D01*
X859676D01*
X860962Y-101577D01*
X861946Y-100592D01*
X862479Y-99306D01*
Y-97914D01*
X861946Y-96627D01*
X860962Y-95643D01*
X859676Y-95110D01*
D02*
G37*
G36*
X674196Y127250D02*
X672804D01*
X671517Y126717D01*
X670533Y125733D01*
X670000Y124446D01*
Y123054D01*
X670533Y121767D01*
X671517Y120783D01*
X672804Y120250D01*
X674196D01*
X674395Y120332D01*
X696988Y97738D01*
X697567Y97352D01*
X698250Y97216D01*
X843000D01*
X843683Y97352D01*
X844262Y97738D01*
X851692Y105169D01*
X852079Y105747D01*
X852214Y106430D01*
Y108107D01*
X852413Y108189D01*
X853397Y109173D01*
X853479Y109372D01*
X863105D01*
X870580Y101897D01*
X871158Y101510D01*
X871841Y101375D01*
X955102D01*
X968466Y88011D01*
Y-89145D01*
X964959Y-92652D01*
X898362D01*
X897679Y-92787D01*
X897100Y-93174D01*
X887780Y-102494D01*
X876289D01*
X876207Y-102296D01*
X875222Y-101311D01*
X873936Y-100779D01*
X872544D01*
X871257Y-101311D01*
X870273Y-102296D01*
X869740Y-103582D01*
Y-104975D01*
X870273Y-106261D01*
X871257Y-107246D01*
X872544Y-107779D01*
X873936D01*
X875222Y-107246D01*
X876207Y-106261D01*
X876289Y-106063D01*
X888519D01*
X889202Y-105927D01*
X889781Y-105540D01*
X899101Y-96220D01*
X965699D01*
X966381Y-96084D01*
X966960Y-95697D01*
X971512Y-91146D01*
X971898Y-90567D01*
X972034Y-89884D01*
Y88750D01*
X971898Y89433D01*
X971512Y90012D01*
X957103Y104420D01*
X956524Y104807D01*
X955841Y104943D01*
X872580D01*
X865106Y112418D01*
X864527Y112804D01*
X863844Y112940D01*
X853479D01*
X853397Y113139D01*
X852413Y114123D01*
X851126Y114656D01*
X849734D01*
X848448Y114123D01*
X847463Y113139D01*
X846930Y111852D01*
Y110460D01*
X847463Y109173D01*
X848448Y108189D01*
X848551Y108146D01*
X848645Y107168D01*
X842261Y100784D01*
X698989D01*
X676918Y122856D01*
X677000Y123054D01*
Y124446D01*
X676467Y125733D01*
X675483Y126717D01*
X674196Y127250D01*
D02*
G37*
G36*
X212033Y-94648D02*
X204245Y-100101D01*
X204710Y-100765D01*
X206730Y-102460D01*
X209120Y-103575D01*
X211717Y-104033D01*
X214345Y-103803D01*
X216823Y-102901D01*
X217487Y-102436D01*
X212033Y-94648D01*
D02*
G37*
G36*
X237748Y-101373D02*
X236356D01*
X235069Y-101906D01*
X234085Y-102890D01*
X233552Y-104177D01*
Y-105569D01*
X234085Y-106856D01*
X235069Y-107840D01*
X236356Y-108373D01*
X237748D01*
X239035Y-107840D01*
X240019Y-106856D01*
X240552Y-105569D01*
Y-104177D01*
X240019Y-102890D01*
X239035Y-101906D01*
X237748Y-101373D01*
D02*
G37*
G36*
X194413Y-102673D02*
X193021D01*
X191734Y-103205D01*
X190750Y-104190D01*
X190217Y-105477D01*
Y-106869D01*
X190750Y-108155D01*
X191734Y-109140D01*
X193021Y-109673D01*
X194413D01*
X195700Y-109140D01*
X196684Y-108155D01*
X197217Y-106869D01*
Y-105477D01*
X196684Y-104190D01*
X195700Y-103205D01*
X194413Y-102673D01*
D02*
G37*
G36*
X414446Y-103250D02*
X413054D01*
X411767Y-103783D01*
X410783Y-104767D01*
X410250Y-106054D01*
Y-107446D01*
X410783Y-108733D01*
X411767Y-109717D01*
X413054Y-110250D01*
X414446D01*
X415733Y-109717D01*
X416717Y-108733D01*
X417250Y-107446D01*
Y-106054D01*
X416717Y-104767D01*
X415733Y-103783D01*
X414446Y-103250D01*
D02*
G37*
G36*
X872926Y115368D02*
X871534D01*
X870247Y114835D01*
X869262Y113850D01*
X868730Y112564D01*
Y111172D01*
X869262Y109885D01*
X870247Y108900D01*
X871534Y108368D01*
X872926D01*
X873124Y108450D01*
X874848Y106726D01*
X875427Y106339D01*
X876110Y106203D01*
X959773D01*
X973966Y92011D01*
Y-90395D01*
X966850Y-97511D01*
X901664D01*
X900981Y-97647D01*
X900402Y-98034D01*
X888117Y-110319D01*
X880184D01*
X879721Y-110411D01*
X878688Y-109983D01*
X877296D01*
X876010Y-110516D01*
X875025Y-111500D01*
X874492Y-112787D01*
Y-114179D01*
X875025Y-115465D01*
X876010Y-116450D01*
X877296Y-116983D01*
X878688D01*
X879975Y-116450D01*
X880959Y-115465D01*
X881492Y-114179D01*
Y-113887D01*
X888856D01*
X889539Y-113752D01*
X890118Y-113365D01*
X902403Y-101080D01*
X967589D01*
X968272Y-100944D01*
X968850Y-100557D01*
X977012Y-92396D01*
X977399Y-91817D01*
X977534Y-91134D01*
Y92750D01*
X977399Y93433D01*
X977012Y94012D01*
X961774Y109249D01*
X961195Y109636D01*
X960512Y109772D01*
X876849D01*
X875648Y110973D01*
X875730Y111172D01*
Y112564D01*
X875197Y113850D01*
X874212Y114835D01*
X872926Y115368D01*
D02*
G37*
G36*
X914532Y-107639D02*
X913140D01*
X911853Y-108171D01*
X910869Y-109156D01*
X910336Y-110442D01*
Y-111835D01*
X910869Y-113121D01*
X911853Y-114106D01*
X913140Y-114639D01*
X914532D01*
X915819Y-114106D01*
X916803Y-113121D01*
X917336Y-111835D01*
Y-110442D01*
X916803Y-109156D01*
X915819Y-108171D01*
X914532Y-107639D01*
D02*
G37*
G36*
X242104Y-109424D02*
X240711D01*
X239425Y-109957D01*
X238440Y-110942D01*
X237908Y-112228D01*
Y-113621D01*
X238440Y-114907D01*
X239425Y-115892D01*
X240711Y-116425D01*
X242104D01*
X243390Y-115892D01*
X244375Y-114907D01*
X244907Y-113621D01*
Y-112228D01*
X244375Y-110942D01*
X243390Y-109957D01*
X242104Y-109424D01*
D02*
G37*
G36*
X203696Y-114500D02*
X202304D01*
X201017Y-115033D01*
X200033Y-116017D01*
X199500Y-117304D01*
Y-118696D01*
X200033Y-119983D01*
X201017Y-120967D01*
X202304Y-121500D01*
X203696D01*
X204983Y-120967D01*
X205967Y-119983D01*
X206500Y-118696D01*
Y-117304D01*
X205967Y-116017D01*
X204983Y-115033D01*
X203696Y-114500D01*
D02*
G37*
G36*
X216696Y-118000D02*
X215304D01*
X214017Y-118533D01*
X213033Y-119517D01*
X212500Y-120804D01*
Y-122196D01*
X213033Y-123483D01*
X214017Y-124467D01*
X215304Y-125000D01*
X216696D01*
X217983Y-124467D01*
X218967Y-123483D01*
X219500Y-122196D01*
Y-120804D01*
X218967Y-119517D01*
X217983Y-118533D01*
X216696Y-118000D01*
D02*
G37*
G36*
X656544Y-115615D02*
X655733D01*
Y-125123D01*
X665241D01*
Y-124312D01*
X664558Y-121765D01*
X663240Y-119481D01*
X661375Y-117616D01*
X659091Y-116298D01*
X656544Y-115615D01*
D02*
G37*
G36*
X707344D02*
X706533D01*
Y-125123D01*
X716041D01*
Y-124312D01*
X715359Y-121765D01*
X714040Y-119481D01*
X712175Y-117616D01*
X709891Y-116298D01*
X707344Y-115615D01*
D02*
G37*
G36*
X654717D02*
X653906D01*
X651359Y-116298D01*
X649075Y-117616D01*
X647210Y-119481D01*
X645892Y-121765D01*
X645209Y-124312D01*
Y-125123D01*
X654717D01*
Y-115615D01*
D02*
G37*
G36*
X705517D02*
X704706D01*
X702159Y-116298D01*
X699875Y-117616D01*
X698010Y-119481D01*
X696692Y-121765D01*
X696009Y-124312D01*
Y-125123D01*
X705517D01*
Y-115615D01*
D02*
G37*
G36*
X691379Y-120750D02*
X689987D01*
X688700Y-121283D01*
X687716Y-122267D01*
X687183Y-123554D01*
Y-124946D01*
X687716Y-126233D01*
X688700Y-127217D01*
X689987Y-127750D01*
X691379D01*
X692666Y-127217D01*
X693650Y-126233D01*
X694183Y-124946D01*
Y-123554D01*
X693650Y-122267D01*
X692666Y-121283D01*
X691379Y-120750D01*
D02*
G37*
G36*
X851334Y-118724D02*
X848736Y-119182D01*
X846346Y-120297D01*
X844326Y-121992D01*
X843861Y-122656D01*
X851650Y-128110D01*
X857103Y-120321D01*
X856439Y-119856D01*
X853961Y-118954D01*
X851334Y-118724D01*
D02*
G37*
G36*
X678696Y-124000D02*
X677304D01*
X676017Y-124533D01*
X675033Y-125517D01*
X674500Y-126804D01*
Y-128196D01*
X675033Y-129483D01*
X676017Y-130467D01*
X677304Y-131000D01*
X678696D01*
X679983Y-130467D01*
X680967Y-129483D01*
X681500Y-128196D01*
Y-126804D01*
X680967Y-125517D01*
X679983Y-124533D01*
X678696Y-124000D01*
D02*
G37*
G36*
X870696Y-126500D02*
X869304D01*
X868017Y-127033D01*
X867033Y-128017D01*
X866500Y-129304D01*
Y-130696D01*
X867033Y-131983D01*
X868017Y-132967D01*
X869304Y-133500D01*
X870696D01*
X871983Y-132967D01*
X872967Y-131983D01*
X873500Y-130696D01*
Y-129304D01*
X872967Y-128017D01*
X871983Y-127033D01*
X870696Y-126500D01*
D02*
G37*
G36*
X417696D02*
X416304D01*
X415017Y-127033D01*
X414033Y-128017D01*
X413500Y-129304D01*
Y-130696D01*
X414033Y-131983D01*
X415017Y-132967D01*
X416304Y-133500D01*
X417696D01*
X418983Y-132967D01*
X419967Y-131983D01*
X420500Y-130696D01*
Y-129304D01*
X419967Y-128017D01*
X418983Y-127033D01*
X417696Y-126500D01*
D02*
G37*
G36*
X857935Y-120904D02*
X852482Y-128692D01*
X860270Y-134146D01*
X860735Y-133482D01*
X861637Y-131004D01*
X861867Y-128376D01*
X861409Y-125779D01*
X860295Y-123389D01*
X858599Y-121369D01*
X857935Y-120904D01*
D02*
G37*
G36*
X222946Y-127517D02*
X221553D01*
X220267Y-128050D01*
X219282Y-129035D01*
X218749Y-130321D01*
Y-131713D01*
X219282Y-133000D01*
X220267Y-133984D01*
X221553Y-134517D01*
X222946D01*
X224232Y-133984D01*
X225217Y-133000D01*
X225749Y-131713D01*
Y-130321D01*
X225217Y-129035D01*
X224232Y-128050D01*
X222946Y-127517D01*
D02*
G37*
G36*
X241736Y-125460D02*
X239109Y-125690D01*
X236631Y-126592D01*
X235967Y-127057D01*
X241420Y-134846D01*
X249209Y-129392D01*
X248744Y-128728D01*
X246724Y-127033D01*
X244333Y-125918D01*
X241736Y-125460D01*
D02*
G37*
G36*
X716041Y-126139D02*
X706533D01*
Y-135647D01*
X707344D01*
X709891Y-134965D01*
X712175Y-133646D01*
X714040Y-131781D01*
X715359Y-129497D01*
X716041Y-126950D01*
Y-126139D01*
D02*
G37*
G36*
X705517D02*
X696009D01*
Y-126950D01*
X696692Y-129497D01*
X698010Y-131781D01*
X699875Y-133646D01*
X702159Y-134965D01*
X704706Y-135647D01*
X705517D01*
Y-126139D01*
D02*
G37*
G36*
X654717D02*
X645209D01*
Y-126950D01*
X645892Y-129497D01*
X647210Y-131781D01*
X649075Y-133646D01*
X651359Y-134965D01*
X653906Y-135647D01*
X654717D01*
Y-126139D01*
D02*
G37*
G36*
X843278Y-123488D02*
X842813Y-124152D01*
X841911Y-126630D01*
X841682Y-129258D01*
X842140Y-131855D01*
X843254Y-134245D01*
X844949Y-136265D01*
X845613Y-136730D01*
X851067Y-128942D01*
X843278Y-123488D01*
D02*
G37*
G36*
X851899Y-129524D02*
X846446Y-137313D01*
X847110Y-137778D01*
X849588Y-138680D01*
X852215Y-138910D01*
X854812Y-138452D01*
X857202Y-137337D01*
X859223Y-135642D01*
X859688Y-134978D01*
X851899Y-129524D01*
D02*
G37*
G36*
X665241Y-126139D02*
X655733D01*
Y-135647D01*
X656544D01*
X656782Y-135583D01*
X657444Y-136279D01*
X657471Y-136451D01*
Y-137784D01*
X658004Y-139070D01*
X658988Y-140055D01*
X660275Y-140588D01*
X661667D01*
X662954Y-140055D01*
X663938Y-139070D01*
X664471Y-137784D01*
Y-136391D01*
X663938Y-135105D01*
X662954Y-134120D01*
X662518Y-133940D01*
X662280Y-132741D01*
X663240Y-131781D01*
X664558Y-129497D01*
X665241Y-126950D01*
Y-126139D01*
D02*
G37*
G36*
X235135Y-127640D02*
X234471Y-128105D01*
X232775Y-130125D01*
X231661Y-132515D01*
X231203Y-135112D01*
X231433Y-137740D01*
X232335Y-140218D01*
X232800Y-140882D01*
X240588Y-135428D01*
X235135Y-127640D01*
D02*
G37*
G36*
X691696Y-134000D02*
X690304D01*
X689017Y-134533D01*
X688033Y-135517D01*
X687500Y-136804D01*
Y-138196D01*
X688033Y-139483D01*
X689017Y-140467D01*
X690304Y-141000D01*
X691696D01*
X692983Y-140467D01*
X693967Y-139483D01*
X694500Y-138196D01*
Y-136804D01*
X693967Y-135517D01*
X692983Y-134533D01*
X691696Y-134000D01*
D02*
G37*
G36*
X737994Y-116718D02*
X735563D01*
X733317Y-117648D01*
X731599Y-119367D01*
X730668Y-121612D01*
Y-124043D01*
X731599Y-126289D01*
X733317Y-128008D01*
X734815Y-128628D01*
Y-129728D01*
X733317Y-130348D01*
X731599Y-132067D01*
X730668Y-134312D01*
Y-136743D01*
X731599Y-138989D01*
X733317Y-140708D01*
X735563Y-141638D01*
X737994D01*
X740239Y-140708D01*
X741958Y-138989D01*
X742888Y-136743D01*
Y-134312D01*
X741958Y-132067D01*
X740239Y-130348D01*
X738742Y-129728D01*
Y-128628D01*
X740239Y-128008D01*
X741958Y-126289D01*
X742888Y-124043D01*
Y-121612D01*
X741958Y-119367D01*
X740239Y-117648D01*
X737994Y-116718D01*
D02*
G37*
G36*
X626022Y-112693D02*
X611022D01*
X607237Y-113191D01*
X603709Y-114652D01*
X600681Y-116976D01*
X598356Y-120005D01*
X596895Y-123532D01*
X596397Y-127318D01*
X596895Y-131103D01*
X598356Y-134630D01*
X600681Y-137659D01*
X603709Y-139984D01*
X607237Y-141445D01*
X611022Y-141943D01*
X626022D01*
X629807Y-141445D01*
X633335Y-139984D01*
X636363Y-137659D01*
X638688Y-134630D01*
X640149Y-131103D01*
X640647Y-127318D01*
X640149Y-123532D01*
X638688Y-120005D01*
X636363Y-116976D01*
X633335Y-114652D01*
X629807Y-113191D01*
X626022Y-112693D01*
D02*
G37*
G36*
X355812D02*
X340812D01*
X337027Y-113191D01*
X333499Y-114652D01*
X330471Y-116976D01*
X328146Y-120005D01*
X326685Y-123532D01*
X326187Y-127318D01*
X326685Y-131103D01*
X328146Y-134630D01*
X330471Y-137659D01*
X333499Y-139984D01*
X337027Y-141445D01*
X340812Y-141943D01*
X355812D01*
X359597Y-141445D01*
X363125Y-139984D01*
X366153Y-137659D01*
X368478Y-134630D01*
X369939Y-131103D01*
X370437Y-127318D01*
X369939Y-123532D01*
X368478Y-120005D01*
X366153Y-116976D01*
X363125Y-114652D01*
X359597Y-113191D01*
X355812Y-112693D01*
D02*
G37*
G36*
X249792Y-130224D02*
X242003Y-135678D01*
X247457Y-143466D01*
X248121Y-143001D01*
X249816Y-140981D01*
X250931Y-138591D01*
X251388Y-135994D01*
X251159Y-133366D01*
X250257Y-130888D01*
X249792Y-130224D01*
D02*
G37*
G36*
X514732Y-138645D02*
X513340D01*
X512053Y-139178D01*
X511069Y-140162D01*
X510536Y-141449D01*
Y-142841D01*
X511069Y-144128D01*
X512053Y-145112D01*
X513340Y-145645D01*
X514732D01*
X516019Y-145112D01*
X517003Y-144128D01*
X517536Y-142841D01*
Y-141449D01*
X517003Y-140162D01*
X516019Y-139178D01*
X514732Y-138645D01*
D02*
G37*
G36*
X241171Y-136260D02*
X233382Y-141714D01*
X233847Y-142378D01*
X235868Y-144073D01*
X238258Y-145188D01*
X240855Y-145646D01*
X243482Y-145416D01*
X245960Y-144514D01*
X246624Y-144049D01*
X241171Y-136260D01*
D02*
G37*
G36*
X474515Y-139735D02*
X473122D01*
X471836Y-140268D01*
X470852Y-141253D01*
X470319Y-142539D01*
Y-143931D01*
X470852Y-145218D01*
X471836Y-146202D01*
X473122Y-146735D01*
X474515D01*
X475801Y-146202D01*
X476786Y-145218D01*
X477319Y-143931D01*
Y-142539D01*
X476786Y-141253D01*
X475801Y-140268D01*
X474515Y-139735D01*
D02*
G37*
G36*
X682797Y-140281D02*
X681404D01*
X680118Y-140814D01*
X679133Y-141799D01*
X678600Y-143085D01*
Y-144478D01*
X679133Y-145764D01*
X680118Y-146749D01*
X681404Y-147281D01*
X682797D01*
X684083Y-146749D01*
X685068Y-145764D01*
X685601Y-144478D01*
Y-143085D01*
X685068Y-141799D01*
X684083Y-140814D01*
X682797Y-140281D01*
D02*
G37*
G36*
X525696Y-146500D02*
X524304D01*
X523017Y-147033D01*
X522033Y-148017D01*
X521500Y-149304D01*
Y-150696D01*
X522033Y-151983D01*
X523017Y-152967D01*
X524304Y-153500D01*
X525696D01*
X526983Y-152967D01*
X527967Y-151983D01*
X528500Y-150696D01*
Y-149304D01*
X527967Y-148017D01*
X526983Y-147033D01*
X525696Y-146500D01*
D02*
G37*
G36*
X405031Y-146816D02*
X403638D01*
X402352Y-147349D01*
X401367Y-148333D01*
X400835Y-149620D01*
Y-151012D01*
X401367Y-152298D01*
X402352Y-153283D01*
X403638Y-153816D01*
X405031D01*
X406317Y-153283D01*
X407302Y-152298D01*
X407835Y-151012D01*
Y-149620D01*
X407302Y-148333D01*
X406317Y-147349D01*
X405031Y-146816D01*
D02*
G37*
G36*
X641898Y-147039D02*
X640506D01*
X639220Y-147572D01*
X638235Y-148556D01*
X637702Y-149843D01*
Y-151235D01*
X638235Y-152522D01*
X639220Y-153506D01*
X640506Y-154039D01*
X641898D01*
X643185Y-153506D01*
X644169Y-152522D01*
X644702Y-151235D01*
Y-149843D01*
X644169Y-148556D01*
X643185Y-147572D01*
X641898Y-147039D01*
D02*
G37*
%LPD*%
D15*
X839538Y-102565D02*
X867105Y-74998D01*
X544655Y-106334D02*
X548424Y-102565D01*
X839538D01*
X596926Y-70926D02*
X614250Y-88250D01*
X814627D01*
X924338Y-60662D02*
X945000Y-40000D01*
X859601Y-60662D02*
X924338D01*
X566250Y-56500D02*
X698440D01*
X710190Y-68250D02*
X852012D01*
X698440Y-56500D02*
X710190Y-68250D01*
X880184Y-112103D02*
X888856D01*
X901664Y-99296D01*
X877992Y-113483D02*
X878804D01*
X880184Y-112103D01*
X887410Y-119727D02*
X887874D01*
X903263Y-104338D01*
X970912D01*
X981701Y-93549D01*
X967589Y-99296D02*
X975750Y-91134D01*
X901664Y-99296D02*
X967589D01*
X888519Y-104278D02*
X898362Y-94436D01*
X965699D01*
X970250Y-89884D01*
X888318Y-97954D02*
X896818Y-89454D01*
X958296D02*
X964500Y-83250D01*
X896818Y-89454D02*
X958296D01*
X876459Y-97954D02*
X888318D01*
X888896Y-74998D02*
X898553Y-84655D01*
X954875D02*
X957309Y-82221D01*
X898553Y-84655D02*
X954875D01*
X876459Y-97954D02*
X876459Y-97954D01*
X861183Y-105474D02*
X868703Y-97954D01*
X876459D01*
X827524Y-92892D02*
X838585Y-81831D01*
X600750Y-81750D02*
X611892Y-92892D01*
X827524D01*
X583162Y-81750D02*
X600750D01*
X585140Y-70926D02*
X596926D01*
X870710Y119560D02*
X874859D01*
X881709Y112709D02*
X970291D01*
X874859Y119560D02*
X881709Y112709D01*
X870251Y119648D02*
X870621D01*
X870710Y119560D01*
X868905Y120994D02*
Y121330D01*
Y120994D02*
X870251Y119648D01*
X865250Y117675D02*
X868905Y121330D01*
X872230Y111868D02*
X876110Y107988D01*
X960512D01*
X871841Y103159D02*
X955841D01*
X850430Y111156D02*
X863844D01*
X871841Y103159D01*
X892365Y-69229D02*
X900726Y-77590D01*
X864408Y-69229D02*
X892365D01*
X867105Y-74998D02*
X888896D01*
X835977Y-97659D02*
X864408Y-69229D01*
X957309Y-82221D02*
Y-79276D01*
X957883Y-78702D01*
X814627Y-88250D02*
X829994Y-72882D01*
X844921D02*
X844945Y-72906D01*
X829994Y-72882D02*
X844921D01*
X846320Y-72906D02*
X846894Y-73480D01*
X844945Y-72906D02*
X846320D01*
X838585Y-81831D02*
X838992D01*
X852012Y-68250D02*
X859601Y-60662D01*
X533500Y-89250D02*
X566250Y-56500D01*
X576821Y-75409D02*
X583162Y-81750D01*
X541776Y-97831D02*
X543409D01*
X543581Y-97659D01*
X835977D01*
X541202Y-98405D02*
X541776Y-97831D01*
X873240Y-104278D02*
X888519D01*
X964500Y-83250D02*
Y86250D01*
X855493Y-105474D02*
X861183D01*
X851031Y-101012D02*
X855493Y-105474D01*
X850500Y-101012D02*
X851031D01*
X970250Y-89884D02*
Y88750D01*
X975750Y-91134D02*
Y92750D01*
X981701Y-93549D02*
Y101299D01*
X516500Y-89250D02*
X533500D01*
X674317Y138683D02*
Y149903D01*
Y138683D02*
X709250Y103750D01*
X674317Y149903D02*
X674738Y150324D01*
X659987Y61013D02*
X675250Y45750D01*
X659217Y61013D02*
X659987D01*
X861629Y104250D02*
X867577Y98302D01*
X952448D02*
X964500Y86250D01*
X867577Y98302D02*
X952448D01*
X955841Y103159D02*
X970250Y88750D01*
X960512Y107988D02*
X975750Y92750D01*
X970291Y112709D02*
X981701Y101299D01*
X833523Y103750D02*
X847449Y117675D01*
X865250D01*
X861000Y104250D02*
X861629D01*
X850430Y106430D02*
Y111156D01*
X843000Y99000D02*
X850430Y106430D01*
X709250Y103750D02*
X833523D01*
X698250Y99000D02*
X843000D01*
X673500Y123750D02*
X698250Y99000D01*
D106*
X241296Y-135553D02*
D03*
X212158Y-93940D02*
D03*
Y93786D02*
D03*
X241296Y135399D02*
D03*
X706025Y-125631D02*
D03*
X655225D02*
D03*
X851772Y128953D02*
D03*
X880910Y87340D02*
D03*
X880912Y-87204D02*
D03*
X851774Y-128817D02*
D03*
X709582Y123842D02*
D03*
X658782D02*
D03*
D107*
X736750Y123000D02*
D03*
Y135700D02*
D03*
X736778Y-135528D02*
D03*
Y-122828D02*
D03*
D108*
X94458Y71101D02*
D03*
X105000Y52500D02*
D03*
X139546Y52137D02*
D03*
X149821Y44945D02*
D03*
X167269Y92579D02*
D03*
X99726Y82410D02*
D03*
X100511Y65842D02*
D03*
X888909Y117637D02*
D03*
X695000Y145000D02*
D03*
X921648Y82015D02*
D03*
X679523Y99222D02*
D03*
X666000Y79000D02*
D03*
X899000Y63000D02*
D03*
X925000Y5000D02*
D03*
X666954Y-39536D02*
D03*
X652971Y94345D02*
D03*
X579000Y120518D02*
D03*
X587955Y71306D02*
D03*
X642539Y60055D02*
D03*
X622526Y-570D02*
D03*
X594000Y-52000D02*
D03*
X949500Y-73750D02*
D03*
X944052D02*
D03*
X949500Y-79750D02*
D03*
X944052D02*
D03*
X938604D02*
D03*
Y-73750D02*
D03*
X739478Y-83411D02*
D03*
X913836Y-111139D02*
D03*
X870000Y-130000D02*
D03*
X676446Y-107008D02*
D03*
X614013Y-62506D02*
D03*
X557561Y-88700D02*
D03*
X595000Y-93409D02*
D03*
X660971Y-137088D02*
D03*
X525000Y-150000D02*
D03*
X514036Y-142145D02*
D03*
X487968Y149653D02*
D03*
X469720Y144039D02*
D03*
X400513Y109424D02*
D03*
X357291Y74005D02*
D03*
X338481Y73405D02*
D03*
X323180Y11510D02*
D03*
X216000Y137000D02*
D03*
X162022Y119080D02*
D03*
X4471Y87845D02*
D03*
X302876Y19254D02*
D03*
X369000Y-28000D02*
D03*
X204674Y-3284D02*
D03*
X417000Y-130000D02*
D03*
X473819Y-143235D02*
D03*
X371008Y-81508D02*
D03*
X232292Y-82899D02*
D03*
X203000Y-118000D02*
D03*
X404334Y-150316D02*
D03*
X163479Y-54752D02*
D03*
X76000Y1000D02*
D03*
X30450Y289D02*
D03*
X201034Y-77442D02*
D03*
X193717Y-106173D02*
D03*
X110183Y-89073D02*
D03*
X13086Y-84182D02*
D03*
X177500Y47500D02*
D03*
X182799Y65465D02*
D03*
X769000Y93000D02*
D03*
X560000Y-117750D02*
D03*
X573144Y-117426D02*
D03*
X573144Y-112426D02*
D03*
X651500Y-3250D02*
D03*
X660500D02*
D03*
X751000Y9000D02*
D03*
X760000Y6000D02*
D03*
X755000D02*
D03*
X774750Y-34500D02*
D03*
X775000Y-42000D02*
D03*
X765000Y6000D02*
D03*
X792750Y-56000D02*
D03*
X811068Y-77067D02*
D03*
X853000Y-43000D02*
D03*
X858000D02*
D03*
X775000Y-21000D02*
D03*
Y-11000D02*
D03*
Y-16000D02*
D03*
Y-6000D02*
D03*
Y-1000D02*
D03*
X853000Y-38000D02*
D03*
X852904Y-17783D02*
D03*
X853000Y-23000D02*
D03*
Y-33000D02*
D03*
Y-28000D02*
D03*
X856628Y-13925D02*
D03*
X860352Y-10066D02*
D03*
X867800Y-2349D02*
D03*
X871523Y1509D02*
D03*
X875247Y5368D02*
D03*
X878971Y9226D02*
D03*
X886419Y16943D02*
D03*
X890000Y21000D02*
D03*
X720250Y32250D02*
D03*
X751000Y19000D02*
D03*
Y14000D02*
D03*
Y24000D02*
D03*
Y34000D02*
D03*
Y39000D02*
D03*
Y49000D02*
D03*
X720750Y51000D02*
D03*
X766000Y34000D02*
D03*
X775000D02*
D03*
Y41083D02*
D03*
X783625D02*
D03*
X792250Y34000D02*
D03*
X783625D02*
D03*
X792250Y41083D02*
D03*
X766000Y48167D02*
D03*
Y41083D02*
D03*
X753000Y54000D02*
D03*
X775000Y55250D02*
D03*
X766000D02*
D03*
X783625Y48167D02*
D03*
X792250D02*
D03*
X775000D02*
D03*
X792250Y55250D02*
D03*
X783625D02*
D03*
X753000Y59000D02*
D03*
Y73000D02*
D03*
Y78000D02*
D03*
Y83000D02*
D03*
X756000Y87000D02*
D03*
X784000Y93000D02*
D03*
X779000D02*
D03*
X774000D02*
D03*
X799000D02*
D03*
X809000D02*
D03*
X789000D02*
D03*
X804000D02*
D03*
X794000D02*
D03*
X915000Y21000D02*
D03*
X925000D02*
D03*
X895000D02*
D03*
X910000D02*
D03*
X905000D02*
D03*
X888000Y47000D02*
D03*
X908418Y53061D02*
D03*
X908361Y60223D02*
D03*
X935000Y21000D02*
D03*
X940000D02*
D03*
X930000D02*
D03*
X935750Y28500D02*
D03*
X950000Y21000D02*
D03*
X955000D02*
D03*
X945000D02*
D03*
X935250Y37750D02*
D03*
X937250Y59500D02*
D03*
X949519Y60071D02*
D03*
X957250Y37750D02*
D03*
X957500Y28750D02*
D03*
X958000Y45000D02*
D03*
X953526Y49311D02*
D03*
X814000Y93000D02*
D03*
X820000Y87000D02*
D03*
X888000Y72000D02*
D03*
X942750Y62250D02*
D03*
X404319Y115428D02*
D03*
X634750Y32500D02*
D03*
X634781Y47752D02*
D03*
X615750Y50750D02*
D03*
X560000Y-112750D02*
D03*
X818326Y-76881D02*
D03*
X402135Y-132737D02*
D03*
X414200Y-119965D02*
D03*
X427226Y-132676D02*
D03*
X578500Y-109750D02*
D03*
X810000Y-58000D02*
D03*
X803000Y2000D02*
D03*
Y7000D02*
D03*
X808000D02*
D03*
Y12000D02*
D03*
Y17000D02*
D03*
Y22000D02*
D03*
X775000Y4000D02*
D03*
X770000Y6000D02*
D03*
X751000Y29000D02*
D03*
Y44000D02*
D03*
X759000Y60000D02*
D03*
Y91000D02*
D03*
X764000Y93000D02*
D03*
X819000Y92000D02*
D03*
X844000Y82000D02*
D03*
X849000D02*
D03*
X854000D02*
D03*
X859000D02*
D03*
X864000D02*
D03*
X869000D02*
D03*
X888000Y62000D02*
D03*
Y57000D02*
D03*
Y52000D02*
D03*
X920000Y21000D02*
D03*
X900000D02*
D03*
X882695Y13085D02*
D03*
X875000Y-29000D02*
D03*
X864076Y-6208D02*
D03*
X867846Y-46602D02*
D03*
X863000Y-45000D02*
D03*
X808000Y2000D02*
D03*
X803000Y-3000D02*
D03*
X808000D02*
D03*
Y-8000D02*
D03*
Y-13000D02*
D03*
Y-18000D02*
D03*
Y-23000D02*
D03*
Y-28000D02*
D03*
Y-33000D02*
D03*
Y-38000D02*
D03*
Y-43000D02*
D03*
Y-48000D02*
D03*
X810000Y-53000D02*
D03*
X829000Y82000D02*
D03*
X824000Y84000D02*
D03*
X834000Y82000D02*
D03*
X839000D02*
D03*
X888000Y67000D02*
D03*
Y77000D02*
D03*
X510000Y-148012D02*
D03*
X603156Y-93409D02*
D03*
X629657Y-5068D02*
D03*
X21000Y54000D02*
D03*
X34000D02*
D03*
Y67000D02*
D03*
X21000D02*
D03*
X93556Y-49972D02*
D03*
Y-56416D02*
D03*
Y-43528D02*
D03*
X99983Y-56416D02*
D03*
Y-49972D02*
D03*
Y-43528D02*
D03*
X106410Y-49972D02*
D03*
Y-56416D02*
D03*
Y-43528D02*
D03*
X190000Y-52000D02*
D03*
X210000D02*
D03*
X190000Y-34000D02*
D03*
X210000D02*
D03*
X200000Y-52000D02*
D03*
Y-34000D02*
D03*
X190000Y-43000D02*
D03*
X200000D02*
D03*
X210000D02*
D03*
X653000Y-81000D02*
D03*
X661000D02*
D03*
X634000Y-111000D02*
D03*
X693000Y-63000D02*
D03*
X703000Y-68000D02*
D03*
X735000Y-60000D02*
D03*
X717000Y-64000D02*
D03*
X724000Y-60000D02*
D03*
X210840Y-14500D02*
D03*
X200000Y-15025D02*
D03*
X643727Y89403D02*
D03*
X43000Y-79000D02*
D03*
X38000Y-65000D02*
D03*
Y-58000D02*
D03*
Y-51000D02*
D03*
X43000Y-42000D02*
D03*
X54000Y-39000D02*
D03*
X60000D02*
D03*
X66000D02*
D03*
X72000D02*
D03*
X78000Y-38000D02*
D03*
X83000Y-34000D02*
D03*
X94000Y-26000D02*
D03*
X83000Y-63000D02*
D03*
X45000Y-33000D02*
D03*
Y-26000D02*
D03*
X53000Y-20000D02*
D03*
X62000D02*
D03*
X71000D02*
D03*
X80000D02*
D03*
X38249Y-20111D02*
D03*
X30000Y-20000D02*
D03*
X21000D02*
D03*
X11000D02*
D03*
X124988Y-53088D02*
D03*
X131000Y-53000D02*
D03*
X137000D02*
D03*
X70000Y21000D02*
D03*
X135000Y-34000D02*
D03*
X141000D02*
D03*
X147000D02*
D03*
X153000D02*
D03*
X143000Y-53000D02*
D03*
X149000D02*
D03*
X155000D02*
D03*
X120000Y-30000D02*
D03*
X257000Y-70000D02*
D03*
X138731Y-75413D02*
D03*
X139975Y-66000D02*
D03*
X151463D02*
D03*
X162951D02*
D03*
X128488D02*
D03*
X120000Y-90000D02*
D03*
X127500D02*
D03*
X117000Y-66000D02*
D03*
X109270Y-20246D02*
D03*
X89569Y3464D02*
D03*
X77000Y8000D02*
D03*
X15296Y-4511D02*
D03*
X159000Y-13000D02*
D03*
X145000D02*
D03*
X125000Y-1000D02*
D03*
X135000Y6000D02*
D03*
X119000Y19000D02*
D03*
X224000Y12000D02*
D03*
X239000Y27000D02*
D03*
X202000Y30000D02*
D03*
X206000Y73000D02*
D03*
X157000Y96000D02*
D03*
X175000D02*
D03*
X92000Y83000D02*
D03*
X57169Y69478D02*
D03*
X56000Y39000D02*
D03*
X5000Y-82500D02*
D03*
Y-90000D02*
D03*
Y-62500D02*
D03*
Y-55000D02*
D03*
Y-32500D02*
D03*
Y-25000D02*
D03*
Y-17500D02*
D03*
Y-10000D02*
D03*
Y-2500D02*
D03*
Y5000D02*
D03*
Y12500D02*
D03*
Y20000D02*
D03*
Y27500D02*
D03*
Y35000D02*
D03*
Y42500D02*
D03*
Y50000D02*
D03*
Y57500D02*
D03*
Y65000D02*
D03*
Y72500D02*
D03*
X24033Y90868D02*
D03*
X12500Y-90000D02*
D03*
X20000D02*
D03*
X27500D02*
D03*
X35000D02*
D03*
X42500D02*
D03*
X97500D02*
D03*
X135000D02*
D03*
X692500Y-107500D02*
D03*
X762500Y-22500D02*
D03*
X760000Y-10000D02*
D03*
X745000Y0D02*
D03*
X730000Y17500D02*
D03*
X717500Y22500D02*
D03*
X707500Y35000D02*
D03*
Y52500D02*
D03*
X715000Y70000D02*
D03*
X730000Y80000D02*
D03*
X742500Y90000D02*
D03*
X821202Y110513D02*
D03*
X820000Y142500D02*
D03*
X880000Y-17500D02*
D03*
X887473Y-5841D02*
D03*
X895000Y5000D02*
D03*
X882500Y-40000D02*
D03*
X895000D02*
D03*
X953978Y-24818D02*
D03*
X915000Y-17500D02*
D03*
X820000Y-142500D02*
D03*
Y-130000D02*
D03*
X845000Y-142500D02*
D03*
X750000D02*
D03*
X727500Y-115000D02*
D03*
X362500Y-75000D02*
D03*
X222500Y-82500D02*
D03*
X430000Y-45000D02*
D03*
X520000Y-25000D02*
D03*
X435000Y-95000D02*
D03*
X422500Y-82500D02*
D03*
X477500Y-55000D02*
D03*
X387500Y-12500D02*
D03*
X427500Y30000D02*
D03*
X457500Y60000D02*
D03*
X475000Y77500D02*
D03*
X505000Y97500D02*
D03*
X542500Y62500D02*
D03*
X509527Y25782D02*
D03*
X545000Y27500D02*
D03*
X550000Y-15000D02*
D03*
X615000Y7500D02*
D03*
X457356Y-118573D02*
D03*
X447500Y-107500D02*
D03*
X452117Y-95916D02*
D03*
X465243Y-140111D02*
D03*
X392500Y-142500D02*
D03*
X362500Y-147500D02*
D03*
X322500Y-150000D02*
D03*
X281735Y-107585D02*
D03*
X238391Y-93710D02*
D03*
X382500Y-100000D02*
D03*
X387742Y-83443D02*
D03*
X256999Y17602D02*
D03*
X270376Y143421D02*
D03*
X382500Y140000D02*
D03*
X440000Y137500D02*
D03*
X172500Y-107500D02*
D03*
X163352Y-134965D02*
D03*
X180754Y-151321D02*
D03*
X269869Y-150041D02*
D03*
X176984Y86130D02*
D03*
X297500Y57500D02*
D03*
X245000D02*
D03*
X460000Y2500D02*
D03*
X470715Y9540D02*
D03*
X507514Y15048D02*
D03*
X597346Y98425D02*
D03*
X550824Y97700D02*
D03*
X555610Y-37301D02*
D03*
X529536Y-69154D02*
D03*
X590859Y-64801D02*
D03*
X439355Y99988D02*
D03*
X603715Y48190D02*
D03*
X613971Y74134D02*
D03*
X637500Y77500D02*
D03*
X626267Y102135D02*
D03*
X670000Y102500D02*
D03*
X612481Y-78192D02*
D03*
X551949Y-106921D02*
D03*
X650000Y-142500D02*
D03*
X475000Y-127500D02*
D03*
X311122Y-76054D02*
D03*
X120000Y42500D02*
D03*
X60000Y30000D02*
D03*
X42414Y45007D02*
D03*
X185000Y150000D02*
D03*
X165000Y130000D02*
D03*
X290000Y117500D02*
D03*
X277500Y97500D02*
D03*
X680000Y10000D02*
D03*
X690000Y-20000D02*
D03*
X682500Y-167500D02*
D03*
X462192Y-48801D02*
D03*
X377500Y-25000D02*
D03*
X975000Y-110000D02*
D03*
X944298Y-110808D02*
D03*
X782500Y-80000D02*
D03*
X695000Y-37500D02*
D03*
X615000Y32500D02*
D03*
X525000Y50000D02*
D03*
X954957Y64285D02*
D03*
X955000Y70000D02*
D03*
X947737Y72681D02*
D03*
X943451Y77723D02*
D03*
X938006Y80698D02*
D03*
X920604Y65243D02*
D03*
X910220Y85786D02*
D03*
X172867Y43478D02*
D03*
X183783Y57689D02*
D03*
X164560Y43273D02*
D03*
X543008Y-53338D02*
D03*
X620811Y-82156D02*
D03*
X594352Y57409D02*
D03*
X293408Y104170D02*
D03*
X256750Y66750D02*
D03*
X643104Y-83950D02*
D03*
X351037Y63365D02*
D03*
X359692Y64136D02*
D03*
X557065Y86250D02*
D03*
X466353Y-15545D02*
D03*
X259588Y-28397D02*
D03*
X258941Y-20059D02*
D03*
X467068Y120323D02*
D03*
X466817Y128801D02*
D03*
X475323Y131376D02*
D03*
X588435Y10594D02*
D03*
X945000Y-40000D02*
D03*
X641202Y-150539D02*
D03*
X136201Y-13010D02*
D03*
X134844Y-5346D02*
D03*
X887410Y-119727D02*
D03*
X877992Y-113483D02*
D03*
X872230Y111868D02*
D03*
X900726Y-77590D02*
D03*
X957883Y-78702D02*
D03*
X758242Y-79199D02*
D03*
X750879Y-78740D02*
D03*
X846894Y-73480D02*
D03*
X838992Y-81831D02*
D03*
X833017Y-93409D02*
D03*
X682101Y-143781D02*
D03*
X690683Y-124250D02*
D03*
X839549Y-58349D02*
D03*
X544655Y-106334D02*
D03*
X873240Y-104278D02*
D03*
X858979Y-98610D02*
D03*
X850500Y-101000D02*
D03*
X680977Y1504D02*
D03*
X148279Y23471D02*
D03*
X367776Y62954D02*
D03*
X537134Y104342D02*
D03*
X537447Y112772D02*
D03*
X542192Y116774D02*
D03*
X483476Y-22018D02*
D03*
X547596Y20377D02*
D03*
X76997Y73431D02*
D03*
X62375Y80500D02*
D03*
X64841Y65073D02*
D03*
X64177Y56060D02*
D03*
X60572Y48091D02*
D03*
X184291Y-82325D02*
D03*
X500058Y107169D02*
D03*
X493876Y113277D02*
D03*
X488513Y120650D02*
D03*
X84750Y9750D02*
D03*
X403552Y-62018D02*
D03*
X423064Y-46092D02*
D03*
X418900Y-53628D02*
D03*
X410689Y-57078D02*
D03*
X428875Y-67875D02*
D03*
X260148Y-36670D02*
D03*
X258711Y-11224D02*
D03*
X258657Y5864D02*
D03*
X258444Y-2387D02*
D03*
X468445Y90194D02*
D03*
X446750Y107500D02*
D03*
X351383Y55170D02*
D03*
X576686Y-64391D02*
D03*
X228444Y100710D02*
D03*
X742648Y112317D02*
D03*
X908500Y93250D02*
D03*
X516500Y-89250D02*
D03*
X184000Y112500D02*
D03*
X240750Y72750D02*
D03*
X413750Y-106750D02*
D03*
X237052Y-104873D02*
D03*
X428830Y122691D02*
D03*
X401857Y96227D02*
D03*
X344689Y54101D02*
D03*
X541202Y-98405D02*
D03*
X576821Y-75409D02*
D03*
X585140Y-70926D02*
D03*
X535750Y-72295D02*
D03*
X656472Y-64083D02*
D03*
X661057Y-72327D02*
D03*
X674738Y150324D02*
D03*
X579500Y28250D02*
D03*
X672500Y-64250D02*
D03*
X420545Y117318D02*
D03*
X241408Y-112924D02*
D03*
X216000Y-121500D02*
D03*
X678000Y-127500D02*
D03*
X850430Y111156D02*
D03*
X684250Y142750D02*
D03*
X861000Y104250D02*
D03*
X694505Y124505D02*
D03*
X227500Y114750D02*
D03*
X209973Y129020D02*
D03*
X203121Y121887D02*
D03*
X280000Y115500D02*
D03*
X386106Y84907D02*
D03*
X222249Y-131017D02*
D03*
X691000Y-137500D02*
D03*
X868331Y120756D02*
D03*
X673500Y123750D02*
D03*
X659217Y61013D02*
D03*
X675250Y45750D02*
D03*
X600520Y8560D02*
D03*
X504890Y-38732D02*
D03*
X510068Y-45036D02*
D03*
X547265Y-41293D02*
D03*
X554000Y-47750D02*
D03*
X538349Y-110290D02*
D03*
X531070Y-110432D02*
D03*
X600326Y-3957D02*
D03*
X597176Y-11324D02*
D03*
X588560Y-12716D02*
D03*
X574691Y3235D02*
D03*
X582589Y-24967D02*
D03*
X576078Y-14680D02*
D03*
X574089Y-22346D02*
D03*
X557542Y-27812D02*
D03*
X524250Y-40750D02*
D03*
X528573Y-45322D02*
D03*
X601000Y40500D02*
D03*
X614250Y-49750D02*
D03*
X575372Y34107D02*
D03*
X557951Y34599D02*
D03*
X557192Y41165D02*
D03*
X551564Y46034D02*
D03*
X589743Y80876D02*
D03*
X554250Y56750D02*
D03*
X583791Y83454D02*
D03*
X579479Y87258D02*
D03*
X575143Y93778D02*
D03*
X557205Y50636D02*
D03*
X535500Y73750D02*
D03*
X465176Y110442D02*
D03*
X457869Y119326D02*
D03*
X556975Y1962D02*
D03*
X557034Y-7567D02*
D03*
X557000Y12250D02*
D03*
X737073Y59927D02*
D03*
M02*
