G04*
G04 #@! TF.GenerationSoftware,Altium Limited,Altium Designer,25.7.1 (20)*
G04*
G04 Layer_Physical_Order=4*
G04 Layer_Color=16711680*
%FSLAX44Y44*%
%MOMM*%
G71*
G04*
G04 #@! TF.SameCoordinates,0BC58763-356E-4A0F-A031-124E3283D0B1*
G04*
G04*
G04 #@! TF.FilePolarity,Positive*
G04*
G01*
G75*
%ADD10C,0.2000*%
%ADD15C,0.1500*%
G04:AMPARAMS|DCode=20|XSize=0.55mm|YSize=0.65mm|CornerRadius=0.055mm|HoleSize=0mm|Usage=FLASHONLY|Rotation=270.000|XOffset=0mm|YOffset=0mm|HoleType=Round|Shape=RoundedRectangle|*
%AMROUNDEDRECTD20*
21,1,0.5500,0.5400,0,0,270.0*
21,1,0.4400,0.6500,0,0,270.0*
1,1,0.1100,-0.2700,-0.2200*
1,1,0.1100,-0.2700,0.2200*
1,1,0.1100,0.2700,0.2200*
1,1,0.1100,0.2700,-0.2200*
%
%ADD20ROUNDEDRECTD20*%
G04:AMPARAMS|DCode=22|XSize=0.55mm|YSize=0.65mm|CornerRadius=0.055mm|HoleSize=0mm|Usage=FLASHONLY|Rotation=0.000|XOffset=0mm|YOffset=0mm|HoleType=Round|Shape=RoundedRectangle|*
%AMROUNDEDRECTD22*
21,1,0.5500,0.5400,0,0,0.0*
21,1,0.4400,0.6500,0,0,0.0*
1,1,0.1100,0.2200,-0.2700*
1,1,0.1100,-0.2200,-0.2700*
1,1,0.1100,-0.2200,0.2700*
1,1,0.1100,0.2200,0.2700*
%
%ADD22ROUNDEDRECTD22*%
G04:AMPARAMS|DCode=26|XSize=0.55mm|YSize=0.65mm|CornerRadius=0.055mm|HoleSize=0mm|Usage=FLASHONLY|Rotation=45.000|XOffset=0mm|YOffset=0mm|HoleType=Round|Shape=RoundedRectangle|*
%AMROUNDEDRECTD26*
21,1,0.5500,0.5400,0,0,45.0*
21,1,0.4400,0.6500,0,0,45.0*
1,1,0.1100,0.3465,-0.0354*
1,1,0.1100,0.0354,-0.3465*
1,1,0.1100,-0.3465,0.0354*
1,1,0.1100,-0.0354,0.3465*
%
%ADD26ROUNDEDRECTD26*%
G04:AMPARAMS|DCode=31|XSize=0.9mm|YSize=1.4mm|CornerRadius=0.09mm|HoleSize=0mm|Usage=FLASHONLY|Rotation=270.000|XOffset=0mm|YOffset=0mm|HoleType=Round|Shape=RoundedRectangle|*
%AMROUNDEDRECTD31*
21,1,0.9000,1.2200,0,0,270.0*
21,1,0.7200,1.4000,0,0,270.0*
1,1,0.1800,-0.6100,-0.3600*
1,1,0.1800,-0.6100,0.3600*
1,1,0.1800,0.6100,0.3600*
1,1,0.1800,0.6100,-0.3600*
%
%ADD31ROUNDEDRECTD31*%
G04:AMPARAMS|DCode=32|XSize=0.7mm|YSize=1mm|CornerRadius=0.07mm|HoleSize=0mm|Usage=FLASHONLY|Rotation=270.000|XOffset=0mm|YOffset=0mm|HoleType=Round|Shape=RoundedRectangle|*
%AMROUNDEDRECTD32*
21,1,0.7000,0.8600,0,0,270.0*
21,1,0.5600,1.0000,0,0,270.0*
1,1,0.1400,-0.4300,-0.2800*
1,1,0.1400,-0.4300,0.2800*
1,1,0.1400,0.4300,0.2800*
1,1,0.1400,0.4300,-0.2800*
%
%ADD32ROUNDEDRECTD32*%
G04:AMPARAMS|DCode=37|XSize=0.7mm|YSize=1mm|CornerRadius=0.07mm|HoleSize=0mm|Usage=FLASHONLY|Rotation=180.000|XOffset=0mm|YOffset=0mm|HoleType=Round|Shape=RoundedRectangle|*
%AMROUNDEDRECTD37*
21,1,0.7000,0.8600,0,0,180.0*
21,1,0.5600,1.0000,0,0,180.0*
1,1,0.1400,-0.2800,0.4300*
1,1,0.1400,0.2800,0.4300*
1,1,0.1400,0.2800,-0.4300*
1,1,0.1400,-0.2800,-0.4300*
%
%ADD37ROUNDEDRECTD37*%
G04:AMPARAMS|DCode=38|XSize=0.9mm|YSize=1.4mm|CornerRadius=0.09mm|HoleSize=0mm|Usage=FLASHONLY|Rotation=180.000|XOffset=0mm|YOffset=0mm|HoleType=Round|Shape=RoundedRectangle|*
%AMROUNDEDRECTD38*
21,1,0.9000,1.2200,0,0,180.0*
21,1,0.7200,1.4000,0,0,180.0*
1,1,0.1800,-0.3600,0.6100*
1,1,0.1800,0.3600,0.6100*
1,1,0.1800,0.3600,-0.6100*
1,1,0.1800,-0.3600,-0.6100*
%
%ADD38ROUNDEDRECTD38*%
%ADD43R,0.8000X0.3000*%
%ADD101C,0.5000*%
%ADD102C,0.3000*%
%ADD103C,0.4500*%
%ADD106C,1.8000*%
%ADD107C,1.0220*%
%ADD108C,0.4500*%
G04:AMPARAMS|DCode=109|XSize=0.7mm|YSize=1.2mm|CornerRadius=0mm|HoleSize=0mm|Usage=FLASHONLY|Rotation=125.000|XOffset=0mm|YOffset=0mm|HoleType=Round|Shape=Rectangle|*
%AMROTATEDRECTD109*
4,1,4,0.6922,0.0574,-0.2907,-0.6309,-0.6922,-0.0574,0.2907,0.6309,0.6922,0.0574,0.0*
%
%ADD109ROTATEDRECTD109*%

%ADD110R,0.7000X1.2000*%
%ADD111R,0.9000X0.9000*%
%ADD112R,1.1500X1.8000*%
G04:AMPARAMS|DCode=113|XSize=0.7mm|YSize=1.2mm|CornerRadius=0mm|HoleSize=0mm|Usage=FLASHONLY|Rotation=55.000|XOffset=0mm|YOffset=0mm|HoleType=Round|Shape=Rectangle|*
%AMROTATEDRECTD113*
4,1,4,0.2907,-0.6309,-0.6922,0.0574,-0.2907,0.6309,0.6922,-0.0574,0.2907,-0.6309,0.0*
%
%ADD113ROTATEDRECTD113*%

%ADD114R,0.8500X0.4500*%
%ADD115R,0.9000X0.9000*%
%ADD116R,2.7900X0.7400*%
%ADD117R,2.4500X2.3500*%
G04:AMPARAMS|DCode=118|XSize=0.5mm|YSize=0.42mm|CornerRadius=0mm|HoleSize=0mm|Usage=FLASHONLY|Rotation=315.000|XOffset=0mm|YOffset=0mm|HoleType=Round|Shape=Rectangle|*
%AMROTATEDRECTD118*
4,1,4,-0.3253,0.0283,-0.0283,0.3253,0.3253,-0.0283,0.0283,-0.3253,-0.3253,0.0283,0.0*
%
%ADD118ROTATEDRECTD118*%

G04:AMPARAMS|DCode=119|XSize=0.5mm|YSize=0.42mm|CornerRadius=0mm|HoleSize=0mm|Usage=FLASHONLY|Rotation=45.000|XOffset=0mm|YOffset=0mm|HoleType=Round|Shape=Rectangle|*
%AMROTATEDRECTD119*
4,1,4,-0.0283,-0.3253,-0.3253,-0.0283,0.0283,0.3253,0.3253,0.0283,-0.0283,-0.3253,0.0*
%
%ADD119ROTATEDRECTD119*%

%ADD120R,3.1000X2.6000*%
%ADD121R,0.6500X1.5250*%
%ADD122R,1.1000X1.4500*%
%ADD123R,5.6000X1.5500*%
%ADD124R,0.8000X0.4000*%
%ADD125C,0.7500*%
G36*
X874048Y133097D02*
X873848Y132032D01*
X862503Y124088D01*
X864831Y120764D01*
Y120060D01*
X865364Y118773D01*
X866348Y117789D01*
X866718Y117636D01*
X866762Y117284D01*
X866473Y116298D01*
X866342Y116260D01*
X865640Y116121D01*
X860985Y122770D01*
X860865Y122941D01*
X860423Y123805D01*
X861407Y125915D01*
X861865Y128512D01*
X861635Y131140D01*
X860733Y133618D01*
X860268Y134282D01*
X852063Y128537D01*
X843859Y122792D01*
X844324Y122128D01*
X846344Y120433D01*
X848734Y119318D01*
X851331Y118860D01*
X853541Y119054D01*
X853901Y118065D01*
X849397Y114911D01*
Y114911D01*
X849266Y114462D01*
X848448Y114123D01*
X847463Y113139D01*
X846930Y111852D01*
Y110460D01*
X847463Y109173D01*
X848448Y108189D01*
X849734Y107656D01*
X851035D01*
X851084Y107599D01*
X851087Y106773D01*
X850256Y106027D01*
X817355D01*
X816812Y107043D01*
X816944Y107240D01*
X817099Y108020D01*
Y145261D01*
X853775D01*
X874048Y133097D01*
D02*
G37*
G36*
X715418Y145858D02*
X716080Y145416D01*
X716860Y145261D01*
X754101D01*
Y108020D01*
X754256Y107240D01*
X754388Y107043D01*
X753845Y106027D01*
X699497D01*
X692620Y112903D01*
X693009Y113842D01*
X699342D01*
Y119616D01*
X699537Y119693D01*
X700358Y119787D01*
X701567Y117692D01*
X703432Y115827D01*
X705716Y114509D01*
X708263Y113826D01*
X709074D01*
Y123842D01*
Y133858D01*
X708263D01*
X705716Y133176D01*
X703432Y131857D01*
X701567Y129992D01*
X700345Y127874D01*
X699342Y127842D01*
X699233Y127842D01*
X695595D01*
X695201Y128005D01*
X693809D01*
X693416Y127842D01*
X691376D01*
Y128882D01*
X692184Y129842D01*
X699342D01*
Y143842D01*
X698809D01*
X698500Y144304D01*
Y145696D01*
X697967Y146983D01*
X696983Y147967D01*
X695696Y148500D01*
X694304D01*
X693017Y147967D01*
X692033Y146983D01*
X691500Y145696D01*
Y144304D01*
X691192Y143842D01*
X690342D01*
Y131983D01*
X689403Y131594D01*
X688632Y132366D01*
Y143842D01*
X687586D01*
X687217Y144733D01*
X686233Y145717D01*
X684946Y146250D01*
X683554D01*
X682267Y145717D01*
X681283Y144733D01*
X680914Y143842D01*
X679632D01*
Y129842D01*
X686109D01*
X687093Y128858D01*
X686672Y127842D01*
X679632D01*
Y113842D01*
X682348D01*
Y110868D01*
X682484Y110185D01*
X682870Y109606D01*
X693252Y99225D01*
X693831Y98838D01*
X694514Y98702D01*
X849417D01*
X853121Y94998D01*
X853700Y94611D01*
X854383Y94476D01*
X863706D01*
X866845Y89993D01*
X871574Y93304D01*
X871749Y93189D01*
X872297Y92570D01*
X871275Y90378D01*
X870817Y87781D01*
X871047Y85154D01*
X871949Y82676D01*
X872414Y82011D01*
X880618Y87756D01*
X888823Y93501D01*
X888358Y94165D01*
X886338Y95861D01*
X883948Y96975D01*
X881350Y97433D01*
X878914Y97220D01*
X878313Y98023D01*
X878250Y98112D01*
X873151Y105395D01*
X862653Y98044D01*
X861442D01*
X861122Y99060D01*
X872170Y106796D01*
X871781Y107352D01*
X872309Y108368D01*
X872926D01*
X873379Y108555D01*
X873808Y107943D01*
X884837Y115666D01*
X885118Y115663D01*
X885522Y115238D01*
X885393Y113967D01*
X874789Y106542D01*
X879951Y99170D01*
X891419Y107200D01*
X889301Y110225D01*
X890711Y111635D01*
X891264Y112462D01*
X891458Y113437D01*
Y115236D01*
X891876Y115654D01*
X892409Y116940D01*
Y118333D01*
X891876Y119619D01*
X890891Y120604D01*
X889605Y121137D01*
X888212D01*
X886926Y120604D01*
X885941Y119619D01*
X885409Y118333D01*
Y117555D01*
X884393Y117235D01*
X880114Y123345D01*
X871034Y116988D01*
X870925Y117026D01*
X870704Y118179D01*
X871298Y118773D01*
X871582Y119459D01*
X879133Y124746D01*
X874164Y131843D01*
X874872Y132603D01*
X902391Y116092D01*
X902534Y116040D01*
X902660Y115956D01*
X902905Y115907D01*
X903140Y115823D01*
X903291Y115830D01*
X903440Y115801D01*
X984871D01*
Y-115801D01*
X903440D01*
X903291Y-115830D01*
X903140Y-115823D01*
X902905Y-115907D01*
X902660Y-115956D01*
X902534Y-116040D01*
X902391Y-116091D01*
X853775Y-145261D01*
X817099D01*
Y-108020D01*
X816944Y-107240D01*
X816502Y-106578D01*
X815840Y-106136D01*
X815060Y-105981D01*
X756140D01*
X755360Y-106136D01*
X754698Y-106578D01*
X754256Y-107240D01*
X754101Y-108020D01*
Y-145261D01*
X716860D01*
X716860Y-145261D01*
X716080Y-145416D01*
X715418Y-145858D01*
X715418Y-145858D01*
X686555Y-174721D01*
X295445D01*
X276402Y-155678D01*
X275740Y-155236D01*
X274960Y-155081D01*
X167665D01*
X138760Y-94877D01*
X138554Y-94603D01*
X138364Y-94318D01*
X138317Y-94286D01*
X138283Y-94241D01*
X137987Y-94066D01*
X137702Y-93876D01*
X137647Y-93864D01*
X137598Y-93836D01*
X137258Y-93787D01*
X136922Y-93720D01*
X2039D01*
Y83999D01*
X3055Y84643D01*
X3774Y84345D01*
X5167D01*
X6453Y84878D01*
X7438Y85862D01*
X7970Y87149D01*
Y88541D01*
X7438Y89827D01*
X6453Y90812D01*
X5167Y91345D01*
X3774D01*
X3055Y91047D01*
X2039Y91691D01*
Y93720D01*
X136922D01*
X137258Y93787D01*
X137598Y93836D01*
X137647Y93865D01*
X137702Y93876D01*
X137987Y94066D01*
X138283Y94241D01*
X138317Y94286D01*
X138364Y94318D01*
X138554Y94603D01*
X138760Y94877D01*
X167665Y155081D01*
X274960D01*
X275740Y155236D01*
X276402Y155678D01*
X276402Y155678D01*
X295445Y174721D01*
X686555D01*
X715418Y145858D01*
D02*
G37*
%LPC*%
G36*
X852213Y139046D02*
X849585Y138816D01*
X847107Y137914D01*
X846443Y137449D01*
X851897Y129661D01*
X859685Y135114D01*
X859220Y135778D01*
X857200Y137473D01*
X854810Y138588D01*
X852213Y139046D01*
D02*
G37*
G36*
X845611Y136866D02*
X844947Y136402D01*
X843252Y134381D01*
X842137Y131991D01*
X841679Y129394D01*
X841909Y126767D01*
X842811Y124288D01*
X843276Y123624D01*
X851065Y129078D01*
X845611Y136866D01*
D02*
G37*
G36*
X507516Y166866D02*
X502508D01*
Y161858D01*
X507516D01*
Y166866D01*
D02*
G37*
G36*
X501492D02*
X496484D01*
Y161858D01*
X501492D01*
Y166866D01*
D02*
G37*
G36*
X490500Y166850D02*
X479500D01*
Y163134D01*
X378100D01*
X377417Y162999D01*
X376838Y162612D01*
X365771Y151545D01*
X199760D01*
X199077Y151409D01*
X198499Y151022D01*
X166538Y119061D01*
X165522Y119482D01*
Y119776D01*
X164989Y121063D01*
X164004Y122047D01*
X162718Y122580D01*
X161326D01*
X160039Y122047D01*
X159055Y121063D01*
X158522Y119776D01*
Y118384D01*
X159055Y117097D01*
X160039Y116113D01*
X161326Y115580D01*
X161620D01*
X162041Y114564D01*
X137281Y89804D01*
X56670D01*
X55987Y89669D01*
X55408Y89282D01*
X47839Y81713D01*
X47453Y81134D01*
X47317Y80451D01*
Y17899D01*
X47453Y17216D01*
X47839Y16637D01*
X53000Y11477D01*
Y3000D01*
X64000D01*
Y14000D01*
X55523D01*
X50886Y18638D01*
Y79712D01*
X57409Y86236D01*
X138020D01*
X138703Y86372D01*
X139282Y86758D01*
X200499Y147976D01*
X366510D01*
X367193Y148112D01*
X367772Y148499D01*
X378839Y159566D01*
X479500D01*
Y158066D01*
X478484Y157569D01*
X478361Y157651D01*
X477750Y157773D01*
X475558D01*
Y154484D01*
X479347D01*
Y154897D01*
X479500Y155850D01*
X480363Y155850D01*
X490500D01*
Y166850D01*
D02*
G37*
G36*
X507516Y160842D02*
X502508D01*
Y155834D01*
X507516D01*
Y160842D01*
D02*
G37*
G36*
X501492D02*
X496484D01*
Y155834D01*
X501492D01*
Y160842D01*
D02*
G37*
G36*
X474542Y157773D02*
X472350D01*
X471739Y157651D01*
X471221Y157305D01*
X470875Y156787D01*
X470754Y156176D01*
Y154484D01*
X474542D01*
Y157773D01*
D02*
G37*
G36*
X479347Y153468D02*
X475558D01*
Y150180D01*
X477750D01*
X478361Y150301D01*
X478879Y150647D01*
X479225Y151165D01*
X479347Y151776D01*
Y153468D01*
D02*
G37*
G36*
X474542D02*
X470754D01*
Y151776D01*
X470875Y151165D01*
X471221Y150647D01*
X471739Y150301D01*
X472350Y150180D01*
X474542D01*
Y153468D01*
D02*
G37*
G36*
X488664Y153153D02*
X487272D01*
X485985Y152620D01*
X485001Y151636D01*
X484468Y150350D01*
Y149850D01*
X479500D01*
Y147805D01*
X478484Y147547D01*
X478356Y147632D01*
X477751Y147752D01*
X472351D01*
X471746Y147632D01*
X471710Y147607D01*
X469720D01*
X469376Y147539D01*
X469024D01*
X468700Y147404D01*
X468355Y147336D01*
X468063Y147141D01*
X467738Y147006D01*
X467489Y146757D01*
X467197Y146562D01*
X467002Y146270D01*
X466753Y146021D01*
X466619Y145697D01*
X466424Y145405D01*
X466355Y145060D01*
X466221Y144735D01*
Y144384D01*
X466152Y144039D01*
X466221Y143694D01*
Y143343D01*
X466355Y143018D01*
X466424Y142673D01*
X466619Y142381D01*
X466753Y142056D01*
X467002Y141808D01*
X467197Y141516D01*
X467489Y141320D01*
X467738Y141072D01*
X468063Y140937D01*
X468355Y140742D01*
X468700Y140673D01*
X469024Y140539D01*
X469376D01*
X469720Y140470D01*
X471510D01*
X471746Y140312D01*
X472351Y140192D01*
X477751D01*
X478356Y140312D01*
X478484Y140397D01*
X479500Y139910D01*
Y138850D01*
X490500D01*
Y147236D01*
X490935Y147671D01*
X491468Y148957D01*
Y150350D01*
X490935Y151636D01*
X489950Y152620D01*
X488664Y153153D01*
D02*
G37*
G36*
X240855Y145492D02*
X238258Y145034D01*
X235868Y143919D01*
X233847Y142224D01*
X233382Y141560D01*
X241171Y136106D01*
X246624Y143895D01*
X245960Y144360D01*
X243482Y145262D01*
X240855Y145492D01*
D02*
G37*
G36*
X216696Y140500D02*
X215304D01*
X214017Y139967D01*
X213033Y138983D01*
X212500Y137696D01*
Y136304D01*
X213033Y135017D01*
X214017Y134033D01*
X214467Y133847D01*
X215247Y133067D01*
X214427Y131896D01*
X213951Y131216D01*
X213330Y131085D01*
X212901Y131042D01*
X212603Y131340D01*
X211956Y131987D01*
X210669Y132520D01*
X209277D01*
X207991Y131987D01*
X207006Y131002D01*
X206473Y129716D01*
Y128323D01*
X207006Y127037D01*
X207991Y126053D01*
X208847Y125698D01*
X209305Y124581D01*
X207734Y122337D01*
X217637Y115402D01*
X217347Y114366D01*
X216239Y114294D01*
X206753Y120936D01*
X206621Y121927D01*
Y122584D01*
X206088Y123870D01*
X205103Y124855D01*
X203817Y125387D01*
X202425D01*
X201138Y124855D01*
X200154Y123870D01*
X199621Y122584D01*
Y121191D01*
X200154Y119905D01*
X201138Y118920D01*
X202249Y118460D01*
X202433Y118184D01*
X203841Y116777D01*
X201591Y113564D01*
X213059Y105534D01*
X216710Y110748D01*
X217969Y110830D01*
X218521Y109847D01*
X214818Y104558D01*
X214697Y104386D01*
X214037Y103676D01*
X211717Y103879D01*
X209120Y103421D01*
X206730Y102306D01*
X204710Y100611D01*
X204245Y99947D01*
X212449Y94202D01*
X220654Y88457D01*
X221119Y89121D01*
X222021Y91599D01*
X222251Y94227D01*
X221793Y96824D01*
X220855Y98834D01*
X221661Y99510D01*
X226166Y96356D01*
X226408Y96702D01*
X227729Y96818D01*
X253069Y71478D01*
X253647Y71091D01*
X254330Y70956D01*
X255103D01*
X255305Y69940D01*
X254767Y69717D01*
X253783Y68733D01*
X253250Y67446D01*
Y66054D01*
X253783Y64767D01*
X254767Y63783D01*
X256054Y63250D01*
X257446D01*
X258733Y63783D01*
X259717Y64767D01*
X260250Y66054D01*
Y67446D01*
X259717Y68733D01*
X258733Y69717D01*
X258195Y69940D01*
X258398Y70956D01*
X299823D01*
X318062Y52716D01*
X318160Y52652D01*
X317851Y51635D01*
X239045D01*
X206168Y84513D01*
X206823Y85294D01*
X207493Y84825D01*
X209971Y83923D01*
X212599Y83693D01*
X215196Y84151D01*
X217586Y85266D01*
X219606Y86961D01*
X220071Y87625D01*
X211866Y93370D01*
X203662Y99115D01*
X203197Y98451D01*
X202295Y95972D01*
X202065Y93345D01*
X202523Y90748D01*
X203531Y88586D01*
X202686Y87994D01*
X201070Y89610D01*
X200491Y89997D01*
X199808Y90133D01*
X192984D01*
X192301Y89997D01*
X191722Y89610D01*
X188017Y85906D01*
X187631Y85327D01*
X187495Y84644D01*
Y64238D01*
X184446Y61189D01*
X183087D01*
X181801Y60656D01*
X180816Y59672D01*
X180283Y58385D01*
Y56993D01*
X180816Y55706D01*
X181801Y54722D01*
X183087Y54189D01*
X184479D01*
X185766Y54722D01*
X186750Y55706D01*
X187283Y56993D01*
Y58385D01*
X187109Y58805D01*
X190541Y62237D01*
X190928Y62816D01*
X191063Y63499D01*
Y83905D01*
X193723Y86564D01*
X199069D01*
X237044Y48590D01*
X237623Y48203D01*
X238306Y48067D01*
X352982D01*
X353665Y48203D01*
X354243Y48590D01*
X360954Y55300D01*
X361341Y55879D01*
X361477Y56562D01*
Y61087D01*
X361675Y61169D01*
X362660Y62154D01*
X363192Y63440D01*
Y64833D01*
X362660Y66119D01*
X361675Y67104D01*
X360389Y67636D01*
X358996D01*
X357710Y67104D01*
X356725Y66119D01*
X356193Y64833D01*
Y63440D01*
X356725Y62154D01*
X357710Y61169D01*
X357908Y61087D01*
Y57301D01*
X355899Y55292D01*
X354883Y55713D01*
Y55866D01*
X354350Y57152D01*
X353366Y58137D01*
X352079Y58670D01*
X350687D01*
X349401Y58137D01*
X349294Y58030D01*
X347711Y59613D01*
X347132Y60000D01*
X346449Y60135D01*
X324388D01*
X304762Y79762D01*
X304183Y80148D01*
X303500Y80284D01*
X258413D01*
X232827Y105870D01*
X237471Y112502D01*
X226003Y120532D01*
X221306Y113825D01*
X220839Y114143D01*
X220670Y114215D01*
X220517Y114317D01*
X220458Y114329D01*
X220231Y114644D01*
X220052Y115078D01*
X219999Y115316D01*
X219997Y115442D01*
X224364Y121679D01*
X213473Y129305D01*
Y129716D01*
X213241Y130276D01*
X214085Y130894D01*
X214241Y130855D01*
X214665Y130558D01*
X225345Y123080D01*
X230507Y130452D01*
X219589Y138097D01*
X219153Y138533D01*
X218967Y138983D01*
X217983Y139967D01*
X216696Y140500D01*
D02*
G37*
G36*
X247457Y143312D02*
X242003Y135524D01*
X249792Y130070D01*
X250257Y130734D01*
X251159Y133212D01*
X251388Y135840D01*
X250931Y138437D01*
X249816Y140827D01*
X248121Y142847D01*
X247457Y143312D01*
D02*
G37*
G36*
X675434Y153824D02*
X674042D01*
X672755Y153291D01*
X671771Y152307D01*
X671238Y151020D01*
Y149628D01*
X671771Y148342D01*
X672755Y147357D01*
X672953Y147275D01*
Y143842D01*
X668922D01*
Y129842D01*
X677922D01*
Y143842D01*
X676522D01*
Y147275D01*
X676720Y147357D01*
X677705Y148342D01*
X678238Y149628D01*
Y151020D01*
X677705Y152307D01*
X676720Y153291D01*
X675434Y153824D01*
D02*
G37*
G36*
X546572Y135412D02*
X536572D01*
Y129412D01*
X546572D01*
Y135412D01*
D02*
G37*
G36*
X232800Y140728D02*
X232335Y140064D01*
X231433Y137585D01*
X231203Y134958D01*
X231661Y132361D01*
X232694Y130145D01*
X232146Y129305D01*
X232083Y129215D01*
X226983Y121933D01*
X238451Y113903D01*
X238832Y114446D01*
X239844Y114535D01*
X268391Y85988D01*
X268969Y85602D01*
X269652Y85466D01*
X301011D01*
X324374Y62103D01*
X324952Y61716D01*
X325635Y61581D01*
X347988D01*
X348070Y61382D01*
X349055Y60398D01*
X350341Y59865D01*
X351734D01*
X353020Y60398D01*
X354005Y61382D01*
X354537Y62669D01*
Y64061D01*
X354005Y65347D01*
X353020Y66332D01*
X351734Y66865D01*
X350341D01*
X349055Y66332D01*
X348070Y65347D01*
X347988Y65149D01*
X326374D01*
X303012Y88512D01*
X302433Y88898D01*
X301750Y89034D01*
X270391D01*
X241364Y118062D01*
X243614Y121275D01*
X238884Y124586D01*
X238933Y124790D01*
X239327Y125517D01*
X241736Y125306D01*
X244333Y125764D01*
X246724Y126878D01*
X248744Y128574D01*
X249209Y129238D01*
X241004Y134983D01*
X232800Y140728D01*
D02*
G37*
G36*
X710901Y133858D02*
X710090D01*
Y124350D01*
X719598D01*
Y125161D01*
X718915Y127708D01*
X717597Y129992D01*
X715732Y131857D01*
X713448Y133176D01*
X710901Y133858D01*
D02*
G37*
G36*
X658274D02*
X657463D01*
X654916Y133176D01*
X652632Y131857D01*
X650767Y129992D01*
X649449Y127708D01*
X648766Y125161D01*
Y124350D01*
X658274D01*
Y133858D01*
D02*
G37*
G36*
X737965Y141810D02*
X735535D01*
X733289Y140880D01*
X731570Y139161D01*
X730640Y136915D01*
Y134485D01*
X731570Y132239D01*
X733289Y130520D01*
X734787Y129900D01*
Y128800D01*
X733289Y128180D01*
X731570Y126461D01*
X730640Y124215D01*
Y121785D01*
X731570Y119539D01*
X733289Y117820D01*
X735535Y116890D01*
X737965D01*
X740211Y117820D01*
X741930Y119539D01*
X742860Y121785D01*
Y124215D01*
X741930Y126461D01*
X740211Y128180D01*
X738714Y128800D01*
Y129900D01*
X740211Y130520D01*
X741930Y132239D01*
X742860Y134485D01*
Y136915D01*
X741930Y139161D01*
X740211Y140880D01*
X737965Y141810D01*
D02*
G37*
G36*
X571572Y124912D02*
X561572D01*
Y120928D01*
X561572Y119912D01*
X561572Y119912D01*
X561572Y119912D01*
Y114912D01*
X560852Y114197D01*
X547292D01*
X545610Y115879D01*
X545692Y116077D01*
Y117470D01*
X545159Y118756D01*
X544175Y119741D01*
X542888Y120274D01*
X541496D01*
X540209Y119741D01*
X539225Y118756D01*
X538692Y117470D01*
Y117144D01*
X538143Y116272D01*
X537753Y116272D01*
X536751D01*
X535464Y115739D01*
X534480Y114755D01*
X533947Y113468D01*
Y112076D01*
X534480Y110789D01*
X535464Y109805D01*
X536052Y109562D01*
Y107682D01*
X535152Y107309D01*
X534167Y106324D01*
X533634Y105038D01*
Y103645D01*
X534167Y102359D01*
X535152Y101375D01*
X536052Y101002D01*
Y77250D01*
X534804D01*
X533517Y76717D01*
X532533Y75733D01*
X532000Y74446D01*
Y73054D01*
X532533Y71767D01*
X533517Y70783D01*
X534804Y70250D01*
X536196D01*
X537483Y70783D01*
X538416Y71716D01*
X551341Y58791D01*
X551283Y58733D01*
X550750Y57446D01*
Y56054D01*
X551283Y54767D01*
X552267Y53783D01*
X553494Y53275D01*
X553581Y53198D01*
X554078Y52234D01*
X553705Y51332D01*
Y50035D01*
X553388Y49686D01*
X552879Y49277D01*
X552260Y49534D01*
X550868D01*
X549581Y49001D01*
X548597Y48016D01*
X548064Y46730D01*
Y45338D01*
X548597Y44051D01*
X549581Y43067D01*
X550868Y42534D01*
X552260D01*
X552997Y42839D01*
X553775Y42062D01*
X553692Y41861D01*
Y40469D01*
X554225Y39182D01*
X555209Y38198D01*
X555415Y37013D01*
X554984Y36581D01*
X554451Y35295D01*
Y33903D01*
X554984Y32616D01*
X555969Y31632D01*
X556869Y31259D01*
Y15750D01*
X556304D01*
X555017Y15217D01*
X554033Y14233D01*
X553500Y12946D01*
Y11554D01*
X554033Y10267D01*
X555017Y9283D01*
X556304Y8750D01*
X556869D01*
Y5462D01*
X556278D01*
X554992Y4929D01*
X554008Y3945D01*
X553475Y2658D01*
Y1266D01*
X554008Y-21D01*
X554992Y-1005D01*
X556278Y-1538D01*
X556869D01*
Y-4067D01*
X556338D01*
X555052Y-4600D01*
X554067Y-5585D01*
X553534Y-6871D01*
Y-8264D01*
X554067Y-9550D01*
X555052Y-10535D01*
X556338Y-11068D01*
X556869D01*
Y-20885D01*
X542331D01*
X541648Y-21020D01*
X541069Y-21407D01*
X525145Y-37332D01*
X524946Y-37250D01*
X523554D01*
X522267Y-37783D01*
X521283Y-38767D01*
X520750Y-40054D01*
Y-41446D01*
X521283Y-42733D01*
X522267Y-43717D01*
X523554Y-44250D01*
X524134D01*
X524992Y-44594D01*
X525073Y-45189D01*
Y-46019D01*
X525605Y-47305D01*
X526590Y-48290D01*
X527876Y-48822D01*
X529269D01*
X530555Y-48290D01*
X531540Y-47305D01*
X532072Y-46019D01*
Y-44626D01*
X531990Y-44428D01*
X542046Y-34372D01*
X561572D01*
Y-35088D01*
X561572D01*
Y-40083D01*
X550552D01*
X550232Y-39310D01*
X549247Y-38326D01*
X547961Y-37793D01*
X546568D01*
X545282Y-38326D01*
X544297Y-39310D01*
X543765Y-40597D01*
Y-41432D01*
X534664Y-50533D01*
X534347Y-51298D01*
X534664Y-52064D01*
X537465Y-54865D01*
X537076Y-55803D01*
X530077D01*
X511633Y-37360D01*
X511054Y-36973D01*
X510371Y-36837D01*
X507893D01*
X507857Y-36750D01*
X506873Y-35765D01*
X505586Y-35232D01*
X504194D01*
X502907Y-35765D01*
X501923Y-36750D01*
X501390Y-38036D01*
Y-39429D01*
X501923Y-40715D01*
X502907Y-41700D01*
X504194Y-42232D01*
X505586D01*
X506873Y-41700D01*
X507857Y-40715D01*
X507892Y-40632D01*
X508924Y-40585D01*
X508943Y-40614D01*
X508562Y-41872D01*
X508086Y-42069D01*
X507101Y-43053D01*
X506568Y-44340D01*
Y-45732D01*
X507101Y-47019D01*
X508086Y-48003D01*
X509372Y-48536D01*
X510764D01*
X510963Y-48454D01*
X526358Y-63850D01*
X526937Y-64236D01*
X527620Y-64372D01*
X533950D01*
Y-69252D01*
X533767Y-69327D01*
X532783Y-70312D01*
X532250Y-71598D01*
Y-72991D01*
X532783Y-74277D01*
X533156Y-74650D01*
X532735Y-75666D01*
X529190D01*
X500013Y-46489D01*
Y103669D01*
X500754D01*
X502040Y104202D01*
X503025Y105187D01*
X503558Y106473D01*
Y107865D01*
X503025Y109152D01*
X502040Y110136D01*
X500754Y110669D01*
X499361D01*
X498075Y110136D01*
X497969Y110030D01*
X496998Y110289D01*
X496745Y111196D01*
X496843Y111294D01*
X497376Y112580D01*
Y113973D01*
X496843Y115259D01*
X495858Y116244D01*
X494572Y116777D01*
X493180D01*
X491893Y116244D01*
X490909Y115259D01*
X490376Y113973D01*
Y112580D01*
X490909Y111294D01*
X491655Y110548D01*
Y-50689D01*
X491790Y-51372D01*
X492177Y-51950D01*
X524076Y-83849D01*
X524655Y-84236D01*
X525338Y-84372D01*
X556209D01*
X556411Y-85388D01*
X555578Y-85733D01*
X554594Y-86718D01*
X554061Y-88004D01*
Y-89396D01*
X554594Y-90683D01*
X555578Y-91667D01*
X556864Y-92200D01*
X558257D01*
X559543Y-91667D01*
X560528Y-90683D01*
X560556Y-90615D01*
X561572Y-90817D01*
X561572Y-95021D01*
X561572Y-96104D01*
Y-110072D01*
X561556D01*
Y-112080D01*
X566572D01*
Y-113096D01*
X561556D01*
Y-115072D01*
X561556D01*
Y-117080D01*
X566572D01*
Y-118096D01*
X561556D01*
Y-120104D01*
X561572D01*
Y-125088D01*
X566326D01*
X566572Y-125137D01*
X575053D01*
X576028Y-124943D01*
X576855Y-124390D01*
X585302Y-115943D01*
X585855Y-115116D01*
X586049Y-114141D01*
Y-108235D01*
X586807Y-107477D01*
X587950Y-107410D01*
X592053Y-111513D01*
X597003Y-106564D01*
X592619Y-102179D01*
X592619D01*
X591700Y-101946D01*
X591486Y-101875D01*
X591238Y-101504D01*
X587420Y-97686D01*
X587183Y-97528D01*
X586944Y-96589D01*
X586957Y-96318D01*
X587779Y-95496D01*
X588050Y-95483D01*
X588989Y-95722D01*
X589147Y-95957D01*
X592965Y-99776D01*
X593478Y-100119D01*
X594083Y-100239D01*
X594688Y-100119D01*
X595166Y-99799D01*
X596915Y-101549D01*
X599401Y-99062D01*
X601888Y-96576D01*
X600043Y-94732D01*
X600043D01*
X598886Y-94608D01*
X598500Y-94106D01*
Y-92713D01*
X597967Y-91427D01*
X596983Y-90442D01*
X595696Y-89909D01*
X594802D01*
X594381Y-88893D01*
X604947Y-78328D01*
X605996Y-76757D01*
X606365Y-74903D01*
Y-54231D01*
X609811Y-50785D01*
X610995Y-51038D01*
X611283Y-51733D01*
X612267Y-52717D01*
X613554Y-53250D01*
X614946D01*
X616233Y-52717D01*
X617217Y-51733D01*
X617299Y-51534D01*
X657174D01*
Y-51742D01*
X657294Y-52347D01*
X657637Y-52860D01*
X658150Y-53202D01*
X658754Y-53323D01*
X664154D01*
X664759Y-53202D01*
X665272Y-52860D01*
X665614Y-52347D01*
X665735Y-51742D01*
Y-50010D01*
X694287D01*
X704000Y-59723D01*
Y-65700D01*
X714500D01*
Y-59200D01*
X707693D01*
Y-59109D01*
X707558Y-58426D01*
X707171Y-57847D01*
X696288Y-46965D01*
X695709Y-46578D01*
X695026Y-46442D01*
X665417D01*
X665272Y-46225D01*
X664759Y-45882D01*
X664154Y-45762D01*
X658754D01*
X658150Y-45882D01*
X657637Y-46225D01*
X657294Y-46737D01*
X657174Y-47342D01*
Y-47966D01*
X617299D01*
X617217Y-47767D01*
X616233Y-46783D01*
X615538Y-46495D01*
X615285Y-45311D01*
X619947Y-40649D01*
X620996Y-39078D01*
X621365Y-37225D01*
Y-33068D01*
X638272D01*
Y-26161D01*
X648467D01*
X648552Y-26288D01*
X649181Y-26707D01*
X649922Y-26855D01*
X662122D01*
X662863Y-26707D01*
X663492Y-26288D01*
X663577Y-26161D01*
X667522D01*
Y-31318D01*
X681022D01*
Y-11318D01*
X667522D01*
Y-16475D01*
X663577D01*
X663492Y-16348D01*
X662863Y-15928D01*
X662122Y-15781D01*
X649922D01*
X649181Y-15928D01*
X648552Y-16348D01*
X648467Y-16475D01*
X638272D01*
Y-7568D01*
X611772D01*
Y-27850D01*
X611679Y-28318D01*
Y-35219D01*
X598097Y-48800D01*
X597716Y-49372D01*
X596425Y-49475D01*
X595983Y-49033D01*
X594696Y-48500D01*
X593304D01*
X592017Y-49033D01*
X591033Y-50017D01*
X590500Y-51304D01*
Y-52696D01*
X591033Y-53983D01*
X592017Y-54967D01*
X593304Y-55500D01*
X594696D01*
X595663Y-55100D01*
X596679Y-55598D01*
Y-67592D01*
X586236D01*
X585837Y-67426D01*
X584493D01*
X584370Y-67291D01*
X583952Y-66530D01*
X584489Y-65993D01*
X584876Y-65414D01*
X585012Y-64731D01*
Y-51015D01*
X605838Y-30189D01*
X606224Y-29610D01*
X606360Y-28927D01*
Y5192D01*
X606224Y5875D01*
X605838Y6454D01*
X604020Y8271D01*
Y9257D01*
X603487Y10543D01*
X602502Y11528D01*
X601216Y12060D01*
X599823D01*
X598742Y11612D01*
X597726Y12044D01*
Y37388D01*
X598742Y37808D01*
X599017Y37533D01*
X600304Y37000D01*
X601696D01*
X602983Y37533D01*
X603967Y38517D01*
X604500Y39804D01*
Y41196D01*
X603967Y42483D01*
X602983Y43467D01*
X602534Y43653D01*
Y45000D01*
X602398Y45683D01*
X602012Y46262D01*
X595303Y52970D01*
X595581Y54130D01*
X596334Y54442D01*
X597319Y55426D01*
X597852Y56713D01*
Y58105D01*
X597319Y59391D01*
X596334Y60376D01*
X595048Y60909D01*
X593655D01*
X593457Y60827D01*
X587494Y66790D01*
X587915Y67806D01*
X588651D01*
X589937Y68339D01*
X590922Y69323D01*
X591455Y70610D01*
Y72002D01*
X590922Y73288D01*
X590826Y73384D01*
Y77536D01*
X591726Y77909D01*
X592710Y78893D01*
X593243Y80180D01*
Y81572D01*
X592710Y82859D01*
X591749Y83821D01*
Y103343D01*
X591613Y104026D01*
X591226Y104605D01*
X579751Y116080D01*
X580088Y117180D01*
X580983Y117551D01*
X581967Y118536D01*
X582500Y119822D01*
Y121215D01*
X581967Y122501D01*
X580983Y123485D01*
X579697Y124018D01*
X578304D01*
X577018Y123485D01*
X576033Y122501D01*
X575662Y121606D01*
X574562Y121270D01*
X572836Y122995D01*
X572258Y123381D01*
X571575Y123517D01*
X571572D01*
Y124912D01*
D02*
G37*
G36*
X660101Y133858D02*
X659290D01*
Y123842D01*
Y113826D01*
X660101D01*
X662648Y114509D01*
X664932Y115827D01*
X666797Y117692D01*
X667906Y119614D01*
X668922Y119341D01*
Y113842D01*
X677922D01*
Y127842D01*
X669131D01*
X668922Y127842D01*
X667961Y127975D01*
X666797Y129992D01*
X664932Y131857D01*
X662648Y133176D01*
X660101Y133858D01*
D02*
G37*
G36*
X719598Y123334D02*
X710090D01*
Y113826D01*
X710901D01*
X713448Y114509D01*
X715732Y115827D01*
X717597Y117692D01*
X718915Y119976D01*
X719598Y122524D01*
Y123334D01*
D02*
G37*
G36*
X658274D02*
X648766D01*
Y122524D01*
X649449Y119976D01*
X650767Y117692D01*
X652632Y115827D01*
X654916Y114509D01*
X657463Y113826D01*
X658274D01*
Y123334D01*
D02*
G37*
G36*
X626022Y141947D02*
X611022D01*
X607237Y141449D01*
X603709Y139988D01*
X600681Y137664D01*
X598356Y134635D01*
X596895Y131108D01*
X596397Y127322D01*
X596895Y123537D01*
X598356Y120010D01*
X600681Y116981D01*
X603709Y114656D01*
X607237Y113195D01*
X611022Y112697D01*
X626022D01*
X629807Y113195D01*
X633335Y114656D01*
X636363Y116981D01*
X638688Y120010D01*
X640149Y123537D01*
X640647Y127322D01*
X640149Y131108D01*
X638688Y134635D01*
X636363Y137664D01*
X633335Y139988D01*
X629807Y141449D01*
X626022Y141947D01*
D02*
G37*
G36*
X355812D02*
X340812D01*
X337027Y141449D01*
X333499Y139988D01*
X330471Y137664D01*
X328146Y134635D01*
X326685Y131108D01*
X326187Y127322D01*
X326685Y123537D01*
X328146Y120010D01*
X330471Y116981D01*
X333499Y114656D01*
X337027Y113195D01*
X340812Y112697D01*
X355812D01*
X359597Y113195D01*
X363125Y114656D01*
X366153Y116981D01*
X368478Y120010D01*
X369939Y123537D01*
X370437Y127322D01*
X369939Y131108D01*
X368478Y134635D01*
X366153Y137664D01*
X363125Y139988D01*
X359597Y141449D01*
X355812Y141947D01*
D02*
G37*
G36*
X184696Y116000D02*
X183304D01*
X182017Y115467D01*
X181033Y114483D01*
X180500Y113196D01*
Y111804D01*
X181033Y110517D01*
X182017Y109533D01*
X183304Y109000D01*
X184696D01*
X185983Y109533D01*
X186967Y110517D01*
X187500Y111804D01*
Y113196D01*
X186967Y114483D01*
X185983Y115467D01*
X184696Y116000D01*
D02*
G37*
G36*
X693437Y161534D02*
X559500D01*
X558817Y161399D01*
X558238Y161012D01*
X543361Y146134D01*
X507500D01*
Y149850D01*
X496500D01*
Y138850D01*
X507500D01*
Y142566D01*
X544100D01*
X544783Y142702D01*
X545362Y143088D01*
X560239Y157966D01*
X692698D01*
X724966Y125698D01*
Y118773D01*
X725101Y118090D01*
X725488Y117512D01*
X731262Y111738D01*
X731841Y111351D01*
X732523Y111216D01*
X739316D01*
X739681Y110335D01*
X740666Y109350D01*
X741952Y108817D01*
X743345D01*
X744631Y109350D01*
X745616Y110335D01*
X746148Y111621D01*
Y113013D01*
X745616Y114300D01*
X744631Y115284D01*
X743345Y115817D01*
X741952D01*
X740666Y115284D01*
X740166Y114784D01*
X733262D01*
X728534Y119512D01*
Y126437D01*
X728399Y127120D01*
X728012Y127699D01*
X694699Y161012D01*
X694120Y161399D01*
X693437Y161534D01*
D02*
G37*
G36*
X401209Y112924D02*
X399817D01*
X398531Y112391D01*
X397546Y111407D01*
X397013Y110120D01*
Y108728D01*
X397546Y107442D01*
X398531Y106457D01*
X399817Y105924D01*
X401209D01*
X402496Y106457D01*
X403480Y107442D01*
X404013Y108728D01*
Y110120D01*
X403480Y111407D01*
X402496Y112391D01*
X401209Y112924D01*
D02*
G37*
G36*
X280696Y119000D02*
X279304D01*
X278017Y118467D01*
X277033Y117483D01*
X276500Y116196D01*
Y114804D01*
X277033Y113517D01*
X278017Y112533D01*
X279304Y112000D01*
X280696D01*
X280895Y112082D01*
X289494Y103483D01*
X290061Y103104D01*
X290441Y102188D01*
X291425Y101203D01*
X292712Y100670D01*
X294104D01*
X295390Y101203D01*
X296375Y102188D01*
X296908Y103474D01*
Y104867D01*
X296375Y106153D01*
X295390Y107137D01*
X294104Y107670D01*
X292712D01*
X291425Y107137D01*
X291155Y106868D01*
X283418Y114606D01*
X283500Y114804D01*
Y116196D01*
X282967Y117483D01*
X281983Y118467D01*
X280696Y119000D01*
D02*
G37*
G36*
X680220Y102722D02*
X678827D01*
X677541Y102189D01*
X676556Y101205D01*
X676023Y99918D01*
Y98526D01*
X676556Y97240D01*
X677541Y96255D01*
X678827Y95722D01*
X680220D01*
X681506Y96255D01*
X682491Y97240D01*
X683023Y98526D01*
Y99918D01*
X682491Y101205D01*
X681506Y102189D01*
X680220Y102722D01*
D02*
G37*
G36*
X653667Y97845D02*
X652274D01*
X650988Y97312D01*
X650003Y96327D01*
X649471Y95041D01*
Y93649D01*
X650003Y92362D01*
X650988Y91378D01*
X652274Y90845D01*
X653667D01*
X654953Y91378D01*
X655938Y92362D01*
X656470Y93649D01*
Y95041D01*
X655938Y96327D01*
X654953Y97312D01*
X653667Y97845D01*
D02*
G37*
G36*
X167965Y96079D02*
X166573D01*
X165286Y95546D01*
X164302Y94562D01*
X163769Y93275D01*
Y91883D01*
X164302Y90596D01*
X165286Y89612D01*
X166573Y89079D01*
X167965D01*
X169252Y89612D01*
X170236Y90596D01*
X170769Y91883D01*
Y93275D01*
X170236Y94562D01*
X169252Y95546D01*
X167965Y96079D01*
D02*
G37*
G36*
X767246Y90029D02*
X765554D01*
Y86240D01*
X768842D01*
Y88432D01*
X768721Y89043D01*
X768375Y89561D01*
X767857Y89908D01*
X767246Y90029D01*
D02*
G37*
G36*
X764538D02*
X762846D01*
X762235Y89908D01*
X761717Y89561D01*
X761371Y89043D01*
X761249Y88432D01*
Y86240D01*
X764538D01*
Y90029D01*
D02*
G37*
G36*
X815250Y90014D02*
X810850D01*
X810245Y89894D01*
X809733Y89551D01*
X809390Y89038D01*
X809270Y88434D01*
Y83034D01*
X809289Y82938D01*
X808599Y81922D01*
X807497D01*
X806807Y82938D01*
X806826Y83032D01*
Y88432D01*
X806706Y89037D01*
X806363Y89550D01*
X805851Y89893D01*
X805246Y90013D01*
X800846D01*
X800241Y89893D01*
X799728Y89550D01*
X799386Y89037D01*
X799266Y88432D01*
Y88282D01*
X797830D01*
Y88434D01*
X797710Y89038D01*
X797367Y89551D01*
X796855Y89894D01*
X796250Y90014D01*
X791850D01*
X791245Y89894D01*
X790733Y89551D01*
X790390Y89038D01*
X790270Y88434D01*
Y83034D01*
X790390Y82429D01*
X790733Y81916D01*
X791245Y81573D01*
X791850Y81453D01*
X792825D01*
X793246Y80437D01*
X791982Y79173D01*
X791665Y78407D01*
Y64652D01*
X791982Y63886D01*
X791982Y63886D01*
X802951Y52917D01*
X803717Y52600D01*
X878022Y52600D01*
X878787Y52917D01*
X880787Y54917D01*
X881104Y55682D01*
Y70682D01*
X880787Y71448D01*
X880787Y71448D01*
X876787Y75448D01*
X876022Y75765D01*
X821470D01*
X816471Y80764D01*
X816367Y81916D01*
X816710Y82429D01*
X816830Y83034D01*
Y88434D01*
X816710Y89038D01*
X816367Y89551D01*
X815855Y89894D01*
X815250Y90014D01*
D02*
G37*
G36*
X768842Y85224D02*
X765554D01*
Y81436D01*
X767246D01*
X767857Y81557D01*
X768375Y81903D01*
X768721Y82421D01*
X768842Y83032D01*
Y85224D01*
D02*
G37*
G36*
X889406Y92669D02*
X881617Y87216D01*
X887071Y79427D01*
X887735Y79892D01*
X889430Y81912D01*
X890545Y84302D01*
X891003Y86900D01*
X890773Y89527D01*
X889871Y92005D01*
X889406Y92669D01*
D02*
G37*
G36*
X922345Y85515D02*
X920952D01*
X919666Y84982D01*
X918681Y83998D01*
X918148Y82711D01*
Y81319D01*
X918681Y80032D01*
X919666Y79048D01*
X920952Y78515D01*
X922345D01*
X923631Y79048D01*
X924616Y80032D01*
X925148Y81319D01*
Y82711D01*
X924616Y83998D01*
X923631Y84982D01*
X922345Y85515D01*
D02*
G37*
G36*
X880785Y86633D02*
X872996Y81179D01*
X873461Y80515D01*
X875482Y78820D01*
X877872Y77705D01*
X880469Y77247D01*
X883096Y77477D01*
X885574Y78379D01*
X886238Y78844D01*
X880785Y86633D01*
D02*
G37*
G36*
X666696Y82500D02*
X665304D01*
X664017Y81967D01*
X663033Y80983D01*
X662500Y79696D01*
Y78304D01*
X663033Y77017D01*
X664017Y76033D01*
X665304Y75500D01*
X666696D01*
X667983Y76033D01*
X668967Y77017D01*
X669500Y78304D01*
Y79696D01*
X668967Y80983D01*
X667983Y81967D01*
X666696Y82500D01*
D02*
G37*
G36*
X357987Y77505D02*
X356595D01*
X355308Y76972D01*
X354324Y75988D01*
X353791Y74701D01*
Y73309D01*
X354324Y72022D01*
X355308Y71038D01*
X356595Y70505D01*
X357987D01*
X359273Y71038D01*
X360258Y72022D01*
X360791Y73309D01*
Y74701D01*
X360258Y75988D01*
X359273Y76972D01*
X357987Y77505D01*
D02*
G37*
G36*
X764538Y85224D02*
X761249D01*
Y83032D01*
X761371Y82421D01*
X761717Y81903D01*
X762235Y81557D01*
X762846Y81436D01*
X762828Y80427D01*
X755722D01*
Y70259D01*
X750273D01*
X750232Y70463D01*
X749890Y70976D01*
X749377Y71318D01*
X748772Y71439D01*
X743372D01*
X742767Y71318D01*
X742255Y70976D01*
X742137Y70799D01*
X742093Y70783D01*
X741052D01*
X741008Y70799D01*
X740890Y70976D01*
X740377Y71318D01*
X739772Y71439D01*
X734372D01*
X733767Y71318D01*
X733255Y70976D01*
X733103Y70749D01*
X732831Y70684D01*
X732128Y70703D01*
X731974Y70749D01*
X731788Y71028D01*
X731275Y71370D01*
X730671Y71491D01*
X725271D01*
X724666Y71370D01*
X724153Y71028D01*
X723811Y70515D01*
X723690Y69910D01*
Y65510D01*
X723811Y64905D01*
X724153Y64393D01*
X724666Y64050D01*
X725271Y63930D01*
X730671D01*
X731275Y64050D01*
X731788Y64393D01*
X731940Y64619D01*
X732212Y64685D01*
X732915Y64666D01*
X733069Y64619D01*
X733255Y64341D01*
X733767Y63998D01*
X734372Y63878D01*
X734812D01*
X735051Y63033D01*
X735059Y62862D01*
X734106Y61909D01*
X733868Y61334D01*
X733768Y61314D01*
X733256Y60972D01*
X733114Y60759D01*
X732870Y60698D01*
X732104Y60721D01*
X731985Y60759D01*
X731801Y61035D01*
X731283Y61381D01*
X730672Y61503D01*
X728480D01*
Y57706D01*
X727972D01*
Y57198D01*
X723675D01*
Y55506D01*
X723683Y55464D01*
X722966Y54448D01*
X716756D01*
Y42190D01*
X743288D01*
Y53390D01*
Y53804D01*
X743373Y53874D01*
X748773D01*
X749378Y53994D01*
X749891Y54337D01*
X750233Y54849D01*
X750354Y55454D01*
Y59854D01*
X750233Y60459D01*
X749891Y60972D01*
X749378Y61314D01*
X748773Y61434D01*
X743373D01*
X742768Y61314D01*
X742256Y60972D01*
X742138Y60795D01*
X742094Y60779D01*
X741053D01*
X741009Y60795D01*
X740891Y60972D01*
X740378Y61314D01*
X740279Y61334D01*
X740041Y61909D01*
X739088Y62862D01*
X739095Y63033D01*
X739335Y63878D01*
X739772D01*
X740377Y63998D01*
X740890Y64341D01*
X741008Y64518D01*
X741052Y64534D01*
X742093D01*
X742137Y64518D01*
X742255Y64341D01*
X742767Y63998D01*
X743372Y63878D01*
X748772D01*
X749377Y63998D01*
X749890Y64341D01*
X750232Y64854D01*
X750294Y65161D01*
X755722D01*
Y63177D01*
X764222D01*
Y80420D01*
X764222Y80427D01*
X764240Y81436D01*
X764538D01*
Y85224D01*
D02*
G37*
G36*
X339177Y76905D02*
X337785D01*
X336498Y76372D01*
X335514Y75388D01*
X334981Y74101D01*
Y72709D01*
X335514Y71422D01*
X336498Y70438D01*
X337785Y69905D01*
X339177D01*
X340463Y70438D01*
X341448Y71422D01*
X341981Y72709D01*
Y74101D01*
X341448Y75388D01*
X340463Y76372D01*
X339177Y76905D01*
D02*
G37*
G36*
X241446Y76250D02*
X240054D01*
X238767Y75717D01*
X237783Y74733D01*
X237250Y73446D01*
Y72054D01*
X237783Y70767D01*
X238767Y69783D01*
X240054Y69250D01*
X241446D01*
X242733Y69783D01*
X243717Y70767D01*
X244250Y72054D01*
Y73446D01*
X243717Y74733D01*
X242733Y75717D01*
X241446Y76250D01*
D02*
G37*
G36*
X786246Y90013D02*
X781846D01*
X781241Y89893D01*
X780728Y89550D01*
X780386Y89037D01*
X780266Y88432D01*
Y83032D01*
X780386Y82428D01*
X780728Y81915D01*
X781241Y81572D01*
X781846Y81452D01*
X782823D01*
Y80427D01*
X781122D01*
Y63177D01*
X789622D01*
Y80427D01*
X787921D01*
Y83906D01*
X787826Y84383D01*
Y88432D01*
X787706Y89037D01*
X787363Y89550D01*
X786851Y89893D01*
X786246Y90013D01*
D02*
G37*
G36*
X777250Y90014D02*
X772850D01*
X772245Y89894D01*
X771732Y89551D01*
X771390Y89038D01*
X771270Y88434D01*
Y85058D01*
X770870Y84658D01*
X770317Y83831D01*
X770123Y82856D01*
Y80427D01*
X768422D01*
Y63177D01*
X776922D01*
Y80427D01*
X775221D01*
Y81453D01*
X777250D01*
X777855Y81573D01*
X778367Y81916D01*
X778710Y82429D01*
X778830Y83034D01*
Y88434D01*
X778710Y89038D01*
X778367Y89551D01*
X777855Y89894D01*
X777250Y90014D01*
D02*
G37*
G36*
X101207Y69342D02*
X99815D01*
X98528Y68809D01*
X97543Y67825D01*
X97011Y66538D01*
Y65146D01*
X97543Y63860D01*
X98528Y62875D01*
X99815Y62342D01*
X101207D01*
X102493Y62875D01*
X103478Y63860D01*
X104011Y65146D01*
Y66538D01*
X103478Y67825D01*
X102493Y68809D01*
X101207Y69342D01*
D02*
G37*
G36*
X899696Y66500D02*
X898304D01*
X897017Y65967D01*
X896033Y64983D01*
X895500Y63696D01*
Y62304D01*
X896033Y61017D01*
X897017Y60033D01*
X898304Y59500D01*
X899696D01*
X900983Y60033D01*
X901967Y61017D01*
X902500Y62304D01*
Y63696D01*
X901967Y64983D01*
X900983Y65967D01*
X899696Y66500D01*
D02*
G37*
G36*
X727464Y61503D02*
X725272D01*
X724661Y61381D01*
X724143Y61035D01*
X723797Y60517D01*
X723675Y59906D01*
Y58214D01*
X727464D01*
Y61503D01*
D02*
G37*
G36*
X659913Y64513D02*
X658521D01*
X657235Y63980D01*
X656250Y62995D01*
X655717Y61709D01*
Y60317D01*
X656250Y59030D01*
X657235Y58046D01*
X658521Y57513D01*
X659913D01*
X661200Y58046D01*
X662184Y59030D01*
X662717Y60317D01*
Y61709D01*
X662184Y62995D01*
X661200Y63980D01*
X659913Y64513D01*
D02*
G37*
G36*
X643235Y63555D02*
X641842D01*
X640556Y63023D01*
X639571Y62038D01*
X639039Y60752D01*
Y59359D01*
X639571Y58073D01*
X640556Y57088D01*
X641842Y56555D01*
X643235D01*
X644521Y57088D01*
X645506Y58073D01*
X646039Y59359D01*
Y60752D01*
X645506Y62038D01*
X644521Y63023D01*
X643235Y63555D01*
D02*
G37*
G36*
X795538Y58698D02*
X779530D01*
Y45190D01*
X795538D01*
Y58698D01*
D02*
G37*
G36*
X778514D02*
X762506D01*
Y45190D01*
X778514D01*
Y58698D01*
D02*
G37*
G36*
X675946Y49250D02*
X674554D01*
X673267Y48717D01*
X672283Y47733D01*
X671750Y46446D01*
Y45054D01*
X672283Y43767D01*
X673267Y42783D01*
X674554Y42250D01*
X675946D01*
X677233Y42783D01*
X678217Y43767D01*
X678750Y45054D01*
Y46446D01*
X678217Y47733D01*
X677233Y48717D01*
X675946Y49250D01*
D02*
G37*
G36*
X638288Y54448D02*
X625530D01*
Y42190D01*
X638288D01*
Y54448D01*
D02*
G37*
G36*
X624514D02*
X611756D01*
Y42190D01*
X624514D01*
Y54448D01*
D02*
G37*
G36*
X402554Y99727D02*
X401161D01*
X399875Y99194D01*
X398890Y98210D01*
X398358Y96923D01*
Y95531D01*
X398890Y94245D01*
X399875Y93260D01*
X400073Y93178D01*
Y77097D01*
X359708Y36731D01*
X238825D01*
X238142Y36596D01*
X237563Y36209D01*
X214889Y13534D01*
X133989D01*
X126284Y21239D01*
Y37164D01*
X132625Y43505D01*
X142089D01*
X142772Y43641D01*
X143351Y44028D01*
X147539Y48216D01*
X166689D01*
X169767Y45138D01*
X169367Y44174D01*
Y42781D01*
X169900Y41495D01*
X170885Y40510D01*
X172171Y39978D01*
X173563D01*
X174850Y40510D01*
X175834Y41495D01*
X176367Y42781D01*
Y44174D01*
X175834Y45460D01*
X174850Y46445D01*
X173563Y46978D01*
X172974D01*
X168689Y51262D01*
X168111Y51649D01*
X167428Y51784D01*
X146800D01*
X146117Y51649D01*
X145538Y51262D01*
X141350Y47073D01*
X131886D01*
X131203Y46938D01*
X130624Y46551D01*
X123238Y39165D01*
X122851Y38586D01*
X122716Y37903D01*
Y20500D01*
X122851Y19817D01*
X123238Y19238D01*
X131988Y10488D01*
X132567Y10101D01*
X133250Y9966D01*
X215628D01*
X216311Y10101D01*
X216890Y10488D01*
X239564Y33163D01*
X360447D01*
X361130Y33299D01*
X361709Y33686D01*
X403119Y75096D01*
X403506Y75675D01*
X403642Y76357D01*
Y93178D01*
X403840Y93260D01*
X404825Y94245D01*
X405358Y95531D01*
Y96923D01*
X404825Y98210D01*
X403840Y99194D01*
X402554Y99727D01*
D02*
G37*
G36*
X386802Y88407D02*
X385410D01*
X384123Y87874D01*
X383139Y86889D01*
X382606Y85603D01*
Y84210D01*
X383139Y82924D01*
X384123Y81939D01*
X384322Y81857D01*
Y68095D01*
X357769Y41542D01*
X235008D01*
X234325Y41406D01*
X233746Y41020D01*
X211261Y18534D01*
X143682D01*
X132790Y29426D01*
Y35128D01*
X134974Y37313D01*
X160384D01*
X161067Y37448D01*
X161646Y37835D01*
X163665Y39855D01*
X163864Y39773D01*
X165256D01*
X166542Y40306D01*
X167527Y41290D01*
X168060Y42576D01*
Y43969D01*
X167527Y45255D01*
X166542Y46240D01*
X165256Y46773D01*
X163864D01*
X162577Y46240D01*
X161593Y45255D01*
X161060Y43969D01*
Y42576D01*
X161142Y42378D01*
X159645Y40881D01*
X134235D01*
X133552Y40745D01*
X132974Y40358D01*
X129744Y37129D01*
X129357Y36550D01*
X129221Y35867D01*
Y28687D01*
X129357Y28004D01*
X129744Y27425D01*
X141681Y15488D01*
X142260Y15101D01*
X142943Y14966D01*
X212000D01*
X212683Y15101D01*
X213262Y15488D01*
X235747Y37974D01*
X358508D01*
X359191Y38109D01*
X359770Y38496D01*
X387368Y66094D01*
X387754Y66673D01*
X387890Y67356D01*
Y81857D01*
X388088Y81939D01*
X389073Y82924D01*
X389606Y84210D01*
Y85603D01*
X389073Y86889D01*
X388088Y87874D01*
X386802Y88407D01*
D02*
G37*
G36*
X812773Y51434D02*
X807373D01*
X806768Y51314D01*
X806256Y50972D01*
X805913Y50459D01*
X805793Y49854D01*
Y45454D01*
X805913Y44849D01*
X806256Y44337D01*
X806255Y43976D01*
X805912Y43463D01*
X805792Y42858D01*
Y38458D01*
X805912Y37854D01*
X806255Y37341D01*
X806767Y36998D01*
X807372Y36878D01*
X812772D01*
X813377Y36998D01*
X813890Y37341D01*
X814232Y37854D01*
X814353Y38458D01*
Y42858D01*
X814232Y43463D01*
X813890Y43976D01*
X813891Y44337D01*
X814233Y44849D01*
X814354Y45454D01*
Y49854D01*
X814233Y50459D01*
X813891Y50972D01*
X813378Y51314D01*
X812773Y51434D01*
D02*
G37*
G36*
X812773Y34451D02*
X810581D01*
Y31162D01*
X814370D01*
Y32854D01*
X814249Y33465D01*
X813902Y33983D01*
X813384Y34329D01*
X812773Y34451D01*
D02*
G37*
G36*
X809565D02*
X807373D01*
X806762Y34329D01*
X806244Y33983D01*
X805898Y33465D01*
X805777Y32854D01*
Y31162D01*
X809565D01*
Y34451D01*
D02*
G37*
G36*
X795538Y44174D02*
X779530D01*
Y30666D01*
X795538D01*
Y44174D01*
D02*
G37*
G36*
X778514D02*
X762506D01*
Y30666D01*
X778514D01*
Y44174D01*
D02*
G37*
G36*
X743288Y41174D02*
X730530D01*
Y28916D01*
X743288D01*
Y29948D01*
Y41174D01*
D02*
G37*
G36*
X729514D02*
X716756D01*
Y28916D01*
X729514D01*
Y41174D01*
D02*
G37*
G36*
X638288D02*
X625530D01*
Y28916D01*
X638288D01*
Y41174D01*
D02*
G37*
G36*
X624514D02*
X611756D01*
Y28916D01*
X624514D01*
Y41174D01*
D02*
G37*
G36*
X197948Y83664D02*
X197302D01*
X196521Y83509D01*
X196521Y83509D01*
X195924Y83262D01*
X195263Y82819D01*
X194805Y82362D01*
X194363Y81701D01*
X194116Y81103D01*
X193961Y80323D01*
Y53095D01*
X176905Y36039D01*
X137177D01*
X136396Y35884D01*
X136396Y35884D01*
X135799Y35637D01*
X135138Y35194D01*
X134680Y34737D01*
X134238Y34076D01*
X133991Y33479D01*
X133836Y32698D01*
Y32052D01*
X133991Y31272D01*
X134238Y30674D01*
X134680Y30013D01*
X135138Y29555D01*
X135799Y29113D01*
X136397Y28866D01*
X137177Y28711D01*
X137500D01*
X167754Y28709D01*
X178925Y28708D01*
X178926Y28708D01*
X178926Y28708D01*
X178997D01*
X178997Y28707D01*
X179777Y28863D01*
X180439Y29305D01*
X180439Y29305D01*
X200692Y49558D01*
X201134Y50220D01*
X201289Y51000D01*
Y80000D01*
X201289Y80000D01*
Y80323D01*
X201134Y81104D01*
X201134Y81104D01*
X200887Y81701D01*
X200445Y82362D01*
X199987Y82819D01*
X199326Y83262D01*
X198729Y83509D01*
X197948Y83664D01*
D02*
G37*
G36*
X814370Y30146D02*
X810581D01*
Y26858D01*
X812773D01*
X813384Y26979D01*
X813902Y27325D01*
X814249Y27843D01*
X814370Y28454D01*
Y30146D01*
D02*
G37*
G36*
X809565D02*
X805777D01*
Y28454D01*
X805898Y27843D01*
X806244Y27325D01*
X806762Y26979D01*
X807373Y26858D01*
X809565D01*
Y30146D01*
D02*
G37*
G36*
X368472Y66454D02*
X367079D01*
X365793Y65921D01*
X364808Y64936D01*
X364276Y63650D01*
Y62258D01*
X364808Y60971D01*
X365417Y60362D01*
Y57832D01*
X353802Y46217D01*
X227972D01*
X227289Y46081D01*
X226710Y45694D01*
X206330Y25314D01*
X151304D01*
X151246Y25454D01*
X150261Y26438D01*
X148975Y26971D01*
X147583D01*
X146296Y26438D01*
X145312Y25454D01*
X144779Y24167D01*
Y22775D01*
X145312Y21488D01*
X146296Y20504D01*
X147583Y19971D01*
X148975D01*
X150261Y20504D01*
X151246Y21488D01*
X151353Y21745D01*
X207069D01*
X207752Y21881D01*
X208331Y22268D01*
X228711Y42648D01*
X354541D01*
X355224Y42784D01*
X355803Y43171D01*
X368463Y55831D01*
X368850Y56410D01*
X368986Y57093D01*
Y59667D01*
X369758Y59987D01*
X370743Y60971D01*
X371276Y62258D01*
Y63650D01*
X370743Y64936D01*
X369758Y65921D01*
X368472Y66454D01*
D02*
G37*
G36*
X789622Y26187D02*
X781122D01*
Y19751D01*
X781022Y19601D01*
X776922D01*
Y26187D01*
X768422D01*
Y8937D01*
X776922D01*
Y15523D01*
X780529D01*
Y3631D01*
Y-8281D01*
X780422D01*
X779681Y-8428D01*
X779052Y-8848D01*
X778632Y-9477D01*
X778485Y-10218D01*
Y-22418D01*
X778632Y-23159D01*
X779052Y-23788D01*
Y-24848D01*
X778632Y-25477D01*
X778485Y-26218D01*
Y-38418D01*
X778632Y-39159D01*
X779052Y-39788D01*
Y-40848D01*
X778632Y-41476D01*
X778485Y-42218D01*
Y-46822D01*
X774671D01*
X751549Y-23700D01*
X749978Y-22650D01*
X748125Y-22282D01*
X743272D01*
Y-7568D01*
X716772D01*
Y-16475D01*
X712522D01*
Y-11318D01*
X699022D01*
Y-31318D01*
X712522D01*
Y-26161D01*
X716772D01*
Y-33068D01*
X743272D01*
Y-31968D01*
X746119D01*
X769241Y-55090D01*
X770812Y-56140D01*
X772665Y-56508D01*
X783175D01*
X783946Y-56355D01*
X787622D01*
X788363Y-56207D01*
X788992Y-55788D01*
X789412Y-55159D01*
X789559Y-54418D01*
Y-46751D01*
X789846Y-46321D01*
X790215Y-44468D01*
Y-32318D01*
Y-16318D01*
Y-4369D01*
Y3631D01*
Y17562D01*
X789846Y19416D01*
X789622Y19751D01*
Y26187D01*
D02*
G37*
G36*
X802338Y26203D02*
X798580D01*
Y18070D01*
X802338D01*
Y26203D01*
D02*
G37*
G36*
X797564D02*
X793806D01*
Y18070D01*
X797564D01*
Y26203D01*
D02*
G37*
G36*
X548292Y23877D02*
X546899D01*
X545613Y23344D01*
X544628Y22360D01*
X544096Y21073D01*
Y19681D01*
X544628Y18394D01*
X545613Y17410D01*
X546899Y16877D01*
X548292D01*
X549578Y17410D01*
X550563Y18394D01*
X551096Y19681D01*
Y21073D01*
X550563Y22360D01*
X549578Y23344D01*
X548292Y23877D01*
D02*
G37*
G36*
X72922Y15002D02*
X70730D01*
Y11713D01*
X74519D01*
Y13405D01*
X74397Y14016D01*
X74051Y14534D01*
X73533Y14880D01*
X72922Y15002D01*
D02*
G37*
G36*
X69714D02*
X67522D01*
X66911Y14880D01*
X66393Y14534D01*
X66047Y14016D01*
X65925Y13405D01*
Y11713D01*
X69714D01*
Y15002D01*
D02*
G37*
G36*
X47016Y14016D02*
X42008D01*
Y9008D01*
X47016D01*
Y14016D01*
D02*
G37*
G36*
X40992D02*
X35984D01*
Y9008D01*
X40992D01*
Y14016D01*
D02*
G37*
G36*
X764222Y26187D02*
X755722D01*
Y8937D01*
X764222D01*
Y26187D01*
D02*
G37*
G36*
X947000Y14000D02*
X936000D01*
Y8049D01*
X933964D01*
X933766Y8346D01*
X933253Y8688D01*
X932649Y8808D01*
X927249D01*
X926644Y8688D01*
X926131Y8346D01*
X926118Y8325D01*
X925696Y8500D01*
X924304D01*
X923017Y7967D01*
X922033Y6983D01*
X921500Y5696D01*
Y4304D01*
X922033Y3017D01*
X923017Y2033D01*
X924304Y1500D01*
X925696D01*
X926159Y1692D01*
X926644Y1368D01*
X927249Y1248D01*
X932649D01*
X933253Y1368D01*
X933766Y1710D01*
X934109Y2223D01*
X934229Y2828D01*
Y2951D01*
X938500D01*
X938746Y3000D01*
X947000D01*
Y14000D01*
D02*
G37*
G36*
X447446Y111000D02*
X446054D01*
X444767Y110467D01*
X443783Y109483D01*
X443250Y108196D01*
Y106804D01*
X443783Y105517D01*
X444767Y104533D01*
X444966Y104451D01*
Y100989D01*
X351625Y7649D01*
X325595D01*
X325381Y8092D01*
X325284Y8665D01*
X326147Y9528D01*
X326680Y10814D01*
Y12206D01*
X326147Y13493D01*
X325163Y14477D01*
X323876Y15010D01*
X322484D01*
X321197Y14477D01*
X320213Y13493D01*
X319680Y12206D01*
Y10814D01*
X320213Y9528D01*
X321076Y8665D01*
X320979Y8092D01*
X320765Y7649D01*
X261707D01*
X261625Y7847D01*
X260640Y8831D01*
X259354Y9364D01*
X257961D01*
X256675Y8831D01*
X255690Y7847D01*
X255158Y6561D01*
Y5168D01*
X255690Y3882D01*
X256675Y2897D01*
X257961Y2364D01*
X259354D01*
X260640Y2897D01*
X261625Y3882D01*
X261707Y4080D01*
X352364D01*
X353047Y4216D01*
X353626Y4603D01*
X448012Y98988D01*
X448399Y99567D01*
X448534Y100250D01*
Y104451D01*
X448733Y104533D01*
X449717Y105517D01*
X450250Y106804D01*
Y108196D01*
X449717Y109483D01*
X448733Y110467D01*
X447446Y111000D01*
D02*
G37*
G36*
X74519Y10697D02*
X70730D01*
Y7409D01*
X72922D01*
X73533Y7530D01*
X74051Y7876D01*
X74397Y8394D01*
X74519Y9005D01*
Y10697D01*
D02*
G37*
G36*
X69714D02*
X65925D01*
Y9005D01*
X66047Y8394D01*
X66393Y7876D01*
X66911Y7530D01*
X67522Y7409D01*
X69714D01*
Y10697D01*
D02*
G37*
G36*
X817902Y9212D02*
X816210D01*
Y5423D01*
X819499D01*
Y7615D01*
X819377Y8226D01*
X819031Y8744D01*
X818513Y9090D01*
X817902Y9212D01*
D02*
G37*
G36*
X815194D02*
X813502D01*
X812891Y9090D01*
X812373Y8744D01*
X812027Y8226D01*
X811905Y7615D01*
Y5423D01*
X815194D01*
Y9212D01*
D02*
G37*
G36*
X802338Y17054D02*
X798072D01*
X793806D01*
Y8945D01*
X793806Y8921D01*
X793798Y7929D01*
X793187Y7807D01*
X792669Y7461D01*
X792323Y6943D01*
X792202Y6332D01*
Y4140D01*
X795998D01*
X799795D01*
Y6332D01*
X799673Y6943D01*
X799327Y7461D01*
X798809Y7807D01*
X798316Y7905D01*
X798416Y8921D01*
X802338D01*
Y17054D01*
D02*
G37*
G36*
X909196Y96750D02*
X907804D01*
X906517Y96217D01*
X905533Y95233D01*
X905000Y93946D01*
Y92554D01*
X905533Y91267D01*
X906517Y90283D01*
X907804Y89750D01*
X909196D01*
X910483Y90283D01*
X911467Y91267D01*
X911549Y91466D01*
X961261D01*
X972966Y79761D01*
Y25489D01*
X961477Y14000D01*
X953000D01*
Y3000D01*
X964000D01*
Y11477D01*
X976012Y23488D01*
X976398Y24067D01*
X976534Y24750D01*
Y80500D01*
X976398Y81183D01*
X976012Y81762D01*
X963262Y94512D01*
X962683Y94899D01*
X962000Y95034D01*
X911549D01*
X911467Y95233D01*
X910483Y96217D01*
X909196Y96750D01*
D02*
G37*
G36*
X47016Y7992D02*
X42008D01*
Y2984D01*
X47016D01*
Y7992D01*
D02*
G37*
G36*
X40992D02*
X35984D01*
Y2984D01*
X40992D01*
Y7992D01*
D02*
G37*
G36*
X819499Y4407D02*
X816210D01*
Y618D01*
X817902D01*
X818513Y740D01*
X819031Y1086D01*
X819377Y1604D01*
X819499Y2215D01*
Y4407D01*
D02*
G37*
G36*
X815194D02*
X811905D01*
Y2215D01*
X812027Y1604D01*
X812373Y1086D01*
X812891Y740D01*
X813502Y618D01*
X815194D01*
Y4407D01*
D02*
G37*
G36*
X458566Y122826D02*
X457173D01*
X455887Y122293D01*
X454902Y121309D01*
X454369Y120022D01*
Y118630D01*
X454902Y117344D01*
X455887Y116359D01*
X456085Y116277D01*
Y104608D01*
X350511Y-966D01*
X261644D01*
X261412Y-404D01*
X260427Y580D01*
X259141Y1113D01*
X257748D01*
X256462Y580D01*
X255477Y-404D01*
X254944Y-1691D01*
Y-3083D01*
X255477Y-4369D01*
X256462Y-5354D01*
X257748Y-5887D01*
X259141D01*
X260427Y-5354D01*
X261247Y-4534D01*
X351250D01*
X351933Y-4399D01*
X352512Y-4012D01*
X459131Y102608D01*
X459518Y103187D01*
X459654Y103869D01*
Y116277D01*
X459852Y116359D01*
X460837Y117344D01*
X461369Y118630D01*
Y120022D01*
X460837Y121309D01*
X459852Y122293D01*
X458566Y122826D01*
D02*
G37*
G36*
X681673Y5004D02*
X680281D01*
X678995Y4471D01*
X678010Y3487D01*
X677477Y2201D01*
Y808D01*
X678010Y-478D01*
X678995Y-1463D01*
X680281Y-1996D01*
X681673D01*
X682960Y-1463D01*
X683944Y-478D01*
X684477Y808D01*
Y2201D01*
X683944Y3487D01*
X682960Y4471D01*
X681673Y5004D01*
D02*
G37*
G36*
X72923Y4981D02*
X67523D01*
X66919Y4861D01*
X66406Y4519D01*
X66063Y4006D01*
X65943Y3401D01*
Y3235D01*
X65658Y3044D01*
X59614Y-3000D01*
X53000D01*
Y-14000D01*
X64000D01*
Y-7986D01*
X69373Y-2613D01*
X69723D01*
X69891Y-2579D01*
X72923D01*
X73528Y-2459D01*
X73745Y-2314D01*
X74854D01*
X75304Y-2500D01*
X76696D01*
X77983Y-1967D01*
X78967Y-983D01*
X79500Y304D01*
Y1696D01*
X78967Y2983D01*
X77983Y3967D01*
X76696Y4500D01*
X75304D01*
X74854Y4314D01*
X74178D01*
X74041Y4519D01*
X73528Y4861D01*
X72923Y4981D01*
D02*
G37*
G36*
X662122Y2236D02*
X656530D01*
Y-2810D01*
X664075D01*
Y282D01*
X663927Y1030D01*
X663503Y1664D01*
X662870Y2087D01*
X662122Y2236D01*
D02*
G37*
G36*
X655514D02*
X649922D01*
X649174Y2087D01*
X648541Y1664D01*
X648117Y1030D01*
X647969Y282D01*
Y-2810D01*
X655514D01*
Y2236D01*
D02*
G37*
G36*
X31146Y3789D02*
X29754D01*
X28467Y3256D01*
X27483Y2271D01*
X26950Y985D01*
Y-408D01*
X27483Y-1694D01*
X28467Y-2679D01*
X29754Y-3211D01*
X31146D01*
X32432Y-2679D01*
X33417Y-1694D01*
X33950Y-408D01*
Y985D01*
X33417Y2271D01*
X32432Y3256D01*
X31146Y3789D01*
D02*
G37*
G36*
X799795Y3124D02*
X795998D01*
X792202D01*
Y932D01*
X792323Y321D01*
X792669Y-539D01*
X792323Y-1057D01*
X792202Y-1668D01*
Y-3860D01*
X795998D01*
X799795D01*
Y-1668D01*
X799673Y-1057D01*
X799327Y-197D01*
X799673Y321D01*
X799795Y932D01*
Y3124D01*
D02*
G37*
G36*
X623222Y2930D02*
X621830D01*
X620543Y2397D01*
X619559Y1412D01*
X619026Y126D01*
Y-1267D01*
X619559Y-2553D01*
X620543Y-3537D01*
X621830Y-4070D01*
X623222D01*
X624508Y-3537D01*
X625493Y-2553D01*
X626026Y-1267D01*
Y126D01*
X625493Y1412D01*
X624508Y2397D01*
X623222Y2930D01*
D02*
G37*
G36*
X932650Y-1179D02*
X930458D01*
Y-4468D01*
X934247D01*
Y-2776D01*
X934125Y-2165D01*
X933779Y-1647D01*
X933261Y-1301D01*
X932650Y-1179D01*
D02*
G37*
G36*
X929442D02*
X927250D01*
X926639Y-1301D01*
X926121Y-1647D01*
X925775Y-2165D01*
X925653Y-2776D01*
Y-4468D01*
X929442D01*
Y-1179D01*
D02*
G37*
G36*
X964016Y-2984D02*
X959008D01*
Y-7992D01*
X964016D01*
Y-2984D01*
D02*
G37*
G36*
X957992D02*
X952984D01*
Y-7992D01*
X957992D01*
Y-2984D01*
D02*
G37*
G36*
X75922Y-4703D02*
X74230D01*
Y-8492D01*
X77519D01*
Y-6300D01*
X77397Y-5689D01*
X77051Y-5171D01*
X76533Y-4825D01*
X75922Y-4703D01*
D02*
G37*
G36*
X73214D02*
X71522D01*
X70911Y-4825D01*
X70393Y-5171D01*
X70047Y-5689D01*
X69925Y-6300D01*
Y-8492D01*
X73214D01*
Y-4703D01*
D02*
G37*
G36*
X934247Y-5484D02*
X930458D01*
Y-8773D01*
X932650D01*
X933261Y-8651D01*
X933779Y-8305D01*
X934125Y-7787D01*
X934247Y-7176D01*
Y-5484D01*
D02*
G37*
G36*
X929442D02*
X925653D01*
Y-7176D01*
X925775Y-7787D01*
X926121Y-8305D01*
X926639Y-8651D01*
X927250Y-8773D01*
X929442D01*
Y-5484D01*
D02*
G37*
G36*
X664075Y-3826D02*
X656530D01*
Y-8871D01*
X662122D01*
X662870Y-8723D01*
X663503Y-8299D01*
X663927Y-7665D01*
X664075Y-6918D01*
Y-3826D01*
D02*
G37*
G36*
X655514D02*
X647969D01*
Y-6918D01*
X648117Y-7665D01*
X648541Y-8299D01*
X649174Y-8723D01*
X649922Y-8871D01*
X655514D01*
Y-3826D01*
D02*
G37*
G36*
X429526Y126191D02*
X428134D01*
X426847Y125658D01*
X425863Y124674D01*
X425330Y123387D01*
Y121995D01*
X425863Y120708D01*
X426847Y119724D01*
X427046Y119642D01*
Y90819D01*
X363143Y26916D01*
X254887D01*
X254204Y26781D01*
X253625Y26394D01*
X229981Y2750D01*
X150177D01*
X149494Y2614D01*
X148916Y2228D01*
X137552Y-9136D01*
X137403Y-9090D01*
X137179Y-7961D01*
X137811Y-7329D01*
X138344Y-6042D01*
Y-4650D01*
X138261Y-4452D01*
X146929Y4216D01*
X225750D01*
X226433Y4351D01*
X227012Y4738D01*
X250676Y28403D01*
X362187D01*
X362870Y28538D01*
X363449Y28925D01*
X421806Y87283D01*
X422193Y87862D01*
X422329Y88545D01*
Y114269D01*
X422527Y114351D01*
X423512Y115336D01*
X424045Y116622D01*
Y118015D01*
X423512Y119301D01*
X422527Y120286D01*
X421241Y120818D01*
X419848D01*
X418562Y120286D01*
X417577Y119301D01*
X417045Y118015D01*
Y116622D01*
X417577Y115336D01*
X418562Y114351D01*
X418760Y114269D01*
Y89284D01*
X361448Y31971D01*
X249937D01*
X249254Y31835D01*
X248675Y31449D01*
X225011Y7784D01*
X146190D01*
X145507Y7648D01*
X144928Y7262D01*
X135738Y-1928D01*
X135540Y-1846D01*
X134148D01*
X132861Y-2379D01*
X131876Y-3363D01*
X131344Y-4650D01*
Y-6042D01*
X131876Y-7329D01*
X132861Y-8313D01*
X134148Y-8846D01*
X134454D01*
X134656Y-9862D01*
X134218Y-10043D01*
X133234Y-11028D01*
X132701Y-12314D01*
Y-13707D01*
X133234Y-14993D01*
X134218Y-15978D01*
X135505Y-16510D01*
X136897D01*
X138183Y-15978D01*
X139168Y-14993D01*
X139701Y-13707D01*
Y-12314D01*
X139619Y-12116D01*
X150916Y-818D01*
X200862D01*
X201486Y-1834D01*
X201174Y-2588D01*
Y-3980D01*
X201707Y-5267D01*
X202691Y-6251D01*
X203978Y-6784D01*
X205370D01*
X206656Y-6251D01*
X207641Y-5267D01*
X208174Y-3980D01*
Y-2588D01*
X207862Y-1834D01*
X208485Y-818D01*
X230721D01*
X231403Y-683D01*
X231982Y-296D01*
X255626Y23348D01*
X300959D01*
X301161Y22332D01*
X300894Y22221D01*
X299909Y21237D01*
X299376Y19950D01*
Y18558D01*
X299909Y17271D01*
X300894Y16287D01*
X302180Y15754D01*
X303573D01*
X304859Y16287D01*
X305844Y17271D01*
X306376Y18558D01*
Y19950D01*
X305844Y21237D01*
X304859Y22221D01*
X304592Y22332D01*
X304794Y23348D01*
X363882D01*
X364565Y23484D01*
X365144Y23871D01*
X430092Y88818D01*
X430478Y89397D01*
X430614Y90080D01*
Y119642D01*
X430813Y119724D01*
X431797Y120708D01*
X432330Y121995D01*
Y123387D01*
X431797Y124674D01*
X430813Y125658D01*
X429526Y126191D01*
D02*
G37*
G36*
X876022Y35765D02*
X823022D01*
X822257Y35448D01*
X820257Y33448D01*
X819940Y32682D01*
Y13682D01*
X820257Y12917D01*
X821940Y11234D01*
Y7686D01*
X821926Y7616D01*
Y2216D01*
X821940Y2146D01*
Y-202D01*
X821538Y-1052D01*
X820924Y-1052D01*
X815530D01*
Y-9318D01*
X814514D01*
Y-1052D01*
X808506D01*
Y-9688D01*
X807490Y-9788D01*
X807427Y-9470D01*
X807003Y-8837D01*
X806370Y-8413D01*
X805622Y-8264D01*
X802530D01*
Y-16318D01*
X802022D01*
Y-16826D01*
X796469D01*
Y-22418D01*
X796617Y-23165D01*
X797041Y-23799D01*
Y-24836D01*
X796617Y-25470D01*
X796469Y-26218D01*
Y-31810D01*
X802022D01*
Y-32826D01*
X796469D01*
Y-38418D01*
X796617Y-39165D01*
X797041Y-39799D01*
Y-40837D01*
X796617Y-41470D01*
X796469Y-42218D01*
Y-47810D01*
X802022D01*
X807576D01*
Y-42218D01*
X807427Y-41470D01*
X807003Y-40837D01*
Y-39799D01*
X807427Y-39165D01*
X807576Y-38418D01*
Y-34790D01*
X808506Y-34584D01*
X808592Y-34584D01*
X808988D01*
X809492Y-35295D01*
X809591Y-35600D01*
X809469Y-36218D01*
Y-41810D01*
X815022D01*
Y-42826D01*
X809469D01*
Y-48418D01*
X809617Y-49165D01*
X810041Y-49799D01*
X810674Y-50223D01*
X811422Y-50371D01*
X813036D01*
X813603Y-51343D01*
X813598Y-51387D01*
X813472Y-52018D01*
Y-55810D01*
X818022D01*
Y-56826D01*
X813472D01*
Y-60618D01*
X813606Y-61287D01*
X813985Y-61855D01*
Y-62781D01*
X813606Y-63348D01*
X813472Y-64018D01*
Y-67810D01*
X818022D01*
Y-68318D01*
X818530D01*
Y-74367D01*
X820822D01*
X821492Y-74234D01*
X822257Y-74083D01*
X824257Y-76083D01*
X824257Y-76083D01*
X825022Y-76400D01*
X842953Y-76400D01*
X843055Y-76358D01*
X843164Y-76379D01*
X843426Y-76204D01*
X843718Y-76083D01*
X844699Y-76234D01*
X844911Y-76447D01*
X846198Y-76980D01*
X847590D01*
X848877Y-76447D01*
X849089Y-76234D01*
X850070Y-76083D01*
X850362Y-76204D01*
X850624Y-76379D01*
X850733Y-76358D01*
X850835Y-76400D01*
X871022D01*
X871787Y-76083D01*
X873713Y-74157D01*
X873779Y-74000D01*
X874000D01*
Y-73465D01*
X874030Y-73392D01*
Y-57497D01*
X874104Y-57318D01*
X874000Y-57066D01*
Y-54000D01*
X860500D01*
Y-54235D01*
X853455D01*
X853401Y-54154D01*
X853944Y-53138D01*
X854564D01*
Y-49342D01*
Y-45545D01*
X852372D01*
X851761Y-45666D01*
X851243Y-46013D01*
X851120Y-46196D01*
X850104Y-45888D01*
Y-15586D01*
X882787Y17097D01*
X883104Y17862D01*
Y28682D01*
X883104Y28682D01*
X882787Y29448D01*
X876787Y35448D01*
X876022Y35765D01*
D02*
G37*
G36*
X465872Y113942D02*
X464479D01*
X463193Y113409D01*
X462208Y112424D01*
X461676Y111138D01*
Y109746D01*
X462208Y108459D01*
X463193Y107475D01*
X463391Y107393D01*
Y104915D01*
X349037Y-9439D01*
X261760D01*
X261678Y-9241D01*
X260693Y-8257D01*
X259407Y-7724D01*
X258015D01*
X256728Y-8257D01*
X255744Y-9241D01*
X255211Y-10528D01*
Y-11920D01*
X255744Y-13206D01*
X256728Y-14191D01*
X258015Y-14724D01*
X259407D01*
X260693Y-14191D01*
X261678Y-13206D01*
X261760Y-13008D01*
X349776D01*
X350459Y-12872D01*
X351038Y-12486D01*
X466437Y102914D01*
X466824Y103493D01*
X466960Y104176D01*
Y107393D01*
X467158Y107475D01*
X468143Y108459D01*
X468675Y109746D01*
Y111138D01*
X468143Y112424D01*
X467158Y113409D01*
X465872Y113942D01*
D02*
G37*
G36*
X77519Y-9508D02*
X74230D01*
Y-13297D01*
X75922D01*
X76533Y-13175D01*
X77051Y-12829D01*
X77397Y-12311D01*
X77519Y-11700D01*
Y-9508D01*
D02*
G37*
G36*
X73214D02*
X69925D01*
Y-11700D01*
X70047Y-12311D01*
X70393Y-12829D01*
X70911Y-13175D01*
X71522Y-13297D01*
X73214D01*
Y-9508D01*
D02*
G37*
G36*
X47000Y-3000D02*
X36000D01*
Y-14000D01*
X47000D01*
Y-3000D01*
D02*
G37*
G36*
X964016Y-9008D02*
X959008D01*
Y-14016D01*
X964016D01*
Y-9008D01*
D02*
G37*
G36*
X957992D02*
X952984D01*
Y-14016D01*
X957992D01*
Y-9008D01*
D02*
G37*
G36*
X799795Y-4876D02*
X795998D01*
X792202D01*
Y-7068D01*
X792323Y-7679D01*
X792669Y-8197D01*
X793187Y-8543D01*
X793798Y-8665D01*
X795934D01*
X796189Y-8966D01*
X796575Y-9681D01*
X796469Y-10218D01*
Y-15810D01*
X801514D01*
Y-8264D01*
X800504D01*
X800334Y-8145D01*
X799759Y-7248D01*
X799795Y-7068D01*
Y-4876D01*
D02*
G37*
G36*
X467765Y123823D02*
X466372D01*
X465086Y123290D01*
X464101Y122305D01*
X463568Y121019D01*
Y119627D01*
X464101Y118340D01*
X465086Y117355D01*
X466372Y116823D01*
X467765D01*
X468460Y117111D01*
X469938Y115633D01*
Y104711D01*
X346952Y-18275D01*
X261990D01*
X261908Y-18076D01*
X260923Y-17092D01*
X259637Y-16559D01*
X258244D01*
X256958Y-17092D01*
X255973Y-18076D01*
X255441Y-19363D01*
Y-20755D01*
X255973Y-22042D01*
X256958Y-23026D01*
X258244Y-23559D01*
X259637D01*
X260923Y-23026D01*
X261908Y-22042D01*
X261990Y-21843D01*
X347691D01*
X348374Y-21708D01*
X348953Y-21321D01*
X472983Y102710D01*
X473370Y103289D01*
X473506Y103972D01*
Y116372D01*
X473370Y117055D01*
X472983Y117633D01*
X470569Y120048D01*
Y121019D01*
X470036Y122305D01*
X469051Y123290D01*
X467765Y123823D01*
D02*
G37*
G36*
X469142Y93694D02*
X467749D01*
X466463Y93161D01*
X465478Y92176D01*
X464945Y90890D01*
Y89497D01*
X465140Y89027D01*
X349053Y-27060D01*
X262822D01*
X262555Y-26414D01*
X261570Y-25430D01*
X260284Y-24897D01*
X258892D01*
X257605Y-25430D01*
X256621Y-26414D01*
X256088Y-27701D01*
Y-29093D01*
X256621Y-30380D01*
X257605Y-31364D01*
X258892Y-31897D01*
X260284D01*
X261570Y-31364D01*
X262306Y-30629D01*
X349792D01*
X350475Y-30493D01*
X351054Y-30106D01*
X467853Y86694D01*
X469142D01*
X470428Y87227D01*
X471413Y88211D01*
X471945Y89497D01*
Y90890D01*
X471413Y92176D01*
X470428Y93161D01*
X469142Y93694D01*
D02*
G37*
G36*
X39616Y-24884D02*
X25158D01*
Y-29092D01*
X39616D01*
Y-24884D01*
D02*
G37*
G36*
X24142D02*
X9684D01*
Y-29092D01*
X24142D01*
Y-24884D01*
D02*
G37*
G36*
X467513Y132301D02*
X466120D01*
X464834Y131769D01*
X463849Y130784D01*
X463317Y129498D01*
Y128105D01*
X463849Y126819D01*
X464834Y125834D01*
X466120Y125301D01*
X467513D01*
X468602Y125752D01*
X475182Y119172D01*
Y88455D01*
X351841Y-34885D01*
X263197D01*
X263115Y-34687D01*
X262131Y-33703D01*
X260844Y-33170D01*
X259452D01*
X258165Y-33703D01*
X257181Y-34687D01*
X256648Y-35974D01*
Y-37366D01*
X257181Y-38652D01*
X258165Y-39637D01*
X259452Y-40170D01*
X260844D01*
X262131Y-39637D01*
X263115Y-38652D01*
X263197Y-38454D01*
X352580D01*
X353263Y-38318D01*
X353842Y-37931D01*
X364494Y-27279D01*
X365500Y-27710D01*
Y-28696D01*
X366033Y-29983D01*
X367017Y-30967D01*
X368304Y-31500D01*
X369696D01*
X370983Y-30967D01*
X371967Y-29983D01*
X372500Y-28696D01*
Y-27304D01*
X371967Y-26017D01*
X370983Y-25033D01*
X369696Y-24500D01*
X368710D01*
X368279Y-23494D01*
X478228Y86454D01*
X478614Y87033D01*
X478750Y87716D01*
Y119911D01*
X478614Y120594D01*
X478228Y121173D01*
X470390Y129011D01*
X470317Y129060D01*
Y129498D01*
X469784Y130784D01*
X468799Y131769D01*
X467513Y132301D01*
D02*
G37*
G36*
X39616Y-30108D02*
X25158D01*
Y-34316D01*
X39616D01*
Y-30108D01*
D02*
G37*
G36*
X24142D02*
X9684D01*
Y-34316D01*
X24142D01*
Y-30108D01*
D02*
G37*
G36*
X80316Y-37584D02*
X65858D01*
Y-41792D01*
X80316D01*
Y-37584D01*
D02*
G37*
G36*
X664153Y-35758D02*
X658753D01*
X658148Y-35878D01*
X657636Y-36221D01*
X657293Y-36733D01*
X657173Y-37338D01*
Y-41738D01*
X657293Y-42343D01*
X657636Y-42856D01*
X658148Y-43198D01*
X658753Y-43319D01*
X664153D01*
X664758Y-43198D01*
X664898Y-43105D01*
X666954D01*
X667299Y-43036D01*
X667650D01*
X667975Y-42902D01*
X668320Y-42833D01*
X668612Y-42638D01*
X668937Y-42503D01*
X669185Y-42255D01*
X669477Y-42059D01*
X669673Y-41767D01*
X669921Y-41519D01*
X670056Y-41194D01*
X670251Y-40902D01*
X670320Y-40557D01*
X670454Y-40232D01*
Y-39881D01*
X670523Y-39536D01*
X670454Y-39191D01*
Y-38840D01*
X670320Y-38515D01*
X670251Y-38170D01*
X670056Y-37878D01*
X669921Y-37554D01*
X669673Y-37305D01*
X669477Y-37013D01*
X669185Y-36817D01*
X668937Y-36569D01*
X668612Y-36434D01*
X668320Y-36239D01*
X667975Y-36171D01*
X667650Y-36036D01*
X667299D01*
X666954Y-35968D01*
X664892D01*
X664758Y-35878D01*
X664153Y-35758D01*
D02*
G37*
G36*
X947000Y-3000D02*
X936000D01*
Y-14000D01*
X943216D01*
Y-36951D01*
X943017Y-37033D01*
X942033Y-38017D01*
X941500Y-39304D01*
Y-40696D01*
X942033Y-41983D01*
X943017Y-42967D01*
X944304Y-43500D01*
X945696D01*
X946983Y-42967D01*
X947967Y-41983D01*
X948500Y-40696D01*
Y-39304D01*
X947967Y-38017D01*
X946983Y-37033D01*
X946784Y-36951D01*
Y-14000D01*
X947000D01*
Y-3000D01*
D02*
G37*
G36*
X913514Y-39764D02*
X907922D01*
X907174Y-39913D01*
X906541Y-40336D01*
X906117Y-40970D01*
X905968Y-41718D01*
Y-44810D01*
X913514D01*
Y-39764D01*
D02*
G37*
G36*
X39600Y-37600D02*
X9700D01*
Y-47000D01*
X39600D01*
Y-37600D01*
D02*
G37*
G36*
X80316Y-42808D02*
X65858D01*
Y-47016D01*
X80316D01*
Y-42808D01*
D02*
G37*
G36*
X857772Y-45545D02*
X855580D01*
Y-48833D01*
X859369D01*
Y-47142D01*
X859247Y-46531D01*
X858901Y-46013D01*
X858383Y-45666D01*
X857772Y-45545D01*
D02*
G37*
G36*
X77693Y76931D02*
X76301D01*
X75014Y76398D01*
X74030Y75414D01*
X73497Y74127D01*
Y72735D01*
X74030Y71448D01*
X75014Y70464D01*
X76301Y69931D01*
X77693D01*
X77891Y70013D01*
X112716Y35189D01*
Y-2500D01*
X112851Y-3183D01*
X113238Y-3762D01*
X130153Y-20676D01*
X130731Y-21063D01*
X131414Y-21199D01*
X232565D01*
X255871Y-44505D01*
X256450Y-44891D01*
X257133Y-45027D01*
X418625D01*
X419564Y-45396D01*
Y-46788D01*
X420097Y-48074D01*
X421082Y-49059D01*
X422368Y-49592D01*
X423760D01*
X425047Y-49059D01*
X426031Y-48074D01*
X426564Y-46788D01*
Y-45396D01*
X426031Y-44109D01*
X425047Y-43125D01*
X423760Y-42592D01*
X422368D01*
X422170Y-42674D01*
X421477Y-41981D01*
X420898Y-41594D01*
X420215Y-41459D01*
X257872D01*
X234566Y-18153D01*
X233987Y-17766D01*
X233304Y-17630D01*
X132153D01*
X116284Y-1761D01*
Y35928D01*
X116149Y36611D01*
X115762Y37190D01*
X80415Y72537D01*
X80497Y72735D01*
Y74127D01*
X79964Y75414D01*
X78979Y76398D01*
X77693Y76931D01*
D02*
G37*
G36*
X913514Y-45826D02*
X905968D01*
Y-48918D01*
X906117Y-49665D01*
X906541Y-50299D01*
X907174Y-50723D01*
X907922Y-50871D01*
X913514D01*
Y-45826D01*
D02*
G37*
G36*
X941633Y-47745D02*
X939441D01*
Y-51034D01*
X943230D01*
Y-49342D01*
X943108Y-48731D01*
X942762Y-48213D01*
X942244Y-47867D01*
X941633Y-47745D01*
D02*
G37*
G36*
X920122Y-39764D02*
X914530D01*
Y-45318D01*
Y-50871D01*
X920122D01*
X920870Y-50723D01*
X921002Y-50634D01*
X922018Y-51151D01*
X922151Y-51820D01*
X922530Y-52388D01*
X923098Y-52767D01*
X923767Y-52901D01*
X927559D01*
Y-48351D01*
Y-43801D01*
X923767D01*
X923098Y-43934D01*
X923092Y-43938D01*
X922076Y-43395D01*
Y-41718D01*
X921927Y-40970D01*
X921503Y-40336D01*
X920870Y-39913D01*
X920122Y-39764D01*
D02*
G37*
G36*
X859369Y-49850D02*
X855580D01*
Y-53138D01*
X857772D01*
X858383Y-53017D01*
X858901Y-52671D01*
X859247Y-52153D01*
X859369Y-51542D01*
Y-49850D01*
D02*
G37*
G36*
X39616Y-50284D02*
X25158D01*
Y-54492D01*
X39616D01*
Y-50284D01*
D02*
G37*
G36*
X24142D02*
X9684D01*
Y-54492D01*
X24142D01*
Y-50284D01*
D02*
G37*
G36*
X943230Y-52050D02*
X939441D01*
Y-55338D01*
X941633D01*
X942244Y-55217D01*
X942762Y-54871D01*
X943108Y-54353D01*
X943230Y-53742D01*
Y-52050D01*
D02*
G37*
G36*
X932367Y-43801D02*
X928575D01*
Y-48351D01*
Y-52901D01*
X932367D01*
X933037Y-52767D01*
X933604Y-52388D01*
X933620Y-52365D01*
X934636Y-52673D01*
Y-53742D01*
X934758Y-54353D01*
X935104Y-54871D01*
X935622Y-55217D01*
X936233Y-55338D01*
X938425D01*
Y-51542D01*
Y-47745D01*
X936233D01*
X935622Y-47867D01*
X935133Y-48193D01*
X934954Y-48159D01*
X934117Y-47861D01*
Y-45551D01*
X933984Y-44881D01*
X933604Y-44314D01*
X933037Y-43934D01*
X932367Y-43801D01*
D02*
G37*
G36*
X807576Y-48826D02*
X802530D01*
Y-56371D01*
X805622D01*
X806370Y-56223D01*
X807003Y-55799D01*
X807427Y-55165D01*
X807576Y-54418D01*
Y-48826D01*
D02*
G37*
G36*
X801514D02*
X796469D01*
Y-54418D01*
X796617Y-55165D01*
X797041Y-55799D01*
X797674Y-56223D01*
X798422Y-56371D01*
X801514D01*
Y-48826D01*
D02*
G37*
G36*
X63071Y84000D02*
X61678D01*
X60392Y83467D01*
X59407Y82483D01*
X58875Y81196D01*
Y79804D01*
X59407Y78517D01*
X60392Y77533D01*
X61678Y77000D01*
X61981D01*
X62256Y76588D01*
X107736Y31108D01*
Y-4520D01*
X107872Y-5203D01*
X108258Y-5782D01*
X128366Y-25890D01*
X128945Y-26276D01*
X129628Y-26412D01*
X231019D01*
X253947Y-49339D01*
X254525Y-49726D01*
X255208Y-49862D01*
X412611D01*
X415482Y-52733D01*
X415400Y-52931D01*
Y-54324D01*
X415932Y-55610D01*
X416917Y-56595D01*
X418203Y-57128D01*
X419596D01*
X420882Y-56595D01*
X421867Y-55610D01*
X422400Y-54324D01*
Y-52931D01*
X421867Y-51645D01*
X420882Y-50661D01*
X419596Y-50128D01*
X418203D01*
X418005Y-50210D01*
X414611Y-46816D01*
X414032Y-46429D01*
X413349Y-46293D01*
X255947D01*
X233020Y-23366D01*
X232441Y-22979D01*
X231758Y-22844D01*
X130367D01*
X111304Y-3781D01*
Y31848D01*
X111168Y32530D01*
X110782Y33109D01*
X65351Y78540D01*
X65875Y79804D01*
Y81196D01*
X65342Y82483D01*
X64357Y83467D01*
X63071Y84000D01*
D02*
G37*
G36*
X91450Y-56425D02*
X89258D01*
Y-59714D01*
X93047D01*
Y-58022D01*
X92925Y-57411D01*
X92579Y-56893D01*
X92061Y-56547D01*
X91450Y-56425D01*
D02*
G37*
G36*
X88242D02*
X86050D01*
X85439Y-56547D01*
X84921Y-56893D01*
X84575Y-57411D01*
X84453Y-58022D01*
Y-59714D01*
X88242D01*
Y-56425D01*
D02*
G37*
G36*
X39616Y-55508D02*
X25158D01*
Y-59716D01*
X39616D01*
Y-55508D01*
D02*
G37*
G36*
X24142D02*
X9684D01*
Y-59716D01*
X24142D01*
Y-55508D01*
D02*
G37*
G36*
X65538Y68573D02*
X64145D01*
X62859Y68040D01*
X61874Y67056D01*
X61341Y65770D01*
Y64377D01*
X61874Y63091D01*
X62859Y62106D01*
X64145Y61573D01*
X65538D01*
X66824Y62106D01*
X67475Y62757D01*
X102466Y27767D01*
Y-6250D01*
X102601Y-6933D01*
X102988Y-7512D01*
X126078Y-30601D01*
X126657Y-30988D01*
X127339Y-31124D01*
X228192D01*
X251116Y-54048D01*
X251695Y-54435D01*
X252378Y-54570D01*
X405658D01*
X407271Y-56184D01*
X407189Y-56382D01*
Y-57775D01*
X407722Y-59061D01*
X408707Y-60046D01*
X409993Y-60578D01*
X411385D01*
X412672Y-60046D01*
X413656Y-59061D01*
X414189Y-57775D01*
Y-56382D01*
X413656Y-55096D01*
X412672Y-54111D01*
X411385Y-53578D01*
X409993D01*
X409795Y-53661D01*
X407659Y-51525D01*
X407080Y-51138D01*
X406397Y-51002D01*
X253117D01*
X230193Y-28078D01*
X229614Y-27691D01*
X228931Y-27555D01*
X128078D01*
X106034Y-5511D01*
Y28506D01*
X105899Y29189D01*
X105512Y29767D01*
X69221Y66058D01*
X68643Y66445D01*
X68010Y66570D01*
X67808Y67056D01*
X66824Y68040D01*
X65538Y68573D01*
D02*
G37*
G36*
X88242Y-60730D02*
X84453D01*
Y-62422D01*
X84575Y-63033D01*
X84921Y-63551D01*
X85439Y-63897D01*
X86050Y-64019D01*
X88242D01*
Y-60730D01*
D02*
G37*
G36*
X64873Y59560D02*
X63481D01*
X62195Y59027D01*
X61210Y58043D01*
X60677Y56756D01*
Y55364D01*
X61210Y54078D01*
X62195Y53093D01*
X63481Y52560D01*
X64873D01*
X65081Y52646D01*
X97716Y20011D01*
Y-18500D01*
X97851Y-19183D01*
X98238Y-19762D01*
X118263Y-39786D01*
X118842Y-40173D01*
X119525Y-40309D01*
X230692D01*
X249457Y-59074D01*
X250036Y-59460D01*
X250718Y-59596D01*
X399204D01*
X400309Y-60701D01*
X400052Y-61322D01*
Y-62714D01*
X400585Y-64001D01*
X401569Y-64985D01*
X402856Y-65518D01*
X404248D01*
X405535Y-64985D01*
X406519Y-64001D01*
X407052Y-62714D01*
Y-61322D01*
X406519Y-60035D01*
X405535Y-59051D01*
X404248Y-58518D01*
X403172D01*
X401204Y-56550D01*
X400625Y-56163D01*
X399943Y-56028D01*
X251458D01*
X232693Y-37263D01*
X232114Y-36876D01*
X231431Y-36741D01*
X120264D01*
X101284Y-17761D01*
Y20750D01*
X101149Y21433D01*
X100762Y22012D01*
X67599Y55175D01*
X67677Y55364D01*
Y56756D01*
X67144Y58043D01*
X66160Y59027D01*
X64873Y59560D01*
D02*
G37*
G36*
X622138Y-58726D02*
X616738D01*
X616133Y-58846D01*
X615997Y-58938D01*
X614013D01*
X613668Y-59007D01*
X613317D01*
X612992Y-59141D01*
X612647Y-59210D01*
X612355Y-59405D01*
X612030Y-59539D01*
X611782Y-59788D01*
X611489Y-59983D01*
X611294Y-60275D01*
X611046Y-60524D01*
X610911Y-60849D01*
X610716Y-61141D01*
X610647Y-61486D01*
X610513Y-61810D01*
Y-62162D01*
X610444Y-62506D01*
X610513Y-62851D01*
Y-63203D01*
X610647Y-63527D01*
X610716Y-63872D01*
X610911Y-64164D01*
X611046Y-64489D01*
X611294Y-64738D01*
X611489Y-65030D01*
X611782Y-65225D01*
X612030Y-65474D01*
X612355Y-65608D01*
X612647Y-65803D01*
X612992Y-65872D01*
X613317Y-66006D01*
X613668D01*
X614013Y-66075D01*
X615997D01*
X616133Y-66167D01*
X616738Y-66287D01*
X622138D01*
X622743Y-66167D01*
X622922Y-66047D01*
X630222D01*
X630364Y-66019D01*
X632249D01*
X632500Y-66069D01*
X633866Y-65797D01*
X634011Y-65700D01*
X635500D01*
Y-64310D01*
X635797Y-63866D01*
X636069Y-62500D01*
X635797Y-61134D01*
X635500Y-60690D01*
Y-59200D01*
X633886D01*
X633816Y-59153D01*
X632450Y-58882D01*
X630250D01*
X630108Y-58910D01*
X622838D01*
X622743Y-58846D01*
X622138Y-58726D01*
D02*
G37*
G36*
X39616Y-62984D02*
X25158D01*
Y-67192D01*
X39616D01*
Y-62984D01*
D02*
G37*
G36*
X24142D02*
X9684D01*
Y-67192D01*
X24142D01*
Y-62984D01*
D02*
G37*
G36*
X657168Y-60583D02*
X655776D01*
X654489Y-61115D01*
X653505Y-62100D01*
X652972Y-63386D01*
Y-64779D01*
X653505Y-66065D01*
X654489Y-67050D01*
X655776Y-67583D01*
X657168D01*
X658455Y-67050D01*
X659439Y-66065D01*
X659487Y-65951D01*
X669416D01*
X669533Y-66233D01*
X670517Y-67217D01*
X671804Y-67750D01*
X673196D01*
X674483Y-67217D01*
X675467Y-66233D01*
X676000Y-64946D01*
Y-63554D01*
X675467Y-62267D01*
X674483Y-61283D01*
X673196Y-60750D01*
X671804D01*
X670517Y-61283D01*
X669533Y-62267D01*
X669485Y-62382D01*
X659556D01*
X659439Y-62100D01*
X658455Y-61115D01*
X657168Y-60583D01*
D02*
G37*
G36*
X61268Y51590D02*
X59876D01*
X58589Y51058D01*
X57605Y50073D01*
X57072Y48787D01*
Y47394D01*
X57605Y46108D01*
X58589Y45123D01*
X59876Y44591D01*
X61268D01*
X61528Y44698D01*
X92466Y13761D01*
Y-20250D01*
X92601Y-20933D01*
X92988Y-21512D01*
X94488Y-23012D01*
X94520Y-23033D01*
X96967Y-25480D01*
X96988Y-25512D01*
X120440Y-48964D01*
X121019Y-49351D01*
X121702Y-49486D01*
X232887D01*
X247503Y-64102D01*
X248082Y-64489D01*
X248765Y-64625D01*
X392662D01*
X399303Y-71266D01*
X399882Y-71652D01*
X400564Y-71788D01*
X426267D01*
X426949Y-71652D01*
X427528Y-71266D01*
X427641Y-71152D01*
X428179Y-71375D01*
X429571D01*
X430858Y-70842D01*
X431842Y-69858D01*
X432375Y-68571D01*
Y-67179D01*
X431842Y-65893D01*
X430858Y-64908D01*
X429571Y-64375D01*
X428179D01*
X426892Y-64908D01*
X425908Y-65893D01*
X425375Y-67179D01*
Y-68219D01*
X401303D01*
X394663Y-61579D01*
X394084Y-61192D01*
X393401Y-61056D01*
X249504D01*
X234888Y-46440D01*
X234309Y-46054D01*
X233626Y-45918D01*
X122441D01*
X99533Y-23009D01*
X99512Y-22978D01*
X97022Y-20488D01*
X96991Y-20467D01*
X96034Y-19511D01*
Y14500D01*
X95899Y15183D01*
X95512Y15762D01*
X64015Y47258D01*
X64072Y47394D01*
Y48787D01*
X63539Y50073D01*
X62554Y51058D01*
X61268Y51590D01*
D02*
G37*
G36*
X622139Y-68714D02*
X619947D01*
Y-72003D01*
X623736D01*
Y-70311D01*
X623615Y-69700D01*
X623268Y-69182D01*
X622750Y-68836D01*
X622139Y-68714D01*
D02*
G37*
G36*
X618931D02*
X616739D01*
X616128Y-68836D01*
X615610Y-69182D01*
X615264Y-69700D01*
X615143Y-70311D01*
Y-72003D01*
X618931D01*
Y-68714D01*
D02*
G37*
G36*
X39616Y-68208D02*
X25158D01*
Y-72416D01*
X39616D01*
Y-68208D01*
D02*
G37*
G36*
X24142D02*
X9684D01*
Y-72416D01*
X24142D01*
Y-68208D01*
D02*
G37*
G36*
X817514Y-68826D02*
X813472D01*
Y-72618D01*
X813606Y-73287D01*
X813985Y-73855D01*
X814553Y-74234D01*
X815222Y-74367D01*
X817514D01*
Y-68826D01*
D02*
G37*
G36*
X661754Y-68827D02*
X660361D01*
X659075Y-69360D01*
X658090Y-70345D01*
X657557Y-71631D01*
Y-73024D01*
X658090Y-74310D01*
X659075Y-75294D01*
X660361Y-75827D01*
X661754D01*
X663040Y-75294D01*
X664025Y-74310D01*
X664557Y-73024D01*
Y-71631D01*
X664025Y-70345D01*
X663040Y-69360D01*
X661754Y-68827D01*
D02*
G37*
G36*
X623736Y-73019D02*
X619947D01*
Y-76307D01*
X622139D01*
X622750Y-76186D01*
X623268Y-75840D01*
X623615Y-75322D01*
X623736Y-74711D01*
Y-73019D01*
D02*
G37*
G36*
X618931D02*
X615143D01*
Y-74711D01*
X615264Y-75322D01*
X615610Y-75840D01*
X616128Y-76186D01*
X616739Y-76307D01*
X618931D01*
Y-73019D01*
D02*
G37*
G36*
X905500Y-54000D02*
X892000D01*
Y-74000D01*
X897930D01*
X898351Y-75016D01*
X897759Y-75608D01*
X897226Y-76894D01*
Y-78286D01*
X897759Y-79573D01*
X898744Y-80557D01*
X900030Y-81090D01*
X901423D01*
X902709Y-80557D01*
X903694Y-79573D01*
X904227Y-78286D01*
Y-76894D01*
X903694Y-75608D01*
X903102Y-75016D01*
X903523Y-74000D01*
X905500D01*
Y-68502D01*
X906873D01*
X907181Y-68707D01*
X907922Y-68855D01*
X916090D01*
X916122Y-68872D01*
X916144Y-68925D01*
X931338Y-84119D01*
X932103Y-84436D01*
X950396Y-84436D01*
X950396Y-84436D01*
X951162Y-84119D01*
X951162Y-84119D01*
X953765Y-81515D01*
X953765Y-81515D01*
X953963Y-81039D01*
X954383Y-80883D01*
X954850Y-80815D01*
X955064Y-80833D01*
X955900Y-81670D01*
X957187Y-82202D01*
X958579D01*
X959866Y-81670D01*
X960850Y-80685D01*
X961383Y-79398D01*
Y-78006D01*
X960850Y-76720D01*
X959866Y-75735D01*
X958579Y-75202D01*
X957187D01*
X955900Y-75735D01*
X955098Y-76537D01*
X954240Y-76319D01*
X954082Y-76226D01*
Y-69750D01*
X954082Y-69750D01*
X953765Y-68985D01*
X953765Y-68984D01*
X942765Y-57985D01*
X942000Y-57668D01*
X917564Y-57668D01*
X917319Y-57769D01*
X917204Y-57781D01*
X907922D01*
X907181Y-57928D01*
X906552Y-58348D01*
X906516Y-58402D01*
X905500Y-58094D01*
Y-54000D01*
D02*
G37*
G36*
X751575Y-75240D02*
X750182D01*
X748896Y-75772D01*
X747912Y-76757D01*
X747379Y-78043D01*
Y-79436D01*
X747912Y-80722D01*
X748896Y-81707D01*
X750182Y-82240D01*
X751575D01*
X752861Y-81707D01*
X753846Y-80722D01*
X753915Y-80554D01*
X755015D01*
X755275Y-81181D01*
X756259Y-82166D01*
X757546Y-82699D01*
X758938D01*
X760225Y-82166D01*
X761209Y-81181D01*
X761742Y-79895D01*
Y-78502D01*
X761209Y-77216D01*
X760225Y-76231D01*
X758938Y-75699D01*
X757546D01*
X756259Y-76231D01*
X755275Y-77216D01*
X755205Y-77384D01*
X754106D01*
X753846Y-76757D01*
X752861Y-75772D01*
X751575Y-75240D01*
D02*
G37*
G36*
X607679Y-80023D02*
X605835Y-81867D01*
X607962Y-83994D01*
X609806Y-82150D01*
X607679Y-80023D01*
D02*
G37*
G36*
X371704Y-78008D02*
X370312D01*
X369025Y-78541D01*
X368041Y-79525D01*
X367508Y-80812D01*
Y-82204D01*
X368041Y-83491D01*
X369025Y-84475D01*
X370312Y-85008D01*
X371704D01*
X372991Y-84475D01*
X373975Y-83491D01*
X374508Y-82204D01*
Y-80812D01*
X373975Y-79525D01*
X372991Y-78541D01*
X371704Y-78008D01*
D02*
G37*
G36*
X839688Y-78331D02*
X838296D01*
X837010Y-78864D01*
X836025Y-79848D01*
X835492Y-81135D01*
Y-82527D01*
X836025Y-83814D01*
X837010Y-84798D01*
X838296Y-85331D01*
X839688D01*
X840975Y-84798D01*
X841959Y-83814D01*
X842492Y-82527D01*
Y-81135D01*
X841959Y-79848D01*
X840975Y-78864D01*
X839688Y-78331D01*
D02*
G37*
G36*
X476019Y134876D02*
X474627D01*
X473341Y134343D01*
X472356Y133358D01*
X471823Y132072D01*
Y130680D01*
X472356Y129393D01*
X473341Y128409D01*
X474627Y127876D01*
X476019D01*
X476218Y127958D01*
X479966Y124210D01*
Y9239D01*
X452238Y-18488D01*
X451852Y-19067D01*
X451716Y-19750D01*
Y-61558D01*
X427058Y-86216D01*
X265542D01*
X238860Y-59534D01*
X238282Y-59148D01*
X237599Y-59012D01*
X164997D01*
X164795Y-57996D01*
X165461Y-57719D01*
X166446Y-56735D01*
X166979Y-55448D01*
Y-54056D01*
X166446Y-52770D01*
X165461Y-51785D01*
X164175Y-51252D01*
X162783D01*
X161496Y-51785D01*
X160512Y-52770D01*
X159979Y-54056D01*
Y-55448D01*
X160512Y-56735D01*
X161496Y-57719D01*
X162163Y-57996D01*
X161961Y-59012D01*
X98680D01*
X97997Y-59148D01*
X97418Y-59534D01*
X93971Y-62982D01*
X93035Y-62481D01*
X93047Y-62422D01*
Y-60730D01*
X89258D01*
Y-64019D01*
X91450D01*
X91509Y-64007D01*
X92009Y-64943D01*
X90507Y-66446D01*
X86050D01*
X85445Y-66566D01*
X84932Y-66909D01*
X84590Y-67421D01*
X84470Y-68026D01*
Y-68716D01*
X80300D01*
Y-65614D01*
X80309Y-65594D01*
Y-57186D01*
X80300Y-57165D01*
Y-53850D01*
X80766D01*
X81449Y-53714D01*
X82027Y-53328D01*
X89359Y-45997D01*
X89745Y-45418D01*
X89881Y-44735D01*
Y-13371D01*
X89745Y-12688D01*
X89359Y-12109D01*
X87507Y-10257D01*
Y-6300D01*
X87386Y-5695D01*
X87044Y-5182D01*
X86534Y-4842D01*
Y6701D01*
X86733Y6783D01*
X87717Y7767D01*
X88250Y9054D01*
Y10446D01*
X87717Y11733D01*
X86733Y12717D01*
X85446Y13250D01*
X84054D01*
X82767Y12717D01*
X81783Y11733D01*
X81250Y10446D01*
Y9054D01*
X81783Y7767D01*
X82767Y6783D01*
X82966Y6701D01*
Y-4720D01*
X81526D01*
X80921Y-4840D01*
X80409Y-5182D01*
X80066Y-5695D01*
X79946Y-6300D01*
Y-11700D01*
X80066Y-12305D01*
X80409Y-12817D01*
X80921Y-13160D01*
X81526Y-13280D01*
X85483D01*
X86313Y-14110D01*
Y-43996D01*
X80027Y-50282D01*
X68284D01*
X68192Y-50300D01*
X64759D01*
Y-47016D01*
X64842D01*
Y-42300D01*
Y-37584D01*
X51434D01*
Y-35767D01*
X52901Y-34300D01*
X80300D01*
Y-24900D01*
X50400D01*
Y-31755D01*
X48388Y-33766D01*
X48001Y-34345D01*
X47866Y-35028D01*
Y-84825D01*
X48001Y-85508D01*
X48388Y-86087D01*
X49539Y-87237D01*
X50118Y-87624D01*
X50801Y-87760D01*
X80900D01*
X81582Y-87624D01*
X82161Y-87237D01*
X83781Y-85618D01*
X84797Y-86039D01*
Y-86776D01*
X89093D01*
X93390D01*
Y-85084D01*
X93290Y-84580D01*
X93334Y-84376D01*
X93883Y-83564D01*
X181016D01*
X181324Y-84308D01*
X182309Y-85292D01*
X183595Y-85825D01*
X184988D01*
X186274Y-85292D01*
X187258Y-84308D01*
X187791Y-83021D01*
Y-81629D01*
X187709Y-81431D01*
X194333Y-74807D01*
X197392D01*
X197917Y-75823D01*
X197534Y-76746D01*
Y-78138D01*
X198067Y-79425D01*
X199052Y-80409D01*
X200338Y-80942D01*
X201730D01*
X203017Y-80409D01*
X204001Y-79425D01*
X204534Y-78138D01*
Y-76746D01*
X204152Y-75823D01*
X204676Y-74807D01*
X229760D01*
X233441Y-78487D01*
X233084Y-79206D01*
X232916Y-79399D01*
X231595D01*
X230309Y-79932D01*
X229324Y-80917D01*
X228792Y-82203D01*
Y-83595D01*
X229324Y-84882D01*
X230309Y-85866D01*
X231595Y-86399D01*
X232988D01*
X234274Y-85866D01*
X235259Y-84882D01*
X235792Y-83595D01*
Y-82275D01*
X235985Y-82107D01*
X236704Y-81750D01*
X257215Y-102262D01*
X257794Y-102648D01*
X258477Y-102784D01*
X363011D01*
X364415Y-104188D01*
X364415Y-104188D01*
X368238Y-108012D01*
X368817Y-108399D01*
X369500Y-108534D01*
X410701D01*
X410783Y-108733D01*
X411767Y-109717D01*
X413054Y-110250D01*
X414446D01*
X415733Y-109717D01*
X416717Y-108733D01*
X417250Y-107446D01*
Y-106054D01*
X416717Y-104767D01*
X415733Y-103783D01*
X414446Y-103250D01*
X413054D01*
X411767Y-103783D01*
X410783Y-104767D01*
X410701Y-104966D01*
X370239D01*
X366938Y-101665D01*
X366938Y-101665D01*
X365012Y-99738D01*
X364433Y-99352D01*
X363750Y-99216D01*
X259216D01*
X231761Y-71761D01*
X231182Y-71374D01*
X230499Y-71238D01*
X193594D01*
X192911Y-71374D01*
X192332Y-71761D01*
X185186Y-78907D01*
X184988Y-78825D01*
X183595D01*
X182309Y-79358D01*
X181671Y-79995D01*
X135833D01*
Y-72784D01*
X181000D01*
X181683Y-72649D01*
X182262Y-72262D01*
X184739Y-69784D01*
X233550D01*
X260027Y-96262D01*
X260606Y-96648D01*
X261289Y-96784D01*
X428001D01*
X428684Y-96648D01*
X429263Y-96262D01*
X476762Y-48763D01*
X477148Y-48184D01*
X477284Y-47501D01*
Y-9739D01*
X488658Y1634D01*
X489044Y2213D01*
X489180Y2896D01*
Y117150D01*
X489210D01*
X490496Y117683D01*
X491480Y118667D01*
X492013Y119954D01*
Y121346D01*
X491480Y122633D01*
X490496Y123617D01*
X489210Y124150D01*
X487817D01*
X486531Y123617D01*
X485546Y122633D01*
X485013Y121346D01*
Y119954D01*
X485546Y118667D01*
X485612Y118602D01*
Y3635D01*
X474238Y-7738D01*
X473852Y-8317D01*
X473716Y-9000D01*
Y-46762D01*
X427262Y-93216D01*
X262028D01*
X235551Y-66738D01*
X234972Y-66351D01*
X234289Y-66216D01*
X184000D01*
X183317Y-66351D01*
X182738Y-66738D01*
X180261Y-69216D01*
X114232D01*
Y-62580D01*
X236860D01*
X263541Y-89262D01*
X264120Y-89649D01*
X264803Y-89784D01*
X427797D01*
X428480Y-89649D01*
X429059Y-89262D01*
X454762Y-63559D01*
X455149Y-62980D01*
X455284Y-62297D01*
Y-20489D01*
X462339Y-13434D01*
X463200Y-14010D01*
X462853Y-14849D01*
Y-16241D01*
X463386Y-17528D01*
X464370Y-18512D01*
X465657Y-19045D01*
X467049D01*
X468335Y-18512D01*
X469320Y-17528D01*
X469853Y-16241D01*
Y-14849D01*
X469320Y-13563D01*
X468335Y-12578D01*
X467049Y-12045D01*
X465657D01*
X464818Y-12393D01*
X464242Y-11531D01*
X483012Y7238D01*
X483398Y7817D01*
X483534Y8500D01*
Y124949D01*
X483398Y125632D01*
X483012Y126211D01*
X478741Y130481D01*
X478823Y130680D01*
Y132072D01*
X478290Y133358D01*
X477306Y134343D01*
X476019Y134876D01*
D02*
G37*
G36*
X880471Y-77111D02*
X877874Y-77569D01*
X875484Y-78684D01*
X873464Y-80379D01*
X872999Y-81043D01*
X880787Y-86497D01*
X886241Y-78708D01*
X885577Y-78243D01*
X883099Y-77341D01*
X880471Y-77111D01*
D02*
G37*
G36*
X605117Y-82585D02*
X603273Y-84429D01*
X605400Y-86556D01*
X607244Y-84712D01*
X605117Y-82585D01*
D02*
G37*
G36*
X610525Y-82868D02*
X608681Y-84712D01*
X610808Y-86839D01*
X612652Y-84995D01*
X610525Y-82868D01*
D02*
G37*
G36*
X740174Y-79911D02*
X738782D01*
X737495Y-80444D01*
X736511Y-81429D01*
X735978Y-82715D01*
Y-84107D01*
X736511Y-85394D01*
X737495Y-86378D01*
X738782Y-86911D01*
X740174D01*
X741461Y-86378D01*
X742445Y-85394D01*
X742978Y-84107D01*
Y-82715D01*
X742445Y-81429D01*
X741461Y-80444D01*
X740174Y-79911D01*
D02*
G37*
G36*
X39600Y-75700D02*
X9700D01*
Y-83209D01*
X9585Y-83486D01*
Y-84878D01*
X10118Y-86165D01*
X11103Y-87149D01*
X12389Y-87682D01*
X13782D01*
X15068Y-87149D01*
X16053Y-86165D01*
X16494Y-85100D01*
X39600D01*
Y-75700D01*
D02*
G37*
G36*
X714500Y-71900D02*
X704000D01*
Y-73366D01*
X680850D01*
X680167Y-73502D01*
X679588Y-73888D01*
X665261Y-88216D01*
X644607D01*
X644405Y-87200D01*
X645087Y-86917D01*
X646072Y-85933D01*
X646605Y-84646D01*
Y-83254D01*
X646072Y-81967D01*
X645087Y-80983D01*
X643801Y-80450D01*
X642408D01*
X641636Y-80770D01*
X640869Y-80003D01*
X640291Y-79616D01*
X639608Y-79481D01*
X639104D01*
X635500Y-75877D01*
Y-71900D01*
X625000D01*
Y-78400D01*
X632977D01*
X634007Y-79430D01*
X633552Y-80330D01*
X633512Y-80372D01*
X623860D01*
X623778Y-80173D01*
X622794Y-79189D01*
X621507Y-78656D01*
X620115D01*
X618829Y-79189D01*
X617844Y-80173D01*
X617311Y-81460D01*
Y-82852D01*
X617844Y-84138D01*
X618829Y-85123D01*
X619458Y-85384D01*
X619571Y-86530D01*
X619483Y-86588D01*
X577106Y-128966D01*
X563364D01*
X545171Y-110772D01*
X545576Y-109741D01*
X546638Y-109301D01*
X547622Y-108316D01*
X548155Y-107030D01*
Y-105637D01*
X547622Y-104351D01*
X546638Y-103366D01*
X545351Y-102834D01*
X543959D01*
X542673Y-103366D01*
X541688Y-104351D01*
X541155Y-105637D01*
Y-106710D01*
X540679Y-107065D01*
X540325Y-107247D01*
X540217Y-107276D01*
X539046Y-106791D01*
X537653D01*
X536367Y-107323D01*
X535382Y-108308D01*
X535230Y-108675D01*
X534130D01*
X534037Y-108449D01*
X533052Y-107465D01*
X531766Y-106932D01*
X530374D01*
X529087Y-107465D01*
X528103Y-108449D01*
X527570Y-109736D01*
Y-111128D01*
X528103Y-112415D01*
X529087Y-113399D01*
X530374Y-113932D01*
X530865D01*
X530893Y-113973D01*
X545569Y-128649D01*
X545180Y-129588D01*
X536572D01*
Y-135588D01*
X546572D01*
Y-130980D01*
X547511Y-130591D01*
X554182Y-137262D01*
X554760Y-137648D01*
X555443Y-137784D01*
X579905D01*
X580588Y-137648D01*
X581167Y-137262D01*
X596468Y-121961D01*
X597312Y-122526D01*
X596895Y-123532D01*
X596397Y-127318D01*
X596895Y-131103D01*
X598356Y-134630D01*
X600681Y-137659D01*
X603709Y-139984D01*
X607237Y-141445D01*
X611022Y-141943D01*
X626022D01*
X629807Y-141445D01*
X633335Y-139984D01*
X636363Y-137659D01*
X638688Y-134630D01*
X640149Y-131103D01*
X640647Y-127318D01*
X640149Y-123532D01*
X638688Y-120005D01*
X636363Y-116976D01*
X633335Y-114652D01*
X629807Y-113191D01*
X626022Y-112693D01*
X611022D01*
X607237Y-113191D01*
X606230Y-113608D01*
X605666Y-112763D01*
X616095Y-102334D01*
X625000D01*
Y-103800D01*
X635500D01*
Y-97300D01*
X625000D01*
Y-98766D01*
X615355D01*
X614673Y-98902D01*
X614094Y-99288D01*
X579166Y-134216D01*
X556182D01*
X536294Y-114327D01*
X536869Y-113466D01*
X537653Y-113791D01*
X539046D01*
X540332Y-113258D01*
X540941Y-112649D01*
X542001D01*
X561363Y-132012D01*
X561942Y-132399D01*
X562625Y-132534D01*
X577845D01*
X578528Y-132399D01*
X579107Y-132012D01*
X621484Y-89634D01*
X625000D01*
Y-91100D01*
X635500D01*
Y-87976D01*
X636439Y-87587D01*
X640113Y-91262D01*
X640692Y-91649D01*
X641375Y-91784D01*
X666000D01*
X666683Y-91649D01*
X667262Y-91262D01*
X681589Y-76934D01*
X704000D01*
Y-78400D01*
X714500D01*
Y-71900D01*
D02*
G37*
G36*
X607962Y-85431D02*
X606118Y-87275D01*
X608245Y-89402D01*
X610089Y-87558D01*
X607962Y-85431D01*
D02*
G37*
G36*
X93390Y-87792D02*
X89601D01*
Y-91081D01*
X91793D01*
X92404Y-90959D01*
X92922Y-90613D01*
X93268Y-90095D01*
X93390Y-89484D01*
Y-87792D01*
D02*
G37*
G36*
X88585D02*
X84797D01*
Y-89484D01*
X84918Y-90095D01*
X85264Y-90613D01*
X85782Y-90959D01*
X86393Y-91081D01*
X88585D01*
Y-87792D01*
D02*
G37*
G36*
X887073Y-79291D02*
X881619Y-87079D01*
X889408Y-92533D01*
X889873Y-91869D01*
X890775Y-89391D01*
X891005Y-86763D01*
X890547Y-84166D01*
X889432Y-81776D01*
X887737Y-79756D01*
X887073Y-79291D01*
D02*
G37*
G36*
X110880Y-85573D02*
X109487D01*
X108201Y-86105D01*
X107216Y-87090D01*
X106684Y-88376D01*
Y-89769D01*
X107216Y-91055D01*
X108201Y-92040D01*
X109487Y-92573D01*
X110880D01*
X112166Y-92040D01*
X113151Y-91055D01*
X113684Y-89769D01*
Y-88376D01*
X113151Y-87090D01*
X112166Y-86105D01*
X110880Y-85573D01*
D02*
G37*
G36*
X517196Y-85750D02*
X515804D01*
X514517Y-86283D01*
X513533Y-87267D01*
X513000Y-88554D01*
Y-88977D01*
X494488Y-107488D01*
X494101Y-108067D01*
X493966Y-108750D01*
Y-155098D01*
X494101Y-155781D01*
X494488Y-156360D01*
X496500Y-158371D01*
Y-166848D01*
X507500D01*
Y-156511D01*
X507850Y-155736D01*
X508397Y-155561D01*
X515768D01*
X515912Y-155984D01*
X515937Y-156577D01*
X515563Y-156827D01*
X515216Y-157345D01*
X515095Y-157956D01*
Y-159648D01*
X518884D01*
Y-156359D01*
X517211D01*
X517025Y-155420D01*
X517041Y-155343D01*
X517833Y-154814D01*
X518715Y-153932D01*
X522090D01*
X522695Y-153812D01*
X523208Y-153469D01*
X523429Y-153138D01*
X524304Y-153500D01*
X525696D01*
X526983Y-152967D01*
X527967Y-151983D01*
X528500Y-150696D01*
Y-149304D01*
X527967Y-148017D01*
X526983Y-147033D01*
X525696Y-146500D01*
X524304D01*
X523271Y-146928D01*
X523208Y-146834D01*
X522695Y-146491D01*
X522090Y-146371D01*
X516690D01*
X516086Y-146491D01*
X515573Y-146834D01*
X515230Y-147347D01*
X515110Y-147951D01*
Y-150327D01*
X514975Y-150463D01*
X508985D01*
X507549Y-149027D01*
Y-147348D01*
X507500Y-147101D01*
Y-138848D01*
X497534D01*
Y-109489D01*
X514722Y-92302D01*
X515804Y-92750D01*
X517196D01*
X518483Y-92217D01*
X519467Y-91233D01*
X520000Y-89946D01*
Y-88554D01*
X519467Y-87267D01*
X518483Y-86283D01*
X517196Y-85750D01*
D02*
G37*
G36*
X872416Y-81875D02*
X871951Y-82539D01*
X871049Y-85017D01*
X870819Y-87645D01*
X871277Y-90242D01*
X872215Y-92252D01*
X871409Y-92929D01*
X866905Y-89775D01*
X864798Y-92783D01*
X864268Y-92829D01*
X863689Y-92442D01*
X863006Y-92307D01*
X847159D01*
X846476Y-92442D01*
X845897Y-92829D01*
X839261Y-99466D01*
X724250D01*
X723567Y-99601D01*
X722988Y-99988D01*
X717380Y-105597D01*
X705006D01*
X704324Y-105733D01*
X703745Y-106119D01*
X694267Y-115597D01*
X694135D01*
X693963Y-115631D01*
X686885D01*
Y-129631D01*
X695676D01*
X695885Y-129631D01*
X696846Y-129764D01*
X698010Y-131781D01*
X699875Y-133646D01*
X702159Y-134965D01*
X704706Y-135647D01*
X705517D01*
Y-125631D01*
Y-115615D01*
X704706D01*
X702159Y-116298D01*
X699875Y-117616D01*
X698010Y-119481D01*
X696901Y-121402D01*
X695885Y-121130D01*
Y-118899D01*
X696268Y-118643D01*
X705745Y-109165D01*
X718119D01*
X718802Y-109030D01*
X719380Y-108643D01*
X724989Y-103034D01*
X840000D01*
X840683Y-102898D01*
X841262Y-102512D01*
X847898Y-95875D01*
X855437D01*
X855903Y-96891D01*
X855479Y-97914D01*
Y-99306D01*
X856012Y-100592D01*
X856997Y-101577D01*
X857521Y-101794D01*
X857805Y-102769D01*
X855599Y-105920D01*
X867067Y-113950D01*
X871648Y-107408D01*
X872544Y-107779D01*
X872730D01*
X873199Y-108680D01*
X868706Y-115097D01*
X880174Y-123127D01*
X882894Y-119243D01*
X883910Y-119563D01*
Y-120423D01*
X884443Y-121709D01*
X885427Y-122694D01*
X886713Y-123227D01*
X888106D01*
X889392Y-122694D01*
X890377Y-121709D01*
X890910Y-120423D01*
Y-119031D01*
X890377Y-117744D01*
X889768Y-117135D01*
Y-116034D01*
X890063Y-115738D01*
X890450Y-115160D01*
X890586Y-114477D01*
Y-112291D01*
X890450Y-111608D01*
X890063Y-111029D01*
X889229Y-110195D01*
X891479Y-106982D01*
X880011Y-98952D01*
X877441Y-102621D01*
X876290Y-102495D01*
X876207Y-102296D01*
X875631Y-101720D01*
X878252Y-97976D01*
X878373Y-97805D01*
X879033Y-97094D01*
X881353Y-97297D01*
X883950Y-96839D01*
X886340Y-95724D01*
X888360Y-94029D01*
X888825Y-93365D01*
X880621Y-87620D01*
X872416Y-81875D01*
D02*
G37*
G36*
X212599Y-83847D02*
X209971Y-84077D01*
X207493Y-84979D01*
X206829Y-85444D01*
X212283Y-93233D01*
X220071Y-87779D01*
X219606Y-87115D01*
X217586Y-85420D01*
X215196Y-84305D01*
X212599Y-83847D01*
D02*
G37*
G36*
X714500Y-84600D02*
X704000D01*
Y-87533D01*
X673683D01*
X673000Y-87668D01*
X672421Y-88055D01*
X643226Y-117251D01*
X642839Y-117830D01*
X642703Y-118512D01*
Y-121115D01*
X642691Y-121178D01*
Y-130084D01*
X642703Y-130147D01*
Y-146400D01*
X641906Y-147042D01*
X641898Y-147039D01*
X640506D01*
X639220Y-147572D01*
X638235Y-148556D01*
X637702Y-149843D01*
Y-151235D01*
X638235Y-152522D01*
X639220Y-153506D01*
X640506Y-154039D01*
X641898D01*
X643185Y-153506D01*
X644169Y-152522D01*
X644702Y-151235D01*
Y-149843D01*
X644620Y-149644D01*
X645749Y-148515D01*
X646136Y-147936D01*
X646272Y-147254D01*
Y-132033D01*
X646673Y-131925D01*
X647288Y-131859D01*
X649075Y-133646D01*
X651359Y-134965D01*
X653906Y-135647D01*
X654717D01*
Y-125631D01*
Y-115615D01*
X653906D01*
X651359Y-116298D01*
X649711Y-117249D01*
X649087Y-116436D01*
X674422Y-91101D01*
X695485D01*
X695664Y-92101D01*
X695085Y-92488D01*
X685704Y-101868D01*
X685704Y-101869D01*
X680884Y-106689D01*
X679910Y-106226D01*
X679413Y-105025D01*
X678428Y-104041D01*
X677142Y-103508D01*
X675750D01*
X674463Y-104041D01*
X673479Y-105025D01*
X672946Y-106312D01*
Y-107704D01*
X673479Y-108991D01*
X674463Y-109975D01*
X675664Y-110472D01*
X676126Y-111447D01*
X674685Y-112888D01*
X674685Y-112888D01*
X671942Y-115631D01*
X665465D01*
Y-121405D01*
X665270Y-121482D01*
X664449Y-121576D01*
X663240Y-119481D01*
X661375Y-117616D01*
X659091Y-116298D01*
X656544Y-115615D01*
X655733D01*
Y-125631D01*
Y-135647D01*
X656544D01*
X656659Y-135616D01*
X656864Y-135714D01*
X657460Y-136379D01*
X657471Y-136451D01*
Y-136743D01*
X657402Y-137088D01*
X657471Y-137432D01*
Y-137784D01*
X657606Y-138109D01*
X657674Y-138453D01*
X657869Y-138745D01*
X658004Y-139070D01*
X658252Y-139319D01*
X658448Y-139611D01*
X658740Y-139806D01*
X658988Y-140055D01*
X659313Y-140189D01*
X659605Y-140385D01*
X659950Y-140453D01*
X660275Y-140588D01*
X660626D01*
X660971Y-140656D01*
X665465D01*
Y-145631D01*
X674465D01*
Y-131631D01*
X665465D01*
Y-133519D01*
X662830D01*
X662441Y-132580D01*
X663240Y-131781D01*
X664463Y-129663D01*
X665465Y-129631D01*
X665574Y-129631D01*
X674465D01*
X674465Y-129631D01*
X675393Y-129843D01*
X676017Y-130467D01*
X676375Y-130615D01*
X676175Y-131631D01*
X676175D01*
Y-145631D01*
X679078D01*
X679133Y-145764D01*
X680118Y-146749D01*
X681404Y-147281D01*
X682797D01*
X684083Y-146749D01*
X685068Y-145764D01*
X685123Y-145631D01*
X685175D01*
Y-145505D01*
X685601Y-144478D01*
Y-143085D01*
X685175Y-142058D01*
Y-131631D01*
X679827D01*
X679625Y-130615D01*
X679983Y-130467D01*
X680819Y-129631D01*
X685175D01*
Y-115631D01*
X678425D01*
X678005Y-114615D01*
X688228Y-104392D01*
X688228Y-104392D01*
X697085Y-95534D01*
X830192D01*
X831034Y-96376D01*
X832321Y-96909D01*
X833713D01*
X834999Y-96376D01*
X835984Y-95392D01*
X836517Y-94106D01*
Y-92713D01*
X835984Y-91427D01*
X834999Y-90442D01*
X833713Y-89909D01*
X832321D01*
X831034Y-90442D01*
X830050Y-91427D01*
X829827Y-91966D01*
X714863D01*
X714500Y-91100D01*
X714500Y-90950D01*
Y-84600D01*
D02*
G37*
G36*
X205997Y-86027D02*
X205333Y-86492D01*
X203638Y-88512D01*
X202523Y-90902D01*
X202065Y-93499D01*
X202295Y-96127D01*
X203197Y-98605D01*
X203662Y-99269D01*
X211450Y-93815D01*
X205997Y-86027D01*
D02*
G37*
G36*
X714516Y-97284D02*
X709758D01*
Y-100042D01*
X714516D01*
Y-97284D01*
D02*
G37*
G36*
X708742D02*
X703984D01*
Y-100042D01*
X708742D01*
Y-97284D01*
D02*
G37*
G36*
X602606Y-97295D02*
X600479Y-99422D01*
X602323Y-101266D01*
X604450Y-99139D01*
X602606Y-97295D01*
D02*
G37*
G36*
X541898Y-94905D02*
X540506D01*
X539219Y-95438D01*
X538235Y-96423D01*
X537702Y-97709D01*
Y-99101D01*
X538235Y-100388D01*
X539219Y-101372D01*
X540506Y-101905D01*
X541898D01*
X543185Y-101372D01*
X544169Y-100388D01*
X544702Y-99101D01*
Y-97709D01*
X544169Y-96423D01*
X543185Y-95438D01*
X541898Y-94905D01*
D02*
G37*
G36*
X714516Y-101058D02*
X709758D01*
Y-103816D01*
X714516D01*
Y-101058D01*
D02*
G37*
G36*
X708742D02*
X703984D01*
Y-103816D01*
X708742D01*
Y-101058D01*
D02*
G37*
G36*
X599761Y-100140D02*
X597634Y-102267D01*
X599478Y-104111D01*
X601605Y-101984D01*
X599761Y-100140D01*
D02*
G37*
G36*
X220654Y-88611D02*
X212449Y-94356D01*
X204245Y-100101D01*
X204710Y-100765D01*
X206730Y-102460D01*
X209120Y-103575D01*
X211717Y-104033D01*
X214153Y-103820D01*
X214755Y-104622D01*
X214818Y-104712D01*
X219917Y-111995D01*
X230415Y-104644D01*
X231625D01*
X231945Y-105660D01*
X220898Y-113396D01*
X226060Y-120768D01*
X236296Y-113601D01*
X237429Y-114048D01*
X237532Y-114538D01*
X236583Y-115487D01*
X227041Y-122169D01*
X232083Y-129370D01*
X232203Y-129541D01*
X232645Y-130405D01*
X231661Y-132515D01*
X231203Y-135112D01*
X231433Y-137740D01*
X232335Y-140218D01*
X232800Y-140882D01*
X241004Y-135137D01*
X249209Y-129392D01*
X248744Y-128728D01*
X246724Y-127033D01*
X244333Y-125918D01*
X241736Y-125460D01*
X239526Y-125654D01*
X239167Y-124665D01*
X243671Y-121511D01*
X240821Y-117441D01*
X241350Y-116425D01*
X242104D01*
X243390Y-115892D01*
X244375Y-114907D01*
X244907Y-113621D01*
Y-112228D01*
X244375Y-110942D01*
X243390Y-109957D01*
X242104Y-109424D01*
X240711D01*
X239425Y-109957D01*
X238440Y-110942D01*
X238095Y-111776D01*
X236969Y-111939D01*
X234787Y-108823D01*
X235449Y-107997D01*
X236356Y-108373D01*
X237748D01*
X239035Y-107840D01*
X240019Y-106856D01*
X240552Y-105569D01*
Y-104177D01*
X240019Y-102890D01*
X239035Y-101906D01*
X237748Y-101373D01*
X236356D01*
X235583Y-101693D01*
X235488Y-101598D01*
X234910Y-101211D01*
X234227Y-101075D01*
X229362D01*
X226223Y-96593D01*
X221493Y-99904D01*
X221318Y-99789D01*
X220771Y-99170D01*
X221793Y-96978D01*
X222251Y-94381D01*
X222021Y-91754D01*
X221119Y-89275D01*
X220654Y-88611D01*
D02*
G37*
G36*
X194413Y-102673D02*
X193021D01*
X191734Y-103205D01*
X190750Y-104190D01*
X190217Y-105477D01*
Y-106869D01*
X190750Y-108155D01*
X191734Y-109140D01*
X193021Y-109673D01*
X194413D01*
X195700Y-109140D01*
X196684Y-108155D01*
X197217Y-106869D01*
Y-105477D01*
X196684Y-104190D01*
X195700Y-103205D01*
X194413Y-102673D01*
D02*
G37*
G36*
X914532Y-107639D02*
X913140D01*
X911853Y-108171D01*
X910869Y-109156D01*
X910336Y-110442D01*
Y-111835D01*
X910869Y-113121D01*
X911853Y-114106D01*
X913140Y-114639D01*
X914532D01*
X915819Y-114106D01*
X916803Y-113121D01*
X917336Y-111835D01*
Y-110442D01*
X916803Y-109156D01*
X915819Y-108171D01*
X914532Y-107639D01*
D02*
G37*
G36*
X851196Y-97500D02*
X849804D01*
X848517Y-98033D01*
X847533Y-99017D01*
X847000Y-100304D01*
Y-101696D01*
X847533Y-102983D01*
X848517Y-103967D01*
X848806Y-104087D01*
Y-105500D01*
X848941Y-106183D01*
X849328Y-106762D01*
X852670Y-110103D01*
X849456Y-114693D01*
X854186Y-118005D01*
X854137Y-118209D01*
X853743Y-118935D01*
X851334Y-118724D01*
X848736Y-119182D01*
X846346Y-120297D01*
X844326Y-121992D01*
X843861Y-122656D01*
X852066Y-128401D01*
X860270Y-134146D01*
X860735Y-133482D01*
X861637Y-131004D01*
X861867Y-128376D01*
X861409Y-125779D01*
X860376Y-123563D01*
X860924Y-122723D01*
X860987Y-122633D01*
X866087Y-115351D01*
X855671Y-108058D01*
X852564Y-104951D01*
X852483Y-103967D01*
X853467Y-102983D01*
X854000Y-101696D01*
Y-100304D01*
X853467Y-99017D01*
X852483Y-98033D01*
X851196Y-97500D01*
D02*
G37*
G36*
X213116Y-105770D02*
X201648Y-113800D01*
X201710Y-113888D01*
X201426Y-114864D01*
X201017Y-115033D01*
X200033Y-116017D01*
X199500Y-117304D01*
Y-118696D01*
X200033Y-119983D01*
X201017Y-120967D01*
X202304Y-121500D01*
X203696D01*
X204983Y-120967D01*
X205244Y-120706D01*
X206565Y-120822D01*
X206810Y-121172D01*
X218279Y-113142D01*
X213116Y-105770D01*
D02*
G37*
G36*
X707344Y-115615D02*
X706533D01*
Y-125123D01*
X716041D01*
Y-124312D01*
X715359Y-121765D01*
X714040Y-119481D01*
X712175Y-117616D01*
X709891Y-116298D01*
X707344Y-115615D01*
D02*
G37*
G36*
X219259Y-114543D02*
X207791Y-122573D01*
X212953Y-129945D01*
X224422Y-121915D01*
X219259Y-114543D01*
D02*
G37*
G36*
X867725Y-116498D02*
X862563Y-123870D01*
X866984Y-126966D01*
X867072Y-127978D01*
X867033Y-128017D01*
X866500Y-129304D01*
Y-130696D01*
X867033Y-131983D01*
X868017Y-132967D01*
X869304Y-133500D01*
X870696D01*
X871983Y-132967D01*
X872967Y-131983D01*
X873801Y-131740D01*
X874031Y-131900D01*
X879193Y-124528D01*
X867725Y-116498D01*
D02*
G37*
G36*
X417696Y-126500D02*
X416304D01*
X415017Y-127033D01*
X414033Y-128017D01*
X413500Y-129304D01*
Y-130696D01*
X414033Y-131983D01*
X415017Y-132967D01*
X416304Y-133500D01*
X417696D01*
X418983Y-132967D01*
X419967Y-131983D01*
X420500Y-130696D01*
Y-129304D01*
X419967Y-128017D01*
X418983Y-127033D01*
X417696Y-126500D01*
D02*
G37*
G36*
X716041Y-126139D02*
X706533D01*
Y-135647D01*
X707344D01*
X709891Y-134965D01*
X712175Y-133646D01*
X714040Y-131781D01*
X715359Y-129497D01*
X716041Y-126950D01*
Y-126139D01*
D02*
G37*
G36*
X843278Y-123488D02*
X842813Y-124152D01*
X841911Y-126630D01*
X841682Y-129258D01*
X842140Y-131855D01*
X843254Y-134245D01*
X844949Y-136265D01*
X845613Y-136730D01*
X851067Y-128942D01*
X843278Y-123488D01*
D02*
G37*
G36*
X225402Y-123316D02*
X213934Y-131346D01*
X219097Y-138718D01*
X230565Y-130688D01*
X225402Y-123316D01*
D02*
G37*
G36*
X851899Y-129524D02*
X846446Y-137313D01*
X847110Y-137778D01*
X849588Y-138680D01*
X852215Y-138910D01*
X854812Y-138452D01*
X857202Y-137337D01*
X859223Y-135642D01*
X859688Y-134978D01*
X851899Y-129524D01*
D02*
G37*
G36*
X737994Y-116718D02*
X735563D01*
X733317Y-117648D01*
X731599Y-119367D01*
X730668Y-121612D01*
Y-124043D01*
X731599Y-126289D01*
X733317Y-128008D01*
X734815Y-128628D01*
Y-129728D01*
X733317Y-130348D01*
X731599Y-132067D01*
X730668Y-134312D01*
Y-136743D01*
X731599Y-138989D01*
X733317Y-140708D01*
X735563Y-141638D01*
X737994D01*
X740239Y-140708D01*
X741958Y-138989D01*
X742888Y-136743D01*
Y-134312D01*
X741958Y-132067D01*
X740239Y-130348D01*
X738742Y-129728D01*
Y-128628D01*
X740239Y-128008D01*
X741958Y-126289D01*
X742888Y-124043D01*
Y-121612D01*
X741958Y-119367D01*
X740239Y-117648D01*
X737994Y-116718D01*
D02*
G37*
G36*
X355812Y-112693D02*
X340812D01*
X337027Y-113191D01*
X333499Y-114652D01*
X330471Y-116976D01*
X328146Y-120005D01*
X326685Y-123532D01*
X326187Y-127318D01*
X326685Y-131103D01*
X328146Y-134630D01*
X330471Y-137659D01*
X333499Y-139984D01*
X337027Y-141445D01*
X340812Y-141943D01*
X355812D01*
X359597Y-141445D01*
X363125Y-139984D01*
X366153Y-137659D01*
X368478Y-134630D01*
X369939Y-131103D01*
X370437Y-127318D01*
X369939Y-123532D01*
X368478Y-120005D01*
X366153Y-116976D01*
X363125Y-114652D01*
X359597Y-113191D01*
X355812Y-112693D01*
D02*
G37*
G36*
X249792Y-130224D02*
X242003Y-135678D01*
X247457Y-143466D01*
X248121Y-143001D01*
X249816Y-140981D01*
X250931Y-138591D01*
X251388Y-135994D01*
X251159Y-133366D01*
X250257Y-130888D01*
X249792Y-130224D01*
D02*
G37*
G36*
X695885Y-131631D02*
X686885D01*
Y-145631D01*
X695885D01*
Y-131631D01*
D02*
G37*
G36*
X514732Y-138645D02*
X513340D01*
X512053Y-139178D01*
X511069Y-140162D01*
X510536Y-141449D01*
Y-142841D01*
X511069Y-144128D01*
X512053Y-145112D01*
X513340Y-145645D01*
X514732D01*
X516019Y-145112D01*
X517003Y-144128D01*
X517536Y-142841D01*
Y-141449D01*
X517003Y-140162D01*
X516019Y-139178D01*
X514732Y-138645D01*
D02*
G37*
G36*
X241171Y-136260D02*
X233382Y-141714D01*
X233847Y-142378D01*
X235868Y-144073D01*
X238258Y-145188D01*
X240855Y-145646D01*
X243482Y-145416D01*
X245960Y-144514D01*
X246624Y-144049D01*
X241171Y-136260D01*
D02*
G37*
G36*
X474515Y-139735D02*
X473122D01*
X471836Y-140268D01*
X470852Y-141253D01*
X470319Y-142539D01*
Y-143931D01*
X470852Y-145218D01*
X471836Y-146202D01*
X473122Y-146735D01*
X474515D01*
X475801Y-146202D01*
X476786Y-145218D01*
X477319Y-143931D01*
Y-142539D01*
X476786Y-141253D01*
X475801Y-140268D01*
X474515Y-139735D01*
D02*
G37*
G36*
X484172Y-18519D02*
X482779D01*
X481493Y-19051D01*
X480508Y-20036D01*
X479976Y-21322D01*
Y-22715D01*
X480508Y-24001D01*
X481493Y-24986D01*
X482779Y-25518D01*
X483216D01*
Y-138848D01*
X479500D01*
Y-149848D01*
X490500D01*
Y-138848D01*
X486784D01*
Y-24355D01*
X486648Y-23672D01*
X486606Y-23608D01*
X486976Y-22715D01*
Y-21322D01*
X486443Y-20036D01*
X485458Y-19051D01*
X484172Y-18519D01*
D02*
G37*
G36*
X405031Y-146816D02*
X403638D01*
X402352Y-147349D01*
X401367Y-148333D01*
X400835Y-149620D01*
Y-151012D01*
X401367Y-152298D01*
X402352Y-153283D01*
X403638Y-153816D01*
X405031D01*
X406317Y-153283D01*
X407302Y-152298D01*
X407835Y-151012D01*
Y-149620D01*
X407302Y-148333D01*
X406317Y-147349D01*
X405031Y-146816D01*
D02*
G37*
G36*
X522092Y-156359D02*
X519900D01*
Y-159648D01*
X523688D01*
Y-157956D01*
X523567Y-157345D01*
X523221Y-156827D01*
X522703Y-156481D01*
X522092Y-156359D01*
D02*
G37*
G36*
X490516Y-155832D02*
X485508D01*
Y-160840D01*
X490516D01*
Y-155832D01*
D02*
G37*
G36*
X484492D02*
X479484D01*
Y-160840D01*
X484492D01*
Y-155832D01*
D02*
G37*
G36*
X523688Y-160664D02*
X519900D01*
Y-163952D01*
X522092D01*
X522703Y-163831D01*
X523221Y-163485D01*
X523567Y-162967D01*
X523688Y-162356D01*
Y-160664D01*
D02*
G37*
G36*
X518884D02*
X515095D01*
Y-162356D01*
X515216Y-162967D01*
X515563Y-163485D01*
X516081Y-163831D01*
X516692Y-163952D01*
X518884D01*
Y-160664D01*
D02*
G37*
G36*
X490516Y-161856D02*
X485508D01*
Y-166864D01*
X490516D01*
Y-161856D01*
D02*
G37*
G36*
X484492D02*
X479484D01*
Y-166864D01*
X484492D01*
Y-161856D01*
D02*
G37*
%LPD*%
G36*
X821022Y74682D02*
X876022D01*
X880022Y70682D01*
Y55682D01*
X878022Y53682D01*
X803717Y53682D01*
X792747Y64652D01*
Y78407D01*
X795070Y80731D01*
Y80840D01*
X814865D01*
X821022Y74682D01*
D02*
G37*
G36*
X882022Y28682D02*
Y17862D01*
X849022Y-15138D01*
Y-52318D01*
X852022Y-55318D01*
X871022D01*
X873022Y-57318D01*
X872948Y-57392D01*
Y-73392D01*
X871022Y-75318D01*
X850835D01*
X850271Y-74473D01*
X850394Y-74176D01*
Y-72783D01*
X849861Y-71497D01*
X848877Y-70512D01*
X847590Y-69980D01*
X846198D01*
X844911Y-70512D01*
X843927Y-71497D01*
X843394Y-72783D01*
Y-74176D01*
X843517Y-74473D01*
X842953Y-75318D01*
X825022Y-75318D01*
X823022Y-73318D01*
Y11682D01*
X821022Y13682D01*
Y32682D01*
X823022Y34682D01*
X876022D01*
X882022Y28682D01*
D02*
G37*
G36*
X942000Y-58750D02*
X953000Y-69750D01*
Y-80750D01*
X950396Y-83354D01*
X932103Y-83354D01*
X916909Y-68159D01*
X916989Y-67353D01*
X917188Y-67001D01*
X917447Y-66742D01*
X918496Y-65171D01*
X918865Y-63318D01*
X918496Y-61464D01*
X917447Y-59893D01*
X917256Y-59766D01*
X917564Y-58750D01*
X942000Y-58750D01*
D02*
G37*
D10*
X772672Y17562D02*
X785372D01*
X737073Y57654D02*
X746073D01*
X737073D02*
Y59927D01*
D15*
X223742Y110005D02*
G03*
X223745Y110003I845J1240D01*
G01*
X231087Y105070D02*
G03*
X231136Y105038I976J1452D01*
G01*
X223745Y110003D02*
G03*
X223750Y110000I844J1240D01*
G01*
X866619Y114520D02*
G03*
X865783Y114226I143J-1744D01*
G01*
X183783Y57689D02*
Y58003D01*
X189279Y63499D02*
Y84644D01*
X183783Y58003D02*
X189279Y63499D01*
X171727Y45430D02*
X172867Y44289D01*
X171727Y45430D02*
Y45701D01*
X146800Y50000D02*
X167428D01*
X171727Y45701D01*
X172867Y43478D02*
Y44289D01*
X131006Y28687D02*
Y35867D01*
X134235Y39097D01*
X131006Y28687D02*
X142943Y16750D01*
X160384Y39097D02*
X164560Y43273D01*
X134235Y39097D02*
X160384D01*
X142943Y16750D02*
X212000D01*
X142089Y45289D02*
X146800Y50000D01*
X189279Y84644D02*
X192984Y88349D01*
X543383Y-52963D02*
X566197D01*
X543008Y-53338D02*
X543383Y-52963D01*
X566197D02*
X566572Y-52588D01*
X620811Y-82156D02*
X633531D01*
X641375Y-90000D01*
X578096Y73664D02*
Y79103D01*
Y73664D02*
X594352Y57409D01*
X290756Y104744D02*
X292834D01*
X280000Y115500D02*
X290756Y104744D01*
X292834D02*
X293408Y104170D01*
X642293Y-83950D02*
X643104D01*
X638365Y-81265D02*
X639608D01*
X632250Y-75150D02*
X638365Y-81265D01*
X639608D02*
X642293Y-83950D01*
X325635Y63365D02*
X351037D01*
X301750Y87250D02*
X325635Y63365D01*
X352982Y49851D02*
X359692Y56562D01*
Y64136D01*
X573145Y67079D02*
X595942Y44283D01*
Y480D02*
X600326Y-3904D01*
X595942Y480D02*
Y44283D01*
X560322Y82412D02*
X566572D01*
X557065Y85670D02*
X560322Y82412D01*
X557065Y85670D02*
Y86250D01*
X258941Y-20059D02*
X347691D01*
X471722Y103972D01*
X259588Y-28397D02*
X260035Y-28844D01*
X349792D01*
X468445Y89809D01*
Y90194D01*
X466817Y128801D02*
X467628D01*
X469128Y127749D02*
X476966Y119911D01*
Y87716D02*
Y119911D01*
X467628Y128801D02*
X468681Y127749D01*
X469128D01*
X467771Y120323D02*
X471722Y116372D01*
X467068Y120323D02*
X467771D01*
X481750Y8500D02*
Y124949D01*
X475323Y131376D02*
X481750Y124949D01*
X566572Y22412D02*
X576617D01*
X588435Y10594D01*
X453500Y-62297D02*
Y-19750D01*
X264803Y-88000D02*
X427797D01*
X453500Y-62297D01*
X428001Y-95000D02*
X475500Y-47501D01*
Y-9000D01*
X261289Y-95000D02*
X428001D01*
X705006Y-107381D02*
X718119D01*
X695006Y-117381D02*
X705006Y-107381D01*
X718119D02*
X724250Y-101250D01*
X941500Y-8500D02*
X945000Y-12000D01*
Y-40000D02*
Y-12000D01*
X675947Y-114150D02*
X675947D01*
X686966Y-103130D02*
Y-103130D01*
X675947Y-114150D02*
X686966Y-103130D01*
Y-103130D02*
X696346Y-93750D01*
X669965Y-120131D02*
X675947Y-114150D01*
X641202Y-150539D02*
X644488Y-147254D01*
Y-130097D01*
X230721Y966D02*
X254887Y25132D01*
X150177Y966D02*
X230721D01*
X119525Y-38525D02*
X231431D01*
X99500Y-18500D02*
X119525Y-38525D01*
X231431D02*
X250718Y-57812D01*
X88876Y-77497D02*
X91049Y-75324D01*
X75600Y-80400D02*
X78503Y-77497D01*
X88876D01*
X91049Y-75324D02*
X92998D01*
X97322Y-71000D02*
X181000D01*
X92998Y-75324D02*
X97322Y-71000D01*
X184000Y-68000D02*
X234289D01*
X181000Y-71000D02*
X184000Y-68000D01*
X234289D02*
X261289Y-95000D01*
X89250Y-70226D02*
X98680Y-60796D01*
X237599D02*
X264803Y-88000D01*
X98680Y-60796D02*
X237599D01*
X104250Y-6250D02*
X127339Y-29339D01*
X104250Y-6250D02*
Y28506D01*
X127339Y-29339D02*
X228931D01*
X109520Y-4520D02*
Y31848D01*
Y-4520D02*
X129628Y-24628D01*
X231758D01*
X131414Y-19414D02*
X233304D01*
X114500Y-2500D02*
Y35928D01*
Y-2500D02*
X131414Y-19414D01*
X99500Y-18500D02*
Y20750D01*
X98250Y-24250D02*
X121702Y-47702D01*
X95760Y-21750D02*
X98250Y-24240D01*
X94250Y-20250D02*
Y14500D01*
X121702Y-47702D02*
X233626D01*
X94250Y-20250D02*
X95750Y-21750D01*
X95760D01*
X98250Y-24250D02*
Y-24240D01*
X83726Y-9500D02*
Y-9000D01*
X85726Y-11500D02*
X86226D01*
X80766Y-52066D02*
X88097Y-44735D01*
Y-13371D01*
X83726Y-9500D02*
X85726Y-11500D01*
X86226D02*
X88097Y-13371D01*
X233304Y-19414D02*
X257133Y-43243D01*
X666000Y-90000D02*
X680850Y-75150D01*
X641375Y-90000D02*
X666000D01*
X680850Y-75150D02*
X709250D01*
X673683Y-89317D02*
X707783D01*
X644488Y-121166D02*
Y-118512D01*
X673683Y-89317D01*
X233626Y-47702D02*
X248765Y-62840D01*
X228931Y-29339D02*
X252378Y-52786D01*
X231758Y-24628D02*
X255208Y-48078D01*
X136201Y-13010D02*
X150177Y966D01*
X134844Y-5346D02*
X146190Y6000D01*
X225750D01*
X184291Y-82325D02*
X193594Y-73022D01*
X230499D01*
X258477Y-101000D01*
X887984Y-115295D02*
X888802Y-114477D01*
Y-112291D01*
X887984Y-119153D02*
Y-115295D01*
X887410Y-119727D02*
X887984Y-119153D01*
X883164Y-106653D02*
Y-106653D01*
Y-106653D02*
X888802Y-112291D01*
X661247Y-49750D02*
X662770Y-48226D01*
X695026D01*
X707409Y-62450D02*
X709250D01*
X705909Y-60950D02*
X707409Y-62450D01*
X705909Y-60950D02*
Y-59109D01*
X695026Y-48226D02*
X705909Y-59109D01*
X614250Y-49750D02*
X661247D01*
X258477Y-101000D02*
X363750D01*
X365676Y-102926D01*
X363882Y25132D02*
X428830Y90080D01*
X254887Y25132D02*
X363882D01*
X249937Y30187D02*
X362187D01*
X225750Y6000D02*
X249937Y30187D01*
X362187D02*
X420545Y88545D01*
X215628Y11750D02*
X238825Y34947D01*
X360447D01*
X401857Y76357D01*
X358508Y39758D02*
X386106Y67356D01*
X235008Y39758D02*
X358508D01*
X212000Y16750D02*
X235008Y39758D01*
X367202Y57093D02*
Y62380D01*
X354541Y44432D02*
X367202Y57093D01*
X227972Y44432D02*
X354541D01*
X207069Y23530D02*
X227972Y44432D01*
X269652Y87250D02*
X301750D01*
X346449Y58351D02*
X348825Y55975D01*
X348825D01*
X349057Y55744D01*
X350809D01*
X303500Y78500D02*
X323649Y58351D01*
X350809Y55744D02*
X351383Y55170D01*
X323649Y58351D02*
X346449D01*
X257674Y78500D02*
X303500D01*
X300562Y72740D02*
X319324Y53978D01*
X344566D02*
X344689Y54101D01*
X319324Y53978D02*
X344566D01*
X254330Y72740D02*
X300562D01*
X224979Y102092D02*
X227402Y99669D01*
X254330Y72740D01*
X131886Y45289D02*
X142089D01*
X124500Y37903D02*
X131886Y45289D01*
X64841Y65073D02*
X65119Y64796D01*
X67960D01*
X104250Y28506D01*
X248765Y-62840D02*
X393401D01*
X250718Y-57812D02*
X399943D01*
X252378Y-52786D02*
X406397D01*
X255208Y-48078D02*
X413349D01*
X257133Y-43243D02*
X420215D01*
X68150Y-70500D02*
X88750D01*
Y-70226D02*
X89250D01*
X65350Y-55000D02*
X68284Y-52066D01*
X80766D01*
X84750Y-9000D02*
Y9750D01*
X393401Y-62840D02*
X400564Y-70004D01*
X399943Y-57812D02*
X403552Y-61421D01*
X406397Y-52786D02*
X410689Y-57078D01*
X63518Y77849D02*
Y78545D01*
Y77849D02*
X109520Y31848D01*
X62375Y79688D02*
Y80500D01*
Y79688D02*
X63518Y78545D01*
X867035Y114554D02*
X871083Y114886D01*
X874467Y114815D01*
X866619Y114520D02*
X867035Y114554D01*
X874467Y114105D02*
X874712D01*
X876132Y114815D02*
X876961Y115644D01*
X874712Y114105D02*
X875422Y114815D01*
X874467D02*
X875422D01*
X872230Y111868D02*
X874467Y114105D01*
X696346Y-93750D02*
X832676D01*
X833017Y-93409D01*
X847159Y-94091D02*
X863006D01*
X724250Y-101250D02*
X840000D01*
X847159Y-94091D01*
X863006D02*
X866391Y-97476D01*
X962000Y93250D02*
X974750Y80500D01*
X908500Y93250D02*
X962000D01*
X224979Y102092D02*
X224979Y102092D01*
X227062D01*
X224979D02*
X224979D01*
X873240Y-104278D02*
Y-103728D01*
X870701Y-101188D02*
X873240Y-103728D01*
X866391Y-97476D02*
X870057D01*
X858979Y-98792D02*
Y-98610D01*
X863914Y-106249D02*
Y-103727D01*
X858979Y-98792D02*
X863914Y-103727D01*
X850590Y-105500D02*
X857771Y-112681D01*
X850590Y-105500D02*
Y-101090D01*
X850500Y-101000D02*
X850590Y-101090D01*
X669965Y-122631D02*
Y-120131D01*
X691385Y-122631D02*
Y-120131D01*
X694135Y-117381D01*
X695006D01*
X453500Y-19750D02*
X481750Y8500D01*
X124500Y20500D02*
X133250Y11750D01*
X215628D01*
X124500Y20500D02*
Y37903D01*
X148337Y23530D02*
X207069D01*
X192984Y88349D02*
X199808D01*
X238306Y49851D01*
X352982D01*
X367202Y62380D02*
X367776Y62954D01*
X537134Y104342D02*
X549064Y92412D01*
X566572D01*
X537447Y112772D02*
X547807Y102412D01*
X566572D01*
X542192Y116774D02*
X546553Y112412D01*
X566572D01*
X483476Y-22830D02*
Y-22018D01*
X485000Y-144348D02*
Y-24355D01*
X483476Y-22830D02*
X485000Y-24355D01*
X49101Y80451D02*
X56670Y88020D01*
X138020D02*
X199760Y149760D01*
X56670Y88020D02*
X138020D01*
X49101Y17899D02*
Y80451D01*
Y17899D02*
X58500Y8500D01*
X76997Y73431D02*
X114500Y35928D01*
X64190Y56060D02*
X99500Y20750D01*
X64177Y56060D02*
X64190D01*
X60572Y48091D02*
X60659D01*
X94250Y14500D01*
X85096Y-81780D02*
X183746D01*
X184291Y-82325D01*
X65350Y-80400D02*
X75600D01*
X488513Y119838D02*
Y120650D01*
X487396Y118721D02*
X488513Y119838D01*
X487396Y2896D02*
Y118721D01*
X475500Y-9000D02*
X487396Y2896D01*
X80900Y-85976D02*
X85096Y-81780D01*
X50801Y-85976D02*
X80900D01*
X498228Y-47228D02*
X528451Y-77451D01*
X500058Y106620D02*
Y107169D01*
X498228Y-47228D02*
Y104790D01*
X500058Y106620D01*
X493439Y-50689D02*
Y112840D01*
Y-50689D02*
X525338Y-82588D01*
X493439Y112840D02*
X493876Y113277D01*
X403552Y-62018D02*
Y-61421D01*
X426267Y-70004D02*
X428395Y-67875D01*
X400564Y-70004D02*
X426267D01*
X428395Y-67875D02*
X428875D01*
X65350Y-67700D02*
X68150Y-70500D01*
X413349Y-48078D02*
X418900Y-53628D01*
X420215Y-43243D02*
X423064Y-46092D01*
X352580Y-36670D02*
X476966Y87716D01*
X260148Y-36670D02*
X352580D01*
X258711Y-11224D02*
X349776D01*
X465176Y104176D01*
X258657Y5864D02*
X352364D01*
X446750Y100250D01*
X258808Y-2750D02*
X351250D01*
X258444Y-2387D02*
X258808Y-2750D01*
X351250D02*
X457869Y103869D01*
X471722Y103972D02*
Y116372D01*
X465176Y104176D02*
Y110442D01*
X457869Y103869D02*
Y119326D01*
X446750Y100250D02*
Y107500D01*
X49650Y-84825D02*
Y-35028D01*
X52150Y-32550D02*
X55078Y-29622D01*
Y-29600D01*
X52128Y-32550D02*
X52150D01*
X57925Y-29600D02*
X63626D01*
X55078D02*
X57925D01*
X49650Y-35028D02*
X52128Y-32550D01*
X63626Y-29600D02*
X65350D01*
X49650Y-84825D02*
X50801Y-85976D01*
X369500Y-106750D02*
X413750D01*
X365676Y-102926D02*
X369500Y-106750D01*
X365676Y-102926D02*
X365676D01*
X386106Y67356D02*
Y84907D01*
X401857Y76357D02*
Y96227D01*
X420545Y88545D02*
Y117318D01*
X428830Y90080D02*
Y122691D01*
X576686Y-64391D02*
X577079Y-63998D01*
X583228Y-64731D02*
Y-50276D01*
X579090Y-68869D02*
X583228Y-64731D01*
X577845Y-130750D02*
X620745Y-87850D01*
X231136Y105038D02*
X257674Y78500D01*
X223750Y110000D02*
X231087Y105070D01*
X219834Y112668D02*
X223742Y110005D01*
X213419Y111106D02*
X215784Y112476D01*
X223750Y110000D02*
X223750D01*
X218750Y112668D02*
X219834D01*
X209906Y113235D02*
X213419Y111106D01*
X215784Y112476D02*
X218750Y112668D01*
X203121Y121887D02*
X203695Y121313D01*
X209906Y113235D02*
Y113235D01*
X203695Y119446D02*
X209906Y113235D01*
X203695Y119446D02*
Y121313D01*
X227062Y102092D02*
X228444Y100710D01*
X199760Y149760D02*
X366510D01*
X378100Y161350D01*
X485000D01*
X726750Y118773D02*
Y126437D01*
X559500Y159750D02*
X693437D01*
X726750Y126437D01*
X732523Y113000D02*
X741000D01*
X726750Y118773D02*
X732523Y113000D01*
X742074Y112891D02*
X742648Y112317D01*
X741000Y113000D02*
X741109Y112891D01*
X742074D01*
X544100Y144350D02*
X559500Y159750D01*
X502000Y144350D02*
X544100D01*
X698757Y104242D02*
X850982D01*
X689592Y113408D02*
X698757Y104242D01*
X850982D02*
X865783Y114226D01*
X974750Y24750D02*
Y80500D01*
X958500Y8500D02*
X974750Y24750D01*
X515000Y-89500D02*
X516250D01*
X516500Y-89250D01*
X495750Y-108750D02*
X515000Y-89500D01*
X495750Y-155098D02*
Y-108750D01*
Y-155098D02*
X502000Y-161348D01*
X532154Y-112711D02*
X555443Y-136000D01*
X532154Y-112711D02*
Y-112328D01*
X531070Y-111244D02*
Y-110432D01*
Y-111244D02*
X532154Y-112328D01*
X566572Y7412D02*
X567322Y6662D01*
X574524Y3235D02*
X574691D01*
X571096Y6662D02*
X574524Y3235D01*
X567322Y6662D02*
X571096D01*
X572910Y16662D02*
X580369Y9204D01*
Y2881D02*
Y9204D01*
Y2881D02*
X588560Y-5310D01*
X567322Y16662D02*
X572910D01*
X566572Y17412D02*
X567322Y16662D01*
X224504Y-102860D02*
X234227D01*
X236240Y-104873D01*
X237052D01*
X223070Y-104294D02*
X224504Y-102860D01*
X857771Y-115022D02*
Y-112681D01*
X644475Y-130084D02*
Y-121178D01*
Y-130084D02*
X644488Y-130097D01*
X644475Y-121178D02*
X644488Y-121166D01*
X535897Y-72441D02*
X566425D01*
X535750Y-72295D02*
X535897Y-72441D01*
X707783Y-89317D02*
X709250Y-87850D01*
X583228Y-50276D02*
X604576Y-28927D01*
X574520Y-68320D02*
X575068Y-68869D01*
X579090D01*
X567305Y-68320D02*
X574520D01*
X566572Y-67588D02*
X567305Y-68320D01*
X577079Y-63998D02*
Y-41579D01*
X573838Y-38338D02*
X577079Y-41579D01*
X567322Y-38338D02*
X573838D01*
X672416Y-64166D02*
X672500Y-64250D01*
X656472Y-64083D02*
X656556Y-64166D01*
X672416D01*
X630250Y-75150D02*
X632250D01*
X813050Y76700D02*
Y85733D01*
X674738Y138158D02*
Y150324D01*
X673422Y136842D02*
X674738Y138158D01*
X577850Y27412D02*
X578688Y28250D01*
X566572Y27412D02*
X577850D01*
X578688Y28250D02*
X579500D01*
X235356Y-119238D02*
X241408Y-113186D01*
X235356Y-121840D02*
Y-119238D01*
X241408Y-113186D02*
Y-112924D01*
X566572Y-37588D02*
X567322Y-38338D01*
X680675Y-124825D02*
Y-122631D01*
X678000Y-127500D02*
X680675Y-124825D01*
X850157Y100486D02*
X854383Y96260D01*
X684132Y110868D02*
X694514Y100486D01*
X850157D01*
X854514Y115240D02*
X857712D01*
X850430Y111156D02*
X854514Y115240D01*
X689592Y113408D02*
Y128882D01*
X684132Y134342D02*
Y136842D01*
Y134342D02*
X689592Y128882D01*
X684132Y110868D02*
Y120382D01*
Y120842D01*
X854383Y96260D02*
X868564D01*
X869998Y97694D01*
X868444D02*
X869998D01*
X868250Y97500D02*
X868444Y97694D01*
X863217Y106467D02*
X863855D01*
X861000Y104250D02*
X863217Y106467D01*
X227500Y114750D02*
X229156Y113095D01*
Y112831D02*
Y113095D01*
X216049Y122008D02*
Y122944D01*
X209973Y129020D02*
X216049Y122944D01*
X235299Y121604D02*
X269652Y87250D01*
X223013Y104058D02*
X224979Y102092D01*
X615355Y-100550D02*
X630250D01*
X620745Y-87850D02*
X630250D01*
X562625Y-130750D02*
X577845D01*
X542740Y-110864D02*
X562625Y-130750D01*
X538923Y-110864D02*
X542740D01*
X538349Y-110290D02*
X538923Y-110864D01*
X579905Y-136000D02*
X615355Y-100550D01*
X555443Y-136000D02*
X579905D01*
X524250Y-40750D02*
X542331Y-22669D01*
X566491D01*
X601207Y8560D02*
X604576Y5192D01*
X600520Y8560D02*
X601207D01*
X604576Y-28927D02*
Y5192D01*
X586500Y25250D02*
X592801Y18949D01*
Y-6948D02*
Y18949D01*
Y-6948D02*
X597176Y-11324D01*
X600326Y-3957D02*
Y-3904D01*
X504890Y-38732D02*
X505001Y-38621D01*
X510371D01*
X529338Y-57588D01*
X510068Y-45036D02*
X527620Y-62588D01*
X566572D01*
X547839Y-41867D02*
X565932D01*
X566613Y-42547D01*
X547265Y-41293D02*
X547839Y-41867D01*
X554081Y-47669D02*
X566491D01*
X554000Y-47750D02*
X554081Y-47669D01*
X566491D02*
X566572Y-47588D01*
X573515Y-21772D02*
Y-20569D01*
X566572Y-17588D02*
X567322Y-18338D01*
X571284D01*
X573515Y-21772D02*
X574089Y-22346D01*
X571284Y-18338D02*
X573515Y-20569D01*
X588560Y-12716D02*
Y-5310D01*
X566905Y67079D02*
X573145D01*
X567197Y61787D02*
X571628D01*
X566572Y62412D02*
X567197Y61787D01*
X571628D02*
X586500Y46915D01*
Y25250D02*
Y46915D01*
X574447Y-2588D02*
X582589Y-10730D01*
Y-24967D02*
Y-10730D01*
X575266Y-14680D02*
X576078D01*
X566572Y-12588D02*
X573174D01*
X575266Y-14680D01*
X566460Y-27700D02*
X566572Y-27588D01*
X557542Y-27812D02*
X557655Y-27700D01*
X566460D01*
X541307Y-32588D02*
X566572D01*
X566613Y-32547D01*
X528573Y-45322D02*
X541307Y-32588D01*
X529338Y-57588D02*
X566572D01*
X528451Y-77451D02*
X566435D01*
X525338Y-82588D02*
X566572D01*
Y-2588D02*
X574447D01*
X560036Y47456D02*
X566528D01*
X539162Y77412D02*
X566572D01*
X560765Y37412D02*
X566572D01*
X566572Y87412D02*
X567322Y86662D01*
X570537D01*
X566572Y122412D02*
X567251Y121733D01*
X571575D01*
X566572Y117412D02*
X567299Y116685D01*
X571527D01*
X557081Y12331D02*
X566491D01*
X566572Y72412D02*
X573338D01*
X566572Y67412D02*
X566905Y67079D01*
X566572Y107412D02*
X567322Y106662D01*
X571054D01*
X557200Y2187D02*
X566347D01*
X556975Y1962D02*
X557200Y2187D01*
X559793Y52412D02*
X566572D01*
X554581Y57081D02*
X566241D01*
X559251Y42412D02*
X566572D01*
Y32412D02*
X572865D01*
X574560Y34107D01*
X566572Y97412D02*
X572822D01*
X557044Y-7578D02*
X566562D01*
X566528Y47456D02*
X566572Y47412D01*
X566562Y-7578D02*
X566572Y-7588D01*
X566435Y-77451D02*
X566572Y-77588D01*
X566491Y-22669D02*
X566572Y-22588D01*
X566491Y12331D02*
X566572Y12412D01*
X566347Y2187D02*
X566572Y2412D01*
X566241Y57081D02*
X566572Y57412D01*
X557034Y-7567D02*
X557044Y-7578D01*
X574569Y94352D02*
X575143Y93778D01*
X574569Y94352D02*
Y95665D01*
X572822Y97412D02*
X574569Y95665D01*
X574560Y34107D02*
X575372D01*
X558004Y41165D02*
X559251Y42412D01*
X557192Y41165D02*
X558004D01*
X554250Y56750D02*
X554581Y57081D01*
X558017Y50636D02*
X559793Y52412D01*
X557205Y50636D02*
X558017D01*
X579479Y87258D02*
X579696Y87475D01*
Y98019D01*
X571054Y106662D02*
X579696Y98019D01*
X600750Y40750D02*
X601000Y40500D01*
X600750Y40750D02*
Y45000D01*
X573338Y72412D02*
X600750Y45000D01*
X557000Y12250D02*
X557081Y12331D01*
X583727Y83518D02*
X583730Y83520D01*
Y89018D01*
X583727Y89021D02*
X583730Y89018D01*
X583727Y89021D02*
Y104484D01*
X571527Y116685D02*
X583727Y104484D01*
X589743Y80876D02*
X589964Y81097D01*
Y103343D01*
X571575Y121733D02*
X589964Y103343D01*
X570537Y86662D02*
X578096Y79103D01*
X557951Y34599D02*
X560765Y37412D01*
X535500Y73750D02*
X539162Y77412D01*
X558613Y46034D02*
X560036Y47456D01*
X551564Y46034D02*
X558613D01*
D20*
X929949Y5028D02*
D03*
X661453Y-39538D02*
D03*
X938934Y-61546D02*
D03*
X619438Y-62506D02*
D03*
X519390Y-150152D02*
D03*
X475051Y143972D02*
D03*
X70223Y1201D02*
D03*
X929950Y-4976D02*
D03*
X519392Y-160156D02*
D03*
X89093Y-87284D02*
D03*
X88750Y-60222D02*
D03*
X70222Y11205D02*
D03*
X475050Y153976D02*
D03*
X619439Y-72511D02*
D03*
X727972Y57706D02*
D03*
X855072Y-49342D02*
D03*
X810073Y30654D02*
D03*
X938933Y-51542D02*
D03*
X810072Y40658D02*
D03*
X855073Y-59346D02*
D03*
X810073Y47654D02*
D03*
X810072Y57658D02*
D03*
X746072Y67658D02*
D03*
X746073Y57654D02*
D03*
X737072Y67658D02*
D03*
X737073Y57654D02*
D03*
X727971Y67710D02*
D03*
X661454Y-49542D02*
D03*
X88750Y-70226D02*
D03*
X89093Y-77280D02*
D03*
D22*
X73722Y-9000D02*
D03*
X765046Y85732D02*
D03*
X795998Y-4368D02*
D03*
X795998Y3632D02*
D03*
X815702Y4915D02*
D03*
X825706Y4916D02*
D03*
X785994Y3631D02*
D03*
Y-4369D02*
D03*
X803046Y85732D02*
D03*
X813050Y85733D02*
D03*
X784046Y85732D02*
D03*
X794050Y85733D02*
D03*
X775050D02*
D03*
X83726Y-9000D02*
D03*
D26*
X593729Y-95194D02*
D03*
X586656Y-102268D02*
D03*
D31*
X914022Y-63318D02*
D03*
X656022Y-3318D02*
D03*
X914022Y-45318D02*
D03*
X656022Y-21318D02*
D03*
D32*
X928067Y-62351D02*
D03*
Y-48351D02*
D03*
D37*
X818022Y-56318D02*
D03*
Y-68318D02*
D03*
X832022D02*
D03*
Y-56318D02*
D03*
D38*
X802022Y-48318D02*
D03*
Y-32318D02*
D03*
Y-16318D02*
D03*
X815022Y-42318D02*
D03*
X833022D02*
D03*
X784022Y-16318D02*
D03*
Y-32318D02*
D03*
Y-48318D02*
D03*
D43*
X566572Y-117588D02*
D03*
X566572Y-112588D02*
D03*
Y-122588D02*
D03*
Y-107588D02*
D03*
Y-102588D02*
D03*
Y-97588D02*
D03*
X566572Y-92588D02*
D03*
Y-87588D02*
D03*
X566572Y-82588D02*
D03*
Y-77588D02*
D03*
Y-72588D02*
D03*
Y-67588D02*
D03*
Y-62588D02*
D03*
Y-57588D02*
D03*
X566572Y-52588D02*
D03*
Y-47588D02*
D03*
X566572Y-42588D02*
D03*
Y-37588D02*
D03*
X566572Y-32588D02*
D03*
X566572Y-27588D02*
D03*
Y-22588D02*
D03*
X566572Y-17588D02*
D03*
Y-12588D02*
D03*
Y-7588D02*
D03*
X566572Y-2588D02*
D03*
Y2412D02*
D03*
X566572Y7412D02*
D03*
Y12412D02*
D03*
Y17412D02*
D03*
X566572Y22412D02*
D03*
Y27412D02*
D03*
Y32412D02*
D03*
Y37412D02*
D03*
Y42412D02*
D03*
X566572Y47412D02*
D03*
Y52412D02*
D03*
X566572Y57412D02*
D03*
Y62412D02*
D03*
Y67412D02*
D03*
Y72412D02*
D03*
Y77412D02*
D03*
Y82412D02*
D03*
X566572Y87412D02*
D03*
Y92412D02*
D03*
Y97412D02*
D03*
X566572Y102412D02*
D03*
Y107412D02*
D03*
Y112412D02*
D03*
X566572Y117412D02*
D03*
X566572Y122412D02*
D03*
D101*
X661455Y-39536D02*
X666954D01*
X661453Y-39538D02*
X661455Y-39536D01*
X668965Y-137088D02*
X669965Y-138088D01*
Y-138631D02*
Y-138088D01*
X630250Y-62450D02*
X632450D01*
X619467Y-62478D02*
X630222D01*
X632450Y-62450D02*
X632500Y-62500D01*
X630222Y-62478D02*
X630250Y-62450D01*
X619438Y-62506D02*
X619467Y-62478D01*
X614013Y-62506D02*
X619438D01*
X660971Y-137088D02*
X668965D01*
X469720Y144039D02*
X474984D01*
X810073Y40659D02*
Y47654D01*
X810073Y47654D01*
D102*
X888909Y113437D02*
Y117637D01*
X883104Y107633D02*
X888909Y113437D01*
X694921Y136921D02*
Y144921D01*
X695000Y145000D01*
X694842Y136842D02*
X694921Y136921D01*
X883104Y106871D02*
Y107633D01*
X930000Y6000D02*
X930500Y5500D01*
X938500D02*
X941500Y8500D01*
X930500Y5500D02*
X938500D01*
X929921Y5000D02*
X929949Y5028D01*
X925000Y5000D02*
X929921D01*
X870000Y-130000D02*
X871226Y-128774D01*
Y-124547D01*
X870878Y-124199D02*
X871226Y-124547D01*
X593729Y-94937D02*
X595000Y-93666D01*
Y-93409D01*
X593729Y-95194D02*
Y-94937D01*
X524924Y-150076D02*
X525000Y-150000D01*
X519466Y-150076D02*
X524924D01*
X519390Y-150152D02*
X519466Y-150076D01*
X518890Y-150152D02*
X519390D01*
X516030Y-153012D02*
X518890Y-150152D01*
X505000Y-150083D02*
X507929Y-153012D01*
X516030D01*
X502000Y-144348D02*
X505000Y-147348D01*
Y-150083D02*
Y-147348D01*
X207935Y-113471D02*
X209963D01*
X203406Y-118000D02*
X207935Y-113471D01*
X203000Y-118000D02*
X203406D01*
X599761Y-99422D02*
Y-98573D01*
X572982Y-112588D02*
X573144Y-112426D01*
X566572Y-112588D02*
X572982D01*
X560000Y-112750D02*
X560162Y-112588D01*
X566572D01*
X560000Y-117750D02*
X560162Y-117588D01*
X566572D01*
X572982D02*
X573144Y-117426D01*
X566572Y-117588D02*
X572982D01*
X599761Y-98573D02*
X600753Y-97581D01*
X603156Y-93815D02*
Y-93409D01*
X600753Y-96218D02*
X603156Y-93815D01*
X600753Y-97581D02*
Y-96218D01*
X575053Y-122588D02*
X583500Y-114141D01*
X587002Y-102483D02*
X591851Y-107332D01*
X566572Y-122588D02*
X575053D01*
X586656Y-104023D02*
Y-102268D01*
X583500Y-107179D02*
X586656Y-104023D01*
X583500Y-114141D02*
Y-107179D01*
X591851Y-107332D02*
X592336Y-106846D01*
X586946Y-102483D02*
X587002D01*
X794050Y85733D02*
X794051Y85733D01*
X803045D01*
X772672Y82856D02*
X775050Y85233D01*
X772672Y71802D02*
Y82856D01*
X784046Y85232D02*
X785372Y83906D01*
Y71802D02*
Y83906D01*
X727971Y67710D02*
X758222D01*
X759972Y69460D01*
Y71802D01*
D103*
X484811Y144161D02*
X485000Y144350D01*
X475240Y144161D02*
X484811D01*
X475051Y143972D02*
X475240Y144161D01*
X216000Y137000D02*
X222192Y130808D01*
Y130781D02*
Y130808D01*
X70424Y1000D02*
X76000D01*
X69723Y701D02*
X70223Y1201D01*
X70424Y1000D01*
X68001Y701D02*
X69723D01*
X61050Y-6250D02*
X68001Y701D01*
X60750Y-6250D02*
X61050D01*
X58800Y-8200D02*
X60750Y-6250D01*
X58800Y-8500D02*
Y-8200D01*
X13086Y-81850D02*
X14535Y-80400D01*
X24650D01*
X13086Y-84182D02*
Y-81850D01*
D106*
X241296Y-135553D02*
D03*
X212158Y-93940D02*
D03*
Y93786D02*
D03*
X241296Y135399D02*
D03*
X706025Y-125631D02*
D03*
X655225D02*
D03*
X851772Y128953D02*
D03*
X880910Y87340D02*
D03*
X880912Y-87204D02*
D03*
X851774Y-128817D02*
D03*
X709582Y123842D02*
D03*
X658782D02*
D03*
D107*
X736750Y123000D02*
D03*
Y135700D02*
D03*
X736778Y-135528D02*
D03*
Y-122828D02*
D03*
D108*
X94458Y71101D02*
D03*
X105000Y52500D02*
D03*
X139546Y52137D02*
D03*
X149821Y44945D02*
D03*
X167269Y92579D02*
D03*
X99726Y82410D02*
D03*
X100511Y65842D02*
D03*
X888909Y117637D02*
D03*
X695000Y145000D02*
D03*
X921648Y82015D02*
D03*
X679523Y99222D02*
D03*
X666000Y79000D02*
D03*
X899000Y63000D02*
D03*
X925000Y5000D02*
D03*
X666954Y-39536D02*
D03*
X652971Y94345D02*
D03*
X579000Y120518D02*
D03*
X587955Y71306D02*
D03*
X642539Y60055D02*
D03*
X622526Y-570D02*
D03*
X594000Y-52000D02*
D03*
X949500Y-73750D02*
D03*
X944052D02*
D03*
X949500Y-79750D02*
D03*
X944052D02*
D03*
X938604D02*
D03*
Y-73750D02*
D03*
X739478Y-83411D02*
D03*
X913836Y-111139D02*
D03*
X870000Y-130000D02*
D03*
X676446Y-107008D02*
D03*
X614013Y-62506D02*
D03*
X557561Y-88700D02*
D03*
X595000Y-93409D02*
D03*
X660971Y-137088D02*
D03*
X525000Y-150000D02*
D03*
X514036Y-142145D02*
D03*
X487968Y149653D02*
D03*
X469720Y144039D02*
D03*
X400513Y109424D02*
D03*
X357291Y74005D02*
D03*
X338481Y73405D02*
D03*
X323180Y11510D02*
D03*
X216000Y137000D02*
D03*
X162022Y119080D02*
D03*
X4471Y87845D02*
D03*
X302876Y19254D02*
D03*
X369000Y-28000D02*
D03*
X204674Y-3284D02*
D03*
X417000Y-130000D02*
D03*
X473819Y-143235D02*
D03*
X371008Y-81508D02*
D03*
X232292Y-82899D02*
D03*
X203000Y-118000D02*
D03*
X404334Y-150316D02*
D03*
X163479Y-54752D02*
D03*
X76000Y1000D02*
D03*
X30450Y289D02*
D03*
X201034Y-77442D02*
D03*
X193717Y-106173D02*
D03*
X110183Y-89073D02*
D03*
X13086Y-84182D02*
D03*
X177500Y47500D02*
D03*
X182799Y65465D02*
D03*
X769000Y93000D02*
D03*
X560000Y-117750D02*
D03*
X573144Y-117426D02*
D03*
X573144Y-112426D02*
D03*
X651500Y-3250D02*
D03*
X660500D02*
D03*
X751000Y9000D02*
D03*
X760000Y6000D02*
D03*
X755000D02*
D03*
X774750Y-34500D02*
D03*
X775000Y-42000D02*
D03*
X765000Y6000D02*
D03*
X792750Y-56000D02*
D03*
X811068Y-77067D02*
D03*
X853000Y-43000D02*
D03*
X858000D02*
D03*
X775000Y-21000D02*
D03*
Y-11000D02*
D03*
Y-16000D02*
D03*
Y-6000D02*
D03*
Y-1000D02*
D03*
X853000Y-38000D02*
D03*
X852904Y-17783D02*
D03*
X853000Y-23000D02*
D03*
Y-33000D02*
D03*
Y-28000D02*
D03*
X856628Y-13925D02*
D03*
X860352Y-10066D02*
D03*
X867800Y-2349D02*
D03*
X871523Y1509D02*
D03*
X875247Y5368D02*
D03*
X878971Y9226D02*
D03*
X886419Y16943D02*
D03*
X890000Y21000D02*
D03*
X720250Y32250D02*
D03*
X751000Y19000D02*
D03*
Y14000D02*
D03*
Y24000D02*
D03*
Y34000D02*
D03*
Y39000D02*
D03*
Y49000D02*
D03*
X720750Y51000D02*
D03*
X766000Y34000D02*
D03*
X775000D02*
D03*
Y41083D02*
D03*
X783625D02*
D03*
X792250Y34000D02*
D03*
X783625D02*
D03*
X792250Y41083D02*
D03*
X766000Y48167D02*
D03*
Y41083D02*
D03*
X753000Y54000D02*
D03*
X775000Y55250D02*
D03*
X766000D02*
D03*
X783625Y48167D02*
D03*
X792250D02*
D03*
X775000D02*
D03*
X792250Y55250D02*
D03*
X783625D02*
D03*
X753000Y59000D02*
D03*
Y73000D02*
D03*
Y78000D02*
D03*
Y83000D02*
D03*
X756000Y87000D02*
D03*
X784000Y93000D02*
D03*
X779000D02*
D03*
X774000D02*
D03*
X799000D02*
D03*
X809000D02*
D03*
X789000D02*
D03*
X804000D02*
D03*
X794000D02*
D03*
X915000Y21000D02*
D03*
X925000D02*
D03*
X895000D02*
D03*
X910000D02*
D03*
X905000D02*
D03*
X888000Y47000D02*
D03*
X908418Y53061D02*
D03*
X908361Y60223D02*
D03*
X935000Y21000D02*
D03*
X940000D02*
D03*
X930000D02*
D03*
X935750Y28500D02*
D03*
X950000Y21000D02*
D03*
X955000D02*
D03*
X945000D02*
D03*
X935250Y37750D02*
D03*
X937250Y59500D02*
D03*
X949519Y60071D02*
D03*
X957250Y37750D02*
D03*
X957500Y28750D02*
D03*
X958000Y45000D02*
D03*
X953526Y49311D02*
D03*
X814000Y93000D02*
D03*
X820000Y87000D02*
D03*
X888000Y72000D02*
D03*
X942750Y62250D02*
D03*
X404319Y115428D02*
D03*
X634750Y32500D02*
D03*
X634781Y47752D02*
D03*
X615750Y50750D02*
D03*
X560000Y-112750D02*
D03*
X818326Y-76881D02*
D03*
X402135Y-132737D02*
D03*
X414200Y-119965D02*
D03*
X427226Y-132676D02*
D03*
X578500Y-109750D02*
D03*
X810000Y-58000D02*
D03*
X803000Y2000D02*
D03*
Y7000D02*
D03*
X808000D02*
D03*
Y12000D02*
D03*
Y17000D02*
D03*
Y22000D02*
D03*
X775000Y4000D02*
D03*
X770000Y6000D02*
D03*
X751000Y29000D02*
D03*
Y44000D02*
D03*
X759000Y60000D02*
D03*
Y91000D02*
D03*
X764000Y93000D02*
D03*
X819000Y92000D02*
D03*
X844000Y82000D02*
D03*
X849000D02*
D03*
X854000D02*
D03*
X859000D02*
D03*
X864000D02*
D03*
X869000D02*
D03*
X888000Y62000D02*
D03*
Y57000D02*
D03*
Y52000D02*
D03*
X920000Y21000D02*
D03*
X900000D02*
D03*
X882695Y13085D02*
D03*
X875000Y-29000D02*
D03*
X864076Y-6208D02*
D03*
X867846Y-46602D02*
D03*
X863000Y-45000D02*
D03*
X808000Y2000D02*
D03*
X803000Y-3000D02*
D03*
X808000D02*
D03*
Y-8000D02*
D03*
Y-13000D02*
D03*
Y-18000D02*
D03*
Y-23000D02*
D03*
Y-28000D02*
D03*
Y-33000D02*
D03*
Y-38000D02*
D03*
Y-43000D02*
D03*
Y-48000D02*
D03*
X810000Y-53000D02*
D03*
X829000Y82000D02*
D03*
X824000Y84000D02*
D03*
X834000Y82000D02*
D03*
X839000D02*
D03*
X888000Y67000D02*
D03*
Y77000D02*
D03*
X510000Y-148012D02*
D03*
X603156Y-93409D02*
D03*
X629657Y-5068D02*
D03*
X21000Y54000D02*
D03*
X34000D02*
D03*
Y67000D02*
D03*
X21000D02*
D03*
X93556Y-49972D02*
D03*
Y-56416D02*
D03*
Y-43528D02*
D03*
X99983Y-56416D02*
D03*
Y-49972D02*
D03*
Y-43528D02*
D03*
X106410Y-49972D02*
D03*
Y-56416D02*
D03*
Y-43528D02*
D03*
X190000Y-52000D02*
D03*
X210000D02*
D03*
X190000Y-34000D02*
D03*
X210000D02*
D03*
X200000Y-52000D02*
D03*
Y-34000D02*
D03*
X190000Y-43000D02*
D03*
X200000D02*
D03*
X210000D02*
D03*
X653000Y-81000D02*
D03*
X661000D02*
D03*
X634000Y-111000D02*
D03*
X693000Y-63000D02*
D03*
X703000Y-68000D02*
D03*
X735000Y-60000D02*
D03*
X717000Y-64000D02*
D03*
X724000Y-60000D02*
D03*
X210840Y-14500D02*
D03*
X200000Y-15025D02*
D03*
X643727Y89403D02*
D03*
X43000Y-79000D02*
D03*
X38000Y-65000D02*
D03*
Y-58000D02*
D03*
Y-51000D02*
D03*
X43000Y-42000D02*
D03*
X54000Y-39000D02*
D03*
X60000D02*
D03*
X66000D02*
D03*
X72000D02*
D03*
X78000Y-38000D02*
D03*
X83000Y-34000D02*
D03*
X94000Y-26000D02*
D03*
X83000Y-63000D02*
D03*
X45000Y-33000D02*
D03*
Y-26000D02*
D03*
X53000Y-20000D02*
D03*
X62000D02*
D03*
X71000D02*
D03*
X80000D02*
D03*
X38249Y-20111D02*
D03*
X30000Y-20000D02*
D03*
X21000D02*
D03*
X11000D02*
D03*
X124988Y-53088D02*
D03*
X131000Y-53000D02*
D03*
X137000D02*
D03*
X70000Y21000D02*
D03*
X135000Y-34000D02*
D03*
X141000D02*
D03*
X147000D02*
D03*
X153000D02*
D03*
X143000Y-53000D02*
D03*
X149000D02*
D03*
X155000D02*
D03*
X120000Y-30000D02*
D03*
X257000Y-70000D02*
D03*
X138731Y-75413D02*
D03*
X139975Y-66000D02*
D03*
X151463D02*
D03*
X162951D02*
D03*
X128488D02*
D03*
X120000Y-90000D02*
D03*
X127500D02*
D03*
X117000Y-66000D02*
D03*
X109270Y-20246D02*
D03*
X89569Y3464D02*
D03*
X77000Y8000D02*
D03*
X15296Y-4511D02*
D03*
X159000Y-13000D02*
D03*
X145000D02*
D03*
X125000Y-1000D02*
D03*
X135000Y6000D02*
D03*
X119000Y19000D02*
D03*
X224000Y12000D02*
D03*
X239000Y27000D02*
D03*
X202000Y30000D02*
D03*
X206000Y73000D02*
D03*
X157000Y96000D02*
D03*
X175000D02*
D03*
X92000Y83000D02*
D03*
X57169Y69478D02*
D03*
X56000Y39000D02*
D03*
X5000Y-82500D02*
D03*
Y-90000D02*
D03*
Y-62500D02*
D03*
Y-55000D02*
D03*
Y-32500D02*
D03*
Y-25000D02*
D03*
Y-17500D02*
D03*
Y-10000D02*
D03*
Y-2500D02*
D03*
Y5000D02*
D03*
Y12500D02*
D03*
Y20000D02*
D03*
Y27500D02*
D03*
Y35000D02*
D03*
Y42500D02*
D03*
Y50000D02*
D03*
Y57500D02*
D03*
Y65000D02*
D03*
Y72500D02*
D03*
X24033Y90868D02*
D03*
X12500Y-90000D02*
D03*
X20000D02*
D03*
X27500D02*
D03*
X35000D02*
D03*
X42500D02*
D03*
X97500D02*
D03*
X135000D02*
D03*
X692500Y-107500D02*
D03*
X762500Y-22500D02*
D03*
X760000Y-10000D02*
D03*
X745000Y0D02*
D03*
X730000Y17500D02*
D03*
X717500Y22500D02*
D03*
X707500Y35000D02*
D03*
Y52500D02*
D03*
X715000Y70000D02*
D03*
X730000Y80000D02*
D03*
X742500Y90000D02*
D03*
X821202Y110513D02*
D03*
X820000Y142500D02*
D03*
X880000Y-17500D02*
D03*
X887473Y-5841D02*
D03*
X895000Y5000D02*
D03*
X882500Y-40000D02*
D03*
X895000D02*
D03*
X953978Y-24818D02*
D03*
X915000Y-17500D02*
D03*
X820000Y-142500D02*
D03*
Y-130000D02*
D03*
X845000Y-142500D02*
D03*
X750000D02*
D03*
X727500Y-115000D02*
D03*
X362500Y-75000D02*
D03*
X222500Y-82500D02*
D03*
X430000Y-45000D02*
D03*
X520000Y-25000D02*
D03*
X435000Y-95000D02*
D03*
X422500Y-82500D02*
D03*
X477500Y-55000D02*
D03*
X387500Y-12500D02*
D03*
X427500Y30000D02*
D03*
X457500Y60000D02*
D03*
X475000Y77500D02*
D03*
X505000Y97500D02*
D03*
X542500Y62500D02*
D03*
X509527Y25782D02*
D03*
X545000Y27500D02*
D03*
X550000Y-15000D02*
D03*
X615000Y7500D02*
D03*
X457356Y-118573D02*
D03*
X447500Y-107500D02*
D03*
X452117Y-95916D02*
D03*
X465243Y-140111D02*
D03*
X392500Y-142500D02*
D03*
X362500Y-147500D02*
D03*
X322500Y-150000D02*
D03*
X281735Y-107585D02*
D03*
X238391Y-93710D02*
D03*
X382500Y-100000D02*
D03*
X387742Y-83443D02*
D03*
X256999Y17602D02*
D03*
X270376Y143421D02*
D03*
X382500Y140000D02*
D03*
X440000Y137500D02*
D03*
X172500Y-107500D02*
D03*
X163352Y-134965D02*
D03*
X180754Y-151321D02*
D03*
X269869Y-150041D02*
D03*
X176984Y86130D02*
D03*
X297500Y57500D02*
D03*
X245000D02*
D03*
X460000Y2500D02*
D03*
X470715Y9540D02*
D03*
X507514Y15048D02*
D03*
X597346Y98425D02*
D03*
X550824Y97700D02*
D03*
X555610Y-37301D02*
D03*
X529536Y-69154D02*
D03*
X590859Y-64801D02*
D03*
X439355Y99988D02*
D03*
X603715Y48190D02*
D03*
X613971Y74134D02*
D03*
X637500Y77500D02*
D03*
X626267Y102135D02*
D03*
X670000Y102500D02*
D03*
X612481Y-78192D02*
D03*
X551949Y-106921D02*
D03*
X650000Y-142500D02*
D03*
X475000Y-127500D02*
D03*
X311122Y-76054D02*
D03*
X120000Y42500D02*
D03*
X60000Y30000D02*
D03*
X42414Y45007D02*
D03*
X185000Y150000D02*
D03*
X165000Y130000D02*
D03*
X290000Y117500D02*
D03*
X277500Y97500D02*
D03*
X680000Y10000D02*
D03*
X690000Y-20000D02*
D03*
X682500Y-167500D02*
D03*
X462192Y-48801D02*
D03*
X377500Y-25000D02*
D03*
X975000Y-110000D02*
D03*
X944298Y-110808D02*
D03*
X782500Y-80000D02*
D03*
X695000Y-37500D02*
D03*
X615000Y32500D02*
D03*
X525000Y50000D02*
D03*
X954957Y64285D02*
D03*
X955000Y70000D02*
D03*
X947737Y72681D02*
D03*
X943451Y77723D02*
D03*
X938006Y80698D02*
D03*
X920604Y65243D02*
D03*
X910220Y85786D02*
D03*
X172867Y43478D02*
D03*
X183783Y57689D02*
D03*
X164560Y43273D02*
D03*
X543008Y-53338D02*
D03*
X620811Y-82156D02*
D03*
X594352Y57409D02*
D03*
X293408Y104170D02*
D03*
X256750Y66750D02*
D03*
X643104Y-83950D02*
D03*
X351037Y63365D02*
D03*
X359692Y64136D02*
D03*
X557065Y86250D02*
D03*
X466353Y-15545D02*
D03*
X259588Y-28397D02*
D03*
X258941Y-20059D02*
D03*
X467068Y120323D02*
D03*
X466817Y128801D02*
D03*
X475323Y131376D02*
D03*
X588435Y10594D02*
D03*
X945000Y-40000D02*
D03*
X641202Y-150539D02*
D03*
X136201Y-13010D02*
D03*
X134844Y-5346D02*
D03*
X887410Y-119727D02*
D03*
X877992Y-113483D02*
D03*
X872230Y111868D02*
D03*
X900726Y-77590D02*
D03*
X957883Y-78702D02*
D03*
X758242Y-79199D02*
D03*
X750879Y-78740D02*
D03*
X846894Y-73480D02*
D03*
X838992Y-81831D02*
D03*
X833017Y-93409D02*
D03*
X682101Y-143781D02*
D03*
X690683Y-124250D02*
D03*
X839549Y-58349D02*
D03*
X544655Y-106334D02*
D03*
X873240Y-104278D02*
D03*
X858979Y-98610D02*
D03*
X850500Y-101000D02*
D03*
X680977Y1504D02*
D03*
X148279Y23471D02*
D03*
X367776Y62954D02*
D03*
X537134Y104342D02*
D03*
X537447Y112772D02*
D03*
X542192Y116774D02*
D03*
X483476Y-22018D02*
D03*
X547596Y20377D02*
D03*
X76997Y73431D02*
D03*
X62375Y80500D02*
D03*
X64841Y65073D02*
D03*
X64177Y56060D02*
D03*
X60572Y48091D02*
D03*
X184291Y-82325D02*
D03*
X500058Y107169D02*
D03*
X493876Y113277D02*
D03*
X488513Y120650D02*
D03*
X84750Y9750D02*
D03*
X403552Y-62018D02*
D03*
X423064Y-46092D02*
D03*
X418900Y-53628D02*
D03*
X410689Y-57078D02*
D03*
X428875Y-67875D02*
D03*
X260148Y-36670D02*
D03*
X258711Y-11224D02*
D03*
X258657Y5864D02*
D03*
X258444Y-2387D02*
D03*
X468445Y90194D02*
D03*
X446750Y107500D02*
D03*
X351383Y55170D02*
D03*
X576686Y-64391D02*
D03*
X228444Y100710D02*
D03*
X742648Y112317D02*
D03*
X908500Y93250D02*
D03*
X516500Y-89250D02*
D03*
X184000Y112500D02*
D03*
X240750Y72750D02*
D03*
X413750Y-106750D02*
D03*
X237052Y-104873D02*
D03*
X428830Y122691D02*
D03*
X401857Y96227D02*
D03*
X344689Y54101D02*
D03*
X541202Y-98405D02*
D03*
X576821Y-75409D02*
D03*
X585140Y-70926D02*
D03*
X535750Y-72295D02*
D03*
X656472Y-64083D02*
D03*
X661057Y-72327D02*
D03*
X674738Y150324D02*
D03*
X579500Y28250D02*
D03*
X672500Y-64250D02*
D03*
X420545Y117318D02*
D03*
X241408Y-112924D02*
D03*
X216000Y-121500D02*
D03*
X678000Y-127500D02*
D03*
X850430Y111156D02*
D03*
X684250Y142750D02*
D03*
X861000Y104250D02*
D03*
X694505Y124505D02*
D03*
X227500Y114750D02*
D03*
X209973Y129020D02*
D03*
X203121Y121887D02*
D03*
X280000Y115500D02*
D03*
X386106Y84907D02*
D03*
X222249Y-131017D02*
D03*
X691000Y-137500D02*
D03*
X868331Y120756D02*
D03*
X673500Y123750D02*
D03*
X659217Y61013D02*
D03*
X675250Y45750D02*
D03*
X600520Y8560D02*
D03*
X504890Y-38732D02*
D03*
X510068Y-45036D02*
D03*
X547265Y-41293D02*
D03*
X554000Y-47750D02*
D03*
X538349Y-110290D02*
D03*
X531070Y-110432D02*
D03*
X600326Y-3957D02*
D03*
X597176Y-11324D02*
D03*
X588560Y-12716D02*
D03*
X574691Y3235D02*
D03*
X582589Y-24967D02*
D03*
X576078Y-14680D02*
D03*
X574089Y-22346D02*
D03*
X557542Y-27812D02*
D03*
X524250Y-40750D02*
D03*
X528573Y-45322D02*
D03*
X601000Y40500D02*
D03*
X614250Y-49750D02*
D03*
X575372Y34107D02*
D03*
X557951Y34599D02*
D03*
X557192Y41165D02*
D03*
X551564Y46034D02*
D03*
X589743Y80876D02*
D03*
X554250Y56750D02*
D03*
X583791Y83454D02*
D03*
X579479Y87258D02*
D03*
X575143Y93778D02*
D03*
X557205Y50636D02*
D03*
X535500Y73750D02*
D03*
X465176Y110442D02*
D03*
X457869Y119326D02*
D03*
X556975Y1962D02*
D03*
X557034Y-7567D02*
D03*
X557000Y12250D02*
D03*
X737073Y59927D02*
D03*
D109*
X883104Y106871D02*
D03*
X209963Y-113471D02*
D03*
X870818Y124417D02*
D03*
X876961Y115644D02*
D03*
X863855Y106467D02*
D03*
X869998Y97694D02*
D03*
X857712Y115240D02*
D03*
X235356Y-121840D02*
D03*
X223070Y-104294D02*
D03*
X229213Y-113067D02*
D03*
X216106Y-122244D02*
D03*
X222249Y-131017D02*
D03*
D110*
X694842Y136842D02*
D03*
X669965Y-138631D02*
D03*
X673422Y120842D02*
D03*
X694842D02*
D03*
X684132D02*
D03*
Y136842D02*
D03*
X673422D02*
D03*
X691385Y-138631D02*
D03*
X680675D02*
D03*
Y-122631D02*
D03*
X669965D02*
D03*
X691385D02*
D03*
D111*
X941500Y8500D02*
D03*
X58500Y-8500D02*
D03*
X41500Y8500D02*
D03*
X958500Y-8500D02*
D03*
X58500Y8500D02*
D03*
X41500Y-8500D02*
D03*
X958500Y8500D02*
D03*
X941500Y-8500D02*
D03*
D112*
X898750Y-64000D02*
D03*
X867250D02*
D03*
X705772Y-21318D02*
D03*
X674272D02*
D03*
D113*
X870878Y-124199D02*
D03*
X222192Y130781D02*
D03*
X870057Y-97476D02*
D03*
X857771Y-115022D02*
D03*
X863914Y-106249D02*
D03*
X877021Y-115426D02*
D03*
X883164Y-106653D02*
D03*
X209906Y113235D02*
D03*
X216049Y122008D02*
D03*
X229156Y112831D02*
D03*
X235299Y121604D02*
D03*
X223013Y104058D02*
D03*
D114*
X630250Y-62450D02*
D03*
X709250Y-100550D02*
D03*
X709250Y-62450D02*
D03*
X709250Y-75150D02*
D03*
X709250Y-87850D02*
D03*
X630250Y-100550D02*
D03*
Y-87850D02*
D03*
X630250Y-75150D02*
D03*
D115*
X502000Y-144348D02*
D03*
X485000Y144350D02*
D03*
X502000Y161350D02*
D03*
X485000Y-161348D02*
D03*
X502000D02*
D03*
X485000Y-144348D02*
D03*
Y161350D02*
D03*
X502000Y144350D02*
D03*
D116*
X24650Y-80400D02*
D03*
Y-29600D02*
D03*
X24650Y-55000D02*
D03*
X24650Y-67700D02*
D03*
X65350Y-42300D02*
D03*
Y-80400D02*
D03*
Y-67700D02*
D03*
X65350Y-55000D02*
D03*
X24650Y-42300D02*
D03*
X65350Y-29600D02*
D03*
D117*
X625022Y41682D02*
D03*
X730022D02*
D03*
Y-20318D02*
D03*
X625022D02*
D03*
D118*
X607962Y-84712D02*
D03*
X600538Y-77288D02*
D03*
D119*
X599761Y-99422D02*
D03*
X592336Y-106846D02*
D03*
D120*
X779022Y44682D02*
D03*
D121*
X798072Y17562D02*
D03*
X759972D02*
D03*
Y71802D02*
D03*
X772672Y71802D02*
D03*
X785372Y71802D02*
D03*
X798072Y71802D02*
D03*
X772672Y17562D02*
D03*
X785372D02*
D03*
D122*
X815022Y-26318D02*
D03*
Y-9318D02*
D03*
X833022D02*
D03*
Y-26318D02*
D03*
D123*
X850022Y63932D02*
D03*
Y23432D02*
D03*
D124*
X541572Y-132588D02*
D03*
Y132412D02*
D03*
D125*
X913681Y-63659D02*
X914022Y-63318D01*
X898750Y-64000D02*
X899091Y-63659D01*
X913681D01*
X785372Y-4369D02*
Y3631D01*
Y-32318D02*
Y-16318D01*
Y-44468D02*
Y-32318D01*
Y-16318D02*
Y-4369D01*
Y3631D02*
Y17562D01*
X571088Y-105338D02*
X601522Y-74903D01*
X566822Y-105338D02*
X571088D01*
X624522Y-20318D02*
X625022D01*
X616522Y-28318D02*
X624522Y-20318D01*
X616522Y-37225D02*
Y-28318D01*
X601522Y-52225D02*
X616522Y-37225D01*
X601522Y-74903D02*
Y-52225D01*
X626022Y-21318D02*
X656022D01*
X625022Y-20318D02*
X626022Y-21318D01*
X656022D02*
X656022Y-21318D01*
X674272D01*
X784022Y-50818D02*
Y-49318D01*
X730022Y-20318D02*
X736829Y-27125D01*
X783175Y-51665D02*
X784022Y-50818D01*
X748125Y-27125D02*
X772665Y-51665D01*
X783175D01*
X736829Y-27125D02*
X748125D01*
X729022Y-21318D02*
X730022Y-20318D01*
X705772Y-21318D02*
X729022D01*
X784022Y-45818D02*
X785372Y-44468D01*
M02*
