G04*
G04 #@! TF.GenerationSoftware,Altium Limited,Altium Designer,25.7.1 (20)*
G04*
G04 Layer_Color=16711935*
%FSLAX44Y44*%
%MOMM*%
G71*
G04*
G04 #@! TF.SameCoordinates,0BC58763-356E-4A0F-A031-124E3283D0B1*
G04*
G04*
G04 #@! TF.FilePolarity,Negative*
G04*
G01*
G75*
G04:AMPARAMS|DCode=59|XSize=0.7532mm|YSize=0.8532mm|CornerRadius=0.1566mm|HoleSize=0mm|Usage=FLASHONLY|Rotation=270.000|XOffset=0mm|YOffset=0mm|HoleType=Round|Shape=RoundedRectangle|*
%AMROUNDEDRECTD59*
21,1,0.7532,0.5400,0,0,270.0*
21,1,0.4400,0.8532,0,0,270.0*
1,1,0.3132,-0.2700,-0.2200*
1,1,0.3132,-0.2700,0.2200*
1,1,0.3132,0.2700,0.2200*
1,1,0.3132,0.2700,-0.2200*
%
%ADD59ROUNDEDRECTD59*%
G04:AMPARAMS|DCode=61|XSize=0.7532mm|YSize=0.8532mm|CornerRadius=0.1566mm|HoleSize=0mm|Usage=FLASHONLY|Rotation=0.000|XOffset=0mm|YOffset=0mm|HoleType=Round|Shape=RoundedRectangle|*
%AMROUNDEDRECTD61*
21,1,0.7532,0.5400,0,0,0.0*
21,1,0.4400,0.8532,0,0,0.0*
1,1,0.3132,0.2200,-0.2700*
1,1,0.3132,-0.2200,-0.2700*
1,1,0.3132,-0.2200,0.2700*
1,1,0.3132,0.2200,0.2700*
%
%ADD61ROUNDEDRECTD61*%
G04:AMPARAMS|DCode=65|XSize=0.7532mm|YSize=0.8532mm|CornerRadius=0.1566mm|HoleSize=0mm|Usage=FLASHONLY|Rotation=45.000|XOffset=0mm|YOffset=0mm|HoleType=Round|Shape=RoundedRectangle|*
%AMROUNDEDRECTD65*
21,1,0.7532,0.5400,0,0,45.0*
21,1,0.4400,0.8532,0,0,45.0*
1,1,0.3132,0.3465,-0.0354*
1,1,0.3132,0.0354,-0.3465*
1,1,0.3132,-0.3465,0.0354*
1,1,0.3132,-0.0354,0.3465*
%
%ADD65ROUNDEDRECTD65*%
G04:AMPARAMS|DCode=70|XSize=1.1032mm|YSize=1.6032mm|CornerRadius=0.1916mm|HoleSize=0mm|Usage=FLASHONLY|Rotation=270.000|XOffset=0mm|YOffset=0mm|HoleType=Round|Shape=RoundedRectangle|*
%AMROUNDEDRECTD70*
21,1,1.1032,1.2200,0,0,270.0*
21,1,0.7200,1.6032,0,0,270.0*
1,1,0.3832,-0.6100,-0.3600*
1,1,0.3832,-0.6100,0.3600*
1,1,0.3832,0.6100,0.3600*
1,1,0.3832,0.6100,-0.3600*
%
%ADD70ROUNDEDRECTD70*%
G04:AMPARAMS|DCode=71|XSize=0.9032mm|YSize=1.2032mm|CornerRadius=0.1716mm|HoleSize=0mm|Usage=FLASHONLY|Rotation=270.000|XOffset=0mm|YOffset=0mm|HoleType=Round|Shape=RoundedRectangle|*
%AMROUNDEDRECTD71*
21,1,0.9032,0.8600,0,0,270.0*
21,1,0.5600,1.2032,0,0,270.0*
1,1,0.3432,-0.4300,-0.2800*
1,1,0.3432,-0.4300,0.2800*
1,1,0.3432,0.4300,0.2800*
1,1,0.3432,0.4300,-0.2800*
%
%ADD71ROUNDEDRECTD71*%
G04:AMPARAMS|DCode=76|XSize=0.9032mm|YSize=1.2032mm|CornerRadius=0.1716mm|HoleSize=0mm|Usage=FLASHONLY|Rotation=180.000|XOffset=0mm|YOffset=0mm|HoleType=Round|Shape=RoundedRectangle|*
%AMROUNDEDRECTD76*
21,1,0.9032,0.8600,0,0,180.0*
21,1,0.5600,1.2032,0,0,180.0*
1,1,0.3432,-0.2800,0.4300*
1,1,0.3432,0.2800,0.4300*
1,1,0.3432,0.2800,-0.4300*
1,1,0.3432,-0.2800,-0.4300*
%
%ADD76ROUNDEDRECTD76*%
G04:AMPARAMS|DCode=77|XSize=1.1032mm|YSize=1.6032mm|CornerRadius=0.1916mm|HoleSize=0mm|Usage=FLASHONLY|Rotation=180.000|XOffset=0mm|YOffset=0mm|HoleType=Round|Shape=RoundedRectangle|*
%AMROUNDEDRECTD77*
21,1,1.1032,1.2200,0,0,180.0*
21,1,0.7200,1.6032,0,0,180.0*
1,1,0.3832,-0.3600,0.6100*
1,1,0.3832,0.3600,0.6100*
1,1,0.3832,0.3600,-0.6100*
1,1,0.3832,-0.3600,-0.6100*
%
%ADD77ROUNDEDRECTD77*%
%ADD82R,1.0032X0.5032*%
%ADD98C,2.0032*%
%ADD99C,1.2252*%
%ADD100C,0.2032*%
G04:AMPARAMS|DCode=126|XSize=0.9032mm|YSize=1.4032mm|CornerRadius=0mm|HoleSize=0mm|Usage=FLASHONLY|Rotation=125.000|XOffset=0mm|YOffset=0mm|HoleType=Round|Shape=Rectangle|*
%AMROTATEDRECTD126*
4,1,4,0.8338,0.0325,-0.3157,-0.7724,-0.8338,-0.0325,0.3157,0.7724,0.8338,0.0325,0.0*
%
%ADD126ROTATEDRECTD126*%

%ADD127R,0.9032X1.4032*%
%ADD128R,1.1032X1.1032*%
%ADD129R,1.3532X2.0032*%
G04:AMPARAMS|DCode=130|XSize=0.9032mm|YSize=1.4032mm|CornerRadius=0mm|HoleSize=0mm|Usage=FLASHONLY|Rotation=55.000|XOffset=0mm|YOffset=0mm|HoleType=Round|Shape=Rectangle|*
%AMROTATEDRECTD130*
4,1,4,0.3157,-0.7724,-0.8338,0.0325,-0.3157,0.7724,0.8338,-0.0325,0.3157,-0.7724,0.0*
%
%ADD130ROTATEDRECTD130*%

%ADD131R,1.0532X0.6532*%
%ADD132R,1.1032X1.1032*%
%ADD133R,2.9932X0.9432*%
%ADD134R,2.6532X2.5532*%
G04:AMPARAMS|DCode=135|XSize=0.7032mm|YSize=0.6232mm|CornerRadius=0mm|HoleSize=0mm|Usage=FLASHONLY|Rotation=315.000|XOffset=0mm|YOffset=0mm|HoleType=Round|Shape=Rectangle|*
%AMROTATEDRECTD135*
4,1,4,-0.4690,0.0283,-0.0283,0.4690,0.4690,-0.0283,0.0283,-0.4690,-0.4690,0.0283,0.0*
%
%ADD135ROTATEDRECTD135*%

G04:AMPARAMS|DCode=136|XSize=0.7032mm|YSize=0.6232mm|CornerRadius=0mm|HoleSize=0mm|Usage=FLASHONLY|Rotation=45.000|XOffset=0mm|YOffset=0mm|HoleType=Round|Shape=Rectangle|*
%AMROTATEDRECTD136*
4,1,4,-0.0283,-0.4690,-0.4690,-0.0283,0.0283,0.4690,0.4690,0.0283,-0.0283,-0.4690,0.0*
%
%ADD136ROTATEDRECTD136*%

%ADD137R,3.3032X2.8032*%
%ADD138R,0.8532X1.7282*%
%ADD139R,1.3032X1.6532*%
%ADD140R,5.8032X1.7532*%
%ADD141R,1.0032X0.6032*%
D59*
X929949Y5028D02*
D03*
X661453Y-39538D02*
D03*
X938934Y-61546D02*
D03*
X619438Y-62506D02*
D03*
X519390Y-150152D02*
D03*
X475051Y143972D02*
D03*
X70223Y1201D02*
D03*
X929950Y-4976D02*
D03*
X519392Y-160156D02*
D03*
X89093Y-87284D02*
D03*
X88750Y-60222D02*
D03*
X70222Y11205D02*
D03*
X475050Y153976D02*
D03*
X619439Y-72511D02*
D03*
X727972Y57706D02*
D03*
X855072Y-49342D02*
D03*
X810073Y30654D02*
D03*
X938933Y-51542D02*
D03*
X810072Y40658D02*
D03*
X855073Y-59346D02*
D03*
X810073Y47654D02*
D03*
X810072Y57658D02*
D03*
X746072Y67658D02*
D03*
X746073Y57654D02*
D03*
X737072Y67658D02*
D03*
X737073Y57654D02*
D03*
X727971Y67710D02*
D03*
X661454Y-49542D02*
D03*
X88750Y-70226D02*
D03*
X89093Y-77280D02*
D03*
D61*
X73722Y-9000D02*
D03*
X765046Y85732D02*
D03*
X795998Y-4368D02*
D03*
X795998Y3632D02*
D03*
X815702Y4915D02*
D03*
X825706Y4916D02*
D03*
X785994Y3631D02*
D03*
Y-4369D02*
D03*
X803046Y85732D02*
D03*
X813050Y85733D02*
D03*
X784046Y85732D02*
D03*
X794050Y85733D02*
D03*
X775050D02*
D03*
X83726Y-9000D02*
D03*
D65*
X593729Y-95194D02*
D03*
X586656Y-102268D02*
D03*
D70*
X914022Y-63318D02*
D03*
X656022Y-3318D02*
D03*
X914022Y-45318D02*
D03*
X656022Y-21318D02*
D03*
D71*
X928067Y-62351D02*
D03*
Y-48351D02*
D03*
D76*
X818022Y-56318D02*
D03*
Y-68318D02*
D03*
X832022D02*
D03*
Y-56318D02*
D03*
D77*
X802022Y-48318D02*
D03*
Y-32318D02*
D03*
Y-16318D02*
D03*
X815022Y-42318D02*
D03*
X833022D02*
D03*
X784022Y-16318D02*
D03*
Y-32318D02*
D03*
Y-48318D02*
D03*
D82*
X566572Y-117588D02*
D03*
X566572Y-112588D02*
D03*
Y-122588D02*
D03*
Y-107588D02*
D03*
Y-102588D02*
D03*
Y-97588D02*
D03*
X566572Y-92588D02*
D03*
Y-87588D02*
D03*
X566572Y-82588D02*
D03*
Y-77588D02*
D03*
Y-72588D02*
D03*
Y-67588D02*
D03*
Y-62588D02*
D03*
Y-57588D02*
D03*
X566572Y-52588D02*
D03*
Y-47588D02*
D03*
X566572Y-42588D02*
D03*
Y-37588D02*
D03*
X566572Y-32588D02*
D03*
X566572Y-27588D02*
D03*
Y-22588D02*
D03*
X566572Y-17588D02*
D03*
Y-12588D02*
D03*
Y-7588D02*
D03*
X566572Y-2588D02*
D03*
Y2412D02*
D03*
X566572Y7412D02*
D03*
Y12412D02*
D03*
Y17412D02*
D03*
X566572Y22412D02*
D03*
Y27412D02*
D03*
Y32412D02*
D03*
Y37412D02*
D03*
Y42412D02*
D03*
X566572Y47412D02*
D03*
Y52412D02*
D03*
X566572Y57412D02*
D03*
Y62412D02*
D03*
Y67412D02*
D03*
Y72412D02*
D03*
Y77412D02*
D03*
Y82412D02*
D03*
X566572Y87412D02*
D03*
Y92412D02*
D03*
Y97412D02*
D03*
X566572Y102412D02*
D03*
Y107412D02*
D03*
Y112412D02*
D03*
X566572Y117412D02*
D03*
X566572Y122412D02*
D03*
D98*
X241296Y-135553D02*
D03*
X212158Y-93940D02*
D03*
Y93786D02*
D03*
X241296Y135399D02*
D03*
X706025Y-125631D02*
D03*
X655225D02*
D03*
X851772Y128953D02*
D03*
X880910Y87340D02*
D03*
X880912Y-87204D02*
D03*
X851774Y-128817D02*
D03*
X709582Y123842D02*
D03*
X658782D02*
D03*
D99*
X736750Y123000D02*
D03*
Y135700D02*
D03*
X736778Y-135528D02*
D03*
Y-122828D02*
D03*
D100*
X618522Y-127318D02*
D03*
Y127322D02*
D03*
X348312D02*
D03*
Y-127318D02*
D03*
D126*
X883104Y106871D02*
D03*
X209963Y-113471D02*
D03*
X870818Y124417D02*
D03*
X876961Y115644D02*
D03*
X863855Y106467D02*
D03*
X869998Y97694D02*
D03*
X857712Y115240D02*
D03*
X235356Y-121840D02*
D03*
X223070Y-104294D02*
D03*
X229213Y-113067D02*
D03*
X216106Y-122244D02*
D03*
X222249Y-131017D02*
D03*
D127*
X694842Y136842D02*
D03*
X669965Y-138631D02*
D03*
X673422Y120842D02*
D03*
X694842D02*
D03*
X684132D02*
D03*
Y136842D02*
D03*
X673422D02*
D03*
X691385Y-138631D02*
D03*
X680675D02*
D03*
Y-122631D02*
D03*
X669965D02*
D03*
X691385D02*
D03*
D128*
X941500Y8500D02*
D03*
X58500Y-8500D02*
D03*
X41500Y8500D02*
D03*
X958500Y-8500D02*
D03*
X58500Y8500D02*
D03*
X41500Y-8500D02*
D03*
X958500Y8500D02*
D03*
X941500Y-8500D02*
D03*
D129*
X898750Y-64000D02*
D03*
X867250D02*
D03*
X705772Y-21318D02*
D03*
X674272D02*
D03*
D130*
X870878Y-124199D02*
D03*
X222192Y130781D02*
D03*
X870057Y-97476D02*
D03*
X857771Y-115022D02*
D03*
X863914Y-106249D02*
D03*
X877021Y-115426D02*
D03*
X883164Y-106653D02*
D03*
X209906Y113235D02*
D03*
X216049Y122008D02*
D03*
X229156Y112831D02*
D03*
X235299Y121604D02*
D03*
X223013Y104058D02*
D03*
D131*
X630250Y-62450D02*
D03*
X709250Y-100550D02*
D03*
X709250Y-62450D02*
D03*
X709250Y-75150D02*
D03*
X709250Y-87850D02*
D03*
X630250Y-100550D02*
D03*
Y-87850D02*
D03*
X630250Y-75150D02*
D03*
D132*
X502000Y-144348D02*
D03*
X485000Y144350D02*
D03*
X502000Y161350D02*
D03*
X485000Y-161348D02*
D03*
X502000D02*
D03*
X485000Y-144348D02*
D03*
Y161350D02*
D03*
X502000Y144350D02*
D03*
D133*
X24650Y-80400D02*
D03*
Y-29600D02*
D03*
X24650Y-55000D02*
D03*
X24650Y-67700D02*
D03*
X65350Y-42300D02*
D03*
Y-80400D02*
D03*
Y-67700D02*
D03*
X65350Y-55000D02*
D03*
X24650Y-42300D02*
D03*
X65350Y-29600D02*
D03*
D134*
X625022Y41682D02*
D03*
X730022D02*
D03*
Y-20318D02*
D03*
X625022D02*
D03*
D135*
X607962Y-84712D02*
D03*
X600538Y-77288D02*
D03*
D136*
X599761Y-99422D02*
D03*
X592336Y-106846D02*
D03*
D137*
X779022Y44682D02*
D03*
D138*
X798072Y17562D02*
D03*
X759972D02*
D03*
Y71802D02*
D03*
X772672Y71802D02*
D03*
X785372Y71802D02*
D03*
X798072Y71802D02*
D03*
X772672Y17562D02*
D03*
X785372D02*
D03*
D139*
X815022Y-26318D02*
D03*
Y-9318D02*
D03*
X833022D02*
D03*
Y-26318D02*
D03*
D140*
X850022Y63932D02*
D03*
Y23432D02*
D03*
D141*
X541572Y-132588D02*
D03*
Y132412D02*
D03*
M02*
