G04*
G04 #@! TF.GenerationSoftware,Altium Limited,Altium Designer,25.7.1 (20)*
G04*
G04 Layer_Color=65535*
%FSLAX44Y44*%
%MOMM*%
G71*
G04*
G04 #@! TF.SameCoordinates,0BC58763-356E-4A0F-A031-124E3283D0B1*
G04*
G04*
G04 #@! TF.FilePolarity,Positive*
G04*
G01*
G75*
%ADD10C,0.2000*%
%ADD11C,0.1000*%
%ADD12C,0.2500*%
%ADD13C,0.0500*%
%ADD14C,0.1270*%
%ADD15C,0.1500*%
%ADD16C,0.1400*%
%ADD17C,0.1800*%
%ADD18C,0.1700*%
%ADD19C,0.2540*%
D10*
X184500Y54000D02*
G03*
X184500Y56000I0J1000D01*
G01*
D02*
G03*
X184500Y54000I0J-1000D01*
G01*
X954180Y73470D02*
G03*
X954180Y73470I-310J0D01*
G01*
X213700Y155210D02*
G03*
X213700Y155210I-1000J0D01*
G01*
X204945Y1715D02*
G03*
X203531Y300I-707J-707D01*
G01*
D02*
G03*
X204945Y1715I707J707D01*
G01*
X169500Y-47000D02*
G03*
X169500Y-47000I-500J0D01*
G01*
X160099Y-36926D02*
G03*
X160099Y-36926I-500J0D01*
G01*
X213700Y-135790D02*
G03*
X213700Y-135790I-1000J0D01*
G01*
X163500Y-47000D02*
G03*
X163500Y-47000I-500J0D01*
G01*
X52250Y-72750D02*
G03*
X52250Y-72750I-500J0D01*
G01*
X64000Y-47500D02*
G03*
X64000Y-47500I-500J0D01*
G01*
X36590Y-58380D02*
G03*
X36590Y-58380I-310J0D01*
G01*
X104214Y74930D02*
X115214D01*
X941000Y110000D02*
X967000D01*
X941000Y84000D02*
X946390D01*
X961610D02*
X967000D01*
X903000Y50000D02*
Y60000D01*
X905000Y63500D02*
X925000D01*
Y66500D01*
X905000D02*
X925000D01*
X905000Y63500D02*
Y66500D01*
X863038Y-47000D02*
X863038Y21000D01*
X964038Y-47000D02*
Y21000D01*
X724821Y-77283D02*
X735821D01*
X337090Y500D02*
X473562Y-135972D01*
X610034Y500D01*
X473562Y136972D02*
X610034Y500D01*
X337090D02*
X473562Y136972D01*
X173750Y133000D02*
X203750D01*
X173750Y158000D02*
X203750D01*
X173750Y-133000D02*
X203750D01*
X173750Y-158000D02*
X203750D01*
X39467Y3936D02*
Y14936D01*
X25750Y-50640D02*
Y-45250D01*
Y-71250D02*
Y-65860D01*
X-250Y-71250D02*
Y-45250D01*
D11*
X386876Y-106248D02*
G03*
X385876Y-106248I-500J0D01*
G01*
D02*
G03*
X386876Y-106248I500J0D01*
G01*
X962000Y55000D02*
G03*
X963000Y55000I500J0D01*
G01*
D02*
G03*
X962000Y55000I-500J0D01*
G01*
X869538Y-72000D02*
G03*
X869538Y-73000I0J-500D01*
G01*
D02*
G03*
X869538Y-72000I0J500D01*
G01*
X736750Y146700D02*
G03*
X736750Y145700I0J-500D01*
G01*
D02*
G03*
X736750Y146700I0J500D01*
G01*
X736778Y-111828D02*
G03*
X736778Y-112828I0J-500D01*
G01*
D02*
G03*
X736778Y-111828I0J500D01*
G01*
X662492Y-73188D02*
G03*
X662492Y-72188I0J500D01*
G01*
D02*
G03*
X662492Y-73188I0J-500D01*
G01*
X632632Y74083D02*
G03*
X631925Y74790I-353J353D01*
G01*
D02*
G03*
X632632Y74083I353J-353D01*
G01*
X178250Y127750D02*
G03*
X179250Y127750I500J0D01*
G01*
D02*
G03*
X178250Y127750I-500J0D01*
G01*
X179250Y-128250D02*
G03*
X178250Y-128250I-500J0D01*
G01*
D02*
G03*
X179250Y-128250I500J0D01*
G01*
X632876Y-115177D02*
G03*
X632222Y-140568I-21854J-12141D01*
G01*
X632876Y139463D02*
G03*
X632222Y114072I-21854J-12141D01*
G01*
X333958Y115181D02*
G03*
X334612Y140572I21854J12141D01*
G01*
X333958Y-139459D02*
G03*
X334612Y-114068I21854J12141D01*
G01*
X928500Y75500D02*
X930500Y74500D01*
X931500Y76500D01*
X930500Y74500D02*
X931500Y76500D01*
X927500Y83500D02*
X930500Y74500D01*
X898500Y83500D02*
X927500D01*
X898500D02*
Y93500D01*
X696492Y-92688D02*
Y-90188D01*
X689492Y-92688D02*
X696492D01*
X666492D02*
X673492D01*
X666492D02*
Y-91188D01*
X696492Y-70188D02*
Y-67688D01*
X689492D02*
X696492D01*
X666492D02*
X673492D01*
X666492Y-70188D02*
Y-67688D01*
X418000Y-117000D02*
X420000Y-118000D01*
X421000Y-116000D01*
X420000Y-118000D02*
X421000Y-116000D01*
X418000Y-111000D02*
X420000Y-118000D01*
X407000Y-101000D02*
X418000Y-111000D01*
X376000Y-106000D02*
X380000Y-105000D01*
X378000Y-101000D02*
X380000Y-105000D01*
X378000Y-101000D02*
X380000Y-105000D01*
X355000Y-92000D02*
X380000Y-105000D01*
X351000Y-101000D02*
Y-68000D01*
X314000Y-101000D02*
X351000D01*
D12*
X697750Y86500D02*
G03*
X697750Y86500I-1250J0D01*
G01*
X328264Y-11698D02*
G03*
X328264Y-11698I-1250J0D01*
G01*
X224750Y-59250D02*
G03*
X224750Y-59250I-1250J0D01*
G01*
X120250Y-65000D02*
G03*
X120250Y-65000I-1250J0D01*
G01*
X47824Y45608D02*
G03*
X47824Y45608I-1250J0D01*
G01*
D13*
X540750Y151000D02*
G03*
X540750Y151500I0J250D01*
G01*
D02*
G03*
X540750Y151000I0J-250D01*
G01*
X559417D02*
G03*
X559417Y151500I0J250D01*
G01*
D02*
G03*
X559417Y151000I0J-250D01*
G01*
X578083D02*
G03*
X578083Y151500I0J250D01*
G01*
D02*
G03*
X578083Y151000I0J-250D01*
G01*
X596750D02*
G03*
X596750Y151500I0J250D01*
G01*
D02*
G03*
X596750Y151000I0J-250D01*
G01*
X468832Y-150272D02*
Y-147272D01*
D14*
X132307Y70957D02*
X136307D01*
X408977Y-118238D02*
X412977D01*
X392529Y-130653D02*
X392529Y-134653D01*
X105250Y-77000D02*
Y-73000D01*
X962000Y67000D02*
X966000D01*
X928121Y64144D02*
X932121D01*
X935000Y54000D02*
X935000Y50000D01*
X894180Y55350D02*
X894180Y59350D01*
X894180Y47350D02*
X894180Y51350D01*
X918769Y-75649D02*
Y-71649D01*
Y-83649D02*
Y-79649D01*
X919000Y-92000D02*
Y-88000D01*
X918839Y-108084D02*
X918839Y-104084D01*
X848050Y-72226D02*
X852050D01*
X837500Y-72500D02*
X841500Y-72500D01*
X701301Y86528D02*
X705301D01*
X716250Y89750D02*
Y93750D01*
X716000Y80000D02*
Y84000D01*
X674429Y91943D02*
Y95943D01*
X656250Y89250D02*
X660250D01*
X656500Y72000D02*
X660500D01*
X627554Y67989D02*
X630382Y65161D01*
X633292Y62456D02*
X636120Y59627D01*
X687500Y38000D02*
Y42000D01*
X680500Y26500D02*
X684500D01*
X690750D02*
X694750D01*
X704577Y-81964D02*
X708577D01*
X671397Y-103150D02*
Y-99150D01*
X530855Y144191D02*
X533684Y141363D01*
X536990Y138453D02*
X539819Y135624D01*
X498013Y146379D02*
X500841Y149207D01*
X543110Y133084D02*
X545938Y130256D01*
X548908Y127126D02*
X551736Y124297D01*
X566586Y115336D02*
X569414Y118164D01*
X559836Y109086D02*
X562664Y111914D01*
X582447Y61585D02*
X585275Y64414D01*
X620586Y-9414D02*
X623414Y-6586D01*
X585588Y-57071D02*
X588417Y-59900D01*
X552509Y-93461D02*
X555338Y-96290D01*
X431472Y-144454D02*
X435472D01*
X407821Y-147436D02*
X411821D01*
X441000Y-149500D02*
X445000D01*
X504118Y-141692D02*
X506947Y-144521D01*
X468832Y-150772D02*
Y-146772D01*
X422285Y-130408D02*
X425113Y-127580D01*
X188750Y117250D02*
Y121250D01*
Y125750D02*
Y129750D01*
X172000Y117250D02*
Y121250D01*
X162150Y85328D02*
Y89328D01*
X173641Y-17750D02*
X177641D01*
X214750Y-74250D02*
Y-70250D01*
X165891Y-17750D02*
X169891D01*
X190973Y-10772D02*
Y-6772D01*
X175836Y22664D02*
X178664Y19836D01*
X197167Y16917D02*
X199996Y19746D01*
X167707Y-57575D02*
X171707D01*
X196325Y-74043D02*
Y-70043D01*
X178250Y-74500D02*
Y-70500D01*
X188750Y-113500D02*
Y-109500D01*
Y-122000D02*
Y-118000D01*
Y-130250D02*
Y-126250D01*
X124932Y-18938D02*
Y-14938D01*
Y-11318D02*
Y-7318D01*
X140250Y-44250D02*
Y-40250D01*
X125000Y-37000D02*
X129000D01*
X123434Y-77177D02*
Y-73177D01*
X105183Y-85323D02*
Y-81322D01*
X71000Y-52500D02*
X75000D01*
X62750Y-52500D02*
X66750D01*
X51748Y-67851D02*
Y-63851D01*
X51998Y-58601D02*
X51998Y-54601D01*
X27750Y-78000D02*
X31750D01*
X35426Y37270D02*
X35426Y33270D01*
X7750Y82750D02*
X11750D01*
X210232Y-10879D02*
Y-6879D01*
X406612Y110484D02*
X409440Y107655D01*
X363656Y82159D02*
X366485Y79330D01*
X371003Y75151D02*
X373831Y72323D01*
X336701Y64473D02*
X339530Y67301D01*
X330989Y58934D02*
X333817Y61762D01*
X314405Y17044D02*
X317234Y19872D01*
X302586Y5336D02*
X305414Y8164D01*
X308461Y11082D02*
X311289Y13910D01*
X371155Y-76752D02*
X373983Y-73924D01*
X918839Y-100084D02*
X918839Y-96084D01*
D15*
X92120Y77278D02*
X90620Y75778D01*
Y72779D01*
X92120Y71280D01*
X98118D01*
X99618Y72779D01*
Y75778D01*
X98118Y77278D01*
X92120Y80277D02*
X90620Y81776D01*
Y84775D01*
X92120Y86275D01*
X93619D01*
X95119Y84775D01*
Y83276D01*
Y84775D01*
X96619Y86275D01*
X98118D01*
X99618Y84775D01*
Y81776D01*
X98118Y80277D01*
X81120Y77278D02*
X79620Y75778D01*
Y72779D01*
X81120Y71280D01*
X87118D01*
X88618Y72779D01*
Y75778D01*
X87118Y77278D01*
X88618Y86275D02*
Y80277D01*
X82620Y86275D01*
X81120D01*
X79620Y84775D01*
Y81776D01*
X81120Y80277D01*
X70120Y77777D02*
X68621Y76278D01*
Y73279D01*
X70120Y71779D01*
X76118D01*
X77618Y73279D01*
Y76278D01*
X76118Y77777D01*
X77618Y80776D02*
Y83775D01*
Y82276D01*
X68621D01*
X70120Y80776D01*
X580698Y113336D02*
X574337Y119698D01*
X577518Y122879D01*
X579638D01*
X581759Y120759D01*
Y118638D01*
X578578Y115457D01*
X580698Y117578D02*
X584940D01*
X591302Y123940D02*
X587060Y119698D01*
Y128181D01*
X586000Y129241D01*
X583879D01*
X581759Y127121D01*
Y125000D01*
X596603Y129241D02*
X590241Y135603D01*
Y129241D01*
X594482Y133483D01*
X572855Y120570D02*
X566493Y126932D01*
X569674Y130113D01*
X571794D01*
X573915Y127992D01*
Y125871D01*
X570734Y122690D01*
X572855Y124811D02*
X577096D01*
X583458Y131173D02*
X579216Y126932D01*
Y135414D01*
X578156Y136475D01*
X576035D01*
X573915Y134354D01*
Y132233D01*
X580277Y138595D02*
Y140716D01*
X582397Y142836D01*
X584518D01*
X585578Y141776D01*
Y139655D01*
X584518Y138595D01*
X585578Y139655D01*
X587699D01*
X588759Y138595D01*
Y136475D01*
X586639Y134354D01*
X584518D01*
X674878Y139398D02*
X683875D01*
Y145396D01*
X674878Y154393D02*
Y148395D01*
X683875D01*
Y154393D01*
X679377Y148395D02*
Y151394D01*
X674878Y157392D02*
X683875D01*
Y161891D01*
X682376Y163390D01*
X676378D01*
X674878Y161891D01*
Y157392D01*
X683875Y170888D02*
X674878D01*
X679377Y166390D01*
Y172388D01*
X662473Y139398D02*
X671470D01*
Y145396D01*
X662473Y154393D02*
Y148395D01*
X671470D01*
Y154393D01*
X666972Y148395D02*
Y151394D01*
X662473Y157392D02*
X671470D01*
Y161891D01*
X669971Y163390D01*
X663973D01*
X662473Y161891D01*
Y157392D01*
X663973Y166390D02*
X662473Y167889D01*
Y170888D01*
X663973Y172388D01*
X665472D01*
X666972Y170888D01*
Y169389D01*
Y170888D01*
X668471Y172388D01*
X669971D01*
X671470Y170888D01*
Y167889D01*
X669971Y166390D01*
X650068Y139398D02*
X659065D01*
Y145396D01*
X650068Y154393D02*
Y148395D01*
X659065D01*
Y154393D01*
X654567Y148395D02*
Y151394D01*
X650068Y157392D02*
X659065D01*
Y161891D01*
X657566Y163390D01*
X651568D01*
X650068Y161891D01*
Y157392D01*
X659065Y172388D02*
Y166389D01*
X653067Y172388D01*
X651568D01*
X650068Y170888D01*
Y167889D01*
X651568Y166389D01*
X637663Y139398D02*
X646660D01*
Y145396D01*
X637663Y154393D02*
Y148395D01*
X646660D01*
Y154393D01*
X642162Y148395D02*
Y151394D01*
X637663Y157392D02*
X646660D01*
Y161891D01*
X645161Y163390D01*
X639163D01*
X637663Y161891D01*
Y157392D01*
X646660Y166390D02*
Y169389D01*
Y167889D01*
X637663D01*
X639163Y166390D01*
X576940Y99302D02*
Y101422D01*
X574819Y103543D01*
X572698D01*
X568457Y99302D01*
Y97181D01*
X570578Y95060D01*
X572698D01*
X578000Y87638D02*
X573759Y91879D01*
X582241D01*
X583302Y92940D01*
Y95060D01*
X581181Y97181D01*
X579060D01*
X580121Y85518D02*
X582241Y83397D01*
X581181Y84457D01*
X587543Y90819D01*
X585422D01*
X727004Y-112499D02*
Y-103502D01*
X731502D01*
X733002Y-105001D01*
Y-108000D01*
X731502Y-109500D01*
X727004D01*
X730003D02*
X733002Y-112499D01*
X736001Y-103502D02*
X741999D01*
X739000D01*
Y-112499D01*
X750996D02*
X744998D01*
X750996Y-106501D01*
Y-105001D01*
X749497Y-103502D01*
X746498D01*
X744998Y-105001D01*
X726503Y105501D02*
Y114499D01*
X731002D01*
X732502Y112999D01*
Y110000D01*
X731002Y108500D01*
X726503D01*
X729502D02*
X732502Y105501D01*
X735500Y114499D02*
X741498D01*
X738500D01*
Y105501D01*
X744498D02*
X747497D01*
X745997D01*
Y114499D01*
X744498Y112999D01*
X687498Y-20996D02*
X678501D01*
Y-16498D01*
X680001Y-14998D01*
X683000D01*
X684500Y-16498D01*
Y-20996D01*
Y-17997D02*
X687498Y-14998D01*
Y-6001D02*
Y-11999D01*
X681500Y-6001D01*
X680001D01*
X678501Y-7501D01*
Y-10500D01*
X680001Y-11999D01*
X685999Y-3002D02*
X687498Y-1502D01*
Y1497D01*
X685999Y2996D01*
X680001D01*
X678501Y1497D01*
Y-1502D01*
X680001Y-3002D01*
X681500D01*
X683000Y-1502D01*
Y2996D01*
X740004Y88501D02*
Y97499D01*
X744502D01*
X746002Y95999D01*
Y93000D01*
X744502Y91501D01*
X740004D01*
X743003D02*
X746002Y88501D01*
X754999D02*
X749001D01*
X754999Y94500D01*
Y95999D01*
X753500Y97499D01*
X750500D01*
X749001Y95999D01*
X757998D02*
X759498Y97499D01*
X762497D01*
X763996Y95999D01*
Y94500D01*
X762497Y93000D01*
X763996Y91501D01*
Y90001D01*
X762497Y88501D01*
X759498D01*
X757998Y90001D01*
Y91501D01*
X759498Y93000D01*
X757998Y94500D01*
Y95999D01*
X759498Y93000D02*
X762497D01*
X698499Y-20996D02*
X689501D01*
Y-16498D01*
X691001Y-14998D01*
X694000D01*
X695499Y-16498D01*
Y-20996D01*
Y-17997D02*
X698499Y-14998D01*
Y-6001D02*
Y-11999D01*
X692500Y-6001D01*
X691001D01*
X689501Y-7501D01*
Y-10500D01*
X691001Y-11999D01*
X689501Y-3002D02*
Y2996D01*
X691001D01*
X696999Y-3002D01*
X698499D01*
X740004Y76501D02*
Y85499D01*
X744502D01*
X746002Y83999D01*
Y81000D01*
X744502Y79500D01*
X740004D01*
X743003D02*
X746002Y76501D01*
X754999D02*
X749001D01*
X754999Y82500D01*
Y83999D01*
X753500Y85499D01*
X750500D01*
X749001Y83999D01*
X763996Y85499D02*
X760997Y83999D01*
X757998Y81000D01*
Y78001D01*
X759498Y76501D01*
X762497D01*
X763996Y78001D01*
Y79500D01*
X762497Y81000D01*
X757998D01*
X697504Y69499D02*
X700503D01*
X699004D01*
Y60501D01*
X697504D01*
X700503D01*
X711000Y67999D02*
X709501Y69499D01*
X706501D01*
X705002Y67999D01*
Y62001D01*
X706501Y60501D01*
X709501D01*
X711000Y62001D01*
X713999Y60501D02*
X716998D01*
X715499D01*
Y69499D01*
X713999Y67999D01*
X721497Y60501D02*
X724496D01*
X722996D01*
Y69499D01*
X721497Y67999D01*
X668002Y107999D02*
X666502Y109499D01*
X663503D01*
X662004Y107999D01*
Y102001D01*
X663503Y100501D01*
X666502D01*
X668002Y102001D01*
X671001D02*
X672501Y100501D01*
X675499D01*
X676999Y102001D01*
Y107999D01*
X675499Y109499D01*
X672501D01*
X671001Y107999D01*
Y106500D01*
X672501Y105000D01*
X676999D01*
X685996Y109499D02*
X682997Y107999D01*
X679998Y105000D01*
Y102001D01*
X681498Y100501D01*
X684497D01*
X685996Y102001D01*
Y103500D01*
X684497Y105000D01*
X679998D01*
X220501Y149999D02*
X219001Y151499D01*
X216002D01*
X214502Y149999D01*
Y148499D01*
X216002Y147000D01*
X219001D01*
X220501Y145500D01*
Y144001D01*
X219001Y142501D01*
X216002D01*
X214502Y144001D01*
X229498Y142501D02*
X223500D01*
X229498Y148499D01*
Y149999D01*
X227998Y151499D01*
X224999D01*
X223500Y149999D01*
X163502Y104501D02*
Y113499D01*
X168001D01*
X169501Y111999D01*
Y109000D01*
X168001Y107500D01*
X163502D01*
X166501D02*
X169501Y104501D01*
X172500Y113499D02*
X178498D01*
Y111999D01*
X172500Y106001D01*
Y104501D01*
X201502Y130499D02*
Y121502D01*
X206001D01*
X207500Y123001D01*
Y128999D01*
X206001Y130499D01*
X201502D01*
X216498D02*
X210499D01*
Y126000D01*
X213498Y127500D01*
X214998D01*
X216498Y126000D01*
Y123001D01*
X214998Y121502D01*
X211999D01*
X210499Y123001D01*
X157502Y-123502D02*
Y-132499D01*
X162001D01*
X163500Y-130999D01*
Y-125001D01*
X162001Y-123502D01*
X157502D01*
X170998Y-132499D02*
Y-123502D01*
X166500Y-128000D01*
X172498D01*
X189752Y111999D02*
X188252Y113499D01*
X185253D01*
X183754Y111999D01*
Y106001D01*
X185253Y104501D01*
X188252D01*
X189752Y106001D01*
X192751Y104501D02*
X195750D01*
X194250D01*
Y113499D01*
X192751Y111999D01*
X206246Y113499D02*
X203247Y111999D01*
X200248Y109000D01*
Y106001D01*
X201748Y104501D01*
X204747D01*
X206246Y106001D01*
Y107500D01*
X204747Y109000D01*
X200248D01*
X222000Y-144001D02*
X220501Y-142501D01*
X217501D01*
X216002Y-144001D01*
Y-145500D01*
X217501Y-147000D01*
X220501D01*
X222000Y-148499D01*
Y-149999D01*
X220501Y-151499D01*
X217501D01*
X216002Y-149999D01*
X224999Y-151499D02*
X227998D01*
X226499D01*
Y-142501D01*
X224999Y-144001D01*
X564821Y127790D02*
X558459Y134151D01*
X561640Y137332D01*
X563760D01*
X565881Y135212D01*
Y133091D01*
X562700Y129910D01*
X564821Y132031D02*
X569062D01*
X575424Y138393D02*
X571182Y134151D01*
Y142634D01*
X570122Y143694D01*
X568002D01*
X565881Y141574D01*
Y139453D01*
X581786Y144755D02*
X577544Y140513D01*
Y148996D01*
X576484Y150056D01*
X574363D01*
X572243Y147936D01*
Y145815D01*
X556815Y135581D02*
X550453Y141943D01*
X553634Y145124D01*
X555755D01*
X557876Y143003D01*
Y140883D01*
X554695Y137702D01*
X556815Y139822D02*
X561057D01*
X567419Y146184D02*
X563177Y141943D01*
Y150426D01*
X562117Y151486D01*
X559996D01*
X557876Y149365D01*
Y147245D01*
X569539Y148305D02*
X571660Y150426D01*
X570600Y149365D01*
X564238Y155727D01*
Y153607D01*
X662498Y7004D02*
X653501D01*
Y11502D01*
X655001Y13002D01*
X658000D01*
X659500Y11502D01*
Y7004D01*
Y10003D02*
X662498Y13002D01*
Y21999D02*
Y16001D01*
X656500Y21999D01*
X655001D01*
X653501Y20499D01*
Y17500D01*
X655001Y16001D01*
Y24998D02*
X653501Y26498D01*
Y29497D01*
X655001Y30996D01*
X660999D01*
X662498Y29497D01*
Y26498D01*
X660999Y24998D01*
X655001D01*
X662498Y34754D02*
X653502D01*
Y39252D01*
X655001Y40752D01*
X658000D01*
X659500Y39252D01*
Y34754D01*
Y37753D02*
X662498Y40752D01*
Y43751D02*
Y46750D01*
Y45250D01*
X653502D01*
X655001Y43751D01*
X660999Y51248D02*
X662498Y52748D01*
Y55747D01*
X660999Y57246D01*
X655001D01*
X653502Y55747D01*
Y52748D01*
X655001Y51248D01*
X656500D01*
X658000Y52748D01*
Y57246D01*
X146502Y-109499D02*
Y-100501D01*
X151001D01*
X152500Y-102001D01*
Y-105000D01*
X151001Y-106500D01*
X146502D01*
X149501D02*
X152500Y-109499D01*
X161498Y-100501D02*
X158498Y-102001D01*
X155499Y-105000D01*
Y-107999D01*
X156999Y-109499D01*
X159998D01*
X161498Y-107999D01*
Y-106500D01*
X159998Y-105000D01*
X155499D01*
X309517Y74121D02*
X315879Y80483D01*
X319060Y77302D01*
Y75181D01*
X316940Y73060D01*
X314819D01*
X311638Y76241D01*
X313759Y74121D02*
Y69879D01*
X319060Y64578D02*
X325422Y70940D01*
X319060D01*
X323302Y66698D01*
X317518Y82121D02*
X323879Y88483D01*
X327060Y85302D01*
Y83181D01*
X324940Y81060D01*
X322819D01*
X319638Y84241D01*
X321759Y82121D02*
Y77879D01*
X328121Y71518D02*
X323879Y75759D01*
X332362D01*
X333422Y76819D01*
Y78940D01*
X331302Y81060D01*
X329181D01*
X342940Y83578D02*
X336578Y89940D01*
X339759Y93121D01*
X341879D01*
X344000Y91000D01*
Y88879D01*
X340819Y85698D01*
X342940Y87819D02*
X347181D01*
X349302Y89940D02*
X351422Y92060D01*
X350362Y91000D01*
X344000Y97362D01*
Y95241D01*
X897000Y69001D02*
Y74999D01*
X895500Y76499D01*
X892502D01*
X891002Y74999D01*
Y69001D01*
X892502Y67502D01*
X895500D01*
X894001Y70500D02*
X897000Y67502D01*
X895500D02*
X897000Y69001D01*
X899999Y67502D02*
X902998D01*
X901499D01*
Y76499D01*
X899999Y74999D01*
X957502Y-83502D02*
Y-92499D01*
X963501D01*
X966499Y-85001D02*
X967999Y-83502D01*
X970998D01*
X972498Y-85001D01*
Y-86501D01*
X970998Y-88000D01*
X972498Y-89500D01*
Y-90999D01*
X970998Y-92499D01*
X967999D01*
X966499Y-90999D01*
Y-89500D01*
X967999Y-88000D01*
X966499Y-86501D01*
Y-85001D01*
X967999Y-88000D02*
X970998D01*
X912502Y94499D02*
Y85501D01*
X918501D01*
X921499Y94499D02*
X927498D01*
Y92999D01*
X921499Y87001D01*
Y85501D01*
X922501Y111498D02*
X919501D01*
X921001D01*
Y104001D01*
X919501Y102501D01*
X918002D01*
X916502Y104001D01*
X925499D02*
X926999Y102501D01*
X929998D01*
X931498Y104001D01*
Y109999D01*
X929998Y111498D01*
X926999D01*
X925499Y109999D01*
Y108499D01*
X926999Y107000D01*
X931498D01*
X604578Y88784D02*
X606698Y86664D01*
X605638Y87724D01*
X599276Y81362D01*
X598216Y82422D01*
X600336Y80302D01*
X613060Y78181D02*
Y80302D01*
X610940Y82422D01*
X608819D01*
X604578Y78181D01*
Y76060D01*
X606698Y73940D01*
X608819D01*
X609879Y70759D02*
X612000Y68638D01*
X610940Y69698D01*
X617302Y76060D01*
X615181D01*
X620483Y70759D02*
X622603D01*
X624724Y68638D01*
Y66517D01*
X620483Y62276D01*
X618362D01*
X616241Y64397D01*
Y66517D01*
X620483Y70759D01*
X834754Y11499D02*
X837753D01*
X836253D01*
Y2501D01*
X834754D01*
X837753D01*
X848249Y9999D02*
X846750Y11499D01*
X843751D01*
X842251Y9999D01*
Y4001D01*
X843751Y2501D01*
X846750D01*
X848249Y4001D01*
X851248D02*
X852748Y2501D01*
X855747D01*
X857246Y4001D01*
Y9999D01*
X855747Y11499D01*
X852748D01*
X851248Y9999D01*
Y8500D01*
X852748Y7000D01*
X857246D01*
X50754Y57498D02*
X53753D01*
X52253D01*
Y48502D01*
X50754D01*
X53753D01*
X64249Y55999D02*
X62750Y57498D01*
X59751D01*
X58251Y55999D01*
Y50001D01*
X59751Y48502D01*
X62750D01*
X64249Y50001D01*
X67248Y55999D02*
X68748Y57498D01*
X71747D01*
X73246Y55999D01*
Y54500D01*
X71747Y53000D01*
X70247D01*
X71747D01*
X73246Y51501D01*
Y50001D01*
X71747Y48502D01*
X68748D01*
X67248Y50001D01*
X666754Y-53502D02*
X669753D01*
X668253D01*
Y-62499D01*
X666754D01*
X669753D01*
X680249Y-55001D02*
X678750Y-53502D01*
X675751D01*
X674251Y-55001D01*
Y-60999D01*
X675751Y-62499D01*
X678750D01*
X680249Y-60999D01*
X689246Y-62499D02*
X683248D01*
X689246Y-56501D01*
Y-55001D01*
X687747Y-53502D01*
X684748D01*
X683248Y-55001D01*
X125253Y51999D02*
X128252D01*
X126753D01*
Y43001D01*
X125253D01*
X128252D01*
X138749Y50499D02*
X137249Y51999D01*
X134250D01*
X132751Y50499D01*
Y44501D01*
X134250Y43001D01*
X137249D01*
X138749Y44501D01*
X141748Y43001D02*
X144747D01*
X143247D01*
Y51999D01*
X141748Y50499D01*
X963002Y51499D02*
X957004D01*
Y47000D01*
X960003D01*
X957004D01*
Y42502D01*
X966001Y51499D02*
Y42502D01*
X971999D01*
X974998Y49999D02*
X976498Y51499D01*
X979497D01*
X980996Y49999D01*
Y48499D01*
X979497Y47000D01*
X977997D01*
X979497D01*
X980996Y45500D01*
Y44001D01*
X979497Y42502D01*
X976498D01*
X974998Y44001D01*
X681002Y14999D02*
X679502Y16499D01*
X676503D01*
X675004Y14999D01*
Y9001D01*
X676503Y7502D01*
X679502D01*
X681002Y9001D01*
X684001D02*
X685500Y7502D01*
X688500D01*
X689999Y9001D01*
Y14999D01*
X688500Y16499D01*
X685500D01*
X684001Y14999D01*
Y13499D01*
X685500Y12000D01*
X689999D01*
X698996Y16499D02*
X692998D01*
Y12000D01*
X695997Y13499D01*
X697497D01*
X698996Y12000D01*
Y9001D01*
X697497Y7502D01*
X694498D01*
X692998Y9001D01*
X730001Y82002D02*
X728501Y80503D01*
Y77503D01*
X730001Y76004D01*
X735999D01*
X737498Y77503D01*
Y80503D01*
X735999Y82002D01*
Y85001D02*
X737498Y86501D01*
Y89500D01*
X735999Y90999D01*
X730001D01*
X728501Y89500D01*
Y86501D01*
X730001Y85001D01*
X731500D01*
X733000Y86501D01*
Y90999D01*
X737498Y98497D02*
X728501D01*
X733000Y93998D01*
Y99996D01*
X647565Y87260D02*
X649686D01*
X651806Y89381D01*
Y91501D01*
X647565Y95743D01*
X645444D01*
X643324Y93622D01*
Y91501D01*
X645444Y85139D02*
Y83019D01*
X643324Y80898D01*
X641203D01*
X640143Y81958D01*
Y84079D01*
X638022D01*
X636962Y85139D01*
Y87260D01*
X639082Y89381D01*
X641203D01*
X642263Y88320D01*
Y86200D01*
X644384D01*
X645444Y85139D01*
X642263Y86200D02*
X640143Y84079D01*
X634841Y83019D02*
X632720D01*
X630600Y80898D01*
Y78777D01*
X634841Y74536D01*
X636962D01*
X639082Y76657D01*
Y78777D01*
X638022Y79838D01*
X635901D01*
X632720Y76657D01*
X650476Y83553D02*
X652597D01*
X654717Y85674D01*
Y87794D01*
X650476Y92036D01*
X648355D01*
X646235Y89915D01*
Y87794D01*
X648355Y81433D02*
Y79312D01*
X646235Y77191D01*
X644114D01*
X643054Y78252D01*
Y80372D01*
X640933D01*
X639873Y81433D01*
Y83553D01*
X641994Y85674D01*
X644114D01*
X645174Y84613D01*
Y82493D01*
X647295D01*
X648355Y81433D01*
X645174Y82493D02*
X643054Y80372D01*
X641994Y75071D02*
Y72950D01*
X639873Y70829D01*
X637752D01*
X636692Y71890D01*
Y74010D01*
X634571D01*
X633511Y75071D01*
Y77191D01*
X635632Y79312D01*
X637752D01*
X638813Y78252D01*
Y76131D01*
X640933D01*
X641994Y75071D01*
X638813Y76131D02*
X636692Y74010D01*
X865002Y52999D02*
X863502Y54499D01*
X860503D01*
X859004Y52999D01*
Y47001D01*
X860503Y45501D01*
X863502D01*
X865002Y47001D01*
X868001Y52999D02*
X869501Y54499D01*
X872499D01*
X873999Y52999D01*
Y51500D01*
X872499Y50000D01*
X873999Y48500D01*
Y47001D01*
X872499Y45501D01*
X869501D01*
X868001Y47001D01*
Y48500D01*
X869501Y50000D01*
X868001Y51500D01*
Y52999D01*
X869501Y50000D02*
X872499D01*
X876998Y54499D02*
X882996D01*
Y52999D01*
X876998Y47001D01*
Y45501D01*
X865002Y63999D02*
X863502Y65498D01*
X860503D01*
X859004Y63999D01*
Y58001D01*
X860503Y56501D01*
X863502D01*
X865002Y58001D01*
X868001Y63999D02*
X869501Y65498D01*
X872499D01*
X873999Y63999D01*
Y62499D01*
X872499Y61000D01*
X873999Y59500D01*
Y58001D01*
X872499Y56501D01*
X869501D01*
X868001Y58001D01*
Y59500D01*
X869501Y61000D01*
X868001Y62499D01*
Y63999D01*
X869501Y61000D02*
X872499D01*
X882996Y65498D02*
X879997Y63999D01*
X876998Y61000D01*
Y58001D01*
X878498Y56501D01*
X881497D01*
X882996Y58001D01*
Y59500D01*
X881497Y61000D01*
X876998D01*
X808001Y-75998D02*
X806501Y-77498D01*
Y-80497D01*
X808001Y-81996D01*
X813999D01*
X815499Y-80497D01*
Y-77498D01*
X813999Y-75998D01*
X808001Y-72999D02*
X806501Y-71500D01*
Y-68500D01*
X808001Y-67001D01*
X809501D01*
X811000Y-68500D01*
X812499Y-67001D01*
X813999D01*
X815499Y-68500D01*
Y-71500D01*
X813999Y-72999D01*
X812499D01*
X811000Y-71500D01*
X809501Y-72999D01*
X808001D01*
X811000Y-71500D02*
Y-68500D01*
X806501Y-58004D02*
Y-64002D01*
X811000D01*
X809501Y-61003D01*
Y-59503D01*
X811000Y-58004D01*
X813999D01*
X815499Y-59503D01*
Y-62502D01*
X813999Y-64002D01*
X819001Y-75998D02*
X817501Y-77498D01*
Y-80497D01*
X819001Y-81996D01*
X824999D01*
X826498Y-80497D01*
Y-77498D01*
X824999Y-75998D01*
X819001Y-72999D02*
X817501Y-71500D01*
Y-68500D01*
X819001Y-67001D01*
X820500D01*
X822000Y-68500D01*
X823500Y-67001D01*
X824999D01*
X826498Y-68500D01*
Y-71500D01*
X824999Y-72999D01*
X823500D01*
X822000Y-71500D01*
X820500Y-72999D01*
X819001D01*
X822000Y-71500D02*
Y-68500D01*
X826498Y-59503D02*
X817501D01*
X822000Y-64002D01*
Y-58004D01*
X964002Y-96001D02*
X962502Y-94501D01*
X959503D01*
X958004Y-96001D01*
Y-101999D01*
X959503Y-103498D01*
X962502D01*
X964002Y-101999D01*
X967001Y-96001D02*
X968501Y-94501D01*
X971499D01*
X972999Y-96001D01*
Y-97500D01*
X971499Y-99000D01*
X972999Y-100499D01*
Y-101999D01*
X971499Y-103498D01*
X968501D01*
X967001Y-101999D01*
Y-100499D01*
X968501Y-99000D01*
X967001Y-97500D01*
Y-96001D01*
X968501Y-99000D02*
X971499D01*
X975998Y-96001D02*
X977498Y-94501D01*
X980497D01*
X981996Y-96001D01*
Y-97500D01*
X980497Y-99000D01*
X978997D01*
X980497D01*
X981996Y-100499D01*
Y-101999D01*
X980497Y-103498D01*
X977498D01*
X975998Y-101999D01*
X964002Y-107001D02*
X962502Y-105501D01*
X959503D01*
X958004Y-107001D01*
Y-112999D01*
X959503Y-114499D01*
X962502D01*
X964002Y-112999D01*
X967001Y-107001D02*
X968501Y-105501D01*
X971499D01*
X972999Y-107001D01*
Y-108500D01*
X971499Y-110000D01*
X972999Y-111500D01*
Y-112999D01*
X971499Y-114499D01*
X968501D01*
X967001Y-112999D01*
Y-111500D01*
X968501Y-110000D01*
X967001Y-108500D01*
Y-107001D01*
X968501Y-110000D02*
X971499D01*
X981996Y-114499D02*
X975998D01*
X981996Y-108500D01*
Y-107001D01*
X980497Y-105501D01*
X977498D01*
X975998Y-107001D01*
X969501Y-62001D02*
X968002Y-60501D01*
X965003D01*
X963503Y-62001D01*
Y-67999D01*
X965003Y-69499D01*
X968002D01*
X969501Y-67999D01*
X972501Y-62001D02*
X974000Y-60501D01*
X976999D01*
X978499Y-62001D01*
Y-63500D01*
X976999Y-65000D01*
X978499Y-66500D01*
Y-67999D01*
X976999Y-69499D01*
X974000D01*
X972501Y-67999D01*
Y-66500D01*
X974000Y-65000D01*
X972501Y-63500D01*
Y-62001D01*
X974000Y-65000D02*
X976999D01*
X981498Y-69499D02*
X984497D01*
X982997D01*
Y-60501D01*
X981498Y-62001D01*
X963002Y-74001D02*
X961502Y-72502D01*
X958503D01*
X957004Y-74001D01*
Y-79999D01*
X958503Y-81498D01*
X961502D01*
X963002Y-79999D01*
X966001Y-74001D02*
X967501Y-72502D01*
X970499D01*
X971999Y-74001D01*
Y-75500D01*
X970499Y-77000D01*
X971999Y-78499D01*
Y-79999D01*
X970499Y-81498D01*
X967501D01*
X966001Y-79999D01*
Y-78499D01*
X967501Y-77000D01*
X966001Y-75500D01*
Y-74001D01*
X967501Y-77000D02*
X970499D01*
X974998Y-74001D02*
X976498Y-72502D01*
X979497D01*
X980996Y-74001D01*
Y-79999D01*
X979497Y-81498D01*
X976498D01*
X974998Y-79999D01*
Y-74001D01*
X902001Y96002D02*
X900501Y94502D01*
Y91503D01*
X902001Y90004D01*
X907999D01*
X909499Y91503D01*
Y94502D01*
X907999Y96002D01*
X900501Y99001D02*
Y104999D01*
X902001D01*
X907999Y99001D01*
X909499D01*
X907999Y107998D02*
X909499Y109497D01*
Y112497D01*
X907999Y113996D01*
X902001D01*
X900501Y112497D01*
Y109497D01*
X902001Y107998D01*
X903501D01*
X905000Y109497D01*
Y113996D01*
X974001Y65002D02*
X972501Y63502D01*
Y60503D01*
X974001Y59004D01*
X979999D01*
X981498Y60503D01*
Y63502D01*
X979999Y65002D01*
X972501Y68001D02*
Y73999D01*
X974001D01*
X979999Y68001D01*
X981498D01*
X974001Y76998D02*
X972501Y78498D01*
Y81497D01*
X974001Y82996D01*
X975500D01*
X977000Y81497D01*
X978500Y82996D01*
X979999D01*
X981498Y81497D01*
Y78498D01*
X979999Y76998D01*
X978500D01*
X977000Y78498D01*
X975500Y76998D01*
X974001D01*
X977000Y78498D02*
Y81497D01*
X157752Y-114001D02*
X156252Y-112501D01*
X153253D01*
X151754Y-114001D01*
Y-119999D01*
X153253Y-121498D01*
X156252D01*
X157752Y-119999D01*
X160751Y-121498D02*
X163750D01*
X162250D01*
Y-112501D01*
X160751Y-114001D01*
X172747Y-121498D02*
Y-112501D01*
X168248Y-117000D01*
X174246D01*
X47752Y89999D02*
X46252Y91498D01*
X43253D01*
X41754Y89999D01*
Y84001D01*
X43253Y82501D01*
X46252D01*
X47752Y84001D01*
X50751Y82501D02*
X53750D01*
X52250D01*
Y91498D01*
X50751Y89999D01*
X58248D02*
X59748Y91498D01*
X62747D01*
X64246Y89999D01*
Y88499D01*
X62747Y87000D01*
X61247D01*
X62747D01*
X64246Y85500D01*
Y84001D01*
X62747Y82501D01*
X59748D01*
X58248Y84001D01*
X6752Y33999D02*
X5252Y35498D01*
X2253D01*
X754Y33999D01*
Y28001D01*
X2253Y26501D01*
X5252D01*
X6752Y28001D01*
X9751Y26501D02*
X12750D01*
X11250D01*
Y35498D01*
X9751Y33999D01*
X23246Y26501D02*
X17248D01*
X23246Y32499D01*
Y33999D01*
X21747Y35498D01*
X18748D01*
X17248Y33999D01*
X7251Y22999D02*
X5752Y24499D01*
X2753D01*
X1253Y22999D01*
Y17001D01*
X2753Y15502D01*
X5752D01*
X7251Y17001D01*
X10250Y15502D02*
X13249D01*
X11750D01*
Y24499D01*
X10250Y22999D01*
X17748Y15502D02*
X20747D01*
X19247D01*
Y24499D01*
X17748Y22999D01*
X7752Y11999D02*
X6252Y13499D01*
X3253D01*
X1754Y11999D01*
Y6001D01*
X3253Y4502D01*
X6252D01*
X7752Y6001D01*
X10751Y4502D02*
X13750D01*
X12250D01*
Y13499D01*
X10751Y11999D01*
X18248D02*
X19748Y13499D01*
X22747D01*
X24246Y11999D01*
Y6001D01*
X22747Y4502D01*
X19748D01*
X18248Y6001D01*
Y11999D01*
X670500Y-109001D02*
X669001Y-107501D01*
X666002D01*
X664502Y-109001D01*
Y-114999D01*
X666002Y-116498D01*
X669001D01*
X670500Y-114999D01*
X673500D02*
X674999Y-116498D01*
X677998D01*
X679498Y-114999D01*
Y-109001D01*
X677998Y-107501D01*
X674999D01*
X673500Y-109001D01*
Y-110500D01*
X674999Y-112000D01*
X679498D01*
X727001Y-52499D02*
X725501Y-53999D01*
Y-56998D01*
X727001Y-58498D01*
X732999D01*
X734499Y-56998D01*
Y-53999D01*
X732999Y-52499D01*
X727001Y-49500D02*
X725501Y-48001D01*
Y-45002D01*
X727001Y-43502D01*
X728500D01*
X730000Y-45002D01*
X731499Y-43502D01*
X732999D01*
X734499Y-45002D01*
Y-48001D01*
X732999Y-49500D01*
X731499D01*
X730000Y-48001D01*
X728500Y-49500D01*
X727001D01*
X730000Y-48001D02*
Y-45002D01*
X714001Y-54500D02*
X712501Y-55999D01*
Y-58998D01*
X714001Y-60498D01*
X719999D01*
X721498Y-58998D01*
Y-55999D01*
X719999Y-54500D01*
X712501Y-51501D02*
Y-45502D01*
X714001D01*
X719999Y-51501D01*
X721498D01*
X701001Y-54500D02*
X699501Y-55999D01*
Y-58998D01*
X701001Y-60498D01*
X706999D01*
X708499Y-58998D01*
Y-55999D01*
X706999Y-54500D01*
X699501Y-45502D02*
X701001Y-48502D01*
X704000Y-51501D01*
X706999D01*
X708499Y-50001D01*
Y-47002D01*
X706999Y-45502D01*
X705499D01*
X704000Y-47002D01*
Y-51501D01*
X158404Y100230D02*
X156904Y101730D01*
X153905D01*
X152406Y100230D01*
Y94232D01*
X153905Y92733D01*
X156904D01*
X158404Y94232D01*
X167401Y101730D02*
X161403D01*
Y97231D01*
X164402Y98731D01*
X165901D01*
X167401Y97231D01*
Y94232D01*
X165901Y92733D01*
X162902D01*
X161403Y94232D01*
X205379Y33482D02*
X204319Y32422D01*
Y28181D01*
X208560D01*
X209621Y29241D01*
X204319Y28181D02*
X201138Y25000D01*
X209621Y16517D02*
X205379Y20759D01*
X213862D01*
X214922Y21819D01*
Y23940D01*
X212802Y26060D01*
X210681D01*
X320002Y-72502D02*
Y-74001D01*
X323001Y-77000D01*
X326000Y-74001D01*
Y-72502D01*
X323001Y-77000D02*
Y-81498D01*
X328999D02*
X331998D01*
X330499D01*
Y-72502D01*
X328999Y-74001D01*
X159231Y-6567D02*
Y2430D01*
X163730D01*
X165229Y931D01*
Y-2068D01*
X163730Y-3568D01*
X159231D01*
X162230D02*
X165229Y-6567D01*
X168228D02*
X171227D01*
X169728D01*
Y2430D01*
X168228Y931D01*
X175726D02*
X177226Y2430D01*
X180225D01*
X181724Y931D01*
Y-569D01*
X180225Y-2068D01*
X178725D01*
X180225D01*
X181724Y-3568D01*
Y-5067D01*
X180225Y-6567D01*
X177226D01*
X175726Y-5067D01*
X95754Y2501D02*
Y11499D01*
X100252D01*
X101752Y9999D01*
Y7000D01*
X100252Y5501D01*
X95754D01*
X98753D02*
X101752Y2501D01*
X104751D02*
X107750D01*
X106250D01*
Y11499D01*
X104751Y9999D01*
X118246Y2501D02*
X112248D01*
X118246Y8500D01*
Y9999D01*
X116747Y11499D01*
X113748D01*
X112248Y9999D01*
X96253Y-8498D02*
Y499D01*
X100752D01*
X102251Y-1001D01*
Y-4000D01*
X100752Y-5500D01*
X96253D01*
X99252D02*
X102251Y-8498D01*
X105250D02*
X108249D01*
X106750D01*
Y499D01*
X105250Y-1001D01*
X112748Y-8498D02*
X115747D01*
X114247D01*
Y499D01*
X112748Y-1001D01*
X178498Y-101246D02*
X169501D01*
Y-96748D01*
X171001Y-95248D01*
X174000D01*
X175499Y-96748D01*
Y-101246D01*
Y-98247D02*
X178498Y-95248D01*
Y-92249D02*
Y-89250D01*
Y-90750D01*
X169501D01*
X171001Y-92249D01*
Y-84752D02*
X169501Y-83252D01*
Y-80253D01*
X171001Y-78754D01*
X176999D01*
X178498Y-80253D01*
Y-83252D01*
X176999Y-84752D01*
X171001D01*
X376498Y-171498D02*
X367501D01*
Y-166999D01*
X369001Y-165499D01*
X372000D01*
X373499Y-166999D01*
Y-171498D01*
Y-168498D02*
X376498Y-165499D01*
X374999Y-162500D02*
X376498Y-161001D01*
Y-158002D01*
X374999Y-156502D01*
X369001D01*
X367501Y-158002D01*
Y-161001D01*
X369001Y-162500D01*
X370500D01*
X372000Y-161001D01*
Y-156502D01*
X575518Y106121D02*
X581879Y112483D01*
X585060Y109302D01*
Y107181D01*
X582940Y105060D01*
X580819D01*
X577638Y108241D01*
X579759Y106121D02*
Y101879D01*
X587181Y105060D02*
X589302D01*
X591422Y102940D01*
Y100819D01*
X590362Y99759D01*
X588241D01*
Y97638D01*
X587181Y96578D01*
X585060D01*
X582940Y98698D01*
Y100819D01*
X584000Y101879D01*
X586121D01*
Y104000D01*
X587181Y105060D01*
X586121Y101879D02*
X588241Y99759D01*
X293517Y37121D02*
X299879Y43482D01*
X303060Y40302D01*
Y38181D01*
X300940Y36060D01*
X298819D01*
X295638Y39241D01*
X297759Y37121D02*
Y32879D01*
X310483D02*
X306241Y37121D01*
X303060Y33940D01*
X306241Y32879D01*
X307302Y31819D01*
Y29698D01*
X305181Y27578D01*
X303060D01*
X300940Y29698D01*
Y31819D01*
X301518Y45121D02*
X307879Y51483D01*
X311060Y48302D01*
Y46181D01*
X308940Y44060D01*
X306819D01*
X303638Y47241D01*
X305759Y45121D02*
Y40879D01*
X313181Y44060D02*
X315302D01*
X317422Y41940D01*
Y39819D01*
X316362Y38759D01*
X314241D01*
X313181Y39819D01*
X314241Y38759D01*
Y36638D01*
X313181Y35578D01*
X311060D01*
X308940Y37699D01*
Y39819D01*
X134501Y-32498D02*
X143498D01*
Y-26500D01*
X134501Y-17502D02*
Y-23500D01*
X139000D01*
X137500Y-20501D01*
Y-19002D01*
X139000Y-17502D01*
X141999D01*
X143498Y-19002D01*
Y-22001D01*
X141999Y-23500D01*
X145501Y-32498D02*
X154499D01*
Y-26500D01*
Y-19002D02*
X145501D01*
X150000Y-23500D01*
Y-17502D01*
X147501Y-69497D02*
X156498D01*
Y-63499D01*
X149001Y-60500D02*
X147501Y-59001D01*
Y-56002D01*
X149001Y-54502D01*
X150500D01*
X152000Y-56002D01*
Y-57501D01*
Y-56002D01*
X153499Y-54502D01*
X154999D01*
X156498Y-56002D01*
Y-59001D01*
X154999Y-60500D01*
X35502Y-78502D02*
Y-87499D01*
X41501D01*
X50498D02*
X44500D01*
X50498Y-81501D01*
Y-80001D01*
X48998Y-78502D01*
X45999D01*
X44500Y-80001D01*
X35002Y-5501D02*
Y-14498D01*
X41000D01*
X43999D02*
X46998D01*
X45498D01*
Y-5501D01*
X43999Y-7001D01*
X4212Y-21677D02*
X1213D01*
X2713D01*
Y-29174D01*
X1213Y-30674D01*
X-287D01*
X-1786Y-29174D01*
X13209Y-30674D02*
X7211D01*
X13209Y-24676D01*
Y-23176D01*
X11710Y-21677D01*
X8711D01*
X7211Y-23176D01*
X228754Y-88001D02*
X231753D01*
X230253D01*
Y-96999D01*
X228754D01*
X231753D01*
X242249Y-89501D02*
X240750Y-88001D01*
X237751D01*
X236251Y-89501D01*
Y-95499D01*
X237751Y-96999D01*
X240750D01*
X242249Y-95499D01*
X251246Y-88001D02*
X248247Y-89501D01*
X245248Y-92500D01*
Y-95499D01*
X246748Y-96999D01*
X249747D01*
X251246Y-95499D01*
Y-94000D01*
X249747Y-92500D01*
X245248D01*
X86754Y-16501D02*
X89753D01*
X88253D01*
Y-25499D01*
X86754D01*
X89753D01*
X100249Y-18001D02*
X98750Y-16501D01*
X95751D01*
X94251Y-18001D01*
Y-23999D01*
X95751Y-25499D01*
X98750D01*
X100249Y-23999D01*
X109246Y-16501D02*
X103248D01*
Y-21000D01*
X106247Y-19500D01*
X107747D01*
X109246Y-21000D01*
Y-23999D01*
X107747Y-25499D01*
X104748D01*
X103248Y-23999D01*
X461754Y153498D02*
X464753D01*
X463253D01*
Y144501D01*
X461754D01*
X464753D01*
X475249Y151999D02*
X473750Y153498D01*
X470751D01*
X469251Y151999D01*
Y146001D01*
X470751Y144501D01*
X473750D01*
X475249Y146001D01*
X482747Y144501D02*
Y153498D01*
X478248Y149000D01*
X484246D01*
X494982Y-155124D02*
X488984D01*
Y-159622D01*
X491983D01*
X488984D01*
Y-164121D01*
X497981Y-155124D02*
Y-164121D01*
X502479D01*
X503979Y-162621D01*
Y-161122D01*
X502479Y-159622D01*
X497981D01*
X502479D01*
X503979Y-158123D01*
Y-156623D01*
X502479Y-155124D01*
X497981D01*
X506978Y-164121D02*
X509977D01*
X508478D01*
Y-155124D01*
X506978Y-156623D01*
X189051Y33424D02*
X186930D01*
X184809Y31303D01*
Y29182D01*
X189051Y24941D01*
X191171D01*
X193292Y27062D01*
Y29182D01*
X194352Y40846D02*
X190111Y36604D01*
X193292Y33424D01*
X194352Y36604D01*
X195413Y37665D01*
X197533D01*
X199654Y35544D01*
Y33424D01*
X197533Y31303D01*
X195413D01*
X206016Y39785D02*
X199654Y46147D01*
Y39785D01*
X203895Y44027D01*
X217879Y38862D02*
Y40982D01*
X215759Y43103D01*
X213638D01*
X209397Y38862D01*
Y36741D01*
X211518Y34621D01*
X213638D01*
X225302Y33560D02*
X221060Y37802D01*
X217879Y34621D01*
X221060Y33560D01*
X222121Y32500D01*
Y30379D01*
X220000Y28259D01*
X217879D01*
X215759Y30379D01*
Y32500D01*
X226362Y30379D02*
X228482D01*
X230603Y28259D01*
Y26138D01*
X229543Y25078D01*
X227422D01*
X226362Y26138D01*
X227422Y25078D01*
Y22957D01*
X226362Y21897D01*
X224241D01*
X222121Y24018D01*
Y26138D01*
X139001Y2D02*
X137501Y-1498D01*
Y-4497D01*
X139001Y-5996D01*
X144999D01*
X146498Y-4497D01*
Y-1498D01*
X144999Y2D01*
X137501Y8999D02*
Y3001D01*
X142000D01*
X140500Y6000D01*
Y7499D01*
X142000Y8999D01*
X144999D01*
X146498Y7499D01*
Y4500D01*
X144999Y3001D01*
X146498Y17996D02*
Y11998D01*
X140500Y17996D01*
X139001D01*
X137501Y16497D01*
Y13498D01*
X139001Y11998D01*
X150001Y501D02*
X148502Y-998D01*
Y-3997D01*
X150001Y-5497D01*
X155999D01*
X157499Y-3997D01*
Y-998D01*
X155999Y501D01*
X148502Y9499D02*
Y3501D01*
X153000D01*
X151501Y6500D01*
Y7999D01*
X153000Y9499D01*
X155999D01*
X157499Y7999D01*
Y5000D01*
X155999Y3501D01*
X157499Y12498D02*
Y15497D01*
Y13997D01*
X148502D01*
X150001Y12498D01*
X7002Y-85001D02*
X5502Y-83502D01*
X2503D01*
X1004Y-85001D01*
Y-90999D01*
X2503Y-92499D01*
X5502D01*
X7002Y-90999D01*
X15999Y-83502D02*
X10001D01*
Y-88000D01*
X13000Y-86501D01*
X14499D01*
X15999Y-88000D01*
Y-90999D01*
X14499Y-92499D01*
X11501D01*
X10001Y-90999D01*
X18998Y-85001D02*
X20498Y-83502D01*
X23497D01*
X24996Y-85001D01*
Y-90999D01*
X23497Y-92499D01*
X20498D01*
X18998Y-90999D01*
Y-85001D01*
X42002Y-30001D02*
X40502Y-28502D01*
X37503D01*
X36004Y-30001D01*
Y-35999D01*
X37503Y-37499D01*
X40502D01*
X42002Y-35999D01*
X49500Y-37499D02*
Y-28502D01*
X45001Y-33000D01*
X50999D01*
X53998Y-35999D02*
X55498Y-37499D01*
X58497D01*
X59996Y-35999D01*
Y-30001D01*
X58497Y-28502D01*
X55498D01*
X53998Y-30001D01*
Y-31500D01*
X55498Y-33000D01*
X59996D01*
X41002Y-19001D02*
X39502Y-17501D01*
X36503D01*
X35004Y-19001D01*
Y-24999D01*
X36503Y-26499D01*
X39502D01*
X41002Y-24999D01*
X48499Y-26499D02*
Y-17501D01*
X44001Y-22000D01*
X49999D01*
X52998Y-19001D02*
X54498Y-17501D01*
X57497D01*
X58996Y-19001D01*
Y-20501D01*
X57497Y-22000D01*
X58996Y-23500D01*
Y-24999D01*
X57497Y-26499D01*
X54498D01*
X52998Y-24999D01*
Y-23500D01*
X54498Y-22000D01*
X52998Y-20501D01*
Y-19001D01*
X54498Y-22000D02*
X57497D01*
X64001Y-30998D02*
X62501Y-32498D01*
Y-35497D01*
X64001Y-36996D01*
X69999D01*
X71498Y-35497D01*
Y-32498D01*
X69999Y-30998D01*
X71498Y-23500D02*
X62501D01*
X67000Y-27999D01*
Y-22001D01*
X62501Y-19002D02*
Y-13004D01*
X64001D01*
X69999Y-19002D01*
X71498D01*
X75001Y-30998D02*
X73502Y-32498D01*
Y-35497D01*
X75001Y-36996D01*
X80999D01*
X82499Y-35497D01*
Y-32498D01*
X80999Y-30998D01*
X82499Y-23500D02*
X73502D01*
X78000Y-27999D01*
Y-22001D01*
X73502Y-13004D02*
X75001Y-16003D01*
X78000Y-19002D01*
X80999D01*
X82499Y-17502D01*
Y-14503D01*
X80999Y-13004D01*
X79500D01*
X78000Y-14503D01*
Y-19002D01*
X125001Y-63998D02*
X123501Y-65498D01*
Y-68497D01*
X125001Y-69996D01*
X130999D01*
X132499Y-68497D01*
Y-65498D01*
X130999Y-63998D01*
X132499Y-56501D02*
X123501D01*
X128000Y-60999D01*
Y-55001D01*
X123501Y-46004D02*
Y-52002D01*
X128000D01*
X126501Y-49003D01*
Y-47503D01*
X128000Y-46004D01*
X130999D01*
X132499Y-47503D01*
Y-50502D01*
X130999Y-52002D01*
X137001Y-63998D02*
X135501Y-65498D01*
Y-68497D01*
X137001Y-69996D01*
X142999D01*
X144499Y-68497D01*
Y-65498D01*
X142999Y-63998D01*
X144499Y-56501D02*
X135501D01*
X140000Y-60999D01*
Y-55001D01*
X144499Y-47503D02*
X135501D01*
X140000Y-52002D01*
Y-46004D01*
X207002Y3999D02*
X205502Y5498D01*
X202503D01*
X201004Y3999D01*
Y-1999D01*
X202503Y-3498D01*
X205502D01*
X207002Y-1999D01*
X214499Y-3498D02*
Y5498D01*
X210001Y1000D01*
X215999D01*
X218998Y3999D02*
X220498Y5498D01*
X223497D01*
X224996Y3999D01*
Y2500D01*
X223497Y1000D01*
X221997D01*
X223497D01*
X224996Y-499D01*
Y-1999D01*
X223497Y-3498D01*
X220498D01*
X218998Y-1999D01*
X182001Y-94998D02*
X180501Y-96498D01*
Y-99497D01*
X182001Y-100996D01*
X187999D01*
X189499Y-99497D01*
Y-96498D01*
X187999Y-94998D01*
X189499Y-87500D02*
X180501D01*
X185000Y-91999D01*
Y-86001D01*
X189499Y-77004D02*
Y-83002D01*
X183500Y-77004D01*
X182001D01*
X180501Y-78503D01*
Y-81502D01*
X182001Y-83002D01*
X154001Y-88498D02*
X152501Y-89998D01*
Y-92997D01*
X154001Y-94497D01*
X159999D01*
X161499Y-92997D01*
Y-89998D01*
X159999Y-88498D01*
X161499Y-81001D02*
X152501D01*
X157000Y-85499D01*
Y-79501D01*
X161499Y-76502D02*
Y-73503D01*
Y-75003D01*
X152501D01*
X154001Y-76502D01*
X78002Y-73001D02*
X76502Y-71501D01*
X73503D01*
X72004Y-73001D01*
Y-78999D01*
X73503Y-80499D01*
X76502D01*
X78002Y-78999D01*
X85499Y-80499D02*
Y-71501D01*
X81001Y-76000D01*
X86999D01*
X89998Y-73001D02*
X91498Y-71501D01*
X94497D01*
X95996Y-73001D01*
Y-78999D01*
X94497Y-80499D01*
X91498D01*
X89998Y-78999D01*
Y-73001D01*
X122002Y-83001D02*
X120502Y-81502D01*
X117503D01*
X116004Y-83001D01*
Y-88999D01*
X117503Y-90499D01*
X120502D01*
X122002Y-88999D01*
X125001Y-83001D02*
X126501Y-81502D01*
X129500D01*
X130999Y-83001D01*
Y-84501D01*
X129500Y-86000D01*
X128000D01*
X129500D01*
X130999Y-87500D01*
Y-88999D01*
X129500Y-90499D01*
X126501D01*
X125001Y-88999D01*
X133998D02*
X135498Y-90499D01*
X138497D01*
X139996Y-88999D01*
Y-83001D01*
X138497Y-81502D01*
X135498D01*
X133998Y-83001D01*
Y-84501D01*
X135498Y-86000D01*
X139996D01*
X78002Y-84001D02*
X76502Y-82501D01*
X73503D01*
X72004Y-84001D01*
Y-89999D01*
X73503Y-91498D01*
X76502D01*
X78002Y-89999D01*
X81001Y-84001D02*
X82500Y-82501D01*
X85499D01*
X86999Y-84001D01*
Y-85500D01*
X85499Y-87000D01*
X84000D01*
X85499D01*
X86999Y-88499D01*
Y-89999D01*
X85499Y-91498D01*
X82500D01*
X81001Y-89999D01*
X89998Y-84001D02*
X91498Y-82501D01*
X94497D01*
X95996Y-84001D01*
Y-85500D01*
X94497Y-87000D01*
X95996Y-88499D01*
Y-89999D01*
X94497Y-91498D01*
X91498D01*
X89998Y-89999D01*
Y-88499D01*
X91498Y-87000D01*
X89998Y-85500D01*
Y-84001D01*
X91498Y-87000D02*
X94497D01*
X193001Y-94998D02*
X191501Y-96498D01*
Y-99497D01*
X193001Y-100996D01*
X198999D01*
X200499Y-99497D01*
Y-96498D01*
X198999Y-94998D01*
X193001Y-91999D02*
X191501Y-90499D01*
Y-87500D01*
X193001Y-86001D01*
X194500D01*
X196000Y-87500D01*
Y-89000D01*
Y-87500D01*
X197500Y-86001D01*
X198999D01*
X200499Y-87500D01*
Y-90499D01*
X198999Y-91999D01*
X191501Y-83002D02*
Y-77004D01*
X193001D01*
X198999Y-83002D01*
X200499D01*
X318879Y54362D02*
Y56483D01*
X316759Y58603D01*
X314638D01*
X310397Y54362D01*
Y52241D01*
X312518Y50121D01*
X314638D01*
X321000Y52241D02*
X323121D01*
X325241Y50121D01*
Y48000D01*
X324181Y46940D01*
X322060D01*
X321000Y48000D01*
X322060Y46940D01*
Y44819D01*
X321000Y43759D01*
X318879D01*
X316759Y45879D01*
Y48000D01*
X332663Y42698D02*
X329482Y43759D01*
X325241D01*
X323121Y41638D01*
Y39517D01*
X325241Y37397D01*
X327362D01*
X328422Y38457D01*
Y40578D01*
X325241Y43759D01*
X349638Y84879D02*
X347518D01*
X345397Y82759D01*
Y80638D01*
X349638Y76397D01*
X351759D01*
X353879Y78517D01*
Y80638D01*
X351759Y87000D02*
Y89121D01*
X353879Y91241D01*
X356000D01*
X357060Y90181D01*
Y88060D01*
X356000Y87000D01*
X357060Y88060D01*
X359181D01*
X360241Y87000D01*
Y84879D01*
X358121Y82759D01*
X356000D01*
X361302Y98664D02*
X357060Y94422D01*
X360241Y91241D01*
X361302Y94422D01*
X362362Y95483D01*
X364482D01*
X366603Y93362D01*
Y91241D01*
X364482Y89121D01*
X362362D01*
X391638Y117879D02*
X389518D01*
X387397Y115759D01*
Y113638D01*
X391638Y109397D01*
X393759D01*
X395879Y111517D01*
Y113638D01*
X393759Y120000D02*
Y122121D01*
X395879Y124241D01*
X398000D01*
X399060Y123181D01*
Y121060D01*
X398000Y120000D01*
X399060Y121060D01*
X401181D01*
X402241Y120000D01*
Y117879D01*
X400121Y115759D01*
X398000D01*
X408603Y124241D02*
X402241Y130603D01*
Y124241D01*
X406483Y128483D01*
X479879Y169362D02*
Y171483D01*
X477759Y173603D01*
X475638D01*
X471397Y169362D01*
Y167241D01*
X473517Y165121D01*
X475638D01*
X482000Y167241D02*
X484121D01*
X486241Y165121D01*
Y163000D01*
X485181Y161940D01*
X483060D01*
X482000Y163000D01*
X483060Y161940D01*
Y159819D01*
X482000Y158759D01*
X479879D01*
X477759Y160879D01*
Y163000D01*
X488362Y160879D02*
X490482D01*
X492603Y158759D01*
Y156638D01*
X491543Y155578D01*
X489422D01*
X488362Y156638D01*
X489422Y155578D01*
Y153457D01*
X488362Y152397D01*
X486241D01*
X484121Y154517D01*
Y156638D01*
X594879Y72362D02*
Y74482D01*
X592759Y76603D01*
X590638D01*
X586397Y72362D01*
Y70241D01*
X588517Y68121D01*
X590638D01*
X597000Y70241D02*
X599121D01*
X601241Y68121D01*
Y66000D01*
X600181Y64940D01*
X598060D01*
X597000Y66000D01*
X598060Y64940D01*
Y62819D01*
X597000Y61759D01*
X594879D01*
X592759Y63879D01*
Y66000D01*
X602302Y54337D02*
X598060Y58578D01*
X606543D01*
X607603Y59638D01*
Y61759D01*
X605482Y63879D01*
X603362D01*
X629940Y6302D02*
Y8422D01*
X627819Y10543D01*
X625698D01*
X621457Y6302D01*
Y4181D01*
X623578Y2060D01*
X625698D01*
X632060Y4181D02*
X634181D01*
X636302Y2060D01*
Y-60D01*
X635241Y-1121D01*
X633121D01*
X632060Y-60D01*
X633121Y-1121D01*
Y-3241D01*
X632060Y-4302D01*
X629940D01*
X627819Y-2181D01*
Y-60D01*
X633121Y-7483D02*
X635241Y-9603D01*
X634181Y-8543D01*
X640543Y-2181D01*
X638422D01*
X589638Y-67121D02*
X587518D01*
X585397Y-69241D01*
Y-71362D01*
X589638Y-75603D01*
X591759D01*
X593879Y-73483D01*
Y-71362D01*
X591759Y-65000D02*
Y-62879D01*
X593879Y-60759D01*
X596000D01*
X597060Y-61819D01*
Y-63940D01*
X596000Y-65000D01*
X597060Y-63940D01*
X599181D01*
X600241Y-65000D01*
Y-67121D01*
X598121Y-69241D01*
X596000D01*
X598121Y-58638D02*
Y-56518D01*
X600241Y-54397D01*
X602362D01*
X606603Y-58638D01*
Y-60759D01*
X604482Y-62879D01*
X602362D01*
X598121Y-58638D01*
X556638Y-103121D02*
X554518D01*
X552397Y-105241D01*
Y-107362D01*
X556638Y-111603D01*
X558759D01*
X560879Y-109482D01*
Y-107362D01*
X568302Y-102060D02*
X564060Y-106302D01*
Y-97819D01*
X563000Y-96759D01*
X560879D01*
X558759Y-98879D01*
Y-101000D01*
X569362Y-98879D02*
X571483D01*
X573603Y-96759D01*
Y-94638D01*
X569362Y-90397D01*
X567241D01*
X565121Y-92517D01*
Y-94638D01*
X566181Y-95698D01*
X568302D01*
X571483Y-92517D01*
X516638Y-130121D02*
X514518D01*
X512397Y-132241D01*
Y-134362D01*
X516638Y-138603D01*
X518759D01*
X520879Y-136482D01*
Y-134362D01*
X528302Y-129060D02*
X524060Y-133302D01*
Y-124819D01*
X523000Y-123759D01*
X520879D01*
X518759Y-125879D01*
Y-128000D01*
X525121Y-121638D02*
Y-119517D01*
X527241Y-117397D01*
X529362D01*
X530422Y-118457D01*
Y-120578D01*
X532543D01*
X533603Y-121638D01*
Y-123759D01*
X531483Y-125879D01*
X529362D01*
X528302Y-124819D01*
Y-122698D01*
X526181D01*
X525121Y-121638D01*
X528302Y-122698D02*
X530422Y-120578D01*
X389879Y-87638D02*
Y-85518D01*
X387759Y-83397D01*
X385638D01*
X381397Y-87638D01*
Y-89759D01*
X383517Y-91879D01*
X385638D01*
X390940Y-99302D02*
X386698Y-95060D01*
X395181D01*
X396241Y-94000D01*
Y-91879D01*
X394121Y-89759D01*
X392000D01*
X399422Y-95060D02*
X403663Y-99302D01*
X402603Y-100362D01*
X394121D01*
X393060Y-101422D01*
X350879Y-52638D02*
Y-50518D01*
X348759Y-48397D01*
X346638D01*
X342397Y-52638D01*
Y-54759D01*
X344518Y-56879D01*
X346638D01*
X351940Y-64302D02*
X347698Y-60060D01*
X356181D01*
X357241Y-59000D01*
Y-56879D01*
X355121Y-54759D01*
X353000D01*
X364664Y-64302D02*
X361483Y-63241D01*
X357241D01*
X355121Y-65362D01*
Y-67483D01*
X357241Y-69603D01*
X359362D01*
X360422Y-68543D01*
Y-66422D01*
X357241Y-63241D01*
X515879Y168362D02*
Y170483D01*
X513759Y172603D01*
X511638D01*
X507397Y168362D01*
Y166241D01*
X509518Y164121D01*
X511638D01*
X516940Y156698D02*
X512698Y160940D01*
X521181D01*
X522241Y162000D01*
Y164121D01*
X520121Y166241D01*
X518000D01*
X529664Y156698D02*
X525422Y160940D01*
X522241Y157759D01*
X525422Y156698D01*
X526483Y155638D01*
Y153517D01*
X524362Y151397D01*
X522241D01*
X520121Y153517D01*
Y155638D01*
X616638Y-47121D02*
X614518D01*
X612397Y-49241D01*
Y-51362D01*
X616638Y-55603D01*
X618759D01*
X620879Y-53482D01*
Y-51362D01*
X628302Y-46060D02*
X624060Y-50302D01*
Y-41819D01*
X623000Y-40759D01*
X620879D01*
X618759Y-42879D01*
Y-45000D01*
X633603Y-40759D02*
X627241Y-34397D01*
Y-40759D01*
X631483Y-36518D01*
X392001Y-165998D02*
X390501Y-167498D01*
Y-170497D01*
X392001Y-171996D01*
X397999D01*
X399498Y-170497D01*
Y-167498D01*
X397999Y-165998D01*
X399498Y-157001D02*
Y-162999D01*
X393500Y-157001D01*
X392001D01*
X390501Y-158500D01*
Y-161500D01*
X392001Y-162999D01*
Y-154002D02*
X390501Y-152502D01*
Y-149503D01*
X392001Y-148004D01*
X393500D01*
X395000Y-149503D01*
Y-151003D01*
Y-149503D01*
X396499Y-148004D01*
X397999D01*
X399498Y-149503D01*
Y-152502D01*
X397999Y-154002D01*
X381001Y-165998D02*
X379501Y-167498D01*
Y-170497D01*
X381001Y-171996D01*
X386999D01*
X388498Y-170497D01*
Y-167498D01*
X386999Y-165998D01*
X388498Y-157001D02*
Y-162999D01*
X382500Y-157001D01*
X381001D01*
X379501Y-158500D01*
Y-161500D01*
X381001Y-162999D01*
X388498Y-148004D02*
Y-154002D01*
X382500Y-148004D01*
X381001D01*
X379501Y-149503D01*
Y-152502D01*
X381001Y-154002D01*
X568879Y91362D02*
Y93483D01*
X566759Y95603D01*
X564638D01*
X560397Y91362D01*
Y89241D01*
X562517Y87121D01*
X564638D01*
X569940Y79698D02*
X565698Y83940D01*
X574181D01*
X575241Y85000D01*
Y87121D01*
X573121Y89241D01*
X571000D01*
X577362Y82879D02*
X579482D01*
X581603Y80759D01*
Y78638D01*
X577362Y74397D01*
X575241D01*
X573121Y76517D01*
Y78638D01*
X577362Y82879D01*
X466222Y-169112D02*
X464722Y-170612D01*
Y-173611D01*
X466222Y-175110D01*
X472220D01*
X473719Y-173611D01*
Y-170612D01*
X472220Y-169112D01*
X473719Y-166113D02*
Y-163114D01*
Y-164614D01*
X464722D01*
X466222Y-166113D01*
X472220Y-158616D02*
X473719Y-157116D01*
Y-154117D01*
X472220Y-152618D01*
X466222D01*
X464722Y-154117D01*
Y-157116D01*
X466222Y-158616D01*
X467721D01*
X469221Y-157116D01*
Y-152618D01*
X477602Y-169009D02*
X476102Y-170508D01*
Y-173507D01*
X477602Y-175007D01*
X483600D01*
X485099Y-173507D01*
Y-170508D01*
X483600Y-169009D01*
X485099Y-166010D02*
Y-163011D01*
Y-164510D01*
X476102D01*
X477602Y-166010D01*
Y-158512D02*
X476102Y-157013D01*
Y-154014D01*
X477602Y-152514D01*
X479101D01*
X480601Y-154014D01*
X482100Y-152514D01*
X483600D01*
X485099Y-154014D01*
Y-157013D01*
X483600Y-158512D01*
X482100D01*
X480601Y-157013D01*
X479101Y-158512D01*
X477602D01*
X480601Y-157013D02*
Y-154014D01*
X340001Y-82248D02*
X338501Y-83748D01*
Y-86747D01*
X340001Y-88246D01*
X345999D01*
X347499Y-86747D01*
Y-83748D01*
X345999Y-82248D01*
X347499Y-79249D02*
Y-76250D01*
Y-77750D01*
X338501D01*
X340001Y-79249D01*
X338501Y-71752D02*
Y-65754D01*
X340001D01*
X345999Y-71752D01*
X347499D01*
X320752Y-91001D02*
X319252Y-89501D01*
X316253D01*
X314754Y-91001D01*
Y-96999D01*
X316253Y-98499D01*
X319252D01*
X320752Y-96999D01*
X323751Y-98499D02*
X326750D01*
X325250D01*
Y-89501D01*
X323751Y-91001D01*
X337246Y-89501D02*
X331248D01*
Y-94000D01*
X334247Y-92500D01*
X335747D01*
X337246Y-94000D01*
Y-96999D01*
X335747Y-98499D01*
X332748D01*
X331248Y-96999D01*
D16*
X776620Y-28888D02*
Y-26556D01*
Y-27722D01*
X769622D01*
X770789Y-28888D01*
Y-23057D02*
X769622Y-21890D01*
Y-19558D01*
X770789Y-18391D01*
X775454D01*
X776620Y-19558D01*
Y-21890D01*
X775454Y-23057D01*
X770789D01*
X773121Y-16059D02*
Y-11394D01*
X776620Y-4396D02*
Y-9061D01*
X771955Y-4396D01*
X770789D01*
X769622Y-5562D01*
Y-7895D01*
X770789Y-9061D01*
Y-2063D02*
X769622Y-897D01*
Y1435D01*
X770789Y2602D01*
X775454D01*
X776620Y1435D01*
Y-897D01*
X775454Y-2063D01*
X770789D01*
X776620Y9599D02*
Y4934D01*
X771955Y9599D01*
X770789D01*
X769622Y8433D01*
Y6101D01*
X770789Y4934D01*
X769622Y16597D02*
Y11932D01*
X773121D01*
X771955Y14265D01*
Y15431D01*
X773121Y16597D01*
X775454D01*
X776620Y15431D01*
Y13098D01*
X775454Y11932D01*
D17*
X801715Y22586D02*
X800049Y20920D01*
Y17588D01*
X801715Y15922D01*
X803381D01*
X805047Y17588D01*
Y20920D01*
X806713Y22586D01*
X808380D01*
X810046Y20920D01*
Y17588D01*
X808380Y15922D01*
X803381Y25919D02*
Y32583D01*
X810046Y25919D01*
Y32583D01*
Y35915D02*
X808380D01*
Y37582D01*
X810046D01*
Y35915D01*
X801715Y50911D02*
X800049Y49244D01*
Y45912D01*
X801715Y44246D01*
X808380D01*
X810046Y45912D01*
Y49244D01*
X808380Y50911D01*
X805047D01*
Y47578D01*
X756391Y1512D02*
X763056Y4844D01*
X756391Y8176D01*
X754725Y11509D02*
X753059Y13175D01*
Y16507D01*
X754725Y18173D01*
X761390D01*
X763056Y16507D01*
Y13175D01*
X761390Y11509D01*
X754725D01*
X763056Y21505D02*
X761390D01*
Y23172D01*
X763056D01*
Y21505D01*
Y29836D02*
Y33168D01*
Y31502D01*
X753059D01*
X754725Y29836D01*
D18*
X784180Y8202D02*
X793177D01*
Y12700D01*
X791677Y14200D01*
X790178D01*
X788678D01*
X787179Y12700D01*
Y8202D01*
Y17199D02*
X791677D01*
X793177Y18699D01*
Y23197D01*
X794676D01*
X796176Y21697D01*
Y20198D01*
X793177Y23197D02*
X787179D01*
X793177Y26196D02*
X791677D01*
Y27696D01*
X793177D01*
Y26196D01*
D19*
X747081Y-17591D02*
Y-27748D01*
X754698D01*
Y-22670D01*
Y-27748D01*
X762316D01*
X749620Y-2356D02*
X747081Y-4895D01*
Y-9974D01*
X749620Y-12513D01*
X759777D01*
X762316Y-9974D01*
Y-4895D01*
X759777Y-2356D01*
M02*
